<svg xmlns="http://www.w3.org/2000/svg" xmlns:xlink="http://www.w3.org/1999/xlink" viewBox="0 0 396.47 325.97"><defs><style>.cls-1{fill:none;}.cls-2{fill:#c4c4c4;}.cls-3{fill:url(#linear-gradient);}.cls-4{fill:url(#linear-gradient-2);}.cls-5{fill:url(#linear-gradient-3);}.cls-6{fill:url(#linear-gradient-4);}.cls-7{fill:url(#linear-gradient-5);}.cls-8{fill:url(#linear-gradient-6);}.cls-9{fill:url(#linear-gradient-7);}.cls-10{fill:url(#linear-gradient-8);}.cls-11{fill:url(#linear-gradient-9);}.cls-12{fill:url(#linear-gradient-10);}.cls-13{fill:url(#linear-gradient-11);}.cls-14{fill:url(#linear-gradient-12);}.cls-15{fill:url(#linear-gradient-13);}.cls-16{fill:url(#linear-gradient-14);}.cls-17{fill:url(#linear-gradient-15);}.cls-18{fill:url(#linear-gradient-16);}.cls-19{fill:url(#linear-gradient-17);}.cls-20{fill:url(#linear-gradient-18);}.cls-21{fill:url(#linear-gradient-19);}.cls-22{fill:url(#linear-gradient-20);}.cls-23{fill:url(#linear-gradient-21);}.cls-24{fill:url(#linear-gradient-22);}.cls-25{fill:url(#linear-gradient-23);}.cls-26{fill:url(#linear-gradient-24);}.cls-27{fill:url(#linear-gradient-25);}.cls-28{fill:url(#linear-gradient-26);}.cls-29{fill:url(#linear-gradient-27);}.cls-30{fill:url(#linear-gradient-28);}.cls-31{fill:url(#linear-gradient-29);}.cls-32{fill:url(#linear-gradient-30);}.cls-33{fill:url(#linear-gradient-31);}.cls-34{fill:url(#linear-gradient-32);}.cls-35{fill:url(#linear-gradient-33);}.cls-36{fill:url(#linear-gradient-34);}.cls-37{fill:url(#linear-gradient-35);}.cls-38{fill:url(#linear-gradient-36);}.cls-39{fill:url(#linear-gradient-37);}.cls-40{fill:url(#linear-gradient-38);}.cls-41{fill:url(#linear-gradient-39);}.cls-42{fill:url(#linear-gradient-40);}.cls-43{fill:url(#linear-gradient-41);}.cls-44{fill:url(#linear-gradient-42);}.cls-45{fill:url(#linear-gradient-43);}.cls-46{fill:url(#linear-gradient-44);}.cls-47{fill:url(#linear-gradient-45);}.cls-48{fill:url(#linear-gradient-46);}.cls-49{fill:url(#linear-gradient-47);}.cls-50{fill:#e2e1e1;}.cls-51{fill:url(#linear-gradient-48);}.cls-52{fill:url(#linear-gradient-49);}.cls-53{fill:#06b0ab;}.cls-54{fill:url(#linear-gradient-50);}.cls-55{fill:#282b35;}.cls-56{fill:#1e1f27;}.cls-57{fill:#343744;}.cls-58{fill:#2e323d;}.cls-59{fill:url(#linear-gradient-51);}.cls-60{fill:#0b7c7b;}.cls-61{fill:url(#linear-gradient-52);}.cls-62{fill:#e0e0d9;}.cls-63{fill:url(#linear-gradient-53);}.cls-64{fill:url(#linear-gradient-54);}.cls-65{fill:url(#linear-gradient-55);}.cls-66{fill:url(#linear-gradient-56);}.cls-67{fill:url(#linear-gradient-57);}.cls-68{fill:url(#linear-gradient-58);}.cls-69{fill:url(#linear-gradient-59);}.cls-70{fill:#7e8181;}.cls-71{fill:url(#linear-gradient-60);}.cls-72{fill:url(#linear-gradient-61);}.cls-73,.cls-85{fill:#fff;}.cls-73,.cls-82{opacity:0.5;}.cls-73,.cls-78,.cls-82{isolation:isolate;}.cls-74{fill:#e4e4e3;}.cls-75{fill:url(#linear-gradient-62);}.cls-76{fill:url(#linear-gradient-63);}.cls-77{fill:url(#radial-gradient);}.cls-78{fill:#d2d2ce;opacity:0.6;}.cls-79{clip-path:url(#clip-path);}.cls-80{fill:#fffffc;}.cls-81{fill:#b7b6b3;}.cls-82{fill:#cdcfce;}.cls-83{fill:#f1efed;}.cls-84{fill-rule:evenodd;fill:url(#Безымянный_градиент_304);}</style><linearGradient id="linear-gradient" x1="3.69" y1="-670.47" x2="394.7" y2="-670.47" gradientTransform="matrix(1, 0, 0, -1, 0, -457.53)" gradientUnits="userSpaceOnUse"><stop offset="0" stop-color="#c7c6c5"/><stop offset="1" stop-color="#c4c4c4"/></linearGradient><linearGradient id="linear-gradient-2" x1="3.5" y1="-670.38" x2="394.8" y2="-670.38" gradientTransform="matrix(1, 0, 0, -1, 0, -457.53)" gradientUnits="userSpaceOnUse"><stop offset="0" stop-color="#c9c9c9"/><stop offset="1" stop-color="#c6c5c5"/></linearGradient><linearGradient id="linear-gradient-3" x1="3.3" y1="-670.25" x2="394.85" y2="-670.25" gradientTransform="matrix(1, 0, 0, -1, 0, -457.53)" gradientUnits="userSpaceOnUse"><stop offset="0" stop-color="#cbcbcb"/><stop offset="1" stop-color="#c6c5c5"/></linearGradient><linearGradient id="linear-gradient-4" x1="3.14" y1="-670.12" x2="394.96" y2="-670.12" gradientTransform="matrix(1, 0, 0, -1, 0, -457.53)" gradientUnits="userSpaceOnUse"><stop offset="0" stop-color="#cfcfce"/><stop offset="1" stop-color="#c7c6c5"/></linearGradient><linearGradient id="linear-gradient-5" x1="2.95" y1="-670" x2="395.07" y2="-670" gradientTransform="matrix(1, 0, 0, -1, 0, -457.53)" gradientUnits="userSpaceOnUse"><stop offset="0" stop-color="#d0d1d1"/><stop offset="1" stop-color="#c7c6c5"/></linearGradient><linearGradient id="linear-gradient-6" x1="2.77" y1="-669.88" x2="395.14" y2="-669.88" gradientTransform="matrix(1, 0, 0, -1, 0, -457.53)" gradientUnits="userSpaceOnUse"><stop offset="0" stop-color="#d3d3d3"/><stop offset="1" stop-color="#c8c7c6"/></linearGradient><linearGradient id="linear-gradient-7" x1="2.57" y1="-669.72" x2="395.24" y2="-669.72" gradientTransform="matrix(1, 0, 0, -1, 0, -457.53)" gradientUnits="userSpaceOnUse"><stop offset="0" stop-color="#d6d5d5"/><stop offset="1" stop-color="#c8c7c6"/></linearGradient><linearGradient id="linear-gradient-8" x1="2.39" y1="-669.65" x2="395.33" y2="-669.65" gradientTransform="matrix(1, 0, 0, -1, 0, -457.53)" gradientUnits="userSpaceOnUse"><stop offset="0" stop-color="#d8d9d8"/><stop offset="1" stop-color="#c8c7c6"/></linearGradient><linearGradient id="linear-gradient-9" x1="2.21" y1="-669.48" x2="395.41" y2="-669.48" gradientTransform="matrix(1, 0, 0, -1, 0, -457.53)" gradientUnits="userSpaceOnUse"><stop offset="0" stop-color="#dbdada"/><stop offset="1" stop-color="#c8c8c8"/></linearGradient><linearGradient id="linear-gradient-10" x1="2.02" y1="-669.36" x2="395.5" y2="-669.36" gradientTransform="matrix(1, 0, 0, -1, 0, -457.53)" gradientUnits="userSpaceOnUse"><stop offset="0" stop-color="#ddd"/><stop offset="1" stop-color="#c8c8c8"/></linearGradient><linearGradient id="linear-gradient-11" x1="1.86" y1="-669.23" x2="395.6" y2="-669.23" gradientTransform="matrix(1, 0, 0, -1, 0, -457.53)" gradientUnits="userSpaceOnUse"><stop offset="0" stop-color="#e0e0df"/><stop offset="1" stop-color="#c9c9c9"/></linearGradient><linearGradient id="linear-gradient-12" x1="1.66" y1="-669.11" x2="395.67" y2="-669.11" gradientTransform="matrix(1, 0, 0, -1, 0, -457.53)" gradientUnits="userSpaceOnUse"><stop offset="0" stop-color="#e2e2e2"/><stop offset="1" stop-color="#c9c9c9"/></linearGradient><linearGradient id="linear-gradient-13" x1="1.48" y1="-668.97" x2="395.79" y2="-668.97" gradientTransform="matrix(1, 0, 0, -1, 0, -457.53)" gradientUnits="userSpaceOnUse"><stop offset="0" stop-color="#e4e4e4"/><stop offset="1" stop-color="#cacaca"/></linearGradient><linearGradient id="linear-gradient-14" x1="1.28" y1="-668.84" x2="395.81" y2="-668.84" gradientTransform="matrix(1, 0, 0, -1, 0, -457.53)" gradientUnits="userSpaceOnUse"><stop offset="0" stop-color="#e8e7e7"/><stop offset="1" stop-color="#cacaca"/></linearGradient><linearGradient id="linear-gradient-15" x1="1.11" y1="-668.73" x2="395.94" y2="-668.73" gradientTransform="matrix(1, 0, 0, -1, 0, -457.53)" gradientUnits="userSpaceOnUse"><stop offset="0" stop-color="#e9e8e9"/><stop offset="1" stop-color="#cacaca"/></linearGradient><linearGradient id="linear-gradient-16" x1="0.93" y1="-668.59" x2="396.03" y2="-668.59" gradientTransform="matrix(1, 0, 0, -1, 0, -457.53)" gradientUnits="userSpaceOnUse"><stop offset="0" stop-color="#ececec"/><stop offset="1" stop-color="#cbcbcb"/></linearGradient><linearGradient id="linear-gradient-17" x1="0.74" y1="-668.47" x2="396.12" y2="-668.47" gradientTransform="matrix(1, 0, 0, -1, 0, -457.53)" gradientUnits="userSpaceOnUse"><stop offset="0" stop-color="#eeedee"/><stop offset="1" stop-color="#cbcbcb"/></linearGradient><linearGradient id="linear-gradient-18" x1="0.55" y1="-668.34" x2="396.23" y2="-668.34" gradientTransform="matrix(1, 0, 0, -1, 0, -457.53)" gradientUnits="userSpaceOnUse"><stop offset="0" stop-color="#f2f2f2"/><stop offset="1" stop-color="#ccc"/></linearGradient><linearGradient id="linear-gradient-19" x1="0.36" y1="-668.24" x2="396.32" y2="-668.24" gradientTransform="matrix(1, 0, 0, -1, 0, -457.53)" gradientUnits="userSpaceOnUse"><stop offset="0" stop-color="#f3f3f3"/><stop offset="1" stop-color="#ccc"/></linearGradient><linearGradient id="linear-gradient-20" x1="0.18" y1="-668.08" x2="396.39" y2="-668.08" gradientTransform="matrix(1, 0, 0, -1, 0, -457.53)" gradientUnits="userSpaceOnUse"><stop offset="0" stop-color="#f6f6f6"/><stop offset="1" stop-color="#cececd"/></linearGradient><linearGradient id="linear-gradient-21" y1="-667.97" x2="396.47" y2="-667.97" gradientTransform="matrix(1, 0, 0, -1, 0, -457.53)" gradientUnits="userSpaceOnUse"><stop offset="0" stop-color="#f7f8f8"/><stop offset="1" stop-color="#cececd"/></linearGradient><linearGradient id="linear-gradient-22" x1="3.06" y1="-673.86" x2="395.99" y2="-661.83" gradientTransform="matrix(1, 0, 0, -1, 0, -457.53)" gradientUnits="userSpaceOnUse"><stop offset="0" stop-color="#f7f8f8"/><stop offset="1" stop-color="#cfd0d0"/></linearGradient><linearGradient id="linear-gradient-23" x1="6.44" y1="-679.58" x2="395.2" y2="-655.76" gradientTransform="matrix(1, 0, 0, -1, 0, -457.53)" gradientUnits="userSpaceOnUse"><stop offset="0" stop-color="#f9f9fa"/><stop offset="1" stop-color="#d2d2d2"/></linearGradient><linearGradient id="linear-gradient-24" x1="10.1" y1="-685.07" x2="394.11" y2="-649.73" gradientTransform="matrix(1, 0, 0, -1, 0, -457.53)" gradientUnits="userSpaceOnUse"><stop offset="0" stop-color="#f9f9fa"/><stop offset="1" stop-color="#d3d3d3"/></linearGradient><linearGradient id="linear-gradient-25" x1="14.01" y1="-690.34" x2="392.72" y2="-643.76" gradientTransform="matrix(1, 0, 0, -1, 0, -457.53)" gradientUnits="userSpaceOnUse"><stop offset="0" stop-color="#f9f9fa"/><stop offset="1" stop-color="#d6d5d5"/></linearGradient><linearGradient id="linear-gradient-26" x1="18.18" y1="-695.38" x2="391.03" y2="-637.9" gradientTransform="matrix(1, 0, 0, -1, 0, -457.53)" gradientUnits="userSpaceOnUse"><stop offset="0" stop-color="#fafbfc"/><stop offset="1" stop-color="#d7d7d7"/></linearGradient><linearGradient id="linear-gradient-27" x1="22.56" y1="-700.18" x2="389.06" y2="-632.13" gradientTransform="matrix(1, 0, 0, -1, 0, -457.53)" gradientUnits="userSpaceOnUse"><stop offset="0" stop-color="#fafbfc"/><stop offset="1" stop-color="#d9d9d8"/></linearGradient><linearGradient id="linear-gradient-28" x1="27.16" y1="-704.73" x2="386.81" y2="-626.5" gradientTransform="matrix(1, 0, 0, -1, 0, -457.53)" gradientUnits="userSpaceOnUse"><stop offset="0" stop-color="#fafbfc"/><stop offset="1" stop-color="#dcdbdb"/></linearGradient><linearGradient id="linear-gradient-29" x1="31.94" y1="-708.99" x2="384.29" y2="-620.99" gradientTransform="matrix(1, 0, 0, -1, 0, -457.53)" gradientUnits="userSpaceOnUse"><stop offset="0" stop-color="#fbfcfc"/><stop offset="1" stop-color="#ddd"/></linearGradient><linearGradient id="linear-gradient-30" x1="36.9" y1="-713" x2="381.5" y2="-615.64" gradientTransform="matrix(1, 0, 0, -1, 0, -457.53)" gradientUnits="userSpaceOnUse"><stop offset="0" stop-color="#fbfcfc"/><stop offset="1" stop-color="#e0e0df"/></linearGradient><linearGradient id="linear-gradient-31" x1="42.01" y1="-716.72" x2="378.47" y2="-610.44" gradientTransform="matrix(1, 0, 0, -1, 0, -457.53)" gradientUnits="userSpaceOnUse"><stop offset="0" stop-color="#fbfcfc"/><stop offset="1" stop-color="#e1e2e1"/></linearGradient><linearGradient id="linear-gradient-32" x1="47.24" y1="-720.16" x2="375.2" y2="-605.42" gradientTransform="matrix(1, 0, 0, -1, 0, -457.53)" gradientUnits="userSpaceOnUse"><stop offset="0" stop-color="#fdfeff"/><stop offset="1" stop-color="#e3e3e3"/></linearGradient><linearGradient id="linear-gradient-33" x1="52.59" y1="-723.31" x2="371.7" y2="-600.58" gradientTransform="matrix(1, 0, 0, -1, 0, -457.53)" gradientUnits="userSpaceOnUse"><stop offset="0" stop-color="#fdfeff"/><stop offset="1" stop-color="#e5e5e5"/></linearGradient><linearGradient id="linear-gradient-34" x1="58.03" y1="-726.17" x2="367.99" y2="-595.94" gradientTransform="matrix(1, 0, 0, -1, 0, -457.53)" gradientUnits="userSpaceOnUse"><stop offset="0" stop-color="#fdfeff"/><stop offset="1" stop-color="#e8e7e7"/></linearGradient><linearGradient id="linear-gradient-35" x1="63.54" y1="-728.71" x2="364.06" y2="-591.49" gradientTransform="matrix(1, 0, 0, -1, 0, -457.53)" gradientUnits="userSpaceOnUse"><stop offset="0" stop-color="#fff"/><stop offset="1" stop-color="#e9e8e9"/></linearGradient><linearGradient id="linear-gradient-36" x1="69.11" y1="-731.02" x2="359.97" y2="-587.3" gradientTransform="matrix(1, 0, 0, -1, 0, -457.53)" gradientUnits="userSpaceOnUse"><stop offset="0" stop-color="#fff"/><stop offset="1" stop-color="#ebebeb"/></linearGradient><linearGradient id="linear-gradient-37" x1="74.71" y1="-733" x2="355.69" y2="-583.3" gradientTransform="matrix(1, 0, 0, -1, 0, -457.53)" gradientUnits="userSpaceOnUse"><stop offset="0" stop-color="#fff"/><stop offset="1" stop-color="#ededee"/></linearGradient><linearGradient id="linear-gradient-38" x1="80.33" y1="-734.7" x2="351.25" y2="-579.53" gradientTransform="matrix(1, 0, 0, -1, 0, -457.53)" gradientUnits="userSpaceOnUse"><stop offset="0" stop-color="#fff"/><stop offset="1" stop-color="#f0efef"/></linearGradient><linearGradient id="linear-gradient-39" x1="85.93" y1="-736.11" x2="346.66" y2="-575.99" gradientTransform="matrix(1, 0, 0, -1, 0, -457.53)" gradientUnits="userSpaceOnUse"><stop offset="0" stop-color="#fff"/><stop offset="1" stop-color="#f2f2f2"/></linearGradient><linearGradient id="linear-gradient-40" x1="91.53" y1="-737.28" x2="341.97" y2="-572.72" gradientTransform="matrix(1, 0, 0, -1, 0, -457.53)" gradientUnits="userSpaceOnUse"><stop offset="0" stop-color="#fff"/><stop offset="1" stop-color="#f3f3f3"/></linearGradient><linearGradient id="linear-gradient-41" x1="97.07" y1="-738.13" x2="337.14" y2="-569.66" gradientTransform="matrix(1, 0, 0, -1, 0, -457.53)" gradientUnits="userSpaceOnUse"><stop offset="0" stop-color="#fff"/><stop offset="1" stop-color="#f5f6f6"/></linearGradient><linearGradient id="linear-gradient-42" x1="102.58" y1="-738.78" x2="332.25" y2="-566.89" gradientTransform="matrix(1, 0, 0, -1, 0, -457.53)" gradientUnits="userSpaceOnUse"><stop offset="0" stop-color="#fff"/><stop offset="1" stop-color="#f7f8f8"/></linearGradient><linearGradient id="linear-gradient-43" x1="-9476.01" y1="-463.54" x2="-9484.46" y2="-478.19" gradientTransform="matrix(1, 0, 0, -1, 9592.98, -457.53)" gradientUnits="userSpaceOnUse"><stop offset="0" stop-color="#fff"/><stop offset="0.02" stop-color="#fff"/><stop offset="0.31" stop-color="#f7f8f8"/><stop offset="1" stop-color="#f5f6f6"/></linearGradient><linearGradient id="linear-gradient-44" x1="-9496.78" y1="-469.57" x2="-9500.19" y2="-475.5" xlink:href="#linear-gradient-43"/><linearGradient id="linear-gradient-45" x1="-9513.97" y1="-460.92" x2="-9531.83" y2="-491.83" xlink:href="#linear-gradient-43"/><linearGradient id="linear-gradient-46" x1="-9538.66" y1="-487.8" x2="-9557.5" y2="-520.42" xlink:href="#linear-gradient-43"/><linearGradient id="linear-gradient-47" x1="-9558.79" y1="-519.6" x2="-9580.63" y2="-557.43" xlink:href="#linear-gradient-43"/><linearGradient id="linear-gradient-48" x1="8632.52" y1="-515.34" x2="8634.49" y2="-515.34" gradientTransform="translate(8714.42 -457.53) rotate(180)" gradientUnits="userSpaceOnUse"><stop offset="0" stop-color="#057c85"/><stop offset="0.65" stop-color="#07727b"/><stop offset="1" stop-color="#046a75"/></linearGradient><linearGradient id="linear-gradient-49" x1="8628.51" y1="-503.59" x2="8639.53" y2="-503.59" xlink:href="#linear-gradient-48"/><linearGradient id="linear-gradient-50" x1="75.76" y1="-489.46" x2="91.51" y2="-523.83" gradientTransform="matrix(1, 0, 0, -1, 0, -457.53)" gradientUnits="userSpaceOnUse"><stop offset="0" stop-color="#03a6b7"/><stop offset="0.23" stop-color="#04a2ae"/><stop offset="0.44" stop-color="#03999e"/><stop offset="0.62" stop-color="#078f95"/><stop offset="0.91" stop-color="#08747d"/><stop offset="1" stop-color="#046a75"/></linearGradient><linearGradient id="linear-gradient-51" x1="3530.8" y1="8117.65" x2="3532.53" y2="8114.65" gradientTransform="matrix(-0.5, -0.87, -0.87, 0.5, 8893.66, -895.81)" gradientUnits="userSpaceOnUse"><stop offset="0" stop-color="#1e1f27"/><stop offset="0.36" stop-color="#21232b"/><stop offset="0.77" stop-color="#2b2e3a"/><stop offset="1" stop-color="#343744"/></linearGradient><linearGradient id="linear-gradient-52" x1="3530.79" y1="8136.52" x2="3532.51" y2="8133.54" xlink:href="#linear-gradient-51"/><linearGradient id="linear-gradient-53" x1="9059.44" y1="-581.85" x2="9194.33" y2="-581.85" gradientTransform="translate(9346.25 -457.53) rotate(180)" gradientUnits="userSpaceOnUse"><stop offset="0" stop-color="#f5f6f6"/><stop offset="0.69" stop-color="#f7f8f8"/><stop offset="0.98" stop-color="#fff"/><stop offset="1" stop-color="#fff"/></linearGradient><linearGradient id="linear-gradient-54" x1="9061.24" y1="-581.13" x2="9192.37" y2="-581.13" gradientTransform="translate(9346.25 -457.53) rotate(180)" gradientUnits="userSpaceOnUse"><stop offset="0" stop-color="#0b7c7b"/><stop offset="1" stop-color="#05a2a7"/></linearGradient><linearGradient id="linear-gradient-55" x1="-9412.84" y1="-529.37" x2="-9274.73" y2="-529.37" gradientTransform="matrix(1, 0, 0, -1, 9564.76, -457.53)" gradientUnits="userSpaceOnUse"><stop offset="0" stop-color="#fdfeff"/><stop offset="1" stop-color="#fff"/></linearGradient><linearGradient id="linear-gradient-56" x1="-9496.71" y1="-684.64" x2="-9361.81" y2="-684.64" gradientTransform="matrix(1, 0, 0, -1, 9564.76, -457.53)" gradientUnits="userSpaceOnUse"><stop offset="0" stop-color="#dfdfde"/><stop offset="0.44" stop-color="#d4d4d4"/><stop offset="1" stop-color="#b5b5b5"/></linearGradient><linearGradient id="linear-gradient-57" x1="-9496.71" y1="-658.56" x2="-9278.2" y2="-658.56" xlink:href="#linear-gradient-55"/><linearGradient id="linear-gradient-58" x1="6645.37" y1="-699.7" x2="6735.72" y2="-699.7" gradientTransform="translate(6938.66 -457.53) rotate(180)" gradientUnits="userSpaceOnUse"><stop offset="0" stop-color="#a8a6a6"/><stop offset="0.52" stop-color="#a3a1a1"/><stop offset="1" stop-color="#989898"/></linearGradient><linearGradient id="linear-gradient-59" x1="6648.62" y1="-620.16" x2="6651.84" y2="-620.16" xlink:href="#linear-gradient-58"/><linearGradient id="linear-gradient-60" x1="6667.99" y1="-648.99" x2="6825.57" y2="-648.99" gradientTransform="translate(6938.66 -457.53) rotate(180)" gradientUnits="userSpaceOnUse"><stop offset="0" stop-color="#8e9191"/><stop offset="1" stop-color="#afb4b3"/></linearGradient><linearGradient id="linear-gradient-61" x1="-9437.88" y1="-670.55" x2="-9382.69" y2="-670.55" gradientTransform="matrix(1, 0, 0, -1, 9564.76, -457.53)" xlink:href="#linear-gradient-53"/><linearGradient id="linear-gradient-62" x1="-9347.17" y1="-635.72" x2="-9344.99" y2="-631.82" gradientTransform="matrix(1, 0, 0, -1, 9564.76, -457.53)" gradientUnits="userSpaceOnUse"><stop offset="0" stop-color="#d3d3d3"/><stop offset="0.52" stop-color="#ebebeb"/><stop offset="1" stop-color="#c3c3c3"/></linearGradient><linearGradient id="linear-gradient-63" x1="6560.72" y1="-4993.21" x2="6563.26" y2="-4993.21" gradientTransform="matrix(0, -0.93, 0.96, 0, 5097.41, 6360.98)" xlink:href="#linear-gradient-56"/><radialGradient id="radial-gradient" cx="8448.96" cy="-732.2" r="43.63" gradientTransform="translate(8684.37 -457.53) rotate(180)" gradientUnits="userSpaceOnUse"><stop offset="0" stop-color="#fdfcfa"/><stop offset="1" stop-color="#d2d2ce"/></radialGradient><clipPath id="clip-path"><path class="cls-1" d="M269.15,268.08s-4.13,2.39-6.23,2.58a3.06,3.06,0,0,1-1.48-.26c-.51-.25-.81-.76-.62-1.78l.89-4.43s4-3.51,5.76-1.47S269.74,266.69,269.15,268.08Z"/></clipPath><linearGradient id="Безымянный_градиент_304" x1="-878.83" y1="986.36" x2="-829.63" y2="986.36" gradientTransform="matrix(0.76, 0.41, 0, 1.32, 853.56, -834.76)" gradientUnits="userSpaceOnUse"><stop offset="0" stop-color="#fff"/><stop offset="0.02" stop-color="#fefefe"/><stop offset="0.31" stop-color="#f7f8f8"/><stop offset="1" stop-color="#f5f6f6"/></linearGradient></defs><title>1C_8Plate</title><g id="Layer_2" data-name="Layer 2"><g id="Layer_1-2" data-name="Layer 1"><g id="_1" data-name=" 1"><path class="cls-2" d="M61.09,133.28c76.25-44.05,200-44.05,276.31,0s76.27,115.6,0,159.64-200.06,44.08-276.31,0S-15.23,177.36,61.09,133.28Z"/><path class="cls-3" d="M60.94,133.08c76.3-44.07,200.15-44.07,276.5,0s76.33,115.64,0,159.7-200.2,44.1-276.5,0S-15.43,177.22,60.94,133.08Z"/><path class="cls-4" d="M60.8,133c76.35-44.08,200.29-44.08,276.7,0s76.38,115.69,0,159.76-200.34,44.11-276.7,0S-15.63,177.08,60.8,133Z"/><path class="cls-5" d="M60.63,132.81c76.41-44.1,200.43-44.1,276.89,0s76.43,115.73,0,159.81-200.48,44.13-276.89,0S-15.83,176.94,60.63,132.81Z"/><path class="cls-6" d="M60.51,132.65c76.46-44.11,200.57-44.11,277.08,0s76.49,115.77,0,159.87-200.62,44.14-277.08,0S-16,176.8,60.51,132.65Z"/><path class="cls-7" d="M60.37,132.5c76.51-44.13,200.71-44.13,277.28,0s76.54,115.81,0,159.93-200.76,44.16-277.28,0S-16.22,176.66,60.37,132.5Z"/><path class="cls-8" d="M60.22,132.34c76.57-44.15,200.85-44.15,277.47,0s76.59,115.85,0,160-200.9,44.17-277.47,0S-16.42,176.52,60.22,132.34Z"/><path class="cls-9" d="M60.08,132.19c76.62-44.16,201-44.16,277.67,0s76.65,115.89,0,160-201,44.19-277.67,0S-16.62,176.38,60.08,132.19Z"/><path class="cls-10" d="M59.93,132.08c76.67-44.18,201.13-44.18,277.86,0s76.7,115.93,0,160.1-201.16,44.16-277.86-.1S-16.82,176.24,59.93,132.08Z"/><path class="cls-11" d="M59.79,131.87c76.73-44.19,201.27-44.19,278,0s76.75,116,0,160.16-201.32,44.22-278,0S-17,176.08,59.79,131.87Z"/><path class="cls-12" d="M59.63,131.72c76.78-44.21,201.41-44.21,278.25,0s76.81,116,0,160.21-201.46,44.24-278.25,0S-17.22,176,59.63,131.72Z"/><path class="cls-13" d="M59.5,131.56c76.83-44.22,201.55-44.22,278.44,0s76.86,116.06,0,160.27-201.61,44.25-278.44,0S-17.37,175.82,59.5,131.56Z"/><path class="cls-14" d="M59.35,131.41c76.89-44.24,201.7-44.24,278.63,0s76.92,116.1,0,160.33-201.75,44.27-278.63,0S-17.61,175.68,59.35,131.41Z"/><path class="cls-15" d="M59.21,131.25C136.15,87,261,87,338,131.25s77,116.14,0,160.38-201.89,44.28-278.83,0S-17.81,175.54,59.21,131.25Z"/><path class="cls-16" d="M59.06,131.08c77-44.27,202-44.27,279,0s77,116.18,0,160.44-202,44.3-279,0S-18,175.4,59.06,131.08Z"/><path class="cls-17" d="M58.92,130.94c77-44.29,202.12-44.29,279.21,0s77.08,116.22,0,160.5-202.17,44.32-279.21,0S-18.21,175.26,58.92,130.94Z"/><path class="cls-18" d="M58.77,130.78c77.1-44.3,202.26-44.3,279.41,0s77.13,116.26,0,160.55-202.31,44.33-279.41,0S-18.37,175.08,58.77,130.78Z"/><path class="cls-19" d="M58.63,130.63c77.16-44.32,202.4-44.32,279.6,0s77.18,116.3,0,160.61-202.45,44.35-279.6,0S-18.6,175,58.63,130.63Z"/><path class="cls-20" d="M58.49,130.47c77.21-44.33,202.54-44.33,279.8,0s77.24,116.35,0,160.67-202.59,44.36-279.8,0S-18.8,174.84,58.49,130.47Z"/><path class="cls-21" d="M58.34,130.32C135.6,86,261,86,338.34,130.32s77.29,116.38,0,160.76-202.73,44.38-280,0S-19,174.7,58.34,130.32Z"/><path class="cls-22" d="M58.2,130.16c77.32-44.37,202.82-44.37,280.18,0s77.34,116.43,0,160.78-202.87,44.39-280.18,0S-19.2,174.56,58.2,130.16Z"/><path class="cls-23" d="M58.05,130c77.37-44.38,203-44.38,280.38,0s77.4,116.47,0,160.84-203,44.41-280.38,0S-19.37,174.42,58.05,130Z"/><path class="cls-24" d="M58.2,130C135.52,85.59,261,85.59,338.38,130s77.34,116.43,0,160.78-202.87,44.39-280.18,0S-19.2,174.36,58.2,130Z"/><path class="cls-25" d="M58.34,129.92c77.26-44.35,202.68-44.35,280,0s77.29,116.39,0,160.73-202.73,44.38-280,0S-19,174.29,58.34,129.92Z"/><path class="cls-26" d="M58.49,129.87c77.21-44.33,202.54-44.33,279.8,0s77.24,116.35,0,160.67-202.59,44.36-279.8,0S-18.8,174.23,58.49,129.87Z"/><path class="cls-27" d="M58.63,129.82c77.16-44.32,202.4-44.32,279.6,0s77.18,116.3,0,160.61-202.45,44.35-279.6,0S-18.6,174.17,58.63,129.82Z"/><path class="cls-28" d="M58.77,129.78c77.1-44.3,202.26-44.3,279.41,0s77.13,116.26,0,160.55-202.31,44.33-279.41,0S-18.37,174.08,58.77,129.78Z"/><path class="cls-29" d="M58.92,129.73c77-44.29,202.12-44.29,279.21,0s77.08,116.22,0,160.5-202.17,44.32-279.21,0S-18.21,174.08,58.92,129.73Z"/><path class="cls-30" d="M59.06,129.69c77-44.27,202-44.27,279,0s77,116.18,0,160.44-202,44.3-279,0S-18,174,59.06,129.69Z"/><path class="cls-31" d="M59.21,129.64C136.15,85.38,261,85.38,338,129.64S415,245.78,338,290,136.15,334.3,59.21,290-17.81,173.93,59.21,129.64Z"/><path class="cls-32" d="M59.35,129.6C136.24,85.36,261,85.36,338,129.6s76.92,116.1,0,160.33-201.75,44.27-278.63,0S-17.61,173.87,59.35,129.6Z"/><path class="cls-33" d="M59.5,129.55c76.83-44.22,201.55-44.22,278.44,0s76.86,116.06,0,160.27-201.61,44.26-278.44,0S-17.37,173.81,59.5,129.55Z"/><path class="cls-34" d="M59.63,129.51c76.78-44.21,201.41-44.21,278.25,0s76.81,116,0,160.21-201.46,44.24-278.25,0S-17.22,173.75,59.63,129.51Z"/><path class="cls-35" d="M59.79,129.46c76.73-44.19,201.27-44.19,278,0s76.75,116,0,160.16-201.32,44.22-278,0S-17,173.68,59.79,129.46Z"/><path class="cls-36" d="M59.93,129.42c76.67-44.18,201.13-44.18,277.86,0s76.7,115.93,0,160.1-201.16,44.2-277.86,0S-16.82,173.62,59.93,129.42Z"/><path class="cls-37" d="M60.08,129.37c76.62-44.16,201-44.16,277.67,0s76.65,115.89,0,160-201,44.19-277.67,0S-16.62,173.56,60.08,129.37Z"/><path class="cls-38" d="M60.22,129.33c76.57-44.15,200.85-44.15,277.47,0s76.59,115.85,0,160-200.9,44.17-277.47,0S-16.42,173.5,60.22,129.33Z"/><path class="cls-39" d="M60.37,129.28c76.51-44.13,200.71-44.13,277.28,0s76.53,115.8,0,159.93-200.76,44.16-277.28,0S-16.22,173.44,60.37,129.28Z"/><path class="cls-40" d="M60.51,129.24c76.46-44.16,200.57-44.16,277.12,0s76.45,115.76,0,159.84-200.62,44.14-277.08,0S-16,173.38,60.51,129.24Z"/><path class="cls-41" d="M60.63,129.19c76.41-44.1,200.43-44.1,276.89,0S414,244.92,337.52,289,137,333.13,60.63,289-15.83,173.32,60.63,129.19Z"/><path class="cls-42" d="M60.8,129.15c76.35-44.08,200.29-44.08,276.7,0s76.38,115.69,0,159.76-200.34,44.11-276.7,0S-15.63,173.26,60.8,129.15Z"/><path class="cls-43" d="M60.94,129.08c76.3-44.07,200.15-44.07,276.5,0s76.33,115.64,0,159.7-200.2,44.1-276.5,0S-15.43,173.2,60.94,129.08Z"/><path class="cls-44" d="M61.09,129.08c76.25-44.05,200-44.05,276.31,0s76.27,115.6,0,159.64-200.06,44.08-276.31,0S-15.23,173.14,61.09,129.08Z"/><path class="cls-45" d="M113.63,4.08c-3.41-2-8.06-1.74-13.18,1.21a32.08,32.08,0,0,0-7.57,6.27l19,11.06a32.08,32.08,0,0,1,7.57-6.27c5.18-3,9.8-3.21,13.18-1.27Z"/><path class="cls-46" d="M90.18,8.57c-2.28-1.33-5.39-1.16-8.82.82-.52.3-1,.65-1.56,1l19,11.06a11.16,11.16,0,0,1,1.56-1c3.43-2,6.54-2.14,8.82-.82Z"/><path class="cls-47" d="M75,1.08c-2.87-1.67-6.77-1.46-11.07,1C56.07,6.6,49.63,17.19,48.41,26.85l19,11.06C68.63,28.25,75.1,17.66,83,13.08c4.3-2.47,8.2-2.68,11.07-1Z"/><path class="cls-48" d="M48.41,26.85A15.53,15.53,0,0,0,42,29.08c-8.8,5.07-16,17.34-16.54,28l19,11.06C45,57.5,52.16,45.23,61,40.14A15.53,15.53,0,0,1,67.41,38Z"/><path class="cls-49" d="M25.43,57a14.9,14.9,0,0,0-5.8,2.07c-8.75,5-15.79,17.55-15.74,28,0,5.28,1.88,9,4.85,10.71l19,11.06c-3-1.72-4.82-5.44-4.85-10.71,0-10.41,7-22.93,15.74-28a14.9,14.9,0,0,1,5.84-2Z"/><path class="cls-50" d="M119.49,16.33a32.09,32.09,0,0,0-7.57,6.27c-2-4-6.41-5.1-11.52-2.16-.52.3-1,.65-1.56,1C98.19,12,91.32,8.29,83,13.09,75.1,17.66,68.63,28.25,67.44,37.91A15.53,15.53,0,0,0,61,40.08c-8.8,5.07-16,17.34-16.54,28a14.91,14.91,0,0,0-5.83,2c-8.75,5-15.79,17.55-15.74,28s7.19,14.73,15.94,9.7l80.89-46.59c10.41-6,18.78-20.89,18.72-33.26S129.89,10.34,119.49,16.33Z"/><polygon class="cls-51" points="81.86 52.68 79.92 51.56 79.96 62.94 81.89 64.06 81.86 52.68"/><polygon class="cls-52" points="85.91 37.65 83.97 36.52 74.89 54.47 76.82 55.59 85.91 37.65"/><polygon class="cls-53" points="95.07 45.06 85.91 37.65 76.82 55.59 81.86 52.68 81.89 64.06 85.98 61.71 90.06 59.35 90.02 47.97 95.07 45.06"/><path class="cls-54" d="M103.63,39.08c0,12.17-5,26-19.62,33.35-10.93,5.49-19.21,1.21-19.24-11s8.52-27,19.12-33.11S103.63,26.91,103.63,39.08ZM84,70.25c9.53-5.5,17.25-18.88,17.22-29.83s-7.06-14.84-16.59-9.34-17,18-17,29S74.47,75.75,84,70.25"/><path class="cls-53" d="M105.12,40.32c0,12.17-8.52,27-19.11,33.1s-19.21,1.21-19.24-11,8.52-27,19.12-33.11S105.09,28.15,105.12,40.32ZM86,71.25c9.53-5.5,17.25-18.88,17.22-29.83s-7.8-15.34-17.33-9.88S68.63,50.42,68.63,61.37,76.44,76.75,86,71.25"/><polygon class="cls-55" points="66.52 87.57 53.22 95.25 53.22 86.52 66.52 78.84 66.52 87.57"/><path class="cls-56" d="M62.29,93.77V91.69l-5.66-3.31v2.08a.33.33,0,0,0,.14.3l5.65,3.32A.33.33,0,0,1,62.29,93.77Z"/><path class="cls-57" d="M63.12,84.23a.33.33,0,0,0-.34,0l-5.72,3.3,5.69,3.32,5.72-3.3a.33.33,0,0,1,.34,0Z"/><path class="cls-58" d="M57.06,87.56a1,1,0,0,0-.47.81l5.69,3.32a1,1,0,0,1,.47-.81Z"/><path class="cls-55" d="M69,87.85c0-.3-.21-.42-.47-.27l-5.72,3.3a1,1,0,0,0-.47.81v2.08c0,.3.21.42.48.27l5.72-3.3a1,1,0,0,0,.47-.81Z"/><g id="Axonometric_Cylinder" data-name="Axonometric Cylinder"><path id="Cylinder_face" data-name="Cylinder face" class="cls-55" d="M67.19,90.32c.68-.39,1.22-.07,1.22.71a2.7,2.7,0,0,1-1.22,2.12c-.67.39-1.22.07-1.22-.71A2.7,2.7,0,0,1,67.19,90.32Z"/><path id="Cylinder_body" data-name="Cylinder body" class="cls-59" d="M66.34,93.24l-1.54-.89a.85.85,0,0,1-.37-.8,2.7,2.7,0,0,1,1.2-2.11.86.86,0,0,1,.86-.09l1.54.89a.86.86,0,0,0-.86.09A2.7,2.7,0,0,0,66,92.45.85.85,0,0,0,66.34,93.24Z"/></g><path class="cls-60" d="M106.36,168.81,78.11,152.49A5.18,5.18,0,0,1,75.53,148V99A5.72,5.72,0,0,0,72.63,94l-4.84-2.79c-.57-.33-1.34,1-.77,1.34l4.84,2.79A4.17,4.17,0,0,1,73.94,99V148a6.73,6.73,0,0,0,3.36,5.81l28.33,16.32a.77.77,0,0,0,.77-1.34Z"/><polygon class="cls-55" points="50.11 97.04 36.8 104.73 36.8 95.99 50.11 88.31 50.11 97.04"/><path class="cls-56" d="M45.87,103.25v-2.08l-5.69-3.32v2.08a.33.33,0,0,0,.14.3L46,103.55A.33.33,0,0,1,45.87,103.25Z"/><path class="cls-57" d="M46.71,93.7a.33.33,0,0,0-.34,0l-5.74,3.38,5.69,3.32L52,97.1a.33.33,0,0,1,.34,0Z"/><path class="cls-58" d="M40.63,97.08a1,1,0,0,0-.47.81l5.69,3.32a1,1,0,0,1,.47-.81Z"/><path class="cls-55" d="M52.53,97.32c0-.3-.21-.42-.47-.27l-5.72,3.3a1,1,0,0,0-.47.81v2.08c0,.3.21.42.48.27l5.72-3.3a1,1,0,0,0,.47-.81Z"/><g id="Axonometric_Cylinder-2" data-name="Axonometric Cylinder-2"><path id="Cylinder_face-2" data-name="Cylinder face-2" class="cls-55" d="M50.78,99.8c.67-.39,1.22-.07,1.22.71a2.7,2.7,0,0,1-1.22,2.12c-.68.39-1.22.07-1.22-.71A2.7,2.7,0,0,1,50.78,99.8Z"/><path id="Cylinder_body-2" data-name="Cylinder body-2" class="cls-61" d="M49.92,102.71l-1.54-.89A.85.85,0,0,1,48,101a2.7,2.7,0,0,1,1.22-2.12.86.86,0,0,1,.86-.09l1.54.89a.86.86,0,0,0-.86.09,2.7,2.7,0,0,0-1.22,2.12A.85.85,0,0,0,49.92,102.71Z"/></g><path class="cls-60" d="M90,178.28,61.7,162a5.18,5.18,0,0,1-2.58-4.47V108.44a5.72,5.72,0,0,0-2.86-4.95l-4.84-2.79c-.57-.33-1.34,1-.77,1.34l4.84,2.79a4.17,4.17,0,0,1,2.08,3.61v49.05a6.73,6.73,0,0,0,3.36,5.81l28.25,16.31a.77.77,0,0,0,.77-1.34Z"/><path class="cls-62" d="M340.3,224.77l-50.26.74-72.68,42.75H203L78.35,196.08l90.79-54.21,78.32,16.92,93.76,62.84a1.71,1.71,0,0,1-.92,3.14Z"/><g id="_14" data-name=" 14"><polygon class="cls-63" points="286.81 111.88 151.92 33.4 151.92 136.84 286.81 215.23 286.81 111.88"/><polygon class="cls-64" points="285.01 112.95 153.88 36.5 153.88 134.48 284.87 210.7 285.01 112.95"/><polygon class="cls-65" points="290.03 110.02 154.82 31.8 151.92 33.4 286.81 111.88 290.03 110.02"/><polygon class="cls-66" points="202.94 264.36 68.05 185.97 68.06 189.86 202.95 268.25 202.94 264.36"/><polygon class="cls-67" points="286.56 216.09 151.67 137.7 68.05 185.97 202.94 264.36 286.56 216.09"/><polygon class="cls-68" points="286.56 216.09 286.56 219.98 202.95 268.25 202.94 264.36 286.56 216.09"/><polygon class="cls-69" points="286.81 215.23 286.81 111.88 290.03 110.02 290.03 213.33 286.81 215.23"/><path class="cls-70" d="M133.28,180.08l41,23.68a2.13,2.13,0,0,0,1.93,0l4.62-2.68a.59.59,0,0,0,0-1.11l-41-23.68a2.13,2.13,0,0,0-1.93,0L133.29,179a.59.59,0,0,0,0,1.13Zm94.2,16.2,4.61-2.66a2.13,2.13,0,0,1,1.93,0l5.48,3.17a.59.59,0,0,1,0,1.11l-4.61,2.66a2.13,2.13,0,0,1-1.93,0l-5.48-3.17a.59.59,0,0,1,0-1.1Zm-8.86-4,5.48,3.17a2.13,2.13,0,0,0,1.93,0l4.61-2.66a.59.59,0,0,0,0-1.11l-5.48-3.17a2.13,2.13,0,0,0-1.93,0l-4.6,2.67a.59.59,0,0,0,0,1.11Zm-8.86-5.11,5.48,3.17a2.13,2.13,0,0,0,1.93,0l4.61-2.66a.59.59,0,0,0,0-1.11l-5.48-3.17a2.13,2.13,0,0,0-1.93,0l-4.61,2.68a.59.59,0,0,0,0,1.1Zm-8.85-5.09,5.48,3.17a2.13,2.13,0,0,0,1.93,0l4.61-2.66a.59.59,0,0,0,0-1.11l-5.48-3.17a2.13,2.13,0,0,0-1.93,0L200.91,181a.59.59,0,0,0,0,1.11ZM192.05,177l5.48,3.17a2.13,2.13,0,0,0,1.93,0l4.61-2.66a.59.59,0,0,0,0-1.11l-5.44-3.19a2.13,2.13,0,0,0-1.93,0l-4.61,2.66a.59.59,0,0,0,0,1.11Zm-8.86-5.11,5.48,3.17a2.13,2.13,0,0,0,1.93,0l4.61-2.66a.59.59,0,0,0,0-1.11l-5.47-3.18a2.13,2.13,0,0,0-1.93,0l-4.61,2.66a.59.59,0,0,0,0,1.1Zm-8.86-5.11,5.48,3.17a2.13,2.13,0,0,0,1.93,0l4.61-2.66a.59.59,0,0,0,0-1.11L180.87,163a2.13,2.13,0,0,0-1.93,0l-4.61,2.66a.59.59,0,0,0,0,1.09Zm-8.86-5.11,5.48,3.17a2.13,2.13,0,0,0,1.93,0l4.61-2.66a.59.59,0,0,0,0-1.11L172,157.87a2.13,2.13,0,0,0-1.93,0l-4.61,2.66a.59.59,0,0,0,0,1.09Zm-8.84-5.14,5.48,3.17a2.13,2.13,0,0,0,1.93,0l4.61-2.66a.59.59,0,0,0,0-1.11l-5.48-3.17a2.13,2.13,0,0,0-1.93,0l-4.61,2.66a.59.59,0,0,0,0,1.11Zm-11.71-6.76,8.34,4.81a2.13,2.13,0,0,0,1.93,0l4.61-2.66a.59.59,0,0,0,0-1.11L151.46,146a2.13,2.13,0,0,0-1.93,0l-4.61,2.66a.59.59,0,0,0,0,1.11Zm89.8,80.34,5.48,3.17a2.13,2.13,0,0,0,1.93,0l4.61-2.66a.59.59,0,0,0,0-1.11l-5.48-3.17a2.13,2.13,0,0,0-1.93,0L234.72,229a.59.59,0,0,0,0,1.11ZM225.86,225l5.48,3.17a2.13,2.13,0,0,0,1.93,0l4.61-2.66a.59.59,0,0,0,0-1.11l-5.48-3.17a2.13,2.13,0,0,0-1.93,0l-4.61,2.66a.59.59,0,0,0,0,1.1ZM217,219.86l5.48,3.17a2.13,2.13,0,0,0,1.93,0l4.61-2.66a.59.59,0,0,0,0-1.11l-5.47-3.18a2.13,2.13,0,0,0-1.93,0L217,218.74a.59.59,0,0,0,0,1.11Zm9.62,14.9,5.48,3.17a2.13,2.13,0,0,0,1.93,0l4.61-2.66a.59.59,0,0,0,0-1.11L233.16,231a2.13,2.13,0,0,0-1.93,0l-4.6,2.65a.59.59,0,0,0,0,1.11Zm-8.86-5.11,5.48,3.17a2.13,2.13,0,0,0,1.93,0l4.61-2.66a.59.59,0,0,0,0-1.11l-5.48-3.17a2.13,2.13,0,0,0-1.93,0l-4.61,2.66a.59.59,0,0,0,0,1.1Zm-8.86-5.11,5.48,3.17a2.13,2.13,0,0,0,1.93,0l4.61-2.66a.59.59,0,0,0,0-1.11l-5.48-3.17a2.13,2.13,0,0,0-1.93,0l-4.61,2.66a.59.59,0,0,0,0,1.1Zm7.46-24.15,8.34,4.81a2.13,2.13,0,0,0,1.93,0l4.61-2.66a.59.59,0,0,0,0-1.11l-8.34-4.81a2.13,2.13,0,0,0-1.93,0l-4.61,2.66a.59.59,0,0,0,0,1.1Zm-8.86-5.11,5.48,3.17a2.13,2.13,0,0,0,1.93,0l4.61-2.66a.59.59,0,0,0,0-1.11L214,191.51a2.13,2.13,0,0,0-1.93,0l-4.61,2.66a.59.59,0,0,0,0,1.1Zm-8.87-5.13,5.48,3.17a2.13,2.13,0,0,0,1.93,0l4.61-2.66a.59.59,0,0,0,0-1.11l-5.48-3.17a2.13,2.13,0,0,0-1.93,0l-4.61,2.7a.59.59,0,0,0,0,1.07Zm-8.82-5.07,5.48,3.17a2.13,2.13,0,0,0,1.93,0l4.61-2.66a.59.59,0,0,0,0-1.11l-5.48-3.17a2.13,2.13,0,0,0-1.93,0L189.81,184a.59.59,0,0,0,0,1.11ZM181,180l5.48,3.17a2.13,2.13,0,0,0,1.93,0l4.61-2.66a.59.59,0,0,0,0-1.11l-5.48-3.17a2.13,2.13,0,0,0-1.93,0L181,178.86a.63.63,0,0,0-.16.85c0,.07.11.13.16.22Zm-8.86-5.11,5.48,3.17a2.13,2.13,0,0,0,1.93,0l4.61-2.66a.59.59,0,0,0,0-1.11l-5.48-3.18a2.13,2.13,0,0,0-1.93,0l-4.61,2.66a.59.59,0,0,0,0,1.08Zm-8.86-5.11,5.48,3.17a2.13,2.13,0,0,0,1.93,0l4.61-2.66a.59.59,0,0,0,0-1.11L169.77,166a2.13,2.13,0,0,0-1.93,0l-4.61,2.66a.59.59,0,0,0,0,1.06Zm-8.86-5.11,5.48,3.17a2.13,2.13,0,0,0,1.93,0l4.61-2.66a.59.59,0,0,0,0-1.11l-5.48-3.17a2.13,2.13,0,0,0-1.93,0l-4.61,2.66a.59.59,0,0,0,0,1.06Zm-8.86-5.11L151,162.7a2.13,2.13,0,0,0,1.93,0l4.61-2.66a.59.59,0,0,0,0-1.11L152,155.76a2.13,2.13,0,0,0-1.93,0l-4.61,2.66a.59.59,0,0,0,0,1.06Zm-8.88-5.16,5.48,3.17a2.13,2.13,0,0,0,1.93,0l4.61-2.66a.59.59,0,0,0,0-1.11l-5.48-3.17a2.13,2.13,0,0,0-1.93,0l-4.61,2.65a.59.59,0,0,0,0,1.12Zm74.71,52.33,5.48,3.17a2.13,2.13,0,0,0,1.93,0l4.61-2.66a.59.59,0,0,0,0-1.11l-5.48-3.17a2.13,2.13,0,0,0-1.93,0l-4.61,2.66a.59.59,0,0,0,0,1.1Zm-8.86-5.11,5.48,3.17a2.13,2.13,0,0,0,1.93,0l4.61-2.66a.59.59,0,0,0,0-1.11L209,197.82a2.13,2.13,0,0,0-1.93,0l-4.61,2.66a.59.59,0,0,0,.05,1.1Zm-8.85-5.12,5.48,3.17a2.13,2.13,0,0,0,1.93,0l4.61-2.66a.59.59,0,0,0,0-1.11l-5.48-3.17a2.13,2.13,0,0,0-1.93,0l-4.61,2.65a.59.59,0,0,0,0,1.12Zm-8.86-5.11,5.48,3.17a2.13,2.13,0,0,0,1.93,0l4.61-2.66a.59.59,0,0,0,0-1.11l-5.48-3.17a2.13,2.13,0,0,0-1.93,0l-4.61,2.66a.59.59,0,0,0,.05,1.11ZM195.28,216l5.48,3.17a2.13,2.13,0,0,0,1.93,0l4.61-2.66a.59.59,0,0,0,0-1.11l-5.48-3.17a2.13,2.13,0,0,0-1.93,0l-4.61,2.66a.59.59,0,0,0,0,1.1Zm-8.86-5.11L191.9,214a2.13,2.13,0,0,0,1.93,0l4.61-2.66a.59.59,0,0,0,0-1.11L193,207.08a2.13,2.13,0,0,0-1.93,0l-4.61,2.66a.56.56,0,0,0-.59.55.54.54,0,0,0,.59.55Zm-8.79-5.12,5.48,3.17a2.13,2.13,0,0,0,1.93,0l4.61-2.66a.59.59,0,0,0,0-1.11L184.17,202a2.13,2.13,0,0,0-1.93,0l-4.61,2.66a.59.59,0,0,0,0,1.11ZM124.43,175l5.48,3.17a2.13,2.13,0,0,0,1.93,0l4.61-2.66a.59.59,0,0,0,0-1.11L131,171.21a2.13,2.13,0,0,0-1.93,0l-4.61,2.66a.59.59,0,0,0,0,1.11Zm-11.6-6.65,8.34,4.82a2.13,2.13,0,0,0,1.93,0l4.61-2.66a.59.59,0,0,0,0-1.11l-8.34-4.82a2.13,2.13,0,0,0-1.93,0l-4.61,2.66a.58.58,0,0,0-.4.72A.55.55,0,0,0,112.83,168.33ZM176,186.24l5.48,3.17a2.13,2.13,0,0,0,1.93,0l4.61-2.66a.59.59,0,0,0,0-1.11l-5.48-3.17a2.13,2.13,0,0,0-1.93,0L176,185.08a.59.59,0,0,0,0,1.16Zm-8.86-5.11,5.48,3.17a2.13,2.13,0,0,0,1.93,0l4.61-2.66a.59.59,0,0,0,0-1.11l-5.5-3.18a2.13,2.13,0,0,0-1.93,0L167.09,180a.59.59,0,0,0,0,1.12ZM158.25,176l5.48,3.17a2.13,2.13,0,0,0,1.93,0l4.61-2.66a.59.59,0,0,0,0-1.11l-5.48-3.17a2.13,2.13,0,0,0-1.93,0l-4.61,2.66a.59.59,0,0,0,0,1.11Zm-8.86-5.11,5.48,3.17a2.13,2.13,0,0,0,1.93,0l4.61-2.66a.59.59,0,0,0,0-1.11l-5.47-3.23a2.13,2.13,0,0,0-1.93,0l-4.61,2.66a.59.59,0,0,0,0,1.17Zm-8.86-5.11L146,169a2.13,2.13,0,0,0,1.93,0l4.61-2.66a.59.59,0,0,0,0-1.11L147.07,162a2.13,2.13,0,0,0-1.93,0l-4.61,2.66a.59.59,0,0,0,0,1.1Zm-11.7-6.72,8.34,4.81a2.13,2.13,0,0,0,1.93,0l4.61-2.66a.59.59,0,0,0,0-1.11l-8.34-4.81a2.13,2.13,0,0,0-1.93,0L128.83,158a.59.59,0,0,0,0,1.11Zm71.45,50.64,8.35,4.76a2.13,2.13,0,0,0,1.93,0l4.61-2.66a.59.59,0,0,0,0-1.11l-8.34-4.81a2.13,2.13,0,0,0-1.93,0l-4.61,2.66a.59.59,0,0,0,0,1.11Zm-8.86-5.11,5.48,3.17a2.13,2.13,0,0,0,1.93,0l4.61-2.66a.59.59,0,0,0,0-1.11L198,200.84a2.13,2.13,0,0,0-1.93,0l-4.61,2.66a.59.59,0,0,0,0,1.06Zm-8.86-5.11,5.48,3.17a2.13,2.13,0,0,0,1.93,0l4.61-2.66a.59.59,0,0,0,0-1.11l-5.48-3.17a2.13,2.13,0,0,0-1.93,0l-4.61,2.66a.59.59,0,0,0,0,1.05Zm-8.86-5.11,5.48,3.17a2.13,2.13,0,0,0,1.93,0l4.61-2.66a.59.59,0,0,0,0-1.11l-5.48-3.17a2.13,2.13,0,0,0-1.93,0l-4.61,2.66a.59.59,0,0,0,0,1.05Zm-8.86-5.11,5.48,3.17a2.13,2.13,0,0,0,1.93,0l4.61-2.66a.59.59,0,0,0,0-1.11l-5.48-3.17a2.13,2.13,0,0,0-1.93,0l-4.59,2.57a.59.59,0,0,0,0,1.14Zm-8.84-5.2,5.48,3.17a2.13,2.13,0,0,0,1.93,0l4.61-2.66a.59.59,0,0,0,0-1.11l-5.48-3.17a2.13,2.13,0,0,0-1.93,0L156,183a.59.59,0,0,0,0,1.11ZM147.14,179l5.48,3.17a2.13,2.13,0,0,0,1.93,0l4.61-2.66a.59.59,0,0,0,0-1.11l-5.48-3.17a2.13,2.13,0,0,0-1.93,0l-4.61,2.66a.59.59,0,0,0,0,1.13Zm-8.86-5.11,5.48,3.17a2.13,2.13,0,0,0,1.93,0l4.61-2.66a.59.59,0,0,0,0-1.11l-5.46-3.18a2.13,2.13,0,0,0-1.93,0l-4.61,2.66a.59.59,0,0,0,0,1.14Zm-8.86-5.11,5.48,3.17a2.13,2.13,0,0,0,1.93,0l4.61-2.66a.59.59,0,0,0,0-1.11L136,165a2.13,2.13,0,0,0-1.93,0l-4.61,2.66a.59.59,0,0,0,0,1.13Zm-8.79-5.09,5.48,3.17a2.13,2.13,0,0,0,1.93,0l4.61-2.66a.59.59,0,0,0,0-1.11l-5.48-3.17a2.13,2.13,0,0,0-1.93,0l-4.61,2.65a.59.59,0,0,0,0,1.12ZM259,216.08l5.48,3.17a2.13,2.13,0,0,0,1.93,0l4.61-2.66a.59.59,0,0,0,0-1.11l-5.48-3.17a2.13,2.13,0,0,0-1.93,0L259,215a.59.59,0,0,0,0,1.11ZM250.1,211l5.48,3.17a2.13,2.13,0,0,0,1.93,0l4.61-2.66a.59.59,0,0,0,0-1.11l-5.49-3.18a2.13,2.13,0,0,0-1.93,0l-4.61,2.66a.59.59,0,0,0,0,1.12Zm-8.86-5.11,5.48,3.17a2.13,2.13,0,0,0,1.93,0l4.61-2.66a.59.59,0,0,0,0-1.11l-5.47-3.18a2.13,2.13,0,0,0-1.93,0l-4.61,2.66a.6.6,0,0,0-.32.78.68.68,0,0,0,.32.34Zm-8.08,4.66,5.48,3.17a2.13,2.13,0,0,0,1.93,0l4.61-2.66a.59.59,0,0,0,0-1.11l-5.48-3.17a2.13,2.13,0,0,0-1.93,0l-4.61,2.66a.59.59,0,0,0,0,1.11Zm-7.83,4.56,23.05,13.31a2.65,2.65,0,0,0,2.4,0l12.11-7a.73.73,0,0,0,0-1.38L249,212a2.65,2.65,0,0,0-2.4,0l-6.07,3.51a1.5,1.5,0,0,1-1.35,0l-7.74-4.44a1.77,1.77,0,0,0-1.6,0l-4.51,2.6a.73.73,0,0,0,0,1.4Z"/><path class="cls-71" d="M174.49,202.54l-41-23.77,4.62-2.67a1.53,1.53,0,0,1,1.34,0l41,23.77-4.62,2.67A1.53,1.53,0,0,1,174.49,202.54Zm26.61,15.27-5.47-3.25,4.61-2.67a1.41,1.41,0,0,1,.67-.15,1.38,1.38,0,0,1,.67.16l5.48,3.26-4.62,2.67a1.53,1.53,0,0,1-1.34,0Zm7.81-4.65-8.34-4.91,4.62-2.67a1.53,1.53,0,0,1,1.34,0l8.34,4.91-4.62,2.67A1.53,1.53,0,0,1,208.91,213.16Zm-16.67-.47-5.48-3.26,4.61-2.67a1.41,1.41,0,0,1,.67-.15,1.38,1.38,0,0,1,.67.16l5.48,3.26-4.56,2.68a1.53,1.53,0,0,1-1.34,0Zm24.91-4.16-5.52-3.24,4.62-2.67a1.53,1.53,0,0,1,1.34,0l5.48,3.25-4.61,2.67a1.56,1.56,0,0,1-1.34,0Zm-33.77-1-5.48-3.26,4.61-2.67a1.41,1.41,0,0,1,.67-.15,1.38,1.38,0,0,1,.67.16l5.48,3.26-4.62,2.67a1.53,1.53,0,0,1-1.34,0Zm13.81-1.18-5.48-3.25,4.62-2.67a1.53,1.53,0,0,1,1.34,0l5.48,3.26-4.62,2.67a1.53,1.53,0,0,1-1.34,0Zm27.8-2.53L216.63,199l4.62-2.67a1.53,1.53,0,0,1,1.34,0l8.34,4.91-4.62,2.67a1.53,1.53,0,0,1-1.34,0Zm-16.7-.45-5.48-3.26,4.61-2.67a1.41,1.41,0,0,1,.67-.15,1.39,1.39,0,0,1,.67.16l5.48,3.25-4.61,2.73a1.53,1.53,0,0,1-1.34,0ZM130.13,177l-5.5-3.2,4.61-2.67a1.41,1.41,0,0,1,.67-.15,1.38,1.38,0,0,1,.67.16l5.48,3.26L131.45,177a1.41,1.41,0,0,1-.67.15,1.38,1.38,0,0,1-.63-.16Zm58.2,24.27-5.47-3.15,4.62-2.67a1.53,1.53,0,0,1,1.34,0l5.48,3.26-4.62,2.67a1.53,1.53,0,0,1-1.34,0Zm44.9-2L227.75,196l4.62-2.67a1.53,1.53,0,0,1,1.34,0l5.48,3.25-4.56,2.71a1.53,1.53,0,0,1-1.34,0Zm-33.8-.93L194,195.08l4.61-2.67a1.41,1.41,0,0,1,.67-.15,1.38,1.38,0,0,1,.67.16l5.48,3.26-4.62,2.67a1.53,1.53,0,0,1-1.34,0Zm13.84-1.2-5.48-3.26,4.62-2.67a1.53,1.53,0,0,1,1.34,0l5.48,3.26-4.6,2.65a1.53,1.53,0,0,1-1.34,0Zm-33.8-.94L174,192.9l4.61-2.67a1.41,1.41,0,0,1,.67-.15,1.38,1.38,0,0,1,.67.16l5.48,3.25-4.62,2.67a1.53,1.53,0,0,1-1.34,0Zm44.9-2-5.48-3.26,4.61-2.67a1.41,1.41,0,0,1,.67-.15,1.38,1.38,0,0,1,.67.16l5.48,3.25-4.62,2.67a1.53,1.53,0,0,1-1.34,0Zm-33.8-.93L185.09,190l4.61-2.67a1.41,1.41,0,0,1,.67-.15,1.38,1.38,0,0,1,.67.16l5.48,3.26-4.62,2.67a1.53,1.53,0,0,1-1.34,0Zm13.84-1.2-5.48-3.26,4.62-2.67a1.53,1.53,0,0,1,1.34,0l5.48,3.26L205.75,192A1.53,1.53,0,0,1,204.41,192Zm-33.78-1-5.48-3.26,4.61-2.67a1.41,1.41,0,0,1,.67-.15,1.38,1.38,0,0,1,.67.16l5.48,3.25-4.6,2.67a1.53,1.53,0,0,1-1.34,0Zm44.9-2-5.48-3.26,4.58-2.74a1.41,1.41,0,0,1,.67-.15,1.39,1.39,0,0,1,.67.16l5.48,3.26-4.57,2.73a1.53,1.53,0,0,1-1.34,0Zm-33.8-.93-5.48-3.26,4.61-2.67a1.41,1.41,0,0,1,.67-.15,1.38,1.38,0,0,1,.67.16l5.48,3.25-4.6,2.6a1.41,1.41,0,0,1-.67.15,1.38,1.38,0,0,1-.67-.15Zm13.84-1.2-5.48-3.26,4.62-2.67a1.53,1.53,0,0,1,1.34,0l5.48,3.25-4.62,2.67a1.53,1.53,0,0,1-1.34,0Zm-33.8-.94-5.48-3.26,4.61-2.67a1.41,1.41,0,0,1,.67-.15,1.38,1.38,0,0,1,.67.16l5.48,3.26L163.1,186a1.53,1.53,0,0,1-1.34,0Zm44.9-2-5.48-3.26,4.61-2.67a1.41,1.41,0,0,1,.67-.15,1.39,1.39,0,0,1,.67.16l5.48,3.26L208,184a1.53,1.53,0,0,1-1.34,0Zm-33.8-.93-5.48-3.26,4.61-2.67a1.41,1.41,0,0,1,.67-.15,1.38,1.38,0,0,1,.67.16l5.48,3.25-4.61,2.67a1.41,1.41,0,0,1-.67.15,1.38,1.38,0,0,1-.66-.25Zm13.84-1.2-5.48-3.26,4.61-2.67a1.41,1.41,0,0,1,.67-.15,1.38,1.38,0,0,1,.67.16l5.48,3.26L188,181.89a1.53,1.53,0,0,1-1.34,0Zm-33.8-.94-5.48-3.25L152,175a1.41,1.41,0,0,1,.67-.15,1.39,1.39,0,0,1,.67.16l5.48,3.26L154.25,181a1.41,1.41,0,0,1-.67.15,1.38,1.38,0,0,1-.65-.27Zm44.9-2-5.48-3.26,4.61-2.67a1.41,1.41,0,0,1,.67-.15,1.38,1.38,0,0,1,.67.16l5.48,3.25-4.61,2.67a1.41,1.41,0,0,1-.67.15,1.38,1.38,0,0,1-.65-.29ZM164,178l-5.48-3.26,4.61-2.67a1.41,1.41,0,0,1,.67-.15,1.38,1.38,0,0,1,.67.16l5.48,3.26L165.35,178a1.41,1.41,0,0,1-.67.15,1.38,1.38,0,0,1-.65-.3Zm13.84-1.2-5.48-3.26,4.61-2.67a1.41,1.41,0,0,1,.67-.15,1.38,1.38,0,0,1,.67.16l5.48,3.26-4.62,2.67a1.53,1.53,0,0,1-1.34,0Zm-33.8-.94-5.42-3.4,4.61-2.67a1.41,1.41,0,0,1,.67-.15,1.38,1.38,0,0,1,.67.16l5.45,3.27-4.61,2.67a1.41,1.41,0,0,1-.67.15,1.38,1.38,0,0,1-.68-.17Zm44.9-2-5.48-3.26,4.61-2.67a1.41,1.41,0,0,1,.67-.15,1.38,1.38,0,0,1,.67.16l5.48,3.25-4.61,2.67a1.41,1.41,0,0,1-.67.15,1.38,1.38,0,0,1-.64-.33Zm-33.8-.93-5.48-3.26,4.61-2.67a1.41,1.41,0,0,1,.67-.15,1.38,1.38,0,0,1,.67.16l5.51,3.06-4.61,2.67a1.41,1.41,0,0,1-.67.15,1.38,1.38,0,0,1-.68-.14ZM121.43,172l-8.34-4.91,4.61-2.67a1.41,1.41,0,0,1,.67-.15,1.38,1.38,0,0,1,.67.16l8.34,4.91L122.76,172a1.53,1.53,0,0,1-1.34,0Zm47.56-.28-5.48-3.26,4.61-2.67a1.41,1.41,0,0,1,.67-.15,1.39,1.39,0,0,1,.67.16l5.48,3.26-4.62,2.67a1.53,1.53,0,0,1-1.34,0Zm-33.8-.94-5.48-3.26,4.61-2.67a1.41,1.41,0,0,1,.67-.15,1.38,1.38,0,0,1,.67.16l5.48,3.25-4.61,2.67a1.41,1.41,0,0,1-.67.15,1.38,1.38,0,0,1-.64-.32Zm44.9-2-5.46-3.47,4.61-2.67a1.41,1.41,0,0,1,.67-.15,1.38,1.38,0,0,1,.67.16l5.48,3.26-4.61,2.67a1.41,1.41,0,0,1-.67.15,1.38,1.38,0,0,1-.66-.16Zm-33.8-.93-5.48-3.26,4.61-2.67a1.41,1.41,0,0,1,.67-.15,1.38,1.38,0,0,1,.67.16l5.48,3.25-4.61,2.46a1.41,1.41,0,0,1-.67.15,1.39,1.39,0,0,1-.64-.16Zm13.84-1.2-5.5-3.48,4.61-2.67a1.41,1.41,0,0,1,.67-.15,1.38,1.38,0,0,1,.67.16l5.48,3.25-4.61,2.67a1.41,1.41,0,0,1-.67.15,1.38,1.38,0,0,1-.62-.15Zm-33.8-.94-5.48-3.26,4.61-2.67a1.41,1.41,0,0,1,.67-.15,1.38,1.38,0,0,1,.67.16l5.48,3.26-4.61,2.67a1.41,1.41,0,0,1-.67.15,1.38,1.38,0,0,1-.64-.38Zm44.9-2-5.48-3.26,4.61-2.67a1.41,1.41,0,0,1,.67-.15,1.38,1.38,0,0,1,.67.16l5.48,3.26-4.55,2.41a1.41,1.41,0,0,1-.67.15,1.38,1.38,0,0,1-.69-.15Zm-33.8-.93-8.34-4.91,4.61-2.67a1.41,1.41,0,0,1,.67-.15,1.38,1.38,0,0,1,.67.16l8.34,4.91-4.61,2.67a1.41,1.41,0,0,1-.67.15,1.38,1.38,0,0,1-.64-.42ZM232.32,237l-5.48-3.26,4.61-2.67a1.41,1.41,0,0,1,.67-.15,1.38,1.38,0,0,1,.67.16l5.48,3.26L233.66,237a1.41,1.41,0,0,1-.67.15,1.38,1.38,0,0,1-.64-.42Zm-81-75.44-5.5-3.51,4.61-2.67a1.41,1.41,0,0,1,.67-.15,1.38,1.38,0,0,1,.67.16l5.48,3.25-4.62,2.66a1.41,1.41,0,0,1-.67.15,1.38,1.38,0,0,1-.65-.15Zm11.1-3-5.49-3.51,4.61-2.67a1.41,1.41,0,0,1,.67-.15,1.38,1.38,0,0,1,.67.16l5.48,3.25-4.61,2.67a1.41,1.41,0,0,1-.67.15,1.38,1.38,0,0,1-.67-.14Zm78,73.74-5.48-3.25,4.62-2.67a1.53,1.53,0,0,1,1.34,0l5.48,3.26-4.6,2.41a1.53,1.53,0,0,1-1.34,0Zm-16.95-.44L218,228.63,222.6,226a1.41,1.41,0,0,1,.67-.15,1.38,1.38,0,0,1,.67.16l5.48,3.26-4.61,2.67a1.41,1.41,0,0,1-.67.15,1.38,1.38,0,0,1-.64-.39Zm-81-75.44L137,153.19l4.61-2.67a1.41,1.41,0,0,1,.67-.15,1.38,1.38,0,0,1,.67.16l5.48,3.26-4.61,2.67a1.41,1.41,0,0,1-.67.15,1.38,1.38,0,0,1-.69-.39Zm11.1-3-8.34-4.91,4.61-2.67a1.41,1.41,0,0,1,.67-.15,1.39,1.39,0,0,1,.67.16l8.34,4.9-4.61,2.67a1.41,1.41,0,0,1-.67.15,1.38,1.38,0,0,1-.68-.36Zm95.07,74-23.05-13.31v-.36l4.51-2.61a1.06,1.06,0,0,1,.5-.11,1.1,1.1,0,0,1,.51.11l7.75,4.41a2.2,2.2,0,0,0,2,0l6.07-3.51a2.06,2.06,0,0,1,1.81,0l13.9,8v.36l-12.11,7a2.06,2.06,0,0,1-1.81,0Zm-17-.27-5.48-3.26,4.62-2.67a1.53,1.53,0,0,1,1.34,0l5.48,3.25L233,227.17a1.53,1.53,0,0,1-1.34,0Zm-17-.64-5.48-3.26,4.61-2.67a1.41,1.41,0,0,1,.67-.15,1.38,1.38,0,0,1,.67.16l5.53,3.26L216,226.55a1.41,1.41,0,0,1-.67.15A1.39,1.39,0,0,1,214.63,226.54Zm8.09-4.68-5.48-3.26,4.61-2.67a1.41,1.41,0,0,1,.67-.15,1.38,1.38,0,0,1,.67.16l5.48,3.25-4.62,2.67a1.53,1.53,0,0,1-1.34,0Zm42-3.77-5.48-3.25,4.61-2.67a1.41,1.41,0,0,1,.67-.15,1.38,1.38,0,0,1,.67.16l5.48,3.26L266,218.08a1.41,1.41,0,0,1-.67.15,1.38,1.38,0,0,1-.67-.15ZM255.86,213l-5.48-3.26,4.62-2.67a1.53,1.53,0,0,1,1.34,0l5.48,3.26L257.21,213a1.56,1.56,0,0,1-1.34,0Zm-16.93-.45-5.48-3.26,4.61-2.67a1.41,1.41,0,0,1,.67-.15,1.39,1.39,0,0,1,.67.16l5.48,3.26-4.61,2.67a1.41,1.41,0,0,1-.67.15,1.38,1.38,0,0,1-.7-.15Zm8.08-4.66-5.48-3.26,4.62-2.67a1.53,1.53,0,0,1,1.34,0l5.48,3.25-4.61,2.67a1.56,1.56,0,0,1-1.34,0Z"/><path class="cls-72" d="M126.88,209.62,160.36,229h0l21.71-12.54h0l-33.44-19.33h0l-21.75,12.5Z"/><path class="cls-73" d="M235.28,234.76l-1.85-1.1,1-.56,1.85,1.1Zm8.09-4.68-1.85-1.1,1-.56,1.85,1.1Zm-16.95-.44-1.85-1.1,1-.56,1.85,1.1Zm8.09-4.68-1.85-1.1,1-.56,1.85,1.1Zm-16.95-.44-1.85-1.1,1-.56,1.85,1.1Zm8.09-4.68-1.85-1.1,1-.56,1.85,1.1Zm42-3.76-1.85-1.1,1-.56,1.85,1.1ZM258.77,211l-1.85-1.1,1-.56,1.85,1.1Zm-16.93-.45-1.85-1.1,1-.56,1.85,1.1Zm8.07-4.66-1.85-1.1,1-.56,1.85,1.1Zm-45.78,9.92-1.85-1.1,1-.56,1.85,1.1Zm7.81-4.65-4.69-2.76,1-.55,4.69,2.76Zm-16.66-.47-1.85-1.1,1-.56,1.85,1.1Zm24.91-4.16-1.85-1.1,1-.56,1.85,1.1Zm-33.77-1-1.85-1.1,1-.56,1.85,1.1Zm13.81-1.18-1.85-1.1,1-.56,1.85,1.1Zm27.8-2.53-4.69-2.71,1-.55,4.69,2.76Zm-16.7-.45-1.85-1.1,1-.56,1.85,1.1Zm-77.64-26.4-1.85-1.1,1-.56,1.85,1.1Zm57.68,24.26-1.85-1.1,1-.56,1.85,1.1Zm44.9-2-1.84-1.12,1-.56,1.85,1.1Zm-33.8-.93-1.84-1.09,1-.56,1.85,1.1Zm13.84-1.2-1.85-1.1,1-.56,1.85,1.1Zm-33.8-.94-1.88-1.05,1-.56,1.85,1.1Zm44.9-2-1.85-1.1,1-.56,1.85,1.1Zm-33.8-.93-1.85-1.1,1-.56,1.85,1.1Zm13.84-1.2-1.85-1.1,1-.56,1.85,1.1Zm-33.82-.92-1.85-1.1,1-.56,1.85,1.1Zm44.9-2-1.85-1.1,1-.56,1.85,1.1Zm-33.8-.93-1.85-1.1,1-.56,1.85,1.1Zm13.84-1.2-1.85-1.1,1-.56,1.85,1.1Zm-33.8-.94-1.85-1.1,1-.56,1.85,1.1Zm44.9-2-1.85-1.1,1-.56,1.85,1.1Zm-33.8-.93L174,180l1-.56,1.85,1.1Zm13.84-1.2-1.85-1.1,1-.56,1.85,1.1Zm-33.8-.94-1.85-1.1,1-.56,1.85,1.1Zm44.9-2-1.86-1.1,1-.56,1.85,1.1ZM167,176l-1.85-1.1,1-.56,1.86,1.1Zm13.84-1.2L179,173.7l1-.56,1.85,1.1Zm-33.8-.94-1.85-1.1,1-.56,1.85,1.1Zm44.9-2-1.85-1.1,1-.56,1.85,1.1Zm-33.8-.93-1.85-1.1,1-.56,1.86,1.1ZM124.43,170l-4.64-2.92,1-.55,4.69,2.76Zm47.56-.28-1.85-1.1,1-.56,1.85,1.1Zm-33.8-.94-1.85-1.1,1-.56,1.85,1.1Zm44.9-2-1.85-1.1,1-.56,1.85,1.1Zm-33.8-.93-1.85-1.1,1-.56,1.85,1.1Zm13.84-1.2-1.85-1.1,1-.56,1.85,1.1Zm-33.8-.94-1.85-1.1,1-.56,1.85,1.1Zm44.9-2-1.85-1.1,1-.56,1.85,1.1Zm-33.8-.93L135.74,158l1-.55,4.69,2.76Zm13.85-1.2-1.85-1.1,1-.56,1.85,1.1Zm11.1-3-1.85-1.1,1-.56,1.86,1.1Zm-20-2.14-1.75-1.36,1-.56,1.86,1.1Zm11.1-3-4.69-2.76,1-.55,4.69,2.76Z"/><path class="cls-74" d="M148.63,197.08h0l33.48,19.33h0l-1.46.84-32-18.49h0l-20.32,11.7-1.46-.84h0Z"/></g><path class="cls-75" d="M150.88,137.08a3.55,3.55,0,0,1,.57-.9,2.68,2.68,0,0,1,.68-.56l135,78.52a2.68,2.68,0,0,0-.68.56,3.55,3.55,0,0,0-.57.9,2.81,2.81,0,0,0-.26,1.12V217l-135-78.55v-.25A2.81,2.81,0,0,1,150.88,137.08Z"/><ellipse class="cls-76" cx="287.42" cy="214.33" rx="1.65" ry="1.19" transform="translate(-41.62 356.73) rotate(-60.11)"/><path class="cls-77" d="M226.68,284c1.81-4.62,8.65-13.54,19-17.47,8.27-3.15,18.71-6.37,31.09.8a14.8,14.8,0,0,1,1.34.88c4.48,3.29,4.34,8.82-.44,12.17-8.79,6.16-19.47,12-19.47,12a37.09,37.09,0,0,1-8.36,3.33c-7.11,1.81-13.42,1.16-18.77-2-3.38-2-5.06-4.53-5-7.11A8.38,8.38,0,0,1,226.68,284Z"/><path class="cls-78" d="M261.42,268.61l3.49-1.9a3.52,3.52,0,0,1,3.93.61c.86.74.47,1-.55,1.54l-3.51,1.65a4.16,4.16,0,0,1-3.65,0C260.2,269.89,260.4,269.08,261.42,268.61Z"/><g class="cls-79"><path class="cls-80" d="M263.68,265.79a3.39,3.39,0,0,1,3.43-.11l-5,8C259.63,271.83,260.84,267.51,263.68,265.79Z"/><path class="cls-81" d="M262.15,269.74a7.32,7.32,0,0,1,2.92-3.62,2.94,2.94,0,0,1,1.69-.45,1.69,1.69,0,0,1,.71.22,3.17,3.17,0,0,1,1.46,2c.86,3-2.66,8.17-6.24,6.27C261.63,273.49,261.38,271.73,262.15,269.74Z"/><path class="cls-82" d="M264.63,270.64a4.58,4.58,0,0,1,1.82-2.26,1.83,1.83,0,0,1,1-.28c1,.09,1.36,1.37.78,2.86a4.58,4.58,0,0,1-1.82,2.27,1.82,1.82,0,0,1-1,.28C264.42,273.42,264.07,272.13,264.63,270.64Z"/><path class="cls-83" d="M261.8,269.53l.14-.34a8,8,0,0,1,1.3-2,6,6,0,0,1,1.48-1.25,2.93,2.93,0,0,1,1.69-.45,1.69,1.69,0,0,1,.71.22l.35.2a1.69,1.69,0,0,0-.71-.22,2.94,2.94,0,0,0-1.69.45,6,6,0,0,0-1.48,1.25,8,8,0,0,0-1.3,2l-.14.34c-.77,2-.51,3.75.53,4.36l-.35-.2C261.29,273.28,261,271.53,261.8,269.53Z"/></g><path class="cls-78" d="M230.41,291.45c5.35,3.11,11.66,3.76,18.77,2a37.1,37.1,0,0,0,8.36-3.33s10.68-5.78,19.47-12c2.66-1.86,3.87-4.4,3.67-6.84,1.47,3.06.47,6.68-3,9.14-8.79,6.16-19.47,12-19.47,12a37.08,37.08,0,0,1-8.36,3.33c-7.11,1.81-13.42,1.16-18.77-2-3.15-1.83-4.8-4.19-5-6.59A10.67,10.67,0,0,0,230.41,291.45Z"/><path class="cls-78" d="M230.73,292.55c5.35,3.11,11.66,3.76,18.77,2a37.08,37.08,0,0,0,8.36-3.33s10.68-5.78,19.47-12c2.84-2,4-4.75,3.6-7.35,1.08,2.92,0,6.24-3.29,8.55-8.79,6.16-19.47,12-19.47,12a37.08,37.08,0,0,1-8.36,3.33c-7.11,1.81-13.42,1.16-18.77-2-2.92-1.7-4.54-3.85-4.92-6.07A10.08,10.08,0,0,0,230.73,292.55Z"/></g><path class="cls-84" d="M207.28,131.22a12.59,12.59,0,0,1-2.1-1.74c-.12-.12-.6-.69-.72-.86a21.46,21.46,0,0,1-3.67-12.06c0-6.11,2.85-9.55,6.34-7.65s6.28,8.3,6.32,14.37l2.29,1.24c0-8.28-3.88-17.05-8.61-19.61s-8.62,2.09-8.63,10.42A29.67,29.67,0,0,0,203,131.06a19.43,19.43,0,0,0,1.42,1.81A15.71,15.71,0,0,0,207,135c.29.19,1.28.75,1.57.91h0l17.48,9.49v-4L208.61,132C208.4,131.86,207.49,131.35,207.28,131.22Zm1.33-5.54h0c-.17-.09-1-.57-1.2-.69a8.49,8.49,0,0,1-.92-.71,6.39,6.39,0,0,1-.68-.79,9.37,9.37,0,0,1-1.43-5c0-2.64,1.22-4.11,2.73-3.29s2.67,3.51,2.72,6.1l2.2,1.19c0-4.72-2.22-9.68-4.91-11.14s-4.93,1.19-4.93,6a16.8,16.8,0,0,0,2.7,9.15,8,8,0,0,0,.84,1,11,11,0,0,0,1.55,1.26c.18.13,1.07.62,1.26.73h0L226.06,139v-3.85Zm-11.53,4-2.3-1.25V102.22l-3.37-1.83v-4l5.67,3.08ZM188.91,101v3.88l2.53,1.37v20.34l2.21,1.2V103.61Z"/><path class="cls-85" d="M242.63,147.11c0,5.3-2.26,7.37-5.9,5.4s-5.89-6.49-5.89-11.79c0-3,.75-4.94,2.26-5.73a14,14,0,0,1-1.71-6.89c0-2.67.52-4.45,1.53-5.38s2.3-1,3.83-.14a9.41,9.41,0,0,1,3.8,4.29,15.56,15.56,0,0,1,1.52,7c0,2.55-.57,4.22-1.72,5A15,15,0,0,1,242.63,147.11Zm-5.89-7.89c-1.6-.87-2.68,0-2.68,2.49a6,6,0,0,0,2.67,5.44c1.6.87,2.68,0,2.68-2.54A6,6,0,0,0,236.74,139.22Zm0-11.31a1.16,1.16,0,0,0-1.53.08,3,3,0,0,0-.59,2.15,6.53,6.53,0,0,0,.58,2.83,3.64,3.64,0,0,0,1.53,1.73,1.16,1.16,0,0,0,1.53-.08,3.15,3.15,0,0,0,.59-2.19,6.35,6.35,0,0,0-.59-2.79A3.63,3.63,0,0,0,236.74,127.91Z"/></g></g></svg>