<svg xmlns="http://www.w3.org/2000/svg" width="96" height="96" viewBox="0 0 96 96">
    <g fill="none" fill-rule="evenodd">
        <path fill="#F15A24" d="M4 96h88a4 4 0 0 0 4-4V4a4 4 0 0 0-4-4H4a4 4 0 0 0-4 4v88a4 4 0 0 0 4 4z"/>
        <g fill="#FFF">
            <path d="M59.613 33.942c-.863 1.34-1.148 2.98-.643 4.542.936 2.894 4.237 4.42 7.372 3.4 3.132-1.013 4.91-4.185 3.976-7.076-.625-1.924-2.29-3.223-4.256-3.609-1.322-.26-6.449 2.743-6.449 2.743"/>
            <path d="M68.356 30.02c3.425.643 6.068 2.867 7.069 5.942 1.549 4.793-1.48 10.082-6.752 11.79-2.583.84-5.306.703-7.662-.387-2.3-1.062-3.976-2.91-4.719-5.205-.735-2.264-.445-4.758.768-6.94 2.21-1.609 5.094-3.157 8.86-4.495.73-.274 1.427-.54 2.11-.802.104.04.211.075.325.096m-26.418 2.423a1.978 1.978 0 0 0-1.007-.738c-2.432-1.706-5.502-3.315-9.375-4.697 5.6-2.77 17.876-6.889 32.614.103-3.732 1.36-6.714 2.928-9.085 4.59a1.987 1.987 0 0 0-1.032.754c-2.949 2.268-4.842 4.666-6.05 6.901-1.21-2.239-3.107-4.642-6.065-6.913m-2.232 9.721c-.699 2.164-2.25 3.952-4.37 5.035-2.399 1.224-5.317 1.428-8.009.554-5.27-1.708-8.298-6.997-6.75-11.787 1-3.08 3.642-5.302 7.07-5.946.113-.02.22-.056.325-.095.692.265 1.4.535 2.14.814 3.75 1.33 6.621 2.872 8.824 4.473 1.215 2.184 1.507 4.682.77 6.952M87.351 14.73a2.001 2.001 0 0 0-3.992.265c.156 2.35.284 4.41-14.223 10.2-20.943-11.879-38.64-2.38-42.406-.053-14.377-5.754-14.245-7.807-14.09-10.148a2 2 0 0 0-3.99-.265c-.307 4.611 1.058 7.58 13.855 12.997-2.705 1.576-4.77 4.039-5.734 7.007-1.59 4.92.1 10.166 3.872 13.639a1.988 1.988 0 0 0-1.136.907c-1.957 3.42-8.057 15.852-4.356 32.215a2 2 0 0 0 3.901-.882c-2.687-11.882.266-22.95 3.927-29.346.18-.313.255-.651.256-.987a14.98 14.98 0 0 0 2.858 1.278c1.501.487 3.058.728 4.602.728 2.254 0 4.48-.513 6.46-1.525 3.072-1.57 5.33-4.186 6.356-7.364a12.29 12.29 0 0 0 .557-2.814c1.275 2.07 1.76 3.954 1.925 5.3-.137 1.538.01 2.548.034 2.697.004.021.012.04.016.061.014.07.032.138.054.206a2.187 2.187 0 0 0 .136.333 2.494 2.494 0 0 0 .2.31c.032.04.067.077.102.115.05.054.1.106.156.155.026.023.054.042.081.063.256.201.56.35.903.406a1.996 1.996 0 0 0 2.124-1.12l.01-.019a1.86 1.86 0 0 0 .111-.309l.023-.086c.01-.039.022-.075.03-.115.024-.149.17-1.158.034-2.695.165-1.345.65-3.225 1.923-5.294.076.948.26 1.887.557 2.803 1.09 3.368 3.521 6.068 6.848 7.604a14.175 14.175 0 0 0 5.952 1.298 14.937 14.937 0 0 0 7.477-2.017c.001.336.077.676.256.988 3.662 6.397 6.617 17.465 3.928 29.345a1.998 1.998 0 0 0 1.952 2.441 2 2 0 0 0 1.948-1.558c3.704-16.36-2.398-28.794-4.357-32.216a1.985 1.985 0 0 0-1.134-.907c3.772-3.473 5.463-8.72 3.873-13.642-.965-2.966-3.03-5.427-5.734-7.002 12.794-5.414 14.161-8.383 13.855-12.998"/>
            <path d="M29.939 31.2c-1.965.385-3.631 1.685-4.258 3.608-.935 2.891.846 6.063 3.978 7.077 3.135 1.018 6.435-.507 7.371-3.4.505-1.562.22-3.203-.643-4.543 0 0-5.126-3.003-6.448-2.743"/>
        </g>
    </g>
</svg>
