<svg xmlns="http://www.w3.org/2000/svg" width="96" height="96" viewBox="0 0 96 96">
    <g fill="none" fill-rule="evenodd">
        <path fill="#ED2D24" d="M0 96h96V0H0z"/>
        <g fill="#FFF">
            <path d="M62.237 50.98a3.068 3.068 0 1 1-6.135-.003 3.068 3.068 0 0 1 6.135.003M51.085 18.873a3.069 3.069 0 0 1-6.137 0 3.068 3.068 0 0 1 6.137 0M51.085 31.724a3.068 3.068 0 1 1-6.136-.004 3.068 3.068 0 0 1 6.136.004M51.085 44.575a3.068 3.068 0 1 1-6.136-.004 3.068 3.068 0 0 1 6.136.004M39.942 50.98a3.068 3.068 0 0 1-6.137 0 3.069 3.069 0 0 1 6.137 0M73.32 31.722a3.07 3.07 0 0 1-3.066 3.07 3.068 3.068 0 0 1-3.066-3.07 3.065 3.065 0 1 1 6.131 0M62.237 38.14a3.069 3.069 0 1 1-6.135-.001 3.069 3.069 0 0 1 6.135 0M39.94 38.141a3.068 3.068 0 1 1-6.134-.002 3.068 3.068 0 0 1 6.134.002M73.32 57.426a3.066 3.066 0 1 1-6.132 0 3.066 3.066 0 1 1 6.131 0M28.812 31.722a3.07 3.07 0 0 1-3.064 3.07 3.068 3.068 0 0 1-3.067-3.07 3.065 3.065 0 1 1 6.131 0M28.812 57.426a3.066 3.066 0 1 1-3.064-3.067 3.068 3.068 0 0 1 3.064 3.067M51.085 57.426a3.067 3.067 0 0 1-3.068 3.068 3.067 3.067 0 1 1 3.068-3.068M51.085 70.275a3.068 3.068 0 1 1-6.137 0 3.067 3.067 0 0 1 3.069-3.065 3.067 3.067 0 0 1 3.068 3.065M51.085 83.127a3.067 3.067 0 0 1-3.068 3.068 3.067 3.067 0 1 1 3.068-3.068"/>
        </g>
    </g>
</svg>
