<svg xmlns="http://www.w3.org/2000/svg" width="96" height="96" viewBox="0 0 96 96">
    <g fill="none" fill-rule="evenodd">
        <path fill="#2BAAE1" d="M0 96h96V0H0z"/>
        <g fill="#FEFEFE">
            <path d="M80.353 46.33a2 2 0 0 1-2-2v-.162a2 2 0 0 1 1.68-1.974 9.405 9.405 0 0 0 7.93-9.319c0-5.212-4.24-9.45-9.453-9.45-.716 0-1.456.09-2.204.268a2.003 2.003 0 0 1-2.347-1.27c-1.653-4.605-6.044-7.699-10.926-7.699-6.2 0-11.291 4.855-11.592 11.054a2 2 0 0 1-2.277 1.884 7.22 7.22 0 0 0-1.011-.08 7.36 7.36 0 0 0-3.88 1.1 2 2 0 0 1-2.105-3.402 11.348 11.348 0 0 1 5.502-1.689c1.302-7.357 7.704-12.867 15.363-12.867 5.995 0 11.439 3.467 14.03 8.782 8.04-.9 14.9 5.475 14.9 13.37A13.384 13.384 0 0 1 81.47 45.988c-.32.214-.704.34-1.117.34"/>
            <path d="M20.34 78.52h55.495c.11-.03.221-.051.337-.063A12.556 12.556 0 0 0 87.59 65.9c0-6.922-5.63-12.583-12.552-12.617a2 2 0 0 1-1.887-1.365 13.297 13.297 0 0 0-12.617-9.084c-1.936 0-3.822.422-5.61 1.253a2 2 0 0 1-2.662-.98c-3.054-6.662-9.759-10.966-17.079-10.966-10.36 0-18.787 8.429-18.787 18.788 0 .497.022 1.012.068 1.57a2 2 0 0 1-1.144 1.978c-4.424 2.072-7.282 6.556-7.282 11.423 0 6.74 5.281 12.27 12.022 12.588.095.005.19.015.28.033m56.022 4H19.964c-.169 0-.333-.021-.49-.061-8.689-.613-15.437-7.812-15.437-16.56 0-5.952 3.242-11.47 8.365-14.411a21.123 21.123 0 0 1-.007-.56c0-12.565 10.222-22.787 22.787-22.787 8.24 0 15.836 4.495 19.848 11.599a17.092 17.092 0 0 1 5.503-.907c6.98 0 13.212 4.172 15.916 10.514 8.467.753 15.14 7.904 15.14 16.552 0 8.447-6.208 15.445-14.527 16.485a1.866 1.866 0 0 1-.7.136"/>
        </g>
    </g>
</svg>
