<svg xmlns="http://www.w3.org/2000/svg" width="96" height="96" viewBox="0 0 96 96">
    <g fill="none" fill-rule="evenodd">
        <path fill="#009245" d="M0 96h96V0H0z"/>
        <g fill="#FFF">
            <path d="M48.013 69.344c-5.814 0-10.544-4.73-10.544-10.543 0-5.812 4.73-10.542 10.544-10.542s10.543 4.73 10.543 10.542c0 5.814-4.73 10.543-10.543 10.543m27.23-11.826c-.416-14.607-12.42-26.363-27.126-26.363-14.97 0-27.148 12.178-27.148 27.147 0 14.97 12.178 27.148 27.148 27.148 4.794 0 9.507-1.266 13.627-3.663a1.997 1.997 0 0 0 .724-2.733 1.997 1.997 0 0 0-2.733-.724 23.142 23.142 0 0 1-11.618 3.12c-12.764 0-23.148-10.384-23.148-23.148 0-12.763 10.384-23.146 23.148-23.146 12.666 0 22.982 10.226 23.139 22.854-.08 7.859-3.24 11.407-5.496 11.407-1.825 0-3.1-2.241-3.1-5.451V46.259a2 2 0 0 0-4 0v2.67c-2.658-2.864-6.441-4.67-10.647-4.67-8.02 0-14.544 6.523-14.544 14.542s6.524 14.543 14.544 14.543c4.519 0 8.563-2.072 11.23-5.316 1.17 3.673 3.918 5.389 6.517 5.389 4.457 0 9.232-4.676 9.48-14.88.009-.078.024-.154.024-.235 0-.104-.007-.208-.008-.312 0-.094.008-.18.008-.275 0-.067-.014-.132-.02-.197"/>
            <path d="M80.439 25.592l-.575 2.894a.925.925 0 0 1-1.072.725l-13.278-2.562a.912.912 0 0 1-.721-1.07l.57-2.96c.167-.29.262-.623.262-.978 0-1.77-1.065-2.117-6.5-3.111-2.695-.492-6.786-1.08-10.998-1.08-4.263.004-8.43.596-11.173 1.092-5.518.997-6.6 1.347-6.598 3.122 0 .374.104.724.285 1.024l.566 2.917a.909.909 0 0 1-.724 1.068l-13.272 2.58a.914.914 0 0 1-1.07-.732l-.576-2.875a1.835 1.835 0 0 1-.003-.556c.008-.066.013-.132.015-.198.074-3.411.952-6.4 1.999-6.8 5.513-2.114 20.01-4.047 30.472-4.055 10.397 0 24.87 1.913 30.368 4.015 1.045.398 1.927 3.383 2.007 6.794 0 .066.006.13.014.197.036.296.016.482.002.549m3.98-.932c-.073-2.69-.674-8.857-4.577-10.345-6.594-2.521-22.05-4.278-31.851-4.278-9.755.008-25.233 1.784-31.848 4.32-3.902 1.498-4.495 7.667-4.563 10.356a5.786 5.786 0 0 0 .06 1.708l.576 2.874a4.918 4.918 0 0 0 5.759 3.885l13.27-2.581a4.878 4.878 0 0 0 3.138-2.073c.734-1.087 1-2.395.75-3.683l-.345-1.782c2.712-.62 8.159-1.607 13.37-1.61 5.279 0 10.479.995 13.05 1.594l-.341 1.778a4.881 4.881 0 0 0 .755 3.684 4.875 4.875 0 0 0 3.136 2.069l13.28 2.563a4.92 4.92 0 0 0 5.751-3.882l.577-2.9c.1-.527.118-1.098.053-1.697"/>
        </g>
    </g>
</svg>
