<svg xmlns="http://www.w3.org/2000/svg" width="96" height="96" viewBox="0 0 96 96">
    <g fill="none" fill-rule="evenodd">
        <path fill="#D53C2D" d="M0 96h96V0H0z"/>
        <g fill="#FFF">
            <path d="M47.925 27.41l13.606 10.84H34.432l13.493-10.84zM28.75 42.25h38.501a2 2 0 0 0 1.246-3.565l-19.33-15.4a2 2 0 0 0-2.5.004l-19.17 15.402a2 2 0 0 0 1.253 3.56zM69.522 62.5H26.478a2 2 0 0 0 0 4h43.044a2 2 0 0 0 0-4M31.378 46.133v12.352a2 2 0 0 0 4 0V46.133a2 2 0 0 0-4 0M60.624 46.133v12.352a2 2 0 0 0 4 0V46.133a2 2 0 0 0-4 0M50.876 46.133v12.352a2 2 0 0 0 4 0V46.133a2 2 0 0 0-4 0M41.128 46.133v12.352a2 2 0 0 0 4 0V46.133a2 2 0 0 0-4 0"/>
            <path d="M42.185 82.395c-14.391 0-26.267-10.97-27.705-24.987l2.543 2.545a2.001 2.001 0 0 0 2.83-2.826l-6.105-6.111c-.75-.752-2.08-.752-2.83 0l-6.104 6.111a2 2 0 1 0 2.83 2.826l2.805-2.808c1.329 16.351 15.049 29.25 31.736 29.25a2 2 0 1 0 0-4M91.185 36.78a1.999 1.999 0 0 0-2.828 0l-2.753 2.756c-.996-16.672-14.87-29.93-31.788-29.93a2 2 0 0 0 0 4c14.66 0 26.704 11.388 27.766 25.782l-2.604-2.608a2 2 0 1 0-2.83 2.828l6.104 6.111a2.001 2.001 0 0 0 2.83 0l6.105-6.11a2 2 0 0 0-.002-2.83"/>
        </g>
    </g>
</svg>
