<svg xmlns="http://www.w3.org/2000/svg" width="96" height="96" viewBox="0 0 96 96">
    <g fill="none" fill-rule="evenodd">
        <path fill="#662F91" d="M0 96h96V0H0z"/>
        <path fill="#FEFEFE" fill-rule="nonzero" d="M76.193 57.25l3.085-3.086a2 2 0 0 1 2.829 2.829l-6.5 6.5a2 2 0 0 1-2.829 0l-6.5-6.5a2 2 0 0 1 2.829-2.829l3.086 3.086V16.692A2.693 2.693 0 0 0 69.5 14H26.193a2.693 2.693 0 0 0-2.693 2.692V24a2 2 0 1 1-4 0v-7.308A6.693 6.693 0 0 1 26.193 10H69.5a6.693 6.693 0 0 1 6.693 6.692V57.25zM19.5 39.829l-3.086 3.085a2 2 0 0 1-2.828-2.828l6.5-6.5a2 2 0 0 1 2.828 0l6.5 6.5a2 2 0 0 1-2.828 2.828L23.5 39.828v39.479A2.693 2.693 0 0 0 26.193 82H69.5a2.693 2.693 0 0 0 2.693-2.693V72a2 2 0 1 1 4 0v7.307A6.693 6.693 0 0 1 69.5 86H26.193a6.693 6.693 0 0 1-6.693-6.693V39.829zM29.5 26a2 2 0 1 1 0-4h36a2 2 0 1 1 0 4h-36zm0 9.167a2 2 0 1 1 0-4h36a2 2 0 1 1 0 4h-36zm4.52 9.166a2 2 0 1 1 0-4H65.5a2 2 0 1 1 0 4H34.02zM29.5 53.5a2 2 0 1 1 0-4h32.667a2 2 0 1 1 0 4H29.5zm0 9.167a2 2 0 1 1 0-4h32.667a2 2 0 1 1 0 4H29.5zm0 9.166a2 2 0 1 1 0-4h36a2 2 0 1 1 0 4h-36z"/>
    </g>
</svg>
