<svg xmlns="http://www.w3.org/2000/svg" width="96" height="96" viewBox="0 0 96 96">
    <g fill="none" fill-rule="evenodd">
        <path fill="#0071BC" d="M4 96h88a4 4 0 0 0 4-4V4a4 4 0 0 0-4-4H4a4 4 0 0 0-4 4v88a4 4 0 0 0 4 4z"/>
        <path fill="#FFF" d="M68.075 46c-.256-5.275-1.513-10.122-3.271-14.435 3.01-1.484 6.114-3.421 9.287-5.893C78.836 31.21 81.856 38.263 82.303 46H68.075zm-5.101 21.949c2.793 1.38 5.578 3.13 8.347 5.262a34.248 34.248 0 0 1-18.615 8.824c4.332-4.598 7.759-9.299 10.268-14.086zm-30.12-.294c2.523 4.888 5.998 9.687 10.417 14.377-7.182-.994-13.66-4.214-18.716-8.941a38.849 38.849 0 0 1 8.299-5.436zm-.2-39.369a38.008 38.008 0 0 1-8.092-5.383c4.892-4.571 11.112-7.734 18.014-8.834-2.93 3.134-6.856 8.003-9.921 14.217zM53.4 14.064c6.849 1.085 13.029 4.202 17.905 8.71-2.792 2.145-5.516 3.844-8.155 5.159-3.041-6.048-6.875-10.794-9.75-13.869zm-3.397 17.664V16.332c2.663 2.81 6.452 7.383 9.437 13.231-3.31 1.255-6.466 1.924-9.437 2.165zm0 14.272V35.667c3.497-.23 7.214-.988 11.108-2.482 1.58 3.867 2.706 8.177 2.958 12.815H50.002zm0 14.294V50h14.052c-.247 4.29-1.25 8.544-3.03 12.748-3.862-1.472-7.552-2.226-11.022-2.454zm0 3.962c3.1.237 6.2.93 9.29 2.089-2.287 4.305-5.388 8.553-9.29 12.727V64.256zm-12.47 1.513a32.976 32.976 0 0 1 8.47-1.571v14.9c-3.985-4.259-7.134-8.595-9.438-12.99.322-.115.638-.232.969-.339zM46.003 50v10.254c-4.114.192-7.855 1.081-11.134 2.285-1.727-4.136-2.7-8.32-2.942-12.539h14.076zm0-14.288V46h-14.09c.247-4.556 1.34-8.793 2.876-12.607 3.299 1.221 7.066 2.125 11.214 2.319zm0-3.911a32.673 32.673 0 0 1-9.62-1.927c3.018-6.015 6.908-10.709 9.62-13.566v15.493zm-24.18-6.026c1.772 1.52 4.959 3.952 9.252 6.034-1.707 4.251-2.918 9.016-3.17 14.191H13.7c.444-7.689 3.428-14.703 8.123-20.225zM13.699 50h14.22c.244 4.765 1.323 9.472 3.26 14.103-4.364 2.102-7.592 4.571-9.375 6.102C17.119 64.686 14.142 57.68 13.699 50zm60.415 20.302c-3.22-2.51-6.367-4.465-9.421-5.959 2-4.709 3.12-9.496 3.367-14.343h14.243c-.447 7.725-3.457 14.77-8.19 20.302zm1.8-48.58c-.018-.022-.028-.047-.047-.069a1.976 1.976 0 0 0-.296-.29C68.59 14.141 58.815 9.637 48 9.637c-10.838 0-20.634 4.525-27.618 11.776-.025.022-.054.037-.08.061a2.017 2.017 0 0 0-.206.238C13.619 28.585 9.636 37.833 9.636 48c0 21.154 17.21 38.365 38.366 38.365 21.153 0 38.363-17.211 38.363-38.365 0-10.162-3.98-19.407-10.451-26.278z"/>
    </g>
</svg>
