<svg xmlns="http://www.w3.org/2000/svg" width="96" height="96" viewBox="0 0 96 96">
    <g fill="none" fill-rule="evenodd">
        <path fill="#028DA7" d="M0 96h96V0H0z"/>
        <g fill="#FFF">
            <path d="M59.033 77.621a1.177 1.177 0 0 1-1.176-1.176c0-.648.528-1.176 1.176-1.176.648 0 1.176.528 1.176 1.176 0 .65-.528 1.176-1.176 1.176m-22.61 0a1.177 1.177 0 0 1 0-2.352 1.177 1.177 0 0 1 0 2.352M79.87 42.082h-7.37a2 2 0 0 0-1.94 1.508l-2.023 7.976H23.166a2 2 0 0 0 0 4h44.357l-1.042 4.11H26.312a2 2 0 0 0 0 4h39.155l-1.048 4.131H29.594a2 2 0 1 0 0 4h4.577c-1.724.84-2.925 2.595-2.925 4.638a5.182 5.182 0 0 0 5.176 5.176 5.182 5.182 0 0 0 5.175-5.176c0-2.043-1.2-3.798-2.924-4.638h18.11c-1.725.84-2.926 2.595-2.926 4.638a5.182 5.182 0 0 0 5.176 5.176 5.182 5.182 0 0 0 5.176-5.176c0-2.043-1.2-3.798-2.925-4.638h4.69c.915 0 1.714-.622 1.94-1.508l1.945-7.674c.155-.284.25-.604.25-.949l-.002-.026 3.95-15.568h5.814a2 2 0 0 0 0-4"/>
            <path d="M28.591 29.276a26.315 26.315 0 0 0 4.567 2.906c-.919 2.358-1.576 4.977-1.75 7.808h-7.123a19.162 19.162 0 0 1 4.306-10.714zm10.225-6.452c-1.45 1.72-3.09 3.984-4.464 6.694a22.023 22.023 0 0 1-3.685-2.376 19.216 19.216 0 0 1 8.15-4.318zm3.153 8.839a18.729 18.729 0 0 1-4.814-.964c1.516-2.92 3.358-5.28 4.814-6.89v7.854zm0 8.327h-7.538c.17-2.376.727-4.6 1.514-6.623a22.088 22.088 0 0 0 6.024 1.245v5.378zm3-5.394a22.405 22.405 0 0 0 5.968-1.336 22.764 22.764 0 0 1 1.554 6.73H44.97v-5.394zm0-10.77c1.424 1.579 3.212 3.87 4.705 6.698-1.64.587-3.21.926-4.705 1.076v-7.773zm11.177 3.205a28.278 28.278 0 0 1-3.682 2.275c-1.353-2.62-2.948-4.811-4.362-6.487a19.19 19.19 0 0 1 8.044 4.212zm6.505 12.959h-7.137c-.178-2.887-.856-5.554-1.803-7.948a31.623 31.623 0 0 0 4.562-2.85 19.17 19.17 0 0 1 4.378 10.798zm-37.179 8.3a19.115 19.115 0 0 1-1.187-5.3h7.13c.114 1.783.426 3.55.941 5.3h3.152a21.57 21.57 0 0 1-1.087-5.3h7.548v5.354c.966-.06 1.967-.053 3 .03V42.99h7.532a21.526 21.526 0 0 1-1.088 5.3h3.153c.515-1.75.826-3.517.941-5.3h7.144a19.08 19.08 0 0 1-1.188 5.3h4.247a23.19 23.19 0 0 0 1.017-6.8c0-12.824-10.434-23.257-23.258-23.257-12.825 0-23.26 10.433-23.26 23.257 0 2.366.357 4.649 1.017 6.8h4.246z"/>
        </g>
    </g>
</svg>
