<svg xmlns="http://www.w3.org/2000/svg" width="96" height="96" viewBox="0 0 96 96">
    <g fill="none" fill-rule="evenodd">
        <path fill="#2B427E" d="M0 96h96V0H0z"/>
        <path fill="#FFF" d="M80.4 77.852H15.6c-1.104 0-2-.897-2-2V50.45c.167.055.33.123.503.16.416.093 10.013 2.165 25.824 2.868v1.505c0 .856.541 1.58 1.298 1.866v3.642c0 1.295.798 2.626 1.942 3.235.291.155 1.891.929 4.83.929 2.938 0 4.542-.774 4.836-.93 1.142-.61 1.941-1.94 1.941-3.234v-3.642a1.995 1.995 0 0 0 1.298-1.866v-1.508c15.801-.704 25.41-2.774 25.824-2.865.173-.038.336-.106.504-.161v25.403c0 1.103-.898 2-2 2zm-35.175-20.87h5.55v3.278c-.394.137-1.325.395-2.779.395-1.47 0-2.404-.264-2.77-.392v-3.28zm-1.298-4v-3.857c0-1.061.614-1.738 1.035-1.738h6.073c.423 0 1.037.677 1.037 1.738v3.858h-8.145zM80.4 26.597c1.102 0 2 .897 2 2v16.418c0 .715-.66 1.535-1.358 1.688-.099.022-9.629 2.069-24.97 2.768v-.345c0-3.164-2.26-5.738-5.037-5.738h-6.073c-2.776 0-5.035 2.574-5.035 5.738v.347c-15.35-.697-24.868-2.746-24.966-2.767-.699-.154-1.36-.976-1.36-1.691V28.577a2 2 0 0 1 1.998-1.981H80.4zm-43.632-4h22.465v-4.447H36.768v4.447zm44.632 0H63.233v-4.577a1.995 1.995 0 0 0-.69-3.87H33.46a2 2 0 0 0-2 2c0 .86.546 1.588 1.31 1.87v4.577H14.6c-2.757 0-5 2.243-5 5v.962l-.002.038v47.256c0 3.309 2.692 6 6 6H80.4c3.31 0 6-2.691 6-6V27.596c0-2.757-2.243-5-5-5z"/>
    </g>
</svg>
