<svg xmlns="http://www.w3.org/2000/svg" width="96" height="96" viewBox="0 0 96 96">
    <g fill="none" fill-rule="evenodd">
        <path fill="#39B54A" d="M0 96h96V0H0z"/>
        <path fill="#FFF" d="M74.49 74.686H22.011l-1.979-7.596h50.834a2 2 0 0 0 0-4H18.99l-1.97-7.562h56.534a2 2 0 0 0 0-4H15.976l-1.97-7.563h68.277l-7.794 30.72zm12.843-34.722H63.335L54.178 18.53a1.999 1.999 0 1 0-3.677 1.571l8.485 19.863h-21.05l8.484-19.863a2 2 0 1 0-3.679-1.572l-9.156 21.436H8.666a2 2 0 0 0 0 4h1.205l8.66 33.225a2 2 0 0 0 1.936 1.496h55.578c.915 0 1.714-.622 1.938-1.509l8.426-33.213h.924a2 2 0 0 0 0-4z"/>
    </g>
</svg>
