<svg xmlns="http://www.w3.org/2000/svg" width="96" height="96" viewBox="0 0 96 96">
    <g fill="none" fill-rule="evenodd">
        <path fill="#FBB03B" d="M4 96h87.999a4 4 0 0 0 4-4V4a4 4 0 0 0-4-4H4a4 4 0 0 0-4 4v88a4 4 0 0 0 4 4z"/>
        <g fill="#FFF">
            <path d="M85.166 72.616c-3.718-1.277-10.653-3.27-17.75-3.27-7.056 0-13.835 1.968-17.5 3.25V22.834c2.712-1.059 9.784-3.49 17.561-3.49 7.761 0 14.94 2.44 17.689 3.498v49.774zm-74.5 0V22.841c2.742-1.06 9.903-3.497 17.689-3.497 7.751 0 14.843 2.433 17.561 3.492v49.76c-3.665-1.282-10.444-3.25-17.499-3.25-7.097 0-14.033 1.993-17.751 3.27zm77.319-52.943c-.393-.177-9.764-4.329-20.508-4.329-9.067 0-17.044 2.948-19.561 3.98-2.517-1.032-10.494-3.98-19.561-3.98-10.744 0-20.115 4.152-20.508 4.33a1.999 1.999 0 0 0-1.181 1.823V75.5a1.997 1.997 0 0 0 2 2c.264 0 .529-.053.78-.158.094-.04 9.549-3.996 18.971-3.996 9.383 0 18.611 3.95 18.703 3.99.026.01.053.012.079.022.076.03.153.047.231.068.081.02.161.041.244.05.081.011.161.01.243.01.081 0 .161.001.242-.01.082-.009.162-.03.243-.05.078-.02.156-.039.232-.069.026-.009.053-.01.078-.022.092-.04 9.32-3.989 18.704-3.989 9.394 0 18.877 3.956 18.972 3.996a2.003 2.003 0 0 0 1.883-.176c.559-.37.895-.996.895-1.666V21.497c0-.787-.462-1.502-1.181-1.824z"/>
            <path d="M16.75 34.439c.274 0 .552-.057.818-.176.051-.023 5.115-2.268 10.761-2.268 5.557 0 10.542 2.204 10.675 2.264a2 2 0 0 0 1.658-3.641c-.235-.107-5.834-2.623-12.333-2.623-6.494 0-12.161 2.512-12.399 2.619a2 2 0 0 0 .82 3.825M40.63 42.026c-.245-.106-6.077-2.608-12.265-2.608-6.178 0-12.144 2.494-12.395 2.6a1.999 1.999 0 0 0 1.557 3.685c.054-.023 5.489-2.285 10.838-2.285 5.338 0 10.62 2.255 10.67 2.277a2.001 2.001 0 0 0 1.594-3.669M40.63 53.447c-.246-.106-6.077-2.607-12.265-2.607-6.178 0-12.144 2.494-12.395 2.6a2 2 0 0 0 1.557 3.685c.054-.024 5.489-2.285 10.838-2.285 5.338 0 10.62 2.254 10.67 2.277a2.001 2.001 0 0 0 1.594-3.67M54.175 33.255a2 2 0 0 0 2.642 1.009c.05-.023 5.15-2.27 10.763-2.27 5.605 0 10.627 2.243 10.678 2.266a2 2 0 0 0 1.655-3.642c-.235-.107-5.835-2.623-12.333-2.623-6.494 0-12.162 2.512-12.4 2.619a1.999 1.999 0 0 0-1.005 2.64M79.88 42.026c-.244-.106-6.076-2.608-12.265-2.608-6.178 0-12.144 2.494-12.395 2.6a1.999 1.999 0 0 0 1.556 3.685c.055-.023 5.49-2.285 10.839-2.285 5.338 0 10.62 2.255 10.672 2.277a1.999 1.999 0 0 0 2.631-1.038 2 2 0 0 0-1.037-2.631M79.88 53.447c-.244-.106-6.076-2.607-12.265-2.607-6.178 0-12.144 2.494-12.395 2.6a2 2 0 0 0 1.556 3.685c.055-.024 5.49-2.285 10.839-2.285 5.338 0 10.62 2.254 10.672 2.277a2.004 2.004 0 0 0 2.632-1.038 2.002 2.002 0 0 0-1.038-2.632"/>
        </g>
    </g>
</svg>
