<svg xmlns="http://www.w3.org/2000/svg" width="96" height="96" viewBox="0 0 96 96">
    <g fill="none" fill-rule="evenodd">
        <path fill="#8CC63F" d="M0 96h96V0H0z"/>
        <g fill="#FFF">
            <path d="M48.1 66.842a6.369 6.369 0 0 1-6.361-6.361 6.37 6.37 0 0 1 6.362-6.362 6.368 6.368 0 0 1 6.36 6.362 6.368 6.368 0 0 1-6.36 6.36m18.79-7.478c-.415-9.981-8.641-17.977-18.722-17.977-10.346 0-18.764 8.416-18.764 18.762S37.823 78.91 48.169 78.91c3.314 0 6.572-.875 9.42-2.531a2 2 0 0 0-2.01-3.46 14.759 14.759 0 0 1-7.41 1.99c-8.141 0-14.764-6.622-14.764-14.762s6.623-14.762 14.764-14.762c8.098 0 14.688 6.554 14.756 14.635-.068 5.127-2.071 6.87-2.995 6.87-.68 0-1.4-1.04-1.4-2.967V52.119a2 2 0 0 0-4 0v.252a10.306 10.306 0 0 0-6.43-2.252c-5.713 0-10.361 4.649-10.361 10.362S42.387 70.84 48.1 70.84c2.829 0 5.396-1.142 7.268-2.986.169.342.362.668.583.964.983 1.317 2.433 2.072 3.978 2.072 3.287 0 6.81-3.323 6.985-10.578.005-.055.017-.11.017-.165 0-.05-.007-.097-.008-.146 0-.083.008-.16.008-.245a2.04 2.04 0 0 0-.04-.394"/>
            <path d="M69.555 29.768c-4.47-1.71-14.868-2.896-21.431-2.896h-.04c-6.557.004-16.986 1.207-21.467 2.925-2.874 1.103-3.411 5.12-3.47 7.484-.044.453-.028.889.053 1.313l.383 1.91a3.951 3.951 0 0 0 4.622 3.118l8.847-1.72a3.912 3.912 0 0 0 2.514-1.665c.59-.873.803-1.923.6-2.956-.21-1.085-1.24-1.826-2.321-1.616a1.95 1.95 0 0 0-1.558 2.31l-8.78 1.754-.381-1.898c0-.001-.01-.06.006-.18.008-.067.012-.133.013-.2.04-2.067.57-3.684.904-3.92 3.619-1.387 13.17-2.655 20.039-2.66h.04c6.869 0 16.39 1.253 19.97 2.62.353.24.889 1.782.94 3.936 0 .066.006.132.014.198.013.103.008.155.008.155v-.001l-.316 1.886-8.796-1.678a2 2 0 0 0-3.935-.718 3.923 3.923 0 0 0 .606 2.959 3.911 3.911 0 0 0 2.517 1.657l8.848 1.708a3.943 3.943 0 0 0 4.618-3.112l.382-1.925a4.46 4.46 0 0 0 .05-1.314c-.067-2.365-.617-6.383-3.48-7.474"/>
            <path d="M78.86 60.297a101.406 101.406 0 0 1-9.073 19.977c-14.427 3.278-29.73 3.183-43.462.01a98.252 98.252 0 0 1-9.012-19.874c-2.327-7.208-3.822-14.423-4.447-21.46A97.994 97.994 0 0 1 28.99 24.225c5.813-4.236 12.215-7.853 19.04-10.761 6.758 2.899 13.136 6.506 18.963 10.727A97.286 97.286 0 0 1 83.13 38.96c-.699 7.653-2.098 14.644-4.27 21.337m7.855-23.304a101.133 101.133 0 0 0-17.372-16.04C63.043 16.39 56.133 12.52 48.806 9.448a2.005 2.005 0 0 0-1.542-.001c-7.404 3.08-14.344 6.966-20.627 11.543A101.993 101.993 0 0 0 9.29 36.969a2.09 2.09 0 0 0-.477 1.497c.604 7.599 2.184 15.395 4.695 23.176a102.343 102.343 0 0 0 9.833 21.442c.29.479.784.808 1.328.92 7.484 1.794 15.368 2.704 23.433 2.704 7.873 0 15.754-.92 23.425-2.731a2.004 2.004 0 0 0 1.252-.912 105.381 105.381 0 0 0 9.883-21.526c2.347-7.234 3.828-14.78 4.526-23.063a1.995 1.995 0 0 0-.473-1.483"/>
        </g>
    </g>
</svg>
