<svg xmlns="http://www.w3.org/2000/svg" width="96" height="96" viewBox="0 0 96 96">
    <g fill="none" fill-rule="evenodd">
        <path fill="#2E3192" d="M0 96h95.999V0H0z"/>
        <g fill="#FFF">
            <path d="M62.278 88.727c-9.52 0-22.179-.877-22.179-8.462 0-.596.591-7.45.842-8.763.306-1.6 1.506-3.057 3.47-4.216.713-.423 3.44-1.681 8.1-3.736a2 2 0 0 1 1.614 3.66c-5.016 2.212-7.256 3.268-7.678 3.519-1.002.59-1.514 1.19-1.578 1.524-.188.988-.75 7.392-.77 8.036 0 2.133 4.776 4.438 18.18 4.438 11.77 0 15.825-1.615 17.156-2.971.396-.402.575-.82.578-1.344-.056-.673-.485-5.778-.793-8.337-.085-.16-.42-.664-1.443-1.188-1.52-.778-5.609-2.68-7.912-3.745a2 2 0 1 1 1.68-3.631c2.844 1.317 6.552 3.046 8.054 3.816 3.02 1.546 3.493 3.596 3.557 3.992.351 2.805.83 8.592.85 8.836.004.043.005.086.006.129.03 1.619-.566 3.097-1.723 4.275-2.83 2.883-9.002 4.168-20.01 4.168"/>
            <path d="M61.018 61.466c.07.026.27.084.636.084.076 0 .155-.002.238-.007.094-.007.187-.005.279.002.462 0 .867-.09 1.09-.227.7-.437 2.672-2.594 3.003-3.217.06-.118.123-.235.188-.354.338-.618.72-1.318.85-4.496.033-.79.095-1.6.156-2.41.22-2.877.449-5.854-.903-6.98-2.01-1.673-4.704-1.694-4.731-1.694-1.516.006-4.077.453-4.783 1.392l-.101.136c-1.35 1.799-1.853 2.473-.94 9.266.183 2.077.594 4.257.89 4.759.77 1.117 2.065 2.656 3.805 3.54.114.059.222.128.323.206m.637 4.084h-.001c-1.524 0-2.463-.47-2.947-.814-1.903-1.011-3.671-2.656-5.124-4.767-1.023-1.495-1.43-5.092-1.556-6.57-1.03-7.631-.388-9.3 1.71-12.102l.103-.136c2.139-2.85 7.017-2.994 7.973-2.994.434 0 4.243.074 7.302 2.62 2.938 2.447 2.616 6.65 2.332 10.36-.058.762-.118 1.525-.148 2.268-.155 3.803-.697 5.08-1.337 6.25l-.135.252c-.648 1.275-3.186 4.008-4.452 4.796-1.303.813-2.835.844-3.358.829a7.534 7.534 0 0 1-.362.008"/>
            <path d="M86.056 66.75h-3.223a2 2 0 0 1 0-4h1.223V12.8H11.943v49.95h27.724a2 2 0 1 1 0 4H9.943a2 2 0 0 1-2-2V10.8a2 2 0 0 1 2-2h76.113a2 2 0 0 1 2 2v53.95a2 2 0 0 1-2 2"/>
        </g>
    </g>
</svg>
