<svg xmlns="http://www.w3.org/2000/svg" width="96" height="96" viewBox="0 0 96 96">
    <g fill="none" fill-rule="evenodd">
        <path fill="#F69321" d="M0 96h96V0H0z"/>
        <g fill="#FEFEFE">
            <path d="M80.914 87.582H22.946a2 2 0 0 1 0-4h55.968V43.518c0-17.045-13.868-30.913-30.915-30.913-17.046 0-30.913 13.868-30.913 30.913v42.064a2 2 0 0 1-4 0V43.518C13.086 24.267 28.748 8.605 48 8.605c19.252 0 34.915 15.662 34.915 34.913v42.064a2 2 0 0 1-2 2"/>
            <path d="M38.42 68.168h19.159V55.367c0-5.282-4.298-9.58-9.58-9.58s-9.58 4.298-9.58 9.58v12.801zm21.159 4h-23.16a2 2 0 0 1-2-2V55.367c0-7.488 6.093-13.58 13.58-13.58 7.488 0 13.58 6.092 13.58 13.58v14.801a2 2 0 0 1-2 2z"/>
        </g>
    </g>
</svg>
