<svg xmlns="http://www.w3.org/2000/svg" xmlns:xlink="http://www.w3.org/1999/xlink" width="96" height="96" viewBox="0 0 96 96">
    <defs>
        <path id="a" d="M0 96h96V0H0z"/>
    </defs>
    <g fill="none" fill-rule="evenodd">
        <path fill="#0159CC" d="M0 96h96V0H0z"/>
        <path fill="#FFF" d="M74 52.88a2.743 2.743 0 0 0-2.74 2.74A2.743 2.743 0 0 0 74 58.36a2.743 2.743 0 0 0 2.74-2.74A2.743 2.743 0 0 0 74 52.88M74.002 45.685h-.004a10.524 10.524 0 0 0-7.49 3.104 2 2 0 1 0 2.828 2.828 6.56 6.56 0 0 1 4.663-1.933h.003c1.76 0 3.415.686 4.66 1.931a2 2 0 1 0 2.828-2.828 10.516 10.516 0 0 0-7.488-3.102"/>
        <path fill="#FFF" d="M85.908 43.449a16.724 16.724 0 0 0-11.9-4.928h-.01a16.74 16.74 0 0 0-11.906 4.936 1.999 1.999 0 1 0 2.828 2.829A12.764 12.764 0 0 1 74 42.52h.006a12.75 12.75 0 0 1 9.074 3.757 2 2 0 0 0 2.828-2.83M35.385 46.788h-.81a2 2 0 0 0 0 4h.81a2 2 0 0 0 0-4M43.818 46.788h-.809a2 2 0 0 0 0 4h.81a2 2 0 0 0 0-4M35.385 52.852h-.81a2 2 0 0 0 0 4h.81a2 2 0 1 0 0-4M43.818 52.852h-.809a2 2 0 0 0 0 4h.81a2 2 0 0 0 0-4M35.385 58.92h-.81a2 2 0 0 0 0 4h.81a2 2 0 0 0 0-4M43.818 58.92h-.809a2 2 0 0 0 0 4h.81a2 2 0 0 0 0-4M47.594 42.308a2 2 0 0 0-2-2H32.8a2 2 0 0 0 0 4h12.794a2 2 0 0 0 2-2"/>
        <mask id="b" fill="#fff">
            <use xlink:href="#a"/>
        </mask>
        <path fill="#FFF" d="M18 29.969h33.821V18.5H18v11.469zm56 32.12a2 2 0 0 0-2 2V69.5H24V33.969h29.821a2 2 0 0 0 2-2V16.5a2 2 0 0 0-2-2H16a2 2 0 0 0-2 2v15.469a2 2 0 0 0 2 2h4V71.5a2 2 0 0 0 2 2h52a2 2 0 0 0 2-2v-7.411a2 2 0 0 0-2-2z" mask="url(#b)"/>
        <path fill="#FFF" d="M61.833 28.234H72v4.921a2 2 0 0 0 4 0v-6.92a2 2 0 0 0-2-2H61.833a2 2 0 0 0 0 4M74 78.51H22.189a2 2 0 0 0 0 4H74a2 2 0 1 0 0-4" mask="url(#b)"/>
    </g>
</svg>
