<svg xmlns="http://www.w3.org/2000/svg" width="96" height="96" viewBox="0 0 96 96">
    <g fill="none" fill-rule="evenodd">
        <path fill="#EE6A34" d="M4 96h88a4 4 0 0 0 4-4V4a4 4 0 0 0-4-4H4a4 4 0 0 0-4 4v88a4 4 0 0 0 4 4z"/>
        <g fill="#FFF">
            <path d="M74.856 79.812H16.97a2 2 0 0 1-2-2V21.019a2 2 0 0 1 2-2h57.886a2 2 0 0 1 2 2v7.907a2 2 0 0 1-4 0v-5.907H18.97v52.793h53.886V50.417a2 2 0 0 1 4 0v27.395a2 2 0 0 1-2 2"/>
            <path d="M47.05 66.976c-.026 0-.053 0-.08-.002a2.001 2.001 0 0 1-1.391-.643L31.404 50.922l-2.335 2.71a2 2 0 1 1-3.03-2.612l3.802-4.41a2 2 0 0 1 1.482-.694 1.93 1.93 0 0 1 1.504.646l14.339 15.585 38.36-35.44a1.999 1.999 0 1 1 2.714 2.937L48.408 66.444a2 2 0 0 1-1.357.531"/>
        </g>
    </g>
</svg>
