<svg xmlns="http://www.w3.org/2000/svg" width="96" height="96" viewBox="0 0 96 96">
    <g fill="none" fill-rule="evenodd">
        <path fill="#8CC63F" d="M0 96h96V0H0z"/>
        <path fill="#FFF" d="M21.855 85.059h52.291v-2.105H21.855v2.105zm2.515-35.86h11.803c1.654 0 3-1.345 3-2.999V10.941h17.651V46.2a3.003 3.003 0 0 0 3 2.999h11.807l-23.632 25.81-23.629-25.81zm51.776 29.754H49.733c.148-.11.29-.23.416-.369l26.825-29.297c.725-.793.926-1.794.537-2.677s-1.263-1.41-2.338-1.41H60.824V9.941c0-1.654-1.345-3-3-3H38.173c-1.654 0-3 1.346-3 3V45.2H20.827c-1.075 0-1.95.527-2.338 1.411-.389.883-.188 1.884.538 2.677L45.85 78.585c.126.138.267.258.415.368h-26.41a2 2 0 0 0-2 2v6.106a2 2 0 0 0 2 2h56.291a2 2 0 0 0 2-2v-6.106a2 2 0 0 0-2-2z"/>
    </g>
</svg>
