<svg xmlns="http://www.w3.org/2000/svg" width="96" height="96" viewBox="0 0 96 96">
    <g fill="none" fill-rule="evenodd">
        <path fill="#CF2C67" d="M0 96h96V0H0z"/>
        <g fill="#FFF">
            <path d="M73.9 12.58H22.1a2 2 0 0 0-2 2v64.895a2 2 0 0 0 2 2h20.267a2 2 0 0 0 0-4H24.1V16.58h47.8v60.896h-1.283a2 2 0 0 0 0 4H73.9a2 2 0 0 0 2-2V14.58a2 2 0 0 0-2-2"/>
            <path d="M56.608 77.347a6.19 6.19 0 0 1-6.183-6.182 6.19 6.19 0 0 1 6.183-6.183 6.19 6.19 0 0 1 6.183 6.183 6.19 6.19 0 0 1-6.183 6.182m10.183-6.182c0-5.615-4.569-10.183-10.183-10.183S46.425 65.55 46.425 71.165c0 3.574 1.855 6.716 4.647 8.534l-1.995 4.978a2 2 0 1 0 3.713 1.488l2-4.99c.591.108 1.197.172 1.818.172.592 0 1.17-.061 1.733-.16l1.992 4.977a1.998 1.998 0 0 0 2.6 1.114 1.998 1.998 0 0 0 1.112-2.6l-1.974-4.935c2.833-1.81 4.72-4.974 4.72-8.578M65.75 23.023h-35.5a2 2 0 0 0 0 4h35.5a2 2 0 1 0 0-4M30.25 37h31.875a2 2 0 0 0 0-4H30.25a2 2 0 0 0 0 4M65.75 42.977h-35.5a2 2 0 0 0 0 4h35.5a2 2 0 1 0 0-4M44.334 52.955H30.25a2 2 0 0 0 0 4h14.084a2 2 0 1 0 0-4"/>
        </g>
    </g>
</svg>
