<svg xmlns="http://www.w3.org/2000/svg" width="96" height="96" viewBox="0 0 96 96">
    <g fill="none" fill-rule="evenodd">
        <path fill="#607C8A" d="M0 96h96V0H0z"/>
        <g fill="#FFF">
            <path d="M13.477 49.154s-.117.162.116.396l16.108 16.106a7718.87 7718.87 0 0 1 10.91-10.85c5.098-5.064 10.415-10.346 12.974-12.904.078-.079.133-.143.173-.192a3.219 3.219 0 0 0-.389-.452l-4.588-4.589a7.417 7.417 0 0 0-.2-.192 5.695 5.695 0 0 0-.217.206 25488.547 25488.547 0 0 1-17.281 17.25 1.998 1.998 0 0 1-1.412.583h-.014a2 2 0 0 1-1.419-.604c-.06-.062-6.037-6.195-9.243-9.403a2.344 2.344 0 0 0-.42-.348c-.093.052-.283.178-.576.47l-4.521 4.523zm16.24 20.825c-1.211 0-2.105-.756-2.674-1.324L10.767 52.38c-1.701-1.7-1.754-4.415-.118-6.053l4.52-4.523c2.212-2.214 4.537-2.237 6.653-.122 2.26 2.261 5.883 5.96 7.868 7.992 3.462-3.455 12.268-12.24 15.846-15.818.664-.664 1.706-1.548 3.076-1.548 1.465 0 2.462.997 2.996 1.534l4.59 4.588c2.834 2.835 1.35 5.164.215 6.301-2.56 2.56-7.881 7.846-12.982 12.914A7381.323 7381.323 0 0 0 32.244 68.77c-.298.298-1.207 1.21-2.527 1.21zM59.585 69.98c-1.212 0-2.107-.756-2.675-1.325l-8.949-8.948 2.828-2.829 8.779 8.778c2.123-2.12 6.431-6.4 10.909-10.849 5.097-5.064 10.416-10.348 12.974-12.905.078-.079.135-.143.175-.193a3.382 3.382 0 0 0-.39-.452l-4.589-4.589a9.297 9.297 0 0 0-.198-.19 5.631 5.631 0 0 0-.218.205c-4.5 4.503-17.281 17.25-17.281 17.25a1.92 1.92 0 0 1-1.445.583 1.999 1.999 0 0 1-1.425-.63l-2.104-2.242a2.001 2.001 0 0 1 2.916-2.738l.693.738c3.481-3.473 12.25-12.22 15.818-15.789 3.045-3.046 5.324-.765 6.073-.015l4.588 4.59c2.835 2.834 1.352 5.163.215 6.3-2.56 2.56-7.882 7.847-12.983 12.915A7380.584 7380.584 0 0 0 62.11 68.77c-.296.299-1.206 1.21-2.524 1.21h-.001z"/>
        </g>
    </g>
</svg>
