<svg xmlns="http://www.w3.org/2000/svg" width="96" height="96" viewBox="0 0 96 96">
    <g fill="none" fill-rule="evenodd">
        <path fill="#662D91" d="M4 96h88a4 4 0 0 0 4-4V4a4 4 0 0 0-4-4H4a4 4 0 0 0-4 4v88a4 4 0 0 0 4 4z"/>
        <g fill="#FFF">
            <path d="M80.378 54.36V35.29c4.546.796 8.015 4.764 8.015 9.535 0 4.77-3.47 8.736-8.015 9.534M7.608 40.03c0-4.689 3.348-8.61 7.778-9.5v18.998c-4.43-.89-7.778-4.81-7.778-9.498m84.785 4.795c0-6.98-5.255-12.747-12.015-13.578V9.553a2 2 0 0 0-2-2H26.06a2 2 0 0 0 0 4h50.317v19.58h-5.193V18.47a2 2 0 0 0-2-2h-51.8a2 2 0 0 0-2 2v8.02C8.742 27.422 3.609 33.13 3.609 40.03c0 6.898 5.133 12.604 11.778 13.54v29.796a2 2 0 0 0 2 2h20.266a2 2 0 0 0 0-4H19.386V53.72h30.966l-3.355 3.356a2 2 0 1 0 2.828 2.828l6.82-6.82a2 2 0 0 0 0-2.829l-6.82-6.82a2 2 0 1 0-2.828 2.828l3.456 3.457H19.386V20.47h47.799v10.664H35.648l3.355-3.355a2 2 0 1 0-2.828-2.828l-6.82 6.82a1.998 1.998 0 0 0 0 2.828l6.82 6.82c.39.391.902.586 1.414.586a2 2 0 0 0 1.414-3.414l-3.456-3.457h31.638v46.233h-1.283a2 2 0 0 0 0 4h3.283a2 2 0 0 0 2-2V35.133h5.193V76.33a2 2 0 0 0 4 0V58.401c6.76-.83 12.015-6.596 12.015-13.576"/>
            <path d="M51.894 81.237a6.19 6.19 0 0 1-6.183-6.182 6.19 6.19 0 0 1 6.183-6.183 6.19 6.19 0 0 1 6.183 6.183 6.19 6.19 0 0 1-6.183 6.182m10.183-6.182c0-5.615-4.57-10.183-10.183-10.183-5.615 0-10.183 4.568-10.183 10.183 0 3.574 1.854 6.716 4.647 8.534l-1.995 4.978a2 2 0 1 0 3.713 1.488l2-4.99c.59.108 1.197.172 1.818.172a10.2 10.2 0 0 0 1.733-.159l1.992 4.976a1.998 1.998 0 0 0 2.599 1.114 1.998 1.998 0 0 0 1.113-2.6l-1.974-4.935c2.833-1.81 4.72-4.974 4.72-8.578"/>
        </g>
    </g>
</svg>
