<svg xmlns="http://www.w3.org/2000/svg" xmlns:xlink="http://www.w3.org/1999/xlink" width="96" height="96" viewBox="0 0 96 96">
    <defs>
        <path id="a" d="M3.657.273a2.021 2.021 0 0 0-1.79 1.509l-.629 2.512C-.207 8.607.497 10.76.963 12.186c.093.282.196.6.196.72 0 1.995.528 3.718 1.95 6.358.896 1.665 1.57 7.848 1.932 11.17.09.821.172 1.578.249 2.226.275 2.299 1.293 4.481 3.034 6.505a2.788 2.788 0 0 0-.098.063c-1.553.978-2.58 1.625-2.58 2.955v1.611c-.236.233-.551.519-.718.67-.209.191-.388.355-.506.473-1.039 1.049-1.12 2.428-.575 9.836.555 7.551 12.033 14.385 15.578 15.174.295.064.597.098.898.098 2.598 0 4.462-2.347 5.959-4.232.47-.592 1.18-1.488 1.39-1.63 1.037-.384 2.521-1.578 3.875-2.814.531 4.549 1.126 5.346 2.763 5.346.689 0 1.571-.371 1.979-1.412a42.694 42.694 0 0 1 1.38-3.168c1.052 2.582 2.734 6.012 4.919 8.201 4.341 4.337 12.115 4.607 12.223 4.607h.08c2.382 0 6.938-1.394 10.672-10.736 2.478-6.193 1.312-9.931.053-12.001a13.78 13.78 0 0 0 2.498-2.33c1.617-1.972 2.278-4 1.906-5.864-.473-2.362 2.212-8.403 4.955-11.145 3.773-3.771 4.147-12.66 4.147-12.746 0-1.474-1.751-3.614-4.495-3.614-18.284 0-24.136 4.797-31.545 10.87-.474.389-.956.783-1.446 1.182-1.036-2.654-2.138-2.792-2.736-2.866a3.099 3.099 0 0 0-.304-.018c-.389 0-1.233 0-2.732 1.378-1.678-5.339-7.094-10.696-13.329-16.863a621.937 621.937 0 0 1-2.606-2.586C13.112.787 6.149.258 4.177.258c-.339 0-.52.015-.52.015zm4.179 54.208c-.277-3.78-.374-6.126-.288-6.991l.074-.068c1.219-1.11 2.024-1.844 2.024-2.972v-1.384c.231-.152.5-.321.713-.454 1.644-1.038 2.731-1.722 2.876-3.002a2.13 2.13 0 0 0-.61-1.753l-.227-.218c-.693-.649-2.799-2.626-3.136-5.454A196.86 196.86 0 0 1 9.018 30c-.614-5.624-1.217-10.457-2.388-12.632-1.23-2.286-1.47-3.367-1.47-4.462 0-.758-.21-1.397-.396-1.963-.358-1.097-.764-2.339.289-5.444.017-.051.034-.104.046-.157l.253-1.011c2.266.257 7.02 1.373 11.749 6.101.884.884 1.76 1.751 2.621 2.602 6.055 5.989 11.284 11.16 12.447 15.635.387 1.502 1.293 2.983 1.395 3.147.348.56.95.912 1.609.941a1.976 1.976 0 0 0 1.686-.793c.376-.499.815-1.018 1.214-1.448.19.574.381 1.255.522 1.888a2.002 2.002 0 0 0 3.173 1.154c1.38-1.061 2.635-2.091 3.85-3.086 7.057-5.786 12.155-9.964 29.009-9.964.218 0 .365.048.463.106-.183 2.33-1.046 7.528-2.942 9.425-3.399 3.396-6.856 10.737-6.051 14.756.313 1.57-2.428 4.197-3.539 4.601a2.095 2.095 0 0 0-1.825 1.229c-.56 1.252.28 2.188.638 2.588.81.903 2.961 3.305.479 9.508-2.424 6.064-5.184 8.224-6.959 8.223h-.104c-.992-.017-6.611-.681-9.371-3.437-3.082-3.086-5.146-9.936-5.166-10.006a2.006 2.006 0 0 0-1.917-1.431c-.414 0-.824.129-1.168.377l-1.129.813a1.98 1.98 0 0 0-.449.446c-.037.05-.152.213-.333.504-.046-.471-.089-.941-.127-1.393a2 2 0 0 0-3.45-1.202c-2.15 2.285-4.669 4.535-5.391 4.816-1.185.437-2.09 1.576-3.136 2.894-.701.882-2.158 2.717-2.856 2.717h-.002C17.904 65.51 8.205 59.51 7.836 54.481z"/>
    </defs>
    <g fill="none" fill-rule="evenodd">
        <path fill="#008BCF" d="M0 96h96V0H0z"/>
        <path fill="#FFF" d="M48.333 68.07a2.001 2.001 0 0 1 1.917 1.431c.02.07 2.084 6.92 5.166 10.007 2.76 2.755 8.379 3.42 9.371 3.435h.103c1.775.001 4.535-2.159 6.96-8.222 2.482-6.204.33-8.605-.478-9.508-.36-.4-1.2-1.336-.64-2.588a2.097 2.097 0 0 1 1.826-1.23c1.11-.403 3.852-3.03 3.538-4.6-.803-4.02 2.653-11.36 6.051-14.756 1.896-1.897 2.76-7.095 2.942-9.425a.89.89 0 0 0-.463-.107c-16.854 0-21.952 4.18-29.008 9.964-1.215.995-2.47 2.025-3.85 3.086a1.996 1.996 0 0 1-1.904.295 2.004 2.004 0 0 1-1.27-1.448 19.72 19.72 0 0 0-.522-1.888c-.398.43-.838.95-1.214 1.447a1.973 1.973 0 0 1-1.685.794 2.003 2.003 0 0 1-1.61-.94c-.102-.165-1.008-1.646-1.395-3.149-1.163-4.474-6.392-9.646-12.447-15.634-.86-.85-1.736-1.718-2.62-2.602-4.729-4.728-9.483-5.845-11.748-6.1l-.253 1.01a1.93 1.93 0 0 1-.046.157c-1.055 3.105-.648 4.347-.29 5.444.186.565.396 1.205.396 1.963 0 1.095.24 2.175 1.47 4.461 1.172 2.175 1.774 7.008 2.387 12.633.088.807.17 1.55.245 2.185.337 2.828 2.444 4.805 3.136 5.454.096.092.174.164.227.218.462.466.684 1.104.61 1.753-.145 1.28-1.232 1.964-2.877 3.001-.212.134-.48.303-.713.455v1.384c0 1.128-.805 1.861-2.023 2.972l-.075.067c-.085.865.011 3.212.29 6.991.369 5.03 10.067 11.03 12.456 11.562h.002c.697 0 2.154-1.835 2.855-2.717 1.047-1.318 1.95-2.457 3.136-2.895.721-.28 3.242-2.53 5.392-4.815a2 2 0 0 1 3.449 1.202c.038.452.081.922.127 1.394.18-.292.297-.455.333-.505.124-.172.276-.322.448-.447l1.13-.812a2 2 0 0 1 1.168-.377M64.89 86.943h-.08c-.108 0-7.883-.27-12.224-4.607-2.184-2.189-3.866-5.618-4.918-8.202-.39.8-.861 1.847-1.38 3.168-.409 1.041-1.29 1.413-1.979 1.413-1.638 0-2.232-.797-2.764-5.347-1.353 1.237-2.837 2.432-3.874 2.814-.21.143-.92 1.038-1.39 1.63-1.497 1.886-3.36 4.233-5.96 4.233a4.18 4.18 0 0 1-.898-.099c-3.544-.788-15.022-7.622-15.576-15.173-.546-7.409-.466-8.788.573-9.836.12-.118.299-.283.508-.473.166-.152.48-.438.716-.67v-1.61c0-1.33 1.027-1.978 2.582-2.957.03-.02.064-.04.096-.062-1.74-2.025-2.758-4.206-3.033-6.506-.077-.647-.16-1.403-.25-2.226-.361-3.32-1.035-9.505-1.931-11.17-1.421-2.639-1.95-4.362-1.95-6.357 0-.12-.104-.439-.197-.72-.466-1.427-1.17-3.579.277-7.892l.627-2.512a2.021 2.021 0 0 1 1.79-1.509s.182-.016.521-.016c1.971 0 8.936.53 15.752 7.347.879.878 1.75 1.74 2.606 2.586 6.235 6.167 11.652 11.523 13.33 16.862 1.497-1.378 2.341-1.378 2.73-1.378.084 0 .223.01.305.02.598.073 1.7.211 2.736 2.865.49-.399.971-.793 1.445-1.182 7.41-6.073 13.261-10.87 31.545-10.87 2.745 0 4.496 2.14 4.496 3.614 0 .086-.374 8.974-4.147 12.746-2.742 2.742-5.428 8.782-4.956 11.144.372 1.865-.288 3.892-1.906 5.865a13.771 13.771 0 0 1-2.496 2.33c1.257 2.07 2.423 5.808-.053 12.001-3.734 9.342-8.29 10.736-10.673 10.736"/>
        <g transform="translate(10 12)">
            <mask id="b" fill="#fff">
                <use xlink:href="#a"/>
            </mask>
            <path fill="#FFF" d="M-3.506 72.927h80.963V1.647H-3.506v71.28zm82.963 4H-5.506a2 2 0 0 1-2-2V-.354a2 2 0 0 1 2-2h84.963a2 2 0 0 1 2 2v75.281a2 2 0 0 1-2 2z" mask="url(#b)"/>
        </g>
    </g>
</svg>
