<svg xmlns="http://www.w3.org/2000/svg" xmlns:xlink="http://www.w3.org/1999/xlink" width="54" height="32" viewBox="0 0 54 32">
    <defs>
        <path id="a" d="M0 0h53.52v24.892H0z"/>
        <path id="c" d="M.823.765h3.095V5H.822z"/>
        <path id="e" d="M.252.765h3.146V5H.252z"/>
    </defs>
    <g fill="none" fill-rule="evenodd">
        <mask id="b" fill="#fff">
            <use xlink:href="#a"/>
        </mask>
        <path fill="#FEFEFE" d="M0 4.973v3.186h3.639v16.722h3.187V4.972H0zM11.799 24.88H8.485V3.315H3.639V0h8.16V24.88zm16.593-8.451c-.238 0-1.491-.008-1.724-.03-.391-.032-.959-.091-1.324-.175-.413-.112-.8-.257-.975-.353a3.923 3.923 0 1 1 5.788-3.574h3.164a7.085 7.085 0 0 0-7.083-6.963 7.091 7.091 0 0 0-7.092 7.09 7.076 7.076 0 0 0 3.888 6.317c.354.209 1.022.427 1.213.476.65.172 1.524.288 2.233.341.264.021 1.547.031 1.818.032v.005H53.52V16.43H28.392zm-1.912 5.148c-.985-.064-2.124-.235-3.02-.497a15.452 15.452 0 0 1-1.041-.383c-3.122-1.45-5.298-4.608-5.298-8.273 0-5.026 4.089-9.117 9.117-9.117 4.983 0 9.043 4.022 9.112 8.99h3.293C38.574 5.517 33.037.019 26.238.019c-6.842 0-12.408 5.567-12.408 12.407 0 4.72 2.651 8.822 6.536 10.92a14.87 14.87 0 0 0 2.049.857c1.109.331 2.465.55 3.676.641.411.032 1.844.047 2.264.05H53.52v-3.284H28.392c-.301 0-1.617-.01-1.912-.03z" mask="url(#b)"/>
        <path fill="#FEFEFE" d="M45.174 4.21a1.822 1.822 0 0 1-1.836-1.832c0-1.005.849-1.799 1.836-1.799.986 0 1.832.794 1.832 1.8a1.82 1.82 0 0 1-1.832 1.831m0-3.978c-1.194 0-2.183.952-2.183 2.146s.989 2.184 2.183 2.184c1.231 0 2.183-.99 2.183-2.184 0-1.195-.952-2.147-2.183-2.147"/>
        <path fill="#FEFEFE" d="M45.277 2.257h-.468v-.675h.4c.277 0 .467.087.467.347 0 .137-.069.328-.399.328m.728.71c0-.243-.034-.466-.312-.554.347-.121.381-.347.381-.484 0-.556-.503-.625-.71-.625h-.953v2.149h.398v-.885h.312c.45 0 .486.208.486.4 0 .364 0 .433.086.485h.398c-.086-.087-.05-.155-.086-.486M4.238 28.801h-.605v-.92h1.629v4.005H4.238z"/>
        <g transform="translate(5 27)">
            <mask id="d" fill="#fff">
                <use xlink:href="#c"/>
            </mask>
            <path fill="#FEFEFE" d="M3.917 4.702c-.355.247-.73.298-1.07.298C1.672 5 .823 4.165.823 2.882c0-1.338.934-2.117 2.008-2.117.352 0 .753.093 1.087.322v1.16c-.204-.24-.514-.48-.94-.48-.61 0-1.011.492-1.011 1.15C1.966 3.524 2.345 4 2.978 4c.412 0 .735-.224.94-.435v1.138z" mask="url(#d)"/>
        </g>
        <path fill="#FEFEFE" d="M9.964 30.821c.317 0 .577.263.577.584 0 .32-.26.583-.577.583a.582.582 0 0 1-.577-.583c0-.32.26-.584.577-.584m0-1.802c.317 0 .577.263.577.583 0 .321-.26.584-.577.584a.583.583 0 0 1-.577-.584c0-.32.26-.583.577-.583M13.811 30.524c.277.005.837-.092.837-.802 0-.71-.56-.806-.837-.8v1.602zm-.95-1.602c-.278-.006-.838.09-.838.8 0 .71.56.807.837.802v-1.602zm-.08 2.403c-.679.006-1.867-.194-1.867-1.603 0-1.39 1.188-1.624 1.867-1.601v-.441h1.11v.44c.678-.022 1.867.213 1.867 1.602 0 1.409-1.189 1.609-1.868 1.603v.56h-1.109v-.56zM17.24 29.683h.318c.491 0 .543-.293.543-.465 0-.198-.069-.456-.543-.456h-.317v.92zm-1.108-1.802H17.8c1.127 0 1.444.788 1.444 1.337 0 .556-.322 1.346-1.444 1.346h-.56v1.322h-1.108V27.88zM20.545 30.312h.905l-.453-1.476-.452 1.476zm-.22-2.432h1.346l1.41 4.006h-1.19l-.22-.693h-1.347l-.22.693h-1.189l1.41-4.006zM23.374 27.88h1.109v1.442h1.347V27.88h1.109v4.006h-1.11v-1.603h-1.346v1.603h-1.11zM29.503 30.323c-.408.057-.493.057-.741.057-1.341 0-1.398-.675-1.398-1.339v-1.16h1.109v1c0 .31-.006.601.61.601.092 0 .205-.017.42-.04V27.88h1.109v4.006h-1.11v-1.563zM32.507 30.312h.905l-.453-1.476-.452 1.476zm-.22-2.432h1.346l1.41 4.006h-1.19l-.22-.693h-1.347l-.22.693h-1.189l1.41-4.006zM38.313 27.022c-.215.469-.718.64-1.188.64s-.974-.171-1.189-.64l.634-.241c.102.275.351.338.555.338.203 0 .452-.063.554-.338l.634.241zm-1.964.858v2.403l1.534-2.403h1.086v4.006H37.9v-2.403l-1.534 2.403H35.28V27.88h1.069z"/>
        <g transform="translate(39 27)">
            <mask id="f" fill="#fff">
                <use xlink:href="#e"/>
            </mask>
            <path fill="#FEFEFE" d="M.456 1.137A2.676 2.676 0 0 1 1.79.765c.889 0 1.523.464 1.523 1.133a.95.95 0 0 1-.652.904v.018c.323.103.736.35.736.955C3.398 4.536 2.702 5 1.808 5c-.56 0-.922-.109-1.556-.595l.459-.744c.282.27.662.457.962.457.475 0 .582-.274.582-.44 0-.235-.164-.418-.64-.418H.989v-.8h.628c.503 0 .588-.235.588-.413 0-.252-.226-.4-.566-.4-.322 0-.554.114-.797.275l-.385-.785z" mask="url(#f)"/>
        </g>
        <path fill="#FEFEFE" d="M43.897 27.88v2.403l1.534-2.403h1.086v4.006h-1.069v-2.404l-1.534 2.404h-1.086V27.88zM46.965 27.88h1.109v1.442h1.347V27.88h1.109v4.006h-1.11v-1.603h-1.346v1.603h-1.11zM51.09 27.88h2.377v.961h-1.268v3.045h-1.11z"/>
    </g>
</svg>
