<svg xmlns="http://www.w3.org/2000/svg" width="43" height="31" viewBox="0 0 43 31">
    <g fill="#94D1B6" fill-rule="evenodd">
        <path d="M13.534 16.76h14.063c.082.377.007.821-.216 1.235-.364.671-.904.97-1.029.968l-9.438-.032c-.676.008-1.241.537-1.251 1.22a1.242 1.242 0 0 0 1.241 1.248l9.18-.002c1.353.1 2.665-.762 3.463-2.235.819-1.515.765-3.193-.134-4.369a1.25 1.25 0 0 0-.981-.5H13.534c-1.828 0-4.167.196-6.036 1.726L.465 21.785c-.258.206-.42.5-.457.83a1.22 1.22 0 0 0 .262.904 1.223 1.223 0 0 0 .966.464c.279 0 .549-.095.776-.276l7.056-5.772c.992-.813 2.369-1.175 4.466-1.175"/>
        <path d="M39.04 7.085c-.793 0-1.572.336-2.188.971a943.5 943.5 0 0 0-2.724 2.71c-1.684 1.68-2.524 2.533-2.844 2.89-.245.221-.39.523-.407.853-.018.33.095.645.314.89a1.236 1.236 0 0 0 1.747.087l.11-.116c.319-.348 1.347-1.392 2.82-2.865a903.215 903.215 0 0 1 2.56-2.545l.249-.233c.149-.157.279-.175.363-.175.294 0 .61.314.61.822a.989.989 0 0 1-.145.532l-.147.175c-1.81 2.174-6.355 7.618-9.44 11.226-1.346 1.573-2.695 2.306-4.25 2.306h-11.47c-1.115 0-2.547.146-3.712 1.286l-2.68 2.627a1.231 1.231 0 0 0 .776 2.194 1.21 1.21 0 0 0 .899-.395l2.719-2.674c.437-.427.942-.57 1.999-.57h11.469c2.265 0 4.327-1.07 6.13-3.18 3.725-4.356 9.558-11.345 9.617-11.415l.086-.127c.403-.57.616-1.255.616-1.985 0-1.814-1.381-3.289-3.077-3.289M21.585 9.248c.723.395 1.545.596 2.442.596.598 0 1.147-.074 1.63-.218a6.79 6.79 0 0 0 1.395-.6c.366-.2.575-.558.575-.983 0-.288-.106-.546-.31-.75a1.107 1.107 0 0 0-1.264-.19c-.312.165-.621.29-.918.375a3.663 3.663 0 0 1-1 .122c-.576 0-1.066-.116-1.454-.344a2.141 2.141 0 0 1-.86-.913c-.2-.406-.302-.88-.302-1.407 0-.528.102-1.002.303-1.408.194-.388.474-.687.859-.913.388-.228.878-.344 1.454-.344.38 0 .718.04.999.12.296.086.605.212.929.38.413.207.948.12 1.266-.21.195-.205.298-.458.298-.733 0-.425-.21-.783-.568-.98a6.899 6.899 0 0 0-1.403-.604 5.75 5.75 0 0 0-1.63-.217c-.896 0-1.718.2-2.441.596a4.372 4.372 0 0 0-1.735 1.734c-.413.739-.622 1.607-.622 2.579 0 .972.209 1.839.622 2.578a4.372 4.372 0 0 0 1.735 1.734M14.556 3.453l.68-.332v5.51a1.2 1.2 0 1 0 2.4 0V1.198c0-.414-.214-.799-.564-1.018a1.202 1.202 0 0 0-1.162-.06l-2.407 1.176a1.2 1.2 0 1 0 1.053 2.156"/>
    </g>
</svg>
