<svg xmlns="http://www.w3.org/2000/svg" width="40" height="44" viewBox="0 0 40 44">
    <path fill="#94D1B6" fill-rule="evenodd" d="M12.297 33.529c.175.294 2.62 1.688 7.834 1.688 5.215 0 7.66-1.394 7.849-1.768l-.014-2.934c-3.993 1.73-11.677 1.73-15.67 0v3.014zm0-6.063c.175.293 2.62 1.687 7.834 1.687 5.109 0 7.56-1.337 7.835-1.744v-2.925c-3.993 1.729-11.677 1.729-15.67 0v2.982zm13.525-5.047c1.306-.38 1.898-.79 2.092-.991-.455-.465-2.91-1.682-7.783-1.682s-7.327 1.217-7.782 1.682c.194.2.786.612 2.092.99 3.244.944 8.137.944 11.38 0zM12.297 36.578v2.983c.175.294 2.62 1.688 7.834 1.688 5.109 0 7.56-1.338 7.835-1.744v-2.927c-3.993 1.732-11.677 1.732-15.67 0zm7.823-19.494c5.233 0 10.513 1.345 10.513 4.35V39.56c0 .992-.6 2.382-3.46 3.36-1.861.638-4.358.989-7.03.989-5.233 0-10.513-1.344-10.513-4.35V21.435c0-.993.6-2.382 3.459-3.361 1.862-.638 4.359-.99 7.03-.99zM30.55 9.31c5.24.69 9.31 5.19 9.31 10.62 0 3.059-1.298 5.831-3.368 7.788-.946.894-2.512.193-2.512-1.109v-.003c0-.43.197-.825.508-1.123a7.677 7.677 0 0 0 2.372-5.553c0-4.249-3.469-7.709-7.718-7.71a1.507 1.507 0 0 1-1.502-1.501C27.639 6.459 24.18 3 19.93 3s-7.709 3.459-7.71 7.719c0 .825-.676 1.501-1.501 1.501C6.459 12.221 3 15.68 3 19.93a7.698 7.698 0 0 0 2.808 5.947c.329.273.502.691.502 1.118 0 1.253-1.468 1.975-2.432 1.174A10.693 10.693 0 0 1 0 19.93C0 14.5 4.06 10 9.31 9.31 10 4.06 14.5 0 19.93 0c5.43 0 9.93 4.06 10.62 9.31z"/>
</svg>
