<svg xmlns="http://www.w3.org/2000/svg" width="35" height="40" viewBox="0 0 35 40">
    <path fill="#94D1B6" fill-rule="evenodd" d="M31.53 25.395V18.26a2.202 2.202 0 0 0-2.198-2.2 2.202 2.202 0 0 0-2.2 2.2v7.134h4.399zm-7.032-7.152a4.779 4.779 0 0 1 .533-2.181h-4.932v19.102c0 1.212.986 2.2 2.198 2.2 1.213 0 2.2-.987 2.2-2.2V18.26v-.018zM4.836 37.362h13.16a4.804 4.804 0 0 1-.534-2.199V2.636H2.637V35.17a2.201 2.201 0 0 0 2.199 2.195zm24.496-23.938a4.841 4.841 0 0 1 4.836 4.835v8.452c0 .729-.59 1.319-1.318 1.319h-5.717v7.133A4.841 4.841 0 0 1 22.297 40H4.836A4.841 4.841 0 0 1 0 35.164V1.32c0-.73.592-1.32 1.319-1.32H18.78c.727 0 1.318.59 1.318 1.32v12.106h9.233zM13.226 26.041a1.318 1.318 0 1 1 0 2.636H6.873a1.319 1.319 0 0 1 0-2.636h6.353zm0 4.912a1.318 1.318 0 1 1 0 2.637H6.873a1.318 1.318 0 1 1 0-2.637h6.353zm.926-21.484c.267.513.402 1.06.402 1.632 0 .599-.15 1.158-.446 1.662-.302.513-.779.925-1.416 1.223-.615.288-1.397.434-2.323.434H8.89v.865h2.183c.25 0 .478.095.661.275a.924.924 0 0 1 .28.664.901.901 0 0 1-.279.67.948.948 0 0 1-.662.257H8.888v1.48c0 .29-.11.55-.318.75a1.05 1.05 0 0 1-.742.298c-.287 0-.544-.105-.743-.304a1.026 1.026 0 0 1-.305-.744v-1.48h-.29a.91.91 0 0 1-.658-.272.91.91 0 0 1-.269-.655c0-.246.091-.473.262-.654a.901.901 0 0 1 .665-.285h.29v-.865h-.29a.91.91 0 0 1-.658-.272.91.91 0 0 1-.269-.655c0-.246.091-.473.262-.654a.901.901 0 0 1 .665-.285h.29v-3.78c0-.283.104-.541.3-.743.198-.207.457-.317.748-.317h2.676c.924 0 1.698.16 2.3.476.617.324 1.07.755 1.348 1.279zm-5.264.286v2.799h1.36c.823 0 1.405-.145 1.73-.431.314-.276.466-.602.466-.995 0-.39-.137-.706-.42-.97-.285-.263-.852-.403-1.64-.403H8.887z"/>
</svg>
