<svg xmlns="http://www.w3.org/2000/svg" width="37" height="38" viewBox="0 0 37 38">
    <path fill="#94D1B6" fill-rule="evenodd" d="M16.938 11.039a9 9 0 0 0-1.017.19 9.937 9.937 0 0 0-.95.298l-.14.052a9.715 9.715 0 0 0-.933.415l-.067.038c-.268.14-.532.296-.825.484a5.24 5.24 0 0 1 5.146-6.18A5.239 5.239 0 0 1 23.3 12.51a8.343 8.343 0 0 0-.76-.444l-.14-.076a9.248 9.248 0 0 0-4.247-1.037c-.305 0-.627.02-1.01.062l-.206.024zM13.23 15.74l.064-.046a7.832 7.832 0 0 1 2.244-1.494l-.1-.23.18.192c.094-.04.191-.073.289-.106l.107-.038c.111-.04.224-.078.34-.111.107-.031.213-.056.319-.081l.135-.03v20.755c-3.957-.834-6.903-5.231-6.903-10.378 0-3.317 1.26-6.482 3.325-8.433zm6.27-1.946l.11.026c.098.02.192.047.285.072a5.677 5.677 0 0 1 .58.192l.067.025c.07.027.142.053.21.082.178.077.356.16.53.253l.108.062c.159.089.314.18.468.28l.136-.21-.05.267a8.638 8.638 0 0 1 1.102.876c.902.85 1.645 1.897 2.209 3.11.75 1.615 1.146 3.462 1.146 5.343 0 5.148-2.947 9.544-6.901 10.379V13.795zm15.46 11.727a1.348 1.348 0 1 0-.002-2.694h-5.925a15.63 15.63 0 0 0-.68-3.443c2.55-.583 4.745-2.218 6.192-3.415.279-.23.45-.553.483-.911a1.338 1.338 0 0 0-.303-.985 1.336 1.336 0 0 0-.91-.482 1.34 1.34 0 0 0-.985.303c-1.355 1.12-3.39 2.629-5.57 2.944a12.817 12.817 0 0 0-1.718-2.42 7.894 7.894 0 0 0 .535-2.85A7.917 7.917 0 0 0 22.7 5.086l.779-1.89 4.31 2.149a1.373 1.373 0 0 0 1.805-.605 1.35 1.35 0 0 0-.606-1.805L23.297.099a.428.428 0 0 0-.084-.025 1.146 1.146 0 0 0-.265-.061c-.044-.005-.085-.01-.13-.012a1.66 1.66 0 0 0-.262.019c-.039.007-.076.017-.13.03a1.077 1.077 0 0 0-.228.086c-.041.02-.08.04-.117.062a1.4 1.4 0 0 0-.386.358 1.522 1.522 0 0 0-.079.12l-.034.056a.137.137 0 0 0-.018.044L20.262 3.93a7.963 7.963 0 0 0-4.22 0L14.77.83l-.04-.086a.532.532 0 0 0-.046-.077 1.27 1.27 0 0 0-.158-.218 1.24 1.24 0 0 0-.197-.181c-.034-.024-.066-.048-.098-.067a1.297 1.297 0 0 0-.232-.114 1.612 1.612 0 0 0-.144-.045C13.82.035 13.787.027 13.75.02a1.828 1.828 0 0 0-.134-.015C13.575.002 13.529 0 13.49 0a1.492 1.492 0 0 0-.136.013 1.006 1.006 0 0 0-.125.02c-.04.009-.082.022-.146.042L7.316 2.934a1.35 1.35 0 0 0-.603 1.806c.321.645 1.16.926 1.805.604l4.31-2.15.777 1.89a7.912 7.912 0 0 0-3.378 6.486c0 .976.184 1.94.544 2.87a13.017 13.017 0 0 0-1.71 2.4c-2.187-.308-4.228-1.821-5.585-2.945a1.348 1.348 0 0 0-2.2 1.165c.035.358.205.682.482.91 1.447 1.198 3.644 2.833 6.2 3.415a15.368 15.368 0 0 0-.681 3.444h-5.93c-.743 0-1.346.604-1.346 1.347 0 .742.603 1.346 1.345 1.346h5.93a15.39 15.39 0 0 0 .681 3.444c-2.554.582-4.75 2.217-6.197 3.414a1.348 1.348 0 0 0-.18 1.896c.455.55 1.341.637 1.896.18 1.357-1.124 3.398-2.636 5.584-2.946 2.044 3.69 5.431 5.887 9.094 5.887 3.66 0 7.049-2.197 9.091-5.887 2.19.31 4.23 1.822 5.586 2.946.55.455 1.44.372 1.896-.18a1.35 1.35 0 0 0-.18-1.896c-1.447-1.197-3.644-2.832-6.197-3.414.352-1.097.581-2.253.68-3.444h5.93z"/>
</svg>
