<svg xmlns="http://www.w3.org/2000/svg" width="53" height="28" viewBox="0 0 53 28">
    <path fill="#94D1B6" fill-rule="evenodd" d="M50.174 18.157h.001v-5.205l-12.116-1.564H9.885A1.291 1.291 0 0 1 8.737 9.51l3.559-6.931h-1.431L4.302 9.455h1.177a1.29 1.29 0 1 1 0 2.579H2.578v5.694c0 .83.675 1.504 1.505 1.504h.752c.046 0 .086.022.131.027.741-2.566 3.084-4.459 5.885-4.459 2.805 0 5.151 1.898 5.888 4.469.062-.01.117-.037.182-.037h18.996c.75-2.552 3.086-4.432 5.877-4.432s5.126 1.88 5.875 4.432h1.43c.593 0 1.075-.483 1.075-1.075zm-8.38 6.366a3.576 3.576 0 0 0 3.572-3.572 3.576 3.576 0 0 0-3.572-3.572 3.576 3.576 0 0 0-3.573 3.572 3.576 3.576 0 0 0 3.573 3.572zm-30.943 0a3.576 3.576 0 0 0 3.572-3.572 3.576 3.576 0 0 0-3.572-3.572 3.576 3.576 0 0 0-3.573 3.572 3.576 3.576 0 0 0 3.573 3.572zm4.307-21.944c-.018.052-.018.107-.045.158L11.996 8.81H22.24V2.579h-7.082zm19.87 6.231l-6.231-6.231h-3.979V8.81h10.21zm16.6 1.73c.644.083 1.124.63 1.124 1.278v6.339a3.657 3.657 0 0 1-3.653 3.653h-1.242c-.422 2.982-2.966 5.291-6.063 5.291-3.098 0-5.642-2.309-6.065-5.291H16.921l-.005-.001c-.422 2.983-2.966 5.292-6.064 5.292-3.097 0-5.642-2.309-6.065-5.291h-.704A4.088 4.088 0 0 1 0 17.727v-6.983c0-.17.035-.336.099-.49.028-.069.079-.122.118-.184.046-.073.079-.153.139-.216L9.381.399C9.625.144 9.962 0 10.314 0h19.017c.342 0 .669.136.911.378l8.499 8.498 12.887 1.664zm-24.124 1.815h-2.363a1.29 1.29 0 1 0 0 2.578h2.363a1.288 1.288 0 1 0 0-2.578z"/>
</svg>
