<svg xmlns="http://www.w3.org/2000/svg" width="41" height="40" viewBox="0 0 41 40">
    <path fill="#94D1B6" fill-rule="evenodd" d="M26.839 2.509c3.937 0 7.139 3.203 7.139 7.138a7.147 7.147 0 0 1-7.14 7.14 7.147 7.147 0 0 1-7.138-7.14c0-3.936 3.202-7.139 7.139-7.139zm0 16.787c5.32 0 9.648-4.329 9.648-9.65C36.487 4.329 32.159 0 26.839 0c-5.32 0-9.648 4.33-9.648 9.647 0 5.321 4.328 9.65 9.648 9.65zm10.755 11.563l-12.978 6.14a1.242 1.242 0 0 0-.081.042c-.145.083-.468.17-.835.17-.241 0-.375-.038-.418-.053l-6.483-2.126c-.783-.262-1.993-.46-2.818-.46h-3.904v-8.99c.57-.003 1.22-.006 1.679-.006 1.303 0 2.424-.334 3.415-.63.822-.247 1.533-.459 2.22-.459.223 0 .43.023.605.06l6.939 1.703c1.019.314 1.108 1.073 1.07 1.498-.052.598-.445 1.243-1.013 1.316a5.84 5.84 0 0 1-.31.012l-6.3-.674a1.26 1.26 0 0 0-1.386 1.247 1.252 1.252 0 0 0 1.12 1.246l6.372.682.066.006c.228.013.485 0 .582-.015.74-.043 1.634-.165 2.304-.326l9.113-2.793a2.19 2.19 0 0 1 .579-.086c.765 0 1.167.506 1.276.939.075.296.138 1.034-.814 1.556zm-35.085 6.63h5.06V23.02h-5.06v14.468zm38.33-8.804c-.431-1.69-1.921-2.827-3.707-2.827-.413 0-.838.06-1.288.188L28.46 28.31a4.21 4.21 0 0 0 .044-.34c.17-1.92-.942-3.537-2.902-4.136l-7.04-1.73a5.483 5.483 0 0 0-1.17-.125c-1.055 0-2.013.287-2.94.564-.906.27-1.76.526-2.697.526-.46 0-1.106.003-1.68.006v-1.308c0-.692-.56-1.253-1.253-1.253H1.255c-.693 0-1.255.561-1.255 1.253v16.977C0 39.44.562 40 1.255 40h7.568c.693 0 1.254-.562 1.254-1.255v-1.661h3.904c.542 0 1.506.156 2.029.332l6.484 2.126c.358.12.764.18 1.207.18.739 0 1.472-.17 2.023-.47l13.007-6.158c1.724-.941 2.55-2.672 2.109-4.41zm-35.802 6.82c.334 0 .652-.134.887-.367.233-.233.367-.56.367-.886 0-.327-.134-.653-.367-.888-.47-.468-1.305-.468-1.774 0a1.273 1.273 0 0 0-.367.888c0 .326.134.651.367.886.235.233.56.367.887.367z"/>
</svg>
