<svg xmlns="http://www.w3.org/2000/svg" width="42" height="42" viewBox="0 0 42 42">
    <path fill="#94D1B6" fill-rule="evenodd" d="M5.477 31.18H1.293a1.357 1.357 0 1 0 0 2.715h4.184a1.357 1.357 0 0 0 0-2.715zm-1.658-4.318c0-.75-.607-1.358-1.357-1.358h-5.994a1.357 1.357 0 0 0 0 2.715h5.994c.75 0 1.357-.607 1.357-1.357zM1.293 11.19h4.184a1.357 1.357 0 1 0 0-2.714H1.293a1.357 1.357 0 1 0 0 2.714zm1.32 9.995c0-.75-.607-1.358-1.357-1.358h-6.898a1.358 1.358 0 0 0 0 2.715h6.898c.75 0 1.358-.608 1.358-1.357zm-6.145-4.319h5.994a1.357 1.357 0 1 0 0-2.715h-5.994a1.358 1.358 0 0 0 0 2.715zm26.404 3.756V11.22a1.358 1.358 0 0 0-2.715 0v9.966c0 .177.036.346.099.503 0 .004.002.007.003.011.069.17.172.323.3.45l4.582 4.581a1.353 1.353 0 0 0 1.92 0c.53-.53.53-1.389 0-1.919l-4.19-4.189zm-1.357 14.033c-7.428 0-13.472-6.043-13.472-13.469 0-7.428 6.044-13.472 13.472-13.472s13.47 6.043 13.47 13.471c0 7.427-6.042 13.47-13.47 13.47zm0-29.655C12.59 5 5.329 12.26 5.329 21.186c0 8.923 7.26 16.184 16.186 16.184 8.925 0 16.185-7.26 16.185-16.185C37.7 12.26 30.439 5 21.515 5z"/>
</svg>
