<svg xmlns="http://www.w3.org/2000/svg" width="42" height="42" viewBox="0 0 42 42">
    <path fill="#94D1B6" fill-rule="evenodd" d="M25.639 33.691a1.5 1.5 0 0 1 1.061 2.56l-4.684 4.684a1.504 1.504 0 0 1-1.09.474l-.004-.001h-.008a1.496 1.496 0 0 1-.525-.103c-.015-.006-.029-.008-.044-.014a1.512 1.512 0 0 1-.453-.301c-.01-.008-.022-.011-.032-.021l-4.707-4.705a1.5 1.5 0 1 1 2.121-2.12l2.152 2.151V17.094a1.5 1.5 0 0 1 3 0v19.188l2.152-2.152a1.495 1.495 0 0 1 1.061-.439zm5.906-24.386c5.244.692 9.306 5.191 9.306 10.62 0 5.906-4.807 10.711-10.715 10.711h-3.497a1.5 1.5 0 0 1 0-3h3.497c4.254 0 7.715-3.459 7.715-7.711 0-4.252-3.461-7.711-7.714-7.712a1.5 1.5 0 0 1-1.5-1.5C28.637 6.46 25.177 3 20.925 3c-4.253 0-7.712 3.46-7.712 7.713a1.5 1.5 0 0 1-1.5 1.5C7.46 12.213 4 15.673 4 19.925s3.46 7.711 7.713 7.711h3.5a1.5 1.5 0 1 1 0 3h-3.5C5.806 30.636 1 25.831 1 19.925c0-5.43 4.06-9.929 9.305-10.62C10.996 4.061 15.495 0 20.925 0c5.43 0 9.929 4.061 10.62 9.305z"/>
</svg>
