<svg xmlns="http://www.w3.org/2000/svg" width="40" height="34" viewBox="0 0 40 34">
    <path fill="#94D1B6" fill-rule="evenodd" d="M37.55 25.03c0 .783-.5 1.445-1.09 1.445h-2.53c-.676 0-1.225.549-1.225 1.225v2.099l-4.183-3.085a1.225 1.225 0 0 0-.727-.24h-9.768c-.591 0-1.09-.661-1.09-1.443V12.719c0-.783.499-1.444 1.09-1.444H36.46c.59 0 1.089.66 1.089 1.444V25.03zm-25.56-7.38a1.23 1.23 0 0 0-.727.239L7.07 20.985v-2.11c0-.676-.548-1.225-1.225-1.225H3.54c-.59 0-1.09-.662-1.09-1.444V3.893c0-.782.5-1.443 1.09-1.443h18.434c.59 0 1.09.66 1.09 1.443v4.932h-5.036c-1.952 0-3.54 1.747-3.54 3.894v4.932H11.99v-.001zm24.47-8.825H25.515V3.893C25.514 1.747 23.926 0 21.973 0H3.54C1.588 0 0 1.747 0 3.893v12.314C0 18.354 1.588 20.1 3.54 20.1h1.079v3.312a1.228 1.228 0 0 0 1.225 1.225c.258 0 .513-.081.728-.24l5.82-4.297h2.095v4.93c0 2.148 1.587 3.895 3.539 3.895h9.366l5.81 4.285a1.227 1.227 0 0 0 1.953-.986v-3.3h1.306c1.95 0 3.539-1.746 3.539-3.893V12.719c0-2.148-1.588-3.894-3.54-3.894z"/>
</svg>
