<svg xmlns="http://www.w3.org/2000/svg" width="394" height="83" viewBox="0 0 394 83">
    <g fill="none" fill-rule="evenodd">
        <path fill="#94D1B7" d="M212 1l-54 41 54 41 54-41z"/>
        <path fill="#FFF" d="M55 1L1 42l54 41"/>
        <path fill="#0B7B7B" fill-rule="nonzero" d="M54.698.602l.604.796-1.593 1.21-.604-.797 1.593-1.21zM51.512 3.02l.605.796-1.593 1.21-.605-.797 1.593-1.21zm-3.186 2.418l.605.797-1.593 1.21-.605-.797 1.593-1.21zM45.14 7.86l.605.796-1.593 1.21-.605-.797 1.593-1.21zm-3.185 2.418l.604.797-1.593 1.209-.604-.796 1.593-1.21zm-3.186 2.419l.604.796-1.592 1.21-.605-.797 1.593-1.209zm-3.186 2.419l.605.796-1.593 1.21-.605-.797 1.593-1.21zm-3.186 2.419l.605.796-1.593 1.21-.605-.797 1.593-1.21zm-3.186 2.419l.605.796-1.593 1.21-.604-.797 1.592-1.21zm-3.185 2.418l.604.797-1.593 1.21-.604-.797 1.593-1.21zm-3.186 2.42l.605.796-1.593 1.21-.605-.797 1.593-1.21zm-3.186 2.418l.605.797-1.593 1.209-.605-.796 1.593-1.21zm-3.186 2.419l.605.796-1.593 1.21-.605-.797 1.593-1.209zm-3.185 2.419l.604.796-1.593 1.21-.604-.797 1.593-1.21zm-3.186 2.419l.604.796-1.592 1.21-.605-.797 1.593-1.21zM6.91 36.885l.605.796-1.593 1.21-.605-.797 1.593-1.21zm-3.186 2.418l.605.797-1.593 1.21-.605-.797 1.593-1.21zM.855 42.52l.606-.797 1.592 1.21-.604.796-1.593-1.21zm3.187 2.418l.604-.796 1.593 1.21-.604.796-1.593-1.21zm3.185 2.42l.605-.797 1.593 1.21-.605.796-1.593-1.21zm3.186 2.418l.605-.796 1.593 1.21-.605.796-1.593-1.21zm3.186 2.419l.605-.796 1.593 1.209-.605.796-1.593-1.209zm3.186 2.419l.605-.797 1.592 1.21-.604.796-1.593-1.21zm3.186 2.419l.604-.797 1.593 1.21-.604.796-1.593-1.21zm3.185 2.418l.605-.796 1.593 1.21-.605.796-1.593-1.21zm3.186 2.42l.605-.797 1.593 1.21-.605.796-1.593-1.21zm3.186 2.418l.605-.796 1.593 1.209-.605.796-1.593-1.209zm3.186 2.419l.604-.797 1.593 1.21-.604.796-1.593-1.21zm3.186 2.419l.604-.797 1.593 1.21-.605.796-1.592-1.21zm3.185 2.419l.605-.797 1.593 1.21-.605.796-1.593-1.21zm3.186 2.418l.605-.796 1.593 1.21-.605.796-1.593-1.21zm3.186 2.42l.605-.797 1.593 1.21-.605.796-1.593-1.21zm3.186 2.418l.604-.796 1.593 1.209-.604.796-1.593-1.209zm3.186 2.419l.604-.797 1.593 1.21-.605.796-1.592-1.21z"/>
        <path fill="#FFF" d="M158 1l54 41-54 41"/>
        <path fill="#0B7B7B" fill-rule="nonzero" d="M158.46.602l-.604.796 1.593 1.21.604-.797-1.592-1.21zm3.186 2.419l-.604.796 1.592 1.21.605-.797-1.593-1.21zm3.186 2.418l-.605.797 1.593 1.21.605-.797-1.593-1.21zm3.186 2.42l-.605.796 1.593 1.21.605-.797-1.593-1.21zm3.186 2.418l-.605.797 1.593 1.209.605-.796-1.593-1.21zm3.185 2.419l-.604.796 1.593 1.21.604-.797-1.593-1.209zm3.186 2.419l-.605.796 1.593 1.21.605-.797-1.593-1.21zm3.186 2.419l-.605.796 1.593 1.21.605-.797-1.593-1.21zm3.186 2.419l-.605.796 1.593 1.21.605-.797-1.593-1.21zm3.186 2.418l-.605.797 1.593 1.21.604-.797-1.592-1.21zm3.185 2.42l-.604.796 1.592 1.21.605-.797-1.593-1.21zm3.186 2.418l-.605.797 1.593 1.209.605-.796-1.593-1.21zm3.186 2.419l-.605.796 1.593 1.21.605-.797-1.593-1.209zm3.186 2.419l-.605.796 1.593 1.21.605-.797-1.593-1.21zm3.185 2.419l-.604.796 1.593 1.21.604-.797-1.593-1.21zm3.186 2.419l-.605.796 1.593 1.21.605-.797-1.593-1.21zm3.186 2.418l-.605.797 1.593 1.21.605-.797-1.593-1.21zm2.87 3.216l-.605-.797-1.593 1.21.604.796 1.593-1.21zm-3.186 2.418l-.605-.796-1.593 1.21.605.796 1.593-1.21zm-3.186 2.42l-.605-.797-1.593 1.21.605.796 1.593-1.21zm-3.186 2.418l-.605-.796-1.593 1.21.605.796 1.593-1.21zm-3.186 2.419l-.605-.796-1.592 1.209.604.796 1.593-1.209zm-3.186 2.419l-.604-.797-1.593 1.21.604.796 1.593-1.21zm-3.185 2.419l-.605-.797-1.593 1.21.605.796 1.593-1.21zm-3.186 2.418l-.605-.796-1.593 1.21.605.796 1.593-1.21zm-3.186 2.42l-.605-.797-1.593 1.21.605.796 1.593-1.21zm-3.186 2.418l-.605-.796-1.592 1.209.604.796 1.593-1.209zm-3.186 2.419l-.604-.797-1.593 1.21.605.796 1.592-1.21zm-3.185 2.419l-.605-.797-1.593 1.21.605.796 1.593-1.21zm-3.186 2.419l-.605-.797-1.593 1.21.605.796 1.593-1.21zm-3.186 2.418l-.605-.796-1.593 1.21.605.796 1.593-1.21zm-3.186 2.42l-.604-.797-1.593 1.21.604.796 1.593-1.21zm-3.186 2.418l-.604-.796-1.593 1.209.605.796 1.592-1.209zm-3.185 2.419l-.605-.797-1.593 1.21.605.796 1.593-1.21z"/>
        <path fill="#3C3E3E" d="M45.414 34.4h8.892v.9h-3.96V47h-.972V35.3h-3.96v-.9zm13.272 3.402c1.314 0 2.394.468 3.204 1.404.828.936 1.242 2.052 1.242 3.33 0 .09-.018.342-.018.432H54.96c.108 1.008.504 1.818 1.206 2.448.702.612 1.584.918 2.61.918 1.44 0 2.556-.648 3.114-1.638l.792.468c-.738 1.242-2.178 2.034-3.924 2.034-1.386 0-2.52-.432-3.402-1.314-.882-.882-1.332-2.016-1.332-3.384 0-1.35.432-2.466 1.296-3.348.882-.9 1.998-1.35 3.366-1.35zm0 .864c-1.026 0-1.872.324-2.556.954-.684.63-1.08 1.458-1.17 2.466h7.236c-.09-1.062-.486-1.908-1.152-2.502a3.35 3.35 0 0 0-2.358-.918zm10.068 3.69L72.336 47h-1.098l-3.042-3.924L65.154 47h-1.098l3.6-4.626L64.272 38h1.098l2.826 3.654L71.04 38h1.08l-3.366 4.356zm12.066-.288V38h.918v9h-.918v-4.068h-5.616V47h-.9v-9h.9v4.068h5.616zm7.962 5.13c-1.314 0-2.448-.45-3.366-1.35-.918-.918-1.368-2.034-1.368-3.348s.45-2.43 1.368-3.33c.918-.918 2.052-1.368 3.366-1.368s2.412.45 3.33 1.368c.918.9 1.386 2.016 1.386 3.33s-.468 2.43-1.386 3.348c-.918.9-2.016 1.35-3.33 1.35zm-2.718-1.98c.738.738 1.656 1.116 2.718 1.116a3.682 3.682 0 0 0 2.7-1.116c.738-.738 1.098-1.656 1.098-2.718s-.36-1.98-1.098-2.718a3.682 3.682 0 0 0-2.7-1.116c-1.062 0-1.98.378-2.718 1.116-.738.738-1.098 1.656-1.098 2.718s.36 1.98 1.098 2.718zM96.42 38h6.336v9h-.9v-8.118H97.32v4.338c0 2.934-1.152 3.924-3.024 3.78v-.846c1.44.126 2.124-.684 2.124-2.934V38zm13.38 9.198c-1.314 0-2.448-.45-3.366-1.35-.918-.918-1.368-2.034-1.368-3.348s.45-2.43 1.368-3.33c.918-.918 2.052-1.368 3.366-1.368s2.412.45 3.33 1.368c.918.9 1.386 2.016 1.386 3.33s-.468 2.43-1.386 3.348c-.918.9-2.016 1.35-3.33 1.35zm-2.718-1.98c.738.738 1.656 1.116 2.718 1.116a3.682 3.682 0 0 0 2.7-1.116c.738-.738 1.098-1.656 1.098-2.718s-.36-1.98-1.098-2.718a3.682 3.682 0 0 0-2.7-1.116c-1.062 0-1.98.378-2.718 1.116-.738.738-1.098 1.656-1.098 2.718s.36 1.98 1.098 2.718zM116.826 38h5.634v.882h-4.734V47h-.9v-9zm8.286 7.434L130.854 38h.792v9h-.918v-7.434L125.004 47h-.792v-9h.9v7.434zm10.356 0L141.21 38h.792v9h-.918v-7.434L135.36 47h-.792v-9h.9v7.434zm13.332-9.9l3.294-1.134h.81V47h-.954V35.444l-2.916.918-.234-.828zm13.218 11.664c-1.89 0-3.456-.63-4.698-1.872-1.242-1.26-1.854-2.808-1.854-4.626 0-1.818.612-3.366 1.854-4.608 1.242-1.26 2.808-1.89 4.698-1.89 1.152 0 2.214.27 3.168.828.954.54 1.71 1.278 2.232 2.196l-.846.486c-.414-.774-1.044-1.404-1.854-1.872-.81-.486-1.71-.72-2.7-.72-1.638 0-2.97.54-4.032 1.62-1.044 1.062-1.566 2.394-1.566 3.96 0 1.566.522 2.898 1.566 3.978 1.062 1.062 2.394 1.602 4.032 1.602 1.962 0 3.744-1.044 4.59-2.646l.846.486c-1.026 1.872-3.114 3.078-5.436 3.078z"/>
        <path fill="#0B7B7B" d="M245 1l-54 41 54 41 54-41z"/>
        <path fill="#FFF" d="M308 1l-54 41 54 41"/>
        <path fill="#0B7B7B" fill-rule="nonzero" d="M307.698.602l.604.796-1.593 1.21-.604-.797 1.593-1.21zm-3.186 2.419l.605.796-1.593 1.21-.605-.797 1.593-1.21zm-3.186 2.418l.605.797-1.593 1.21-.605-.797 1.593-1.21zm-3.186 2.42l.605.796-1.593 1.21-.605-.797 1.593-1.21zm-3.185 2.418l.604.797-1.593 1.209-.604-.796 1.593-1.21zm-3.186 2.419l.604.796-1.592 1.21-.605-.797 1.593-1.209zm-3.186 2.419l.605.796-1.593 1.21-.605-.797 1.593-1.21zm-3.186 2.419l.605.796-1.593 1.21-.605-.797 1.593-1.21zm-3.186 2.419l.605.796-1.593 1.21-.604-.797 1.592-1.21zm-3.185 2.418l.604.797-1.593 1.21-.604-.797 1.593-1.21zm-3.186 2.42l.605.796-1.593 1.21-.605-.797 1.593-1.21zm-3.186 2.418l.605.797-1.593 1.209-.605-.796 1.593-1.21zm-3.186 2.419l.605.796-1.593 1.21-.605-.797 1.593-1.209zm-3.185 2.419l.604.796-1.593 1.21-.604-.797 1.593-1.21zm-3.186 2.419l.604.796-1.592 1.21-.605-.797 1.593-1.21zm-3.186 2.419l.605.796-1.593 1.21-.605-.797 1.593-1.21zm-3.186 2.418l.605.797-1.593 1.21-.605-.797 1.593-1.21zm-2.87 3.216l.606-.797 1.592 1.21-.604.796-1.593-1.21zm3.187 2.418l.604-.796 1.593 1.21-.604.796-1.593-1.21zm3.185 2.42l.605-.797 1.593 1.21-.605.796-1.593-1.21zm3.186 2.418l.605-.796 1.593 1.21-.605.796-1.593-1.21zm3.186 2.419l.605-.796 1.593 1.209-.605.796-1.593-1.209zm3.186 2.419l.605-.797 1.592 1.21-.604.796-1.593-1.21zm3.186 2.419l.604-.797 1.593 1.21-.605.796-1.592-1.21zm3.185 2.418l.605-.796 1.593 1.21-.605.796-1.593-1.21zm3.186 2.42l.605-.797 1.593 1.21-.605.796-1.593-1.21zm3.186 2.418l.605-.796 1.593 1.209-.605.796-1.593-1.209zm3.186 2.419l.604-.797 1.593 1.21-.604.796-1.593-1.21zm3.186 2.419l.604-.797 1.593 1.21-.605.796-1.592-1.21zm3.185 2.419l.605-.797 1.593 1.21-.605.796-1.593-1.21zm3.186 2.418l.605-.796 1.593 1.21-.605.796-1.593-1.21zm3.186 2.42l.605-.797 1.593 1.21-.605.796-1.593-1.21zm3.186 2.418l.604-.796 1.593 1.209-.604.796-1.593-1.209zm3.186 2.419l.604-.797 1.593 1.21-.605.796-1.592-1.21z"/>
        <path fill="#FFF" d="M339 1l54 41-54 41"/>
        <path fill="#0B7B7B" fill-rule="nonzero" d="M339.46.602l-.604.796 1.593 1.21.604-.797-1.592-1.21zm3.186 2.419l-.604.796 1.592 1.21.605-.797-1.593-1.21zm3.186 2.418l-.605.797 1.593 1.21.605-.797-1.593-1.21zm3.186 2.42l-.605.796 1.593 1.21.605-.797-1.593-1.21zm3.186 2.418l-.605.797 1.593 1.209.605-.796-1.593-1.21zm3.185 2.419l-.604.796 1.593 1.21.604-.797-1.593-1.209zm3.186 2.419l-.605.796 1.593 1.21.605-.797-1.593-1.21zm3.186 2.419l-.605.796 1.593 1.21.605-.797-1.593-1.21zm3.186 2.419l-.605.796 1.593 1.21.605-.797-1.593-1.21zm3.186 2.418l-.605.797 1.593 1.21.604-.797-1.592-1.21zm3.185 2.42l-.604.796 1.592 1.21.605-.797-1.593-1.21zm3.186 2.418l-.605.797 1.593 1.209.605-.796-1.593-1.21zm3.186 2.419l-.605.796 1.593 1.21.605-.797-1.593-1.209zm3.186 2.419l-.605.796 1.593 1.21.605-.797-1.593-1.21zm3.185 2.419l-.604.796 1.593 1.21.604-.797-1.593-1.21zm3.186 2.419l-.605.796 1.593 1.21.605-.797-1.593-1.21zm3.186 2.418l-.605.797 1.593 1.21.605-.797-1.593-1.21zm2.87 3.216l-.605-.797-1.593 1.21.604.796 1.593-1.21zm-3.186 2.418l-.605-.796-1.593 1.21.605.796 1.593-1.21zm-3.186 2.42l-.605-.797-1.593 1.21.605.796 1.593-1.21zm-3.186 2.418l-.605-.796-1.593 1.21.605.796 1.593-1.21zm-3.186 2.419l-.605-.796-1.592 1.209.604.796 1.593-1.209zm-3.186 2.419l-.604-.797-1.593 1.21.604.796 1.593-1.21zm-3.185 2.419l-.605-.797-1.593 1.21.605.796 1.593-1.21zm-3.186 2.418l-.605-.796-1.593 1.21.605.796 1.593-1.21zm-3.186 2.42l-.605-.797-1.593 1.21.605.796 1.593-1.21zm-3.186 2.418l-.605-.796-1.592 1.209.604.796 1.593-1.209zm-3.186 2.419l-.604-.797-1.593 1.21.605.796 1.592-1.21zm-3.185 2.419l-.605-.797-1.593 1.21.605.796 1.593-1.21zm-3.186 2.419l-.605-.797-1.593 1.21.605.796 1.593-1.21zm-3.186 2.418l-.605-.796-1.593 1.21.605.796 1.593-1.21zm-3.186 2.42l-.604-.797-1.593 1.21.604.796 1.593-1.21zm-3.186 2.418l-.604-.796-1.593 1.209.605.796 1.592-1.209zm-3.185 2.419l-.605-.797-1.593 1.21.605.796 1.593-1.21z"/>
        <path fill="#3C3E3E" d="M295.52 39.566h3.6c1.026 0 1.89.36 2.628 1.098.738.72 1.098 1.584 1.098 2.61 0 1.026-.36 1.89-1.098 2.628-.72.738-1.602 1.098-2.628 1.098h-4.554V34.4h7.254v.9h-6.3v4.266zm0 6.534h3.6a2.6 2.6 0 0 0 1.944-.828c.54-.558.81-1.224.81-1.998s-.27-1.422-.81-1.98a2.6 2.6 0 0 0-1.944-.828h-3.6V46.1zm10.446-.666L311.708 38h.792v9h-.918v-7.434L305.858 47h-.792v-9h.9v7.434zm13.776-3.078c1.08.36 1.71 1.206 1.71 2.232 0 1.458-1.206 2.61-3.312 2.61-1.8 0-2.97-.702-3.51-2.124l.774-.45c.378 1.134 1.296 1.71 2.736 1.71 1.494 0 2.394-.72 2.394-1.8 0-.99-.774-1.656-1.98-1.656h-1.242v-.882h.9c1.17 0 1.89-.648 1.89-1.656 0-.954-.846-1.674-2.124-1.674-1.224 0-2.034.486-2.43 1.458l-.756-.432c.504-1.152 1.602-1.89 3.186-1.89.918 0 1.656.252 2.196.738.558.486.828 1.062.828 1.764 0 .972-.414 1.656-1.26 2.052zm10.356-.288V38h.918v9h-.918v-4.068h-5.616V47h-.9v-9h.9v4.068h5.616zm7.89-4.266c1.314 0 2.394.468 3.204 1.404.828.936 1.242 2.052 1.242 3.33 0 .09-.018.342-.018.432h-8.154c.108 1.008.504 1.818 1.206 2.448.702.612 1.584.918 2.61.918 1.44 0 2.556-.648 3.114-1.638l.792.468c-.738 1.242-2.178 2.034-3.924 2.034-1.386 0-2.52-.432-3.402-1.314-.882-.882-1.332-2.016-1.332-3.384 0-1.35.432-2.466 1.296-3.348.882-.9 1.998-1.35 3.366-1.35zm0 .864c-1.026 0-1.872.324-2.556.954-.684.63-1.08 1.458-1.17 2.466h7.236c-.09-1.062-.486-1.908-1.152-2.502a3.35 3.35 0 0 0-2.358-.918zm10.824 8.532c-1.35 0-2.484-.45-3.384-1.35-.9-.9-1.35-2.016-1.35-3.348 0-1.332.45-2.448 1.35-3.348.9-.9 2.034-1.35 3.384-1.35 1.746 0 3.276.882 3.924 2.304l-.738.432c-.522-1.152-1.746-1.872-3.186-1.872-1.08 0-1.98.378-2.718 1.116-.738.738-1.098 1.638-1.098 2.718s.36 1.998 1.098 2.736c.738.738 1.638 1.098 2.718 1.098 1.44 0 2.646-.72 3.24-1.872l.756.45c-.72 1.386-2.25 2.286-3.996 2.286z"/>
    </g>
</svg>
