<svg xmlns="http://www.w3.org/2000/svg" width="39" height="36" viewBox="0 0 39 36">
    <path fill="#FFF" fill-rule="evenodd" d="M31.691 15.616c.266.373.249.86.302 1.297-.018.925.071 2.027-.107 2.968-.089.389-.373.794-.817.94-.71.292-1.668.21-2.325-.129-.55-.357-.622-.958-.692-1.525-.054-1.119-.142-2.303.195-3.324.266-.632.995-.795 1.65-.843.693 0 1.368.097 1.794.616zm-9.218 15.221c.053.105-.087.07-.122.105-1.854.404-3.918.422-5.771-.035-.035-.088.087-.105.139-.158 1.627-1.071 4.163-1.071 5.754.088zm-6.26-.404a1.374 1.374 0 0 1-.35.281c-1.47-.386-2.834-1.054-4.093-1.967v-.053c.42-.263.84-.544 1.294-.737.997 1.001 2.029 1.756 3.148 2.476zM27.3 28.694c-.98.791-2.116 1.317-3.27 1.756l-.822.264c-.14-.07-.263-.176-.385-.281l.035-.053a15.657 15.657 0 0 0 3.096-2.441c.472.194.926.457 1.346.755zm-1.871-1c-.56.649-1.277 1.211-1.942 1.685-.401.246-.804.51-1.224.72l-.752-.333.053-.123c.63-.861 1.19-1.739 1.679-2.669l.052-.036a9.64 9.64 0 0 1 2.134.756zm-9.62-.738c.509.966 1.138 1.879 1.767 2.792-.245.141-.541.228-.786.369a11.793 11.793 0 0 1-3.183-2.353v-.053a11.498 11.498 0 0 1 2.133-.773l.07.018zm6.91-.158l.016.052c-.489.949-1.101 1.862-1.766 2.722-.297.036-.577-.087-.874-.105l-.298-.035c-.035-1.036-.053-1.949 0-2.985.997.017 1.994.123 2.921.351zm-3.447 2.616c-.366.088-.768.088-1.119.176a15.597 15.597 0 0 1-1.818-2.757l.087-.07c.91-.176 1.854-.316 2.834-.316l.016 2.967zm-3.671-4.039c-.176 0-.368-.035-.49.018l.437 1.036-.053.053c-.787.228-1.557.509-2.308.825l-.07-.035a13.921 13.921 0 0 1-1.347-1.738c-.087-.299-.437-.123-.629-.159.42.773.979 1.458 1.539 2.16-.472.281-.944.598-1.434.826a12.73 12.73 0 0 1-2.764-2.968c-.21-.035-.35-.018-.56 0 1.26 2.002 3.219 3.758 5.265 4.794 0 0 0-.017.017-.017s.052.035.017.052c1.383.685 2.852 1.177 4.408 1.388 5.37.72 10.493-1.616 13.467-6.217a2.906 2.906 0 0 0-.56 0c-.735 1.071-1.662 2.107-2.676 2.915-.035.053-.14.035-.175-.017-.437-.281-.91-.51-1.329-.791.56-.685 1.102-1.369 1.52-2.125h-.54c-.438.65-.893 1.335-1.47 1.914-.77-.315-1.469-.596-2.256-.807l-.087-.071c.122-.351.35-.684.42-1.036h-.473l-.472.949c-1.032-.228-2.169-.352-3.218-.422-.052-.158.017-.386-.052-.527h-.456c-.034.211.053.369-.051.545a20.296 20.296 0 0 0-3.148.386l-.472-.931zM4.512 11.889l-1.084.017c-.017.931-.017 2.02 0 2.968.594.018 1.154 0 1.732.053v5.97l-.018.246-1.731.035a39.055 39.055 0 0 0 0 2.898h7.712v-2.898c-.578-.035-1.224.018-1.784-.052l.017-6.164.035-.053 1.732-.017c.018-1.001.035-2.073-.018-2.986l-6.593-.017zm29.714 1.053c-2.274-1.475-5.737-1.58-8.08-.246-1.277.668-2.116 1.985-2.378 3.337-.473 2.23-.35 4.882 1.328 6.55 1.96 1.756 4.81 2.143 7.346 1.423.12-.024.503-.123.765-.266l.075-.033a5.189 5.189 0 0 0 2.098-1.615c1.295-1.932 1.381-4.83.594-7.007-.314-.843-.962-1.598-1.748-2.143zm-14.831-.562c-1.923-.825-4.617-.913-6.366.369-1.136.843-1.487 2.353-1.189 3.688.227 1.264 1.416 2.195 2.554 2.634 1.556.562 3.182.966 4.756 1.51.157.07.367.229.333.422 0 .158-.158.246-.28.316-1.644.456-3.428.105-4.617-1.159-.14-.176-.227-.387-.368-.562l-2.36.017c-.036 1.423-.053 3.056 0 4.461l2.623-.018.035-.843c.297.141.595.317.891.475 1.82.772 4.163.948 5.965 0 1.311-.738 2.01-2.16 1.818-3.688-.192-1.493-1.591-2.845-3.007-3.214l-4.233-1.247-.315-.158c-.14-.123-.228-.281-.193-.474.333-.579 1.103-.404 1.68-.386 1.224.175 2.483.597 3.2 1.738.77 0 1.661.018 2.5-.017.036-1.44-.016-2.705-.034-4.162a40.446 40.446 0 0 0-2.536.017c-.034.211.035.51-.052.72l-.805-.439zm1.417-5.97c.682.878 1.347 1.773 1.8 2.739-.943.228-1.905.351-2.884.351-.035-.93-.018-1.967 0-2.932.35-.053.734-.106 1.084-.158zm-1.644.14c.053.913.018 1.967.018 2.933-.49.07-.927-.018-1.417-.053-.472-.07-1.067-.123-1.539-.281a15.597 15.597 0 0 1 1.818-2.757l1.12.158zm-1.696-.334l-.053.141c-.664.843-1.189 1.756-1.714 2.652l-.07.017a13.79 13.79 0 0 1-2.081-.72l.035-.105c.962-.931 1.976-1.704 3.095-2.301.263.106.525.194.788.316zm7.87 2.002l-.035.053c-.683.299-1.382.58-2.135.738a29.588 29.588 0 0 0-1.8-2.757c.244-.141.542-.246.803-.387a12.406 12.406 0 0 1 3.166 2.353zm-9.183-2.651a17.82 17.82 0 0 0-3.13 2.476c-.472-.176-.909-.439-1.33-.738V7.27a12.44 12.44 0 0 1 3.622-1.861c.052-.053.086-.106.157-.106v.035c.14.035.244-.123.367-.017.105.088.228.158.314.246zm11.019 1.668l-.035.07-1.207.685h-.088a15.134 15.134 0 0 0-3.113-2.423c.036-.123.21-.211.333-.299a12.331 12.331 0 0 1 4.11 1.967zm-4.81-2.142v.035c-1.521 1.124-3.987 1.229-5.596.193-.088-.07-.262-.106-.28-.228 1.854-.44 4.04-.475 5.877 0zm-1.8-.791a7.683 7.683 0 0 0-1.557-.017c-.193-.018-.42 0-.648.017-4.196.334-8.062 2.529-10.476 6.27.176-.018.385.052.56-.018.42-.597.892-1.177 1.417-1.739.454-.439.875-.86 1.364-1.176.455.298.962.544 1.399.825-.542.685-1.102 1.37-1.504 2.108.123.052.35.035.525 0 .437-.65.91-1.3 1.469-1.879.752.28 1.487.579 2.256.79l.07.07-.438 1.019c.193.035.316.017.508 0 .157-.299.28-.633.454-.931 1.015.228 2.081.351 3.166.386.14.123.035.386.088.545h.472c.051-.176-.018-.369.051-.527 1.015-.053 2.082-.158 3.062-.404l.087.017.473.914c.157 0 .366.035.489-.036l-.438-1.018.035-.035c.805-.211 1.557-.527 2.327-.843.541.579 1.05 1.264 1.503 1.932.193 0 .386.017.525-.036a6.878 6.878 0 0 0-.752-1.106 7.515 7.515 0 0 0-.77-.948v-.088l1.225-.72.175-.07a12.91 12.91 0 0 1 2.763 2.932c.21 0 .385.071.56-.017C28.665 6.936 24.8 4.636 20.62 4.302l-.018.035-.035-.035zM0 36V0h39v36H0z"/>
</svg>
