<svg xmlns="http://www.w3.org/2000/svg" width="85" height="20" viewBox="0 0 85 20">
    <path fill="#D71920" fill-rule="evenodd" d="M38.983 8.344c-.477 0-.947-.182-1.326-.513a2.443 2.443 0 0 1-.155-.15c-.049.052-.1.102-.155.15a2.02 2.02 0 0 1-1.325.513c-.49 0-.929-.191-1.233-.54-.507-.58-.51-1.44-.058-2.117a1.998 1.998 0 0 1-.87-.848 1.608 1.608 0 0 1-.093-1.345c.246-.633.888-1.042 1.635-1.042.142 0 .284.015.424.044.113-.931.827-1.65 1.69-1.65.861 0 1.575.718 1.69 1.647.134-.027.272-.041.41-.041.747 0 1.388.409 1.634 1.042.168.432.136.91-.093 1.345-.19.364-.499.662-.88.853.447.677.442 1.536-.062 2.112-.305.349-.743.54-1.233.54zm-1.48-1.803l.27.458c.08.132.18.252.3.357.512.449 1.292.464 1.668.033.38-.432.287-1.14-.207-1.608l-.418-.396.56-.14c.061-.014.124-.034.187-.058.325-.127.587-.354.737-.64a.985.985 0 0 0 .064-.824c-.15-.39-.563-.641-1.048-.641-.18 0-.359.035-.532.102l-.547.245.048-.537c.004-.046.006-.092.006-.14 0-.703-.482-1.276-1.074-1.276-.593 0-1.075.573-1.075 1.277 0 .049.002.097.007.145l.05.543-.496-.228a1.471 1.471 0 0 0-.6-.131c-.485 0-.896.252-1.048.64a.988.988 0 0 0 .064.825c.15.286.412.513.737.64.06.023.12.042.178.057l.557.14-.417.395c-.498.469-.59 1.177-.21 1.61.376.43 1.155.416 1.668-.033.12-.105.221-.225.3-.357l.27-.458zm1.559-1.73a1.545 1.545 0 1 1-3.09 0 1.545 1.545 0 0 1 3.09 0zM44.61.443h4.182v9.28l5.97-9.28h4.274V15.93h-4.182V6.637l-5.978 9.293H44.61V.442zM63.992 15.93V4.16h-3.407V.441h11.151V4.16h-3.408V15.93h-4.336zm20.71-5.11v4.402a6.411 6.411 0 0 1-1.892.874c-.672.184-1.435.276-2.29.276-2.331 0-4.234-.748-5.709-2.245-1.474-1.497-2.212-3.477-2.212-5.94 0-2.493.755-4.48 2.268-5.963C76.379.74 78.241-.002 80.454-.002c.81 0 1.578.112 2.301.333a7.396 7.396 0 0 1 1.947.906V5.73a5.88 5.88 0 0 0-1.715-1.372 4.214 4.214 0 0 0-1.958-.486c-1.181 0-2.139.42-2.877 1.261-.738.84-1.098 1.902-1.084 3.186-.014 1.21.34 2.21 1.062 2.998.723.79 1.689 1.184 2.899 1.184.664 0 1.305-.143 1.925-.431a6.128 6.128 0 0 0 1.748-1.25zM0 4.671h5.253V19.99H2.801V7.125H0V4.672zM9.08 19.99H6.529V3.397H2.801V.846H9.08V19.99zm12.768-6.502H42.6v2.437H21.775v-.004a43.208 43.208 0 0 1-1.399-.025c-.545-.04-1.218-.13-1.718-.262-.147-.04-.661-.207-.933-.366a5.443 5.443 0 0 1-2.992-4.86 5.457 5.457 0 0 1 5.457-5.456c2.98 0 5.399 2.39 5.45 5.358h-2.435a3.02 3.02 0 1 0-4.453 2.75 4 4 0 0 0 .75.27c.281.066.718.11 1.019.136.179.016 1.143.022 1.327.022zm-1.472 3.963a47.86 47.86 0 0 0 1.472.024h62.853V20H21.819a43.73 43.73 0 0 1-1.742-.037c-.932-.072-1.976-.24-2.828-.494a11.49 11.49 0 0 1-1.578-.66c-2.989-1.613-5.029-4.771-5.029-8.401 0-5.264 4.283-9.55 9.548-9.55 5.232 0 9.493 4.232 9.546 9.452h-2.534c-.053-3.822-3.177-6.918-7.012-6.918a7.024 7.024 0 0 0-7.016 7.016c0 2.819 1.675 5.25 4.077 6.363.137.063.672.259.802.297.689.2 1.565.333 2.323.383z"/>
</svg>
