<svg xmlns="http://www.w3.org/2000/svg" width="49" height="26" viewBox="0 0 49 26">
    <path fill="#94D1B6" fill-rule="evenodd" d="M45.978 15.042l-2.183 2.184-2.624-2.623c-.562-.562-1.559-.562-2.121 0l-2.624 2.623-2.623-2.623c-.562-.562-1.559-.562-2.121 0l-2.64 2.641h-3.773c.012-.035.02-.072.031-.107.077-.227.145-.457.209-.689a12.333 12.333 0 0 0 .356-1.748c.021-.168.048-.334.063-.504.037-.396.06-.794.061-1.194v-.007c0-.402-.023-.803-.062-1.201-.015-.165-.04-.326-.062-.489a12.447 12.447 0 0 0-.231-1.27 14.338 14.338 0 0 0-.329-1.164c-.014-.039-.022-.081-.037-.121h18.548c1.191 0 2.161.969 2.161 2.161v4.131h.001zm-22.989-2.047c0 .405-.03.809-.081 1.209-.01.088-.026.176-.04.264-.05.334-.114.664-.198.992-.018.064-.033.131-.051.195a10.1 10.1 0 0 1-.963 2.305c-1.727 3-4.959 5.029-8.661 5.029C7.484 22.989 3 18.507 3 12.995 3 7.484 7.484 3 12.995 3c3.702 0 6.934 2.029 8.661 5.028.417.726.736 1.499.96 2.297.021.071.037.144.056.216.082.32.145.645.195.971.014.093.031.185.042.278.049.397.079.799.08 1.201v.004zm20.828-7.247H23.775C21.438 2.283 17.478 0 12.995 0 5.83 0 0 5.83 0 12.995c0 7.166 5.83 12.994 12.995 12.994 4.483 0 8.443-2.283 10.78-5.746h5.889c.397 0 .779-.158 1.061-.439l2.019-2.02 2.019 2.02a1.5 1.5 0 0 0 1.061.439h1.21c.397 0 .779-.158 1.061-.439l2.019-2.02 2.019 2.02a1.5 1.5 0 0 0 1.061.439h1.21c.397 0 .779-.158 1.061-.439l3.078-3.08a1.5 1.5 0 0 0 .439-1.061V10.91a5.173 5.173 0 0 0-5.165-5.162zm-32.822 9.409a2.165 2.165 0 0 1-2.161-2.162c0-1.192.97-2.161 2.161-2.161s2.161.969 2.161 2.161c0 1.191-.97 2.162-2.161 2.162zm0-7.323a5.166 5.166 0 0 0-5.161 5.161 5.168 5.168 0 0 0 5.161 5.162 5.167 5.167 0 0 0 5.161-5.162 5.167 5.167 0 0 0-5.161-5.161z"/>
</svg>
