<svg xmlns="http://www.w3.org/2000/svg" width="31" height="42" viewBox="0 0 31 42">
    <path fill="#94D1B6" fill-rule="evenodd" d="M21.48 10.86a3.702 3.702 0 0 0-3.143.159A3.685 3.685 0 0 0 15.5 9.675c-1.147 0-2.159.53-2.836 1.343-.107-.056-.207-.122-.32-.167a3.712 3.712 0 0 0-2.823.009 3.644 3.644 0 0 0-1.991 1.979 3.567 3.567 0 0 0-.061 2.564c.009.039.024.077.036.115.014.037.02.074.035.11.002.005.007.009.009.015l.01.029 2.697 5.767a1.32 1.32 0 0 0 1.75.636c.662-.302.95-1.075.645-1.729l-2.678-5.727a1.018 1.018 0 0 1-.002-.79 1.04 1.04 0 0 1 .569-.564c.258-.108.544-.109.803-.003a1.039 1.039 0 0 1 .571.562c.035.079.076.156.124.227.024.034.054.062.079.093.028.034.054.07.085.101.031.03.067.054.101.082.033.026.063.055.097.078.033.02.066.034.1.053.041.022.082.047.127.066.039.015.08.024.119.036.041.013.082.029.124.037.085.018.172.026.26.026h.014a1.204 1.204 0 0 0 .449-.086c.015-.005.03-.007.046-.013v-.001c.082-.034.159-.075.231-.124.033-.02.06-.048.089-.072.037-.029.074-.055.108-.089.031-.031.056-.066.084-.1.026-.032.055-.061.077-.096.022-.033.037-.068.057-.103.02-.039.045-.077.062-.119.02-.043.029-.088.042-.132.011-.036.025-.071.033-.109a1.29 1.29 0 0 0 .027-.258c0-.572.472-1.038 1.051-1.038.58 0 1.052.466 1.052 1.038v.002c0 .087.01.172.027.256.009.046.026.09.04.134.012.036.02.072.035.107.018.045.043.085.068.127.017.032.03.065.052.095.023.037.054.068.082.101.025.032.05.065.08.095.038.037.08.069.123.102.024.019.046.041.073.058a1.333 1.333 0 0 0 1.006.199c.006 0 .01-.003.016-.005.08-.017.155-.039.228-.069.023-.01.044-.024.066-.035.054-.026.108-.052.159-.085.019-.013.035-.03.054-.044.051-.036.1-.072.143-.115.018-.018.034-.042.052-.062a1.055 1.055 0 0 0 .235-.358 1.058 1.058 0 0 1 1.944.005c.107.255.104.537-.004.793l-2.676 5.725a1.296 1.296 0 0 0 .643 1.729c.18.082.367.12.553.12a1.32 1.32 0 0 0 1.198-.756l2.695-5.767c.005-.009.006-.018.01-.026.003-.006.008-.012.01-.018.019-.04.023-.082.039-.122.011-.034.023-.067.031-.102a3.567 3.567 0 0 0-.06-2.566 3.658 3.658 0 0 0-1.993-1.979m-3.626 28.535h-4.71c-.728 0-1.32.583-1.32 1.303 0 .719.592 1.302 1.32 1.302h4.71c.728 0 1.32-.583 1.32-1.302 0-.72-.592-1.303-1.32-1.303m3.792-12.922a1.3 1.3 0 0 0-.686 1.143v1.828c0 1.504-1.24 2.728-2.763 2.728H12.8c-1.522 0-2.763-1.223-2.763-2.728v-1.829c0-.476-.263-.914-.686-1.143-4.141-2.23-6.714-6.507-6.714-11.161 0-7.004 5.77-12.704 12.861-12.704 7.093 0 12.863 5.7 12.863 12.704 0 4.653-2.573 8.929-6.715 11.162M15.499 0C6.952 0 0 6.869 0 15.31c0 5.345 2.816 10.277 7.401 13.056v1.077c0 2.942 2.422 5.334 5.4 5.334h5.397c2.977 0 5.4-2.392 5.4-5.334v-1.077C28.183 25.589 31 20.656 31 15.31 30.999 6.869 24.046 0 15.5 0m3.791 35.783h-7.584c-.728 0-1.32.584-1.32 1.303s.592 1.303 1.32 1.303h7.584c.728 0 1.32-.584 1.32-1.303s-.592-1.303-1.32-1.303"/>
</svg>
