<svg xmlns="http://www.w3.org/2000/svg" width="40" height="40" viewBox="0 0 40 40">
    <path fill="#94D1B6" fill-rule="evenodd" d="M20 25.712c-2.595-1.503-6.16-4.293-6.16-6.409 0-1.795 1-2.91 2.614-2.91.91 0 2.056.798 2.514 1.512.45.703 1.614.704 2.064 0 .459-.714 1.604-1.512 2.514-1.512 1.613 0 2.614 1.115 2.614 2.91 0 2.116-3.565 4.906-6.16 6.41zm3.546-11.77c-1.296 0-2.596.65-3.546 1.475-.95-.825-2.25-1.475-3.546-1.475-2.982 0-5.064 2.205-5.064 5.36 0 4.478 7.21 8.454 8.033 8.892a1.22 1.22 0 0 0 1.154 0c.822-.438 8.033-4.414 8.033-8.892 0-3.155-2.082-5.36-5.064-5.36zM30.78 34.51a1.228 1.228 0 0 0-1.102.13 17.48 17.48 0 0 1-9.68 2.91c-9.676 0-17.548-7.873-17.548-17.55C2.45 10.321 10.324 2.45 20 2.45c9.676 0 17.549 7.873 17.549 17.55 0 3.456-1.006 6.803-2.911 9.678a1.224 1.224 0 0 0-.128 1.102l2.19 5.921-5.92-2.19zm6.239-4.008A19.91 19.91 0 0 0 40 20C40 8.971 31.028 0 20 0S0 8.971 0 20c0 11.028 8.972 20 20 20 3.729 0 7.347-1.028 10.502-2.98l7.847 2.905a1.225 1.225 0 0 0 1.575-1.574l-2.904-7.849z"/>
</svg>
