<svg xmlns="http://www.w3.org/2000/svg" width="32" height="32" viewBox="0 0 32 32">
    <path fill="#94D1B6" fill-rule="evenodd" d="M25.724 27.751H10v-15.5h1.875a1.5 1.5 0 0 0 1.319-.787l4.575-8.463h2.246l-1.606 7.434c-.096.443.014.905.299 1.258.284.354.714.559 1.167.559h8.362l-2.513 15.499zM3 28.751h4v-17.5H3v17.5zM31.143 9.778A1.503 1.503 0 0 0 30 9.251h-8.266l1.606-7.434a1.497 1.497 0 0 0-.299-1.258A1.496 1.496 0 0 0 21.874 0h-5a1.5 1.5 0 0 0-1.319.787L10.98 9.25H9.908c-.207-.581-.756-1-1.408-1h-7A1.5 1.5 0 0 0 0 9.75v20.5a1.5 1.5 0 0 0 1.5 1.5h7c.652 0 1.201-.419 1.408-1H27c.735 0 1.363-.533 1.48-1.26l3-18.5a1.5 1.5 0 0 0-.337-1.212z"/>
</svg>
