<svg xmlns="http://www.w3.org/2000/svg" width="218" height="32" viewBox="0 0 218 32">
    <g fill="none" fill-rule="evenodd">
        <path fill="#94D1B7" d="M21 0L0 16l21 16 21-16z"/>
        <path fill="#0B7B7B" d="M33 0L12 16l21 16 21-16z"/>
        <path fill="#091F18" d="M153.267 18.408c.425-.795.637-1.706.637-2.735 0-1.028-.212-1.94-.637-2.734a4.625 4.625 0 0 0-1.745-1.847c-.739-.435-1.564-.654-2.476-.654-.912 0-1.737.219-2.476.654a4.622 4.622 0 0 0-1.745 1.847c-.424.794-.636 1.706-.636 2.734 0 1.029.212 1.94.636 2.735a4.62 4.62 0 0 0 1.745 1.846c.74.436 1.564.654 2.476.654.912 0 1.737-.218 2.476-.654a4.624 4.624 0 0 0 1.745-1.846zm.248-10.097a8.068 8.068 0 0 1 3.124 3.027c.755 1.285 1.132 2.73 1.132 4.335s-.377 3.05-1.132 4.335a8.066 8.066 0 0 1-3.124 3.027c-1.329.732-2.818 1.099-4.469 1.099-1.478 0-2.83-.293-4.056-.877a8.1 8.1 0 0 1-3.03-2.454c-.794-1.052-1.301-2.255-1.52-3.61h-2.17v6.489a.505.505 0 0 1-.508.503h-2.781a.505.505 0 0 1-.508-.503V7.996c0-.278.227-.503.508-.503h2.781c.28 0 .508.225.508.503v5.925h2.216a8.09 8.09 0 0 1 1.569-3.495 8.016 8.016 0 0 1 3.006-2.372c1.21-.56 2.539-.841 3.985-.841 1.651 0 3.14.366 4.47 1.098zM85.641 20.937c2.004.018 3.426-1.433 3.42-3.491-.005-2.026-1.337-3.386-3.336-3.407-2.008-.022-3.5 1.465-3.482 3.468.018 1.946 1.47 3.412 3.398 3.43zm.183-10.188c3.831.04 6.695 2.972 6.664 6.824-.03 3.759-3.069 6.71-6.866 6.67-3.8-.041-6.792-3.046-6.77-6.798.021-3.838 3.04-6.736 6.972-6.696zm37.99.001c.28 0 .507.226.507.503v2.326a.505.505 0 0 1-.508.503h-3.54v9.535a.505.505 0 0 1-.507.503h-2.594a.505.505 0 0 1-.508-.503v-9.444h-3.774a.505.505 0 0 1-.508-.503v-2.417c0-.277.227-.503.508-.503h10.923zm78.29.028c.28 0 .508.225.508.503v2.325a.505.505 0 0 1-.508.503h-3.539v9.535a.505.505 0 0 1-.507.503h-2.595a.505.505 0 0 1-.508-.503V14.2h-3.774a.505.505 0 0 1-.508-.503v-2.416c0-.278.227-.503.508-.503h10.923zm-14.512.013c.28 0 .508.225.508.503v12.354a.505.505 0 0 1-.508.503h-2.673a.505.505 0 0 1-.508-.503v-6.981l-5.344 7.278a.509.509 0 0 1-.41.206h-2.614a.505.505 0 0 1-.508-.503V11.294c0-.278.228-.503.508-.503h2.674c.28 0 .507.225.507.503v6.983l5.367-7.28a.509.509 0 0 1 .41-.206h2.591zm-15.87-.03c.28 0 .507.225.507.503V23.63a.505.505 0 0 1-.508.503h-2.602a.505.505 0 0 1-.507-.503v-4.383h-5.036v4.38c0 .279-.23.506-.512.504-.882-.004-1.743-.019-2.6-.023a.504.504 0 0 1-.505-.502V11.245c0-.278.227-.504.507-.504h2.602c.28 0 .508.226.508.504v4.417c1.847 0 3.232-.01 5.036-.01v-4.39c0-.277.23-.503.51-.503l2.6.002zm45.52.03c.28 0 .508.225.508.503v12.354a.505.505 0 0 1-.508.503h-2.673a.505.505 0 0 1-.508-.503v-6.981l-5.344 7.278a.509.509 0 0 1-.41.206h-2.614a.505.505 0 0 1-.508-.503V11.294c0-.278.228-.503.508-.503h2.674c.28 0 .507.225.507.503v6.983l5.367-7.28a.509.509 0 0 1 .41-.206h2.591zM76.871 20.861l.73 1.788a.498.498 0 0 1-.261.648c-1.3.547-2.762.846-4.317.846-4.386 0-8.865-2.604-8.865-8.275.024-5.95 4.432-8.646 8.818-8.646 1.466 0 2.933.278 4.232.835.257.11.364.415.247.666l-.807 1.74a.503.503 0 0 1-.619.267 7.506 7.506 0 0 0-2.467-.417c-2.884 0-5.793 1.627-5.793 5.555-.023 3.58 2.932 5.16 5.793 5.16.962 0 1.876-.154 2.667-.45a.504.504 0 0 1 .642.283zm52.531-5.495c.906 0 1.64.728 1.64 1.626 0 .897-.734 1.625-1.64 1.625-.905 0-1.64-.728-1.64-1.625 0-.898.735-1.626 1.64-1.626zm-24.919 5.547c1.66-.191 2.949-1.587 2.949-3.283s-1.289-3.092-2.949-3.283v6.566zm-6.388-3.283c0 1.705 1.302 3.107 2.974 3.287v-6.574c-1.672.18-2.974 1.582-2.974 3.287zm6.388-6.716c3.563.2 6.4 3.135 6.4 6.716 0 3.58-2.837 6.516-6.4 6.716v2.099a.505.505 0 0 1-.507.503h-2.426a.505.505 0 0 1-.507-.503v-2.099c-3.563-.2-6.4-3.136-6.4-6.716s2.837-6.516 6.4-6.716V8.547c0-.278.227-.503.507-.503h2.426c.28 0 .507.225.507.503v2.367z"/>
    </g>
</svg>
