<svg xmlns="http://www.w3.org/2000/svg" width="43" height="35" viewBox="0 0 43 35">
    <path fill="#94D1B6" fill-rule="evenodd" d="M27.869 11.293a2.274 2.274 0 0 1 2.974.246c.816.815.915 2.041.243 2.981l-5.318 7.495c-.31 2.37-2.32 4.21-4.772 4.21a4.84 4.84 0 0 1-4.835-4.835c0-2.439 1.82-4.44 4.17-4.769l7.538-5.328zm-6.873 12.432a2.337 2.337 0 0 0 2.335-2.335 2.338 2.338 0 0 0-2.335-2.336 2.338 2.338 0 0 0-2.335 2.336 2.337 2.337 0 0 0 2.335 2.335zm4.034-4.99l3.38-4.763-4.775 3.375c.555.364 1.03.835 1.395 1.388zM5.118 30.803a54.66 54.66 0 0 1 16.127-2.426c5.515 0 10.918.823 16.117 2.423a18.439 18.439 0 0 0 2.595-8.385h-4.463a1.25 1.25 0 1 1 0-2.5h4.438C39.27 10.618 31.81 3.189 22.495 2.568V6.62a1.25 1.25 0 1 1-2.5 0V2.567A18.633 18.633 0 0 0 8.9 7.18l3.162 3.163a1.248 1.248 0 0 1-.884 2.133c-.32 0-.639-.122-.883-.366l-3.16-3.16a18.643 18.643 0 0 0-4.566 10.965H6.7a1.25 1.25 0 0 1 0 2.5H2.542a18.593 18.593 0 0 0 2.576 8.388zm35.816 1.218a1.25 1.25 0 0 1-.898 2.333 52.066 52.066 0 0 0-18.79-3.477 52.12 52.12 0 0 0-16.319 2.6l-.025.007c-.82.27-1.638.558-2.448.87a1.248 1.248 0 0 1-1.615-.718 1.248 1.248 0 0 1 .716-1.615c.375-.145.756-.271 1.133-.407A21.163 21.163 0 0 1 0 21.254C0 9.543 9.518.014 21.221.004c.008 0 .015-.004.024-.004.01 0 .018.006.028.006C32.981.024 42.5 9.548 42.5 21.254c0 3.666-.933 7.215-2.706 10.357.38.137.763.264 1.14.41z"/>
</svg>
