<svg xmlns="http://www.w3.org/2000/svg" width="41" height="38" viewBox="0 0 41 38">
    <path fill="#94D1B6" fill-rule="evenodd" d="M20.251 34.653c-6.852 0-11.896-.171-15.866-1.021-.899-.191-1.32-.57-1.41-.833-.094-.276.161-.63.32-.817 1.486-1.736 8.21-3.705 10.742-4.447.984-.288 1.336-.392 1.568-.493a2.187 2.187 0 0 0 1.254-1.397c.4-1.333-.428-2.861-1.382-4.313l-.163-.248c-.658-1.002-.814-1.24-1.02-2.275-.15-.76-.71-1.957-1.363-2.618-.265-.36-.734-2.035-.556-2.676.221-.443.68-1.364.61-2.371-.107-1.552.04-2.973.436-4.226.467-1.475 1.921-2.883 3.617-3.503 1.171-.43 2.23-.465 3.213-.465.984 0 2.042.036 3.214.465 1.697.62 3.15 2.029 3.616 3.504.397 1.25.544 2.672.437 4.225-.069 1.008.39 1.928.617 2.376.166.615-.282 2.29-.507 2.607-.696.713-1.268 1.923-1.418 2.68-.208 1.037-.363 1.275-1.02 2.276l-.164.248c-.954 1.452-1.782 2.98-1.382 4.314.19.634.635 1.13 1.253 1.395.231.1.583.206 1.57.496 2.531.74 9.255 2.71 10.74 4.443.16.189.414.546.321.819-.09.265-.515.643-1.41.834-3.972.85-9.016 1.02-15.867 1.02m7.042-9.948l-.683-.201c.127-.304.381-.79.881-1.552l.166-.252c.727-1.11 1.128-1.72 1.446-3.315.052-.264.364-.918.636-1.197.86-.882 1.77-3.878 1.186-5.63a3.191 3.191 0 0 0-.16-.363c-.278-.562-.31-.772-.305-.848.132-1.926-.059-3.714-.567-5.317-.739-2.337-2.864-4.451-5.415-5.384C22.851.05 21.443 0 20.251 0c-1.192 0-2.6.05-4.227.645-2.549.93-4.675 3.044-5.416 5.383-.508 1.607-.699 3.396-.567 5.318.004.062-.017.27-.309.855a3.529 3.529 0 0 0-.155.356c-.584 1.752.326 4.748 1.185 5.63.273.279.585.934.636 1.197.318 1.597.72 2.207 1.448 3.317l.164.25c.5.76.754 1.247.882 1.552-.208.062-.448.132-.684.2-5.245 1.537-10.348 3.25-12.154 5.362-.98 1.145-1.29 2.45-.874 3.678.465 1.375 1.773 2.386 3.588 2.774 4.224.903 9.438 1.085 16.483 1.085 7.043 0 12.257-.182 16.482-1.085 1.816-.388 3.124-1.4 3.59-2.774.415-1.226.104-2.532-.876-3.68-1.807-2.11-6.909-3.823-12.154-5.36"/>
</svg>
