<svg xmlns="http://www.w3.org/2000/svg" width="15" height="20" viewBox="0 0 15 20">
    <path fill="#94D1B6" fill-rule="nonzero" d="M7.927 17.245a27.74 27.74 0 0 0 2.204-2.383c1.643-2.007 2.734-3.98 3.027-5.754a5.61 5.61 0 0 0 .077-.913c0-4.088-2.445-6.4-5.735-6.4-3.29 0-5.735 2.312-5.735 6.4 0 .295.026.6.077.913.293 1.774 1.384 3.747 3.028 5.754a27.74 27.74 0 0 0 2.63 2.785c.136-.124.278-.259.427-.402zM15 8.195c0 .397-.035.8-.102 1.21-.355 2.149-1.586 4.375-3.41 6.605a29.501 29.501 0 0 1-3.122 3.256c-.143.128-.247.217-.306.266L7.5 20l-.56-.468a26.866 26.866 0 0 1-1.081-.986c-.8-.77-1.598-1.623-2.346-2.536C1.688 13.78.457 11.554.102 9.405A7.428 7.428 0 0 1 0 8.195C0 3.085 3.263 0 7.5 0S15 3.086 15 8.195zM9 7.5a1.5 1.5 0 1 0-3 0 1.5 1.5 0 0 0 3 0zm2 0a3.5 3.5 0 1 1-7 0 3.5 3.5 0 0 1 7 0z"/>
</svg>
