<svg xmlns="http://www.w3.org/2000/svg" width="42" height="42" viewBox="0 0 42 42">
    <path fill="#94D1B6" fill-rule="evenodd" d="M19.486 19.485a2.155 2.155 0 0 0 0 3.036c.395.396.953.626 1.51.626.567 0 1.125-.231 1.52-.626a2.153 2.153 0 0 0 0-3.036c-.797-.798-2.231-.798-3.03 0M29.68 22.29h4.166c-.604 6.093-5.464 10.953-11.56 11.559v-4.17a1.286 1.286 0 0 0-2.573 0v4.17c-6.09-.607-10.95-5.466-11.556-11.56h4.168a1.286 1.286 0 1 0 0-2.572H8.158c.604-6.093 5.463-10.953 11.557-11.56v4.169a1.287 1.287 0 0 0 2.573 0V8.158c6.095.606 10.953 5.466 11.558 11.559h-4.165a1.286 1.286 0 1 0 0 2.573m11.037-2.573h-4.3c-.62-7.512-6.62-13.51-14.131-14.132V1.287a1.287 1.287 0 0 0-2.573 0v4.298c-7.51.623-13.508 6.62-14.13 14.132H1.287a1.286 1.286 0 1 0 0 2.573h4.296c.622 7.51 6.62 13.51 14.13 14.132v4.297a1.287 1.287 0 0 0 2.573 0v-4.297C29.799 35.8 35.797 29.8 36.42 22.29h4.299a1.287 1.287 0 1 0 0-2.573"/>
</svg>
