<svg xmlns="http://www.w3.org/2000/svg" width="42" height="42" viewBox="0 0 42 42">
    <path fill="#94D1B6" fill-rule="evenodd" d="M40.02 19.505h-4.54l-2.278-4.352a1.491 1.491 0 0 0-.158-.241c-.027-.033-.057-.062-.128-.132a.844.844 0 0 0-.075-.072 1.543 1.543 0 0 0-.183-.126l-.056-.037a1.537 1.537 0 0 0-.265-.112l-.065-.013a1.231 1.231 0 0 0-.227-.044 1.39 1.39 0 0 0-.118-.003c-.057-.001-.112-.003-.168.003a.853.853 0 0 0-.12.02 1.211 1.211 0 0 0-.168.036c-.03.009-.056.02-.084.033l.099.229-.16-.206-.05.02-.02-.004-.05.037a1.455 1.455 0 0 0-.124.08 1.528 1.528 0 0 0-.263.224l-.055.057a1.668 1.668 0 0 0-.126.184l-.035.055c-.03.053-.055.11-.077.166l-.048.026v.117l-4.816 15.792-7.358-26.186c-.013-.044-.031-.087-.071-.183-.012-.03-.024-.06-.04-.09l-.076-.12c-.024-.04-.05-.08-.081-.12a.906.906 0 0 0-.062-.066.844.844 0 0 0-.201-.182 1.467 1.467 0 0 0-.174-.117l-.058-.026a1.664 1.664 0 0 0-.217-.09.459.459 0 0 0-.08-.017 1.288 1.288 0 0 0-.194-.038c-.035-.004-.07-.004-.157-.005a.942.942 0 0 0-.13 0c-.065.007-.13.02-.2.036l-.083.017a1.569 1.569 0 0 0-.215.084l-.06.026a2.088 2.088 0 0 0-.236.153 1.718 1.718 0 0 0-.202.197c-.033.037-.061.08-.117.165a.82.82 0 0 0-.047.073l-.04.08.232.097-.257-.036c-.02.044-.04.088-.058.145l-5.246 17.206-1.02-1.95a.548.548 0 0 0-.041-.065A1.333 1.333 0 0 0 9 19.995a1.5 1.5 0 0 0-.462-.344 1.372 1.372 0 0 0-.563-.139l-.042.246-.024-.252H2.475c-.813 0-1.475.662-1.475 1.475 0 .813.662 1.475 1.475 1.475h4.542l2.275 4.348c.054.104.125.203.216.304l.06.062c.077.073.158.137.237.186l.155-.197-.1.234c.104.06.204.104.327.139.126.037.255.057.334.05l.078.012a1.485 1.485 0 0 0 .559-.12.706.706 0 0 0 .122-.048c.046-.023.088-.052.147-.095l-.121-.22.178.182c.11-.083.208-.182.294-.297l.036-.054c.09-.133.154-.262.194-.394l4.827-15.827 7.355 26.177c.039.133.099.26.189.399l.04.059c.083.112.178.21.285.293l.058.04c.107.075.22.135.34.179l.073.029c.13.04.27.066.366.057l.067.008.046-.003c.123-.003.245-.022.398-.07l.06-.023c.115-.043.225-.1.324-.167l.056-.037c.103-.077.199-.173.284-.284l-.198-.153.249.08c.082-.121.144-.248.19-.39l5.247-17.203 1.049 1.995c.052.092.112.176.182.254l.202-.147-.16.196c.077.078.166.149.273.218l.084.046c.08.043.165.08.263.11l.079.024c.13.032.243.047.355.047h5.434c.813 0 1.475-.661 1.475-1.476a1.485 1.485 0 0 0-1.48-1.474z"/>
</svg>
