<svg xmlns="http://www.w3.org/2000/svg" width="19" height="14" viewBox="0 0 19 14">
    <path fill="#097B7B" fill-rule="evenodd" d="M6.328 0l1.015 1.289c-1.85.937-3.224 2.753-3.76 5.272.238-.059.477-.059.716-.059C6.149 6.502 8 7.908 8 10.251 8 12.36 6.09 14 4.239 14 1.85 14 0 12.243 0 9.49 0 5.682 2.627 1.464 6.328 0zm10.988 0l1.022 1.289c-1.864.937-3.248 2.753-3.79 5.272.241-.059.482-.059.723-.059 1.864 0 3.729 1.406 3.729 3.749C19 12.36 17.075 14 15.21 14 12.866 14 11 12.243 11 9.49c0-3.808 2.647-8.026 6.316-9.49z"/>
</svg>
