<svg xmlns="http://www.w3.org/2000/svg" width="46" height="33" viewBox="0 0 46 33">
    <path fill="#94D1B6" fill-rule="nonzero" d="M33.336 16.813v-1.979h-6.407a2.801 2.801 0 0 1-2.801-2.801V2.802A2.802 2.802 0 0 1 26.928 0h15.314a2.801 2.801 0 0 1 2.8 2.802v9.231a2.8 2.8 0 0 1-2.8 2.801h-6.406v1.98h2.617a1.25 1.25 0 0 1 0 2.5h-7.735a1.25 1.25 0 0 1 0-2.5h2.618zM9.208 30.395v-1.98H2.8A2.801 2.801 0 0 1 0 25.616v-9.231a2.802 2.802 0 0 1 2.801-2.802h15.313a2.801 2.801 0 0 1 2.801 2.802v9.23a2.8 2.8 0 0 1-2.801 2.802h-6.406v1.979h2.617a1.25 1.25 0 0 1 0 2.5H6.59a1.25 1.25 0 0 1 0-2.5h2.618zm8.906-4.48a.3.3 0 0 0 .301-.3v-9.231a.301.301 0 0 0-.301-.302H2.801a.302.302 0 0 0-.301.302v9.23c0 .167.135.302.301.302h15.313zm24.128-13.581a.3.3 0 0 0 .3-.301V2.802a.301.301 0 0 0-.3-.302H26.929a.302.302 0 0 0-.301.302v9.231c0 .166.135.301.3.301h15.314zm-6.28 10.808a1.25 1.25 0 0 1 2.5 0v4.287c0 .69-.559 1.25-1.25 1.25H24.8a1.25 1.25 0 0 1 0-2.5h11.164v-3.037zM10.015 10.158a1.25 1.25 0 0 1-2.5 0V5.872c0-.69.56-1.25 1.25-1.25h12.414a1.25 1.25 0 0 1 0 2.5H10.014v3.036z"/>
</svg>
