<svg xmlns="http://www.w3.org/2000/svg" width="33" height="33" viewBox="0 0 33 33">
    <path fill="#94D1B6" fill-rule="evenodd" d="M7.13 20.424a1.36 1.36 0 0 1 1.359 1.358v5.757a1.36 1.36 0 0 1-1.358 1.358H1.36A1.36 1.36 0 0 1 0 27.539c0-.75.61-1.358 1.36-1.358h2.363a15.989 15.989 0 0 1-3.61-10.138C.113 7.197 7.31 0 16.156 0c1.53 0 3.045.216 4.502.64a1.36 1.36 0 0 1 .273 2.496 1.347 1.347 0 0 1-1.034.112 13.38 13.38 0 0 0-3.741-.532C8.809 2.716 2.83 8.695 2.83 16.043c0 3.049 1.037 5.97 2.942 8.333v-2.594a1.36 1.36 0 0 1 1.358-1.358zm23.936-14.52h-2.475a15.99 15.99 0 0 1 3.611 10.14c0 8.845-7.198 16.042-16.044 16.042-1.53 0-3.046-.216-4.502-.641a1.347 1.347 0 0 1-.81-.65 1.347 1.347 0 0 1-.113-1.035c.102-.348.333-.635.651-.81a1.345 1.345 0 0 1 1.034-.112c1.21.353 2.468.53 3.74.53 7.348 0 13.326-5.977 13.326-13.325 0-2.98-.998-5.848-2.83-8.188v2.448a1.36 1.36 0 0 1-2.717 0v-5.81l.016-.063c-.01-.053.014-.19.06-.321.08-.204.142-.312.22-.41.114-.131.214-.217.327-.29.165-.1.29-.148.421-.18l.127-.024a.938.938 0 0 1 .106-.011l5.852-.005a1.36 1.36 0 0 1 1.358 1.358 1.36 1.36 0 0 1-1.358 1.358z"/>
</svg>
