<svg xmlns="http://www.w3.org/2000/svg" width="96" height="96" viewBox="0 0 96 96">
    <g fill="none" fill-rule="evenodd">
        <path fill="#C1272D" d="M0 96h96V0H0z"/>
        <g fill="#FFF">
            <path d="M66.298 60.75a2 2 0 0 0-2 2v22.814H17.64V39.158c.624-.098 1.26-.164 1.91-.164h3.78l-3.076 3.076a2.002 2.002 0 0 0 1.415 3.414c.512 0 1.024-.195 1.415-.586l6.489-6.49a1.999 1.999 0 0 0-.001-2.828l-6.49-6.489a2 2 0 1 0-2.827 2.828l3.075 3.075h-3.78c-.647 0-1.282.048-1.91.122v-9.019h46.658V46a2 2 0 0 0 4 0V24.097a2 2 0 0 0-2-2H15.64a2 2 0 0 0-2 2v12.021c-6.09 2.376-10.423 8.29-10.423 15.21a16.27 16.27 0 0 0 4.482 11.241c.394.414.922.623 1.452.623.494 0 .989-.181 1.376-.548a2.003 2.003 0 0 0 .075-2.829 12.276 12.276 0 0 1-3.385-8.487c0-4.66 2.599-8.723 6.423-10.821v47.057a2 2 0 0 0 2 2h50.658a2 2 0 0 0 2-2V62.75a2 2 0 0 0-2-2"/>
            <path d="M58.028 32.473H41.7a2 2 0 1 0 0 4h16.328a2 2 0 0 0 0-4M58.028 40.648H41.7a2 2 0 0 0 0 4h16.328a2 2 0 0 0 0-4M58.028 48.822h-34.63a2 2 0 0 0 0 4h34.63a2 2 0 0 0 0-4M58.028 56.997h-34.63a2 2 0 0 0 0 4h34.63a2 2 0 0 0 0-4M58.028 65.172H23.343a2 2 0 0 0 0 4h34.685a2 2 0 0 0 0-4M58.028 73.349H23.343a2 2 0 0 0 0 4h34.685a2 2 0 0 0 0-4"/>
            <path d="M92.784 40.37c0-4.204-1.592-8.196-4.483-11.242a2 2 0 1 0-2.9 2.754 12.277 12.277 0 0 1 3.383 8.487c0 4.46-2.388 8.362-5.944 10.53V9.555a2 2 0 0 0-2-2H30.181a2 2 0 0 0-2 2V17a2 2 0 0 0 4 0v-5.444h46.66v40.91c-.775.152-1.574.236-2.39.236h-3.78l3.075-3.075a2 2 0 1 0-2.828-2.828l-6.489 6.49a1.998 1.998 0 0 0 0 2.827l6.49 6.49c.39.391.901.586 1.413.586s1.023-.195 1.414-.586a2 2 0 0 0 0-2.828l-3.075-3.076h3.78c.812 0 1.606-.079 2.39-.195v14.516h-5.474a2 2 0 0 0 0 4h7.473a2 2 0 0 0 2-2V55.398c5.84-2.492 9.944-8.29 9.944-15.029"/>
        </g>
    </g>
</svg>
