<svg xmlns="http://www.w3.org/2000/svg" width="24" height="32" viewBox="0 0 24 32">
    <path fill="#94D1B6" fill-rule="evenodd" d="M6.574 10.871c.691 0 1.252-.56 1.252-1.25V1.25a1.251 1.251 0 0 0-2.503 0v8.37a1.25 1.25 0 0 0 1.251 1.25zm-5.322 3.714c.691 0 1.251-.56 1.251-1.252V1.253a1.251 1.251 0 1 0-2.503 0v12.08c0 .691.561 1.252 1.252 1.252zM22.537 0c-.69 0-1.25.56-1.25 1.252v12.081a1.252 1.252 0 0 0 2.502 0V1.253C23.79.558 23.23 0 22.537 0zm-5.32 10.871a1.25 1.25 0 0 0 1.25-1.25V1.25a1.251 1.251 0 1 0-2.503 0v8.37c0 .69.561 1.25 1.252 1.25zm-5.322-4.404a1.25 1.25 0 0 0 1.251-1.25V1.25a1.25 1.25 0 1 0-2.503 0v3.965c0 .692.561 1.251 1.252 1.251zm4.447 15.562c-.295.287-.429.7-.36 1.108l.828 4.825-4.333-2.278a1.256 1.256 0 0 0-1.165 0L6.98 27.962l.828-4.825a1.251 1.251 0 0 0-.36-1.108l-3.506-3.418 4.844-.704c.407-.058.76-.315.943-.684l2.167-4.39 2.167 4.39c.182.37.535.626.942.684l4.844.704-3.506 3.418zm6.376-5.53l-6.703-.973-2.997-6.074a1.254 1.254 0 0 0-2.246 0l-2.997 6.074-6.703.973a1.253 1.253 0 0 0-.694 2.136l4.85 4.727-1.144 6.676a1.25 1.25 0 0 0 1.815 1.32l5.996-3.153 5.995 3.153a1.254 1.254 0 0 0 1.816-1.32l-1.145-6.676 4.85-4.728a1.252 1.252 0 0 0-.693-2.135z"/>
</svg>
