<svg xmlns="http://www.w3.org/2000/svg" width="31" height="40" viewBox="0 0 31 40">
    <path fill="#94D1B6" fill-rule="evenodd" d="M21.052 20H16.56v-4.49a1.224 1.224 0 1 0-2.45 0V20h-4.49a1.225 1.225 0 0 0 0 2.45h4.49v4.49a1.224 1.224 0 1 0 2.45 0v-4.49h4.49a1.226 1.226 0 0 0 0-2.45zm7.17 17.55H2.45V2.45h18.31v6.24c0 .677.548 1.224 1.224 1.224h6.24V37.55h-.001zM23.21 4.183l3.283 3.283h-3.283V4.182zm7.439 4.266c-.011-.053-.03-.102-.047-.153-.01-.025-.014-.051-.023-.076a1.116 1.116 0 0 0-.085-.16c-.01-.016-.017-.034-.027-.05a1.24 1.24 0 0 0-.153-.186L22.85.36a1.176 1.176 0 0 0-.186-.152c-.015-.01-.031-.016-.045-.025a1.145 1.145 0 0 0-.166-.088c-.022-.01-.047-.014-.07-.021-.051-.018-.103-.038-.16-.05a1.14 1.14 0 0 0-.24-.024H1.224C.549 0 0 .548 0 1.225v37.55C0 39.45.548 40 1.225 40h28.223c.676 0 1.224-.55 1.224-1.225V8.69c0-.083-.008-.164-.024-.242z"/>
</svg>
