<svg xmlns="http://www.w3.org/2000/svg" width="36" height="36" viewBox="0 0 36 36">
    <path fill="#94D1B6" fill-rule="evenodd" d="M10.803 10.801c-2.568 2.567-2.568 6.746 0 9.316a1.5 1.5 0 1 1-2.122 2.121c-3.738-3.74-3.738-9.822 0-13.559a1.501 1.501 0 0 1 2.122 2.122zm4.652 17.112c6.87 0 12.457-5.588 12.457-12.457 0-6.869-5.588-12.457-12.457-12.457C8.587 2.999 3 8.587 3 15.456c0 6.868 5.587 12.457 12.455 12.457zm11.932-2.641l7.865 7.864a1.501 1.501 0 0 1-2.121 2.122l-7.866-7.865a15.39 15.39 0 0 1-9.81 3.521C6.933 30.914 0 23.979 0 15.457 0 6.934 6.933 0 15.455 0c8.523 0 15.457 6.934 15.457 15.457a15.39 15.39 0 0 1-3.525 9.815z"/>
</svg>
