<svg xmlns="http://www.w3.org/2000/svg" width="34" height="40" viewBox="0 0 34 40">
    <path fill="#94D1B6" fill-rule="evenodd" d="M19.83 19.091a1.226 1.226 0 0 0-.352 1.085l.563 3.282-2.948-1.55a1.22 1.22 0 0 0-1.14 0l-2.947 1.55.563-3.282a1.23 1.23 0 0 0-.353-1.085l-2.386-2.326 3.297-.479c.399-.058.744-.309.922-.67l1.474-2.987 1.475 2.987c.178.361.524.612.922.67l3.297.479-2.386 2.326zm-2.207-9.772a1.228 1.228 0 0 0-2.198 0l-2.288 4.635-5.115.744a1.224 1.224 0 0 0-.68 2.09l3.703 3.608-.874 5.095a1.225 1.225 0 0 0 1.778 1.292l4.574-2.408 4.576 2.407a1.228 1.228 0 0 0 1.29-.094c.378-.275.566-.738.488-1.198l-.874-5.095 3.702-3.608a1.225 1.225 0 0 0-.68-2.09l-5.115-.744-2.287-4.634zm12.973 14.158c0 6.025-9.72 11.887-14.074 13.948C12.167 35.364 2.45 29.502 2.45 23.477V3.478a13.458 13.458 0 0 0 6.424 1.614c2.758 0 5.384-.813 7.649-2.359a13.466 13.466 0 0 0 7.649 2.359c2.273 0 4.458-.553 6.424-1.614v19.999zM31.809 0c-.275 0-.54.091-.756.261a11.073 11.073 0 0 1-6.881 2.38c-2.512 0-4.891-.823-6.88-2.38a1.292 1.292 0 0 0-1.537 0 11.07 11.07 0 0 1-6.882 2.38c-2.511 0-4.89-.823-6.88-2.38A1.255 1.255 0 0 0 1.225 0C.548 0 0 .548 0 1.225v22.252c0 9.136 15.367 16.124 16.02 16.416a1.213 1.213 0 0 0 1.002 0c.655-.292 16.024-7.28 16.024-16.416V1.225C33.046.549 32.485 0 31.809 0z"/>
</svg>
