<svg xmlns="http://www.w3.org/2000/svg" width="154" height="20" viewBox="0 0 154 20">
    <path fill="#091F18" fill-rule="evenodd" d="M89.11 11.195c.424-.794.636-1.706.636-2.734 0-1.029-.212-1.94-.637-2.735a4.625 4.625 0 0 0-1.745-1.847c-.739-.435-1.564-.654-2.475-.654-.913 0-1.738.219-2.476.654a4.622 4.622 0 0 0-1.746 1.847c-.424.794-.636 1.706-.636 2.735 0 1.028.212 1.94.636 2.734a4.62 4.62 0 0 0 1.746 1.846c.738.437 1.563.655 2.476.655.911 0 1.736-.218 2.475-.655a4.624 4.624 0 0 0 1.745-1.846zm.247-10.097a8.068 8.068 0 0 1 3.125 3.027c.754 1.286 1.131 2.731 1.131 4.336 0 1.605-.377 3.05-1.131 4.335a8.066 8.066 0 0 1-3.125 3.026c-1.329.733-2.818 1.1-4.468 1.1-1.479 0-2.83-.293-4.057-.877a8.1 8.1 0 0 1-3.03-2.454c-.793-1.052-1.3-2.256-1.52-3.611h-2.17v6.489a.505.505 0 0 1-.507.503h-2.782a.505.505 0 0 1-.508-.503V.783c0-.277.227-.502.508-.502h2.782c.28 0 .507.225.507.502v5.925h2.217a8.09 8.09 0 0 1 1.568-3.494A8.016 8.016 0 0 1 80.903.842C82.113.28 83.442 0 84.89 0c1.65 0 3.14.366 4.468 1.098zM21.483 13.724c2.004.019 3.426-1.433 3.42-3.491-.005-2.026-1.337-3.386-3.336-3.407-2.008-.022-3.5 1.465-3.482 3.468.018 1.947 1.47 3.412 3.398 3.43zm.183-10.188c3.831.04 6.695 2.973 6.664 6.824-.03 3.759-3.069 6.71-6.866 6.67-3.8-.041-6.792-3.046-6.77-6.798.021-3.837 3.04-6.736 6.972-6.696zm37.99.002c.28 0 .507.225.507.503v2.325a.505.505 0 0 1-.508.503h-3.54v9.535a.505.505 0 0 1-.506.503h-2.595a.505.505 0 0 1-.508-.503V6.96h-3.774a.505.505 0 0 1-.508-.503V4.041c0-.278.227-.503.508-.503h10.923zm78.29.027c.28 0 .508.225.508.503v2.326a.505.505 0 0 1-.507.503h-3.54v9.535a.505.505 0 0 1-.507.502h-2.595a.505.505 0 0 1-.507-.502V6.987h-3.775a.505.505 0 0 1-.508-.503V4.068c0-.278.228-.503.508-.503h10.924zm-14.512.013c.28 0 .508.226.508.503v12.355a.505.505 0 0 1-.508.503h-2.673a.505.505 0 0 1-.507-.503V9.454l-5.345 7.278a.509.509 0 0 1-.41.207h-2.614a.505.505 0 0 1-.507-.503V4.08c0-.277.227-.503.507-.503h2.674c.28 0 .507.226.507.503v6.984l5.367-7.28a.509.509 0 0 1 .41-.207h2.591zm-15.87-.03c.28 0 .507.225.507.503v12.367a.505.505 0 0 1-.508.503h-2.602a.505.505 0 0 1-.507-.503v-4.382h-5.036v4.38c0 .278-.23.505-.512.504-.882-.005-1.743-.02-2.6-.024a.504.504 0 0 1-.505-.502V4.032c0-.278.227-.503.507-.503h2.602c.28 0 .508.225.508.503v4.417c1.847 0 3.232-.009 5.036-.009V4.05c0-.278.23-.503.51-.503l2.6.001zm45.52.03c.28 0 .508.226.508.503v12.355a.505.505 0 0 1-.508.503h-2.673a.505.505 0 0 1-.508-.503V9.454l-5.344 7.278a.509.509 0 0 1-.41.207h-2.614a.505.505 0 0 1-.508-.503V4.08c0-.277.228-.503.508-.503h2.674c.28 0 .507.226.507.503v6.984l5.367-7.28a.509.509 0 0 1 .41-.207h2.591zM12.713 13.648l.73 1.788a.498.498 0 0 1-.261.648c-1.3.547-2.762.846-4.317.846C4.479 16.93 0 14.327 0 8.655.024 2.705 4.432.01 8.818.01c1.467 0 2.933.278 4.232.835.257.11.364.415.247.666l-.807 1.741a.503.503 0 0 1-.619.267A7.506 7.506 0 0 0 9.404 3.1c-2.884 0-5.792 1.628-5.792 5.555-.024 3.58 2.931 5.16 5.792 5.16.963 0 1.876-.154 2.667-.449a.504.504 0 0 1 .642.283zm52.531-5.494c.906 0 1.64.727 1.64 1.625s-.734 1.625-1.64 1.625c-.905 0-1.64-.727-1.64-1.625s.735-1.625 1.64-1.625zM40.326 13.7c1.66-.191 2.948-1.587 2.948-3.283s-1.289-3.092-2.948-3.283V13.7zm-6.389-3.283c0 1.705 1.302 3.108 2.974 3.287V7.13c-1.672.18-2.974 1.582-2.974 3.287zm6.389-6.716c3.563.2 6.4 3.136 6.4 6.716s-2.837 6.516-6.4 6.716v2.1a.505.505 0 0 1-.508.502h-2.426a.505.505 0 0 1-.507-.503v-2.099c-3.563-.2-6.4-3.135-6.4-6.716 0-3.58 2.837-6.516 6.4-6.716V1.334c0-.278.227-.503.507-.503h2.426c.28 0 .508.225.508.503v2.367z"/>
</svg>
