<svg xmlns="http://www.w3.org/2000/svg" width="24" height="24" viewBox="0 0 24 24">
    <path fill="#097B7B" fill-rule="evenodd" d="M16.331 7.277c-.15-.434-.025-.92.3-1.251l1.1-1.15c-1.675-1.48-3.775-2.323-6-2.323-2.475 0-4.8.996-6.55 2.783-3.6 3.677-3.6 9.702 0 13.379 3.625 3.676 9.5 3.676 13.1 0a9.436 9.436 0 0 0 2.625-5.387c.1-.69.725-1.175 1.4-1.073.675.102 1.15.74 1.05 1.43a11.929 11.929 0 0 1-3.325 6.817c-2.3 2.324-5.3 3.498-8.3 3.498-3 0-6-1.149-8.3-3.498-4.575-4.672-4.575-12.28 0-16.953C5.656 1.302 8.606.05 11.731.05c2.9 0 5.625 1.072 7.775 3.013l1.175-1.2c.325-.332.8-.434 1.25-.307.45.128.775.511.875.97l.95 5.133c.075.408-.05.817-.35 1.123-.225.23-.55.357-.875.357-.075 0-.15 0-.225-.025l-5.025-.97a1.194 1.194 0 0 1-.95-.868zM11.3 6c.716 0 1.326.558 1.353 1.244v4.644l2.784 1.802c.583.406.742 1.168.344 1.752a1.317 1.317 0 0 1-1.087.558c-.265 0-.53-.05-.742-.203l-3.368-2.157A1.232 1.232 0 0 1 10 12.599V7.244C10 6.558 10.583 6 11.3 6z"/>
</svg>
