<svg xmlns="http://www.w3.org/2000/svg" width="27" height="33" viewBox="0 0 27 33">
    <path fill="#94D1B6" fill-rule="evenodd" d="M14.067 22.047a1.499 1.499 0 0 0-1.727 0l-7.636 5.378c1.165-5.651 5.262-9.655 8.215-9.9.094.005.191.023.285.023.094 0 .19-.019.285-.023 2.953.245 7.049 4.249 8.215 9.9l-7.637-5.378zM7.61 29.048l5.594-3.939 5.594 3.939H7.61zM4.448 3H21.96c-.632 6.496-5.244 11.259-8.474 11.523-.094-.004-.189-.023-.282-.023-.093 0-.188.019-.282.023C9.692 14.258 5.08 9.496 4.448 3zm20.518 26.054c-.475-5.8-3.646-10.675-7.254-13.03 3.607-2.356 6.779-7.23 7.254-13.03A1.497 1.497 0 0 0 24.908 0H1.5a1.496 1.496 0 1 0-.058 2.994c.475 5.8 3.646 10.674 7.253 13.03-3.608 2.355-6.779 7.23-7.253 13.03a1.497 1.497 0 0 0 .058 2.994h23.408a1.498 1.498 0 1 0 .058-2.994zM9.601 5.191A1.502 1.502 0 0 0 6.782 6.22c.617 1.688 1.555 3.247 2.714 4.506a1.499 1.499 0 0 0 2.119.088 1.5 1.5 0 0 0 .088-2.12c-.892-.971-1.62-2.183-2.102-3.503z"/>
</svg>
