<svg xmlns="http://www.w3.org/2000/svg" width="42" height="42" viewBox="0 0 42 42">
    <path fill="#94D1B6" fill-rule="evenodd" d="M28.045 25.879a12.532 12.532 0 0 1-.362 3.006c-.674.113-1.377.173-2.046.165-.431-.025-.861-.021-1.29-.064l3.685-3.685c.009.192.013.385.013.577v.001zm-10.81-.008l7.983-7.982a12.517 12.517 0 0 1 2.256 4.207l-6.19 6.189a12.613 12.613 0 0 1-4.05-2.414zm6.1-9.865l-7.905 7.906a12.604 12.604 0 0 1-2.09-4.373l5.788-5.788a12.52 12.52 0 0 1 4.208 2.255zm-10.041-2.661c.87-.142 1.75-.194 2.629-.153l-2.984 2.984a12.5 12.5 0 0 1 .355-2.831zM10.49 18.92a15.138 15.138 0 0 0 3.328 7.246 15.44 15.44 0 0 0 1.17 1.256 15.207 15.207 0 0 0 6.776 3.799c1.265.327 2.53.491 3.872.491.343.003.67-.01 1.006-.033a12.704 12.704 0 0 1-11.296 6.899c-7.004-.005-12.698-5.707-12.693-12.711a12.707 12.707 0 0 1 7.775-11.698 15.483 15.483 0 0 0 .062 4.751zm19.875 3.73a13.894 13.894 0 0 0-.532-1.903 15.377 15.377 0 0 0-9.355-9.355 13.971 13.971 0 0 0-1.9-.532 15.252 15.252 0 0 0-3.218-.343c-.326.019-.685.011-1.028.032C17.35 4.657 24.49 2.028 30.658 4.683a12.625 12.625 0 0 1 6.779 6.97 12.624 12.624 0 0 1-.136 9.722 12.652 12.652 0 0 1-2.683 3.956l-.001.001a12.67 12.67 0 0 1-4.064 2.735 15.86 15.86 0 0 0 .155-2.188 15.208 15.208 0 0 0-.343-3.229zM40.5 12.467a15.38 15.38 0 0 0-4-6.979v-.001c-5.997-5.988-15.75-5.983-21.74.015a15.456 15.456 0 0 0-3.56 5.585 15.253 15.253 0 0 0-9.1 7.04A15.252 15.252 0 0 0 .51 29.77c1.81 6.884 8.046 11.451 14.852 11.451 1.288 0 2.598-.164 3.9-.507a15.326 15.326 0 0 0 10.512-9.563c8.044-2.25 12.846-10.572 10.726-18.684z"/>
</svg>
