<svg xmlns="http://www.w3.org/2000/svg" xmlns:xlink="http://www.w3.org/1999/xlink" width="150" height="34" viewBox="0 0 150 34">
    <defs>
        <path id="a" d="M7.638 14.492H4.21V2.744H.017V.022h11.848v2.722H7.638z"/>
        <linearGradient id="b" x1="50%" x2="50%" y1="100%" y2="0%">
            <stop offset="0%" stop-color="#086ED1"/>
            <stop offset="100%" stop-color="#0E8EE8"/>
        </linearGradient>
        <path id="d" d="M2.155.872C.739 1.852.02 3.472.02 5.686c0 1.721.445 3.057 1.324 3.971 1.08 1.12 2.728 1.287 3.614 1.287l-.001.001c1.555 0 2.866-.44 3.594-1.21.878-.918.957-1.858.99-2.26l.017-.207H6.564c-.21.953-.7 1.385-1.567 1.363-1.59-.033-1.791-1.23-1.817-2.246h6.61c.062-1.319-.043-2.664-.597-3.882C8.132.341 6.135.02 5.037.02a5.181 5.181 0 0 0-2.882.853m2.785 1.5c1.174 0 1.485.948 1.522 1.818h-3.17c.071-.67.379-1.818 1.648-1.818"/>
        <linearGradient id="e" x1="49.642%" x2="50.39%" y1="99.995%" y2="-.006%">
            <stop offset="0%" stop-color="#086ED1"/>
            <stop offset="100%" stop-color="#0E8EE8"/>
        </linearGradient>
        <path id="g" d="M1.599.86C.467 1.67.424 2.83.406 3.327l-.008.2h3.224v-.192c0-.219 0-.49.181-.77.199-.289.548-.461.935-.461.145 0 .876.033 1.107.687.096.29.122.546.126 1.053v.003c-2.25.091-2.64.185-3.753.56C.303 5.292.017 6.814.017 7.642c.026 1.809 1.259 3.211 3.51 3.133l.37.002c1.226-.051 2.323-1.014 2.362-1.218h.023s.06.898.126.998l2.982-.012-.05-.232c-.154-.72-.23-1.525-.23-2.455L9.09 3.9c0-.411 0-1.663-.73-2.541C7.358.198 5.636.025 4.7.025c-1.284 0-2.327.28-3.101.835M3.692 8.3c-.826-.678-.928-2.462 2.346-2.392.086 1.925-.818 2.648-1.602 2.648-.28 0-.545-.092-.744-.255"/>
        <linearGradient id="h" x1="50%" x2="50%" y1="99.875%" y2="-.125%">
            <stop offset="0%" stop-color="#086ED1"/>
            <stop offset="100%" stop-color="#0E8EE8"/>
        </linearGradient>
        <path id="j" d="M3.257 1.17L3.183.215H.002l.02.21c.066.704.096 1.286.096 1.833v8.181h3.295v-5.98c0-.658 0-2.029 1.624-2.029 1.318 0 1.429 1.017 1.429 1.971v6.036H9.76v-5.12c0-1.635.116-2.886 1.585-2.886 1.218 0 1.467.811 1.467 2.03v5.977h3.294v-5.91c.003-.837.006-1.988-.512-2.83C15.317 1.193 14.451.02 12.42.02c-1.431 0-2.463.526-3.15 1.61C8.538.294 7.19 0 6.15 0 4.565 0 3.71.667 3.258 1.17z"/>
        <linearGradient id="k" x1="50%" x2="50%" y1="100%" y2="0%">
            <stop offset="0%" stop-color="#086ED1"/>
            <stop offset="100%" stop-color="#0E8EE8"/>
        </linearGradient>
        <path id="m" d="M10.567.008l-4.36 12.468L1.814.008H.017l5.292 14.45h1.697L12.264.008z"/>
        <path id="o" d="M.002.005v1.844h1.752V.006H.002zM.1 14.457h1.556V4.293H.1v10.164z"/>
        <linearGradient id="p" x1="49.999%" x2="49.999%" y1="100%" y2="0%">
            <stop offset="0%" stop-color="#086ED1"/>
            <stop offset="100%" stop-color="#0E8EE8"/>
        </linearGradient>
        <path id="r" d="M.003 5.392c0 2.676 1.39 5.376 4.49 5.376l-.002-.008c1.76-.043 3.895-.371 4.683-3.791H7.541l-.034.15c-.28 1.288-1.368 2.188-2.644 2.188-2.675 0-3.138-2.276-3.199-3.453h7.572c0-3.78-1.617-5.81-4.666-5.837C1.432.017.003 2.802.003 5.392m4.588-3.918c1.695 0 2.77 1.064 2.973 2.929H1.72c.19-1.396 1.037-2.93 2.87-2.93"/>
        <linearGradient id="s" x1="50%" x2="50%" y1="100%" y2="0%">
            <stop offset="0%" stop-color="#086ED1"/>
            <stop offset="100%" stop-color="#0E8EE8"/>
        </linearGradient>
        <path id="u" d="M14.528.012L11.832 7.84 9.036.01h-1.63L4.542 7.928 1.714.012H.017l3.76 10.163H5.21L8.17 2.06l2.895 8.115h1.398L16.258.012z"/>
        <path id="w" d="M.003 5.392c0 2.676 1.39 5.376 4.49 5.376l-.002-.008c1.736-.03 3.883-.441 4.683-3.791H7.541c-.365 1.614-1.394 2.307-2.678 2.338-2.675 0-3.138-2.276-3.199-3.453h7.572C9.269 2.367 7.783.02 4.57.017 1.432.017.003 2.802.003 5.392m4.588-3.918c1.695 0 2.77 1.064 2.973 2.929H1.72c.19-1.396 1.037-2.93 2.87-2.93"/>
        <linearGradient id="x" x1="50%" x2="50%" y1="100%" y2="0%">
            <stop offset="0%" stop-color="#086ED1"/>
            <stop offset="100%" stop-color="#0E8EE8"/>
        </linearGradient>
        <path id="z" d="M3.735.017c-.827.033-1.6.509-2.074 1.24L1.623.308H.024l.012.203c.041.711.11 1.415.097 2.19v7.77h1.54l.066-6.329c.033-1.266.642-3.041 3.368-2.576V.228L5.103.045 4.92.037a16.778 16.778 0 0 0-.834-.028 6.82 6.82 0 0 0-.35.008"/>
        <path id="B" d="M3.521 0C1.571.025.003 1.588 0 3.507V30.47C-.01 32.407 1.575 33.986 3.541 34H30.54c1.967-.014 3.55-1.593 3.541-3.53V3.53C34.09 1.59 32.5.01 30.53 0H3.52zm-.569 17C2.9 9.293 9.2 3.001 17.027 2.942 24.859 2.996 31.164 9.289 31.112 17c.052 7.71-6.253 14.004-14.085 14.058C9.199 30.998 2.9 24.707 2.952 17z"/>
        <linearGradient id="C" x1="50%" x2="50%" y1="100.283%" y2="-.032%">
            <stop offset="0%" stop-color="#086ED1"/>
            <stop offset="100%" stop-color="#0E8EE8"/>
        </linearGradient>
        <path id="E" d="M17.15 2.897H8.988L9.774.01.005 4.519 9.78 9.025l-.785-2.887h8.161l-.785 2.887 9.762-4.506v-.003L16.365.01z"/>
        <linearGradient id="F" x1="50.006%" x2="49.994%" y1="100.012%" y2="-.012%">
            <stop offset="0%" stop-color="#086ED1"/>
            <stop offset="100%" stop-color="#0E8EE8"/>
        </linearGradient>
    </defs>
    <g fill="none" fill-rule="evenodd">
        <g transform="translate(41.036 9.695)">
            <mask id="c" fill="#fff">
                <use xlink:href="#a"/>
            </mask>
            <path fill="url(#b)" d="M7.638 14.492H4.21V2.744H.017V.022h11.848v2.722H7.638z" mask="url(#c)"/>
        </g>
        <g transform="translate(50.888 13.613)">
            <mask id="f" fill="#fff">
                <use xlink:href="#d"/>
            </mask>
            <path fill="url(#e)" d="M2.155.872C.739 1.852.02 3.472.02 5.686c0 1.721.445 3.057 1.324 3.971 1.08 1.12 2.728 1.287 3.614 1.287l-.001.001c1.555 0 2.866-.44 3.594-1.21.878-.918.957-1.858.99-2.26l.017-.207H6.564c-.21.953-.7 1.385-1.567 1.363-1.59-.033-1.791-1.23-1.817-2.246h6.61c.062-1.319-.043-2.664-.597-3.882C8.132.341 6.135.02 5.037.02a5.181 5.181 0 0 0-2.882.853m2.785 1.5c1.174 0 1.485.948 1.522 1.818h-3.17c.071-.67.379-1.818 1.648-1.818" mask="url(#f)"/>
        </g>
        <g transform="translate(62.004 13.646)">
            <mask id="i" fill="#fff">
                <use xlink:href="#g"/>
            </mask>
            <path fill="url(#h)" d="M1.599.86C.467 1.67.424 2.83.406 3.327l-.008.2h3.224v-.192c0-.219 0-.49.181-.77.199-.289.548-.461.935-.461.145 0 .876.033 1.107.687.096.29.122.546.126 1.053v.003c-2.25.091-2.64.185-3.753.56C.303 5.292.017 6.814.017 7.642c.026 1.809 1.259 3.211 3.51 3.133l.37.002c1.226-.051 2.323-1.014 2.362-1.218h.023s.06.898.126.998l2.982-.012-.05-.232c-.154-.72-.23-1.525-.23-2.455L9.09 3.9c0-.411 0-1.663-.73-2.541C7.358.198 5.636.025 4.7.025c-1.284 0-2.327.28-3.101.835M3.692 8.3c-.826-.678-.928-2.462 2.346-2.392.086 1.925-.818 2.648-1.602 2.648-.28 0-.545-.092-.744-.255" mask="url(#i)"/>
        </g>
        <g transform="translate(73.086 13.746)">
            <mask id="l" fill="#fff">
                <use xlink:href="#j"/>
            </mask>
            <path fill="url(#k)" d="M3.257 1.17L3.183.215H.002l.02.21c.066.704.096 1.286.096 1.833v8.181h3.295v-5.98c0-.658 0-2.029 1.624-2.029 1.318 0 1.429 1.017 1.429 1.971v6.036H9.76v-5.12c0-1.635.116-2.886 1.585-2.886 1.218 0 1.467.811 1.467 2.03v5.977h3.294v-5.91c.003-.837.006-1.988-.512-2.83C15.317 1.193 14.451.02 12.42.02c-1.431 0-2.463.526-3.15 1.61C8.538.294 7.19 0 6.15 0 4.565 0 3.71.667 3.258 1.17z" mask="url(#l)"/>
        </g>
        <g transform="translate(90.16 9.729)">
            <mask id="n" fill="#fff">
                <use xlink:href="#m"/>
            </mask>
            <path fill="url(#k)" d="M10.567.008l-4.36 12.468L1.814.008H.017l5.292 14.45h1.697L12.264.008z" mask="url(#n)"/>
        </g>
        <g transform="translate(103.539 9.729)">
            <mask id="q" fill="#fff">
                <use xlink:href="#o"/>
            </mask>
            <path fill="url(#p)" d="M.002.005v1.844h1.752V.006H.002zM.1 14.457h1.556V4.293H.1v10.164z" mask="url(#q)"/>
        </g>
        <g transform="translate(107.233 13.713)">
            <mask id="t" fill="#fff">
                <use xlink:href="#r"/>
            </mask>
            <path fill="url(#s)" d="M.003 5.392c0 2.676 1.39 5.376 4.49 5.376l-.002-.008c1.76-.043 3.895-.371 4.683-3.791H7.541l-.034.15c-.28 1.288-1.368 2.188-2.644 2.188-2.675 0-3.138-2.276-3.199-3.453h7.572c0-3.78-1.617-5.81-4.666-5.837C1.432.017.003 2.802.003 5.392m4.588-3.918c1.695 0 2.77 1.064 2.973 2.929H1.72c.19-1.396 1.037-2.93 2.87-2.93" mask="url(#t)"/>
        </g>
        <g transform="translate(116.918 14.012)">
            <mask id="v" fill="#fff">
                <use xlink:href="#u"/>
            </mask>
            <path fill="url(#b)" d="M14.528.012L11.832 7.84 9.036.01h-1.63L4.542 7.928 1.714.012H.017l3.76 10.163H5.21L8.17 2.06l2.895 8.115h1.398L16.258.012z" mask="url(#v)"/>
        </g>
        <g transform="translate(133.559 13.713)">
            <mask id="y" fill="#fff">
                <use xlink:href="#w"/>
            </mask>
            <path fill="url(#x)" d="M.003 5.392c0 2.676 1.39 5.376 4.49 5.376l-.002-.008c1.736-.03 3.883-.441 4.683-3.791H7.541c-.365 1.614-1.394 2.307-2.678 2.338-2.675 0-3.138-2.276-3.199-3.453h7.572C9.269 2.367 7.783.02 4.57.017 1.432.017.003 2.802.003 5.392m4.588-3.918c1.695 0 2.77 1.064 2.973 2.929H1.72c.19-1.396 1.037-2.93 2.87-2.93" mask="url(#y)"/>
        </g>
        <g transform="translate(144.875 13.713)">
            <mask id="A" fill="#fff">
                <use xlink:href="#z"/>
            </mask>
            <path fill="url(#k)" d="M3.735.017c-.827.033-1.6.509-2.074 1.24L1.623.308H.024l.012.203c.041.711.11 1.415.097 2.19v7.77h1.54l.066-6.329c.033-1.266.642-3.041 3.368-2.576V.228L5.103.045 4.92.037a16.778 16.778 0 0 0-.834-.028 6.82 6.82 0 0 0-.35.008" mask="url(#A)"/>
        </g>
        <g>
            <mask id="D" fill="#fff">
                <use xlink:href="#B"/>
            </mask>
            <path fill="url(#C)" d="M3.521 0C1.571.025.003 1.588 0 3.507V30.47C-.01 32.407 1.575 33.986 3.541 34H30.54c1.967-.014 3.55-1.593 3.541-3.53V3.53C34.09 1.59 32.5.01 30.53 0H3.52zm-.569 17C2.9 9.293 9.2 3.001 17.027 2.942 24.859 2.996 31.164 9.289 31.112 17c.052 7.71-6.253 14.004-14.085 14.058C9.199 30.998 2.9 24.707 2.952 17z" mask="url(#D)"/>
        </g>
        <g transform="translate(3.96 12.484)">
            <mask id="G" fill="#fff">
                <use xlink:href="#E"/>
            </mask>
            <path fill="url(#F)" d="M17.15 2.897H8.988L9.774.01.005 4.519 9.78 9.025l-.785-2.887h8.161l-.785 2.887 9.762-4.506v-.003L16.365.01z" mask="url(#G)"/>
        </g>
    </g>
</svg>
