<svg width="26" height="32" viewBox="0 0 26 32" fill="none" xmlns="http://www.w3.org/2000/svg">
<path d="M0.328362 8.10327L16.0045 9.21259C16.0045 9.21259 13.5002 18.4606 18.5226 29.9817L2.95615 31.2001C2.95615 31.2001 -1.17205 20.9 0.328362 8.10327Z" fill="#224186"/>
<path d="M17.0793 26.1357L6.30762 26.809L10.3398 30.6248L18.5222 29.9816C18.5222 29.9816 17.2796 26.9834 17.0793 26.1357Z" fill="#224186"/>
<path d="M5.18315 4.08838L20.8593 5.17862C20.8593 5.17862 19.5811 16.678 21.9236 25.8251L6.30777 26.809C6.30777 26.809 3.23014 17.5501 5.18315 4.08838Z" fill="#3F64E5"/>
<path d="M21.9269 25.836C21.9269 25.836 21.2713 23.1458 21.1698 22.0774C21.0683 21.0089 10.3213 22.7288 10.3213 22.7288L14.3919 26.3048L21.9269 25.836Z" fill="#3F64E5"/>
<path d="M10.3211 0L26.0001 1.10932C26.0001 1.10932 23.6575 12.6414 26.0001 21.7885L10.3211 22.7288C10.3211 22.7288 8.36812 13.4727 10.3211 0Z" fill="#559FF6"/>
</svg>
