<svg width="40" height="49" viewBox="0 0 40 49" fill="none" xmlns="http://www.w3.org/2000/svg">
<g clip-path="url(#clip0_1353_10)">
<path d="M0.506622 12.5476L24.6231 14.2654C24.6231 14.2654 20.7704 28.5856 28.4969 46.4257L4.54924 48.3122C4.54924 48.3122 -1.80164 32.3629 0.506622 12.5476Z" fill="#9F9F9F"/>
<path d="M26.2769 40.4705L9.70557 41.513L15.9088 47.4217L28.4966 46.4257C28.4966 46.4257 26.585 41.7831 26.2769 40.4705Z" fill="#9F9F9F"/>
<path d="M7.97543 6.33075L32.0919 8.01896C32.0919 8.01896 30.1254 25.8253 33.7292 39.9894L9.70557 41.513C9.70557 41.513 4.97089 27.1759 7.97543 6.33075Z" fill="#D4D2D2"/>
<path d="M33.7336 40.0063C33.7336 40.0063 32.7251 35.8406 32.5689 34.1862C32.4128 32.5317 15.8794 35.1949 15.8794 35.1949L22.1417 40.7322L33.7336 40.0063Z" fill="#D4D2D2"/>
<path d="M15.8793 0L40 1.71775C40 1.71775 36.3962 19.5747 40 33.7388L15.8793 35.1949C15.8793 35.1949 12.8748 20.862 15.8793 0Z" fill="#E8E8E7"/>
</g>
<defs>
<clipPath id="clip0_1353_10">
<rect width="40" height="48.3333" fill="white"/>
</clipPath>
</defs>
</svg>
