<svg width="600" height="254" viewBox="0 0 600 254" fill="none" xmlns="http://www.w3.org/2000/svg">
<path d="M217.6 118.7H214.7V82.4H224.6C227.7 82.4 230.1 83.2 231.7 84.9C233.3 86.6 234.1 89.1 234.1 92.4C234.1 94.4 233.7 96.1 232.8 97.6C231.9 99.1 230.7 100.2 229 100.9C230.8 101.5 232 102.5 232.8 103.9C233.5 105.3 233.9 107.2 233.9 109.4V112.8C233.9 113.9 234 115 234.2 115.8C234.4 116.7 234.7 117.4 235.2 118V118.6H232.2C231.7 118 231.3 117.2 231.2 116.1C231 115.1 231 113.9 231 112.7V109.4C231 107.1 230.5 105.4 229.5 104.1C228.5 102.8 227.1 102.2 225.2 102.2H217.6V118.7Z" fill="#0000F0"/>
<path d="M217.6 99.7V85H224.5C226.8 85 228.4 85.6 229.5 86.9C230.6 88.2 231.1 90 231.1 92.4C231.1 94.7 230.6 96.5 229.5 97.7C228.4 99 226.7 99.6 224.2 99.6H217.6V99.7Z" fill="white"/>
<path d="M255.1 104.8H244.1V116.1H256.8V118.7H241.2V89.6H256.8V92.2H244.1V102.2H255.1V104.8Z" fill="#0000F0"/>
<path d="M265.8 107.8V118.7H262.9V89.6H271.7C274.3 89.6 276.3 90.4 277.7 92.1C279.1 93.8 279.8 96 279.8 98.7C279.8 101.4 279.1 103.6 277.7 105.3C276.3 107 274.2 107.8 271.6 107.8H265.8Z" fill="#0000F0"/>
<path d="M265.8 105.2V92.2H271.7C273.5 92.2 274.8 92.8 275.6 94.1C276.5 95.4 276.9 96.9 276.9 98.8C276.9 100.6 276.5 102.2 275.6 103.4C274.7 104.6 273.4 105.2 271.7 105.2H265.8Z" fill="white"/>
<path d="M304.4 89.6V108.8C304.4 112.1 303.5 114.6 301.8 116.4C300.1 118.2 297.8 119.1 294.9 119.1C292 119.1 289.7 118.2 288 116.4C286.3 114.6 285.4 112.1 285.4 108.8V89.6H288.3V108.8C288.3 111.2 288.9 113.1 290.1 114.5C291.3 115.9 292.9 116.5 294.9 116.5C296.9 116.5 298.5 115.8 299.7 114.5C300.9 113.2 301.5 111.3 301.5 108.8V89.6H304.4Z" fill="#0000F0"/>
<path d="M310.7 118.7V89.6H318.1C320.8 89.6 322.9 90.2 324.4 91.5C325.9 92.8 326.6 94.7 326.6 97.3C326.6 98.8 326.3 100.1 325.6 101.3C324.9 102.4 324 103.2 322.8 103.7V103.8C324.2 104.1 325.3 104.9 326.1 106.2C326.9 107.4 327.3 108.9 327.3 110.7C327.3 113.4 326.6 115.4 325.2 116.7C323.8 118 321.9 118.7 319.3 118.7H310.7Z" fill="#0000F0"/>
<path d="M313.7 102.7V92.4H318.2C320.1 92.4 321.5 92.8 322.4 93.6C323.3 94.4 323.7 95.6 323.7 97.4C323.7 99.2 323.2 100.5 322.3 101.4C321.4 102.3 320 102.7 318.1 102.7H313.7Z" fill="white"/>
<path d="M313.7 105.2H319.5C321.1 105.2 322.3 105.7 323.2 106.7C324.1 107.7 324.5 109 324.5 110.7C324.5 112.5 324.1 113.9 323.2 114.8C322.3 115.7 321.1 116.2 319.5 116.2H313.7V105.2Z" fill="white"/>
<path d="M336.3 116.1H347.2V118.7H333.4V89.6H336.3V116.1Z" fill="#0000F0"/>
<path d="M355.3 89.6H352.4V118.7H355.3V89.6Z" fill="#0000F0"/>
<path d="M379.7 109.2C379.5 112.5 378.7 115 377.2 116.6C375.7 118.2 373.5 119.1 370.8 119.1C368.1 119.1 365.9 118 364.2 115.7C362.5 113.4 361.6 110.4 361.6 106.7V101.6C361.6 97.9 362.5 94.9 364.2 92.6C365.9 90.3 368.1 89.2 370.8 89.2C373.5 89.2 375.7 90 377.2 91.7C378.7 93.3 379.6 95.8 379.7 99.1H376.7C376.6 96.6 376 94.8 375.1 93.6C374.1 92.4 372.7 91.8 370.8 91.8C368.9 91.8 367.4 92.7 366.3 94.5C365.2 96.3 364.6 98.7 364.6 101.6V106.8C364.6 109.7 365.2 112.1 366.3 113.9C367.4 115.7 369 116.6 370.8 116.6C372.7 116.6 374.1 116 375.1 114.9C376.1 113.8 376.6 111.9 376.7 109.3H379.7V109.2Z" fill="#0000F0"/>
<path d="M414.5 106.7C414.5 110.5 413.6 113.5 411.9 115.8C410.2 118 407.9 119.1 405 119.1C402.1 119.1 399.7 118 398 115.8C396.3 113.6 395.4 110.6 395.4 106.7V101.6C395.4 97.8 396.3 94.8 398 92.5C399.7 90.3 402 89.1 404.9 89.1C407.8 89.1 410.1 90.2 411.9 92.5C413.6 94.7 414.5 97.7 414.5 101.6V106.7Z" fill="#0000F0"/>
<path d="M411.5 101.6V106.8C411.5 110 410.9 112.5 409.8 114.1C408.6 115.8 407 116.6 404.9 116.6C402.8 116.6 401.2 115.8 400 114.1C398.8 112.4 398.3 110 398.3 106.8V101.6C398.3 98.4 398.9 96 400 94.3C401.1 92.6 402.8 91.8 404.9 91.8C407 91.8 408.6 92.6 409.8 94.3C411 96 411.5 98.4 411.5 101.6Z" fill="white"/>
<path d="M434.7 105.4H423.7V118.7H420.8V89.6H436.4V92.2H423.7V102.7H434.7V105.4Z" fill="#0000F0"/>
<path d="M469.1 101.1H455.7V116.1H471.1V118.7H452.8V82.3H471V85H455.7V98.5H469.1V101.1Z" fill="#0000F0"/>
<path d="M489.9 111.4C489.9 109.9 489.5 108.8 488.6 108C487.7 107.2 486.1 106.3 483.7 105.5C480.8 104.5 478.7 103.5 477.5 102.3C476.2 101.1 475.6 99.3 475.6 96.9C475.6 94.5 476.3 92.6 477.9 91.2C479.4 89.8 481.5 89.2 484.1 89.2C486.8 89.2 488.9 90 490.4 91.5C491.9 93 492.6 95.2 492.6 98.1H489.7C489.7 96.2 489.2 94.7 488.3 93.6C487.3 92.5 486 91.9 484.2 91.9C482.3 91.9 480.9 92.4 480 93.3C479.1 94.3 478.6 95.5 478.6 97C478.6 98.5 479 99.6 479.8 100.4C480.6 101.2 482.2 102.1 484.8 102.9C487.7 103.9 489.7 104.9 491 106.1C492.3 107.3 492.9 109.1 492.9 111.4C492.9 113.9 492.1 115.8 490.5 117.1C488.9 118.4 486.7 119.1 483.9 119.1C481.3 119.1 479.2 118.4 477.5 117.1C475.8 115.7 474.9 113.5 474.9 110.3H477.8C477.8 112.5 478.4 114.1 479.5 115.1C480.7 116.1 482.1 116.6 483.8 116.6C485.7 116.6 487.2 116.1 488.3 115.2C489.4 114.1 489.9 112.9 489.9 111.4Z" fill="#0000F0"/>
<path d="M514.5 92.2H507.1V118.7H504.2V92.2H497V89.6H514.5V92.2Z" fill="#0000F0"/>
<path d="M538.3 106.7C538.3 110.5 537.4 113.5 535.7 115.8C534 118 531.7 119.1 528.8 119.1C525.9 119.1 523.5 118 521.8 115.8C520.1 113.6 519.2 110.6 519.2 106.7V101.6C519.2 97.8 520.1 94.8 521.8 92.5C523.5 90.3 525.8 89.1 528.7 89.1C531.6 89.1 533.9 90.2 535.6 92.5C537.4 94.7 538.2 97.7 538.2 101.6V106.7H538.3Z" fill="#0000F0"/>
<path d="M535.4 101.6V106.8C535.4 110 534.8 112.5 533.7 114.1C532.6 115.8 530.9 116.6 528.8 116.6C526.7 116.6 525.1 115.8 523.9 114.1C522.7 112.4 522.2 110 522.2 106.8V101.6C522.2 98.4 522.8 96 523.9 94.3C525 92.6 526.7 91.8 528.8 91.8C530.9 91.8 532.5 92.6 533.7 94.3C534.8 96 535.4 98.4 535.4 101.6Z" fill="white"/>
<path d="M563.4 118.7H560.5L547.6 95.2H547.5V118.7H544.6V89.6H547.5L560.4 113.1H560.5V89.6H563.4V118.7Z" fill="#0000F0"/>
<path d="M573.4 89.6H570.5V118.7H573.4V89.6Z" fill="#0000F0"/>
<path d="M587.5 89.6H590.3L599.5 118.7H596.5L594.1 111.2H583.7L581.4 118.7H578.3L587.5 89.6Z" fill="#0000F0"/>
<path d="M588.9 94.1L593.3 108.6H584.5L588.9 94.1Z" fill="white"/>
<path d="M228.8 161.5H218.8V170.9H230.5V174.7H213.8V145.6H230.5V149.4H218.8V157.6H228.8V161.5Z" fill="#0000F0"/>
<path d="M245.7 157H235.1V160.9H245.7V157Z" fill="#0000F0"/>
<path d="M256.1 159V174.7H251.1V138.4H262.1C265.4 138.4 267.9 139.3 269.6 141C271.3 142.7 272.1 145.3 272.1 148.7C272.1 150.7 271.7 152.3 270.8 153.7C269.9 155.1 268.7 156.2 267 157C268.8 157.6 270 158.7 270.8 160.1C271.5 161.5 271.9 163.4 271.9 165.6V168.8C271.9 169.9 272 171 272.2 171.9C272.4 172.8 272.8 173.6 273.3 174.1V174.7H268.2C267.6 174.1 267.3 173.3 267.1 172.2C266.9 171.1 266.9 169.9 266.9 168.7V165.6C266.9 163.5 266.5 161.9 265.7 160.8C264.9 159.6 263.7 159.1 262.2 159.1H256.1V159Z" fill="#0000F0"/>
<path d="M256.1 155.1V142.2H262C263.8 142.2 265.1 142.8 266 143.9C266.8 145 267.2 146.6 267.2 148.8C267.2 150.9 266.8 152.5 265.9 153.5C265 154.6 263.6 155.1 261.7 155.1H256.1Z" fill="white"/>
<path d="M293.4 161.5H283.3V170.9H295.1V174.7H278.4V145.6H295.1V149.4H283.3V157.6H293.4V161.5Z" fill="#0000F0"/>
<path d="M314.1 167.1C314.1 165.9 313.8 164.9 313.1 164.2C312.4 163.5 311.1 162.8 309.1 162.1C306 161.2 303.8 160.2 302.5 158.9C301.2 157.7 300.5 155.8 300.5 153.3C300.5 150.8 301.3 148.9 302.9 147.4C304.5 145.9 306.7 145.2 309.6 145.2C312.5 145.2 314.8 146 316.4 147.5C318 149.1 318.8 151.3 318.8 154.2H313.8C313.8 152.6 313.5 151.3 312.8 150.4C312.1 149.5 311.1 149 309.6 149C308.1 149 307.1 149.4 306.4 150.2C305.7 151 305.4 152 305.4 153.2C305.4 154.5 305.7 155.4 306.4 156.1C307 156.8 308.4 157.5 310.6 158.2C313.6 159.1 315.7 160.2 317 161.4C318.3 162.7 319 164.5 319 167C319 169.5 318.1 171.5 316.4 172.9C314.7 174.3 312.3 175 309.3 175C306.3 175 303.9 174.3 302.1 172.8C300.3 171.4 299.4 169.1 299.4 166H304.4C304.4 167.9 304.9 169.3 305.8 170C306.7 170.8 307.9 171.2 309.3 171.2C310.8 171.2 312 170.8 312.8 170C313.8 169.4 314.1 168.3 314.1 167.1Z" fill="#0000F0"/>
<path d="M329.2 145.6H324.2V174.7H329.2V145.6Z" fill="#0000F0"/>
<path d="M335.6 174.6V145.5H344.5C347.4 145.5 349.9 146.6 351.8 148.8C353.7 151 354.7 153.9 354.7 157.5V162.7C354.7 166.3 353.7 169.1 351.8 171.3C349.9 173.5 347.4 174.6 344.5 174.6H335.6Z" fill="#0000F0"/>
<path d="M340.6 149.4H344.5C346 149.4 347.3 150.2 348.2 151.7C349.2 153.2 349.7 155.1 349.7 157.5V162.8C349.7 165.2 349.2 167.2 348.2 168.7C347.2 170.2 346 171 344.5 171H340.6V149.4Z" fill="white"/>
<path d="M375.2 161.5H365.2V170.9H377V174.7H360.2V145.6H377V149.4H365.2V157.6H375.2V161.5Z" fill="#0000F0"/>
<path d="M403.2 174.6H398.2L387.8 154.7H387.7V174.6H382.7V145.6H387.7L398.1 165.5H398.2V145.6H403.2V174.6Z" fill="#0000F0"/>
<path d="M428.4 164.9C428.2 168.3 427.3 170.9 425.6 172.6C424 174.3 421.7 175.1 418.8 175.1C415.9 175.1 413.5 174 411.7 171.7C409.9 169.4 409 166.4 409 162.6V157.6C409 153.8 409.9 150.8 411.7 148.5C413.5 146.2 415.9 145.1 418.8 145.1C421.7 145.1 424 146 425.6 147.7C427.2 149.4 428.2 151.9 428.4 155.4H423.4C423.2 153.2 422.7 151.6 422 150.6C421.3 149.6 420.2 149.1 418.8 149.1C417.3 149.1 416.1 149.9 415.2 151.5C414.3 153.1 413.9 155.2 413.9 157.7V162.7C413.9 165.3 414.3 167.4 415.2 169C416.1 170.6 417.3 171.4 418.8 171.4C420.3 171.4 421.4 170.9 422.1 169.9C422.8 168.9 423.2 167.3 423.4 165H428.4V164.9Z" fill="#0000F0"/>
<path d="M442 159L447.2 145.6H452.7L444.4 164.2V174.7H439.5V163.9L431.3 145.6H436.8L442 159Z" fill="#0000F0"/>
<path d="M54.9 207C54.9 207.5 55 208 55.3 208.4C56.2 207.5 57.4 206.8 58.7 206.4C59.2 204.5 61 203.1 63.1 203.1C63.3 203.1 63.5 203.1 63.6 203.1C61.9 203.6 60.4 204.9 59.8 206.6C58.7 207 57.9 208 57.9 209.2C57.9 209.8 58.1 210.3 58.4 210.7C59.3 209.6 60.6 208.9 62 208.5C62.4 206.5 64.1 204.9 66.2 204.7C64.4 205.5 63.1 207.3 63.1 209.3C63.1 210.1 63.3 210.8 63.5 211.4C63.8 210.2 64.9 209.4 66.1 209.4C66.4 209.4 66.7 209.5 67 209.6C67.4 209.8 67.8 209.8 68.2 209.8C70.2 209.8 71.8 208.2 71.8 206.1C71.8 205.7 71.7 205.3 71.6 204.9C72.6 205.2 73.3 206.1 73.3 207.1C73.3 207.6 73.2 208 72.9 208.4C73.2 208.4 73.4 208.5 73.7 208.5C76.1 208.5 78 206.7 78.3 204.4C79.5 203.8 80.5 202.9 81.4 201.8L82 204.9C82.1 205.1 82 205.3 82 205.5C82 205.7 81.8 205.9 81.7 206L84.3 203.3C84.5 203.1 84.6 203 84.6 202.8C84.7 202.6 84.7 202.4 84.6 202.2L83.8 198.4C83.8 198.2 83.8 198 83.8 197.8C83.9 197.6 84 197.4 84.1 197.3L86.2 195.2C86 195.4 85.9 195.5 85.9 195.7C85.8 195.9 85.8 196.1 85.9 196.3L86.7 200.1C86.8 200.3 86.7 200.5 86.7 200.7C86.6 200.9 86.5 201.1 86.4 201.2L88.7 198.8C88.9 198.7 89 198.5 89 198.3C89.1 198.1 89.1 197.9 89 197.7L88.2 193.9C88.1 193.7 88.2 193.5 88.2 193.3C88.3 193.1 88.4 192.9 88.5 192.8L90.6 190.7C90.4 190.9 90.3 191 90.3 191.2C90.2 191.4 90.2 191.6 90.3 191.8L91.1 195.6C91.2 195.8 91.1 196 91.1 196.2C91 196.4 90.9 196.6 90.8 196.7L93.1 194.3C93.3 194.1 93.3 194 93.4 193.8C93.5 193.6 93.5 193.4 93.4 193.2L93 191.4C92.6 189.3 94.8 186.9 96.5 186.7C96.7 186.3 96.8 185.9 96.8 185.4C96.8 183.3 94.3 181.6 91.2 181.6C89.7 181.6 88.3 182 87.3 182.7C87.7 183.9 87.8 185.1 83.8 185.7C80.6 186.2 77.8 186.8 75.7 188.6C72.4 191.4 72.7 195.1 70.9 196.5C71.7 196.7 72.8 196.7 73.9 196.5C74.6 196.3 75.3 196.1 75.8 195.8C75.5 196.5 74.7 197.1 73.6 197.6C73.3 198.9 72.1 200.2 70.5 200.7C69.5 201.1 68.5 201.1 67.7 200.9L63.9 199.8C63.4 199.7 62.9 199.6 62.4 199.6C59.6 199.6 57.3 201.8 56.9 204.6C56 204.5 54.9 205.6 54.9 207ZM92.6 56C94.8 53.8 97.3 52.1 100.1 50.7C100 50.4 100 50 100 49.7C88.4 51.6 77.9 57.6 68.4 57.6C65.7 57.6 63.7 56.6 63.3 54.9C63.2 54.6 63.2 54.2 63.3 53.9C63.4 53.3 64 52.7 64.7 52.7C65.5 52.7 66.1 53.4 66.1 54.2C66.1 54.6 65.9 54.9 65.7 55.2C66 55.2 66.3 55.2 66.6 55.2C67.3 55.2 68.1 55.1 68.7 54.9C69.7 54.6 70.5 53.7 70.5 52.6C70.5 51.3 69.4 50.2 68.1 50.2C68 50.2 68 50.2 67.9 50.2C68.2 50.1 68.6 50 69 50C70.5 50 71.8 51.2 71.8 52.8C71.8 52.9 71.8 53 71.8 53C76 52.9 80.6 49.1 81.7 47.6C80.4 47.9 79 48.1 77.5 48.1C75.8 48.1 74.2 47.9 72.8 47.5C70.8 47 68.8 46.7 67.2 46.7C62.1 46.7 58 50 58 54.1C58 57.5 60.8 60.5 64.7 61.3C73.5 63 83.8 57.8 92.6 56ZM42.8 68.1C43 66.9 43.1 65.6 43.1 64.5L42 65.8C41.8 65.3 41.6 65 41.5 64.7C41.4 64.5 41.3 64.3 41.1 64.3C41 64.3 40.9 64.4 40.8 64.4C40.7 64.4 40.5 64.4 40.3 64.4C40.2 64.4 40 64.4 39.8 64.4C39.7 64.4 39.6 64.3 39.5 64.3C39.3 64.3 39.3 64.5 39.1 64.7C39 65 38.8 65.3 38.6 65.8L37.5 64.5C37.5 65.7 37.6 66.9 37.8 68.1C38.6 67.9 39.5 67.9 40.3 67.9C41.2 67.8 42 67.9 42.8 68.1ZM43.3 71.4C43.4 70 41.8 69.5 40.3 69.5C38.8 69.5 37.2 70 37.3 71.4C37.5 73.1 39.1 72.3 40.3 72.3C41.6 72.3 43.2 73.2 43.3 71.4ZM47.6 61.2C47.3 61.3 47.1 61.5 47.1 61.8C46.9 63.5 46.2 64.1 45.2 64.5C45.2 66.2 44.9 67.4 44.5 69C45.8 71.7 44.8 73.6 43.8 74C42.8 74.4 41.5 73.9 40.4 73.9C39.3 73.9 38 74.4 37 74C36 73.6 35 71.7 36.3 69C35.9 67.4 35.6 66.2 35.6 64.5C34.5 64.1 33.8 63.4 33.7 61.8C33.7 61.5 33.5 61.3 33.2 61.2C28.9 60 28.6 54.7 30.7 53.3C30.5 55.7 30.3 59 35.1 59.4C35 62.2 36.2 62.9 37.5 62.9C38.5 62.9 39.1 62.6 39.3 62.5C40.2 62 39.6 61.3 39.4 61.1C38.8 60.5 38.5 59.7 38.6 58.9C38.6 58.8 38.7 58.7 38.8 58.7H42C42.1 58.7 42.2 58.8 42.2 58.9C42.3 59.7 42 60.5 41.4 61.1C41.2 61.3 40.5 62.1 41.4 62.5C41.7 62.6 42.2 63 43.3 62.9C44.5 62.9 45.7 62.2 45.6 59.4C50.4 59 50.2 55.6 50 53.3C52.2 54.8 51.8 60.1 47.6 61.2ZM48.9 52C48.9 53.2 48 54.6 47 54.6H46.1C46.3 54.9 46.5 55.2 46.5 55.6C46.5 56.5 45.8 57.2 44.9 57.2C44 57.2 43.3 56.5 43.3 55.6C43.3 55.2 43.4 54.8 43.7 54.6H42.7C42.4 54.6 42.1 54.7 41.9 55.1C41.8 54.6 41.8 54 41.9 53.7C42.1 53.2 42.4 52.9 42.8 52.9H47C47.8 52.9 48.4 52.6 48.9 52ZM48.3 50H46.8C46.1 50 45.6 49.7 45.1 49.2L43.4 47C43.1 46.7 42.9 46.4 42.5 46.2H44.2C44.7 46.2 45.2 46.4 45.5 46.9L47.3 49.2C47.8 49.6 47.9 49.9 48.3 50ZM40.6 46.3L42.8 49.4C43.1 49.9 43.5 50.2 43.9 50.4H41.9C41.1 50.4 40.7 50 40.4 49.5L38.7 46.9C38.1 45.9 37.8 45.7 37 45.4H38.8C39.6 45.4 40.2 45.8 40.6 46.3ZM35.7 46.9L37.5 49.2C37.9 49.7 38 50 38.5 50.1H37C36.3 50.1 35.7 49.8 35.3 49.3L33.6 47.1C33.3 46.8 33.1 46.5 32.7 46.3H34.4C34.9 46.2 35.3 46.4 35.7 46.9ZM34.6 54.6H33.7C32.7 54.6 31.8 53.3 31.8 52C32.4 52.6 32.9 52.9 33.7 52.9H38C38.4 52.9 38.8 53.2 38.9 53.7C39 54.1 39 54.6 38.9 55.1C38.7 54.7 38.4 54.6 38.1 54.6H37.1C37.3 54.9 37.5 55.2 37.5 55.6C37.5 56.5 36.8 57.2 35.9 57.2C35 57.2 34.3 56.5 34.3 55.6C34.2 55.2 34.4 54.9 34.6 54.6ZM29.4 74.9L29.9 73.9C30 73.7 30.1 73.5 30.1 73.3C30.1 73.1 30 72.9 29.9 72.7L31.3 75.3C31.4 75.5 31.5 75.7 31.5 75.9C31.5 76.1 31.5 76.3 31.4 76.5L31.3 76.8C30.4 78.5 29.6 81.6 30.5 83.5C28.4 82.7 27.7 80.9 27.9 79.4C24 75.7 23 71.9 25.8 68.7L27.2 67C27.4 66.8 27.4 66.7 27.5 66.5C27.6 66.3 27.6 66.1 27.5 65.9L28.3 68.7C28.4 68.9 28.4 69.1 28.3 69.3C28.3 69.5 28.2 69.7 28 69.9L27.6 70.4C26.1 72.1 26.5 74.4 28.8 76.5C28.9 75.7 29.1 75.4 29.4 74.9ZM126 85.5C126.2 85.1 126.2 84.7 126.2 84.3C126.2 82.5 124.8 81.1 123 81.1H119.8C119.6 81.1 119.4 81 119.2 80.9C119 80.8 118.9 80.7 118.7 80.5L117.1 78.1C117.2 78.3 117.4 78.4 117.6 78.5C117.8 78.6 118 78.7 118.2 78.7H122.5C122.7 78.7 122.9 78.8 123.1 78.9C123.3 79 123.4 79.1 123.6 79.3L121.6 76.4C121.5 76.2 121.3 76.1 121.1 76C120.9 75.9 120.7 75.8 120.5 75.8H116.3C116.1 75.8 115.9 75.8 115.7 75.6C115.5 75.5 115.3 75.4 115.2 75.2L113.4 72.5C113.5 72.7 113.7 72.8 113.9 72.9C114.1 73 114.3 73.1 114.5 73.1H118.7C118.9 73.1 119.1 73.2 119.3 73.3C119.5 73.4 119.6 73.5 119.8 73.7L117.8 70.8C117.7 70.6 117.5 70.5 117.3 70.4C117.1 70.3 116.9 70.3 116.7 70.3H113.3C113.1 70.3 112.9 70.2 112.7 70.1C112.5 70 112.4 69.9 112.2 69.7L109.9 66.4C114.5 65.9 118.2 63.4 118.9 59.9C119.9 55.5 115.5 51.2 109.1 50.2C108 50 107.2 49.1 107.2 48C107.2 47.1 107.8 46.2 108.6 45.9C107.9 45.6 107.2 45.4 106.4 45.4C103.6 45.4 101.3 47.4 101.3 49.9C101.3 50.3 101.4 50.8 101.5 51.2C98.3 52.6 95.5 55 93.3 57.6C95.7 57 98.1 56.6 100.7 56.6C100.7 56.5 100.7 56.4 100.7 56.2C100.7 54.3 102.2 52.7 104.2 52.7H104.3C103 53.3 102.4 54.5 102.4 55.3C102.4 56.3 103.2 57.1 104.2 57.1C104.6 57.1 104.9 57 105.2 56.8C105.1 56.6 105.1 56.3 105.1 56.1C105.1 54.7 106.2 53.6 107.6 53.6C107.7 53.6 107.8 53.6 108 53.6C107.1 54 106.4 55 106.4 56.1C106.4 57.6 107.6 58.9 109.2 58.9C109.4 58.9 109.5 58.9 109.7 58.9C109.6 58.7 109.6 58.6 109.6 58.4C109.6 57.3 110.5 56.4 111.6 56.4C112.7 56.4 113.6 57.3 113.6 58.4C113.6 60.8 110.9 61 109 60.5C103.5 58.9 98.3 58.2 93.3 58.9C86.9 59.8 76.4 64.1 65.3 63.8C62.8 63.7 60.1 63.3 57.4 62.6C57.7 63 58 63.2 58.1 63.4C59.2 65.1 59.6 66.9 58.6 69.1C58.6 66.6 56.6 64.6 54.9 63.3C54.2 62.8 53.9 62.3 54 61.7L54.5 58.8C54.5 59 54.5 59.2 54.5 59.4C54.6 59.6 54.7 59.8 54.8 59.9L55.9 60.9C56.3 58 55.7 55.3 53.9 52.8C54.7 50.8 54.8 48.6 54.3 46.5C54.1 48.1 53.3 48.8 52.6 49.2C51.2 50.1 51 51.5 51.7 52.4C50.6 51.8 49 49.7 49.9 48.5C50.9 47.2 53.6 47.8 53.9 45.5C52.1 44.9 50.3 45.3 49.8 45.5C48.8 44.3 47.4 43.7 45.7 43.7C44.3 42.5 42.6 42 40.5 42.2C38.4 42 36.6 42.5 35.3 43.7C33.6 43.7 32.2 44.3 31.2 45.5C30.7 45.4 28.9 45 27.1 45.5C27.4 47.8 30.1 47.2 31.1 48.5C32 49.7 30.5 51.9 29.3 52.4C30 51.5 29.8 50 28.4 49.2C27.7 48.8 26.9 48.1 26.7 46.5C26.2 48.6 26.3 50.8 27.1 52.8C25.4 55.3 24.7 58 25.1 60.9L26.2 59.9C26.4 59.7 26.5 59.6 26.5 59.4C26.6 59.2 26.6 59 26.5 58.8L27 61.7C27.1 62.3 26.8 62.8 26.1 63.3C24.4 64.6 22.3 66.6 22.4 69.1C21.4 66.9 21.8 65 22.9 63.4C19.6 61.6 17.2 58.7 16.7 58.2C15.7 57.1 15.8 55.6 16.8 54.3C18.5 51.8 18.9 49.2 16.8 47.4C16.8 47.3 16.8 47.1 16.8 47C16.8 45.4 15.6 44 14.1 43.7C14.4 44.1 14.6 44.7 14.6 45.3C14.6 46 14.4 46.6 14 47C14.3 47.4 14.5 47.9 14.5 48.5C14.5 49.2 14.2 49.9 13.7 50.3C13.8 50 13.8 49.8 13.8 49.5C13.8 47.8 12.8 46.4 11.4 46C11.2 44.8 10.1 43.8 8.8 43.8C8.1 43.8 7.4 44.1 6.9 44.6C7.9 44.7 8.7 45.5 8.8 46.5C8.3 46.9 7.9 47.4 7.7 47.9H7.8C9.5 47.9 10.9 49.3 10.9 51C10.9 51.2 10.9 51.4 10.8 51.6C10.7 50.9 10.4 50.2 9.8 49.7C8.8 48.8 7.4 48.6 6.1 49C5.6 48.4 4.9 48 4 48C3.1 48 2.2 48.5 1.8 49.2C2.8 49.2 3.6 49.7 4.1 50.5C2.7 52.2 2.7 54.6 4.1 56C5 56.9 6.4 57.1 7.6 56.7C7.7 56.7 7.8 56.7 7.9 56.7C8.4 56.7 8.7 57.1 8.7 57.5C8.7 58 8.3 58.3 7.9 58.3C7.7 58.3 7.5 58.2 7.4 58.1C7.1 57.8 6.7 57.7 6.2 57.7C5.2 57.7 4.4 58.5 4.4 59.5C4.4 59.6 4.4 59.7 4.4 59.7C4.2 59.8 4 59.8 3.9 59.8C3.4 59.8 3 59.6 2.6 59.3C2.5 59.5 2.5 59.7 2.5 59.9C2.5 61.2 3.5 62.2 4.8 62.3C5.4 63.7 6.7 64.7 8.4 64.7C9.2 64.7 10 64.4 10.6 64C10.9 63.8 11.2 63.7 11.6 63.7C12.5 63.7 13.3 64.5 13.3 65.4C13.3 66.2 12.7 66.9 12 67L10.7 67.3C10.5 67.4 10.3 67.3 10.1 67.3C9.9 67.2 9.7 67.1 9.6 67L12.6 69.8C12.8 70 13 70.1 13.1 70.1C13.3 70.2 13.5 70.2 13.7 70.1L16.1 69.6C16.3 69.5 16.5 69.6 16.7 69.6C16.9 69.7 17.1 69.8 17.2 69.9L19.3 71.9C19.1 71.7 19 71.6 18.8 71.6C18.6 71.5 18.4 71.5 18.2 71.6L15.8 72.1C15.6 72.1 15.4 72.1 15.2 72.1C15 72 14.8 71.9 14.7 71.8L17.4 74.4C17.6 74.5 17.7 74.7 17.9 74.7C18.1 74.8 18.3 74.8 18.5 74.7L21 74.2C21.2 74.1 21.4 74.1 21.6 74.2C21.8 74.3 22 74.4 22.1 74.5L24.1 76.5C23.9 76.4 23.8 76.2 23.6 76.2C23.4 76.1 23.2 76.1 23 76.2L20.6 76.7C20.4 76.7 20.2 76.7 20 76.7C19.8 76.6 19.6 76.5 19.5 76.4L22.2 79C22.4 79.2 22.5 79.3 22.7 79.3C22.9 79.4 23.1 79.4 23.3 79.3L26.3 78.7C23.4 80.3 20.4 82.2 17.1 84.2C15.2 85.4 13.1 85.6 10.7 84.7C9.4 84.2 8 84.1 7.1 84.3C5.9 84.5 5 85.2 4.4 86.2C4.9 86 5.3 85.9 5.9 85.9C7 85.9 7.9 86.3 8.7 87C7.6 86.5 6.2 86.5 4.8 87C2.4 87.9 1 90.2 1.5 92.2C0.6 92.5 0 93.4 0 94.5C0 95.2 0.300001 95.8 0.700001 96.2C0.900001 95.1 1.9 94.3 3 94.3C3.5 94.6 4 94.8 4.6 94.9C4.8 94.6 5 94.3 5.3 94.1C5.3 93.9 5.3 93.7 5.3 93.5C5.3 91.3 7.1 89.5 9.3 89.5C9.5 89.5 9.7 89.5 9.8 89.5C8 89.9 6.7 91.5 6.7 93.4C6.7 93.6 6.7 93.9 6.8 94.1C5.8 94.5 5.2 95.4 5.2 96.5C5.2 97.1 5.4 97.7 5.8 98.1C6.5 96.8 7.8 95.8 9.4 95.7C10 95.9 10.6 96 11.2 96C11.6 96 12 96 12.4 95.9C12.1 95.4 11.9 94.8 11.9 94.1C11.9 92.4 13.3 91 15 91C15.2 91 15.3 91 15.4 91C13.8 91.7 12.7 93.1 13.1 94.4C13.3 95.3 14.2 96 15.3 96.2C15.3 96.9 15.1 97.5 14.8 98.1C16.2 98 17.5 97.1 18.1 95.9C19.8 95.2 20.8 93.7 20.5 92.4C20.4 91.9 20.1 91.5 19.7 91.2C19.7 91.1 19.7 91.1 19.7 91.1C19.7 90.2 20.4 89.4 21.3 89.4C22.2 89.4 23 90.1 23 91.1C23 91.5 22.8 91.9 22.6 92.2H26C26.2 92.2 26.4 92.1 26.6 92C26.8 91.9 26.9 91.8 27.1 91.6L29.3 88.3C29.4 88.2 29.5 88.1 29.6 88C29.7 87.9 29.9 87.9 30 87.9H32.7C32.5 87.9 32.4 87.9 32.3 88C32.2 88.1 32.1 88.2 32 88.3L29.8 91.6C29.7 91.8 29.5 91.9 29.3 92C29.1 92.1 28.9 92.2 28.7 92.2H32.8C33 92.2 33.2 92.1 33.4 92C33.6 91.9 33.7 91.8 33.9 91.6L36.4 87.9C34.7 87 34 85.3 34 83C34 81.6 34.8 80 34.9 79L35 78.6C35 78.4 35 78.2 34.9 78C34.8 77.8 34.7 77.6 34.6 77.5L36.7 79.7C36.9 79.8 37 80 37.1 80.2C37.2 80.4 37.2 80.6 37.2 80.8L37.1 81.3C37 82.2 35.9 84 37.9 85.7C38 85.8 38.2 86 38.5 86.1L39.9 87V81.7H41.9V87.6C41.9 87.8 42 88 42.1 88.2C42.2 88.4 42.3 88.5 42.5 88.7L44.5 89.9C44.7 90 44.9 90.1 45.1 90.1C45.3 90.1 45.5 90.1 45.7 90L49.3 88.4C49.1 88.5 48.9 88.5 48.7 88.5C48.5 88.5 48.3 88.4 48.1 88.3L43.9 85.7C45.9 84 44.8 82.1 44.7 81.3L44.6 80.8C44.6 80.6 44.6 80.4 44.7 80.2C44.8 80 44.9 79.8 45.1 79.7L47.2 77.5C47.1 77.7 47 77.9 46.9 78C46.8 78.2 46.8 78.4 46.8 78.6V79C47 80.5 48.5 83.2 47.2 84.6L51 87C51.2 87.1 51.4 87.2 51.6 87.2C51.8 87.2 52 87.2 52.2 87.1L56 85.5C55.8 85.6 55.6 85.6 55.4 85.6C55.2 85.6 55 85.5 54.8 85.4L50.7 82.8C51.6 81 50.8 78 50 76.4L49.9 76.1C49.8 75.9 49.8 75.7 49.8 75.5C49.8 75.3 49.9 75.1 50 74.9L51.4 72.3C51.3 72.5 51.2 72.7 51.2 72.9C51.2 73.1 51.2 73.3 51.3 73.5L51.8 74.5C52.1 75 52.2 75.3 52.5 75.9C54.8 73.8 55.3 71.8 53.9 70.1L53.5 69.6C53.4 69.4 53.3 69.2 53.2 69C53.1 68.8 53.1 68.6 53.2 68.4L54 65.6C53.9 65.8 53.9 66 54 66.2C54.1 66.4 54.1 66.6 54.3 66.8L55.7 68.5C58.5 71.7 56.8 75.8 53.5 78.9C53.7 79.5 53.9 80.6 53.7 81.2L58.2 84C58.4 84.1 58.6 84.2 58.8 84.2C59 84.2 59.2 84.2 59.4 84.1L62.6 82.7C62.4 82.8 62.2 82.8 62 82.8C61.2 82.8 60.5 82.1 60.5 81.3C60.5 80.6 60.9 80 61.5 79.9C73.8 76.2 85.1 66.5 92.5 66.5C96.1 66.5 99 68.7 99 71.4C99 71.8 98.9 72.3 98.8 72.7C97.2 77.2 99.5 81.4 105.6 83.1C106.6 83.4 107.3 84.3 107.3 85.3C107.3 85.5 107.3 85.7 107.2 85.9C107.3 85.9 107.5 85.9 107.6 85.9C109.3 85.9 110.8 85.1 111.7 83.8C112.7 83.8 113.9 83.7 115 83.6C115.1 83.9 115.3 84.2 115.3 84.6C115.6 85.9 115.1 87 114.3 87.3C112.9 87.8 111.2 87.2 109.9 87.2C107.4 87.2 105.4 89.3 105.4 91.8C105.4 92 105.4 92.2 105.4 92.4C104.6 92.9 104.1 93.8 104.1 94.8C104.1 95.3 104.2 95.8 104.5 96.2C105.3 95.3 106.3 94.6 107.4 94.2C107.5 92 109.3 90.2 111.5 90.2C111.8 90.2 112.2 90.2 112.5 90.3C110.3 90.6 108.5 92.5 108.5 94.8C108.5 95 108.5 95.1 108.5 95.3C108.2 95.6 108.1 96.1 108.1 96.5C108.1 97.1 108.4 97.6 108.8 98C109.2 97.1 110.3 96.2 111.6 95.7C112.5 95.4 113.4 95.3 114.1 95.5C114 95.2 113.9 94.8 113.9 94.4C113.9 92.4 115.5 90.8 117.5 90.8C117.7 90.8 117.9 90.8 118 90.8C116.6 91 115.6 92.2 115.6 93.6C115.6 94.6 116.1 95.4 116.8 95.9C116.8 96 116.8 96 116.8 96.1C116.8 96.9 117.2 97.6 117.7 98C118 96.7 119.1 95.7 120.5 95.7C121.7 95.7 122.6 95.5 123.4 95.3C124.6 94.9 125.5 93.7 125.5 92.4C125.5 91.5 125.1 90.6 124.4 90.1C124.7 88.6 124.7 86.1 124.1 84C124.2 84 124.3 84 124.4 84C124.8 84.3 125.5 84.8 126 85.5ZM63.4 111.4C63.3 111.1 63.3 110.7 63.4 110.4C63.5 109.7 64.1 109.2 64.8 109.2C65.6 109.2 66.2 109.8 66.2 110.7C66.2 111.1 66 111.4 65.8 111.7C66.1 111.7 66.4 111.7 66.7 111.7C67.4 111.7 68.2 111.6 68.8 111.4C69.8 111.1 70.6 110.2 70.6 109.1C70.6 107.8 69.5 106.7 68.2 106.7C68.1 106.7 68.1 106.7 68 106.7C68.3 106.6 68.7 106.5 69.1 106.5C70.6 106.5 71.9 107.7 71.9 109.3C71.9 109.4 71.9 109.5 71.9 109.5C76.1 109.4 80.7 105.6 81.8 104.2C80.5 104.5 79.1 104.7 77.6 104.7C75.9 104.7 74.3 104.5 72.9 104.1C70.9 103.6 68.9 103.3 67.3 103.3C62.2 103.3 58.1 106.6 58.1 110.7C58.1 114.1 60.9 117.1 64.8 117.9C73.6 119.7 84 114.5 92.8 112.6C95 110.5 97.5 108.7 100.3 107.3C100.2 107 100.2 106.6 100.2 106.3C88.6 108.2 78.1 114.2 68.6 114.2C65.8 114.1 63.7 113.1 63.4 111.4ZM63.1 89.9C63.3 89.9 63.5 89.9 63.6 89.9C61.9 90.4 60.4 91.7 59.8 93.4C58.7 93.8 57.9 94.8 57.9 96C57.9 96.6 58.1 97.1 58.4 97.5C59.3 96.4 60.6 95.7 62 95.3C62.4 93.3 64.1 91.7 66.2 91.5C64.4 92.3 63.1 94.1 63.1 96.2C63.1 96.9 63.3 97.6 63.5 98.3C63.8 97.1 64.9 96.3 66.1 96.3C66.4 96.3 66.7 96.4 67 96.5C67.4 96.7 67.8 96.7 68.2 96.7C70.2 96.7 71.8 95.1 71.8 93C71.8 92.6 71.7 92.2 71.6 91.8C72.6 92.1 73.3 93 73.3 94C73.3 94.5 73.2 94.9 72.9 95.3C73.2 95.4 73.4 95.4 73.7 95.4C76.1 95.4 78 93.6 78.3 91.3C79.5 90.7 80.5 89.8 81.4 88.7L82 91.8C82.1 92 82 92.2 82 92.4C82 92.6 81.8 92.8 81.7 92.9L84.3 90.2C84.5 90 84.6 89.9 84.6 89.7C84.7 89.5 84.7 89.3 84.6 89.1L83.8 85.3C83.8 85.1 83.8 84.9 83.8 84.7C83.8 84.5 84 84.3 84.1 84.2L86.2 82.1C86 82.3 85.9 82.5 85.9 82.6C85.8 82.8 85.8 83 85.9 83.2L86.7 87C86.8 87.2 86.7 87.4 86.7 87.6C86.6 87.8 86.5 88 86.4 88.1L88.7 85.7C88.9 85.5 89 85.4 89 85.2C89.1 85 89.1 84.8 89 84.6L88.2 80.8C88.1 80.6 88.2 80.4 88.2 80.2C88.3 80 88.4 79.8 88.5 79.7L90.6 77.6C90.4 77.8 90.3 77.9 90.3 78.1C90.2 78.3 90.2 78.5 90.3 78.7L91.1 82.5C91.2 82.7 91.1 82.9 91.1 83.1C91 83.3 90.9 83.5 90.8 83.6L93.1 81.2C93.3 81 93.3 80.9 93.4 80.7C93.5 80.5 93.5 80.3 93.4 80.1L93 78.3C92.6 76.2 94.8 73.8 96.5 73.6C96.7 73.2 96.8 72.8 96.8 72.3C96.8 70.2 94.3 68.5 91.2 68.5C89.7 68.5 88.3 68.9 87.3 69.6C87.7 70.8 87.8 72 83.8 72.6C80.6 73 77.8 73.7 75.7 75.5C72.4 78.3 72.7 82 70.9 83.4C71.7 83.6 72.8 83.6 73.9 83.4C74.6 83.2 75.3 83 75.8 82.7C75.5 83.4 74.7 84 73.6 84.4C73.3 85.7 72.1 86.9 70.5 87.5C69.5 87.9 68.5 87.9 67.7 87.7L63.9 86.6C63.4 86.5 62.9 86.4 62.4 86.4C59.6 86.4 57.3 88.6 56.9 91.4C55.6 91.6 54.6 92.7 54.6 94.1C54.6 94.6 54.7 95.1 55 95.5C55.9 94.6 57.1 93.9 58.4 93.5C59.2 91.3 61 89.9 63.1 89.9ZM42.8 124.7C43 123.5 43.1 122.2 43.1 121.1L42 122.4C41.8 121.9 41.6 121.6 41.5 121.3C41.4 121.1 41.3 120.9 41.1 120.9C41 121 40.9 121 40.8 121C40.7 121 40.5 121 40.3 121C40.2 121 40 121 39.8 121C39.7 121 39.6 120.9 39.5 120.9C39.3 120.9 39.3 121.1 39.1 121.3C39 121.6 38.8 121.9 38.6 122.4L37.5 121.1C37.5 122.3 37.6 123.5 37.8 124.7C38.6 124.5 39.5 124.5 40.3 124.5C41.2 124.4 42 124.5 42.8 124.7ZM43.3 128C43.4 126.6 41.8 126.1 40.3 126.1C38.8 126.1 37.2 126.6 37.3 128C37.5 129.7 39.1 128.9 40.3 128.9C41.6 129 43.2 129.8 43.3 128ZM47.6 117.9C47.3 118 47.1 118.1 47.1 118.5C46.9 120.2 46.2 120.8 45.2 121.2C45.2 122.9 44.9 124.2 44.5 125.7C45.8 128.4 44.8 130.2 43.8 130.6C42.8 131 41.5 130.5 40.4 130.5C39.3 130.5 38 131 37 130.6C36 130.2 35 128.3 36.3 125.7C35.9 124.1 35.6 122.9 35.6 121.2C34.5 120.8 33.8 120.1 33.7 118.5C33.7 118.2 33.5 118 33.2 117.9C28.9 116.7 28.6 111.4 30.7 109.9C30.5 112.3 30.3 115.6 35.1 116C35 118.8 36.2 119.5 37.5 119.5C38.5 119.5 39.1 119.2 39.3 119C40.2 118.5 39.6 117.8 39.4 117.6C38.8 117 38.5 116.2 38.6 115.4C38.6 115.2 38.7 115.2 38.8 115.2H42C42.1 115.2 42.2 115.3 42.2 115.4C42.3 116.2 42 117 41.4 117.6C41.2 117.8 40.5 118.6 41.4 119C41.7 119.1 42.2 119.5 43.3 119.5C44.5 119.5 45.7 118.7 45.6 116C50.4 115.6 50.2 112.2 50 109.9C52.2 111.4 51.8 116.7 47.6 117.9ZM48.9 108.6C48.9 109.8 48 111.2 47 111.2H46.1C46.3 111.5 46.5 111.8 46.5 112.2C46.5 113.1 45.8 113.8 44.9 113.8C44 113.8 43.3 113.1 43.3 112.2C43.3 111.8 43.4 111.4 43.7 111.2H42.7C42.4 111.2 42.1 111.3 41.9 111.7C41.8 111.2 41.8 110.6 41.9 110.3C42.1 109.8 42.4 109.5 42.8 109.5H47C47.8 109.5 48.4 109.3 48.9 108.6ZM48.3 106.6H46.8C46.1 106.6 45.6 106.3 45.1 105.8L43.4 103.6C43.1 103.3 42.9 103 42.5 102.8H44.2C44.7 102.8 45.2 103 45.5 103.5L47.3 105.8C47.8 106.2 47.9 106.6 48.3 106.6ZM40.6 103L42.8 106.1C43.1 106.6 43.5 106.9 43.9 107.1H41.9C41.1 107.1 40.7 106.7 40.4 106.2L38.7 103.6C38.1 102.6 37.8 102.4 37 102.1H38.8C39.6 102 40.2 102.4 40.6 103ZM35.7 103.5L37.5 105.8C37.9 106.3 38 106.6 38.5 106.7H37C36.3 106.7 35.7 106.4 35.3 105.9L33.6 103.7C33.3 103.4 33.1 103.1 32.7 102.9H34.4C34.9 102.8 35.3 103.1 35.7 103.5ZM34.6 111.2H33.7C32.7 111.2 31.8 109.9 31.8 108.6C32.4 109.2 32.9 109.5 33.7 109.5H38C38.4 109.5 38.8 109.8 38.9 110.3C39 110.7 39 111.2 38.9 111.7C38.7 111.3 38.4 111.2 38.1 111.2H37.1C37.3 111.5 37.5 111.8 37.5 112.2C37.5 113.1 36.8 113.8 35.9 113.8C35 113.8 34.3 113.1 34.3 112.2C34.2 111.8 34.4 111.5 34.6 111.2ZM29.4 131.5L29.9 130.5C30 130.3 30.1 130.1 30.1 129.9C30.1 129.7 30 129.5 29.9 129.3L31.3 131.8C31.4 132 31.5 132.2 31.5 132.4C31.5 132.6 31.5 132.8 31.4 133L31.3 133.3C30.4 135 29.6 138.1 30.5 140C28.4 139.2 27.7 137.4 27.9 135.8C24 132.1 23 128.3 25.8 125.1L27.2 123.4C27.4 123.2 27.4 123 27.5 122.8C27.6 122.6 27.6 122.4 27.5 122.2L28.3 125C28.4 125.2 28.4 125.4 28.3 125.6C28.3 125.8 28.2 126 28 126.2L27.6 126.7C26.1 128.4 26.5 130.7 28.8 132.8C28.9 132.3 29.1 132 29.4 131.5ZM126 142.1C126.2 141.7 126.2 141.3 126.2 140.9C126.2 139.1 124.8 137.7 123 137.7H119.8C119.6 137.7 119.4 137.6 119.2 137.6C119 137.5 118.9 137.4 118.7 137.2L117.1 134.8C117.2 135 117.4 135.1 117.6 135.2C117.8 135.3 118 135.4 118.2 135.3H122.5C122.7 135.3 122.9 135.4 123.1 135.5C123.3 135.6 123.4 135.7 123.6 135.9L121.6 133C121.5 132.8 121.3 132.7 121.1 132.6C120.9 132.5 120.7 132.4 120.5 132.4H116.3C116.1 132.4 115.9 132.3 115.7 132.2C115.5 132.1 115.3 132 115.2 131.8L113.4 129.1C113.5 129.3 113.7 129.4 113.9 129.5C114.1 129.6 114.3 129.7 114.5 129.7H118.7C118.9 129.7 119.1 129.7 119.3 129.8C119.5 129.9 119.6 130 119.8 130.2L117.8 127.3C117.7 127.1 117.5 127 117.3 126.9C117.1 126.8 116.9 126.7 116.7 126.7H113.3C113.1 126.7 112.9 126.6 112.7 126.5C112.5 126.4 112.4 126.3 112.2 126.1L109.9 122.8C114.5 122.3 118.2 119.8 118.9 116.3C119.9 111.9 115.5 107.6 109.1 106.6C108 106.4 107.2 105.5 107.2 104.4C107.2 103.4 107.8 102.6 108.6 102.3C107.9 102 107.2 101.8 106.4 101.8C103.6 101.8 101.3 103.8 101.3 106.3C101.3 106.7 101.4 107.2 101.5 107.6C98.3 109 95.5 111.4 93.3 114C95.7 113.4 98.1 113 100.7 113C100.7 112.9 100.7 112.8 100.7 112.6C100.7 110.7 102.2 109.1 104.2 109.1H104.3C103 109.7 102.4 110.9 102.4 111.8C102.4 112.8 103.2 113.6 104.2 113.6C104.6 113.6 104.9 113.5 105.2 113.3C105.1 113.1 105.1 112.8 105.1 112.6C105.1 111.2 106.2 110.1 107.6 110.1C107.7 110.1 107.8 110.1 108 110.1C107.1 110.5 106.4 111.5 106.4 112.6C106.4 114.1 107.6 115.4 109.2 115.4C109.4 115.4 109.5 115.4 109.7 115.4C109.6 115.2 109.6 115.1 109.6 114.9C109.6 113.8 110.5 112.9 111.6 112.9C112.7 112.9 113.6 113.8 113.6 114.9C113.6 117.3 110.9 117.5 109 117C103.5 115.4 98.3 114.7 93.3 115.4C86.9 116.3 76.4 120.6 65.3 120.3C62.8 120.2 60.1 119.8 57.4 119.1C57.7 119.5 58 119.7 58.1 119.9C59.2 121.6 59.6 123.4 58.6 125.6C58.6 123.1 56.6 121.1 54.9 119.8C54.2 119.3 53.9 118.8 54 118.2L54.5 115.3C54.5 115.5 54.5 115.7 54.5 115.9C54.6 116.1 54.7 116.3 54.8 116.4L55.9 117.5C56.3 114.6 55.7 111.9 53.9 109.4C54.7 107.4 54.8 105.2 54.3 103.1C54.1 104.7 53.3 105.4 52.6 105.8C51.2 106.7 51 108.1 51.7 109C50.6 108.4 49 106.3 49.9 105.1C50.9 103.8 53.6 104.4 53.9 102.1C52.1 101.5 50.3 101.9 49.8 102.1C48.8 100.9 47.4 100.3 45.7 100.3C44.3 99.1 42.6 98.6 40.5 98.8C38.4 98.6 36.6 99.1 35.3 100.3C33.6 100.3 32.2 100.9 31.2 102.1C30.7 101.9 28.9 101.6 27.1 102.1C27.4 104.4 30.1 103.8 31.1 105.1C32 106.3 30.5 108.5 29.3 109C30 108 29.8 106.6 28.4 105.8C27.7 105.4 26.9 104.7 26.7 103.1C26.2 105.2 26.3 107.4 27.1 109.4C25.4 111.9 24.7 114.6 25.1 117.5L26.2 116.4C26.4 116.2 26.5 116.1 26.5 115.9C26.6 115.7 26.6 115.5 26.5 115.3L27 118.2C27.1 118.8 26.8 119.3 26.1 119.8C24.4 121.1 22.3 123.1 22.4 125.6C21.4 123.4 21.8 121.5 22.9 119.9C19.6 118.1 17.2 115.2 16.7 114.7C15.7 113.6 15.8 112.1 16.8 110.8C18.5 108.3 18.9 105.7 16.8 103.9C16.8 103.8 16.8 103.6 16.8 103.5C16.8 101.9 15.6 100.5 14.1 100.2C14.4 100.6 14.6 101.2 14.6 101.8C14.6 102.5 14.4 103.1 14 103.5C14.3 103.9 14.5 104.4 14.5 105C14.5 105.7 14.2 106.4 13.7 106.8C13.8 106.5 13.8 106.3 13.8 106C13.8 104.3 12.8 102.9 11.4 102.5C11.2 101.3 10.1 100.3 8.8 100.3C8.1 100.3 7.4 100.6 6.9 101.1C7.9 101.2 8.7 102 8.8 103C8.3 103.4 7.9 103.9 7.7 104.4H7.8C9.5 104.4 10.9 105.8 10.9 107.5C10.9 107.7 10.9 107.9 10.8 108.1C10.7 107.4 10.4 106.7 9.8 106.2C8.8 105.3 7.4 105.1 6.1 105.6C5.6 105 4.9 104.6 4 104.6C3.1 104.6 2.2 105.1 1.8 105.8C2.8 105.8 3.6 106.3 4.1 107C2.7 108.7 2.7 111.1 4.1 112.5C5 113.4 6.4 113.6 7.6 113.2C7.7 113.2 7.8 113.1 7.9 113.1C8.4 113.1 8.7 113.5 8.7 113.9C8.7 114.4 8.3 114.7 7.9 114.7C7.7 114.7 7.5 114.6 7.4 114.5C7.1 114.2 6.7 114.1 6.2 114.1C5.2 114.1 4.4 114.9 4.4 115.9C4.4 116 4.4 116.1 4.4 116.1C4.2 116.2 4 116.2 3.9 116.2C3.4 116.2 3 116 2.6 115.7C2.5 115.9 2.5 116.1 2.5 116.3C2.5 117.6 3.5 118.7 4.8 118.7C5.4 120.1 6.7 121.1 8.4 121.1C9.2 121.1 10 120.8 10.6 120.4C10.9 120.2 11.2 120.1 11.6 120.1C12.5 120.1 13.3 120.9 13.3 121.8C13.3 122.6 12.7 123.3 12 123.5L10.7 123.8C10.5 123.9 10.3 123.8 10.1 123.8C9.9 123.7 9.7 123.6 9.6 123.5L12.6 126.3C12.8 126.5 13 126.6 13.1 126.6C13.3 126.7 13.5 126.7 13.7 126.6L16.1 126.1C16.3 126 16.5 126.1 16.7 126.1C16.9 126.2 17.1 126.3 17.2 126.4L19.3 128.4C19.1 128.2 19 128.1 18.8 128.1C18.6 128 18.4 128 18.2 128.1L15.8 128.6C15.6 128.6 15.4 128.6 15.2 128.6C15 128.5 14.8 128.4 14.7 128.3L17.4 130.9C17.6 131.1 17.7 131.2 17.9 131.2C18.1 131.3 18.3 131.3 18.5 131.2L21 130.7C21.2 130.6 21.4 130.7 21.6 130.7C21.8 130.8 22 130.9 22.1 131L24.1 133C23.9 132.9 23.8 132.7 23.6 132.7C23.4 132.6 23.2 132.6 23 132.7L20.6 133.2C20.4 133.3 20.2 133.2 20 133.2C19.8 133.1 19.6 133 19.5 132.9L22.2 135.5C22.4 135.7 22.5 135.8 22.7 135.8C22.9 135.9 23.1 135.9 23.3 135.8L26.3 135.1C23.4 136.7 20.4 138.6 17.1 140.6C15.2 141.8 13.1 142 10.7 141.1C9.4 140.6 8 140.5 7.1 140.7C5.9 140.9 5 141.6 4.4 142.6C4.9 142.4 5.3 142.3 5.9 142.3C7 142.3 7.9 142.7 8.7 143.4C7.6 142.9 6.2 142.9 4.8 143.4C2.4 144.3 1 146.6 1.5 148.6C0.6 148.9 0 149.8 0 150.9C0 151.6 0.300001 152.2 0.700001 152.6C0.900001 151.5 1.9 150.7 3 150.7C3.5 151 4 151.2 4.6 151.4C4.8 151.1 5 150.8 5.3 150.6C5.3 150.4 5.3 150.2 5.3 150C5.3 147.8 7.1 146 9.3 146C9.5 146 9.7 146 9.8 146C8 146.4 6.7 148 6.7 149.9C6.7 150.1 6.7 150.4 6.8 150.6C5.8 151 5.2 151.9 5.2 153C5.2 153.6 5.4 154.2 5.8 154.6C6.5 153.3 7.8 152.3 9.4 152.2C10 152.4 10.6 152.5 11.2 152.5C11.6 152.5 12 152.5 12.4 152.4C12.1 151.9 11.9 151.3 11.9 150.7C11.9 149 13.3 147.6 15 147.6C15.2 147.6 15.3 147.6 15.4 147.6C13.8 148.3 12.7 149.7 13.1 151C13.3 151.9 14.2 152.6 15.3 152.8C15.3 153.5 15.1 154.1 14.8 154.7C16.2 154.6 17.5 153.7 18.1 152.5C19.8 151.8 20.8 150.4 20.5 149C20.4 148.5 20.1 148.1 19.7 147.8C19.7 147.7 19.7 147.7 19.7 147.7C19.7 146.8 20.4 146 21.3 146C22.2 146 23 146.7 23 147.7C23 148.1 22.8 148.5 22.6 148.8H26C26.2 148.8 26.4 148.7 26.6 148.6C26.8 148.5 26.9 148.4 27.1 148.2L29.3 144.9C29.4 144.8 29.5 144.7 29.6 144.6C29.7 144.5 29.9 144.5 30 144.5H32.7C32.5 144.5 32.4 144.5 32.3 144.6C32.2 144.7 32.1 144.7 32 144.9L29.8 148.2C29.7 148.4 29.5 148.5 29.3 148.6C29.1 148.7 28.9 148.8 28.7 148.8H32.8C33 148.8 33.2 148.7 33.4 148.6C33.6 148.5 33.7 148.4 33.9 148.2L36.4 144.5C34.7 143.6 34 141.9 34 139.7C34 138.3 34.8 136.7 34.9 135.7L35 135.3C35 135.1 35 134.9 34.9 134.7C34.8 134.5 34.7 134.3 34.6 134.2L36.7 136.4C36.9 136.6 37 136.7 37.1 136.9C37.2 137.1 37.2 137.3 37.2 137.5L37.1 138C37 138.9 35.9 140.7 37.9 142.4C38 142.5 38.2 142.7 38.5 142.8L39.9 143.7V138.4H41.9V144.3C41.9 144.5 42 144.7 42.1 144.9C42.2 145.1 42.3 145.2 42.5 145.4L44.5 146.6C44.7 146.7 44.9 146.8 45.1 146.8C45.3 146.8 45.5 146.8 45.7 146.7L49.3 145.1C49.1 145.2 48.9 145.2 48.7 145.2C48.5 145.2 48.3 145.1 48.1 145L43.9 142.3C45.9 140.6 44.8 138.7 44.7 137.9L44.6 137.4C44.6 137.2 44.6 137 44.7 136.8C44.8 136.6 44.9 136.4 45.1 136.3L47.2 134.1C47.1 134.3 47 134.5 46.9 134.6C46.8 134.8 46.8 135 46.8 135.2V135.6C47 137.1 48.5 139.7 47.2 141.2L51 143.6C51.2 143.7 51.4 143.8 51.6 143.8C51.8 143.8 52 143.8 52.2 143.7L56 142.1C55.8 142.2 55.6 142.2 55.4 142.2C55.2 142.2 55 142.1 54.8 142L50.7 139.4C51.6 137.6 50.8 134.6 50 133L49.9 132.7C49.8 132.5 49.8 132.3 49.8 132.1C49.8 131.9 49.9 131.7 50 131.5L51.4 129C51.3 129.2 51.2 129.4 51.2 129.6C51.2 129.8 51.2 130 51.3 130.2L51.8 131.2C52.1 131.7 52.2 132 52.5 132.6C54.8 130.5 55.3 128.5 53.9 126.8L53.5 126.3C53.4 126.1 53.3 126 53.2 125.8C53.1 125.6 53.1 125.4 53.2 125.2L54 122.4C53.9 122.6 53.9 122.8 54 123C54.1 123.2 54.1 123.4 54.3 123.6L55.7 125.3C58.5 128.5 56.8 132.6 53.5 135.7C53.7 136.3 53.9 137.4 53.7 138L58.2 140.8C58.4 140.9 58.6 141 58.8 141C59 141 59.2 141 59.4 140.9L62.6 139.5C62.4 139.6 62.2 139.6 62 139.6C61.2 139.6 60.5 138.9 60.5 138.1C60.5 137.4 60.9 136.8 61.5 136.7C73.8 133 85.1 123.3 92.5 123.3C96.1 123.3 99 125.5 99 128.2C99 128.6 98.9 129.1 98.8 129.5C97.2 134 99.5 138.2 105.6 139.8C106.6 140.1 107.3 141 107.3 142C107.3 142.2 107.3 142.4 107.2 142.6C107.3 142.6 107.5 142.6 107.6 142.6C109.3 142.6 110.8 141.8 111.7 140.5C112.7 140.5 113.9 140.4 115 140.3C115.1 140.6 115.3 140.9 115.3 141.3C115.6 142.6 115.1 143.7 114.3 144C112.9 144.5 111.2 143.9 109.9 143.9C107.4 143.9 105.4 146 105.4 148.5C105.4 148.7 105.4 148.9 105.4 149.1C104.6 149.6 104.1 150.4 104.1 151.5C104.1 152 104.2 152.5 104.5 152.9C105.3 152 106.3 151.3 107.4 150.9C107.5 148.7 109.3 146.9 111.5 146.9C111.8 146.9 112.2 146.9 112.5 147C110.3 147.3 108.5 149.2 108.5 151.5C108.5 151.7 108.5 151.8 108.5 152C108.2 152.3 108.1 152.8 108.1 153.2C108.1 153.8 108.4 154.3 108.8 154.7C109.2 153.8 110.3 152.9 111.6 152.4C112.5 152.1 113.4 152 114.1 152.2C114 151.8 113.9 151.5 113.9 151.1C113.9 149.1 115.5 147.5 117.5 147.5C117.7 147.5 117.9 147.5 118 147.5C116.6 147.7 115.6 148.9 115.6 150.3C115.6 151.3 116.1 152.1 116.8 152.6C116.8 152.7 116.8 152.7 116.8 152.8C116.8 153.6 117.2 154.3 117.7 154.7C118 153.4 119.1 152.4 120.5 152.4C121.7 152.4 122.6 152.2 123.4 152C124.6 151.6 125.5 150.5 125.5 149.1C125.5 148.2 125.1 147.3 124.4 146.8C124.7 145.3 124.7 142.8 124.1 140.7C124.2 140.7 124.3 140.7 124.4 140.7C124.8 141 125.5 141.4 126 142.1ZM63.4 168C63.3 167.7 63.3 167.3 63.4 167C63.5 166.3 64.1 165.8 64.8 165.8C65.6 165.8 66.2 166.5 66.2 167.3C66.2 167.7 66 168 65.8 168.3C66.1 168.3 66.4 168.3 66.7 168.3C67.4 168.3 68.2 168.2 68.8 168C69.8 167.7 70.6 166.8 70.6 165.7C70.6 164.4 69.5 163.3 68.2 163.3H68C68.3 163.2 68.7 163.1 69.1 163.1C70.6 163.1 71.9 164.4 71.9 165.9C71.9 166 71.9 166.1 71.9 166.1C76.1 166 80.7 162.2 81.8 160.8C80.5 161.1 79.1 161.3 77.6 161.3C75.9 161.3 74.3 161.1 72.9 160.7C70.9 160.2 68.9 159.8 67.3 159.8C62.2 159.8 58.1 163.1 58.1 167.2C58.1 170.6 60.9 173.6 64.8 174.4C73.6 176.2 84 170.9 92.8 169.1C95 167 97.5 165.2 100.3 163.8C100.2 163.5 100.2 163.2 100.2 162.8C88.6 164.7 78.1 170.7 68.6 170.7C65.8 170.7 63.7 169.7 63.4 168ZM63.1 146.5C63.3 146.5 63.5 146.5 63.6 146.5C61.9 147 60.4 148.3 59.8 150C58.7 150.4 57.9 151.4 57.9 152.6C57.9 153.2 58.1 153.7 58.4 154.1C59.3 153 60.6 152.3 62 151.9C62.4 149.9 64.1 148.3 66.2 148.1C64.4 148.9 63.1 150.7 63.1 152.7C63.1 153.5 63.3 154.2 63.5 154.8C63.8 153.6 64.9 152.8 66.1 152.8C66.4 152.8 66.7 152.9 67 153C67.4 153.1 67.8 153.2 68.2 153.2C70.2 153.2 71.8 151.6 71.8 149.5C71.8 149.1 71.7 148.7 71.6 148.3C72.6 148.6 73.3 149.5 73.3 150.5C73.3 151 73.2 151.4 72.9 151.8C73.2 151.9 73.4 151.9 73.7 151.9C76.1 151.9 78 150.1 78.3 147.8C79.5 147.2 80.5 146.3 81.4 145.2L82 148.3C82.1 148.5 82 148.7 82 148.9C82 149.1 81.8 149.3 81.7 149.4L84.3 146.7C84.5 146.6 84.6 146.4 84.6 146.2C84.7 146 84.7 145.8 84.6 145.6L83.8 141.8C83.8 141.6 83.8 141.4 83.8 141.2C83.9 141 84 140.8 84.1 140.7L86.2 138.6C86 138.8 85.9 138.9 85.9 139.1C85.8 139.3 85.8 139.5 85.9 139.7L86.7 143.5C86.8 143.7 86.7 143.9 86.7 144.1C86.6 144.3 86.5 144.5 86.4 144.6L88.7 142.2C88.9 142 89 141.8 89 141.7C89.1 141.5 89.1 141.3 89 141.1L88.2 137.3C88.1 137.1 88.2 136.9 88.2 136.7C88.3 136.5 88.4 136.3 88.5 136.2L90.6 134.1C90.4 134.3 90.3 134.4 90.3 134.6C90.2 134.8 90.2 135 90.3 135.2L91.1 139C91.2 139.2 91.1 139.4 91.1 139.6C91 139.8 90.9 140 90.8 140.1L93.1 137.7C93.3 137.5 93.3 137.4 93.4 137.2C93.5 137 93.5 136.8 93.4 136.6L93 134.7C92.6 132.6 94.8 130.2 96.5 130C96.7 129.6 96.8 129.2 96.8 128.7C96.8 126.6 94.3 124.9 91.2 124.9C89.7 124.9 88.3 125.3 87.3 126C87.7 127.2 87.8 128.4 83.8 129C80.6 129.4 77.8 130.1 75.7 131.9C72.4 134.7 72.7 138.4 70.9 139.8C71.7 140 72.8 140 73.9 139.8C74.6 139.7 75.3 139.4 75.8 139.1C75.5 139.8 74.7 140.4 73.6 140.8C73.3 142.1 72.1 143.4 70.5 143.9C69.5 144.3 68.5 144.3 67.7 144.1L63.9 143C63.4 142.9 62.9 142.8 62.4 142.8C59.6 142.8 57.3 145 56.9 147.8C55.6 148 54.6 149.1 54.6 150.5C54.6 151 54.7 151.5 55 151.9C55.9 151 57.1 150.3 58.4 149.9C59.2 147.9 61 146.5 63.1 146.5ZM42.8 181.3C43 180.1 43.1 178.8 43.1 177.7L42 179C41.8 178.5 41.6 178.2 41.5 177.9C41.4 177.7 41.3 177.5 41.1 177.5C41 177.5 40.9 177.6 40.8 177.6C40.7 177.6 40.5 177.6 40.3 177.6C40.2 177.6 40 177.6 39.8 177.6C39.7 177.6 39.6 177.5 39.5 177.5C39.3 177.5 39.3 177.7 39.1 177.9C39 178.2 38.8 178.5 38.6 179L37.5 177.7C37.5 178.9 37.6 180.1 37.8 181.3C38.6 181.1 39.5 181 40.3 181C41.2 181.1 42 181.1 42.8 181.3ZM43.3 184.7C43.4 183.3 41.8 182.8 40.3 182.8C38.8 182.8 37.2 183.3 37.3 184.7C37.5 186.4 39.1 185.6 40.3 185.6C41.6 185.6 43.2 186.4 43.3 184.7ZM47.6 174.5C47.3 174.6 47.1 174.7 47.1 175.1C46.9 176.8 46.2 177.4 45.2 177.8C45.2 179.5 44.9 180.8 44.5 182.3C45.8 185 44.8 186.8 43.8 187.2C42.8 187.6 41.5 187.1 40.4 187.1C39.3 187.1 38 187.6 37 187.2C36 186.8 35 184.9 36.3 182.3C35.9 180.7 35.6 179.5 35.6 177.8C34.5 177.4 33.8 176.8 33.7 175.1C33.7 174.8 33.5 174.6 33.2 174.5C28.9 173.3 28.6 168 30.7 166.5C30.5 168.9 30.3 172.2 35.1 172.6C35 175.4 36.2 176.1 37.5 176.1C38.5 176.1 39.1 175.8 39.3 175.6C40.2 175.1 39.6 174.4 39.4 174.2C38.8 173.6 38.5 172.8 38.6 172C38.6 171.8 38.7 171.8 38.8 171.8H42C42.1 171.8 42.2 171.9 42.2 172C42.3 172.8 42 173.6 41.4 174.2C41.2 174.4 40.5 175.1 41.4 175.6C41.7 175.7 42.2 176.1 43.3 176.1C44.5 176.1 45.7 175.4 45.6 172.6C50.4 172.2 50.2 168.8 50 166.5C52.2 168 51.8 173.3 47.6 174.5ZM48.9 165.3C48.9 166.5 48 167.9 47 167.9H46.1C46.3 168.2 46.5 168.5 46.5 168.9C46.5 169.8 45.8 170.5 44.9 170.5C44 170.5 43.3 169.8 43.3 168.9C43.3 168.5 43.4 168.1 43.7 167.9H42.7C42.4 167.9 42.1 168 41.9 168.4C41.8 167.9 41.8 167.3 41.9 167C42.1 166.5 42.4 166.2 42.8 166.2H47C47.8 166.1 48.4 165.9 48.9 165.3ZM48.3 163.2H46.8C46.1 163.2 45.6 162.9 45.1 162.4L43.4 160.2C43.1 159.8 42.9 159.6 42.5 159.4H44.2C44.7 159.4 45.2 159.6 45.5 160.1L47.3 162.4C47.8 162.9 47.9 163.2 48.3 163.2ZM40.6 159.6L42.8 162.7C43.1 163.2 43.5 163.5 43.9 163.7H41.9C41.1 163.7 40.7 163.3 40.4 162.8L38.7 160.2C38.1 159.2 37.8 159 37 158.7H38.8C39.6 158.6 40.2 159.1 40.6 159.6ZM35.7 160.1L37.5 162.4C37.9 162.9 38 163.2 38.5 163.3H37C36.3 163.3 35.7 163 35.3 162.5L33.6 160.3C33.3 159.9 33.1 159.7 32.7 159.5H34.4C34.9 159.5 35.3 159.7 35.7 160.1ZM34.6 167.8H33.7C32.7 167.8 31.8 166.4 31.8 165.2C32.4 165.8 32.9 166.1 33.7 166.1H38C38.4 166.1 38.8 166.4 38.9 166.9C39 167.3 39 167.8 38.9 168.3C38.7 167.9 38.4 167.8 38.1 167.8H37.1C37.3 168.1 37.5 168.4 37.5 168.8C37.5 169.7 36.8 170.4 35.9 170.4C35 170.4 34.3 169.7 34.3 168.8C34.2 168.5 34.4 168.1 34.6 167.8ZM29.4 188.1L29.9 187.1C30 186.9 30.1 186.7 30.1 186.5C30.1 186.3 30 186.1 29.9 185.9L31.3 188.5C31.4 188.7 31.5 188.9 31.5 189.1C31.5 189.3 31.5 189.5 31.4 189.7L31.3 190C30.4 191.7 29.6 194.8 30.5 196.7C28.4 195.9 27.7 194.1 27.9 192.6C24 188.8 23 185.1 25.8 181.9L27.2 180.2C27.4 180 27.4 179.8 27.5 179.6C27.6 179.4 27.6 179.2 27.5 179L28.3 181.8C28.4 182 28.4 182.2 28.3 182.4C28.3 182.6 28.2 182.8 28 183L27.6 183.5C26.1 185.2 26.5 187.5 28.8 189.6C28.9 188.9 29.1 188.6 29.4 188.1ZM126 198.7C126.2 198.3 126.2 197.9 126.2 197.5C126.2 195.7 124.8 194.3 123 194.3H119.8C119.6 194.3 119.4 194.2 119.2 194.2C119 194.1 118.9 194 118.7 193.8L117.1 191.4C117.2 191.6 117.4 191.7 117.6 191.8C117.8 191.9 118 192 118.2 192H122.5C122.7 192 122.9 192.1 123.1 192.1C123.3 192.2 123.4 192.3 123.6 192.5L121.6 189.6C121.5 189.4 121.3 189.3 121.1 189.2C120.9 189.1 120.7 189.1 120.5 189.1H116.3C116.1 189.1 115.9 189 115.7 188.9C115.5 188.8 115.3 188.7 115.2 188.5L113.4 185.8C113.5 186 113.7 186.1 113.9 186.2C114.1 186.3 114.3 186.4 114.5 186.3H118.7C118.9 186.3 119.1 186.4 119.3 186.5C119.5 186.6 119.6 186.7 119.8 186.9L117.8 184C117.7 183.8 117.5 183.7 117.3 183.6C117.1 183.5 116.9 183.5 116.7 183.5H113.3C113.1 183.5 112.9 183.4 112.7 183.3C112.5 183.2 112.4 183.1 112.2 182.9L109.9 179.6C114.5 179.1 118.2 176.6 118.9 173.1C119.9 168.7 115.5 164.4 109.1 163.4C108 163.2 107.2 162.3 107.2 161.2C107.2 160.2 107.8 159.4 108.6 159.1C107.9 158.8 107.2 158.6 106.4 158.6C103.6 158.6 101.3 160.6 101.3 163.1C101.3 163.5 101.4 164 101.5 164.4C98.3 165.8 95.5 168.2 93.3 170.8C95.7 170.2 98.1 169.8 100.7 169.8C100.7 169.7 100.7 169.5 100.7 169.4C100.7 167.5 102.2 165.9 104.2 165.9H104.3C103 166.5 102.4 167.7 102.4 168.5C102.4 169.5 103.2 170.3 104.2 170.3C104.6 170.3 104.9 170.2 105.2 170C105.1 169.8 105.1 169.5 105.1 169.3C105.1 167.9 106.2 166.8 107.6 166.8C107.7 166.8 107.8 166.8 108 166.8C107.1 167.2 106.4 168.2 106.4 169.3C106.4 170.8 107.6 172.1 109.2 172.1C109.4 172.1 109.5 172.1 109.7 172.1C109.6 171.9 109.6 171.8 109.6 171.6C109.6 170.5 110.5 169.6 111.6 169.6C112.7 169.6 113.6 170.5 113.6 171.6C113.6 174 110.9 174.2 109 173.7C103.5 172.1 98.3 171.4 93.3 172.1C86.9 173 76.4 177.3 65.3 177C62.8 176.9 60.1 176.5 57.4 175.8C57.7 176.2 58 176.4 58.1 176.6C59.2 178.3 59.6 180.1 58.6 182.3C58.6 179.8 56.6 177.8 54.9 176.5C54.2 176 53.9 175.5 54 174.9L54.5 172C54.5 172.2 54.5 172.4 54.5 172.6C54.6 172.8 54.7 173 54.8 173.1L55.9 174.1C56.3 171.2 55.7 168.5 53.9 166C54.7 164 54.8 161.8 54.3 159.7C54.1 161.3 53.3 161.9 52.6 162.4C51.2 163.2 51 164.7 51.7 165.6C50.6 165 49 162.9 49.9 161.7C50.9 160.4 53.6 161 53.9 158.7C52.1 158.1 50.3 158.5 49.8 158.7C48.8 157.5 47.4 156.9 45.7 156.9C44.3 155.7 42.6 155.2 40.5 155.4C38.4 155.2 36.6 155.7 35.3 156.9C33.6 156.9 32.2 157.5 31.2 158.7C30.7 158.5 28.9 158.2 27.1 158.7C27.4 161 30.1 160.4 31.1 161.7C32 162.9 30.5 165.1 29.3 165.6C30 164.7 29.8 163.2 28.4 162.4C27.7 161.9 26.9 161.3 26.7 159.7C26.2 161.8 26.3 164 27.1 166C25.4 168.5 24.7 171.2 25.1 174.1L26.2 173.1C26.4 172.9 26.5 172.8 26.5 172.6C26.6 172.4 26.6 172.2 26.5 172L27 174.9C27.1 175.5 26.8 176 26.1 176.5C24.4 177.7 22.3 179.8 22.4 182.3C21.4 180.1 21.8 178.2 22.9 176.6C19.6 174.8 17.2 171.9 16.7 171.4C15.7 170.3 15.8 168.8 16.8 167.5C18.5 165 18.9 162.4 16.8 160.6C16.8 160.5 16.8 160.3 16.8 160.2C16.8 158.6 15.6 157.2 14.1 156.9C14.4 157.3 14.6 157.9 14.6 158.5C14.6 159.1 14.4 159.7 14 160.2C14.3 160.6 14.5 161.1 14.5 161.7C14.5 162.4 14.2 163.1 13.7 163.5C13.8 163.2 13.8 163 13.8 162.7C13.8 161 12.8 159.6 11.4 159.2C11.2 158 10.1 157 8.8 157C8.1 157 7.4 157.3 6.9 157.8C7.9 157.9 8.7 158.7 8.8 159.7C8.3 160.1 7.9 160.6 7.7 161.1H7.8C9.5 161.1 10.9 162.5 10.9 164.2C10.9 164.4 10.9 164.6 10.8 164.8C10.7 164.1 10.4 163.4 9.8 162.9C8.8 161.9 7.4 161.8 6.1 162.2C5.6 161.6 4.9 161.2 4 161.2C3.1 161.2 2.2 161.7 1.8 162.4C2.8 162.4 3.6 162.9 4.1 163.6C2.7 165.3 2.7 167.7 4.1 169.1C5 170 6.4 170.2 7.6 169.8C7.7 169.8 7.8 169.8 7.9 169.8C8.4 169.8 8.7 170.2 8.7 170.6C8.7 171.1 8.3 171.4 7.9 171.4C7.7 171.4 7.5 171.3 7.4 171.2C7.1 170.9 6.7 170.8 6.2 170.8C5.2 170.8 4.4 171.6 4.4 172.6C4.4 172.7 4.4 172.7 4.4 172.8C4.2 172.9 4 172.9 3.9 172.9C3.4 172.9 3 172.7 2.6 172.4C2.5 172.6 2.5 172.8 2.5 173C2.5 174.3 3.5 175.3 4.8 175.4C5.4 176.8 6.7 177.8 8.4 177.8C9.2 177.8 10 177.5 10.6 177.1C10.9 176.9 11.2 176.8 11.6 176.8C12.5 176.8 13.3 177.6 13.3 178.5C13.3 179.3 12.7 180 12 180.1L10.7 180.4C10.5 180.5 10.3 180.4 10.1 180.4C9.9 180.3 9.7 180.2 9.6 180.1L12.6 182.9C12.8 183.1 13 183.1 13.1 183.2C13.3 183.3 13.5 183.3 13.7 183.2L16.1 182.7C16.3 182.7 16.5 182.7 16.7 182.7C16.9 182.8 17.1 182.9 17.2 183L19.3 184.9C19.1 184.7 19 184.7 18.8 184.6C18.6 184.5 18.4 184.5 18.2 184.6L15.8 185.1C15.6 185.1 15.4 185.1 15.2 185.1C15 185 14.8 184.9 14.7 184.8L17.4 187.4C17.6 187.6 17.7 187.7 17.9 187.7C18.1 187.8 18.3 187.8 18.5 187.7L21 187.2C21.2 187.1 21.4 187.2 21.6 187.2C21.8 187.3 22 187.3 22.1 187.5L24.1 189.4C23.9 189.3 23.8 189.2 23.6 189.1C23.4 189 23.2 189 23 189.1L20.6 189.6C20.4 189.7 20.2 189.6 20 189.6C19.8 189.5 19.6 189.4 19.5 189.3L22.2 191.9C22.4 192.1 22.5 192.2 22.7 192.2C22.9 192.3 23.1 192.3 23.3 192.2L26.3 191.5C23.4 193.1 20.4 195 17.1 197C15.2 198.2 13.1 198.5 10.7 197.5C9.4 197 8 196.9 7.1 197.1C5.9 197.3 5 198 4.4 199C4.9 198.8 5.3 198.7 5.9 198.7C7 198.7 7.9 199.1 8.7 199.8C7.6 199.3 6.2 199.3 4.8 199.8C2.4 200.7 1 203 1.5 205C0.6 205.4 0 206.2 0 207.3C0 208 0.300001 208.6 0.700001 209C0.900001 207.9 1.9 207.1 3 207.1C3.5 207.4 4 207.6 4.6 207.8C4.8 207.5 5 207.2 5.3 207C5.3 206.8 5.3 206.6 5.3 206.4C5.3 204.2 7.1 202.4 9.3 202.4C9.5 202.4 9.7 202.4 9.8 202.4C8 202.8 6.7 204.4 6.7 206.3C6.7 206.5 6.7 206.8 6.8 207C5.8 207.4 5.2 208.3 5.2 209.4C5.2 210 5.4 210.6 5.8 211C6.5 209.7 7.8 208.7 9.4 208.6C10 208.8 10.6 208.9 11.2 208.9C11.6 208.9 12 208.9 12.4 208.8C12.1 208.3 11.9 207.7 11.9 207C11.9 205.3 13.3 203.9 15 203.9C15.2 203.9 15.3 203.9 15.4 203.9C13.8 204.6 12.7 206 13.1 207.3C13.3 208.2 14.2 208.9 15.3 209.1C15.3 209.8 15.1 210.4 14.8 211C16.2 210.9 17.5 210 18.1 208.8C19.8 208.1 20.8 206.6 20.5 205.4C20.4 204.9 20.1 204.5 19.7 204.2V204.1C19.7 203.2 20.4 202.4 21.3 202.4C22.2 202.4 23 203.1 23 204.1C23 204.5 22.8 204.9 22.6 205.2H26C26.2 205.2 26.4 205.1 26.6 205C26.8 204.9 26.9 204.8 27.1 204.6L29.3 201.3C29.4 201.2 29.5 201.1 29.6 201C29.7 200.9 29.9 200.9 30 200.9H32.7C32.5 200.9 32.4 200.9 32.3 201C32.2 201.1 32.1 201.2 32 201.3L29.8 204.6C29.7 204.8 29.5 204.9 29.3 205C29.1 205.1 28.9 205.2 28.7 205.2H32.8C33 205.2 33.2 205.1 33.4 205C33.6 204.9 33.7 204.8 33.9 204.6L36.4 200.9C34.7 200 34 198.3 34 196.1C34 194.7 34.8 193.1 34.9 192.1L35 191.7C35 191.5 35 191.3 34.9 191.1C34.8 190.9 34.7 190.7 34.6 190.6L36.7 192.8C36.9 192.9 37 193.1 37.1 193.3C37.2 193.5 37.2 193.7 37.2 193.9L37.1 194.4C37 195.3 35.9 197.1 37.9 198.8C38 198.9 38.2 199.1 38.5 199.2L39.9 200.1V194.8H41.9V200.7C41.9 200.9 42 201.1 42.1 201.3C42.2 201.5 42.3 201.6 42.5 201.8L44.5 203C44.7 203.1 44.9 203.2 45.1 203.2C45.3 203.2 45.5 203.2 45.7 203.1L49.3 201.5C49.1 201.6 48.9 201.6 48.7 201.6C48.5 201.6 48.3 201.5 48.1 201.4L43.9 198.8C45.9 197.1 44.8 195.2 44.7 194.4L44.6 193.9C44.6 193.7 44.6 193.5 44.7 193.3C44.8 193.1 44.9 192.9 45.1 192.8L47.2 190.6C47.1 190.8 47 191 46.9 191.1C46.8 191.3 46.8 191.5 46.8 191.7V192.1C47 193.6 48.5 196.2 47.2 197.7L51 200.1C51.2 200.2 51.4 200.3 51.6 200.3C51.8 200.3 52 200.3 52.2 200.2L56 198.6C55.8 198.7 55.6 198.7 55.4 198.7C55.2 198.7 55 198.6 54.8 198.5L50.7 195.9C51.6 194.1 50.8 191.1 50 189.5L49.9 189.2C49.8 189 49.8 188.8 49.8 188.6C49.8 188.4 49.9 188.2 50 188L51.4 185.4C51.3 185.6 51.2 185.8 51.2 186C51.2 186.2 51.2 186.4 51.3 186.6L51.8 187.6C52.1 188.1 52.2 188.4 52.5 189C54.8 186.9 55.3 184.9 53.9 183.2L53.5 182.7C53.4 182.5 53.3 182.3 53.2 182.2C53.1 182 53.1 181.8 53.2 181.6L54 178.8C53.9 179 53.9 179.2 54 179.4C54.1 179.6 54.1 179.8 54.3 180L55.7 181.7C58.5 184.9 56.8 189 53.5 192.1C53.7 192.7 53.9 193.8 53.7 194.4L58.2 197.2C58.4 197.3 58.6 197.4 58.8 197.4C59 197.4 59.2 197.4 59.4 197.3L62.6 195.9C62.4 196 62.2 196 62 196C61.2 196 60.5 195.3 60.5 194.5C60.5 193.8 60.9 193.3 61.5 193.1C73.8 189.4 85.1 179.7 92.5 179.7C96.1 179.7 99 181.9 99 184.6C99 185 98.9 185.5 98.8 185.9C97.2 190.4 99.5 194.6 105.6 196.3C106.6 196.6 107.3 197.5 107.3 198.5C107.3 198.7 107.3 198.9 107.2 199.1C107.3 199.1 107.5 199.1 107.6 199.1C109.3 199.1 110.8 198.3 111.7 197C112.7 197 113.9 196.9 115 196.8C115.1 197.1 115.3 197.4 115.3 197.8C115.6 199.1 115.1 200.2 114.3 200.5C112.9 200.9 111.2 200.4 109.9 200.4C107.4 200.4 105.4 202.5 105.4 205C105.4 205.2 105.4 205.4 105.4 205.6C104.6 206.1 104.1 207 104.1 208C104.1 208.5 104.2 209 104.5 209.4C105.3 208.5 106.3 207.8 107.4 207.4C107.5 205.2 109.3 203.4 111.5 203.4C111.8 203.4 112.2 203.5 112.5 203.5C110.3 203.8 108.5 205.7 108.5 208C108.5 208.2 108.5 208.3 108.5 208.5C108.2 208.8 108.1 209.3 108.1 209.7C108.1 210.3 108.4 210.8 108.8 211.2C109.2 210.3 110.3 209.4 111.6 208.9C112.5 208.6 113.4 208.5 114.1 208.7C114 208.4 113.9 208 113.9 207.6C113.9 205.6 115.5 204 117.5 204C117.7 204 117.9 204 118 204C116.6 204.2 115.6 205.4 115.6 206.8C115.6 207.8 116.1 208.6 116.8 209.1C116.8 209.2 116.8 209.2 116.8 209.3C116.8 210.1 117.2 210.8 117.7 211.2C118 209.9 119.1 208.9 120.5 208.9C121.7 208.9 122.6 208.8 123.4 208.5C124.6 208.1 125.5 207 125.5 205.6C125.5 204.6 125.1 203.8 124.4 203.3C124.7 201.8 124.7 199.3 124.1 197.2C124.2 197.2 124.3 197.2 124.4 197.2C124.8 197.6 125.5 198 126 198.7ZM166.3 254V0H170.5V254H166.3Z" fill="#0000F0"/>
</svg>
