<svg width="40" height="48" viewBox="0 0 40 48" fill="none" xmlns="http://www.w3.org/2000/svg">
<g clip-path="url(#clip0_381_142)">
<path d="M0.506134 12.4611L24.6226 14.167C24.6226 14.167 20.7699 28.3884 28.4964 46.1055L4.54875 47.979C4.54875 47.979 -1.80213 32.1397 0.506134 12.4611Z" fill="#224186"/>
<path d="M26.2764 40.1914L9.70508 41.2267L15.9083 47.0947L28.4961 46.1055C28.4961 46.1055 26.5845 41.4949 26.2764 40.1914Z" fill="#224186"/>
<path d="M7.97494 6.28711L32.0914 7.96367C32.0914 7.96367 30.125 25.6472 33.7287 39.7136L9.70508 41.2267C9.70508 41.2267 4.97041 26.9885 7.97494 6.28711Z" fill="#3F64E5"/>
<path d="M33.7331 39.7304C33.7331 39.7304 32.7246 35.5935 32.5684 33.9504C32.4123 32.3074 15.8789 34.9522 15.8789 34.9522L22.1412 40.4513L33.7331 39.7304Z" fill="#3F64E5"/>
<path d="M15.8793 0L40 1.7059C40 1.7059 36.3962 19.4397 40 33.5061L15.8793 34.9521C15.8793 34.9521 12.8748 20.7181 15.8793 0Z" fill="#559FF6"/>
</g>
<defs>
<clipPath id="clip0_381_142">
<rect width="40" height="48" fill="white"/>
</clipPath>
</defs>
</svg>
