<svg width="24" height="24" viewBox="0 0 24 24" fill="none" xmlns="http://www.w3.org/2000/svg">
<g clip-path="url(#clip0_0_3)">
<rect x="1" y="3" width="22" height="20" fill="black"/>
<path d="M22 0H1.99996C-0.761036 0 -2.97129e-05 2.239 -2.97129e-05 5V19C-2.97129e-05 21.761 -0.261036 24 2.49996 24H21.5C24.262 24 24 21.761 24 19V5C24 2.239 24.762 0 22 0ZM7.99997 19H4.99997V8H7.99997V19ZM6.49997 6.732C5.53397 6.732 4.74997 5.942 4.74997 4.968C4.74997 3.994 5.53397 3.204 6.49997 3.204C7.46597 3.204 8.24997 3.994 8.24997 4.968C8.24997 5.942 7.46697 6.732 6.49997 6.732ZM20 19H17V13.396C17 10.028 13 10.283 13 13.396V19H9.99997V8H13V9.765C14.396 7.179 20 6.988 20 12.241V19Z" fill="white"/>
</g>
<defs>
<clipPath id="clip0_0_3">
<rect width="24" height="24" fill="white"/>
</clipPath>
</defs>
</svg>
