<svg xmlns="http://www.w3.org/2000/svg" xmlns:xlink="http://www.w3.org/1999/xlink" viewBox="0 0 326.22 326.44"><defs><style>.cls-1{fill:none;}.cls-2{isolation:isolate;}.cls-3{opacity:0.7;}.cls-4{fill:#fff;opacity:0;}.cls-5{fill:#fbfbfb;opacity:0.05;}.cls-6{fill:#f8f8f8;opacity:0.1;}.cls-7{fill:#f4f4f4;opacity:0.14;}.cls-8{fill:#f1f1f0;opacity:0.19;}.cls-9{fill:#ededed;opacity:0.24;}.cls-10{fill:#e9e9e9;opacity:0.29;}.cls-11{fill:#e6e6e5;opacity:0.33;}.cls-12{fill:#e2e2e2;opacity:0.38;}.cls-13{fill:#dedede;opacity:0.43;}.cls-14{fill:#dbdbda;opacity:0.48;}.cls-15{fill:#d7d7d7;opacity:0.52;}.cls-16{fill:#d4d4d3;opacity:0.57;}.cls-17{fill:#d0d0cf;opacity:0.62;}.cls-18{fill:#ccc;opacity:0.67;}.cls-19{fill:#c9c9c8;opacity:0.71;}.cls-20{fill:#c5c5c4;opacity:0.76;}.cls-21{fill:#c1c1c1;opacity:0.81;}.cls-22{fill:#bebebd;opacity:0.86;}.cls-23{fill:#babab9;opacity:0.9;}.cls-24{fill:#b7b7b6;opacity:0.95;}.cls-25{fill:#b3b3b2;}.cls-26{fill:#fcda00;}.cls-27{fill:#ffca02;}.cls-28{fill:#d10910;}.cls-29{clip-path:url(#clip-path);}.cls-30{fill:#e7eaec;}.cls-31{fill:#95ceb8;}.cls-32{clip-path:url(#clip-path-2);}.cls-33{fill:#e5e5e2;}.cls-34{fill:#4ab285;}.cls-35{fill:#003d60;}.cls-36,.cls-37,.cls-46{mix-blend-mode:soft-light;}.cls-36{fill:url(#Безымянный_градиент_5);}.cls-37{fill:url(#Безымянный_градиент_2036);}.cls-38,.cls-39,.cls-45{mix-blend-mode:multiply;}.cls-38{fill:url(#Безымянный_градиент_761);}.cls-39{fill:url(#Безымянный_градиент_2038);}.cls-40,.cls-41,.cls-42,.cls-43,.cls-44,.cls-47{mix-blend-mode:overlay;}.cls-40{fill:url(#Безымянный_градиент_500);}.cls-41{fill:url(#Безымянный_градиент_500-2);}.cls-42{fill:url(#Безымянный_градиент_147);}.cls-43{fill:url(#Безымянный_градиент_503);}.cls-44{fill:url(#Безымянный_градиент_543);}.cls-45{fill:url(#Безымянный_градиент_771);}.cls-46{fill:url(#Безымянный_градиент_13);}.cls-47{fill:url(#Безымянный_градиент_549);}.cls-48{mix-blend-mode:hard-light;fill:url(#Безымянный_градиент_8);}</style><clipPath id="clip-path"><polygon class="cls-1" points="136.74 107.98 114.7 90.03 114.7 69.42 136.74 45.24 136.74 107.98"/></clipPath><clipPath id="clip-path-2"><polygon class="cls-1" points="184.59 50.51 184.59 108.94 136.74 122.38 136.74 37.07 184.59 50.51"/></clipPath><linearGradient id="Безымянный_градиент_5" x1="278.05" y1="-23.95" x2="173.89" y2="342.32" gradientUnits="userSpaceOnUse"><stop offset="0" stop-color="#fff"/><stop offset="0.1" stop-color="#fbfafa"/><stop offset="0.22" stop-color="#efecec"/><stop offset="0.35" stop-color="#dbd4d4"/><stop offset="0.48" stop-color="#c0b3b3"/><stop offset="0.62" stop-color="#9c8989"/><stop offset="0.64" stop-color="#958080"/></linearGradient><linearGradient id="Безымянный_градиент_2036" x1="278.05" y1="-23.95" x2="173.89" y2="342.32" gradientUnits="userSpaceOnUse"><stop offset="0" stop-color="#fff"/><stop offset="0.42" stop-color="#d4cccc"/><stop offset="1" stop-color="#958080"/></linearGradient><linearGradient id="Безымянный_градиент_761" x1="268.79" y1="8.63" x2="183.64" y2="308.02" gradientUnits="userSpaceOnUse"><stop offset="0" stop-color="#fff"/><stop offset="0.66" stop-color="#f3f3f3"/><stop offset="1" stop-color="#eaeaea"/></linearGradient><linearGradient id="Безымянный_градиент_2038" x1="139.95" y1="6.28" x2="60.6" y2="300.46" gradientUnits="userSpaceOnUse"><stop offset="0" stop-color="#f1f4f1"/><stop offset="0.33" stop-color="#e8e2e4"/><stop offset="1" stop-color="#d8c2cd"/></linearGradient><linearGradient id="Безымянный_градиент_500" x1="315.06" y1="158.47" x2="319.71" y2="158.47" gradientUnits="userSpaceOnUse"><stop offset="0" stop-color="gray"/><stop offset="0.42" stop-color="#828282"/><stop offset="0.6" stop-color="#898989"/><stop offset="0.74" stop-color="#969696"/><stop offset="0.85" stop-color="#a8a8a8"/><stop offset="0.95" stop-color="#bfbfbf"/><stop offset="1" stop-color="#cfcfcf"/></linearGradient><linearGradient id="Безымянный_градиент_500-2" x1="-989.13" y1="162.53" x2="-984.47" y2="162.53" gradientTransform="matrix(-1, 0, 0, 1, -931.01, 0)" xlink:href="#Безымянный_градиент_500"/><linearGradient id="Безымянный_градиент_147" x1="228.3" y1="6.87" x2="228.02" y2="10.45" gradientUnits="userSpaceOnUse"><stop offset="0" stop-color="#cfcfcf"/><stop offset="0.05" stop-color="#bfbfbf"/><stop offset="0.15" stop-color="#a8a8a8"/><stop offset="0.26" stop-color="#969696"/><stop offset="0.4" stop-color="#898989"/><stop offset="0.58" stop-color="#828282"/><stop offset="1" stop-color="gray"/></linearGradient><linearGradient id="Безымянный_градиент_503" x1="94.51" y1="11.8" x2="95.61" y2="15.99" gradientUnits="userSpaceOnUse"><stop offset="0" stop-color="#ebebeb"/><stop offset="0.04" stop-color="#dbdbdb"/><stop offset="0.12" stop-color="#bfbfbf"/><stop offset="0.21" stop-color="#a8a8a8"/><stop offset="0.32" stop-color="#969696"/><stop offset="0.44" stop-color="#898989"/><stop offset="0.61" stop-color="#828282"/><stop offset="1" stop-color="gray"/></linearGradient><linearGradient id="Безымянный_градиент_543" x1="94.04" y1="311.75" x2="96.35" y2="302.75" gradientUnits="userSpaceOnUse"><stop offset="0" stop-color="#414141"/><stop offset="0.03" stop-color="#565656"/><stop offset="0.08" stop-color="#696969"/><stop offset="0.13" stop-color="#767676"/><stop offset="0.19" stop-color="#7e7e7e"/><stop offset="0.32" stop-color="gray"/></linearGradient><linearGradient id="Безымянный_градиент_771" x1="134.87" y1="161.14" x2="138.19" y2="161.14" gradientUnits="userSpaceOnUse"><stop offset="0" stop-color="#fff"/><stop offset="0.21" stop-color="#fefefd"/><stop offset="0.3" stop-color="#fcfcf6"/><stop offset="0.36" stop-color="#f9f7e9"/><stop offset="0.42" stop-color="#f4f1d8"/><stop offset="0.46" stop-color="#ede9c1"/><stop offset="0.48" stop-color="#eae5b5"/><stop offset="0.5" stop-color="#eeeac3"/><stop offset="0.55" stop-color="#f4f2d9"/><stop offset="0.61" stop-color="#f9f8ea"/><stop offset="0.67" stop-color="#fcfcf6"/><stop offset="0.76" stop-color="#fefefd"/><stop offset="1" stop-color="#fff"/></linearGradient><linearGradient id="Безымянный_градиент_13" x1="136.53" y1="161.14" x2="144.14" y2="161.14" gradientUnits="userSpaceOnUse"><stop offset="0" stop-color="gray"/><stop offset="0.01" stop-color="#858586"/><stop offset="0.04" stop-color="#97999e"/><stop offset="0.07" stop-color="#a2a5ac"/><stop offset="0.1" stop-color="#a6a9b1"/><stop offset="0.14" stop-color="#9fa1a8"/><stop offset="0.26" stop-color="#919296"/><stop offset="0.39" stop-color="#878889"/><stop offset="0.58" stop-color="#828282"/><stop offset="1" stop-color="gray"/></linearGradient><linearGradient id="Безымянный_градиент_549" x1="228.53" y1="312.06" x2="227.69" y2="303.76" gradientUnits="userSpaceOnUse"><stop offset="0" stop-color="#060606"/><stop offset="0.06" stop-color="#292929"/><stop offset="0.14" stop-color="#4e4e4e"/><stop offset="0.21" stop-color="#6a6a6a"/><stop offset="0.27" stop-color="#7a7a7a"/><stop offset="0.32" stop-color="gray"/></linearGradient><linearGradient id="Безымянный_градиент_8" x1="-964.33" y1="161.14" x2="-961.01" y2="161.14" gradientTransform="matrix(-1, 0, 0, 1, -827.8, 0)" gradientUnits="userSpaceOnUse"><stop offset="0" stop-color="gray"/><stop offset="0.02" stop-color="#999992"/><stop offset="0.05" stop-color="#afb1a3"/><stop offset="0.08" stop-color="#bdbfad"/><stop offset="0.1" stop-color="#c2c4b0"/><stop offset="0.12" stop-color="#bdbfac"/><stop offset="0.21" stop-color="#a7a89c"/><stop offset="0.31" stop-color="#95968f"/><stop offset="0.44" stop-color="#898987"/><stop offset="0.61" stop-color="#828281"/><stop offset="1" stop-color="gray"/></linearGradient></defs><title>1C-8</title><g class="cls-2"><g id="Layer_2" data-name="Layer 2"><g id="lights_shadows" data-name="lights shadows"><g class="cls-3"><path class="cls-4" d="M8.27,306.78C39.94,313.66,124,325,124,325a52.65,52.65,0,0,0,18.4,1.15l180.31-20.6c4.58-.15,4.43-5,.92-5.66l-202-29a78.62,78.62,0,0,0-24.89-.44S36.5,285.24,12.38,289.07C.88,290.9-6.55,303.56,8.27,306.78Z"/><path class="cls-5" d="M10.52,306.56c30.16,6.55,114,18.25,114,18.25a50.48,50.48,0,0,0,17.64,1.1l180.2-20.51c4.39-.15,4.24-4.84.87-5.44L124.06,271.3a75.22,75.22,0,0,0-23.8-.42S37.4,286,14.44,289.66C3.46,291.41-3.62,303.5,10.52,306.56Z"/><path class="cls-6" d="M12.77,306.35c28.65,6.22,112.31,18.32,112.31,18.32A48.32,48.32,0,0,0,142,325.73L322,305.31c4.2-.14,4.06-4.65.83-5.22L126.53,271.77a71.82,71.82,0,0,0-22.72-.4s-65.5,15.41-87.32,18.87C6,291.91-.68,303.43,12.77,306.35Z"/><path class="cls-7" d="M15,306.13c27.15,5.89,110.6,18.4,110.6,18.4a46.15,46.15,0,0,0,16.12,1l180-20.32c4-.14,3.88-4.45.79-5L129,272.25a68.42,68.42,0,0,0-21.63-.38s-68.15,15.68-88.81,19C8.62,292.41,2.25,303.36,15,306.13Z"/><path class="cls-8" d="M17.26,305.91c25.64,5.56,108.88,18.48,108.88,18.48a44,44,0,0,0,15.36,1l179.87-20.23c3.82-.14,3.7-4.26.75-4.78L131.45,272.72a65,65,0,0,0-20.54-.36s-70.79,16-90.31,19.06C11.21,292.92,5.18,303.29,17.26,305.91Z"/><path class="cls-9" d="M19.51,305.7c24.13,5.24,107.16,18.55,107.16,18.55a41.81,41.81,0,0,0,14.61.92L321,305c3.63-.13,3.52-4.06.7-4.56L133.92,273.2a61.61,61.61,0,0,0-19.46-.34S41,289.1,22.66,292C13.79,293.42,8.12,303.22,19.51,305.7Z"/><path class="cls-10" d="M21.76,305.48c22.62,4.91,105.45,18.63,105.45,18.63a39.65,39.65,0,0,0,13.85.87l179.65-20c3.44-.13,3.34-3.87.66-4.34l-185-26.92a58.21,58.21,0,0,0-18.37-.32s-76.07,16.52-93.3,19.25C16.37,293.93,11.05,303.15,21.76,305.48Z"/><path class="cls-11" d="M24,305.26C45.12,309.85,127.74,324,127.74,324a37.48,37.48,0,0,0,13.09.82l179.53-20c3.26-.12,3.16-3.67.62-4.12L138.84,274.14a54.81,54.81,0,0,0-17.28-.3s-78.72,16.79-94.79,19.35C19,294.43,14,303.08,24,305.26Z"/><path class="cls-12" d="M26.26,305c19.6,4.26,102,18.78,102,18.78a35.31,35.31,0,0,0,12.33.78L320,304.73c3.07-.12,3-3.48.58-3.9l-179.3-26.22a51.41,51.41,0,0,0-16.2-.28s-81.36,17.07-96.29,19.44C21.54,294.94,16.92,303,26.26,305Z"/><path class="cls-13" d="M28.51,304.83c18.1,3.93,100.3,18.85,100.3,18.85a33.15,33.15,0,0,0,11.57.73l179.31-19.77c2.88-.11,2.8-3.28.53-3.68L143.77,275.09a48,48,0,0,0-15.11-.26s-84,17.35-97.78,19.53C24.12,295.44,19.86,302.94,28.51,304.83Z"/><path class="cls-14" d="M30.76,304.61c16.59,3.6,98.58,18.93,98.58,18.93a31,31,0,0,0,10.82.68l179.2-19.68c2.69-.11,2.62-3.09.49-3.46L146.23,275.57a44.6,44.6,0,0,0-14-.24S45.57,293,32.94,295C26.7,295.94,22.79,302.87,30.76,304.61Z"/><path class="cls-15" d="M33,304.39c15.08,3.27,96.86,19,96.86,19a28.81,28.81,0,0,0,10.06.64L319,304.44c2.5-.11,2.44-2.89.45-3.24L148.7,276a41.2,41.2,0,0,0-12.94-.22S46.47,293.72,35,295.55C29.28,296.45,25.72,302.81,33,304.39Z"/><path class="cls-16" d="M35.26,304.18c13.57,2.95,95.14,19.08,95.14,19.08a26.64,26.64,0,0,0,9.3.59l179-19.5c2.31-.1,2.26-2.7.41-3L151.16,276.51a37.8,37.8,0,0,0-11.85-.2S47.38,294.49,37,296.14C31.86,297,28.66,302.74,35.26,304.18Z"/><path class="cls-17" d="M37.51,304c12.06,2.62,93.43,19.15,93.43,19.15a24.48,24.48,0,0,0,8.54.55l178.87-19.41c2.12-.1,2.08-2.5.36-2.8L153.62,277a34.4,34.4,0,0,0-10.76-.18S48.29,295.26,39.1,296.72C34.45,297.46,31.59,302.67,37.51,304Z"/><path class="cls-18" d="M39.76,303.74C50.31,306,131.47,323,131.47,323a22.31,22.31,0,0,0,7.79.5L318,304.16c1.93-.09,1.9-2.31.32-2.58L156.09,277.46a31,31,0,0,0-9.68-.16S49.19,296,41.16,297.31C37,298,34.53,302.6,39.76,303.74Z"/><path class="cls-19" d="M42,303.53c9,2,90,19.3,90,19.3a20.14,20.14,0,0,0,7,.45l178.64-19.22a1.19,1.19,0,1,0,.28-2.36l-159.4-23.76a27.6,27.6,0,0,0-8.59-.14s-99.86,19-106.75,20.1C39.61,298.47,37.46,302.53,42,303.53Z"/><path class="cls-20" d="M44.25,303.31c7.54,1.64,88.28,19.38,88.28,19.38a18,18,0,0,0,6.27.41L317.33,304a1.08,1.08,0,0,0,.24-2.14L161,278.41a24.2,24.2,0,0,0-7.5-.12S51,297.58,45.27,298.49C42.19,299,40.4,302.46,44.25,303.31Z"/><path class="cls-21" d="M46.5,303.09c6,1.31,86.56,19.45,86.56,19.45a15.81,15.81,0,0,0,5.51.36l178.42-19a1,1,0,0,0,.19-1.92L163.48,278.89a20.8,20.8,0,0,0-6.42-.1S51.91,298.35,47.32,299.08C44.77,299.47,43.33,302.39,46.5,303.09Z"/><path class="cls-22" d="M48.75,302.88c4.52,1,84.84,19.53,84.84,19.53a13.64,13.64,0,0,0,4.75.31l178.31-18.95a.85.85,0,0,0,.15-1.7L165.94,279.36a17.4,17.4,0,0,0-5.33-.08S52.82,299.13,49.38,299.67C47.36,300,46.26,302.33,48.75,302.88Z"/><path class="cls-23" d="M51,302.66c3,.67,83.13,19.6,83.13,19.6a11.48,11.48,0,0,0,4,.27l178.2-18.85a.74.74,0,0,0,.11-1.48l-148-22.36a14,14,0,0,0-4.24-.06S53.73,299.9,51.43,300.26C49.94,300.49,49.2,302.26,51,302.66Z"/><path class="cls-24" d="M53.25,302.44c1.51.34,81.41,19.68,81.41,19.68a9.31,9.31,0,0,0,3.24.22L316,303.58a.63.63,0,0,0,.07-1.26l-145.18-22a10.62,10.62,0,0,0-3.16,0S54.64,300.67,53.49,300.84C52.52,301,52.13,302.19,53.25,302.44Z"/><path class="cls-25" d="M55.5,302.22,135.19,322a7.14,7.14,0,0,0,2.48.17l178-18.67a.52.52,0,0,0,0-1L173.33,280.78a7.25,7.25,0,0,0-2.07,0L55.54,301.43A.4.4,0,0,0,55.5,302.22Z"/></g><polygon class="cls-26" points="319.7 303.06 136.59 322.28 136.59 0 319.7 13.73 319.7 303.06"/><polygon class="cls-27" points="53.47 23.36 136.59 0 136.59 322.28 53.47 301.71 53.47 23.36"/><path class="cls-28" d="M238.11,123.2a14.77,14.77,0,0,0-6.67,1.47A17,17,0,0,0,226,128.9a20.36,20.36,0,0,0-3.71,6.37,23,23,0,0,0-1.36,7.86,23.29,23.29,0,0,0,.69,5.67,21.82,21.82,0,0,0,1.95,5,19.86,19.86,0,0,0,3,4.18,17.51,17.51,0,0,0,3.85,3.1,7,7,0,0,0,.76.44c.28.14.58.28.86.4l.78.31.53.18c.39.12.82.23,1.26.33s.91.19,1.38.27.94.15,1.4.21l1.34.15.86,0,1.32,0h2.18l53-.18v-8.69l-52.78-.07h-.81l-1.27,0-1.27,0-.8,0-.77-.08-.84-.11-.83-.14L236,154l-.73-.25-.66-.27-.56-.26-.41-.23a9.85,9.85,0,0,1-2-1.73A11.12,11.12,0,0,1,230,149a12.12,12.12,0,0,1-1-2.73,13,13,0,0,1,.39-7.39,11.28,11.28,0,0,1,2-3.52,9.43,9.43,0,0,1,3-2.35,8.19,8.19,0,0,1,7.29.06,9.59,9.59,0,0,1,3,2.32,11.42,11.42,0,0,1,2,3.42,12.72,12.72,0,0,1,.81,4.18L255,143a23,23,0,0,0-1.4-7.62,20.72,20.72,0,0,0-3.62-6.26,17.41,17.41,0,0,0-5.34-4.28,15,15,0,0,0-6.56-1.65m-47.89-1.88L172.83,121v9.32l9.32.12v48.6l8.08-.09V121.32m47.89-13.16a25.78,25.78,0,0,0-11.69,2.49,29.76,29.76,0,0,0-9.66,7.38,35.63,35.63,0,0,0-6.57,11.18A40.06,40.06,0,0,0,207.78,143a40.67,40.67,0,0,0,1.18,9.76,38.32,38.32,0,0,0,3.31,8.71,35,35,0,0,0,5.09,7.27,31,31,0,0,0,6.53,5.45c.43.26.9.53,1.38.78s1,.49,1.44.71l1.27.57.89.35c.67.23,1.38.43,2.12.62s1.49.35,2.25.49,1.53.27,2.29.37,1.51.18,2.24.24l1.13,0,1.59,0h2.72l52.88-.58v-9l-52.78.33H241l-1.38,0-.91,0c-.59,0-1.21-.1-1.83-.18s-1.26-.18-1.89-.29-1.25-.25-1.85-.39-1.18-.31-1.72-.49l-.51-.2-.75-.32-.76-.33-.52-.25a22.11,22.11,0,0,1-5.22-3.92,25.37,25.37,0,0,1-4.1-5.45,28,28,0,0,1-2.68-6.66,29.82,29.82,0,0,1-1-7.53A29.44,29.44,0,0,1,217.68,133a26.21,26.21,0,0,1,4.79-8.2,21.89,21.89,0,0,1,7.06-5.44,19,19,0,0,1,8.58-1.87,19.2,19.2,0,0,1,8.43,2.16,22.48,22.48,0,0,1,6.86,5.53,26.75,26.75,0,0,1,4.64,8.07,29.6,29.6,0,0,1,1.78,9.81l7.72.06a40.25,40.25,0,0,0-2.36-13.34,36.44,36.44,0,0,0-6.27-11,30.67,30.67,0,0,0-9.31-7.58,26.19,26.19,0,0,0-11.49-3m-35.39-.92-20.58-.51v9.63l12.27.25v62.31l8.31-.09V107.25"/><path class="cls-28" d="M282.69,120.86a3.71,3.71,0,0,1-1.62-.41,4.36,4.36,0,0,1-1.35-1.08,5.23,5.23,0,0,1-.92-1.63,6.1,6.1,0,0,1-.34-2,5.6,5.6,0,0,1,.34-1.94,5,5,0,0,1,.92-1.56,4.18,4.18,0,0,1,1.35-1,3.57,3.57,0,0,1,1.62-.35,3.68,3.68,0,0,1,1.62.42,4.45,4.45,0,0,1,1.34,1.09,5.26,5.26,0,0,1,.91,1.6,5.72,5.72,0,0,1,.34,1.95,6,6,0,0,1-.34,2,5,5,0,0,1-.91,1.58,4.1,4.1,0,0,1-1.34,1,3.61,3.61,0,0,1-1.62.35m0-11a4.29,4.29,0,0,0-1.95.42,4.92,4.92,0,0,0-1.6,1.23,5.91,5.91,0,0,0-1.09,1.86,6.77,6.77,0,0,0-.4,2.32,7.07,7.07,0,0,0,.4,2.35,6.49,6.49,0,0,0,1.09,1.95,5.32,5.32,0,0,0,1.6,1.34,4.25,4.25,0,0,0,3.92.07,4.9,4.9,0,0,0,1.59-1.27,6.09,6.09,0,0,0,1.06-1.9,7.21,7.21,0,0,0,0-4.65,6.18,6.18,0,0,0-1.06-1.91,5.13,5.13,0,0,0-1.59-1.3,4.51,4.51,0,0,0-2-.51"/><path class="cls-28" d="M281.85,115.44v-1.86l.92,0a1.78,1.78,0,0,1,.44.06.91.91,0,0,1,.34.17.74.74,0,0,1,.22.3,1.23,1.23,0,0,1,.08.46,1.2,1.2,0,0,1,0,.3.79.79,0,0,1-.14.29.68.68,0,0,1-.28.21,1.13,1.13,0,0,1-.47.08l-1.07,0m1.28-2.6-2.19-.05v5.94l.91,0v-2.44l.72,0a1.66,1.66,0,0,1,.61.11.76.76,0,0,1,.34.26.88.88,0,0,1,.14.35,2.13,2.13,0,0,1,0,.39c0,.26,0,.46,0,.62a3.66,3.66,0,0,0,0,.38.64.64,0,0,0,.06.22.36.36,0,0,0,.11.13l.92,0a.55.55,0,0,1-.11-.18.93.93,0,0,1,0-.23c0-.1,0-.21,0-.36s0-.34,0-.57a4.32,4.32,0,0,0,0-.48,1.88,1.88,0,0,0-.1-.44,1.09,1.09,0,0,0-.21-.36,1.05,1.05,0,0,0-.38-.26,1.55,1.55,0,0,0,.47-.29,1.17,1.17,0,0,0,.26-.35,1.3,1.3,0,0,0,.11-.36,1.87,1.87,0,0,0,0-.32,2.09,2.09,0,0,0-.19-.92,1.4,1.4,0,0,0-.45-.53,1.64,1.64,0,0,0-.54-.25,2,2,0,0,0-.46-.07"/><polyline class="cls-28" points="192.09 185.38 182.17 185.52 182.17 198.3 185.3 198.24 185.3 188.53 188.98 188.48 188.98 198.16 192.09 198.1 192.09 185.38"/><path class="cls-28" d="M198.18,195.7a1.86,1.86,0,0,1-.4,0,1.38,1.38,0,0,1-.34-.12,1.23,1.23,0,0,1-.29-.2,1.36,1.36,0,0,1-.23-.28,2.37,2.37,0,0,1-.17-.33,2.51,2.51,0,0,1-.12-.35,2.8,2.8,0,0,1-.07-.38,3.28,3.28,0,0,1,0-.79,2.77,2.77,0,0,1,.07-.37,2.56,2.56,0,0,1,.12-.35,2.53,2.53,0,0,1,.17-.33,1.44,1.44,0,0,1,.23-.28,1.29,1.29,0,0,1,.29-.21,1.43,1.43,0,0,1,.34-.13,1.87,1.87,0,0,1,.4,0,1.71,1.71,0,0,1,.37,0,1.37,1.37,0,0,1,.32.11,1.28,1.28,0,0,1,.28.18,1.43,1.43,0,0,1,.23.26,2,2,0,0,1,.19.31,2.2,2.2,0,0,1,.14.35,2.56,2.56,0,0,1,.08.39,3.28,3.28,0,0,1,0,.86,2.65,2.65,0,0,1-.08.39,2.38,2.38,0,0,1-.14.36,2.32,2.32,0,0,1-.19.33,1.51,1.51,0,0,1-.23.26,1.35,1.35,0,0,1-.28.19,1.42,1.42,0,0,1-.32.12,1.73,1.73,0,0,1-.37,0m1-6.81-.39,0-.36.06-.33.1-.31.14a2.32,2.32,0,0,0-.28.19,3.06,3.06,0,0,0-.28.25,4,4,0,0,0-.28.3q-.14.17-.27.36v-1.07l-2.65,0v12.57l2.76-.06v-4.69a3.55,3.55,0,0,0,.51.52,2.88,2.88,0,0,0,.57.37,2.7,2.7,0,0,0,.63.22,3,3,0,0,0,.69.06,3.52,3.52,0,0,0,.55-.05,3,3,0,0,0,.5-.14,2.82,2.82,0,0,0,.46-.22,3,3,0,0,0,.43-.3,4.08,4.08,0,0,0,.37-.37,4.12,4.12,0,0,0,.33-.42,4.35,4.35,0,0,0,.28-.47,4.76,4.76,0,0,0,.22-.52q.1-.27.17-.55t.12-.57q0-.29.07-.58t0-.59q0-.24,0-.47t0-.46q0-.23-.07-.45t-.1-.43q-.06-.21-.13-.41t-.16-.38q-.09-.18-.18-.35t-.21-.33a3.32,3.32,0,0,0-.23-.3,3.15,3.15,0,0,0-.26-.26l-.29-.23-.32-.2-.35-.16-.37-.11-.39-.06-.41,0"/><path class="cls-28" d="M206.23,192.43a2.58,2.58,0,0,1,0-.34,2.29,2.29,0,0,1,.08-.32,2.21,2.21,0,0,1,.13-.3,2.32,2.32,0,0,1,.17-.28,1.41,1.41,0,0,1,.22-.23,1.25,1.25,0,0,1,.25-.17,1.31,1.31,0,0,1,.29-.1,1.61,1.61,0,0,1,.33,0,1.64,1.64,0,0,1,.34,0,1.25,1.25,0,0,1,.3.09,1.16,1.16,0,0,1,.26.16,1.34,1.34,0,0,1,.22.23,2.52,2.52,0,0,1,.17.28,2.33,2.33,0,0,1,.13.29,2.26,2.26,0,0,1,.09.31,2.31,2.31,0,0,1,0,.33l-3.06.05m1.52-3.68a4.85,4.85,0,0,0-.57,0,4.3,4.3,0,0,0-.54.11,4,4,0,0,0-.51.18,4,4,0,0,0-.49.25,3.75,3.75,0,0,0-.45.31,3.81,3.81,0,0,0-.4.38,4.07,4.07,0,0,0-.35.44,4.52,4.52,0,0,0-.3.5,4.89,4.89,0,0,0-.23.56,5.34,5.34,0,0,0-.17.61,6,6,0,0,0-.1.66,7,7,0,0,0,0,.71q0,.26,0,.5t.06.48q0,.24.09.46t.13.44q.08.22.17.42t.2.39a4.15,4.15,0,0,0,.23.35,4,4,0,0,0,.26.33,3.72,3.72,0,0,0,.29.28l.32.25.34.22.37.18.4.14.42.1.44.05h.47a6.13,6.13,0,0,0,.82-.07,4.47,4.47,0,0,0,.72-.17,3.51,3.51,0,0,0,.63-.28,3.11,3.11,0,0,0,.53-.38,4.39,4.39,0,0,0,.44-.45,4.31,4.31,0,0,0,.37-.51,4.5,4.5,0,0,0,.3-.57,5,5,0,0,0,.23-.63l-2.61,0a1.45,1.45,0,0,1-.07.24,1.35,1.35,0,0,1-.1.21,1.37,1.37,0,0,1-.13.19l-.16.17-.2.13-.23.1-.26.06-.28,0h-.27l-.24-.05-.22-.09-.19-.13-.17-.16-.15-.18a1.72,1.72,0,0,1-.12-.21,2,2,0,0,1-.1-.23q0-.12-.07-.24t-.05-.25,0-.25,0-.26l5.73-.11q0-.35,0-.7t-.07-.67q0-.33-.12-.64t-.17-.61a4.61,4.61,0,0,0-.23-.58,4.1,4.1,0,0,0-.3-.52,3.91,3.91,0,0,0-.36-.46,4,4,0,0,0-.43-.4,3,3,0,0,0-.5-.32,3.27,3.27,0,0,0-.57-.23,4,4,0,0,0-.64-.13,5.26,5.26,0,0,0-.72,0"/><path class="cls-28" d="M215.79,195.46a3.49,3.49,0,0,0,.23-.29,3,3,0,0,0,.19-.3,2.78,2.78,0,0,0,.14-.3,2.73,2.73,0,0,0,.1-.31,3.37,3.37,0,0,0,.08-.34q0-.18.05-.38t0-.42q0-.22,0-.47v-1.56l1.79,0v4.35l-2.63.05m5.21-6.6-6.8.11v3.29q0,.29,0,.58t-.06.56q0,.28-.1.54t-.13.52a1.82,1.82,0,0,1-.19.44,1.28,1.28,0,0,1-.28.32,1.23,1.23,0,0,1-.38.2,1.66,1.66,0,0,1-.47.08v4.67l2.39-.05v-2.51l4.76-.1V200l2.37-.05v-4.65l-1.08,0v-6.5"/><polyline class="cls-28" points="230.87 188.7 223.16 188.83 223.16 197.47 225.84 197.41 225.84 190.93 228.2 190.89 228.2 197.36 230.87 197.31 230.87 188.7"/><path class="cls-28" d="M236.6,195a1.7,1.7,0,0,1-.38,0,1.3,1.3,0,0,1-.33-.11,1.18,1.18,0,0,1-.27-.19,1.34,1.34,0,0,1-.22-.27,2.49,2.49,0,0,1-.17-.32,2.57,2.57,0,0,1-.12-.35,2.73,2.73,0,0,1-.07-.37,3,3,0,0,1,0-.78,2.71,2.71,0,0,1,.07-.37,2.61,2.61,0,0,1,.12-.35,2.67,2.67,0,0,1,.17-.33,1.41,1.41,0,0,1,.22-.28,1.25,1.25,0,0,1,.27-.2,1.34,1.34,0,0,1,.33-.13,1.71,1.71,0,0,1,.38,0,1.62,1.62,0,0,1,.36,0,1.32,1.32,0,0,1,.31.11,1.28,1.28,0,0,1,.27.18,1.49,1.49,0,0,1,.23.25,2,2,0,0,1,.19.31,2.18,2.18,0,0,1,.13.34,2.55,2.55,0,0,1,.08.38,3.28,3.28,0,0,1,0,.84,2.64,2.64,0,0,1-.08.39,2.36,2.36,0,0,1-.13.35,2.28,2.28,0,0,1-.19.32,1.57,1.57,0,0,1-.23.26,1.35,1.35,0,0,1-.27.19,1.37,1.37,0,0,1-.31.12,1.64,1.64,0,0,1-.36,0m.93-6.68-.37,0-.34.06-.32.1-.3.14-.27.18a3,3,0,0,0-.27.24,3.88,3.88,0,0,0-.27.3q-.13.16-.26.35v-1l-2.55,0V201l2.66-.06v-4.6a3.45,3.45,0,0,0,.49.51,2.76,2.76,0,0,0,.55.36,2.57,2.57,0,0,0,.6.21,2.83,2.83,0,0,0,.66.06,3.28,3.28,0,0,0,.52-.05,2.83,2.83,0,0,0,.48-.13,2.66,2.66,0,0,0,.44-.21,2.75,2.75,0,0,0,.4-.3,3.74,3.74,0,0,0,.37-.36,3.85,3.85,0,0,0,.31-.41,4.23,4.23,0,0,0,.26-.46,4.9,4.9,0,0,0,.21-.51q.1-.26.17-.54t.12-.56q0-.28.07-.57t0-.58q0-.24,0-.47t0-.45q0-.22-.07-.44t-.1-.42q-.06-.21-.13-.4t-.15-.38q-.08-.18-.17-.35a3.59,3.59,0,0,0-.2-.32,3.24,3.24,0,0,0-.22-.29,3.07,3.07,0,0,0-.25-.26l-.28-.23-.31-.19-.34-.15-.36-.11-.37-.06-.39,0"/><polyline class="cls-28" points="249.99 188.4 247.47 188.44 244.85 193.06 244.85 188.48 242.21 188.52 242.21 197.08 244.77 197.03 247.37 192.27 247.37 196.97 249.99 196.92 249.99 188.4"/><path class="cls-28" d="M254.74,192.27a1.24,1.24,0,0,1-.41-.05A.72.72,0,0,1,254,192a.75.75,0,0,1-.18-.3,1.36,1.36,0,0,1-.06-.42,1.52,1.52,0,0,1,.06-.45.81.81,0,0,1,.18-.32.74.74,0,0,1,.29-.19,1.24,1.24,0,0,1,.41-.07h.87v2l-.87,0m3.47-4-4.15.07a3.3,3.3,0,0,0-.46,0,3.46,3.46,0,0,0-.46.1,3.82,3.82,0,0,0-.46.17,4.41,4.41,0,0,0-.46.24,1.51,1.51,0,0,0-.4.35,1.89,1.89,0,0,0-.29.5,3,3,0,0,0-.17.64,5.08,5.08,0,0,0-.06.79,4.37,4.37,0,0,0,0,.51,3.67,3.67,0,0,0,.09.48,3.25,3.25,0,0,0,.15.44,3.09,3.09,0,0,0,.21.41,2.08,2.08,0,0,0,.26.34,1.79,1.79,0,0,0,.31.26,1.73,1.73,0,0,0,.36.18,1.9,1.9,0,0,0,.41.1l-1.88,3,2.7-.06,1.46-2.74h.2v2.71l2.6-.05v-8.49"/><polyline class="cls-28" points="265.43 188.15 259.14 188.25 259.14 190.46 261 190.43 261 196.7 263.58 196.64 263.58 190.38 265.43 190.35 265.43 188.15"/><polyline class="cls-28" points="273.95 188.01 271.49 188.05 268.93 192.62 268.93 188.09 266.36 188.13 266.36 196.59 268.86 196.54 271.39 191.84 271.39 196.48 273.95 196.43 273.95 188.01"/><path class="cls-28" d="M277.63,191.17a2.38,2.38,0,0,1,0-.33,2.22,2.22,0,0,1,.21-.6A2.42,2.42,0,0,1,278,190a1.34,1.34,0,0,1,.2-.22,1.16,1.16,0,0,1,.24-.16,1.19,1.19,0,0,1,.27-.1,1.45,1.45,0,0,1,.31,0,1.47,1.47,0,0,1,.31,0,1.14,1.14,0,0,1,.28.09,1.07,1.07,0,0,1,.24.16,1.27,1.27,0,0,1,.2.23,2.27,2.27,0,0,1,.16.27,2.21,2.21,0,0,1,.12.28,2.27,2.27,0,0,1,.08.3,2.48,2.48,0,0,1,0,.32l-2.84.05m1.43-3.54a4.36,4.36,0,0,0-.53,0,3.91,3.91,0,0,0-.51.1,3.73,3.73,0,0,0-.48.17,3.8,3.8,0,0,0-.46.24,3.38,3.38,0,0,0-.42.3,3.53,3.53,0,0,0-.37.36,3.92,3.92,0,0,0-.32.42,4.58,4.58,0,0,0-.28.48,4.42,4.42,0,0,0-.22.54,5,5,0,0,0-.16.59,6,6,0,0,0-.09.64q0,.33,0,.68t0,.48q0,.24.05.46t.08.45q.05.22.12.43a4.29,4.29,0,0,0,.15.4,4.08,4.08,0,0,0,.18.37,4,4,0,0,0,.21.34q.11.16.24.31l.27.27.29.24.32.21.35.18.37.13.39.09.41.05h.43a5.53,5.53,0,0,0,.76-.07,4.06,4.06,0,0,0,.67-.17,3.17,3.17,0,0,0,.58-.27,2.76,2.76,0,0,0,.49-.37,4.08,4.08,0,0,0,.77-.93,4.32,4.32,0,0,0,.28-.55,4.85,4.85,0,0,0,.21-.6l-2.44,0a1.55,1.55,0,0,1-.06.23,1.29,1.29,0,0,1-.09.21,1.21,1.21,0,0,1-.12.18l-.16.16-.18.12-.21.09-.24.06-.27,0h-.24l-.22-.05-.2-.09-.18-.13-.16-.15-.13-.18a1.74,1.74,0,0,1-.11-.2,2,2,0,0,1-.09-.22q0-.11-.07-.23t-.05-.24,0-.24,0-.25l5.34-.1q0-.34,0-.67t-.07-.65q0-.32-.12-.62t-.16-.59a4.31,4.31,0,0,0-.21-.56,3.81,3.81,0,0,0-.27-.5,3.62,3.62,0,0,0-.34-.44,3.72,3.72,0,0,0-.4-.39,2.7,2.7,0,0,0-.46-.31,2.92,2.92,0,0,0-.53-.22,3.56,3.56,0,0,0-.6-.13,4.71,4.71,0,0,0-.67,0"/><path class="cls-28" d="M292.67,193.85a1.34,1.34,0,0,1-.29,0,1,1,0,0,1-.25-.08,1,1,0,0,1-.22-.14,1.12,1.12,0,0,1-.18-.21,1.88,1.88,0,0,1-.14-.24,1.86,1.86,0,0,1-.1-.26,1.93,1.93,0,0,1-.06-.27,2.08,2.08,0,0,1,0-.29c0-.07,0-.14,0-.21s0-.13,0-.2a1.72,1.72,0,0,1,0-.19,1.45,1.45,0,0,1,.07-.18l.09-.17.11-.15.12-.13L292,191l.15-.09.16-.06.16,0h.18l.24,0,.22.07.21.12a1.42,1.42,0,0,1,.2.17,1.05,1.05,0,0,1,.17.21,1.23,1.23,0,0,1,.12.26,1.66,1.66,0,0,1,.07.3,2.42,2.42,0,0,1,0,.35,2.07,2.07,0,0,1,0,.29,1.9,1.9,0,0,1-.06.28,1.84,1.84,0,0,1-.1.26,1.88,1.88,0,0,1-.14.25,1.19,1.19,0,0,1-.18.21,1,1,0,0,1-.22.15,1.07,1.07,0,0,1-.25.09,1.35,1.35,0,0,1-.29,0m0-5.25-.18,0-.18-.05-.17-.09-.17-.13a.87.87,0,0,1-.14-.18,1.09,1.09,0,0,1-.1-.23,1.53,1.53,0,0,1-.06-.27,2.26,2.26,0,0,1,0-.32,2.38,2.38,0,0,1,0-.31,1.63,1.63,0,0,1,.06-.27,1.15,1.15,0,0,1,.1-.23.89.89,0,0,1,.14-.18l.16-.14.17-.1.18-.06.19,0,.2,0,.19.06.18.1.16.14a.83.83,0,0,1,.14.18,1.06,1.06,0,0,1,.1.22,1.55,1.55,0,0,1,.06.27,2.34,2.34,0,0,1,0,.31,2.2,2.2,0,0,1,0,.31,1.59,1.59,0,0,1-.06.27,1.18,1.18,0,0,1-.1.23.94.94,0,0,1-.14.18l-.17.14-.18.1-.19.06-.19,0m0-5-.51,0-.47.08a3.54,3.54,0,0,0-.44.14,3.32,3.32,0,0,0-.41.19,3.16,3.16,0,0,0-.36.23,2.94,2.94,0,0,0-.59.59,3.11,3.11,0,0,0-.23.36,3.15,3.15,0,0,0-.18.39,3.39,3.39,0,0,0-.13.42,3.77,3.77,0,0,0-.08.45,4.31,4.31,0,0,0,0,.48,4.57,4.57,0,0,0,0,.51,3.52,3.52,0,0,0,.08.46,2.83,2.83,0,0,0,.13.41,2.43,2.43,0,0,0,.18.36,2.79,2.79,0,0,0,.22.31,2.4,2.4,0,0,0,.24.25,2.18,2.18,0,0,0,.27.2l.29.15v0a2.44,2.44,0,0,0-.37.16,2.64,2.64,0,0,0-.34.22,3.07,3.07,0,0,0-.32.28,3.76,3.76,0,0,0-.3.34,2.38,2.38,0,0,0-.25.42,2.94,2.94,0,0,0-.18.49,3.93,3.93,0,0,0-.11.56,5.46,5.46,0,0,0,0,.63,4.65,4.65,0,0,0,.05.71,4,4,0,0,0,.16.66,3.77,3.77,0,0,0,.27.61,4,4,0,0,0,.38.57,2.33,2.33,0,0,0,.51.47,2.91,2.91,0,0,0,.67.33,4.22,4.22,0,0,0,.83.19,6.48,6.48,0,0,0,1,0,6.61,6.61,0,0,0,1-.09,4.35,4.35,0,0,0,.83-.23,3,3,0,0,0,.67-.36,2.47,2.47,0,0,0,.51-.49,4.35,4.35,0,0,0,.37-.58,4.06,4.06,0,0,0,.27-.62,4.13,4.13,0,0,0,.16-.66,4.57,4.57,0,0,0,.05-.71,5.42,5.42,0,0,0,0-.63,3.85,3.85,0,0,0-.1-.56,2.84,2.84,0,0,0-.18-.48,2.26,2.26,0,0,0-.25-.41,3.58,3.58,0,0,0-.3-.33,2.91,2.91,0,0,0-.32-.27,2.5,2.5,0,0,0-.34-.21,2.33,2.33,0,0,0-.37-.15v0l.28-.16a2.27,2.27,0,0,0,.26-.21,2.52,2.52,0,0,0,.24-.26,2.91,2.91,0,0,0,.22-.31,2.42,2.42,0,0,0,.18-.36,2.87,2.87,0,0,0,.13-.41,3.65,3.65,0,0,0,.08-.46,4.86,4.86,0,0,0,0-.51,4.32,4.32,0,0,0,0-.48,3.81,3.81,0,0,0-.08-.45,3.44,3.44,0,0,0-.13-.42,3.2,3.2,0,0,0-.17-.39,2.94,2.94,0,0,0-.23-.35,2.76,2.76,0,0,0-.59-.58,3.25,3.25,0,0,0-.76-.4,3.4,3.4,0,0,0-.43-.12l-.47-.07-.5,0"/><g class="cls-2"><g class="cls-2"><g class="cls-29"><path class="cls-30" d="M139.6,41.25a8.34,8.34,0,0,0-.9.23,9.18,9.18,0,0,0-.9.34q-.45.2-.91.45c-.3.17.25,4.55-.05,4.76a36.21,36.21,0,0,0-15,29.57c0,14.87,7.34,22.38,10.82,26.12,3.06,2.95,4.86,4.49,6.67,4.33.3,0,.8.92,1.1.86a8.42,8.42,0,0,0,.91-.24,9.3,9.3,0,0,0,.92-.36q.46-.21.92-.47a17.76,17.76,0,0,0,5.9-6.12,40.68,40.68,0,0,0,4.34-10,63.73,63.73,0,0,0,2.31-12.55,68.52,68.52,0,0,0-.18-13.59,52.1,52.1,0,0,0-2.23-10.43,29.72,29.72,0,0,0-3.69-7.65,13.87,13.87,0,0,0-4.71-4.42,7.81,7.81,0,0,0-5.29-.82"/><polyline class="cls-31" points="136.74 70.89 129.27 79.72 136.97 84.75 140.46 81.5 138.1 78.13 138.91 67.65 136.78 65.97"/></g></g><g class="cls-2"><g class="cls-32"><path class="cls-33" d="M148.34,70.27l2.82-3.55L164.9,74l-9.56,12.16-4-2.11-2.83,3.58-14-7.28,9.75-12.25,4.06,2.15m1.26-25.5q-.85,0-1.71,0t-1.72.06q-.87.06-1.73.17t-1.74.28A27.86,27.86,0,0,0,131.64,50a29.8,29.8,0,0,0-8.05,8.8,32.66,32.66,0,0,0-4.24,11.59,34.8,34.8,0,0,0,.37,13.08A35.17,35.17,0,0,0,123.86,94a33.61,33.61,0,0,0,6.88,8.22,31.38,31.38,0,0,0,8.82,5.4,28.77,28.77,0,0,0,10,2.08q.85,0,1.71,0t1.72-.11q.86-.08,1.72-.22t1.72-.33a27.92,27.92,0,0,0,10.79-5,30,30,0,0,0,7.72-8.78,32.74,32.74,0,0,0,4-11.33,34.79,34.79,0,0,0-.35-12.71,35.2,35.2,0,0,0-3.93-10.29,33.72,33.72,0,0,0-6.59-8.18,31.57,31.57,0,0,0-8.58-5.55,28.94,28.94,0,0,0-9.88-2.37"/><polyline class="cls-34" points="143.69 64.09 128.53 78.91 146.06 91.03 150.46 86.7 138.1 78.13 148.79 67.66 143.69 64.09"/><polyline class="cls-35" points="153.18 63.37 148.79 67.66 138.1 78.13 150.46 86.7 155.52 90.21 170.4 75.49 153.18 63.37"/></g></g></g><polygon class="cls-36" points="319.7 303.06 136.59 322.28 136.59 0 319.7 13.73 319.7 303.06"/><polygon class="cls-37" points="319.7 303.06 136.59 322.28 136.59 0 319.7 13.73 319.7 303.06"/><polygon class="cls-38" points="319.7 303.06 136.59 322.28 136.59 0 319.7 13.73 319.7 303.06"/><polygon class="cls-39" points="53.47 23.36 136.59 0 136.59 322.28 53.47 301.71 53.47 23.36"/><polygon class="cls-40" points="319.71 303.06 315.06 303.54 315.06 13.39 319.71 13.73 319.71 303.06"/><polygon class="cls-41" points="53.47 301.71 58.12 302.86 58.12 22.2 53.47 23.37 53.47 301.71"/><polygon class="cls-42" points="319.7 17.7 136.59 3.21 136.59 0 319.7 13.73 319.7 17.7"/><polygon class="cls-43" points="53.47 27.33 136.53 3.21 136.53 0 53.47 23.36 53.47 27.33"/><polygon class="cls-44" points="136.73 312.78 53.47 292.97 53.47 301.71 136.73 322.28 136.73 312.78"/><rect class="cls-45" x="134.87" width="3.32" height="322.28"/><polygon class="cls-46" points="144.14 321.49 136.53 322.28 136.53 0 144.14 0.57 144.14 321.49"/><polygon class="cls-47" points="136.59 312.78 319.7 294.31 319.7 303.06 136.59 322.28 136.59 312.78"/><polygon class="cls-48" points="133.21 321.48 136.53 322.28 136.53 0 133.21 0.84 133.21 321.48"/></g></g></g></svg>