<svg xmlns="http://www.w3.org/2000/svg" xmlns:xlink="http://www.w3.org/1999/xlink" viewBox="0 0 293.41 326.44"><defs><style>.cls-1{fill:none;}.cls-2{isolation:isolate;}.cls-3{opacity:0.7;}.cls-4{fill:#fff;opacity:0;}.cls-5{fill:#fbfbfb;opacity:0.05;}.cls-6{fill:#f8f8f8;opacity:0.1;}.cls-7{fill:#f4f4f4;opacity:0.14;}.cls-8{fill:#f1f1f0;opacity:0.19;}.cls-9{fill:#ededed;opacity:0.24;}.cls-10{fill:#e9e9e9;opacity:0.29;}.cls-11{fill:#e6e6e5;opacity:0.33;}.cls-12{fill:#e2e2e2;opacity:0.38;}.cls-13{fill:#dedede;opacity:0.43;}.cls-14{fill:#dbdbda;opacity:0.48;}.cls-15{fill:#d7d7d7;opacity:0.52;}.cls-16{fill:#d4d4d3;opacity:0.57;}.cls-17{fill:#d0d0cf;opacity:0.62;}.cls-18{fill:#ccc;opacity:0.67;}.cls-19{fill:#c9c9c8;opacity:0.71;}.cls-20{fill:#c5c5c4;opacity:0.76;}.cls-21{fill:#c1c1c1;opacity:0.81;}.cls-22{fill:#bebebd;opacity:0.86;}.cls-23{fill:#babab9;opacity:0.9;}.cls-24{fill:#b7b7b6;opacity:0.95;}.cls-25{fill:#b3b3b2;}.cls-26{fill:#fcda00;}.cls-27{fill:#ffca02;}.cls-28{fill:#d10910;}.cls-29{clip-path:url(#clip-path);}.cls-30{fill:#e7eaec;}.cls-31{fill:#95ceb8;}.cls-32{clip-path:url(#clip-path-2);}.cls-33{fill:#e5e5e2;}.cls-34{fill:#4ab285;}.cls-35{fill:#003d60;}.cls-36,.cls-45{mix-blend-mode:soft-light;}.cls-36{fill:url(#Безымянный_градиент_2036);}.cls-37,.cls-38,.cls-44{mix-blend-mode:multiply;}.cls-37{fill:url(#Безымянный_градиент_761);}.cls-38{fill:url(#Безымянный_градиент_2038);}.cls-39,.cls-40,.cls-41,.cls-42,.cls-43,.cls-46{mix-blend-mode:overlay;}.cls-39{fill:url(#Безымянный_градиент_148);}.cls-40{fill:url(#Безымянный_градиент_148-2);}.cls-41{fill:url(#Безымянный_градиент_147);}.cls-42{fill:url(#Безымянный_градиент_503);}.cls-43{fill:url(#Безымянный_градиент_543);}.cls-44{fill:url(#Безымянный_градиент_771);}.cls-45{fill:url(#Безымянный_градиент_13);}.cls-46{fill:url(#Безымянный_градиент_549);}.cls-47{mix-blend-mode:hard-light;fill:url(#Безымянный_градиент_8);}</style><clipPath id="clip-path"><polygon class="cls-1" points="103.67 84.53 81.63 66.58 81.63 45.97 103.67 21.8 103.67 84.53"/></clipPath><clipPath id="clip-path-2"><polygon class="cls-1" points="151.52 27.06 151.52 85.49 103.67 98.93 103.67 13.62 151.52 27.06"/></clipPath><linearGradient id="Безымянный_градиент_2036" x1="245.23" y1="-23.95" x2="141.06" y2="342.32" gradientUnits="userSpaceOnUse"><stop offset="0" stop-color="#fff"/><stop offset="0.42" stop-color="#d4cccc"/><stop offset="1" stop-color="#958080"/></linearGradient><linearGradient id="Безымянный_градиент_761" x1="235.97" y1="8.63" x2="150.82" y2="308.02" gradientUnits="userSpaceOnUse"><stop offset="0" stop-color="#fff"/><stop offset="0.66" stop-color="#f3f3f3"/><stop offset="1" stop-color="#eaeaea"/></linearGradient><linearGradient id="Безымянный_градиент_2038" x1="121.03" y1="10.01" x2="41.91" y2="303.35" gradientUnits="userSpaceOnUse"><stop offset="0" stop-color="#f1f4f1"/><stop offset="0.33" stop-color="#e8e2e4"/><stop offset="1" stop-color="#d8c2cd"/></linearGradient><linearGradient id="Безымянный_градиент_148" x1="282.24" y1="158.47" x2="286.89" y2="158.47" gradientUnits="userSpaceOnUse"><stop offset="0" stop-color="gray"/><stop offset="0.42" stop-color="#828282"/><stop offset="0.6" stop-color="#898989"/><stop offset="0.74" stop-color="#969696"/><stop offset="0.85" stop-color="#a8a8a8"/><stop offset="0.95" stop-color="#bfbfbf"/><stop offset="1" stop-color="#cfcfcf"/></linearGradient><linearGradient id="Безымянный_градиент_148-2" x1="-1005.42" y1="160.94" x2="-1000.76" y2="160.94" gradientTransform="matrix(-1, 0, 0, 1, -947.3, 0)" xlink:href="#Безымянный_градиент_148"/><linearGradient id="Безымянный_градиент_147" x1="195.48" y1="6.87" x2="195.2" y2="10.45" gradientUnits="userSpaceOnUse"><stop offset="0" stop-color="#cfcfcf"/><stop offset="0.05" stop-color="#bfbfbf"/><stop offset="0.15" stop-color="#a8a8a8"/><stop offset="0.26" stop-color="#969696"/><stop offset="0.4" stop-color="#898989"/><stop offset="0.58" stop-color="#828282"/><stop offset="1" stop-color="gray"/></linearGradient><linearGradient id="Безымянный_градиент_503" x1="78.12" y1="6.35" x2="78.95" y2="9.51" gradientUnits="userSpaceOnUse"><stop offset="0" stop-color="#ebebeb"/><stop offset="0.04" stop-color="#dbdbdb"/><stop offset="0.12" stop-color="#bfbfbf"/><stop offset="0.21" stop-color="#a8a8a8"/><stop offset="0.32" stop-color="#969696"/><stop offset="0.44" stop-color="#898989"/><stop offset="0.61" stop-color="#828282"/><stop offset="1" stop-color="gray"/></linearGradient><linearGradient id="Безымянный_градиент_543" x1="77.68" y1="315.49" x2="79.88" y2="306.95" gradientUnits="userSpaceOnUse"><stop offset="0" stop-color="#414141"/><stop offset="0.03" stop-color="#565656"/><stop offset="0.08" stop-color="#696969"/><stop offset="0.13" stop-color="#767676"/><stop offset="0.19" stop-color="#7e7e7e"/><stop offset="0.32" stop-color="gray"/></linearGradient><linearGradient id="Безымянный_градиент_771" x1="102.05" y1="161.14" x2="105.37" y2="161.14" gradientUnits="userSpaceOnUse"><stop offset="0" stop-color="#fff"/><stop offset="0.21" stop-color="#fefefd"/><stop offset="0.3" stop-color="#fcfcf6"/><stop offset="0.36" stop-color="#f9f7e9"/><stop offset="0.42" stop-color="#f4f1d8"/><stop offset="0.46" stop-color="#ede9c1"/><stop offset="0.48" stop-color="#eae5b5"/><stop offset="0.5" stop-color="#eeeac3"/><stop offset="0.55" stop-color="#f4f2d9"/><stop offset="0.61" stop-color="#f9f8ea"/><stop offset="0.67" stop-color="#fcfcf6"/><stop offset="0.76" stop-color="#fefefd"/><stop offset="1" stop-color="#fff"/></linearGradient><linearGradient id="Безымянный_градиент_13" x1="103.71" y1="161.14" x2="111.32" y2="161.14" gradientUnits="userSpaceOnUse"><stop offset="0" stop-color="gray"/><stop offset="0.01" stop-color="#858586"/><stop offset="0.04" stop-color="#97999e"/><stop offset="0.07" stop-color="#a2a5ac"/><stop offset="0.1" stop-color="#a6a9b1"/><stop offset="0.14" stop-color="#9fa1a8"/><stop offset="0.26" stop-color="#919296"/><stop offset="0.39" stop-color="#878889"/><stop offset="0.58" stop-color="#828282"/><stop offset="1" stop-color="gray"/></linearGradient><linearGradient id="Безымянный_градиент_549" x1="195.71" y1="312.06" x2="194.87" y2="303.76" gradientUnits="userSpaceOnUse"><stop offset="0" stop-color="#060606"/><stop offset="0.06" stop-color="#292929"/><stop offset="0.14" stop-color="#4e4e4e"/><stop offset="0.21" stop-color="#6a6a6a"/><stop offset="0.27" stop-color="#7a7a7a"/><stop offset="0.32" stop-color="gray"/></linearGradient><linearGradient id="Безымянный_градиент_8" x1="-947.81" y1="161.14" x2="-944.49" y2="161.14" gradientTransform="matrix(-1, 0, 0, 1, -844.1, 0)" gradientUnits="userSpaceOnUse"><stop offset="0" stop-color="gray"/><stop offset="0.02" stop-color="#999992"/><stop offset="0.05" stop-color="#afb1a3"/><stop offset="0.08" stop-color="#bdbfad"/><stop offset="0.1" stop-color="#c2c4b0"/><stop offset="0.12" stop-color="#bdbfac"/><stop offset="0.21" stop-color="#a7a89c"/><stop offset="0.31" stop-color="#95968f"/><stop offset="0.44" stop-color="#898987"/><stop offset="0.61" stop-color="#828281"/><stop offset="1" stop-color="gray"/></linearGradient></defs><title>Bookkeeping</title><g class="cls-2"><g id="Layer_2" data-name="Layer 2"><g id="box_color" data-name="box color"><g class="cls-3"><path class="cls-4" d="M8.27,314.71C39.94,321.58,91.2,325,91.2,325a52.65,52.65,0,0,0,18.4,1.15l180.31-20.6c4.58-.15,4.43-5,.92-5.66l-202-29a78.62,78.62,0,0,0-24.89-.44S36.5,293.17,12.38,297C.88,298.83-6.55,311.49,8.27,314.71Z"/><path class="cls-5" d="M10.52,314.49c30.16,6.55,81.22,10.32,81.22,10.32a50.48,50.48,0,0,0,17.64,1.1l180.2-20.51c4.39-.15,4.24-4.84.87-5.44L91.25,271.3a75.22,75.22,0,0,0-23.8-.42s-30,23.06-53,26.71C3.46,299.33-3.62,311.42,10.52,314.49Z"/><path class="cls-6" d="M12.77,314.27c28.65,6.22,79.5,10.4,79.5,10.4a48.32,48.32,0,0,0,16.88,1.05l180.09-20.42c4.2-.14,4.06-4.65.83-5.22L93.71,271.77a71.82,71.82,0,0,0-22.72-.4s-32.69,23.33-54.5,26.8C6,299.84-.68,311.35,12.77,314.27Z"/><path class="cls-7" d="M15,314.06c27.15,5.89,77.78,10.47,77.78,10.47a46.15,46.15,0,0,0,16.12,1l180-20.32c4-.14,3.88-4.45.79-5l-193.51-28a68.42,68.42,0,0,0-21.63-.38s-35.33,23.61-56,26.89C8.62,300.34,2.25,311.28,15,314.06Z"/><path class="cls-8" d="M17.26,313.84c25.64,5.56,76.07,10.55,76.07,10.55a44,44,0,0,0,15.36,1l179.87-20.23c3.82-.14,3.7-4.26.75-4.78L98.64,272.72a65,65,0,0,0-20.54-.36s-38,23.89-57.49,27C11.21,300.84,5.18,311.21,17.26,313.84Z"/><path class="cls-9" d="M19.51,313.62c24.13,5.24,74.35,10.62,74.35,10.62a41.81,41.81,0,0,0,14.61.92L288.23,305c3.63-.13,3.52-4.06.7-4.56L101.1,273.2a61.61,61.61,0,0,0-19.46-.34S41,297,22.66,299.94C13.79,301.35,8.12,311.15,19.51,313.62Z"/><path class="cls-10" d="M21.76,313.41c22.62,4.91,72.63,10.7,72.63,10.7a39.65,39.65,0,0,0,13.85.87l179.65-20c3.44-.13,3.34-3.87.66-4.34l-185-26.92a58.21,58.21,0,0,0-18.37-.32s-43.26,24.44-60.48,27.18C16.37,301.85,11.05,311.08,21.76,313.41Z"/><path class="cls-11" d="M24,313.19C45.12,317.77,94.93,324,94.93,324a37.48,37.48,0,0,0,13.09.82l179.53-20c3.26-.12,3.16-3.67.62-4.12L106,274.14a54.81,54.81,0,0,0-17.28-.3s-45.9,24.72-62,27.27C19,302.36,14,311,24,313.19Z"/><path class="cls-12" d="M26.26,313c19.6,4.26,69.2,10.85,69.2,10.85a35.31,35.31,0,0,0,12.33.78l179.42-19.87c3.07-.12,3-3.48.58-3.9l-179.3-26.22a51.41,51.41,0,0,0-16.2-.28s-48.55,25-63.47,27.37C21.54,302.86,16.92,310.94,26.26,313Z"/><path class="cls-13" d="M28.51,312.75C46.61,316.68,96,323.68,96,323.68a33.15,33.15,0,0,0,11.57.73l179.31-19.77c2.88-.11,2.8-3.28.53-3.68L111,275.09a48,48,0,0,0-15.11-.26s-51.19,25.27-65,27.46C24.12,303.37,19.86,310.87,28.51,312.75Z"/><path class="cls-14" d="M30.76,312.54c16.59,3.6,65.76,11,65.76,11a31,31,0,0,0,10.82.68l179.2-19.68c2.69-.11,2.62-3.09.49-3.46L113.42,275.57a44.6,44.6,0,0,0-14-.24s-53.83,25.55-66.46,27.55C26.7,303.87,22.79,310.8,30.76,312.54Z"/><path class="cls-15" d="M33,312.32c15.08,3.27,64,11.07,64,11.07a28.81,28.81,0,0,0,10.06.64L286.2,304.44c2.5-.11,2.44-2.89.45-3.24L115.88,276a41.2,41.2,0,0,0-12.94-.22s-56.47,25.83-68,27.65C29.28,304.37,25.72,310.73,33,312.32Z"/><path class="cls-16" d="M35.26,312.1c13.57,2.95,62.33,11.15,62.33,11.15a26.64,26.64,0,0,0,9.3.59l179-19.5c2.31-.1,2.26-2.7.41-3L118.35,276.51a37.8,37.8,0,0,0-11.85-.2S47.38,302.42,37,304.06C31.86,304.88,28.66,310.66,35.26,312.1Z"/><path class="cls-17" d="M37.51,311.89c12.06,2.62,60.61,11.23,60.61,11.23a24.48,24.48,0,0,0,8.54.55l178.87-19.41c2.12-.1,2.08-2.5.36-2.8L120.81,277a34.4,34.4,0,0,0-10.76-.18S48.29,303.19,39.1,304.65C34.45,305.38,31.59,310.59,37.51,311.89Z"/><path class="cls-18" d="M39.76,311.67C50.31,314,98.65,323,98.65,323a22.31,22.31,0,0,0,7.79.5l178.75-19.31c1.93-.09,1.9-2.31.32-2.58L123.27,277.46a31,31,0,0,0-9.68-.16S49.19,304,41.16,305.24C37,305.89,34.53,310.53,39.76,311.67Z"/><path class="cls-19" d="M42,311.45c9,2,57.18,11.38,57.18,11.38a20.14,20.14,0,0,0,7,.45l178.64-19.22a1.19,1.19,0,1,0,.28-2.36l-159.4-23.76a27.6,27.6,0,0,0-8.59-.14s-67,26.93-73.94,28C39.61,306.39,37.46,310.46,42,311.45Z"/><path class="cls-20" d="M44.25,311.24c7.54,1.64,55.46,11.45,55.46,11.45a18,18,0,0,0,6.27.41L284.52,304a1.08,1.08,0,0,0,.24-2.14L128.2,278.41a24.2,24.2,0,0,0-7.5-.12S51,305.5,45.27,306.42C42.19,306.9,40.4,310.39,44.25,311.24Z"/><path class="cls-21" d="M46.5,311c6,1.31,53.75,11.53,53.75,11.53a15.81,15.81,0,0,0,5.51.36l178.42-19a1,1,0,0,0,.19-1.92L130.66,278.89a20.8,20.8,0,0,0-6.42-.1S51.91,306.27,47.32,307C44.77,307.4,43.33,310.32,46.5,311Z"/><path class="cls-22" d="M48.75,310.8c4.52,1,52,11.6,52,11.6a13.64,13.64,0,0,0,4.75.31l178.31-18.95a.85.85,0,0,0,.15-1.7L133.13,279.36a17.4,17.4,0,0,0-5.33-.08s-75,27.77-78.42,28.31C47.36,307.91,46.26,310.26,48.75,310.8Z"/><path class="cls-23" d="M51,310.58c3,.67,50.31,11.68,50.31,11.68a11.48,11.48,0,0,0,4,.27l178.2-18.85a.74.74,0,0,0,.11-1.48l-148-22.36a14,14,0,0,0-4.24-.06s-77.62,28-79.91,28.4C49.94,308.41,49.2,310.19,51,310.58Z"/><path class="cls-24" d="M53.25,310.37c1.51.34,48.6,11.75,48.6,11.75a9.31,9.31,0,0,0,3.24.22l178.09-18.76a.63.63,0,0,0,.07-1.26l-145.18-22a10.62,10.62,0,0,0-3.16,0s-80.26,28.32-81.41,28.5C52.52,308.92,52.13,310.12,53.25,310.37Z"/><path class="cls-25" d="M55.5,310.15,102.38,322a7.14,7.14,0,0,0,2.48.17l178-18.67a.52.52,0,0,0,0-1L140.52,280.78a7.25,7.25,0,0,0-2.07,0l-82.9,28.59A.4.4,0,0,0,55.5,310.15Z"/></g><polygon class="cls-26" points="286.89 303.06 103.78 322.28 103.78 0 286.89 13.73 286.89 303.06"/><polygon class="cls-27" points="53.47 12.27 103.78 0 103.78 322.28 53.47 309.64 53.47 12.27"/><path class="cls-28" d="M205.63,121.09a14.77,14.77,0,0,0-6.67,1.47,17,17,0,0,0-5.48,4.23,20.36,20.36,0,0,0-3.71,6.37,23,23,0,0,0-1.36,7.86,23.29,23.29,0,0,0,.69,5.67,21.82,21.82,0,0,0,1.95,5,19.86,19.86,0,0,0,3,4.18,17.51,17.51,0,0,0,3.85,3.1,7,7,0,0,0,.76.44c.28.14.58.28.86.4l.78.31.53.18c.39.12.82.23,1.26.33s.91.19,1.38.27.94.15,1.4.21l1.34.15.86,0,1.32,0h2.18l53-.17v-8.68l-52.77-.07H210l-1.27,0-1.27,0-.8,0-.77-.08-.84-.11-.83-.14-.74-.16-.73-.25-.66-.27-.56-.26-.41-.23a9.85,9.85,0,0,1-2-1.73,11.13,11.13,0,0,1-1.58-2.29,12.13,12.13,0,0,1-1-2.73,13,13,0,0,1,.39-7.39,11.28,11.28,0,0,1,2-3.52,9.42,9.42,0,0,1,3-2.35,8.18,8.18,0,0,1,3.69-.83,8.27,8.27,0,0,1,3.61.88,9.59,9.59,0,0,1,3,2.32,11.42,11.42,0,0,1,2,3.42,12.72,12.72,0,0,1,.81,4.18l7.52.06a23,23,0,0,0-1.4-7.62,20.73,20.73,0,0,0-3.62-6.26,17.41,17.41,0,0,0-5.34-4.28,15,15,0,0,0-6.56-1.65m-47.88-1.88-17.39-.31v9.32l9.31.12v48.6l8.08-.09V119.21m47.88-13.15a25.78,25.78,0,0,0-11.69,2.49,29.75,29.75,0,0,0-9.66,7.38,35.62,35.62,0,0,0-6.57,11.18,40.05,40.05,0,0,0-2.42,13.82,40.68,40.68,0,0,0,1.18,9.76,38.32,38.32,0,0,0,3.31,8.71,35,35,0,0,0,5.09,7.27,31,31,0,0,0,6.52,5.45c.43.26.9.53,1.38.78s1,.49,1.44.71l1.27.57.89.35c.67.23,1.38.43,2.12.62s1.49.35,2.25.49,1.53.27,2.29.37,1.51.18,2.24.24l1.13,0,1.59,0h2.72l52.87-.57v-9l-52.77.32h-2.3l-1.38,0-.91,0c-.59,0-1.21-.1-1.83-.18s-1.26-.18-1.89-.29-1.25-.25-1.85-.39-1.18-.31-1.72-.49l-.51-.2-.75-.32-.76-.33-.52-.25a22.12,22.12,0,0,1-5.22-3.92,25.38,25.38,0,0,1-4.1-5.45,28,28,0,0,1-2.68-6.66,29.82,29.82,0,0,1-1-7.53,29.44,29.44,0,0,1,1.76-10.12,26.2,26.2,0,0,1,4.79-8.2,21.89,21.89,0,0,1,7.06-5.44,19,19,0,0,1,8.57-1.86,19.2,19.2,0,0,1,8.43,2.16,22.49,22.49,0,0,1,6.86,5.53,26.75,26.75,0,0,1,4.64,8.07,29.6,29.6,0,0,1,1.78,9.81l7.72.06a40.25,40.25,0,0,0-2.36-13.34,36.45,36.45,0,0,0-6.27-11,30.68,30.68,0,0,0-9.31-7.58,26.19,26.19,0,0,0-11.49-3m-35.39-.93-20.58-.51v9.63l12.27.25v62.31l8.31-.09V105.13"/><path class="cls-28" d="M250.2,118.76a3.71,3.71,0,0,1-1.62-.41,4.36,4.36,0,0,1-1.35-1.08,5.23,5.23,0,0,1-.92-1.63,6.1,6.1,0,0,1-.34-2,5.6,5.6,0,0,1,.34-1.94,5,5,0,0,1,.92-1.56,4.18,4.18,0,0,1,1.35-1,3.57,3.57,0,0,1,1.62-.35,3.68,3.68,0,0,1,1.62.43,4.45,4.45,0,0,1,1.34,1.09,5.26,5.26,0,0,1,.91,1.6,5.72,5.72,0,0,1,.34,1.95,6,6,0,0,1-.34,2,5,5,0,0,1-.91,1.58,4.1,4.1,0,0,1-1.34,1,3.61,3.61,0,0,1-1.62.35m0-11a4.29,4.29,0,0,0-1.95.42,4.92,4.92,0,0,0-1.6,1.23,5.91,5.91,0,0,0-1.09,1.86,6.77,6.77,0,0,0-.4,2.32,7.07,7.07,0,0,0,.4,2.35,6.49,6.49,0,0,0,1.09,1.95,5.32,5.32,0,0,0,1.6,1.34,4.25,4.25,0,0,0,3.92.07,4.9,4.9,0,0,0,1.59-1.27,6.09,6.09,0,0,0,1.06-1.9,7.21,7.21,0,0,0,0-4.65,6.18,6.18,0,0,0-1.06-1.91,5.13,5.13,0,0,0-1.59-1.3,4.51,4.51,0,0,0-2-.51"/><path class="cls-28" d="M249.36,113.34v-1.86l.92,0a1.78,1.78,0,0,1,.44.06.91.91,0,0,1,.34.17.74.74,0,0,1,.22.3,1.23,1.23,0,0,1,.08.46,1.2,1.2,0,0,1,0,.3.79.79,0,0,1-.14.29.68.68,0,0,1-.28.21,1.13,1.13,0,0,1-.47.08l-1.07,0m1.28-2.6-2.19-.05v5.94l.91,0v-2.44l.72,0a1.66,1.66,0,0,1,.61.11.76.76,0,0,1,.34.26.88.88,0,0,1,.14.35,2.13,2.13,0,0,1,0,.39c0,.26,0,.46,0,.62a3.66,3.66,0,0,0,0,.38.64.64,0,0,0,.06.22.36.36,0,0,0,.11.13l.92,0a.55.55,0,0,1-.11-.18.93.93,0,0,1,0-.23c0-.1,0-.21,0-.36s0-.34,0-.57a4.32,4.32,0,0,0,0-.48,1.88,1.88,0,0,0-.1-.44,1.09,1.09,0,0,0-.21-.36,1.05,1.05,0,0,0-.38-.26,1.55,1.55,0,0,0,.47-.29,1.17,1.17,0,0,0,.26-.35,1.3,1.3,0,0,0,.11-.36,1.87,1.87,0,0,0,0-.32,2.09,2.09,0,0,0-.19-.92,1.4,1.4,0,0,0-.45-.53,1.64,1.64,0,0,0-.54-.25,2,2,0,0,0-.46-.07"/><path class="cls-28" d="M153,194v-2.79l1.4,0h.36l.32.05.28.09a1.29,1.29,0,0,1,.23.13.86.86,0,0,1,.19.18,1,1,0,0,1,.14.24,1.37,1.37,0,0,1,.08.29,2.19,2.19,0,0,1,0,.35,2.26,2.26,0,0,1,0,.37,1.53,1.53,0,0,1-.08.31,1.05,1.05,0,0,1-.14.25.82.82,0,0,1-.19.18,1.35,1.35,0,0,1-.23.14l-.28.1-.32.06-.36,0-1.4,0m5.33-10.73-8.6.12v13.34l5-.1h.36l.36,0,.36,0,.36-.06.36-.08.36-.12.36-.16.36-.2a2.72,2.72,0,0,0,.35-.24,3,3,0,0,0,.32-.29,3.42,3.42,0,0,0,.29-.35,4,4,0,0,0,.26-.41,3,3,0,0,0,.21-.46,3.9,3.9,0,0,0,.15-.52,5.22,5.22,0,0,0,.09-.59q0-.31,0-.65a6.21,6.21,0,0,0,0-.8,4.35,4.35,0,0,0-.15-.7,3.19,3.19,0,0,0-.24-.59,2.6,2.6,0,0,0-.34-.49,4.4,4.4,0,0,0-.41-.39,3.63,3.63,0,0,0-.43-.32,3.16,3.16,0,0,0-.45-.24,3,3,0,0,0-.48-.15l-.49-.1-.5-.07-.51,0h-.51l-1.71,0v-2l5.33-.08v-3.2"/><polyline class="cls-28" points="169.92 187.17 166.96 187.22 165.09 192.14 162.9 187.28 159.56 187.34 163.49 195.1 161.06 200.44 164.18 200.37 169.92 187.17"/><polyline class="cls-28" points="179.54 187.02 176.23 187.07 174.95 189.52 173.69 187.11 170.19 187.17 173.08 191.35 169.63 196.29 173.08 196.22 174.76 193.22 176.35 196.15 179.65 196.08 176.58 191.34 179.54 187.02"/><polyline class="cls-28" points="185.88 186.92 180.44 187 180.44 196.07 183.28 196.01 183.28 189.32 185.88 189.27 185.88 186.92"/><path class="cls-28" d="M191,193.5a1.79,1.79,0,0,1-.39,0,1.34,1.34,0,0,1-.34-.12,1.22,1.22,0,0,1-.29-.2,1.41,1.41,0,0,1-.23-.29,2.49,2.49,0,0,1-.18-.33,2.59,2.59,0,0,1-.13-.36,2.83,2.83,0,0,1-.08-.39,3.23,3.23,0,0,1,0-.41c0-.08,0-.17,0-.25s0-.17,0-.25,0-.17.05-.25,0-.16.07-.24a2,2,0,0,1,.1-.24,1.91,1.91,0,0,1,.12-.22l.15-.2.17-.18.2-.15.23-.11.25-.07.28,0a1.77,1.77,0,0,1,.38,0,1.38,1.38,0,0,1,.33.11,1.3,1.3,0,0,1,.29.19,1.54,1.54,0,0,1,.24.27,2,2,0,0,1,.19.32,2.27,2.27,0,0,1,.14.36,2.7,2.7,0,0,1,.08.4,3.32,3.32,0,0,1,0,.44q0,.15,0,.29t0,.28a2.69,2.69,0,0,1-.06.27,2.51,2.51,0,0,1-.09.26,2.06,2.06,0,0,1-.11.24,1.89,1.89,0,0,1-.13.22l-.15.19-.18.16-.2.13-.22.09-.24.05-.26,0m-1-7a3.59,3.59,0,0,0-.55,0,3.11,3.11,0,0,0-.51.13,2.93,2.93,0,0,0-.47.21,3.05,3.05,0,0,0-.43.29,3.72,3.72,0,0,0-.39.36,3.88,3.88,0,0,0-.34.42,4.18,4.18,0,0,0-.29.47,4.65,4.65,0,0,0-.23.53q-.1.28-.18.57t-.13.6q-.05.3-.08.62t0,.65q0,.35,0,.67t.09.64a5.82,5.82,0,0,0,.14.6,5.3,5.3,0,0,0,.2.57,4.86,4.86,0,0,0,.25.53,4.08,4.08,0,0,0,.29.46,3.62,3.62,0,0,0,.34.4,3.43,3.43,0,0,0,.39.34,3.3,3.3,0,0,0,.43.27,3,3,0,0,0,.46.19,2.93,2.93,0,0,0,.48.11,3.32,3.32,0,0,0,1.28-.07,2.79,2.79,0,0,0,.68-.28,3,3,0,0,0,.59-.45,3.74,3.74,0,0,0,.51-.62v1.05l2.69-.05v-9l-2.69,0v1.09q-.13-.19-.26-.36a3.64,3.64,0,0,0-.27-.3,2.76,2.76,0,0,0-.29-.25,2.19,2.19,0,0,0-.3-.19l-.32-.14-.34-.09-.36-.05h-.39"/><path class="cls-28" d="M205.18,186.61l-7.21.11v5.13a3.38,3.38,0,0,1-.06.7,1.54,1.54,0,0,1-.19.51.88.88,0,0,1-.33.31,1,1,0,0,1-.46.11h-.14l-.13,0-.13,0-.12,0v2.34l.51.08.42.06.32,0h.22a4.51,4.51,0,0,0,.58,0,3.12,3.12,0,0,0,.5-.12,2.25,2.25,0,0,0,.42-.18,1.79,1.79,0,0,0,.34-.25A3.28,3.28,0,0,0,200,195a2.53,2.53,0,0,0,.22-.3,2.11,2.11,0,0,0,.16-.32,2,2,0,0,0,.1-.34q0-.17.07-.34t.05-.35q0-.18,0-.36t0-.36v-3.75l1.76,0v6.73l2.77-.06v-8.95"/><polyline class="cls-28" points="212.9 186.49 206.18 186.59 206.18 188.93 208.16 188.89 208.16 195.5 210.92 195.44 210.92 188.85 212.9 188.81 212.9 186.49"/><path class="cls-28" d="M216.1,189.84a2.58,2.58,0,0,1,0-.34,2.35,2.35,0,0,1,.09-.33,2.22,2.22,0,0,1,.13-.31,2.17,2.17,0,0,1,.18-.28,1.42,1.42,0,0,1,.22-.24,1.2,1.2,0,0,1,.25-.17,1.27,1.27,0,0,1,.29-.1,1.62,1.62,0,0,1,.33,0,1.55,1.55,0,0,1,.33,0,1.26,1.26,0,0,1,.3.1,1.18,1.18,0,0,1,.25.16,1.28,1.28,0,0,1,.21.23,2.26,2.26,0,0,1,.31.59,2.31,2.31,0,0,1,.09.32,2.44,2.44,0,0,1,0,.33l-3.06.05m1.53-3.75a4.69,4.69,0,0,0-.57,0,4.24,4.24,0,0,0-.55.11,4,4,0,0,0-1,.43,3.59,3.59,0,0,0-.45.32,3.73,3.73,0,0,0-.4.39,4.11,4.11,0,0,0-.35.45,4.5,4.5,0,0,0-.54,1.08,5.3,5.3,0,0,0-.17.62,6.18,6.18,0,0,0-.1.67q0,.35,0,.72t0,.52q0,.25.05.5t.09.47q.05.23.13.45t.16.43a4.35,4.35,0,0,0,.2.4,4,4,0,0,0,.23.36,3.75,3.75,0,0,0,.26.32,3.53,3.53,0,0,0,.29.3,3.6,3.6,0,0,0,.32.26l.35.22.38.19.4.14.42.1.45.05h.47a5.89,5.89,0,0,0,.81-.07,4.39,4.39,0,0,0,.72-.18,3.48,3.48,0,0,0,.63-.28,3.07,3.07,0,0,0,.53-.39,4.43,4.43,0,0,0,.45-.46,4.38,4.38,0,0,0,.37-.52,4.63,4.63,0,0,0,.3-.58,5.2,5.2,0,0,0,.23-.64l-2.62,0a1.55,1.55,0,0,1-.06.24,1.36,1.36,0,0,1-.1.22,1.29,1.29,0,0,1-.13.19l-.16.17-.2.13-.23.1-.25.06-.28,0-.27,0-.24-.06-.22-.09-.19-.13-.17-.17-.15-.19a1.79,1.79,0,0,1-.12-.21,1.91,1.91,0,0,1-.09-.23,2.5,2.5,0,0,1-.08-.25q0-.12-.05-.25t0-.26,0-.26l5.73-.11q0-.36,0-.71t-.07-.68q0-.33-.12-.66t-.17-.63a4.71,4.71,0,0,0-.23-.58,4.27,4.27,0,0,0-.3-.53,4.12,4.12,0,0,0-.36-.47,4.24,4.24,0,0,0-.43-.41,2.9,2.9,0,0,0-.5-.33,3.25,3.25,0,0,0-.57-.23,4,4,0,0,0-.64-.13,5.11,5.11,0,0,0-.72,0"/><path class="cls-28" d="M227.22,192.8a1.82,1.82,0,0,1-.39,0,1.33,1.33,0,0,1-.33-.11,1.18,1.18,0,0,1-.28-.19,1.35,1.35,0,0,1-.22-.27,2.66,2.66,0,0,1-.3-.7,2.87,2.87,0,0,1-.07-.38,3.23,3.23,0,0,1,0-.4,3.13,3.13,0,0,1,0-.4,2.85,2.85,0,0,1,.07-.38,2.67,2.67,0,0,1,.12-.36,2.58,2.58,0,0,1,.17-.33,1.44,1.44,0,0,1,.22-.29,1.23,1.23,0,0,1,.28-.21,1.35,1.35,0,0,1,.33-.13,1.82,1.82,0,0,1,.39,0,1.67,1.67,0,0,1,.36,0,1.31,1.31,0,0,1,.32.11,1.25,1.25,0,0,1,.28.19,1.5,1.5,0,0,1,.23.26,2,2,0,0,1,.19.31,2.2,2.2,0,0,1,.13.35,2.64,2.64,0,0,1,.08.39,3.38,3.38,0,0,1,0,.43,3.47,3.47,0,0,1,0,.44,2.82,2.82,0,0,1-.08.4,2.42,2.42,0,0,1-.13.37,2.24,2.24,0,0,1-.19.33,1.58,1.58,0,0,1-.23.26,1.34,1.34,0,0,1-.28.19,1.38,1.38,0,0,1-.32.12,1.71,1.71,0,0,1-.36,0m.94-6.88-.38,0-.35.06-.33.1-.3.14a2.34,2.34,0,0,0-.28.19,3.05,3.05,0,0,0-.28.25,4,4,0,0,0-.27.31q-.13.17-.26.36v-1.08l-2.61,0v12.73l2.72-.06v-4.75a3.49,3.49,0,0,0,.5.53,2.78,2.78,0,0,0,.56.37,2.59,2.59,0,0,0,.62.22,2.9,2.9,0,0,0,.68.06,3.29,3.29,0,0,0,.53-.05,2.86,2.86,0,0,0,.49-.14,2.73,2.73,0,0,0,.45-.22,2.89,2.89,0,0,0,.41-.31,3.85,3.85,0,0,0,.37-.37,4,4,0,0,0,.32-.43,4.41,4.41,0,0,0,.27-.48,5,5,0,0,0,.22-.53q.1-.27.17-.55t.12-.57q0-.29.07-.59t0-.6q0-.24,0-.48t0-.46q0-.23-.07-.45t-.1-.44q-.06-.22-.13-.42t-.15-.39q-.08-.19-.18-.36t-.2-.34a3.23,3.23,0,0,0-.23-.3,3.17,3.17,0,0,0-.26-.27l-.29-.23-.32-.2-.33-.15-.36-.11-.38-.06-.4,0"/><polyline class="cls-28" points="240.86 186.04 238.29 186.08 235.63 190.85 235.63 186.13 232.94 186.17 232.94 194.99 235.54 194.94 238.19 190.04 238.19 194.88 240.86 194.83 240.86 186.04"/><path class="cls-28" d="M245.71,190a1.27,1.27,0,0,1-.42-.06.73.73,0,0,1-.3-.18.77.77,0,0,1-.18-.31,1.42,1.42,0,0,1-.06-.43,1.56,1.56,0,0,1,.06-.45.85.85,0,0,1,.18-.33.76.76,0,0,1,.3-.2,1.24,1.24,0,0,1,.42-.07l.89,0v2l-.89,0m3.54-4.12L245,186a3.22,3.22,0,0,0-.47,0,3.48,3.48,0,0,0-.47.11,4,4,0,0,0-.47.18,4.84,4.84,0,0,0-.47.25,1.54,1.54,0,0,0-.41.36,2,2,0,0,0-.29.51,3.11,3.11,0,0,0-.17.66,5.35,5.35,0,0,0-.06.82,4.65,4.65,0,0,0,0,.53,3.75,3.75,0,0,0,.09.49,3.19,3.19,0,0,0,.15.45,2.9,2.9,0,0,0,.21.41,2.17,2.17,0,0,0,.26.36,1.82,1.82,0,0,0,.32.27,1.77,1.77,0,0,0,.37.19,2,2,0,0,0,.42.11l-1.91,3.09,2.76-.06,1.49-2.82h.21v2.79l2.65-.05v-8.75"/><path class="cls-28" d="M259.83,192.16a1.37,1.37,0,0,1-.3,0,1.06,1.06,0,0,1-.26-.09,1,1,0,0,1-.22-.15,1.14,1.14,0,0,1-.18-.22,1.8,1.8,0,0,1-.25-.53,2,2,0,0,1-.06-.29,2.28,2.28,0,0,1,0-.31,2.14,2.14,0,0,1,0-.21,2,2,0,0,1,0-.2,1.92,1.92,0,0,1,.05-.19l.07-.18.09-.17.11-.15.13-.14.14-.12.15-.09.16-.07.17,0,.18,0,.24,0,.23.07.22.12a1.56,1.56,0,0,1,.21.18,1.17,1.17,0,0,1,.17.22,1.34,1.34,0,0,1,.13.27,1.74,1.74,0,0,1,.08.31,2.42,2.42,0,0,1,0,.36,2.15,2.15,0,0,1,0,.31,2,2,0,0,1-.17.57,2.14,2.14,0,0,1-.14.26,1.29,1.29,0,0,1-.19.22,1.08,1.08,0,0,1-.23.16,1.11,1.11,0,0,1-.26.1,1.39,1.39,0,0,1-.3,0m0-5.47-.19,0-.18-.06-.18-.1-.18-.14a.83.83,0,0,1-.15-.18,1.08,1.08,0,0,1-.11-.23,1.6,1.6,0,0,1-.06-.29,2.48,2.48,0,0,1,0-.34,2.43,2.43,0,0,1,0-.33,1.66,1.66,0,0,1,.06-.28,1.16,1.16,0,0,1,.1-.24.88.88,0,0,1,.14-.18l.16-.15.18-.11.19-.07.2,0,.21,0,.2.06.18.1.17.14a.84.84,0,0,1,.14.18,1.12,1.12,0,0,1,.1.23,1.63,1.63,0,0,1,.06.28,2.41,2.41,0,0,1,0,.33,2.35,2.35,0,0,1,0,.33,1.57,1.57,0,0,1-.06.28,1.15,1.15,0,0,1-.11.23,1,1,0,0,1-.15.19l-.17.15-.18.11-.19.07-.2,0m0-5.22-.53,0a4.27,4.27,0,0,0-.49.09,3.85,3.85,0,0,0-.46.14,3.57,3.57,0,0,0-.42.19,3.38,3.38,0,0,0-.38.25,3,3,0,0,0-.33.29,2.86,2.86,0,0,0-.29.33,2.92,2.92,0,0,0-.23.38,3.55,3.55,0,0,0-.19.41,3.58,3.58,0,0,0-.14.44,3.87,3.87,0,0,0-.08.47,4.44,4.44,0,0,0,0,.51,4.84,4.84,0,0,0,0,.54,3.62,3.62,0,0,0,.08.48,2.81,2.81,0,0,0,.14.42,2.33,2.33,0,0,0,.2.37,2.94,2.94,0,0,0,.23.32,2.49,2.49,0,0,0,.25.27,2.26,2.26,0,0,0,.28.22,2.21,2.21,0,0,0,.3.17v0a2.72,2.72,0,0,0-.39.17,2.86,2.86,0,0,0-.36.24,3.15,3.15,0,0,0-.34.3,3.61,3.61,0,0,0-.31.36,2.46,2.46,0,0,0-.26.43,3.06,3.06,0,0,0-.18.51,4.09,4.09,0,0,0-.11.59,5.64,5.64,0,0,0,0,.66,4.73,4.73,0,0,0,.06.74,4.17,4.17,0,0,0,.17.69,4,4,0,0,0,.28.64,4.17,4.17,0,0,0,.39.59,2.39,2.39,0,0,0,.53.49,3,3,0,0,0,.7.34,4.38,4.38,0,0,0,.87.2,7,7,0,0,0,1,0,7.1,7.1,0,0,0,1-.09,4.51,4.51,0,0,0,.87-.23,3.09,3.09,0,0,0,.7-.37,2.52,2.52,0,0,0,.53-.51,4.39,4.39,0,0,0,.39-.6,4.15,4.15,0,0,0,.28-.65,4.28,4.28,0,0,0,.17-.69,4.78,4.78,0,0,0,.06-.74,5.61,5.61,0,0,0,0-.66,4,4,0,0,0-.11-.58,3,3,0,0,0-.18-.5,2.34,2.34,0,0,0-.26-.42,3.76,3.76,0,0,0-.31-.35,3.09,3.09,0,0,0-.34-.29,2.7,2.7,0,0,0-.36-.22,2.55,2.55,0,0,0-.38-.16v0a2.29,2.29,0,0,0,.3-.17,2.36,2.36,0,0,0,.28-.22,2.61,2.61,0,0,0,.25-.28,3.08,3.08,0,0,0,.23-.33,2.32,2.32,0,0,0,.19-.37,2.84,2.84,0,0,0,.14-.43,3.75,3.75,0,0,0,.08-.48,5.17,5.17,0,0,0,0-.53,4.7,4.7,0,0,0,0-.5,3.88,3.88,0,0,0-.08-.47,3.41,3.41,0,0,0-.13-.44,3.24,3.24,0,0,0-.19-.41,2.79,2.79,0,0,0-.23-.37,2.73,2.73,0,0,0-.28-.32,2.88,2.88,0,0,0-.33-.28,3.25,3.25,0,0,0-.38-.23,3.45,3.45,0,0,0-.42-.18,3.76,3.76,0,0,0-.45-.13l-.49-.08-.52,0"/><g class="cls-2"><g class="cls-2"><g class="cls-29"><path class="cls-30" d="M106.53,17.8a8.34,8.34,0,0,0-.9.23,9.18,9.18,0,0,0-.9.34q-.45.2-.91.45c-.3.17.25,4.55-.05,4.76a36.21,36.21,0,0,0-15,29.57c0,14.87,7.34,22.38,10.82,26.12,3.06,2.95,4.86,4.49,6.67,4.33.3,0,.8.92,1.1.86a8.42,8.42,0,0,0,.91-.24,9.3,9.3,0,0,0,.92-.36q.46-.21.92-.47a17.76,17.76,0,0,0,5.9-6.12,40.68,40.68,0,0,0,4.34-10,63.73,63.73,0,0,0,2.31-12.55,68.52,68.52,0,0,0-.18-13.59,52.1,52.1,0,0,0-2.23-10.43A29.72,29.72,0,0,0,116.53,23a13.87,13.87,0,0,0-4.71-4.42,7.81,7.81,0,0,0-5.29-.82"/><polyline class="cls-31" points="103.67 47.45 96.2 56.28 103.9 61.3 107.39 58.06 105.03 54.68 105.84 44.2 103.71 42.52"/></g></g><g class="cls-2"><g class="cls-32"><path class="cls-33" d="M115.27,46.82l2.82-3.55,13.74,7.31-9.56,12.16-4-2.11-2.83,3.58-14-7.28,9.75-12.25,4.06,2.15m1.26-25.5q-.85,0-1.71,0t-1.72.06q-.87.06-1.73.17t-1.74.28a27.86,27.86,0,0,0-11.05,4.78,29.8,29.8,0,0,0-8.05,8.8,32.66,32.66,0,0,0-4.24,11.59A34.8,34.8,0,0,0,86.64,60a35.17,35.17,0,0,0,4.14,10.52,33.61,33.61,0,0,0,6.88,8.22,31.38,31.38,0,0,0,8.82,5.4,28.77,28.77,0,0,0,10,2.08q.85,0,1.71,0t1.72-.11q.86-.08,1.72-.22t1.72-.33a27.92,27.92,0,0,0,10.79-5,30,30,0,0,0,7.72-8.78,32.74,32.74,0,0,0,4-11.33,34.79,34.79,0,0,0-.35-12.71,35.2,35.2,0,0,0-3.93-10.29A33.72,33.72,0,0,0,135,29.23a31.57,31.57,0,0,0-8.58-5.55,28.94,28.94,0,0,0-9.88-2.37"/><polyline class="cls-34" points="110.62 40.65 95.47 55.46 112.99 67.59 117.39 63.25 105.03 54.68 115.72 44.21 110.62 40.65"/><polyline class="cls-35" points="120.11 39.92 115.72 44.21 105.03 54.68 117.39 63.25 122.44 66.76 137.33 52.04 120.11 39.92"/></g></g></g></g><g id="lights_shadows" data-name="lights shadows"><polygon class="cls-36" points="286.88 303.06 103.77 322.28 103.77 0 286.88 13.73 286.88 303.06"/><polygon class="cls-37" points="286.88 303.06 103.77 322.28 103.77 0 286.88 13.73 286.88 303.06"/><polygon class="cls-36" points="286.88 303.06 103.77 322.28 103.77 0 286.88 13.73 286.88 303.06"/><polygon class="cls-38" points="53.46 12.27 103.77 0 103.77 322.28 53.46 309.64 53.46 12.27"/><polygon class="cls-39" points="286.89 303.06 282.24 303.54 282.24 13.39 286.89 13.73 286.89 303.06"/><polygon class="cls-40" points="53.46 309.64 58.12 310.79 58.12 11.1 53.46 12.27 53.46 309.64"/><polygon class="cls-41" points="286.88 17.7 103.77 3.21 103.77 0 286.88 13.73 286.88 17.7"/><polygon class="cls-42" points="53.46 16.23 103.71 3.21 103.71 0 53.46 12.27 53.46 16.23"/><polygon class="cls-43" points="103.91 312.78 53.46 300.9 53.46 309.64 103.91 322.28 103.91 312.78"/><rect class="cls-44" x="102.05" width="3.32" height="322.28"/><polygon class="cls-45" points="111.32 321.49 103.71 322.28 103.71 0 111.32 0.57 111.32 321.49"/><polygon class="cls-46" points="103.77 312.78 286.88 294.31 286.88 303.06 103.77 322.28 103.77 312.78"/><polygon class="cls-47" points="100.39 321.48 103.71 322.28 103.71 0 100.39 0.84 100.39 321.48"/></g></g></g></svg>