<svg xmlns="http://www.w3.org/2000/svg" xmlns:xlink="http://www.w3.org/1999/xlink" viewBox="0 0 326.22 326.44"><defs><style>.cls-1{fill:none;}.cls-2{isolation:isolate;}.cls-3{opacity:0.7;}.cls-4{fill:#fff;opacity:0;}.cls-5{fill:#fbfbfb;opacity:0.05;}.cls-6{fill:#f8f8f8;opacity:0.1;}.cls-7{fill:#f4f4f4;opacity:0.14;}.cls-8{fill:#f1f1f0;opacity:0.19;}.cls-9{fill:#ededed;opacity:0.24;}.cls-10{fill:#e9e9e9;opacity:0.29;}.cls-11{fill:#e6e6e5;opacity:0.33;}.cls-12{fill:#e2e2e2;opacity:0.38;}.cls-13{fill:#dedede;opacity:0.43;}.cls-14{fill:#dbdbda;opacity:0.48;}.cls-15{fill:#d7d7d7;opacity:0.52;}.cls-16{fill:#d4d4d3;opacity:0.57;}.cls-17{fill:#d0d0cf;opacity:0.62;}.cls-18{fill:#ccc;opacity:0.67;}.cls-19{fill:#c9c9c8;opacity:0.71;}.cls-20{fill:#c5c5c4;opacity:0.76;}.cls-21{fill:#c1c1c1;opacity:0.81;}.cls-22{fill:#bebebd;opacity:0.86;}.cls-23{fill:#babab9;opacity:0.9;}.cls-24{fill:#b7b7b6;opacity:0.95;}.cls-25{fill:#b3b3b2;}.cls-26{fill:#fcda00;}.cls-27{fill:#ffca02;}.cls-28{fill:#d10910;}.cls-29{clip-path:url(#clip-path);}.cls-30{fill:#e7eaec;}.cls-31{fill:#95ceb8;}.cls-32{clip-path:url(#clip-path-2);}.cls-33{fill:#e5e5e2;}.cls-34{fill:#4ab285;}.cls-35{fill:#003d60;}.cls-36,.cls-37,.cls-43{mix-blend-mode:multiply;}.cls-36{fill:url(#Безымянный_градиент_761);}.cls-37{fill:url(#Безымянный_градиент_2038);}.cls-38,.cls-39,.cls-40,.cls-41,.cls-42,.cls-45{mix-blend-mode:overlay;}.cls-38{fill:url(#Безымянный_градиент_500);}.cls-39{fill:url(#Безымянный_градиент_500-2);}.cls-40{fill:url(#Безымянный_градиент_147);}.cls-41{fill:url(#Безымянный_градиент_503);}.cls-42{fill:url(#Безымянный_градиент_543);}.cls-43{fill:url(#Безымянный_градиент_771);}.cls-44,.cls-46,.cls-48{mix-blend-mode:soft-light;}.cls-44{fill:url(#Безымянный_градиент_13);}.cls-45{fill:url(#Безымянный_градиент_549);}.cls-46{fill:url(#Безымянный_градиент_2036);}.cls-47{mix-blend-mode:hard-light;fill:url(#Безымянный_градиент_8);}.cls-48{fill:url(#Безымянный_градиент_5);}</style><clipPath id="clip-path"><polygon class="cls-1" points="136.43 88.61 114.39 70.66 114.39 50.05 136.43 25.88 136.43 88.61"/></clipPath><clipPath id="clip-path-2"><polygon class="cls-1" points="184.28 31.14 184.28 89.57 136.43 103.01 136.43 17.7 184.28 31.14"/></clipPath><linearGradient id="Безымянный_градиент_761" x1="268.79" y1="8.63" x2="183.64" y2="308.02" gradientUnits="userSpaceOnUse"><stop offset="0" stop-color="#fff"/><stop offset="0.66" stop-color="#f3f3f3"/><stop offset="1" stop-color="#eaeaea"/></linearGradient><linearGradient id="Безымянный_градиент_2038" x1="139.95" y1="6.28" x2="60.6" y2="300.46" gradientUnits="userSpaceOnUse"><stop offset="0" stop-color="#f1f4f1"/><stop offset="0.33" stop-color="#e8e2e4"/><stop offset="1" stop-color="#d8c2cd"/></linearGradient><linearGradient id="Безымянный_градиент_500" x1="315.06" y1="158.47" x2="319.71" y2="158.47" gradientUnits="userSpaceOnUse"><stop offset="0" stop-color="gray"/><stop offset="0.42" stop-color="#828282"/><stop offset="0.6" stop-color="#898989"/><stop offset="0.74" stop-color="#969696"/><stop offset="0.85" stop-color="#a8a8a8"/><stop offset="0.95" stop-color="#bfbfbf"/><stop offset="1" stop-color="#cfcfcf"/></linearGradient><linearGradient id="Безымянный_градиент_500-2" x1="-3275.31" y1="162.53" x2="-3270.66" y2="162.53" gradientTransform="matrix(-1, 0, 0, 1, -3217.19, 0)" xlink:href="#Безымянный_градиент_500"/><linearGradient id="Безымянный_градиент_147" x1="228.3" y1="6.87" x2="228.02" y2="10.45" gradientUnits="userSpaceOnUse"><stop offset="0" stop-color="#cfcfcf"/><stop offset="0.05" stop-color="#bfbfbf"/><stop offset="0.15" stop-color="#a8a8a8"/><stop offset="0.26" stop-color="#969696"/><stop offset="0.4" stop-color="#898989"/><stop offset="0.58" stop-color="#828282"/><stop offset="1" stop-color="gray"/></linearGradient><linearGradient id="Безымянный_градиент_503" x1="94.51" y1="11.8" x2="95.61" y2="15.99" gradientUnits="userSpaceOnUse"><stop offset="0" stop-color="#ebebeb"/><stop offset="0.04" stop-color="#dbdbdb"/><stop offset="0.12" stop-color="#bfbfbf"/><stop offset="0.21" stop-color="#a8a8a8"/><stop offset="0.32" stop-color="#969696"/><stop offset="0.44" stop-color="#898989"/><stop offset="0.61" stop-color="#828282"/><stop offset="1" stop-color="gray"/></linearGradient><linearGradient id="Безымянный_градиент_543" x1="94.04" y1="311.75" x2="96.35" y2="302.75" gradientUnits="userSpaceOnUse"><stop offset="0" stop-color="#414141"/><stop offset="0.03" stop-color="#565656"/><stop offset="0.08" stop-color="#696969"/><stop offset="0.13" stop-color="#767676"/><stop offset="0.19" stop-color="#7e7e7e"/><stop offset="0.32" stop-color="gray"/></linearGradient><linearGradient id="Безымянный_градиент_771" x1="134.87" y1="161.14" x2="138.19" y2="161.14" gradientUnits="userSpaceOnUse"><stop offset="0" stop-color="#fff"/><stop offset="0.21" stop-color="#fefefd"/><stop offset="0.3" stop-color="#fcfcf6"/><stop offset="0.36" stop-color="#f9f7e9"/><stop offset="0.42" stop-color="#f4f1d8"/><stop offset="0.46" stop-color="#ede9c1"/><stop offset="0.48" stop-color="#eae5b5"/><stop offset="0.5" stop-color="#eeeac3"/><stop offset="0.55" stop-color="#f4f2d9"/><stop offset="0.61" stop-color="#f9f8ea"/><stop offset="0.67" stop-color="#fcfcf6"/><stop offset="0.76" stop-color="#fefefd"/><stop offset="1" stop-color="#fff"/></linearGradient><linearGradient id="Безымянный_градиент_13" x1="136.53" y1="161.14" x2="144.14" y2="161.14" gradientUnits="userSpaceOnUse"><stop offset="0" stop-color="gray"/><stop offset="0.01" stop-color="#858586"/><stop offset="0.04" stop-color="#97999e"/><stop offset="0.07" stop-color="#a2a5ac"/><stop offset="0.1" stop-color="#a6a9b1"/><stop offset="0.14" stop-color="#9fa1a8"/><stop offset="0.26" stop-color="#919296"/><stop offset="0.39" stop-color="#878889"/><stop offset="0.58" stop-color="#828282"/><stop offset="1" stop-color="gray"/></linearGradient><linearGradient id="Безымянный_градиент_549" x1="228.53" y1="312.06" x2="227.69" y2="303.76" gradientUnits="userSpaceOnUse"><stop offset="0" stop-color="#060606"/><stop offset="0.06" stop-color="#292929"/><stop offset="0.14" stop-color="#4e4e4e"/><stop offset="0.21" stop-color="#6a6a6a"/><stop offset="0.27" stop-color="#7a7a7a"/><stop offset="0.32" stop-color="gray"/></linearGradient><linearGradient id="Безымянный_градиент_2036" x1="278.05" y1="-23.95" x2="173.89" y2="342.32" gradientUnits="userSpaceOnUse"><stop offset="0" stop-color="#fff"/><stop offset="0.42" stop-color="#d4cccc"/><stop offset="1" stop-color="#958080"/></linearGradient><linearGradient id="Безымянный_градиент_8" x1="-3250.52" y1="161.14" x2="-3247.2" y2="161.14" gradientTransform="matrix(-1, 0, 0, 1, -3113.98, 0)" gradientUnits="userSpaceOnUse"><stop offset="0" stop-color="gray"/><stop offset="0.02" stop-color="#999992"/><stop offset="0.05" stop-color="#afb1a3"/><stop offset="0.08" stop-color="#bdbfad"/><stop offset="0.1" stop-color="#c2c4b0"/><stop offset="0.12" stop-color="#bdbfac"/><stop offset="0.21" stop-color="#a7a89c"/><stop offset="0.31" stop-color="#95968f"/><stop offset="0.44" stop-color="#898987"/><stop offset="0.61" stop-color="#828281"/><stop offset="1" stop-color="gray"/></linearGradient><linearGradient id="Безымянный_градиент_5" x1="278.05" y1="-23.95" x2="173.89" y2="342.32" gradientUnits="userSpaceOnUse"><stop offset="0" stop-color="#fff"/><stop offset="0.1" stop-color="#fbfafa"/><stop offset="0.22" stop-color="#efecec"/><stop offset="0.35" stop-color="#dbd4d4"/><stop offset="0.48" stop-color="#c0b3b3"/><stop offset="0.62" stop-color="#9c8989"/><stop offset="0.64" stop-color="#958080"/></linearGradient></defs><title>Complex-automatisation</title><g class="cls-2"><g id="Layer_2" data-name="Layer 2"><g id="box_color" data-name="box color"><g class="cls-3"><path class="cls-4" d="M8.27,306.78C39.94,313.66,124,325,124,325a52.65,52.65,0,0,0,18.4,1.15l180.31-20.6c4.58-.15,4.43-5,.92-5.66l-202-29a78.62,78.62,0,0,0-24.89-.44S36.5,285.24,12.38,289.07C.88,290.9-6.55,303.56,8.27,306.78Z"/><path class="cls-5" d="M10.52,306.56c30.16,6.55,114,18.25,114,18.25a50.48,50.48,0,0,0,17.64,1.1l180.2-20.51c4.39-.15,4.24-4.84.87-5.44L124.06,271.3a75.22,75.22,0,0,0-23.8-.42S37.4,286,14.44,289.66C3.46,291.41-3.62,303.5,10.52,306.56Z"/><path class="cls-6" d="M12.77,306.35c28.65,6.22,112.31,18.32,112.31,18.32A48.32,48.32,0,0,0,142,325.73L322,305.31c4.2-.14,4.06-4.65.83-5.22L126.53,271.77a71.82,71.82,0,0,0-22.72-.4s-65.5,15.41-87.32,18.87C6,291.91-.68,303.43,12.77,306.35Z"/><path class="cls-7" d="M15,306.13c27.15,5.89,110.6,18.4,110.6,18.4a46.15,46.15,0,0,0,16.12,1l180-20.32c4-.14,3.88-4.45.79-5L129,272.25a68.42,68.42,0,0,0-21.63-.38s-68.15,15.68-88.81,19C8.62,292.41,2.25,303.36,15,306.13Z"/><path class="cls-8" d="M17.26,305.91c25.64,5.56,108.88,18.48,108.88,18.48a44,44,0,0,0,15.36,1l179.87-20.23c3.82-.14,3.7-4.26.75-4.78L131.45,272.72a65,65,0,0,0-20.54-.36s-70.79,16-90.31,19.06C11.21,292.92,5.18,303.29,17.26,305.91Z"/><path class="cls-9" d="M19.51,305.7c24.13,5.24,107.16,18.55,107.16,18.55a41.81,41.81,0,0,0,14.61.92L321,305c3.63-.13,3.52-4.06.7-4.56L133.92,273.2a61.61,61.61,0,0,0-19.46-.34S41,289.1,22.66,292C13.79,293.42,8.12,303.22,19.51,305.7Z"/><path class="cls-10" d="M21.76,305.48c22.62,4.91,105.45,18.63,105.45,18.63a39.65,39.65,0,0,0,13.85.87l179.65-20c3.44-.13,3.34-3.87.66-4.34l-185-26.92a58.21,58.21,0,0,0-18.37-.32s-76.07,16.52-93.3,19.25C16.37,293.93,11.05,303.15,21.76,305.48Z"/><path class="cls-11" d="M24,305.26C45.12,309.85,127.74,324,127.74,324a37.48,37.48,0,0,0,13.09.82l179.53-20c3.26-.12,3.16-3.67.62-4.12L138.84,274.14a54.81,54.81,0,0,0-17.28-.3s-78.72,16.79-94.79,19.35C19,294.43,14,303.08,24,305.26Z"/><path class="cls-12" d="M26.26,305c19.6,4.26,102,18.78,102,18.78a35.31,35.31,0,0,0,12.33.78L320,304.73c3.07-.12,3-3.48.58-3.9l-179.3-26.22a51.41,51.41,0,0,0-16.2-.28s-81.36,17.07-96.29,19.44C21.54,294.94,16.92,303,26.26,305Z"/><path class="cls-13" d="M28.51,304.83c18.1,3.93,100.3,18.85,100.3,18.85a33.15,33.15,0,0,0,11.57.73l179.31-19.77c2.88-.11,2.8-3.28.53-3.68L143.77,275.09a48,48,0,0,0-15.11-.26s-84,17.35-97.78,19.53C24.12,295.44,19.86,302.94,28.51,304.83Z"/><path class="cls-14" d="M30.76,304.61c16.59,3.6,98.58,18.93,98.58,18.93a31,31,0,0,0,10.82.68l179.2-19.68c2.69-.11,2.62-3.09.49-3.46L146.23,275.57a44.6,44.6,0,0,0-14-.24S45.57,293,32.94,295C26.7,295.94,22.79,302.87,30.76,304.61Z"/><path class="cls-15" d="M33,304.39c15.08,3.27,96.86,19,96.86,19a28.81,28.81,0,0,0,10.06.64L319,304.44c2.5-.11,2.44-2.89.45-3.24L148.7,276a41.2,41.2,0,0,0-12.94-.22S46.47,293.72,35,295.55C29.28,296.45,25.72,302.81,33,304.39Z"/><path class="cls-16" d="M35.26,304.18c13.57,2.95,95.14,19.08,95.14,19.08a26.64,26.64,0,0,0,9.3.59l179-19.5c2.31-.1,2.26-2.7.41-3L151.16,276.51a37.8,37.8,0,0,0-11.85-.2S47.38,294.49,37,296.14C31.86,297,28.66,302.74,35.26,304.18Z"/><path class="cls-17" d="M37.51,304c12.06,2.62,93.43,19.15,93.43,19.15a24.48,24.48,0,0,0,8.54.55l178.87-19.41c2.12-.1,2.08-2.5.36-2.8L153.62,277a34.4,34.4,0,0,0-10.76-.18S48.29,295.26,39.1,296.72C34.45,297.46,31.59,302.67,37.51,304Z"/><path class="cls-18" d="M39.76,303.74C50.31,306,131.47,323,131.47,323a22.31,22.31,0,0,0,7.79.5L318,304.16c1.93-.09,1.9-2.31.32-2.58L156.09,277.46a31,31,0,0,0-9.68-.16S49.19,296,41.16,297.31C37,298,34.53,302.6,39.76,303.74Z"/><path class="cls-19" d="M42,303.53c9,2,90,19.3,90,19.3a20.14,20.14,0,0,0,7,.45l178.64-19.22a1.19,1.19,0,1,0,.28-2.36l-159.4-23.76a27.6,27.6,0,0,0-8.59-.14s-99.86,19-106.75,20.1C39.61,298.47,37.46,302.53,42,303.53Z"/><path class="cls-20" d="M44.25,303.31c7.54,1.64,88.28,19.38,88.28,19.38a18,18,0,0,0,6.27.41L317.33,304a1.08,1.08,0,0,0,.24-2.14L161,278.41a24.2,24.2,0,0,0-7.5-.12S51,297.58,45.27,298.49C42.19,299,40.4,302.46,44.25,303.31Z"/><path class="cls-21" d="M46.5,303.09c6,1.31,86.56,19.45,86.56,19.45a15.81,15.81,0,0,0,5.51.36l178.42-19a1,1,0,0,0,.19-1.92L163.48,278.89a20.8,20.8,0,0,0-6.42-.1S51.91,298.35,47.32,299.08C44.77,299.47,43.33,302.39,46.5,303.09Z"/><path class="cls-22" d="M48.75,302.88c4.52,1,84.84,19.53,84.84,19.53a13.64,13.64,0,0,0,4.75.31l178.31-18.95a.85.85,0,0,0,.15-1.7L165.94,279.36a17.4,17.4,0,0,0-5.33-.08S52.82,299.13,49.38,299.67C47.36,300,46.26,302.33,48.75,302.88Z"/><path class="cls-23" d="M51,302.66c3,.67,83.13,19.6,83.13,19.6a11.48,11.48,0,0,0,4,.27l178.2-18.85a.74.74,0,0,0,.11-1.48l-148-22.36a14,14,0,0,0-4.24-.06S53.73,299.9,51.43,300.26C49.94,300.49,49.2,302.26,51,302.66Z"/><path class="cls-24" d="M53.25,302.44c1.51.34,81.41,19.68,81.41,19.68a9.31,9.31,0,0,0,3.24.22L316,303.58a.63.63,0,0,0,.07-1.26l-145.18-22a10.62,10.62,0,0,0-3.16,0S54.64,300.67,53.49,300.84C52.52,301,52.13,302.19,53.25,302.44Z"/><path class="cls-25" d="M55.5,302.22,135.19,322a7.14,7.14,0,0,0,2.48.17l178-18.67a.52.52,0,0,0,0-1L173.33,280.78a7.25,7.25,0,0,0-2.07,0L55.54,301.43A.4.4,0,0,0,55.5,302.22Z"/></g><polygon class="cls-26" points="319.7 303.06 136.59 322.28 136.59 0 319.7 13.73 319.7 303.06"/><polygon class="cls-27" points="53.47 23.36 136.59 0 136.59 322.28 53.47 301.71 53.47 23.36"/><polyline class="cls-28" points="177.16 190.12 175.14 190.15 173.3 193.12 173.3 190.18 171.57 190.21 171.57 197.22 173.3 197.19 173.3 194.18 175.08 197.16 177.22 197.12 174.83 193.54 177.16 190.12"/><path class="cls-28" d="M180,196l-.22,0-.19-.07a.68.68,0,0,1-.16-.12.8.8,0,0,1-.13-.17,1.28,1.28,0,0,1-.1-.2,1.57,1.57,0,0,1-.07-.23,2,2,0,0,1,0-.25,2.48,2.48,0,0,1,0-.28,2.33,2.33,0,0,1,0-.27,1.93,1.93,0,0,1,0-.25,1.68,1.68,0,0,1,.07-.23,1.56,1.56,0,0,1,.1-.2.84.84,0,0,1,.13-.17.72.72,0,0,1,.16-.12l.19-.07.22,0,.22,0,.19.07a.73.73,0,0,1,.16.12.88.88,0,0,1,.14.17,1.5,1.5,0,0,1,.1.2,1.63,1.63,0,0,1,.07.22,1.9,1.9,0,0,1,0,.25,2.32,2.32,0,0,1,0,.27,2.49,2.49,0,0,1,0,.28,2,2,0,0,1,0,.26,1.62,1.62,0,0,1-.07.23,1.34,1.34,0,0,1-.1.2.92.92,0,0,1-.14.17.76.76,0,0,1-.16.12l-.19.07-.22,0m0-3.92a3.34,3.34,0,0,0-.56.05,2.6,2.6,0,0,0-.5.14,2.23,2.23,0,0,0-.8.55,2.38,2.38,0,0,0-.3.39,2.42,2.42,0,0,0-.21.44,2.77,2.77,0,0,0-.13.5,3.6,3.6,0,0,0,0,.93,3.08,3.08,0,0,0,.06.35,2.77,2.77,0,0,0,.1.33,2.55,2.55,0,0,0,.13.3,2,2,0,0,0,.16.27,1.93,1.93,0,0,0,.2.24,2.05,2.05,0,0,0,.24.21l.27.17.3.14.33.1.35.05H180l.38,0,.35-.07L181,197l.3-.15.27-.18a2.15,2.15,0,0,0,.43-.46,2.36,2.36,0,0,0,.17-.28,2.47,2.47,0,0,0,.13-.31,2.77,2.77,0,0,0,.09-.33,3.22,3.22,0,0,0,.05-.35q0-.18,0-.37a3.6,3.6,0,0,0,0-.36,3,3,0,0,0-.05-.34,2.66,2.66,0,0,0-.09-.32,2.44,2.44,0,0,0-.13-.3A2.25,2.25,0,0,0,182,193a2.12,2.12,0,0,0-.44-.45l-.27-.18-.3-.14-.32-.1-.35-.05H180"/><polyline class="cls-28" points="188.57 192.09 186.92 192.12 186.05 194.99 185.17 192.15 183.53 192.18 182.86 197.01 184.3 196.98 184.66 194.33 185.5 196.96 186.59 196.94 187.44 194.28 187.79 196.91 189.24 196.89 188.57 192.09"/><polyline class="cls-28" points="194.19 192 189.83 192.07 189.83 196.88 191.35 196.85 191.35 193.24 192.68 193.22 192.68 196.82 194.19 196.79 194.19 192"/><path class="cls-28" d="M199.55,191.91l-3.91.07v2.74a1.69,1.69,0,0,1,0,.37.82.82,0,0,1-.11.27.49.49,0,0,1-.18.17.54.54,0,0,1-.25.06l-.28,0v1.25l.28,0,.23,0,.17,0h.12l.31,0,.27-.06.23-.1a.94.94,0,0,0,.19-.13l.15-.15.12-.16a1.22,1.22,0,0,0,.09-.17,1.16,1.16,0,0,0,.06-.18l0-.18c0-.06,0-.12,0-.18s0-.13,0-.19,0-.13,0-.2v-2l1,0v3.59l1.51,0v-4.78"/><path class="cls-28" d="M201.71,193.71a1.76,1.76,0,0,1,0-.19,1.39,1.39,0,0,1,0-.18,1.2,1.2,0,0,1,.07-.17l.1-.16a.7.7,0,0,1,.12-.12l.14-.09.16-.06.18,0h.18l.16.05.14.09a.67.67,0,0,1,.12.13l.09.15a1.14,1.14,0,0,1,.07.16,1.2,1.2,0,0,1,0,.17,1.3,1.3,0,0,1,0,.18l-1.68,0m.84-2-.31,0-.3.06-.29.1-.27.13-.25.17a2,2,0,0,0-.22.21,2.18,2.18,0,0,0-.19.24,2.54,2.54,0,0,0-.16.28,2.58,2.58,0,0,0-.13.31,2.89,2.89,0,0,0-.09.34,3.26,3.26,0,0,0-.06.36,3.69,3.69,0,0,0,0,.38c0,.1,0,.19,0,.28s0,.18,0,.26,0,.17.05.25,0,.16.07.24.06.16.09.23l.11.21.13.19.15.18.16.16.17.14.19.12.2.1.22.07.23,0,.24,0h.25l.45,0a2.5,2.5,0,0,0,.4-.09,1.89,1.89,0,0,0,.34-.15,1.57,1.57,0,0,0,.29-.21,2.41,2.41,0,0,0,.25-.25,2.33,2.33,0,0,0,.2-.28,2.45,2.45,0,0,0,.16-.31,2.77,2.77,0,0,0,.12-.35l-1.43,0a.9.9,0,0,1,0,.13l-.05.12-.07.1-.09.09-.11.07-.12.05-.14,0h-.3l-.13,0-.12-.05-.1-.08-.1-.09-.08-.1-.07-.11-.06-.12,0-.13,0-.14s0-.09,0-.14,0-.09,0-.14l3.14-.06q0-.2,0-.38t0-.37q0-.18-.06-.35t-.09-.34a2.63,2.63,0,0,0-.13-.31,2.36,2.36,0,0,0-.16-.28,2.23,2.23,0,0,0-.43-.47,1.54,1.54,0,0,0-.27-.18,1.76,1.76,0,0,0-.31-.12,2.2,2.2,0,0,0-.35-.07l-.39,0"/><polyline class="cls-28" points="210.11 191.73 208.29 191.76 207.05 193.73 207.05 191.78 205.56 191.81 205.56 196.57 207.05 196.55 207.05 194.44 208.38 196.52 210.26 196.49 208.42 194 210.11 191.73"/><path class="cls-28" d="M212.5,191.52l-.23,0-.22,0-.21.06-.2.08-.18.11-.17.13-.16.15-.15.16-.13.18-.11.2-.09.21q0,.11-.08.23t-.07.24,0,.25,0,.26,0,.27q0,.18,0,.36a3.31,3.31,0,0,0,0,.33,2.87,2.87,0,0,0,.08.31,2.67,2.67,0,0,0,.11.3,2.28,2.28,0,0,0,.14.28,2,2,0,0,0,.17.24,1.77,1.77,0,0,0,.2.21l.23.17.24.14.27.1.29.06h.31l.32,0,.32-.07.32-.12.32-.16v-1.5a2.21,2.21,0,0,1-.23.21l-.23.15-.22.09-.22,0h-.13l-.12,0-.12,0-.11-.06-.1-.07-.09-.09-.08-.1-.07-.12-.05-.14a1.3,1.3,0,0,1,0-.15q0-.08,0-.16t0-.17c0-.06,0-.12,0-.17s0-.11,0-.16,0-.1,0-.15l0-.14.06-.13.07-.11.08-.1.1-.08.1-.06.11,0,.12,0H213l.13,0,.13,0,.13.06.12.07.12.08.11.09.1.1v-1.49l-.16-.08-.16-.07-.16-.06-.15-.05-.16,0-.16,0h-.33"/><polyline class="cls-28" points="218.82 191.59 217.35 191.61 217.35 193.28 215.99 193.31 215.99 191.63 214.52 191.66 214.52 196.4 215.99 196.38 215.99 194.49 217.35 194.47 217.35 196.35 218.82 196.32 218.82 191.59"/><path class="cls-28" d="M221.93,195l-.2,0-.18-.06a.65.65,0,0,1-.15-.11.7.7,0,0,1-.12-.15,1.37,1.37,0,0,1-.16-.37,1.5,1.5,0,0,1,0-.2,1.71,1.71,0,0,1,0-.21s0-.09,0-.13,0-.09,0-.13l0-.13,0-.13.05-.13.07-.12.08-.11.09-.1.11-.07.12-.06.13,0h.15l.2,0,.17.06.15.1a.8.8,0,0,1,.12.14,1.08,1.08,0,0,1,.1.17,1.15,1.15,0,0,1,.07.19,1.35,1.35,0,0,1,0,.21,1.69,1.69,0,0,1,0,.23q0,.08,0,.16t0,.15s0,.1,0,.14l0,.13-.06.12-.07.11-.08.1-.1.09-.1.06-.11,0-.13,0h-.14m-.5-3.66-.29,0-.27.07-.24.11-.22.15-.2.19a2,2,0,0,0-.17.22,2.24,2.24,0,0,0-.15.25,2.59,2.59,0,0,0-.12.28q-.06.15-.1.3t-.07.31q0,.16,0,.32t0,.33c0,.12,0,.24,0,.36s0,.23,0,.33a3.22,3.22,0,0,0,.07.32,3.17,3.17,0,0,0,.1.3,2.29,2.29,0,0,0,.13.27,2,2,0,0,0,.15.24,1.85,1.85,0,0,0,.18.21l.2.17.23.14.24.1.25.06h.27a1.7,1.7,0,0,0,.4-.05,1.46,1.46,0,0,0,.35-.14,1.53,1.53,0,0,0,.31-.23,1.93,1.93,0,0,0,.27-.33v.56l1.4,0V191.5l-1.4,0v.58l-.14-.19-.14-.16-.15-.13-.16-.1-.17-.07-.18-.05-.19,0h-.2"/><path class="cls-28" d="M226.83,193.64a.72.72,0,0,1-.24,0,.4.4,0,0,1-.17-.1.42.42,0,0,1-.1-.17.77.77,0,0,1,0-.23.83.83,0,0,1,0-.24.45.45,0,0,1,.1-.18.42.42,0,0,1,.17-.11.72.72,0,0,1,.24,0h.48v1.1h-.48m1.94-2.22-2.32,0-.26,0-.26.06-.26.1-.26.14a.86.86,0,0,0-.22.19,1,1,0,0,0-.16.27,1.62,1.62,0,0,0-.1.35,2.73,2.73,0,0,0,0,.43,2.4,2.4,0,0,0,0,.29,2.07,2.07,0,0,0,0,.27,1.87,1.87,0,0,0,.08.25,1.76,1.76,0,0,0,.11.23,1.24,1.24,0,0,0,.15.19,1,1,0,0,0,.18.14l.2.1.23.06-1.05,1.66,1.51,0,.82-1.52h.11v1.51l1.45,0v-4.71"/><path class="cls-28" d="M234.76,194.79l-.2,0-.17-.06a.65.65,0,0,1-.15-.1.7.7,0,0,1-.12-.15,1.36,1.36,0,0,1-.09-.18,1.37,1.37,0,0,1-.07-.19,1.49,1.49,0,0,1,0-.2,1.72,1.72,0,0,1,0-.21s0-.09,0-.13,0-.09,0-.13,0-.09,0-.13l0-.13L234,193l.06-.11.08-.11.09-.1.11-.07.12-.06.13,0h.14l.2,0,.17.06.15.1a.8.8,0,0,1,.12.14,1.07,1.07,0,0,1,.1.17,1.15,1.15,0,0,1,.07.19,1.35,1.35,0,0,1,0,.21,1.69,1.69,0,0,1,0,.23q0,.08,0,.15t0,.15s0,.1,0,.14l0,.13-.06.12-.07.11-.08.1-.09.09-.1.06-.11,0-.12,0h-.14m-.49-3.64-.28,0-.26.07-.24.11-.22.15-.2.19a2,2,0,0,0-.17.22,2.23,2.23,0,0,0-.15.24,2.58,2.58,0,0,0-.12.27q-.05.15-.09.3t-.07.31q0,.16,0,.32t0,.33c0,.12,0,.24,0,.35s0,.22,0,.33a3.22,3.22,0,0,0,.07.31,3.17,3.17,0,0,0,.1.3,2.26,2.26,0,0,0,.12.27,2,2,0,0,0,.15.24,1.83,1.83,0,0,0,.18.21l.2.17.22.14.23.1.25.06h.27a1.67,1.67,0,0,0,.39-.05A1.43,1.43,0,0,0,235,196a1.51,1.51,0,0,0,.31-.23,1.92,1.92,0,0,0,.26-.32V196l1.39,0v-4.69l-1.39,0v.58l-.14-.19-.14-.16-.15-.13-.16-.1-.17-.07-.18-.05-.19,0h-.2"/><path class="cls-28" d="M239.27,194.92V194H240l.09,0,.08,0,.07.06.05.07,0,.08a.51.51,0,0,1,0,.09.63.63,0,0,1,0,.1.53.53,0,0,1,0,.09.45.45,0,0,1,0,.08l0,.07-.05.06-.06.06-.08,0-.09,0h-.74m0-1.84v-.81h.59l.18,0a.32.32,0,0,1,.13.07.3.3,0,0,1,.08.12.53.53,0,0,1,0,.17.6.6,0,0,1,0,.18.34.34,0,0,1-.08.13.33.33,0,0,1-.13.08.56.56,0,0,1-.18,0h-.59m1.21-1.86-2.6,0V196l2.65-.05.35,0a1.34,1.34,0,0,0,.29-.08.86.86,0,0,0,.22-.13.71.71,0,0,0,.16-.18l.11-.21a1.66,1.66,0,0,0,.08-.2,1.39,1.39,0,0,0,0-.19,1.24,1.24,0,0,0,0-.19,2.23,2.23,0,0,0,0-.27,1.43,1.43,0,0,0,0-.23,1,1,0,0,0-.08-.19.71.71,0,0,0-.12-.16l-.13-.13-.14-.1-.16-.08-.17-.06h0l.18-.08.15-.11.12-.13a.86.86,0,0,0,.09-.16l.06-.17c0-.06,0-.11,0-.17a1.69,1.69,0,0,0,0-.17,1.53,1.53,0,0,0,0-.18,1.29,1.29,0,0,0,0-.21,1.15,1.15,0,0,0,0-.19,1.12,1.12,0,0,0-.08-.18l-.11-.16a.69.69,0,0,0-.15-.14.85.85,0,0,0-.2-.1l-.25-.06-.29,0"/><polyline class="cls-28" points="245.58 191.14 242.09 191.2 242.09 192.42 243.12 192.4 243.12 195.86 244.55 195.83 244.55 192.37 245.58 192.36 245.58 191.14"/><path class="cls-28" d="M248.25,194.71l-.2,0-.18-.06a.68.68,0,0,1-.15-.11.84.84,0,0,1-.13-.16,1.25,1.25,0,0,1-.1-.19,1.55,1.55,0,0,1-.07-.22,2,2,0,0,1,0-.25,2.48,2.48,0,0,1,0-.27,2.33,2.33,0,0,1,0-.26,1.92,1.92,0,0,1,0-.24,1.66,1.66,0,0,1,.07-.22,1.53,1.53,0,0,1,.1-.2.81.81,0,0,1,.12-.16.67.67,0,0,1,.15-.12l.18-.07.21,0,.21,0,.18.06a.64.64,0,0,1,.15.11.77.77,0,0,1,.12.16,1.47,1.47,0,0,1,.1.19,1.61,1.61,0,0,1,.07.22,1.89,1.89,0,0,1,0,.24,2.32,2.32,0,0,1,0,.26,2.49,2.49,0,0,1,0,.27,2,2,0,0,1,0,.25,1.6,1.6,0,0,1-.07.22,1.31,1.31,0,0,1-.1.19.92.92,0,0,1-.13.16.7.7,0,0,1-.15.12l-.18.07-.21,0m0-3.79a3,3,0,0,0-.52.05,2.39,2.39,0,0,0-.46.14,2.08,2.08,0,0,0-.75.53,2.33,2.33,0,0,0-.27.37,2.42,2.42,0,0,0-.19.43,2.79,2.79,0,0,0-.12.48,3.48,3.48,0,0,0,0,.53q0,.19,0,.36a3.16,3.16,0,0,0,.05.34,2.68,2.68,0,0,0,.09.32,2.34,2.34,0,0,0,.12.29,2.21,2.21,0,0,0,.16.26,2,2,0,0,0,.19.23,1.93,1.93,0,0,0,.22.2l.25.17.28.13.31.09.33.05h.35l.35,0,.33-.06.31-.1.28-.14.25-.18a2,2,0,0,0,.22-.21,2.08,2.08,0,0,0,.19-.24,2.31,2.31,0,0,0,.16-.27,2.42,2.42,0,0,0,.12-.3,2.75,2.75,0,0,0,.09-.32,3.21,3.21,0,0,0,.05-.34q0-.18,0-.36t0-.35a3,3,0,0,0-.05-.33,2.63,2.63,0,0,0-.09-.31,2.39,2.39,0,0,0-.12-.29,2.32,2.32,0,0,0-.16-.27,2,2,0,0,0-.19-.24,1.89,1.89,0,0,0-.22-.2l-.25-.17-.28-.13-.3-.09-.33-.05h-.35"/><polyline class="cls-28" points="256.29 190.96 254.77 190.99 253.94 193.76 253.13 191.01 251.59 191.04 250.96 195.71 252.32 195.68 252.65 193.12 253.44 195.66 254.46 195.64 255.24 193.07 255.58 195.62 256.92 195.59 256.29 190.96"/><path class="cls-28" d="M259.57,194.33l-.2,0-.17-.06a.65.65,0,0,1-.14-.1.78.78,0,0,1-.12-.14,1.35,1.35,0,0,1-.09-.18,1.37,1.37,0,0,1-.06-.19,1.49,1.49,0,0,1,0-.2,1.72,1.72,0,0,1,0-.21s0-.08,0-.13,0-.08,0-.13l0-.13,0-.13,0-.12.06-.11.08-.1.09-.09.1-.07.11-.06.13,0h.14l.19,0,.17.06.15.1.12.14a1.13,1.13,0,0,1,.09.16,1.22,1.22,0,0,1,.07.18,1.41,1.41,0,0,1,0,.2,1.72,1.72,0,0,1,0,.22q0,.08,0,.15t0,.15s0,.09,0,.14l0,.13-.05.12-.07.11-.08.1-.09.08-.1.06-.11,0-.12,0h-.13m-.49-3.59-.27,0-.25.07-.23.11-.22.15-.2.18a1.85,1.85,0,0,0-.17.21,2,2,0,0,0-.14.24,2.29,2.29,0,0,0-.11.27q-.05.15-.09.3t-.07.31q0,.16,0,.32t0,.33c0,.12,0,.24,0,.35s0,.22,0,.33,0,.21.07.31.06.2.1.3a2.67,2.67,0,0,0,.13.27,2.1,2.1,0,0,0,.15.23,1.74,1.74,0,0,0,.17.2l.2.17.21.14.23.1.24.06h.26a1.66,1.66,0,0,0,.39-.05,1.38,1.38,0,0,0,.34-.14,1.43,1.43,0,0,0,.3-.23,1.8,1.8,0,0,0,.25-.32v.55l1.35,0v-4.63l-1.35,0v.57l-.13-.19-.14-.15-.14-.12-.15-.1-.16-.07-.17,0-.18,0h-.2"/><polyline class="cls-28" points="265.65 190.8 262.22 190.86 262.22 192.07 263.24 192.05 263.24 195.47 264.64 195.44 264.64 192.03 265.65 192.01 265.65 190.8"/><polyline class="cls-28" points="270.29 190.73 268.95 190.75 267.56 193.25 267.56 190.77 266.16 190.79 266.16 195.42 267.51 195.39 268.9 192.83 268.9 195.36 270.29 195.34 270.29 190.73"/><path class="cls-28" d="M272.66,190.52h-.2l-.21,0-.21,0-.22.05-.22.07-.2.08-.19.09L271,191l.38,1,.25-.17.26-.13.26-.08.26,0a1,1,0,0,1,.25,0,.48.48,0,0,1,.17.08.32.32,0,0,1,.1.13.43.43,0,0,1,0,.18.48.48,0,0,1,0,.18.31.31,0,0,1-.09.13.4.4,0,0,1-.15.08l-.21,0h-.68v1h.6l.25,0a.5.5,0,0,1,.18.07.31.31,0,0,1,.11.12.4.4,0,0,1,0,.18l-.12.3-.07.07-.1,0-.12,0h-.46l-.14,0-.14,0-.14-.06-.15-.07-.16-.09-.17-.11-.36,1.1a3.57,3.57,0,0,0,.43.23,3.22,3.22,0,0,0,.44.16,3.07,3.07,0,0,0,.45.09,3.14,3.14,0,0,0,.46,0l.32,0,.29,0,.25-.08.22-.11.19-.12.15-.14.12-.15a1,1,0,0,0,.09-.16l.07-.16a1.53,1.53,0,0,0,.05-.16,1.31,1.31,0,0,0,0-.16,1.21,1.21,0,0,0,0-.16,1.34,1.34,0,0,0,0-.18,1.3,1.3,0,0,0,0-.18,1.34,1.34,0,0,0-.06-.17l-.08-.17-.11-.14-.14-.12-.17-.1-.2-.07h0l.12-.08.11-.09.1-.11.08-.13.07-.15a1.29,1.29,0,0,0,.05-.16,1.39,1.39,0,0,0,0-.17,1.56,1.56,0,0,0,0-.18,1.82,1.82,0,0,0,0-.35,1.15,1.15,0,0,0-.09-.28.88.88,0,0,0-.15-.23.92.92,0,0,0-.22-.17l-.26-.11-.27-.08-.27,0h-.28"/><path class="cls-28" d="M277.19,194l-.2,0-.17-.06-.14-.1a.77.77,0,0,1-.12-.14l-.09-.18a1.55,1.55,0,0,1-.06-.19,1.52,1.52,0,0,1,0-.2,1.56,1.56,0,0,1,0-.21s0-.08,0-.13,0-.08,0-.13l0-.13,0-.13,0-.12.06-.11.07-.1.09-.09.1-.07.11-.05.13,0h.14l.18,0,.16.06.14.1.12.14a1.05,1.05,0,0,1,.1.16,1.14,1.14,0,0,1,.07.18,1.35,1.35,0,0,1,0,.2,1.69,1.69,0,0,1,0,.22q0,.08,0,.15s0,.1,0,.15,0,.09,0,.14l0,.13-.06.12-.07.11-.08.09-.09.08-.1.06-.11,0-.12,0h-.12m-.47-3.56-.27,0-.25.07-.23.11-.21.15-.19.18-.17.21a2.18,2.18,0,0,0-.14.24,2.54,2.54,0,0,0-.12.27q-.05.15-.09.3t-.06.31q0,.16,0,.31t0,.32c0,.12,0,.23,0,.35s0,.22,0,.32,0,.21.07.31.06.2.09.29a2.47,2.47,0,0,0,.12.26,2.12,2.12,0,0,0,.15.23l.17.2.19.17.21.14.23.1.24.05h.26a1.56,1.56,0,0,0,.37-.05,1.34,1.34,0,0,0,.33-.14,1.41,1.41,0,0,0,.29-.23,1.79,1.79,0,0,0,.25-.32v.54l1.34,0v-4.59l-1.34,0v.57l-.13-.18-.14-.15-.14-.12-.15-.1-.15-.07-.17,0-.18,0h-.19"/><polyline class="cls-28" points="284.09 190.5 282.72 190.52 282.72 193.96 281.55 193.98 281.55 190.54 280.18 190.56 280.18 195.15 283.43 195.09 283.43 196.41 284.64 196.38 284.64 193.92 284.09 193.93 284.09 190.5"/><polyline class="cls-28" points="289.25 190.41 287.94 190.43 286.57 192.91 286.57 190.45 285.2 190.48 285.2 195.05 286.53 195.03 287.88 192.49 287.88 195 289.25 194.97 289.25 190.41"/><path class="cls-28" d="M291.75,192.49a.63.63,0,0,1-.22,0,.38.38,0,0,1-.16-.1.41.41,0,0,1-.09-.16.74.74,0,0,1,0-.23.8.8,0,0,1,0-.24.44.44,0,0,1,.09-.17.4.4,0,0,1,.16-.1.64.64,0,0,1,.22,0h.45v1.06h-.45m1.81-2.15-2.17,0-.24,0-.24.06-.24.1-.24.13a.82.82,0,0,0-.21.19,1,1,0,0,0-.15.26,1.57,1.57,0,0,0-.09.34,2.7,2.7,0,0,0,0,.42,2.35,2.35,0,0,0,0,.28,2,2,0,0,0,0,.26,1.74,1.74,0,0,0,.08.24,1.62,1.62,0,0,0,.11.22,1.09,1.09,0,0,0,.13.18.93.93,0,0,0,.16.14l.19.1.22.06-1,1.6,1.42,0,.77-1.47h.11v1.46l1.36,0v-4.56"/><path class="cls-28" d="M299,193.59h-.15l-.13,0-.12-.08-.1-.11-.07-.13a1,1,0,0,1-.05-.14,1,1,0,0,1,0-.15,1.21,1.21,0,0,1,0-.16,1.1,1.1,0,0,1,0-.11s0-.07,0-.11l0-.1,0-.1.24-.3.08-.05.08,0,.09,0h.22l.12,0,.11.07.11.1a.48.48,0,0,1,.09.11.63.63,0,0,1,.07.14.94.94,0,0,1,0,.17,1.4,1.4,0,0,1,0,.19,1.21,1.21,0,0,1,0,.16,1.06,1.06,0,0,1,0,.15,1,1,0,0,1-.05.14l-.07.14-.1.11-.12.08-.14.05-.16,0m0-2.85h-.1l-.1,0-.09-.05-.09-.07-.08-.1a.6.6,0,0,1-.06-.12.84.84,0,0,1,0-.15,1.26,1.26,0,0,1,0-.18,1.34,1.34,0,0,1,0-.17.87.87,0,0,1,0-.15.6.6,0,0,1,.05-.12l.07-.1.09-.08.09-.06.1,0h.21l.1,0,.1.05.09.07.07.1a.65.65,0,0,1,.05.12.87.87,0,0,1,0,.14,1.19,1.19,0,0,1,0,.17,1.17,1.17,0,0,1,0,.17.84.84,0,0,1,0,.15.63.63,0,0,1-.06.12l-.08.1-.09.08-.09.06-.1,0H299m0-2.72-.27,0-.25,0-.23.08-.21.1-.2.13-.17.15-.15.17a1.56,1.56,0,0,0-.12.2,1.74,1.74,0,0,0-.1.22,1.82,1.82,0,0,0-.07.23,2,2,0,0,0,0,.25,2.43,2.43,0,0,0,0,.53,2,2,0,0,0,0,.25,1.62,1.62,0,0,0,.07.22,1.36,1.36,0,0,0,.1.19l.12.17.13.14.14.11.16.08v0l-.2.09-.19.12-.17.15-.16.19a1.33,1.33,0,0,0-.14.23,1.58,1.58,0,0,0-.09.26,2.11,2.11,0,0,0-.06.3,3.06,3.06,0,0,0,0,.34,2.59,2.59,0,0,0,0,.39,2.18,2.18,0,0,0,.09.36,2.06,2.06,0,0,0,.14.33,2.2,2.2,0,0,0,.21.31,1.29,1.29,0,0,0,.28.25,1.56,1.56,0,0,0,.36.18,2.26,2.26,0,0,0,.45.1,3.53,3.53,0,0,0,.54,0,3.58,3.58,0,0,0,.54,0,2.34,2.34,0,0,0,.45-.12,1.61,1.61,0,0,0,.36-.19,1.28,1.28,0,0,0,.27-.26,2.42,2.42,0,0,0,.21-.32,2.19,2.19,0,0,0,.24-.7,2.48,2.48,0,0,0,0-.39,2.81,2.81,0,0,0,0-.34,2,2,0,0,0-.06-.3,1.56,1.56,0,0,0-.1-.26,1.34,1.34,0,0,0-.14-.22l-.16-.18-.17-.15-.19-.11-.2-.08v0l.16-.09.15-.12.13-.14.12-.17a1.23,1.23,0,0,0,.1-.2,1.51,1.51,0,0,0,.07-.22,2,2,0,0,0,0-.25,2.59,2.59,0,0,0,0-.27,2.4,2.4,0,0,0,0-.26,2.09,2.09,0,0,0,0-.24,1.89,1.89,0,0,0-.07-.23,1.79,1.79,0,0,0-.1-.22l-.13-.19-.15-.17-.17-.14-.19-.12-.22-.1-.24-.07-.25,0H299"/><path class="cls-28" d="M223.45,129.5a13.8,13.8,0,0,0-6.19,1.37,15.84,15.84,0,0,0-5.09,3.92,18.83,18.83,0,0,0-3.44,5.89,21.1,21.1,0,0,0-1.27,7.26,21.45,21.45,0,0,0,.64,5.24,20.05,20.05,0,0,0,1.81,4.66,18.25,18.25,0,0,0,2.78,3.86,16.13,16.13,0,0,0,3.57,2.85,6.5,6.5,0,0,0,.7.4c.26.13.54.26.8.37l.73.29.49.17c.37.11.76.21,1.18.31s.85.18,1.28.25.87.14,1.3.19l1.24.13.8,0,1.23,0h2l72.89-.31v-8H226.34l-1.17,0-.74,0-.72-.08-.79-.1-.78-.13c-.25,0-.48-.1-.68-.15l-.68-.23-.62-.24-.52-.23-.38-.21a9.11,9.11,0,0,1-1.88-1.6,10.25,10.25,0,0,1-1.46-2.11,11.16,11.16,0,0,1-.95-2.52,11.86,11.86,0,0,1-.34-2.82,11.69,11.69,0,0,1,.7-4,10.43,10.43,0,0,1,1.9-3.26,8.78,8.78,0,0,1,2.8-2.18,7.65,7.65,0,0,1,6.77,0,8.87,8.87,0,0,1,2.74,2.14,10.5,10.5,0,0,1,1.88,3.16,11.71,11.71,0,0,1,.76,3.87l7,0a21.16,21.16,0,0,0-1.3-7,19.08,19.08,0,0,0-3.37-5.78,16.11,16.11,0,0,0-5-3.94,13.93,13.93,0,0,0-6.09-1.51m-44.39-1.62L163,127.63v8.59l8.6.09v44.82l7.49-.08V127.88m44.39-12.27a24.09,24.09,0,0,0-10.85,2.33,27.71,27.71,0,0,0-9,6.84,33,33,0,0,0-6.09,10.34,36.84,36.84,0,0,0-2.24,12.76,37.43,37.43,0,0,0,1.09,9,35.25,35.25,0,0,0,3.07,8,32.3,32.3,0,0,0,4.72,6.71,28.65,28.65,0,0,0,6.05,5c.4.24.84.48,1.28.71s.91.45,1.34.65l1.19.52c.35.14.64.25.83.32.62.21,1.28.4,2,.57s1.38.33,2.09.46,1.42.25,2.13.34,1.41.17,2.09.22l1,0,1.47,0h2.52l72.78-.82v-8.23l-72.69.5h-2.14l-1.28,0-.85,0c-.55,0-1.12-.1-1.7-.17s-1.17-.17-1.75-.27-1.16-.23-1.72-.37-1.1-.29-1.6-.46l-.47-.18-.7-.29-.7-.3-.48-.23a20.58,20.58,0,0,1-4.85-3.62,23.43,23.43,0,0,1-3.8-5,25.76,25.76,0,0,1-2.48-6.15,27.44,27.44,0,0,1-.89-7,27.07,27.07,0,0,1,1.64-9.34,24.24,24.24,0,0,1,4.45-7.58,20.39,20.39,0,0,1,6.56-5,17.71,17.71,0,0,1,8-1.75,17.89,17.89,0,0,1,7.84,2,20.81,20.81,0,0,1,6.38,5.1,24.63,24.63,0,0,1,4.32,7.45,27.2,27.2,0,0,1,1.65,9.07l7.19,0a37,37,0,0,0-2.2-12.34,33.55,33.55,0,0,0-5.83-10.17,28.38,28.38,0,0,0-8.66-7,24.39,24.39,0,0,0-10.68-2.74m-32.83-.76-19-.41v8.89l11.35.2V181l7.7-.09V114.84"/><path class="cls-28" d="M264.93,127.22a3.46,3.46,0,0,1-1.5-.38,4.06,4.06,0,0,1-1.26-1,4.82,4.82,0,0,1-.86-1.5,5.58,5.58,0,0,1-.32-1.88,5.14,5.14,0,0,1,.32-1.8,4.62,4.62,0,0,1,.86-1.45,3.92,3.92,0,0,1,1.26-1,3.34,3.34,0,0,1,1.5-.33,3.44,3.44,0,0,1,1.51.39,4.13,4.13,0,0,1,1.25,1,4.84,4.84,0,0,1,.85,1.48,5.26,5.26,0,0,1,.32,1.8,5.5,5.5,0,0,1-.32,1.87,4.59,4.59,0,0,1-.85,1.47,3.84,3.84,0,0,1-1.25,1,3.39,3.39,0,0,1-1.51.33m0-10.18a4,4,0,0,0-1.81.39,4.61,4.61,0,0,0-1.49,1.14,5.49,5.49,0,0,0-1,1.73,6.24,6.24,0,0,0-.37,2.15,6.48,6.48,0,0,0,.37,2.17,6,6,0,0,0,1,1.8,4.92,4.92,0,0,0,1.49,1.23,4,4,0,0,0,3.66.06,4.57,4.57,0,0,0,1.48-1.18,5.62,5.62,0,0,0,1-1.76,6.63,6.63,0,0,0,0-4.3,5.69,5.69,0,0,0-1-1.76,4.76,4.76,0,0,0-1.48-1.2,4.22,4.22,0,0,0-1.84-.47"/><path class="cls-28" d="M264.15,122.21v-1.72l.86,0a1.7,1.7,0,0,1,.41.05.88.88,0,0,1,.32.15.68.68,0,0,1,.21.28,1.07,1.07,0,0,1,.07.42,1.09,1.09,0,0,1,0,.28.76.76,0,0,1-.13.27.65.65,0,0,1-.26.2,1,1,0,0,1-.43.07l-1,0m1.2-2.41-2,0v5.5h.85V123h.67a1.55,1.55,0,0,1,.57.1.71.71,0,0,1,.31.24.81.81,0,0,1,.13.33,2,2,0,0,1,0,.36c0,.23,0,.42,0,.57a3.4,3.4,0,0,0,0,.35.61.61,0,0,0,.05.2.33.33,0,0,0,.11.12h.86a.52.52,0,0,1-.1-.17.92.92,0,0,1,0-.22c0-.09,0-.2,0-.34s0-.31,0-.52a4,4,0,0,0,0-.45,1.7,1.7,0,0,0-.09-.41.92.92,0,0,0-.56-.57,1.43,1.43,0,0,0,.44-.27,1.1,1.1,0,0,0,.24-.33,1.23,1.23,0,0,0,.11-.34,1.75,1.75,0,0,0,0-.3,1.89,1.89,0,0,0-.17-.85,1.29,1.29,0,0,0-.42-.49,1.54,1.54,0,0,0-.5-.23,1.87,1.87,0,0,0-.43-.06"/><g class="cls-2"><g class="cls-2"><g class="cls-29"><path class="cls-30" d="M139.29,21.88a8.34,8.34,0,0,0-.9.23,9.18,9.18,0,0,0-.9.34q-.45.2-.91.45c-.3.17.25,4.55-.05,4.76a36.21,36.21,0,0,0-15,29.57c0,14.87,7.34,22.38,10.82,26.12,3.06,2.95,4.86,4.49,6.67,4.33.3,0,.8.92,1.1.86a8.42,8.42,0,0,0,.91-.24,9.3,9.3,0,0,0,.92-.36q.46-.21.92-.47a17.76,17.76,0,0,0,5.9-6.12,40.68,40.68,0,0,0,4.34-10A63.73,63.73,0,0,0,155.4,58.8a68.52,68.52,0,0,0-.18-13.59A52.1,52.1,0,0,0,153,34.78a29.72,29.72,0,0,0-3.69-7.65,13.87,13.87,0,0,0-4.71-4.42,7.81,7.81,0,0,0-5.29-.82"/><polyline class="cls-31" points="136.43 51.53 128.97 60.36 136.49 64.83 140.15 62.14 137.79 58.76 138.6 48.28 136.48 46.61"/></g></g><g class="cls-2"><g class="cls-32"><path class="cls-33" d="M148,50.9l2.82-3.55,13.74,7.31L155,66.81l-4-2.11-2.83,3.58-14-7.28L144,48.75,148,50.9m1.26-25.5q-.85,0-1.71,0t-1.72.06q-.87.06-1.73.17t-1.74.28a27.86,27.86,0,0,0-11.05,4.78,29.8,29.8,0,0,0-8.05,8.8A32.66,32.66,0,0,0,119,51a34.8,34.8,0,0,0,.37,13.08,35.17,35.17,0,0,0,4.14,10.52,33.61,33.61,0,0,0,6.88,8.22,31.38,31.38,0,0,0,8.82,5.4,28.77,28.77,0,0,0,10,2.08q.85,0,1.71,0t1.72-.11q.86-.08,1.72-.22t1.72-.33a27.92,27.92,0,0,0,10.79-5,30,30,0,0,0,7.72-8.78,32.74,32.74,0,0,0,4-11.33,34.79,34.79,0,0,0-.35-12.71,35.2,35.2,0,0,0-3.93-10.29,33.72,33.72,0,0,0-6.59-8.18,31.57,31.57,0,0,0-8.58-5.55,28.94,28.94,0,0,0-9.88-2.37"/><polyline class="cls-34" points="143.39 44.73 128.23 59.54 145.75 71.67 150.15 67.33 137.79 58.76 148.48 48.3 143.39 44.73"/><polyline class="cls-35" points="152.87 44 148.48 48.3 137.79 58.76 150.15 67.33 155.21 70.84 170.09 56.12 152.87 44"/></g></g></g></g><g id="lights_shadows" data-name="lights shadows"><polygon class="cls-36" points="319.7 303.06 136.59 322.28 136.59 0 319.7 13.73 319.7 303.06"/><polygon class="cls-37" points="53.47 23.36 136.59 0 136.59 322.28 53.47 301.71 53.47 23.36"/><polygon class="cls-38" points="319.71 303.06 315.06 303.54 315.06 13.39 319.71 13.73 319.71 303.06"/><polygon class="cls-39" points="53.47 301.71 58.12 302.86 58.12 22.2 53.47 23.37 53.47 301.71"/><polygon class="cls-40" points="319.7 17.7 136.59 3.21 136.59 0 319.7 13.73 319.7 17.7"/><polygon class="cls-41" points="53.47 27.33 136.53 3.21 136.53 0 53.47 23.36 53.47 27.33"/><polygon class="cls-42" points="136.73 312.78 53.47 292.97 53.47 301.71 136.73 322.28 136.73 312.78"/><rect class="cls-43" x="134.87" width="3.32" height="322.28"/><polygon class="cls-44" points="144.14 321.49 136.53 322.28 136.53 0 144.14 0.57 144.14 321.49"/><polygon class="cls-45" points="136.59 312.78 319.7 294.31 319.7 303.06 136.59 322.28 136.59 312.78"/><polygon class="cls-46" points="319.7 303.06 136.59 322.28 136.59 0 319.7 13.73 319.7 303.06"/><polygon class="cls-47" points="133.21 321.48 136.53 322.28 136.53 0 133.21 0.84 133.21 321.48"/><polygon class="cls-48" points="319.7 303.06 136.59 322.28 136.59 0 319.7 13.73 319.7 303.06"/></g></g></g></svg>