<svg xmlns="http://www.w3.org/2000/svg" xmlns:xlink="http://www.w3.org/1999/xlink" viewBox="0 0 293.41 326.44"><defs><style>.cls-1{fill:none;}.cls-2{isolation:isolate;}.cls-3{opacity:0.7;}.cls-4{fill:#fff;opacity:0;}.cls-5{fill:#fbfbfb;opacity:0.05;}.cls-6{fill:#f8f8f8;opacity:0.1;}.cls-7{fill:#f4f4f4;opacity:0.14;}.cls-8{fill:#f1f1f0;opacity:0.19;}.cls-9{fill:#ededed;opacity:0.24;}.cls-10{fill:#e9e9e9;opacity:0.29;}.cls-11{fill:#e6e6e5;opacity:0.33;}.cls-12{fill:#e2e2e2;opacity:0.38;}.cls-13{fill:#dedede;opacity:0.43;}.cls-14{fill:#dbdbda;opacity:0.48;}.cls-15{fill:#d7d7d7;opacity:0.52;}.cls-16{fill:#d4d4d3;opacity:0.57;}.cls-17{fill:#d0d0cf;opacity:0.62;}.cls-18{fill:#ccc;opacity:0.67;}.cls-19{fill:#c9c9c8;opacity:0.71;}.cls-20{fill:#c5c5c4;opacity:0.76;}.cls-21{fill:#c1c1c1;opacity:0.81;}.cls-22{fill:#bebebd;opacity:0.86;}.cls-23{fill:#babab9;opacity:0.9;}.cls-24{fill:#b7b7b6;opacity:0.95;}.cls-25{fill:#b3b3b2;}.cls-26{fill:#fcda00;}.cls-27{fill:#ffca02;}.cls-28{fill:#d10910;}.cls-29{clip-path:url(#clip-path);}.cls-30{fill:#e7eaec;}.cls-31{fill:#95ceb8;}.cls-32{clip-path:url(#clip-path-2);}.cls-33{fill:#e5e5e2;}.cls-34{fill:#4ab285;}.cls-35{fill:#003d60;}.cls-36,.cls-45{mix-blend-mode:soft-light;}.cls-36{fill:url(#Безымянный_градиент_2036);}.cls-37,.cls-38,.cls-44{mix-blend-mode:multiply;}.cls-37{fill:url(#Безымянный_градиент_761);}.cls-38{fill:url(#Безымянный_градиент_2038);}.cls-39,.cls-40,.cls-41,.cls-42,.cls-43,.cls-46{mix-blend-mode:overlay;}.cls-39{fill:url(#Безымянный_градиент_148);}.cls-40{fill:url(#Безымянный_градиент_148-2);}.cls-41{fill:url(#Безымянный_градиент_147);}.cls-42{fill:url(#Безымянный_градиент_503);}.cls-43{fill:url(#Безымянный_градиент_543);}.cls-44{fill:url(#Безымянный_градиент_771);}.cls-45{fill:url(#Безымянный_градиент_13);}.cls-46{fill:url(#Безымянный_градиент_549);}.cls-47{mix-blend-mode:hard-light;fill:url(#Безымянный_градиент_8);}</style><clipPath id="clip-path"><polygon class="cls-1" points="103.48 89.69 81.44 71.74 81.44 51.13 103.48 26.95 103.48 89.69"/></clipPath><clipPath id="clip-path-2"><polygon class="cls-1" points="151.33 32.22 151.33 90.65 103.48 104.09 103.48 18.78 151.33 32.22"/></clipPath><linearGradient id="Безымянный_градиент_2036" x1="245.23" y1="-23.95" x2="141.06" y2="342.32" gradientUnits="userSpaceOnUse"><stop offset="0" stop-color="#fff"/><stop offset="0.42" stop-color="#d4cccc"/><stop offset="1" stop-color="#958080"/></linearGradient><linearGradient id="Безымянный_градиент_761" x1="235.97" y1="8.63" x2="150.82" y2="308.02" gradientUnits="userSpaceOnUse"><stop offset="0" stop-color="#fff"/><stop offset="0.66" stop-color="#f3f3f3"/><stop offset="1" stop-color="#eaeaea"/></linearGradient><linearGradient id="Безымянный_градиент_2038" x1="121.03" y1="10.01" x2="41.91" y2="303.35" gradientUnits="userSpaceOnUse"><stop offset="0" stop-color="#f1f4f1"/><stop offset="0.33" stop-color="#e8e2e4"/><stop offset="1" stop-color="#d8c2cd"/></linearGradient><linearGradient id="Безымянный_градиент_148" x1="282.24" y1="158.47" x2="286.89" y2="158.47" gradientUnits="userSpaceOnUse"><stop offset="0" stop-color="gray"/><stop offset="0.42" stop-color="#828282"/><stop offset="0.6" stop-color="#898989"/><stop offset="0.74" stop-color="#969696"/><stop offset="0.85" stop-color="#a8a8a8"/><stop offset="0.95" stop-color="#bfbfbf"/><stop offset="1" stop-color="#cfcfcf"/></linearGradient><linearGradient id="Безымянный_градиент_148-2" x1="-5682.84" y1="160.94" x2="-5678.19" y2="160.94" gradientTransform="matrix(-1, 0, 0, 1, -5624.72, 0)" xlink:href="#Безымянный_градиент_148"/><linearGradient id="Безымянный_градиент_147" x1="195.48" y1="6.87" x2="195.2" y2="10.45" gradientUnits="userSpaceOnUse"><stop offset="0" stop-color="#cfcfcf"/><stop offset="0.05" stop-color="#bfbfbf"/><stop offset="0.15" stop-color="#a8a8a8"/><stop offset="0.26" stop-color="#969696"/><stop offset="0.4" stop-color="#898989"/><stop offset="0.58" stop-color="#828282"/><stop offset="1" stop-color="gray"/></linearGradient><linearGradient id="Безымянный_градиент_503" x1="78.12" y1="6.35" x2="78.95" y2="9.51" gradientUnits="userSpaceOnUse"><stop offset="0" stop-color="#ebebeb"/><stop offset="0.04" stop-color="#dbdbdb"/><stop offset="0.12" stop-color="#bfbfbf"/><stop offset="0.21" stop-color="#a8a8a8"/><stop offset="0.32" stop-color="#969696"/><stop offset="0.44" stop-color="#898989"/><stop offset="0.61" stop-color="#828282"/><stop offset="1" stop-color="gray"/></linearGradient><linearGradient id="Безымянный_градиент_543" x1="77.68" y1="315.49" x2="79.88" y2="306.95" gradientUnits="userSpaceOnUse"><stop offset="0" stop-color="#414141"/><stop offset="0.03" stop-color="#565656"/><stop offset="0.08" stop-color="#696969"/><stop offset="0.13" stop-color="#767676"/><stop offset="0.19" stop-color="#7e7e7e"/><stop offset="0.32" stop-color="gray"/></linearGradient><linearGradient id="Безымянный_градиент_771" x1="102.05" y1="161.14" x2="105.37" y2="161.14" gradientUnits="userSpaceOnUse"><stop offset="0" stop-color="#fff"/><stop offset="0.21" stop-color="#fefefd"/><stop offset="0.3" stop-color="#fcfcf6"/><stop offset="0.36" stop-color="#f9f7e9"/><stop offset="0.42" stop-color="#f4f1d8"/><stop offset="0.46" stop-color="#ede9c1"/><stop offset="0.48" stop-color="#eae5b5"/><stop offset="0.5" stop-color="#eeeac3"/><stop offset="0.55" stop-color="#f4f2d9"/><stop offset="0.61" stop-color="#f9f8ea"/><stop offset="0.67" stop-color="#fcfcf6"/><stop offset="0.76" stop-color="#fefefd"/><stop offset="1" stop-color="#fff"/></linearGradient><linearGradient id="Безымянный_градиент_13" x1="103.71" y1="161.14" x2="111.32" y2="161.14" gradientUnits="userSpaceOnUse"><stop offset="0" stop-color="gray"/><stop offset="0.01" stop-color="#858586"/><stop offset="0.04" stop-color="#97999e"/><stop offset="0.07" stop-color="#a2a5ac"/><stop offset="0.1" stop-color="#a6a9b1"/><stop offset="0.14" stop-color="#9fa1a8"/><stop offset="0.26" stop-color="#919296"/><stop offset="0.39" stop-color="#878889"/><stop offset="0.58" stop-color="#828282"/><stop offset="1" stop-color="gray"/></linearGradient><linearGradient id="Безымянный_градиент_549" x1="195.71" y1="312.06" x2="194.87" y2="303.76" gradientUnits="userSpaceOnUse"><stop offset="0" stop-color="#060606"/><stop offset="0.06" stop-color="#292929"/><stop offset="0.14" stop-color="#4e4e4e"/><stop offset="0.21" stop-color="#6a6a6a"/><stop offset="0.27" stop-color="#7a7a7a"/><stop offset="0.32" stop-color="gray"/></linearGradient><linearGradient id="Безымянный_градиент_8" x1="-5625.23" y1="161.14" x2="-5621.91" y2="161.14" gradientTransform="matrix(-1, 0, 0, 1, -5521.52, 0)" gradientUnits="userSpaceOnUse"><stop offset="0" stop-color="gray"/><stop offset="0.02" stop-color="#999992"/><stop offset="0.05" stop-color="#afb1a3"/><stop offset="0.08" stop-color="#bdbfad"/><stop offset="0.1" stop-color="#c2c4b0"/><stop offset="0.12" stop-color="#bdbfac"/><stop offset="0.21" stop-color="#a7a89c"/><stop offset="0.31" stop-color="#95968f"/><stop offset="0.44" stop-color="#898987"/><stop offset="0.61" stop-color="#828281"/><stop offset="1" stop-color="gray"/></linearGradient></defs><title>Documents</title><g class="cls-2"><g id="Layer_2" data-name="Layer 2"><g id="box_color" data-name="box color"><g class="cls-3"><path class="cls-4" d="M8.27,314.71C39.94,321.58,91.2,325,91.2,325a52.65,52.65,0,0,0,18.4,1.15l180.31-20.6c4.58-.15,4.43-5,.92-5.66l-202-29a78.62,78.62,0,0,0-24.89-.44S36.5,293.17,12.38,297C.88,298.83-6.55,311.49,8.27,314.71Z"/><path class="cls-5" d="M10.52,314.49c30.16,6.55,81.22,10.32,81.22,10.32a50.48,50.48,0,0,0,17.64,1.1l180.2-20.51c4.39-.15,4.24-4.84.87-5.44L91.25,271.3a75.22,75.22,0,0,0-23.8-.42s-30,23.06-53,26.71C3.46,299.33-3.62,311.42,10.52,314.49Z"/><path class="cls-6" d="M12.77,314.27c28.65,6.22,79.5,10.4,79.5,10.4a48.32,48.32,0,0,0,16.88,1.05l180.09-20.42c4.2-.14,4.06-4.65.83-5.22L93.71,271.77a71.82,71.82,0,0,0-22.72-.4s-32.69,23.33-54.5,26.8C6,299.84-.68,311.35,12.77,314.27Z"/><path class="cls-7" d="M15,314.06c27.15,5.89,77.78,10.47,77.78,10.47a46.15,46.15,0,0,0,16.12,1l180-20.32c4-.14,3.88-4.45.79-5l-193.51-28a68.42,68.42,0,0,0-21.63-.38s-35.33,23.61-56,26.89C8.62,300.34,2.25,311.28,15,314.06Z"/><path class="cls-8" d="M17.26,313.84c25.64,5.56,76.07,10.55,76.07,10.55a44,44,0,0,0,15.36,1l179.87-20.23c3.82-.14,3.7-4.26.75-4.78L98.64,272.72a65,65,0,0,0-20.54-.36s-38,23.89-57.49,27C11.21,300.84,5.18,311.21,17.26,313.84Z"/><path class="cls-9" d="M19.51,313.62c24.13,5.24,74.35,10.62,74.35,10.62a41.81,41.81,0,0,0,14.61.92L288.23,305c3.63-.13,3.52-4.06.7-4.56L101.1,273.2a61.61,61.61,0,0,0-19.46-.34S41,297,22.66,299.94C13.79,301.35,8.12,311.15,19.51,313.62Z"/><path class="cls-10" d="M21.76,313.41c22.62,4.91,72.63,10.7,72.63,10.7a39.65,39.65,0,0,0,13.85.87l179.65-20c3.44-.13,3.34-3.87.66-4.34l-185-26.92a58.21,58.21,0,0,0-18.37-.32s-43.26,24.44-60.48,27.18C16.37,301.85,11.05,311.08,21.76,313.41Z"/><path class="cls-11" d="M24,313.19C45.12,317.77,94.93,324,94.93,324a37.48,37.48,0,0,0,13.09.82l179.53-20c3.26-.12,3.16-3.67.62-4.12L106,274.14a54.81,54.81,0,0,0-17.28-.3s-45.9,24.72-62,27.27C19,302.36,14,311,24,313.19Z"/><path class="cls-12" d="M26.26,313c19.6,4.26,69.2,10.85,69.2,10.85a35.31,35.31,0,0,0,12.33.78l179.42-19.87c3.07-.12,3-3.48.58-3.9l-179.3-26.22a51.41,51.41,0,0,0-16.2-.28s-48.55,25-63.47,27.37C21.54,302.86,16.92,310.94,26.26,313Z"/><path class="cls-13" d="M28.51,312.75C46.61,316.68,96,323.68,96,323.68a33.15,33.15,0,0,0,11.57.73l179.31-19.77c2.88-.11,2.8-3.28.53-3.68L111,275.09a48,48,0,0,0-15.11-.26s-51.19,25.27-65,27.46C24.12,303.37,19.86,310.87,28.51,312.75Z"/><path class="cls-14" d="M30.76,312.54c16.59,3.6,65.76,11,65.76,11a31,31,0,0,0,10.82.68l179.2-19.68c2.69-.11,2.62-3.09.49-3.46L113.42,275.57a44.6,44.6,0,0,0-14-.24s-53.83,25.55-66.46,27.55C26.7,303.87,22.79,310.8,30.76,312.54Z"/><path class="cls-15" d="M33,312.32c15.08,3.27,64,11.07,64,11.07a28.81,28.81,0,0,0,10.06.64L286.2,304.44c2.5-.11,2.44-2.89.45-3.24L115.88,276a41.2,41.2,0,0,0-12.94-.22s-56.47,25.83-68,27.65C29.28,304.37,25.72,310.73,33,312.32Z"/><path class="cls-16" d="M35.26,312.1c13.57,2.95,62.33,11.15,62.33,11.15a26.64,26.64,0,0,0,9.3.59l179-19.5c2.31-.1,2.26-2.7.41-3L118.35,276.51a37.8,37.8,0,0,0-11.85-.2S47.38,302.42,37,304.06C31.86,304.88,28.66,310.66,35.26,312.1Z"/><path class="cls-17" d="M37.51,311.89c12.06,2.62,60.61,11.23,60.61,11.23a24.48,24.48,0,0,0,8.54.55l178.87-19.41c2.12-.1,2.08-2.5.36-2.8L120.81,277a34.4,34.4,0,0,0-10.76-.18S48.29,303.19,39.1,304.65C34.45,305.38,31.59,310.59,37.51,311.89Z"/><path class="cls-18" d="M39.76,311.67C50.31,314,98.65,323,98.65,323a22.31,22.31,0,0,0,7.79.5l178.75-19.31c1.93-.09,1.9-2.31.32-2.58L123.27,277.46a31,31,0,0,0-9.68-.16S49.19,304,41.16,305.24C37,305.89,34.53,310.53,39.76,311.67Z"/><path class="cls-19" d="M42,311.45c9,2,57.18,11.38,57.18,11.38a20.14,20.14,0,0,0,7,.45l178.64-19.22a1.19,1.19,0,1,0,.28-2.36l-159.4-23.76a27.6,27.6,0,0,0-8.59-.14s-67,26.93-73.94,28C39.61,306.39,37.46,310.46,42,311.45Z"/><path class="cls-20" d="M44.25,311.24c7.54,1.64,55.46,11.45,55.46,11.45a18,18,0,0,0,6.27.41L284.52,304a1.08,1.08,0,0,0,.24-2.14L128.2,278.41a24.2,24.2,0,0,0-7.5-.12S51,305.5,45.27,306.42C42.19,306.9,40.4,310.39,44.25,311.24Z"/><path class="cls-21" d="M46.5,311c6,1.31,53.75,11.53,53.75,11.53a15.81,15.81,0,0,0,5.51.36l178.42-19a1,1,0,0,0,.19-1.92L130.66,278.89a20.8,20.8,0,0,0-6.42-.1S51.91,306.27,47.32,307C44.77,307.4,43.33,310.32,46.5,311Z"/><path class="cls-22" d="M48.75,310.8c4.52,1,52,11.6,52,11.6a13.64,13.64,0,0,0,4.75.31l178.31-18.95a.85.85,0,0,0,.15-1.7L133.13,279.36a17.4,17.4,0,0,0-5.33-.08s-75,27.77-78.42,28.31C47.36,307.91,46.26,310.26,48.75,310.8Z"/><path class="cls-23" d="M51,310.58c3,.67,50.31,11.68,50.31,11.68a11.48,11.48,0,0,0,4,.27l178.2-18.85a.74.74,0,0,0,.11-1.48l-148-22.36a14,14,0,0,0-4.24-.06s-77.62,28-79.91,28.4C49.94,308.41,49.2,310.19,51,310.58Z"/><path class="cls-24" d="M53.25,310.37c1.51.34,48.6,11.75,48.6,11.75a9.31,9.31,0,0,0,3.24.22l178.09-18.76a.63.63,0,0,0,.07-1.26l-145.18-22a10.62,10.62,0,0,0-3.16,0s-80.26,28.32-81.41,28.5C52.52,308.92,52.13,310.12,53.25,310.37Z"/><path class="cls-25" d="M55.5,310.15,102.38,322a7.14,7.14,0,0,0,2.48.17l178-18.67a.52.52,0,0,0,0-1L140.52,280.78a7.25,7.25,0,0,0-2.07,0l-82.9,28.59A.4.4,0,0,0,55.5,310.15Z"/></g><polygon class="cls-26" points="286.89 303.06 103.78 322.28 103.78 0 286.89 13.73 286.89 303.06"/><polygon class="cls-27" points="53.47 12.27 103.78 0 103.78 322.28 53.47 309.64 53.47 12.27"/><path class="cls-28" d="M149.51,192.89l.18-.14.16-.16.13-.18a1.79,1.79,0,0,0,.11-.2l.09-.22.07-.22q0-.11.05-.23t0-.23,0-.24,0-.26,0-.29,0-.31v-2.25l1.65,0v4.92l-2.53.05m4.84-7.29-6.1.1v4.15q0,.15,0,.28t0,.24,0,.21,0,.17q0,.17,0,.32t-.05.3a2.76,2.76,0,0,1-.08.28,2.27,2.27,0,0,1-.1.26l-.12.23-.14.2-.16.17-.17.14-.18.12-.19.09-.21.06-.22,0v4.18l2,0v-1.9l4.77-.1V197l2,0v-4.17l-1,0V185.6"/><path class="cls-28" d="M159.17,193.52a1.27,1.27,0,0,1-.3,0,1,1,0,0,1-.26-.09,1,1,0,0,1-.22-.16,1.17,1.17,0,0,1-.18-.22,1.66,1.66,0,0,1-.14-.27,2.05,2.05,0,0,1-.1-.31,2.67,2.67,0,0,1-.06-.34,3.56,3.56,0,0,1,0-.38,3.38,3.38,0,0,1,0-.37A2.64,2.64,0,0,1,158,191a2.18,2.18,0,0,1,.1-.31,2,2,0,0,1,.14-.28,1.18,1.18,0,0,1,.18-.22,1,1,0,0,1,.22-.16,1.07,1.07,0,0,1,.26-.1,1.38,1.38,0,0,1,.3,0,1.36,1.36,0,0,1,.3,0,1,1,0,0,1,.26.09.91.91,0,0,1,.22.15,1,1,0,0,1,.17.22,1.88,1.88,0,0,1,.14.27,2.12,2.12,0,0,1,.1.3,2.59,2.59,0,0,1,.06.34,3.35,3.35,0,0,1,0,.37,3.56,3.56,0,0,1,0,.38,2.73,2.73,0,0,1-.06.35,2.13,2.13,0,0,1-.1.31,1.75,1.75,0,0,1-.14.27,1.16,1.16,0,0,1-.17.23,1,1,0,0,1-.22.16,1,1,0,0,1-.26.1,1.29,1.29,0,0,1-.3,0m0-5.32a4.47,4.47,0,0,0-.75.07,3.48,3.48,0,0,0-.66.19,3,3,0,0,0-1.08.75,3.28,3.28,0,0,0-.39.53,3.37,3.37,0,0,0-.28.6,3.83,3.83,0,0,0-.17.68,4.71,4.71,0,0,0-.06.75,4.84,4.84,0,0,0,0,.51,4.15,4.15,0,0,0,.08.47,3.8,3.8,0,0,0,.13.44,3.73,3.73,0,0,0,.18.42,3.07,3.07,0,0,0,.22.37,2.75,2.75,0,0,0,.27.32,2.69,2.69,0,0,0,.32.28,2.88,2.88,0,0,0,.37.23,3,3,0,0,0,.4.18,3.28,3.28,0,0,0,.44.13,3.81,3.81,0,0,0,.47.07l.51,0,.51,0a3.84,3.84,0,0,0,.47-.09,3.45,3.45,0,0,0,.44-.15,3.33,3.33,0,0,0,.41-.2,3.19,3.19,0,0,0,.36-.25,3,3,0,0,0,.31-.29,3,3,0,0,0,.27-.33,3.1,3.1,0,0,0,.22-.38,3.66,3.66,0,0,0,.17-.42,3.82,3.82,0,0,0,.12-.45,4.32,4.32,0,0,0,.07-.48q0-.25,0-.51a4.67,4.67,0,0,0,0-.5,4.06,4.06,0,0,0-.08-.47,3.68,3.68,0,0,0-.13-.43,3.5,3.5,0,0,0-.18-.41,3.19,3.19,0,0,0-.22-.37,2.83,2.83,0,0,0-.27-.33,2.68,2.68,0,0,0-.31-.28,2.74,2.74,0,0,0-.36-.24,3,3,0,0,0-.4-.18,3.22,3.22,0,0,0-.43-.13,3.72,3.72,0,0,0-.47-.07l-.51,0"/><polyline class="cls-28" points="169.73 188.26 167.29 188.3 165.6 190.99 165.6 188.33 163.55 188.37 163.55 194.87 165.6 194.83 165.6 191.95 167.41 194.79 169.99 194.74 167.47 191.35 169.75 188.29 169.73 188.26"/><polyline class="cls-28" points="177.01 188.13 174.93 188.16 173.61 191.66 172.08 188.22 169.73 188.26 169.75 188.29 172.49 193.75 170.79 197.54 172.97 197.49 177.01 188.13"/><polyline class="cls-28" points="184.57 187.99 182.41 188.03 181.26 191.89 180.1 188.07 177.93 188.11 177.04 194.58 178.95 194.54 179.43 190.98 180.54 194.51 181.99 194.48 183.1 190.91 183.57 194.44 185.47 194.4 184.57 187.99"/><path class="cls-28" d="M187.88,190.4a2.11,2.11,0,0,1,0-.25,1.81,1.81,0,0,1,.06-.24,1.69,1.69,0,0,1,.1-.23,1.75,1.75,0,0,1,.13-.21,1,1,0,0,1,.15-.17.89.89,0,0,1,.18-.13l.21-.08.24,0,.25,0a.89.89,0,0,1,.4.2,1.11,1.11,0,0,1,.16.17,1.55,1.55,0,0,1,.12.2,1.6,1.6,0,0,1,.09.22,1.78,1.78,0,0,1,.06.23,2.1,2.1,0,0,1,0,.25l-2.23,0m1.11-2.73-.42,0-.4.09-.38.13-.35.18a2.94,2.94,0,0,0-.33.23,2.84,2.84,0,0,0-.29.28,2.9,2.9,0,0,0-.25.32,3.12,3.12,0,0,0-.22.37,3.72,3.72,0,0,0-.17.42,4,4,0,0,0-.12.45,4.47,4.47,0,0,0-.08.48,5.12,5.12,0,0,0,0,.52q0,.19,0,.37t0,.36q0,.18.07.34t.09.32q.06.16.12.31t.14.28l.17.26.19.24.21.21.23.18.25.16.27.14.29.1.31.07.32,0H189a4.47,4.47,0,0,0,.6-.05,3.29,3.29,0,0,0,.53-.13,2.54,2.54,0,0,0,.46-.2,2.16,2.16,0,0,0,.39-.28,3.5,3.5,0,0,0,.33-.34,3.32,3.32,0,0,0,.27-.38,3.36,3.36,0,0,0,.22-.42,3.62,3.62,0,0,0,.17-.46l-1.91,0a1.16,1.16,0,0,1,0,.17,1,1,0,0,1-.07.15l-.1.14-.12.12-.14.1-.16.07-.19,0-.21,0h-.19l-.18,0-.16-.07-.14-.1-.13-.11-.11-.13-.09-.15-.07-.17-.05-.18c0-.06,0-.12,0-.18s0-.12,0-.19,0-.13,0-.19l4.18-.08q0-.26,0-.51t-.05-.49q0-.24-.09-.48t-.13-.46a3.3,3.3,0,0,0-.16-.42,3,3,0,0,0-.21-.38,2.82,2.82,0,0,0-.58-.64,2.23,2.23,0,0,0-.36-.23,2.45,2.45,0,0,0-.42-.17,2.89,2.89,0,0,0-.47-.1,3.61,3.61,0,0,0-.53,0"/><polyline class="cls-28" points="198.77 187.73 196.79 187.77 196.79 190.02 194.97 190.06 194.97 187.8 193 187.84 193 194.24 194.97 194.2 194.97 191.65 196.79 191.62 196.79 194.16 198.77 194.12 198.77 187.73"/><polyline class="cls-28" points="204.28 187.63 199.48 187.72 199.48 189.38 200.9 189.35 200.9 194.07 202.86 194.03 202.86 189.32 204.28 189.29 204.28 187.63"/><path class="cls-28" d="M207.92,192.51a1.19,1.19,0,0,1-.28,0,1,1,0,0,1-.25-.09,1,1,0,0,1-.21-.15A1.15,1.15,0,0,1,207,192a1.86,1.86,0,0,1-.13-.26,2.22,2.22,0,0,1-.09-.3,2.7,2.7,0,0,1-.06-.34,3.3,3.3,0,0,1,0-.37,3.14,3.14,0,0,1,0-.36,2.67,2.67,0,0,1,.06-.33,2.38,2.38,0,0,1,.09-.3,2.22,2.22,0,0,1,.13-.27,1.15,1.15,0,0,1,.17-.22,1,1,0,0,1,.21-.16,1,1,0,0,1,.25-.09,1.28,1.28,0,0,1,.28,0,1.27,1.27,0,0,1,.28,0,1,1,0,0,1,.25.09.91.91,0,0,1,.21.15,1.08,1.08,0,0,1,.17.21,2,2,0,0,1,.13.27,2.23,2.23,0,0,1,.09.3,2.69,2.69,0,0,1,.05.33,3.4,3.4,0,0,1,0,.36,3.56,3.56,0,0,1,0,.37,2.72,2.72,0,0,1-.06.34,2.12,2.12,0,0,1-.09.3,1.73,1.73,0,0,1-.13.27,1.13,1.13,0,0,1-.17.22,1,1,0,0,1-.21.16,1,1,0,0,1-.24.1,1.2,1.2,0,0,1-.28,0m0-5.19a4.16,4.16,0,0,0-.71.07,3.26,3.26,0,0,0-.63.19,2.86,2.86,0,0,0-.55.3,2.92,2.92,0,0,0-.48.42,3.12,3.12,0,0,0-.37.52,3.28,3.28,0,0,0-.27.59,3.84,3.84,0,0,0-.16.66,4.85,4.85,0,0,0-.05.73q0,.26,0,.5a4.24,4.24,0,0,0,.07.46,3.7,3.7,0,0,0,.12.43,3.48,3.48,0,0,0,.17.41,3,3,0,0,0,.21.36,2.67,2.67,0,0,0,.26.32,2.59,2.59,0,0,0,.3.27,2.74,2.74,0,0,0,.35.23,2.78,2.78,0,0,0,.38.18,3.07,3.07,0,0,0,.42.13l.45.07.48,0,.48,0,.45-.09a3.18,3.18,0,0,0,.42-.14,2.92,2.92,0,0,0,.38-.2,3,3,0,0,0,.34-.24,2.87,2.87,0,0,0,.56-.61,3,3,0,0,0,.21-.37,3.64,3.64,0,0,0,.17-.41,3.81,3.81,0,0,0,.12-.44,4.31,4.31,0,0,0,.07-.46q0-.24,0-.5t0-.49a4.14,4.14,0,0,0-.07-.45,3.58,3.58,0,0,0-.12-.42,3.27,3.27,0,0,0-.17-.4,3.41,3.41,0,0,0-.22-.36,3,3,0,0,0-.26-.32,2.69,2.69,0,0,0-.3-.28,2.63,2.63,0,0,0-.34-.23,3,3,0,0,0-.39-.18,3.11,3.11,0,0,0-.42-.13l-.45-.07-.48,0"/><path class="cls-28" d="M215,192.36a1.17,1.17,0,0,1-.28,0,.93.93,0,0,1-.45-.24,1.14,1.14,0,0,1-.17-.21,1.86,1.86,0,0,1-.13-.26,2.22,2.22,0,0,1-.09-.3,2.7,2.7,0,0,1-.06-.33,3.3,3.3,0,0,1,0-.37,3.14,3.14,0,0,1,0-.36,2.67,2.67,0,0,1,.06-.33,2.37,2.37,0,0,1,.09-.3,2.22,2.22,0,0,1,.13-.27,1.15,1.15,0,0,1,.17-.22,1,1,0,0,1,.21-.16,1,1,0,0,1,.24-.09,1.27,1.27,0,0,1,.28,0,1.25,1.25,0,0,1,.28,0,1,1,0,0,1,.24.09.9.9,0,0,1,.21.15,1.08,1.08,0,0,1,.17.21,2,2,0,0,1,.13.27,2.23,2.23,0,0,1,.09.3,2.69,2.69,0,0,1,.05.33,3.4,3.4,0,0,1,0,.36,3.56,3.56,0,0,1,0,.37,2.72,2.72,0,0,1-.06.34,2.12,2.12,0,0,1-.09.3,1.72,1.72,0,0,1-.13.27,1.12,1.12,0,0,1-.16.22,1,1,0,0,1-.2.16,1,1,0,0,1-.24.1,1.19,1.19,0,0,1-.28,0m0-5.17a4.11,4.11,0,0,0-.71.07,3.22,3.22,0,0,0-.63.19,2.84,2.84,0,0,0-.55.3,2.9,2.9,0,0,0-.47.42,3.11,3.11,0,0,0-.37.51,3.28,3.28,0,0,0-.26.59,3.84,3.84,0,0,0-.16.66,4.85,4.85,0,0,0-.05.73q0,.26,0,.5a4.24,4.24,0,0,0,.07.46,3.69,3.69,0,0,0,.12.43,3.47,3.47,0,0,0,.17.4,3,3,0,0,0,.21.36,2.66,2.66,0,0,0,.25.32,2.57,2.57,0,0,0,.3.27,2.72,2.72,0,0,0,.35.23,2.75,2.75,0,0,0,.38.18,3,3,0,0,0,.41.12l.45.07.48,0,.48,0,.45-.09a3.15,3.15,0,0,0,.41-.14,2.9,2.9,0,0,0,.38-.19,3,3,0,0,0,.34-.24,2.85,2.85,0,0,0,.55-.61,3,3,0,0,0,.21-.37,3.63,3.63,0,0,0,.16-.41,3.81,3.81,0,0,0,.12-.43,4.31,4.31,0,0,0,.07-.46q0-.24,0-.49t0-.48a4.14,4.14,0,0,0-.07-.45,3.58,3.58,0,0,0-.12-.42,3.26,3.26,0,0,0-.16-.39,3.4,3.4,0,0,0-.22-.36,2.93,2.93,0,0,0-.25-.32,2.68,2.68,0,0,0-.3-.28,2.61,2.61,0,0,0-.34-.23,3,3,0,0,0-.38-.18,3.08,3.08,0,0,0-.41-.13l-.44-.07-.48,0"/><path class="cls-28" d="M222.06,192.22a1,1,0,0,1-.25,0,.9.9,0,0,1-.22-.08,1,1,0,0,1-.19-.13,1.16,1.16,0,0,1-.17-.19,1.49,1.49,0,0,1-.13-.23,1.68,1.68,0,0,1-.09-.26A2.09,2.09,0,0,1,221,191a2.78,2.78,0,0,1,0-.32q0-.11,0-.21t0-.2,0-.2l.06-.19.07-.17.09-.15.1-.13.12-.11.13-.1.15-.07.16,0,.17,0,.23,0,.2.06.17.1a.82.82,0,0,1,.14.14l.11.16.09.16a1.34,1.34,0,0,1,.07.16,1.11,1.11,0,0,1,0,.16l0,.16,0,.15s0,.1,0,.14,0,.09,0,.12a2.82,2.82,0,0,1,0,.33,2.22,2.22,0,0,1-.05.3,1.85,1.85,0,0,1-.09.27,1.66,1.66,0,0,1-.13.24,1.13,1.13,0,0,1-.16.19,1,1,0,0,1-.19.14.93.93,0,0,1-.22.09,1.08,1.08,0,0,1-.25,0M225,184l-1.54,0-.18.31-.09.05-.1,0-.12,0-.13,0-.14,0-.15,0-.16,0-.17,0-.4.12-.39.14L221,185l-.35.19a2.21,2.21,0,0,0-.33.25,3,3,0,0,0-.31.34,4.21,4.21,0,0,0-.29.42q-.14.23-.28.51a4.44,4.44,0,0,0-.24.62,6.17,6.17,0,0,0-.17.72q-.07.39-.1.83t0,.94a9.57,9.57,0,0,0,.07,1.17,5.17,5.17,0,0,0,.2.94,2.78,2.78,0,0,0,.33.7,1.74,1.74,0,0,0,.46.48,4.44,4.44,0,0,0,.52.31,3.69,3.69,0,0,0,.53.22,3.27,3.27,0,0,0,.53.13,3.15,3.15,0,0,0,.54,0l.41,0,.37-.06.34-.1.31-.14.28-.17.25-.19.22-.22a2.07,2.07,0,0,0,.19-.24l.17-.25.14-.26q.07-.14.12-.28t.09-.29.07-.3,0-.3q0-.15,0-.3t0-.31a4.19,4.19,0,0,0,0-.43,3.76,3.76,0,0,0-.07-.41,3.43,3.43,0,0,0-.11-.39,3.2,3.2,0,0,0-.15-.36,3,3,0,0,0-.19-.32,2.66,2.66,0,0,0-.22-.28,2.46,2.46,0,0,0-.25-.24,2.36,2.36,0,0,0-.28-.2l-.31-.16-.32-.11-.33-.07-.35,0h-.2l-.2,0-.19,0-.19.06-.18.07-.17.09-.16.11-.16.12-.15.14-.14.15-.12.17-.11.19h0q0-.2.06-.37t.08-.33a2.76,2.76,0,0,1,.1-.29,2.14,2.14,0,0,1,.13-.25l.15-.21.18-.18.2-.16.23-.13.26-.12.31-.12.36-.12.41-.12.27-.08.25-.09.22-.1.21-.1.18-.12.18-.15.17-.18a2.09,2.09,0,0,0,.15-.22,1.54,1.54,0,0,0,.13-.25,2,2,0,0,0,.1-.29,2.58,2.58,0,0,0,.06-.32,3.37,3.37,0,0,0,0-.36"/><path class="cls-28" d="M229,192.07a1.18,1.18,0,0,1-.28,0,.89.89,0,0,1-.44-.24,1.17,1.17,0,0,1-.17-.21,1.63,1.63,0,0,1-.13-.26,2,2,0,0,1-.09-.3,2.67,2.67,0,0,1-.05-.33,3.56,3.56,0,0,1,0-.37,3.38,3.38,0,0,1,0-.36,2.64,2.64,0,0,1,.05-.33,2.17,2.17,0,0,1,.09-.3,1.92,1.92,0,0,1,.13-.27,1.05,1.05,0,0,1,.16-.22.89.89,0,0,1,.2-.15,1,1,0,0,1,.24-.09,1.29,1.29,0,0,1,.28,0,1.22,1.22,0,0,1,.28,0,.92.92,0,0,1,.24.08.85.85,0,0,1,.2.15,1,1,0,0,1,.16.21,1.84,1.84,0,0,1,.13.27,2.1,2.1,0,0,1,.09.29,2.58,2.58,0,0,1,.05.32,3.35,3.35,0,0,1,0,.35,3.56,3.56,0,0,1,0,.37,2.72,2.72,0,0,1-.05.33,2.11,2.11,0,0,1-.09.3,1.72,1.72,0,0,1-.13.26,1.24,1.24,0,0,1-.17.22,1,1,0,0,1-.2.16.94.94,0,0,1-.24.1,1.14,1.14,0,0,1-.27,0m0-5.13a4.06,4.06,0,0,0-.7.07,3.18,3.18,0,0,0-.62.19,2.73,2.73,0,0,0-1,.72,3.16,3.16,0,0,0-.37.51,3.3,3.3,0,0,0-.26.58,3.8,3.8,0,0,0-.16.65,4.7,4.7,0,0,0-.05.72,4.89,4.89,0,0,0,0,.49,4.28,4.28,0,0,0,.07.46,4,4,0,0,0,.12.43,3.92,3.92,0,0,0,.16.4,2.86,2.86,0,0,0,.21.36,2.66,2.66,0,0,0,.55.58,2.81,2.81,0,0,0,.34.23,2.9,2.9,0,0,0,.38.18,3,3,0,0,0,.41.12l.44.07.48,0,.47,0,.44-.09a3.14,3.14,0,0,0,.41-.14,3.06,3.06,0,0,0,.38-.19A2.86,2.86,0,0,0,231,193a2.75,2.75,0,0,0,.29-.28,2.85,2.85,0,0,0,.25-.32,3.15,3.15,0,0,0,.21-.36,3.85,3.85,0,0,0,.16-.41,3.89,3.89,0,0,0,.12-.43,4.21,4.21,0,0,0,.07-.46,4.85,4.85,0,0,0,0-.49,4.67,4.67,0,0,0,0-.48,4,4,0,0,0-.07-.45,3.65,3.65,0,0,0-.12-.42,3.45,3.45,0,0,0-.16-.39,3,3,0,0,0-.21-.36,2.76,2.76,0,0,0-.25-.32,2.65,2.65,0,0,0-.63-.5,2.73,2.73,0,0,0-.37-.18,2.93,2.93,0,0,0-.4-.13l-.44-.07-.47,0"/><path class="cls-28" d="M236,191.69a1.22,1.22,0,0,1-.27,0,.92.92,0,0,1-.23-.08.86.86,0,0,1-.2-.14,1,1,0,0,1-.16-.19A1.71,1.71,0,0,1,235,191a1.81,1.81,0,0,1-.08-.25,2.08,2.08,0,0,1,0-.27,2.53,2.53,0,0,1,0-.29,2.41,2.41,0,0,1,0-.28,2,2,0,0,1,0-.27,1.78,1.78,0,0,1,.08-.25,1.62,1.62,0,0,1,.12-.23,1.07,1.07,0,0,1,.16-.21.89.89,0,0,1,.2-.15.94.94,0,0,1,.23-.09,1.22,1.22,0,0,1,.27,0l.26,0a.92.92,0,0,1,.42.2,1.16,1.16,0,0,1,.17.18,1.55,1.55,0,0,1,.13.23,1.66,1.66,0,0,1,.09.25,2,2,0,0,1,.05.28,2.47,2.47,0,0,1,0,.3,2.66,2.66,0,0,1,0,.31,2.06,2.06,0,0,1-.05.29,1.66,1.66,0,0,1-.09.26,1.42,1.42,0,0,1-.13.23,1.23,1.23,0,0,1-.17.19,1,1,0,0,1-.42.22l-.26,0m.67-4.89-.27,0-.25.05-.23.08-.21.11-.19.13-.19.17-.19.21-.19.26v-.76l-1.83,0v9l1.9,0v-3.37a2.63,2.63,0,0,0,.35.37,2,2,0,0,0,.39.26,1.81,1.81,0,0,0,.43.16,2,2,0,0,0,.48,0,2.31,2.31,0,0,0,.37,0,2,2,0,0,0,.34-.1,1.91,1.91,0,0,0,.32-.16A2.1,2.1,0,0,0,238,193a2.85,2.85,0,0,0,.26-.27,2.9,2.9,0,0,0,.22-.3,3,3,0,0,0,.19-.34,3.32,3.32,0,0,0,.15-.38q.07-.19.12-.39t.09-.4q0-.21.05-.42t0-.43q0-.17,0-.33t0-.33q0-.16-.05-.32t-.07-.31q0-.15-.09-.3t-.11-.28l-.12-.26-.14-.23-.17-.22-.19-.19-.2-.17-.22-.14-.24-.11-.25-.08-.27,0h-.28"/><path class="cls-28" d="M242.83,191.79a1.15,1.15,0,0,1-.28,0,.88.88,0,0,1-.44-.24,1.15,1.15,0,0,1-.16-.21,1.62,1.62,0,0,1-.13-.26,2,2,0,0,1-.09-.29,2.66,2.66,0,0,1-.05-.33,3.56,3.56,0,0,1,0-.36,3.38,3.38,0,0,1,0-.35,2.63,2.63,0,0,1,.05-.32,2.16,2.16,0,0,1,.09-.3,1.91,1.91,0,0,1,.13-.27,1,1,0,0,1,.16-.21.88.88,0,0,1,.2-.15,1,1,0,0,1,.24-.09,1.27,1.27,0,0,1,.28,0,1.2,1.2,0,0,1,.27,0,.9.9,0,0,1,.24.08.84.84,0,0,1,.2.15,1,1,0,0,1,.16.21,1.83,1.83,0,0,1,.13.26,2.1,2.1,0,0,1,.09.29,2.58,2.58,0,0,1,.05.32,3.35,3.35,0,0,1,0,.35,3.56,3.56,0,0,1,0,.36,2.71,2.71,0,0,1-.05.33,2.11,2.11,0,0,1-.09.3,1.71,1.71,0,0,1-.13.26,1.23,1.23,0,0,1-.16.22,1,1,0,0,1-.2.16.92.92,0,0,1-.23.1,1.12,1.12,0,0,1-.27,0m0-5.1a4,4,0,0,0-.69.07,3.12,3.12,0,0,0-.61.18,2.69,2.69,0,0,0-1,.71,3.14,3.14,0,0,0-.36.51,3.29,3.29,0,0,0-.26.58,3.8,3.8,0,0,0-.16.65,4.7,4.7,0,0,0-.05.72q0,.25,0,.49a4.28,4.28,0,0,0,.07.45,4,4,0,0,0,.11.42,3.91,3.91,0,0,0,.16.4,2.84,2.84,0,0,0,.21.35,2.63,2.63,0,0,0,.54.58,2.77,2.77,0,0,0,.33.22,2.85,2.85,0,0,0,.37.18,3,3,0,0,0,.4.12l.44.07.47,0,.47,0,.43-.09a3.08,3.08,0,0,0,.4-.14,3,3,0,0,0,.37-.19,2.82,2.82,0,0,0,.33-.24,2.72,2.72,0,0,0,.29-.28,2.83,2.83,0,0,0,.24-.32,3.14,3.14,0,0,0,.2-.36,3.84,3.84,0,0,0,.16-.4,3.89,3.89,0,0,0,.12-.43,4.21,4.21,0,0,0,.07-.46,4.85,4.85,0,0,0,0-.49,4.67,4.67,0,0,0,0-.48,4,4,0,0,0-.07-.45,3.64,3.64,0,0,0-.12-.42,3.44,3.44,0,0,0-.16-.39,3,3,0,0,0-.21-.36,2.74,2.74,0,0,0-.25-.32,2.61,2.61,0,0,0-.62-.5,2.69,2.69,0,0,0-.37-.18,2.87,2.87,0,0,0-.4-.12l-.43-.07-.46,0"/><polyline class="cls-28" points="250.91 186.78 246.33 186.86 246.33 188.49 247.68 188.46 247.68 193.07 249.55 193.03 249.55 188.43 250.91 188.4 250.91 186.78"/><path class="cls-28" d="M257.89,191.22l-.21,0-.18-.06a.67.67,0,0,1-.16-.11.75.75,0,0,1-.13-.15,1.37,1.37,0,0,1-.11-.18,1.31,1.31,0,0,1-.08-.19,1.38,1.38,0,0,1,0-.21,1.59,1.59,0,0,1,0-.22q0-.08,0-.15a1.34,1.34,0,0,1,0-.14,1.16,1.16,0,0,1,0-.14l.05-.13.07-.13.08-.11.09-.1.1-.08.11-.07.12-.05.12,0h.3l.17.05.16.09.15.12a.92.92,0,0,1,.12.16,1,1,0,0,1,.09.19,1.26,1.26,0,0,1,.06.22,1.64,1.64,0,0,1,0,.26,1.6,1.6,0,0,1,0,.22,1.41,1.41,0,0,1,0,.21,1.36,1.36,0,0,1-.08.2,1.45,1.45,0,0,1-.11.18.86.86,0,0,1-.13.16.74.74,0,0,1-.16.11l-.19.07-.22,0m0-3.9h-.14l-.13,0-.13-.07-.12-.1a.62.62,0,0,1-.11-.13.8.8,0,0,1-.08-.17,1.15,1.15,0,0,1,0-.2,1.72,1.72,0,0,1,0-.23,1.75,1.75,0,0,1,0-.24,1.24,1.24,0,0,1,0-.2.88.88,0,0,1,.07-.17.66.66,0,0,1,.1-.13l.12-.11.13-.08.14,0,.14,0H258l.14,0,.13.07.12.11a.58.58,0,0,1,.1.13.78.78,0,0,1,.07.17,1.2,1.2,0,0,1,0,.2,1.91,1.91,0,0,1,0,.23,1.68,1.68,0,0,1,0,.23,1.12,1.12,0,0,1,0,.2.8.8,0,0,1-.08.16.67.67,0,0,1-.11.13l-.12.11-.13.08-.13,0-.14,0m0-3.71-.37,0-.35.06-.33.1-.3.14-.27.17a2,2,0,0,0-.23.2,2.14,2.14,0,0,0-.2.24,2.38,2.38,0,0,0-.17.27,2.59,2.59,0,0,0-.13.3,2.68,2.68,0,0,0-.09.32,2.89,2.89,0,0,0-.06.34,3.22,3.22,0,0,0,0,.36,3.65,3.65,0,0,0,0,.39,2.68,2.68,0,0,0,.06.34,2,2,0,0,0,.1.3,1.58,1.58,0,0,0,.14.26,2.2,2.2,0,0,0,.16.23l.18.19.2.15.22.11v0l-.28.12-.26.17a2.24,2.24,0,0,0-.24.21,2.6,2.6,0,0,0-.22.25,1.8,1.8,0,0,0-.19.31,2.18,2.18,0,0,0-.13.36,2.87,2.87,0,0,0-.08.41,3.94,3.94,0,0,0,0,.47,3.33,3.33,0,0,0,0,.53,3,3,0,0,0,.12.49,2.86,2.86,0,0,0,.2.46,3,3,0,0,0,.28.42,1.73,1.73,0,0,0,.38.35,2.12,2.12,0,0,0,.5.25,3.08,3.08,0,0,0,.62.14,4.81,4.81,0,0,0,.73,0,4.88,4.88,0,0,0,.74-.07,3.22,3.22,0,0,0,.62-.17,2.24,2.24,0,0,0,.5-.27,1.82,1.82,0,0,0,.38-.37,3,3,0,0,0,.28-.43,2.94,2.94,0,0,0,.2-.46,3.09,3.09,0,0,0,.12-.5,3.5,3.5,0,0,0,0-.53,3.92,3.92,0,0,0,0-.46,2.81,2.81,0,0,0-.08-.41,2.1,2.1,0,0,0-.13-.36,1.7,1.7,0,0,0-.19-.3,2.58,2.58,0,0,0-.22-.25,2.1,2.1,0,0,0-.23-.2l-.25-.16-.27-.11v0l.21-.12.19-.16.18-.2a2.36,2.36,0,0,0,.16-.23,1.66,1.66,0,0,0,.14-.26,2.08,2.08,0,0,0,.1-.3,2.73,2.73,0,0,0,.06-.35,3.68,3.68,0,0,0,0-.39,3.45,3.45,0,0,0,0-.35,2.8,2.8,0,0,0-.05-.33,2.38,2.38,0,0,0-.09-.31,2.16,2.16,0,0,0-.13-.29,2.27,2.27,0,0,0-.17-.26,2,2,0,0,0-.2-.23,1.94,1.94,0,0,0-.23-.2l-.27-.16-.3-.13-.32-.09-.35-.05h-.38"/><path class="cls-28" d="M203.32,122.78a14.62,14.62,0,0,0-6.59,1.46,16.84,16.84,0,0,0-5.41,4.2,20.17,20.17,0,0,0-3.67,6.31,22.76,22.76,0,0,0-1.35,7.78,23,23,0,0,0,.69,5.61,21.59,21.59,0,0,0,1.92,5,19.65,19.65,0,0,0,3,4.13,17.29,17.29,0,0,0,3.79,3.06,6.88,6.88,0,0,0,.75.43c.28.14.57.27.85.4l.78.31.53.18c.39.12.81.22,1.25.32s.9.19,1.36.27.93.15,1.39.2l1.32.14.85,0,1.3,0h2.16l52.36-.26v-8.6l-52.14,0h-2l-1.25,0-.79,0-.76-.09-.84-.11-.83-.14-.73-.16-.72-.25-.66-.26-.55-.26-.4-.23a9.55,9.55,0,0,1-2-1.7,10.89,10.89,0,0,1-1.56-2.26,12,12,0,0,1-1-2.7,12.81,12.81,0,0,1-.36-3,12.66,12.66,0,0,1,.74-4.3,11.19,11.19,0,0,1,2-3.49,9.32,9.32,0,0,1,3-2.33,8.07,8.07,0,0,1,7.2,0,9.46,9.46,0,0,1,2.91,2.3,11.33,11.33,0,0,1,2,3.38,12.68,12.68,0,0,1,.81,4.14l7.43,0a22.83,22.83,0,0,0-1.38-7.55,20.45,20.45,0,0,0-3.58-6.19,17.14,17.14,0,0,0-5.27-4.22,14.74,14.74,0,0,0-6.48-1.62M156,121l-17.17-.27v9.2l9.19.1v48.1l8-.1V121m47.28-13.12a25.45,25.45,0,0,0-11.54,2.49,29.51,29.51,0,0,0-9.54,7.33,35.38,35.38,0,0,0-6.49,11.08,39.7,39.7,0,0,0-2.39,13.68,40.29,40.29,0,0,0,1.16,9.66,38,38,0,0,0,3.27,8.62,34.67,34.67,0,0,0,5,7.19,30.51,30.51,0,0,0,6.44,5.38c.42.26.89.51,1.37.76s1,.48,1.43.69l1.26.56.88.35c.67.22,1.37.43,2.09.61s1.47.34,2.22.49,1.51.26,2.26.36,1.49.18,2.21.23c.24,0,.64,0,1.11.05l1.57,0h2.69l52.24-.65v-8.91l-52.15.41h-2.27l-1.36,0-.9,0c-.59,0-1.2-.1-1.81-.18s-1.25-.17-1.87-.29-1.24-.24-1.83-.39-1.17-.31-1.7-.49l-.5-.19-.74-.31-.74-.32-.51-.24a21.88,21.88,0,0,1-5.17-3.88,25.08,25.08,0,0,1-4.05-5.39,27.71,27.71,0,0,1-2.64-6.59,29.55,29.55,0,0,1-.95-7.45,29.19,29.19,0,0,1,1.74-10,26,26,0,0,1,4.74-8.13,21.7,21.7,0,0,1,7-5.4,18.7,18.7,0,0,1,16.8.26,22.17,22.17,0,0,1,6.78,5.47,26.46,26.46,0,0,1,4.58,8,29.34,29.34,0,0,1,1.75,9.71l7.63,0a40,40,0,0,0-2.34-13.21,36,36,0,0,0-6.19-10.89,30.22,30.22,0,0,0-9.19-7.49,25.77,25.77,0,0,0-11.34-2.94m-35-.84-20.3-.46v9.54l12.11.22V178l8.19-.1V107"/><path class="cls-28" d="M247.36,120.36a3.66,3.66,0,0,1-1.6-.4,4.31,4.31,0,0,1-1.33-1.07,5.17,5.17,0,0,1-.91-1.61,6,6,0,0,1-.34-2,5.53,5.53,0,0,1,.34-1.92,4.94,4.94,0,0,1,.91-1.55,4.16,4.16,0,0,1,1.33-1,3.54,3.54,0,0,1,1.6-.35,3.6,3.6,0,0,1,1.59.42,4.39,4.39,0,0,1,1.32,1.07,5.2,5.2,0,0,1,.9,1.58,5.67,5.67,0,0,1,.33,1.93,5.93,5.93,0,0,1-.33,2,4.93,4.93,0,0,1-.9,1.57,4.06,4.06,0,0,1-1.32,1,3.54,3.54,0,0,1-1.59.35m0-10.89a4.24,4.24,0,0,0-1.92.41,4.9,4.9,0,0,0-1.59,1.22,5.87,5.87,0,0,0-1.08,1.85,6.7,6.7,0,0,0-.4,2.29,7,7,0,0,0,.4,2.33,6.41,6.41,0,0,0,1.08,1.93,5.26,5.26,0,0,0,1.59,1.32,4.19,4.19,0,0,0,3.88.06,4.86,4.86,0,0,0,1.57-1.26,6,6,0,0,0,1-1.88,7.15,7.15,0,0,0,0-4.6,6.11,6.11,0,0,0-1-1.88,5.06,5.06,0,0,0-1.57-1.29,4.44,4.44,0,0,0-2-.5"/><path class="cls-28" d="M246.53,115v-1.86l.91,0a1.75,1.75,0,0,1,.43.06.9.9,0,0,1,.33.17.73.73,0,0,1,.22.3,1.22,1.22,0,0,1,.08.45,1.17,1.17,0,0,1,0,.3.82.82,0,0,1-.14.29.69.69,0,0,1-.28.22,1.08,1.08,0,0,1-.46.08l-1.06,0m1.25-2.59-2.17,0v5.89l.91,0v-2.43h.7a1.63,1.63,0,0,1,.6.11.75.75,0,0,1,.33.26.88.88,0,0,1,.14.35,2.19,2.19,0,0,1,0,.39c0,.25,0,.45,0,.61a3.61,3.61,0,0,0,0,.37.67.67,0,0,0,.06.22.39.39,0,0,0,.11.13l.91,0a.59.59,0,0,1-.1-.19,1,1,0,0,1,0-.24c0-.09,0-.21,0-.36s0-.33,0-.55a4.35,4.35,0,0,0,0-.48,1.86,1.86,0,0,0-.1-.44,1.07,1.07,0,0,0-.22-.36,1.05,1.05,0,0,0-.38-.26,1.47,1.47,0,0,0,.47-.28,1.12,1.12,0,0,0,.26-.34,1.29,1.29,0,0,0,.11-.36,2,2,0,0,0,0-.32,2.07,2.07,0,0,0-.18-.91,1.38,1.38,0,0,0-.44-.53,1.62,1.62,0,0,0-.53-.24,2,2,0,0,0-.45-.06"/><g class="cls-2"><g class="cls-2"><g class="cls-29"><path class="cls-30" d="M106.34,23a8.34,8.34,0,0,0-.9.23,9.18,9.18,0,0,0-.9.34q-.45.2-.91.45c-.3.17.25,4.55-.05,4.76a36.21,36.21,0,0,0-15,29.57c0,14.87,7.34,22.38,10.82,26.12,3.06,2.95,4.86,4.49,6.67,4.33.3,0,.8.92,1.1.86a8.42,8.42,0,0,0,.91-.24A9.3,9.3,0,0,0,109,89q.46-.21.92-.47a17.76,17.76,0,0,0,5.9-6.12,40.68,40.68,0,0,0,4.34-10,63.73,63.73,0,0,0,2.31-12.55,68.52,68.52,0,0,0-.18-13.59A52.1,52.1,0,0,0,120,35.85a29.72,29.72,0,0,0-3.69-7.65,13.87,13.87,0,0,0-4.71-4.42,7.81,7.81,0,0,0-5.29-.82"/><polyline class="cls-31" points="103.48 52.6 96.01 61.44 103.71 66.46 107.2 63.22 104.84 59.84 105.65 49.36 103.52 47.68"/></g></g><g class="cls-2"><g class="cls-32"><path class="cls-33" d="M115.08,52l2.82-3.55,13.74,7.31-9.56,12.16-4-2.11-2.83,3.58-14-7.28L111,49.83,115.08,52m1.26-25.5q-.85,0-1.71,0t-1.72.06q-.87.06-1.73.17t-1.74.28a27.86,27.86,0,0,0-11.05,4.78,29.8,29.8,0,0,0-8.05,8.8A32.66,32.66,0,0,0,86.09,52.1a34.8,34.8,0,0,0,.37,13.08A35.17,35.17,0,0,0,90.6,75.7a33.61,33.61,0,0,0,6.88,8.22,31.38,31.38,0,0,0,8.82,5.4,28.77,28.77,0,0,0,10,2.08q.85,0,1.71,0t1.72-.11q.86-.08,1.72-.22t1.72-.33a27.92,27.92,0,0,0,10.79-5,30,30,0,0,0,7.72-8.78,32.74,32.74,0,0,0,4-11.33,34.79,34.79,0,0,0-.35-12.71,35.2,35.2,0,0,0-3.93-10.29,33.72,33.72,0,0,0-6.59-8.18,31.57,31.57,0,0,0-8.58-5.55,28.94,28.94,0,0,0-9.88-2.37"/><polyline class="cls-34" points="110.44 45.8 95.28 60.62 112.8 72.75 117.2 68.41 104.84 59.84 115.53 49.37 110.44 45.8"/><polyline class="cls-35" points="119.92 45.08 115.53 49.37 104.84 59.84 117.2 68.41 122.26 71.92 137.14 57.2 119.92 45.08"/></g></g></g></g><g id="lights_shadows" data-name="lights shadows"><polygon class="cls-36" points="286.88 303.06 103.77 322.28 103.77 0 286.88 13.73 286.88 303.06"/><polygon class="cls-37" points="286.88 303.06 103.77 322.28 103.77 0 286.88 13.73 286.88 303.06"/><polygon class="cls-38" points="53.46 12.27 103.77 0 103.77 322.28 53.46 309.64 53.46 12.27"/><polygon class="cls-39" points="286.89 303.06 282.24 303.54 282.24 13.39 286.89 13.73 286.89 303.06"/><polygon class="cls-40" points="53.46 309.64 58.12 310.79 58.12 11.1 53.46 12.27 53.46 309.64"/><polygon class="cls-41" points="286.88 17.7 103.77 3.21 103.77 0 286.88 13.73 286.88 17.7"/><polygon class="cls-42" points="53.46 16.23 103.71 3.21 103.71 0 53.46 12.27 53.46 16.23"/><polygon class="cls-43" points="103.91 312.78 53.46 300.9 53.46 309.64 103.91 322.28 103.91 312.78"/><rect class="cls-44" x="102.05" width="3.32" height="322.28"/><polygon class="cls-45" points="111.32 321.49 103.71 322.28 103.71 0 111.32 0.57 111.32 321.49"/><polygon class="cls-46" points="103.77 312.78 286.88 294.31 286.88 303.06 103.77 322.28 103.77 312.78"/><polygon class="cls-36" points="286.88 303.06 103.77 322.28 103.77 0 286.88 13.73 286.88 303.06"/><polygon class="cls-47" points="100.39 321.48 103.71 322.28 103.71 0 100.39 0.84 100.39 321.48"/></g></g></g></svg>