<svg xmlns="http://www.w3.org/2000/svg" xmlns:xlink="http://www.w3.org/1999/xlink" viewBox="0 0 293.41 326.44"><defs><style>.cls-1{fill:none;}.cls-2{isolation:isolate;}.cls-3{opacity:0.7;}.cls-4{fill:#fff;opacity:0;}.cls-5{fill:#fbfbfb;opacity:0.05;}.cls-6{fill:#f8f8f8;opacity:0.1;}.cls-7{fill:#f4f4f4;opacity:0.14;}.cls-8{fill:#f1f1f0;opacity:0.19;}.cls-9{fill:#ededed;opacity:0.24;}.cls-10{fill:#e9e9e9;opacity:0.29;}.cls-11{fill:#e6e6e5;opacity:0.33;}.cls-12{fill:#e2e2e2;opacity:0.38;}.cls-13{fill:#dedede;opacity:0.43;}.cls-14{fill:#dbdbda;opacity:0.48;}.cls-15{fill:#d7d7d7;opacity:0.52;}.cls-16{fill:#d4d4d3;opacity:0.57;}.cls-17{fill:#d0d0cf;opacity:0.62;}.cls-18{fill:#ccc;opacity:0.67;}.cls-19{fill:#c9c9c8;opacity:0.71;}.cls-20{fill:#c5c5c4;opacity:0.76;}.cls-21{fill:#c1c1c1;opacity:0.81;}.cls-22{fill:#bebebd;opacity:0.86;}.cls-23{fill:#babab9;opacity:0.9;}.cls-24{fill:#b7b7b6;opacity:0.95;}.cls-25{fill:#b3b3b2;}.cls-26{fill:#fcda00;}.cls-27{fill:#ffca02;}.cls-28{fill:#d10910;}.cls-29{clip-path:url(#clip-path);}.cls-30{fill:#e7eaec;}.cls-31{fill:#95ceb8;}.cls-32{fill:#0b7c7b;}.cls-33{clip-path:url(#clip-path-2);}.cls-34{fill:#e5e5e2;}.cls-35{fill:#4ab285;}.cls-36{fill:#003d60;}.cls-37,.cls-46{mix-blend-mode:soft-light;}.cls-37{fill:url(#Безымянный_градиент_2036);}.cls-38,.cls-39,.cls-45{mix-blend-mode:multiply;}.cls-38{fill:url(#Безымянный_градиент_761);}.cls-39{fill:url(#Безымянный_градиент_2038);}.cls-40,.cls-41,.cls-42,.cls-43,.cls-44,.cls-47{mix-blend-mode:overlay;}.cls-40{fill:url(#Безымянный_градиент_148);}.cls-41{fill:url(#Безымянный_градиент_148-2);}.cls-42{fill:url(#Безымянный_градиент_147);}.cls-43{fill:url(#Безымянный_градиент_503);}.cls-44{fill:url(#Безымянный_градиент_543);}.cls-45{fill:url(#Безымянный_градиент_771);}.cls-46{fill:url(#Безымянный_градиент_13);}.cls-47{fill:url(#Безымянный_градиент_549);}.cls-48{mix-blend-mode:hard-light;fill:url(#Безымянный_градиент_8);}</style><clipPath id="clip-path"><polygon class="cls-1" points="103.73 81.36 86.16 64.12 86.16 44.33 103.73 21.11 103.73 81.36"/></clipPath><clipPath id="clip-path-2"><polygon class="cls-1" points="153.27 26.17 153.27 82.28 103.77 95.19 103.77 13.26 153.27 26.17"/></clipPath><linearGradient id="Безымянный_градиент_2036" x1="245.23" y1="-23.95" x2="141.06" y2="342.32" gradientUnits="userSpaceOnUse"><stop offset="0" stop-color="#fff"/><stop offset="0.42" stop-color="#d4cccc"/><stop offset="1" stop-color="#958080"/></linearGradient><linearGradient id="Безымянный_градиент_761" x1="235.97" y1="8.63" x2="150.82" y2="308.02" gradientUnits="userSpaceOnUse"><stop offset="0" stop-color="#fff"/><stop offset="0.66" stop-color="#f3f3f3"/><stop offset="1" stop-color="#eaeaea"/></linearGradient><linearGradient id="Безымянный_градиент_2038" x1="121.03" y1="10.01" x2="41.91" y2="303.35" gradientUnits="userSpaceOnUse"><stop offset="0" stop-color="#f1f4f1"/><stop offset="0.33" stop-color="#e8e2e4"/><stop offset="1" stop-color="#d8c2cd"/></linearGradient><linearGradient id="Безымянный_градиент_148" x1="282.24" y1="158.47" x2="286.89" y2="158.47" gradientUnits="userSpaceOnUse"><stop offset="0" stop-color="gray"/><stop offset="0.42" stop-color="#828282"/><stop offset="0.6" stop-color="#898989"/><stop offset="0.74" stop-color="#969696"/><stop offset="0.85" stop-color="#a8a8a8"/><stop offset="0.95" stop-color="#bfbfbf"/><stop offset="1" stop-color="#cfcfcf"/></linearGradient><linearGradient id="Безымянный_градиент_148-2" x1="-3309.34" y1="160.94" x2="-3304.69" y2="160.94" gradientTransform="matrix(-1, 0, 0, 1, -3251.23, 0)" xlink:href="#Безымянный_градиент_148"/><linearGradient id="Безымянный_градиент_147" x1="195.48" y1="6.87" x2="195.2" y2="10.45" gradientUnits="userSpaceOnUse"><stop offset="0" stop-color="#cfcfcf"/><stop offset="0.05" stop-color="#bfbfbf"/><stop offset="0.15" stop-color="#a8a8a8"/><stop offset="0.26" stop-color="#969696"/><stop offset="0.4" stop-color="#898989"/><stop offset="0.58" stop-color="#828282"/><stop offset="1" stop-color="gray"/></linearGradient><linearGradient id="Безымянный_градиент_503" x1="78.12" y1="6.35" x2="78.95" y2="9.51" gradientUnits="userSpaceOnUse"><stop offset="0" stop-color="#ebebeb"/><stop offset="0.04" stop-color="#dbdbdb"/><stop offset="0.12" stop-color="#bfbfbf"/><stop offset="0.21" stop-color="#a8a8a8"/><stop offset="0.32" stop-color="#969696"/><stop offset="0.44" stop-color="#898989"/><stop offset="0.61" stop-color="#828282"/><stop offset="1" stop-color="gray"/></linearGradient><linearGradient id="Безымянный_градиент_543" x1="77.68" y1="315.49" x2="79.88" y2="306.95" gradientUnits="userSpaceOnUse"><stop offset="0" stop-color="#414141"/><stop offset="0.03" stop-color="#565656"/><stop offset="0.08" stop-color="#696969"/><stop offset="0.13" stop-color="#767676"/><stop offset="0.19" stop-color="#7e7e7e"/><stop offset="0.32" stop-color="gray"/></linearGradient><linearGradient id="Безымянный_градиент_771" x1="102.05" y1="161.14" x2="105.37" y2="161.14" gradientUnits="userSpaceOnUse"><stop offset="0" stop-color="#fff"/><stop offset="0.21" stop-color="#fefefd"/><stop offset="0.3" stop-color="#fcfcf6"/><stop offset="0.36" stop-color="#f9f7e9"/><stop offset="0.42" stop-color="#f4f1d8"/><stop offset="0.46" stop-color="#ede9c1"/><stop offset="0.48" stop-color="#eae5b5"/><stop offset="0.5" stop-color="#eeeac3"/><stop offset="0.55" stop-color="#f4f2d9"/><stop offset="0.61" stop-color="#f9f8ea"/><stop offset="0.67" stop-color="#fcfcf6"/><stop offset="0.76" stop-color="#fefefd"/><stop offset="1" stop-color="#fff"/></linearGradient><linearGradient id="Безымянный_градиент_13" x1="103.71" y1="161.14" x2="111.32" y2="161.14" gradientUnits="userSpaceOnUse"><stop offset="0" stop-color="gray"/><stop offset="0.01" stop-color="#858586"/><stop offset="0.04" stop-color="#97999e"/><stop offset="0.07" stop-color="#a2a5ac"/><stop offset="0.1" stop-color="#a6a9b1"/><stop offset="0.14" stop-color="#9fa1a8"/><stop offset="0.26" stop-color="#919296"/><stop offset="0.39" stop-color="#878889"/><stop offset="0.58" stop-color="#828282"/><stop offset="1" stop-color="gray"/></linearGradient><linearGradient id="Безымянный_градиент_549" x1="195.71" y1="312.06" x2="194.87" y2="303.76" gradientUnits="userSpaceOnUse"><stop offset="0" stop-color="#060606"/><stop offset="0.06" stop-color="#292929"/><stop offset="0.14" stop-color="#4e4e4e"/><stop offset="0.21" stop-color="#6a6a6a"/><stop offset="0.27" stop-color="#7a7a7a"/><stop offset="0.32" stop-color="gray"/></linearGradient><linearGradient id="Безымянный_градиент_8" x1="-3251.73" y1="161.14" x2="-3248.41" y2="161.14" gradientTransform="matrix(-1, 0, 0, 1, -3148.02, 0)" gradientUnits="userSpaceOnUse"><stop offset="0" stop-color="gray"/><stop offset="0.02" stop-color="#999992"/><stop offset="0.05" stop-color="#afb1a3"/><stop offset="0.08" stop-color="#bdbfad"/><stop offset="0.1" stop-color="#c2c4b0"/><stop offset="0.12" stop-color="#bdbfac"/><stop offset="0.21" stop-color="#a7a89c"/><stop offset="0.31" stop-color="#95968f"/><stop offset="0.44" stop-color="#898987"/><stop offset="0.61" stop-color="#828281"/><stop offset="1" stop-color="gray"/></linearGradient></defs><title>Roznitsa</title><g class="cls-2"><g id="Layer_2" data-name="Layer 2"><g id="box_color" data-name="box color"><g class="cls-3"><path class="cls-4" d="M8.27,314.71C39.94,321.58,91.2,325,91.2,325a52.65,52.65,0,0,0,18.4,1.15l180.31-20.6c4.58-.15,4.43-5,.92-5.66l-202-29a78.62,78.62,0,0,0-24.89-.44S36.5,293.17,12.38,297C.88,298.83-6.55,311.49,8.27,314.71Z"/><path class="cls-5" d="M10.52,314.49c30.16,6.55,81.22,10.32,81.22,10.32a50.48,50.48,0,0,0,17.64,1.1l180.2-20.51c4.39-.15,4.24-4.84.87-5.44L91.25,271.3a75.22,75.22,0,0,0-23.8-.42s-30,23.06-53,26.71C3.46,299.33-3.62,311.42,10.52,314.49Z"/><path class="cls-6" d="M12.77,314.27c28.65,6.22,79.5,10.4,79.5,10.4a48.32,48.32,0,0,0,16.88,1.05l180.09-20.42c4.2-.14,4.06-4.65.83-5.22L93.71,271.77a71.82,71.82,0,0,0-22.72-.4s-32.69,23.33-54.5,26.8C6,299.84-.68,311.35,12.77,314.27Z"/><path class="cls-7" d="M15,314.06c27.15,5.89,77.78,10.47,77.78,10.47a46.15,46.15,0,0,0,16.12,1l180-20.32c4-.14,3.88-4.45.79-5l-193.51-28a68.42,68.42,0,0,0-21.63-.38s-35.33,23.61-56,26.89C8.62,300.34,2.25,311.28,15,314.06Z"/><path class="cls-8" d="M17.26,313.84c25.64,5.56,76.07,10.55,76.07,10.55a44,44,0,0,0,15.36,1l179.87-20.23c3.82-.14,3.7-4.26.75-4.78L98.64,272.72a65,65,0,0,0-20.54-.36s-38,23.89-57.49,27C11.21,300.84,5.18,311.21,17.26,313.84Z"/><path class="cls-9" d="M19.51,313.62c24.13,5.24,74.35,10.62,74.35,10.62a41.81,41.81,0,0,0,14.61.92L288.23,305c3.63-.13,3.52-4.06.7-4.56L101.1,273.2a61.61,61.61,0,0,0-19.46-.34S41,297,22.66,299.94C13.79,301.35,8.12,311.15,19.51,313.62Z"/><path class="cls-10" d="M21.76,313.41c22.62,4.91,72.63,10.7,72.63,10.7a39.65,39.65,0,0,0,13.85.87l179.65-20c3.44-.13,3.34-3.87.66-4.34l-185-26.92a58.21,58.21,0,0,0-18.37-.32s-43.26,24.44-60.48,27.18C16.37,301.85,11.05,311.08,21.76,313.41Z"/><path class="cls-11" d="M24,313.19C45.12,317.77,94.93,324,94.93,324a37.48,37.48,0,0,0,13.09.82l179.53-20c3.26-.12,3.16-3.67.62-4.12L106,274.14a54.81,54.81,0,0,0-17.28-.3s-45.9,24.72-62,27.27C19,302.36,14,311,24,313.19Z"/><path class="cls-12" d="M26.26,313c19.6,4.26,69.2,10.85,69.2,10.85a35.31,35.31,0,0,0,12.33.78l179.42-19.87c3.07-.12,3-3.48.58-3.9l-179.3-26.22a51.41,51.41,0,0,0-16.2-.28s-48.55,25-63.47,27.37C21.54,302.86,16.92,310.94,26.26,313Z"/><path class="cls-13" d="M28.51,312.75C46.61,316.68,96,323.68,96,323.68a33.15,33.15,0,0,0,11.57.73l179.31-19.77c2.88-.11,2.8-3.28.53-3.68L111,275.09a48,48,0,0,0-15.11-.26s-51.19,25.27-65,27.46C24.12,303.37,19.86,310.87,28.51,312.75Z"/><path class="cls-14" d="M30.76,312.54c16.59,3.6,65.76,11,65.76,11a31,31,0,0,0,10.82.68l179.2-19.68c2.69-.11,2.62-3.09.49-3.46L113.42,275.57a44.6,44.6,0,0,0-14-.24s-53.83,25.55-66.46,27.55C26.7,303.87,22.79,310.8,30.76,312.54Z"/><path class="cls-15" d="M33,312.32c15.08,3.27,64,11.07,64,11.07a28.81,28.81,0,0,0,10.06.64L286.2,304.44c2.5-.11,2.44-2.89.45-3.24L115.88,276a41.2,41.2,0,0,0-12.94-.22s-56.47,25.83-68,27.65C29.28,304.37,25.72,310.73,33,312.32Z"/><path class="cls-16" d="M35.26,312.1c13.57,2.95,62.33,11.15,62.33,11.15a26.64,26.64,0,0,0,9.3.59l179-19.5c2.31-.1,2.26-2.7.41-3L118.35,276.51a37.8,37.8,0,0,0-11.85-.2S47.38,302.42,37,304.06C31.86,304.88,28.66,310.66,35.26,312.1Z"/><path class="cls-17" d="M37.51,311.89c12.06,2.62,60.61,11.23,60.61,11.23a24.48,24.48,0,0,0,8.54.55l178.87-19.41c2.12-.1,2.08-2.5.36-2.8L120.81,277a34.4,34.4,0,0,0-10.76-.18S48.29,303.19,39.1,304.65C34.45,305.38,31.59,310.59,37.51,311.89Z"/><path class="cls-18" d="M39.76,311.67C50.31,314,98.65,323,98.65,323a22.31,22.31,0,0,0,7.79.5l178.75-19.31c1.93-.09,1.9-2.31.32-2.58L123.27,277.46a31,31,0,0,0-9.68-.16S49.19,304,41.16,305.24C37,305.89,34.53,310.53,39.76,311.67Z"/><path class="cls-19" d="M42,311.45c9,2,57.18,11.38,57.18,11.38a20.14,20.14,0,0,0,7,.45l178.64-19.22a1.19,1.19,0,1,0,.28-2.36l-159.4-23.76a27.6,27.6,0,0,0-8.59-.14s-67,26.93-73.94,28C39.61,306.39,37.46,310.46,42,311.45Z"/><path class="cls-20" d="M44.25,311.24c7.54,1.64,55.46,11.45,55.46,11.45a18,18,0,0,0,6.27.41L284.52,304a1.08,1.08,0,0,0,.24-2.14L128.2,278.41a24.2,24.2,0,0,0-7.5-.12S51,305.5,45.27,306.42C42.19,306.9,40.4,310.39,44.25,311.24Z"/><path class="cls-21" d="M46.5,311c6,1.31,53.75,11.53,53.75,11.53a15.81,15.81,0,0,0,5.51.36l178.42-19a1,1,0,0,0,.19-1.92L130.66,278.89a20.8,20.8,0,0,0-6.42-.1S51.91,306.27,47.32,307C44.77,307.4,43.33,310.32,46.5,311Z"/><path class="cls-22" d="M48.75,310.8c4.52,1,52,11.6,52,11.6a13.64,13.64,0,0,0,4.75.31l178.31-18.95a.85.85,0,0,0,.15-1.7L133.13,279.36a17.4,17.4,0,0,0-5.33-.08s-75,27.77-78.42,28.31C47.36,307.91,46.26,310.26,48.75,310.8Z"/><path class="cls-23" d="M51,310.58c3,.67,50.31,11.68,50.31,11.68a11.48,11.48,0,0,0,4,.27l178.2-18.85a.74.74,0,0,0,.11-1.48l-148-22.36a14,14,0,0,0-4.24-.06s-77.62,28-79.91,28.4C49.94,308.41,49.2,310.19,51,310.58Z"/><path class="cls-24" d="M53.25,310.37c1.51.34,48.6,11.75,48.6,11.75a9.31,9.31,0,0,0,3.24.22l178.09-18.76a.63.63,0,0,0,.07-1.26l-145.18-22a10.62,10.62,0,0,0-3.16,0s-80.26,28.32-81.41,28.5C52.52,308.92,52.13,310.12,53.25,310.37Z"/><path class="cls-25" d="M55.5,310.15,102.38,322a7.14,7.14,0,0,0,2.48.17l178-18.67a.52.52,0,0,0,0-1L140.52,280.78a7.25,7.25,0,0,0-2.07,0l-82.9,28.59A.4.4,0,0,0,55.5,310.15Z"/></g><polygon class="cls-26" points="286.89 303.06 103.78 322.28 103.78 0 286.89 13.73 286.89 303.06"/><polygon class="cls-27" points="53.47 12.27 103.78 0 103.78 322.28 53.47 309.64 53.47 12.27"/><path class="cls-28" d="M153,188.91v-4.15l1.26,0a3.11,3.11,0,0,1,.95.11,1.69,1.69,0,0,1,.68.38,1.58,1.58,0,0,1,.41.64,2.69,2.69,0,0,1,.14.9,2.79,2.79,0,0,1-.14.91,1.68,1.68,0,0,1-.41.66,1.76,1.76,0,0,1-.68.41,3.09,3.09,0,0,1-.95.15l-1.26,0m2.22-8.15-6.63.09v18.07l4.41-.1v-5.94l2.22,0a7.72,7.72,0,0,0,.94-.07,6.31,6.31,0,0,0,.85-.18,5.37,5.37,0,0,0,.77-.28,4.84,4.84,0,0,0,.69-.38,6.05,6.05,0,0,0,.59-.47,5.31,5.31,0,0,0,.51-.53,5,5,0,0,0,.77-1.26,7,7,0,0,0,.26-.7,7.08,7.08,0,0,0,.19-.73,7.41,7.41,0,0,0,.11-.75q0-.38,0-.77t0-.76a7.27,7.27,0,0,0-.11-.74,6.93,6.93,0,0,0-.19-.72,6.77,6.77,0,0,0-.26-.69,4.76,4.76,0,0,0-.77-1.23,5.1,5.1,0,0,0-.51-.52,5.78,5.78,0,0,0-.59-.45,4.42,4.42,0,0,0-.69-.37,5,5,0,0,0-.77-.26,6.16,6.16,0,0,0-.85-.15,7.9,7.9,0,0,0-.94,0"/><path class="cls-28" d="M168.66,195.71a2.45,2.45,0,0,1-.56,0,1.92,1.92,0,0,1-.49-.17,1.82,1.82,0,0,1-.41-.29,2.12,2.12,0,0,1-.34-.42,3.36,3.36,0,0,1-.26-.51,4,4,0,0,1-.19-.58,5,5,0,0,1-.11-.64,6.61,6.61,0,0,1,0-.71,6.51,6.51,0,0,1,0-.71,5.08,5.08,0,0,1,.11-.64,4.11,4.11,0,0,1,.19-.58,3.53,3.53,0,0,1,.26-.52,2.27,2.27,0,0,1,.34-.43,1.9,1.9,0,0,1,.41-.31,2,2,0,0,1,.49-.19,2.51,2.51,0,0,1,.56-.07,2.48,2.48,0,0,1,.56.05,1.9,1.9,0,0,1,.49.17,1.8,1.8,0,0,1,.41.29,2.16,2.16,0,0,1,.34.42,3.37,3.37,0,0,1,.26.51,4,4,0,0,1,.19.57,5,5,0,0,1,.11.64,6.47,6.47,0,0,1,0,.7,6.65,6.65,0,0,1,0,.71,5.11,5.11,0,0,1-.11.65,4.1,4.1,0,0,1-.19.58,3.52,3.52,0,0,1-.26.52,2.25,2.25,0,0,1-.34.43,1.92,1.92,0,0,1-.41.31,2,2,0,0,1-.49.19,2.48,2.48,0,0,1-.56.07m0-10a8.36,8.36,0,0,0-1.41.14,6.59,6.59,0,0,0-1.26.36,5.66,5.66,0,0,0-2,1.4,6.18,6.18,0,0,0-.75,1,6.32,6.32,0,0,0-.53,1.14,7.25,7.25,0,0,0-.32,1.28,9.09,9.09,0,0,0-.11,1.43,9.27,9.27,0,0,0,0,1,8.07,8.07,0,0,0,.14.9,7.21,7.21,0,0,0,.24.84,6.66,6.66,0,0,0,.33.78,5.57,5.57,0,0,0,.42.7,5.27,5.27,0,0,0,1.11,1.15,5.41,5.41,0,0,0,1.44.79,6.27,6.27,0,0,0,.83.24,7.23,7.23,0,0,0,.9.14,8.82,8.82,0,0,0,1.92,0,7.32,7.32,0,0,0,.89-.18,6.53,6.53,0,0,0,.82-.28,6.14,6.14,0,0,0,.76-.38,6,6,0,0,0,.68-.48,5.57,5.57,0,0,0,1.1-1.19,5.86,5.86,0,0,0,.42-.71,7,7,0,0,0,.33-.79,7.44,7.44,0,0,0,.23-.84,8.22,8.22,0,0,0,.14-.9,9.33,9.33,0,0,0,0-.95,9.15,9.15,0,0,0,0-.94,7.84,7.84,0,0,0-.14-.89,7,7,0,0,0-.24-.83,6.54,6.54,0,0,0-.33-.77,5.57,5.57,0,0,0-.42-.7,5.21,5.21,0,0,0-1.1-1.14,5.44,5.44,0,0,0-.68-.44,5.71,5.71,0,0,0-.76-.35,6.16,6.16,0,0,0-.82-.25,7.05,7.05,0,0,0-.89-.14,8.45,8.45,0,0,0-1,0"/><path class="cls-28" d="M181,185.47l-.56,0-.57.07-.59.11-.6.15-.59.19-.56.22-.52.25-.48.28,1,2.73a5.88,5.88,0,0,1,.69-.47,4.88,4.88,0,0,1,.7-.34,4.33,4.33,0,0,1,.72-.21,4.19,4.19,0,0,1,.74-.08,2.83,2.83,0,0,1,.67.06,1.33,1.33,0,0,1,.48.2.86.86,0,0,1,.29.34,1.13,1.13,0,0,1,.1.48,1.2,1.2,0,0,1-.08.46.83.83,0,0,1-.24.33,1.11,1.11,0,0,1-.4.2,2.21,2.21,0,0,1-.57.08l-1.88,0v2.66l1.67,0a3.21,3.21,0,0,1,.69.05,1.41,1.41,0,0,1,.49.19.81.81,0,0,1,.29.32,1,1,0,0,1,.1.45,1.15,1.15,0,0,1,0,.21,1.17,1.17,0,0,1-.06.21,1.35,1.35,0,0,1-.1.2l-.13.19a.83.83,0,0,1-.2.18,1.19,1.19,0,0,1-.27.13,2,2,0,0,1-.35.08l-.42,0H180l-.41,0-.4-.07-.38-.11-.38-.14-.41-.19-.44-.24-.47-.29-1,2.92a10.1,10.1,0,0,0,1.19.62,9,9,0,0,0,1.21.43,8.47,8.47,0,0,0,1.23.25,8.62,8.62,0,0,0,1.26.06q.46,0,.88-.06a7,7,0,0,0,.79-.13,5.21,5.21,0,0,0,.69-.21,4,4,0,0,0,.6-.29,5.59,5.59,0,0,0,.51-.34,4.17,4.17,0,0,0,.42-.36,3.26,3.26,0,0,0,.34-.39,2.76,2.76,0,0,0,.26-.43q.1-.22.18-.43a4.18,4.18,0,0,0,.13-.42,3.59,3.59,0,0,0,.08-.42,3.19,3.19,0,0,0,0-.41,3.54,3.54,0,0,0,0-.49,3.37,3.37,0,0,0-.1-.47,3.43,3.43,0,0,0-.16-.45,3.72,3.72,0,0,0-.23-.43,2.36,2.36,0,0,0-.69-.72,2.68,2.68,0,0,0-.46-.25,3.33,3.33,0,0,0-.53-.17v-.06a2.42,2.42,0,0,0,.33-.2,2.52,2.52,0,0,0,.3-.25,2.86,2.86,0,0,0,.27-.3,3.5,3.5,0,0,0,.24-.35,3.31,3.31,0,0,0,.19-.4,3.4,3.4,0,0,0,.13-.43,3.74,3.74,0,0,0,.08-.46,4.39,4.39,0,0,0,0-.49,4.53,4.53,0,0,0-.09-.91,3,3,0,0,0-.26-.75,2.31,2.31,0,0,0-.43-.59,2.4,2.4,0,0,0-.6-.43,6.24,6.24,0,0,0-.7-.31,6,6,0,0,0-1.47-.35,6.39,6.39,0,0,0-.78,0"/><polyline class="cls-28" points="198.82 185.65 195.04 185.71 195.04 189.99 191.57 190.06 191.57 185.76 187.78 185.82 187.78 198.05 191.57 197.96 191.57 193.09 195.04 193.02 195.04 197.89 198.82 197.8 198.82 185.65"/><polyline class="cls-28" points="212.25 185.43 208.69 185.49 204.96 192.04 204.96 185.55 201.22 185.61 201.22 197.75 204.86 197.67 208.54 190.93 208.54 197.59 212.25 197.5 212.25 185.43"/><polyline class="cls-28" points="225.07 185.22 221.41 185.28 221.41 194.31 218.31 194.38 218.31 185.33 214.62 185.39 214.62 197.45 223.32 197.26 223.32 200.73 226.54 200.66 226.54 194.21 225.07 194.24 225.07 185.22"/><path class="cls-28" d="M233.39,193.92a2.31,2.31,0,0,1-.51,0,1.73,1.73,0,0,1-.44-.15,1.59,1.59,0,0,1-.37-.26,1.84,1.84,0,0,1-.3-.38,3.76,3.76,0,0,1-.23-.46,3.69,3.69,0,0,1-.17-.48,3.82,3.82,0,0,1-.1-.51,4.17,4.17,0,0,1,0-.54q0-.17,0-.34t0-.34q0-.17.07-.33t.1-.33a2.59,2.59,0,0,1,.12-.31,2.48,2.48,0,0,1,.16-.29,2.44,2.44,0,0,1,.19-.26,2.46,2.46,0,0,1,.22-.23,1.78,1.78,0,0,1,.26-.19,1.74,1.74,0,0,1,.29-.14,1.91,1.91,0,0,1,.33-.09l.36,0a2.21,2.21,0,0,1,.48,0,1.77,1.77,0,0,1,.43.14,1.69,1.69,0,0,1,.37.25,2,2,0,0,1,.31.35,2.78,2.78,0,0,1,.25.43,3,3,0,0,1,.18.48,3.62,3.62,0,0,1,.11.53,4.54,4.54,0,0,1,0,.58q0,.2,0,.39t0,.37q0,.18-.08.36a3.33,3.33,0,0,1-.11.34,2.83,2.83,0,0,1-.14.32,2.45,2.45,0,0,1-.17.28,2.28,2.28,0,0,1-.2.25l-.23.21-.26.17-.28.12-.3.07-.33,0m-1.25-9.25a4.57,4.57,0,0,0-.71.06,3.94,3.94,0,0,0-.66.17,3.71,3.71,0,0,0-.61.28,3.86,3.86,0,0,0-.56.39,4.68,4.68,0,0,0-.5.48,5.08,5.08,0,0,0-.43.55,5.76,5.76,0,0,0-.37.63,6.73,6.73,0,0,0-.31.7q-.13.37-.23.76t-.17.79q-.07.4-.1.83t0,.86q0,.45,0,.89t.11.84q.07.41.18.8a7.49,7.49,0,0,0,.26.75,6.43,6.43,0,0,0,.32.69,5.35,5.35,0,0,0,.38.61,4.71,4.71,0,0,0,.44.53,4.48,4.48,0,0,0,.51.45,3.92,3.92,0,0,0,.55.35,3.69,3.69,0,0,0,.59.25,3.75,3.75,0,0,0,.63.14,4.23,4.23,0,0,0,1.65-.1A3.57,3.57,0,0,0,234,197a3.8,3.8,0,0,0,.77-.6,4.85,4.85,0,0,0,.66-.83V197l3.46-.08V185l-3.46.06v1.46q-.17-.26-.35-.48a4.64,4.64,0,0,0-.36-.4,3.6,3.6,0,0,0-.37-.32,2.91,2.91,0,0,0-.39-.25,3.29,3.29,0,0,0-.41-.18,3.53,3.53,0,0,0-.44-.13l-.47-.08-.5,0"/><path class="cls-28" d="M253.31,193.49a1.8,1.8,0,0,1-.4,0,1.43,1.43,0,0,1-.35-.12,1.39,1.39,0,0,1-.3-.21,1.67,1.67,0,0,1-.26-.29,2.77,2.77,0,0,1-.2-.35,2.63,2.63,0,0,1-.14-.37,2.67,2.67,0,0,1-.09-.39,2.88,2.88,0,0,1,0-.41,2.78,2.78,0,0,1,0-.29,2.55,2.55,0,0,1,0-.28,2.39,2.39,0,0,1,.07-.26,2.28,2.28,0,0,1,.1-.25,2,2,0,0,1,.12-.24,1.81,1.81,0,0,1,.15-.21l.17-.18.2-.16.21-.13.22-.1.23-.06.24,0a1.71,1.71,0,0,1,.34,0,1.55,1.55,0,0,1,.32.09,1.65,1.65,0,0,1,.3.17,2,2,0,0,1,.28.24,1.54,1.54,0,0,1,.24.3,1.8,1.8,0,0,1,.17.36,2.4,2.4,0,0,1,.1.43,3.41,3.41,0,0,1,0,.49,2.9,2.9,0,0,1,0,.41,2.72,2.72,0,0,1-.23.77,2.91,2.91,0,0,1-.2.36,1.64,1.64,0,0,1-.25.3,1.43,1.43,0,0,1-.31.22,1.52,1.52,0,0,1-.36.14,1.94,1.94,0,0,1-.42.05m0-7.45-.26,0-.25-.08-.25-.13-.24-.18a1.12,1.12,0,0,1-.2-.24,1.45,1.45,0,0,1-.15-.31,2.15,2.15,0,0,1-.09-.39,3.34,3.34,0,0,1,0-.46,3.48,3.48,0,0,1,0-.45,2.29,2.29,0,0,1,.08-.39,1.58,1.58,0,0,1,.14-.32,1.23,1.23,0,0,1,.2-.26,1.77,1.77,0,0,1,.23-.2,1.48,1.48,0,0,1,.25-.15,1.33,1.33,0,0,1,.26-.09,1.3,1.3,0,0,1,.28,0,1.34,1.34,0,0,1,.28,0,1.32,1.32,0,0,1,.27.08,1.48,1.48,0,0,1,.25.14,1.81,1.81,0,0,1,.23.19,1.24,1.24,0,0,1,.19.25,1.6,1.6,0,0,1,.14.32,2.26,2.26,0,0,1,.09.38,3.3,3.3,0,0,1,0,.45,3.17,3.17,0,0,1,0,.44,2.18,2.18,0,0,1-.09.38,1.57,1.57,0,0,1-.15.32,1.26,1.26,0,0,1-.2.26,1.79,1.79,0,0,1-.23.2,1.5,1.5,0,0,1-.25.14l-.26.09-.27,0m0-7.07a7,7,0,0,0-.71,0,5.84,5.84,0,0,0-.67.12,5.07,5.07,0,0,0-.62.19,4.22,4.22,0,0,0-1.09.6,4.22,4.22,0,0,0-.45.39,4.1,4.1,0,0,0-.39.45,4.29,4.29,0,0,0-.33.51,4.4,4.4,0,0,0-.26.56,4.79,4.79,0,0,0-.18.6,5.45,5.45,0,0,0-.11.65,6.41,6.41,0,0,0,0,.69,6.63,6.63,0,0,0,0,.72,5.05,5.05,0,0,0,.11.65,3.88,3.88,0,0,0,.19.58,3.07,3.07,0,0,0,.26.5,4,4,0,0,0,.31.43,3.41,3.41,0,0,0,.35.36,3,3,0,0,0,.38.29,2.85,2.85,0,0,0,.41.22v.05a3.54,3.54,0,0,0-.53.24,3.86,3.86,0,0,0-.49.32,4.43,4.43,0,0,0-.46.4,5.25,5.25,0,0,0-.42.48,3.26,3.26,0,0,0-.36.59,4.09,4.09,0,0,0-.26.69,5.5,5.5,0,0,0-.15.8,7.6,7.6,0,0,0-.05.9,6.37,6.37,0,0,0,.08,1,5.62,5.62,0,0,0,.23.94,5.39,5.39,0,0,0,.38.87,5.64,5.64,0,0,0,.54.8,3.24,3.24,0,0,0,.73.67,4,4,0,0,0,1,.47,6,6,0,0,0,1.18.27,10.14,10.14,0,0,0,2.81-.06,6.12,6.12,0,0,0,1.18-.32,4.23,4.23,0,0,0,.95-.51,3.44,3.44,0,0,0,.72-.7,6,6,0,0,0,.53-.82,5.62,5.62,0,0,0,.38-.88,5.78,5.78,0,0,0,.23-.94,6.43,6.43,0,0,0,.08-1,7.54,7.54,0,0,0-.05-.89,5.38,5.38,0,0,0-.15-.79,3.94,3.94,0,0,0-.25-.68,3.09,3.09,0,0,0-.36-.57,5,5,0,0,0-.42-.47,4.18,4.18,0,0,0-.45-.39,3.66,3.66,0,0,0-.49-.3,3.38,3.38,0,0,0-.52-.22v-.05a3,3,0,0,0,.41-.23,3.16,3.16,0,0,0,.38-.3,3.56,3.56,0,0,0,.34-.37,4.17,4.17,0,0,0,.31-.44,3.19,3.19,0,0,0,.26-.51A4,4,0,0,0,258,185a5.13,5.13,0,0,0,.11-.65,6.66,6.66,0,0,0,0-.72,6.15,6.15,0,0,0,0-.68,5.41,5.41,0,0,0-.11-.64,4.89,4.89,0,0,0-.18-.6,4.57,4.57,0,0,0-.25-.55,4,4,0,0,0-.32-.5,4,4,0,0,0-.39-.44,4.15,4.15,0,0,0-.45-.38,4.6,4.6,0,0,0-.51-.32,4.46,4.46,0,0,0-.57-.25,4.94,4.94,0,0,0-.62-.17,5.74,5.74,0,0,0-.67-.1,6.92,6.92,0,0,0-.71,0"/><path class="cls-28" d="M202.45,120a14.25,14.25,0,0,0-6.42,1.41,16.34,16.34,0,0,0-5.27,4.07,19.53,19.53,0,0,0-3.57,6.12,22.06,22.06,0,0,0-1.31,7.56,22.37,22.37,0,0,0,.67,5.45,21,21,0,0,0,1.87,4.85,19.18,19.18,0,0,0,2.88,4,16.9,16.9,0,0,0,3.69,3,6.73,6.73,0,0,0,.73.42c.27.14.56.27.83.39l.76.31.51.18c.38.11.79.22,1.22.32s.88.18,1.33.26.91.15,1.35.2l1.29.14.83,0,1.27,0h2.11l51.06-.1v-8.36l-50.85-.12h-.78l-1.21,0-1.21,0-.77,0-.74-.08-.82-.11-.81-.13-.71-.16-.7-.24-.64-.26-.53-.25-.39-.22a9.45,9.45,0,0,1-2-1.67,10.66,10.66,0,0,1-1.52-2.2,11.66,11.66,0,0,1-1-2.62,12.41,12.41,0,0,1-.35-2.93,12.25,12.25,0,0,1,.72-4.18,10.84,10.84,0,0,1,2-3.39,9.06,9.06,0,0,1,2.9-2.26,7.87,7.87,0,0,1,7,.06,9.24,9.24,0,0,1,2.84,2.24,11,11,0,0,1,1.95,3.3,12.33,12.33,0,0,1,.79,4l7.24.06a22.18,22.18,0,0,0-1.35-7.34,19.94,19.94,0,0,0-3.48-6,16.76,16.76,0,0,0-5.14-4.11,14.41,14.41,0,0,0-6.31-1.59m-46-1.83-16.7-.3v8.94l8.94.12v46.72l7.76-.07V118.2m46-12.65a24.79,24.79,0,0,0-11.24,2.39,28.63,28.63,0,0,0-9.29,7.1,34.26,34.26,0,0,0-6.32,10.75,38.47,38.47,0,0,0-2.33,13.29,39.09,39.09,0,0,0,1.13,9.39,36.92,36.92,0,0,0,3.18,8.38,33.81,33.81,0,0,0,4.89,7,29.86,29.86,0,0,0,6.27,5.25c.41.25.87.51,1.34.75s.94.47,1.39.68l1.23.55.85.34c.65.22,1.33.42,2,.6s1.43.34,2.16.48,1.47.26,2.2.36,1.45.17,2.16.23c.24,0,.62,0,1.08.05l1.53,0h2.62l50.93-.47V164l-50.85.24h-2.21l-1.32,0-.88,0c-.57,0-1.17-.1-1.77-.18s-1.21-.17-1.81-.28-1.2-.24-1.78-.38-1.14-.3-1.66-.48l-.48-.19-.72-.3-.72-.32-.5-.24a21.28,21.28,0,0,1-5-3.78,24.4,24.4,0,0,1-3.94-5.25,27,27,0,0,1-2.57-6.41,28.74,28.74,0,0,1-.92-7.24,28.31,28.31,0,0,1,1.7-9.73,25.19,25.19,0,0,1,4.61-7.89,21,21,0,0,1,6.79-5.23,18.22,18.22,0,0,1,8.25-1.79,18.47,18.47,0,0,1,8.11,2.08,21.67,21.67,0,0,1,6.6,5.33,25.79,25.79,0,0,1,4.47,7.77,28.51,28.51,0,0,1,1.71,9.44l7.44.06a38.78,38.78,0,0,0-2.28-12.85,35.1,35.1,0,0,0-6-10.6,29.54,29.54,0,0,0-9-7.3,25.2,25.2,0,0,0-11.05-2.89m-34-.89-19.75-.49v9.25l11.78.24v59.91l8-.07V104.66"/><path class="cls-28" d="M245.37,117.79a3.59,3.59,0,0,1-1.56-.4,4.22,4.22,0,0,1-1.3-1,5,5,0,0,1-.89-1.57,5.84,5.84,0,0,1-.33-2,5.36,5.36,0,0,1,.33-1.87,4.78,4.78,0,0,1,.89-1.5,4,4,0,0,1,1.3-1,3.46,3.46,0,0,1,1.56-.33,3.55,3.55,0,0,1,1.56.41,4.29,4.29,0,0,1,1.29,1,5.06,5.06,0,0,1,.88,1.54,5.5,5.5,0,0,1,.33,1.88,5.74,5.74,0,0,1-.33,1.94,4.77,4.77,0,0,1-.88,1.52,4,4,0,0,1-1.29,1,3.48,3.48,0,0,1-1.56.34m0-10.59a4.13,4.13,0,0,0-1.88.4,4.74,4.74,0,0,0-1.54,1.18,5.69,5.69,0,0,0-1,1.79,6.52,6.52,0,0,0-.39,2.23,6.8,6.8,0,0,0,.39,2.26,6.25,6.25,0,0,0,1,1.88,5.13,5.13,0,0,0,1.54,1.29,4.1,4.1,0,0,0,3.78.07,4.72,4.72,0,0,0,1.53-1.22,5.86,5.86,0,0,0,1-1.83,6.94,6.94,0,0,0,0-4.47,6,6,0,0,0-1-1.83,5,5,0,0,0-1.53-1.25,4.35,4.35,0,0,0-1.91-.49"/><path class="cls-28" d="M244.56,112.58v-1.81l.89,0a1.71,1.71,0,0,1,.42.06.88.88,0,0,1,.33.16.71.71,0,0,1,.21.29,1.3,1.3,0,0,1,0,.73.78.78,0,0,1-.13.28.66.66,0,0,1-.27.21,1.07,1.07,0,0,1-.45.08l-1,0m1.22-2.52-2.11,0v5.72l.89,0v-2.35h.7a1.58,1.58,0,0,1,.59.11.74.74,0,0,1,.32.25.87.87,0,0,1,.14.34,2.05,2.05,0,0,1,0,.38c0,.24,0,.44,0,.59a3.45,3.45,0,0,0,0,.36.61.61,0,0,0,.06.21.35.35,0,0,0,.11.12l.87,0a.53.53,0,0,1-.1-.18,1,1,0,0,1,0-.22c0-.09,0-.2,0-.35s0-.32,0-.54a4.27,4.27,0,0,0,0-.47,1.83,1.83,0,0,0-.09-.42,1,1,0,0,0-.21-.35,1,1,0,0,0-.36-.25,1.49,1.49,0,0,0,.45-.28,1.12,1.12,0,0,0,.25-.33,1.25,1.25,0,0,0,.11-.34,1.8,1.8,0,0,0,0-.31,2,2,0,0,0-.18-.89,1.35,1.35,0,0,0-.44-.51,1.61,1.61,0,0,0-.52-.24,1.94,1.94,0,0,0-.44-.06"/><g class="cls-2"><g class="cls-2"><g class="cls-29"><path class="cls-30" d="M109.4,42.63l1.44-3.86L118,44.34l-5,13.27-2.06-1.68-1.44,3.83-6.92-5.69L107.36,41l2,1.61m.67-25.35a8,8,0,0,0-.87.23,8.81,8.81,0,0,0-.87.33q-.43.19-.87.44t-.87.54c-2,1.4-1.26,3.42-2.82,6.13C101.25,27.8,93,36.71,93,51.23a37.21,37.21,0,0,0,10.75,26.29c1.28,2-.31,1.54,1.25,2.56a7.8,7.8,0,0,0,5,1.34,7.52,7.52,0,0,0,.87-.13,8.08,8.08,0,0,0,.88-.23,8.93,8.93,0,0,0,.88-.34q.44-.2.89-.45a17.05,17.05,0,0,0,5.67-5.87,39.07,39.07,0,0,0,4.17-9.62,61.2,61.2,0,0,0,2.22-12.05,65.8,65.8,0,0,0-.18-13,50,50,0,0,0-2.14-10,28.54,28.54,0,0,0-3.55-7.34,13.32,13.32,0,0,0-4.52-4.25,7.5,7.5,0,0,0-5.08-.79"/><polyline class="cls-31" points="103.77 49.21 100.15 54.22 103.77 56.38 110.89 55.93 105.95 51.92 109.4 42.63 107.36 41.02"/><polyline class="cls-32" points="110.84 38.77 109.4 42.63 105.95 51.92 110.89 55.93 112.96 57.61 117.97 44.34 110.84 38.77"/></g></g><g class="cls-2"><g class="cls-33"><path class="cls-34" d="M118.46,45.14l2.71-3.41,13.19,7-9.18,11.68-3.87-2-2.71,3.44-13.41-7,9.37-11.77,3.9,2.06m1.21-24.49q-.82,0-1.64,0t-1.66.06q-.83.06-1.67.16T113,21.1a26.75,26.75,0,0,0-10.61,4.59,28.62,28.62,0,0,0-7.73,8.45,31.36,31.36,0,0,0-4.07,11.13A33.42,33.42,0,0,0,91,57.82a33.77,33.77,0,0,0,4,10.11,32.27,32.27,0,0,0,6.61,7.9A30.13,30.13,0,0,0,110,81a27.63,27.63,0,0,0,9.58,2q.82,0,1.64,0t1.65-.11q.82-.08,1.65-.21t1.65-.32a26.81,26.81,0,0,0,10.36-4.83A28.76,28.76,0,0,0,144,69.09a31.44,31.44,0,0,0,3.86-10.88A33.41,33.41,0,0,0,147.5,46a33.8,33.8,0,0,0-3.77-9.89,32.38,32.38,0,0,0-6.33-7.86,30.31,30.31,0,0,0-8.24-5.33,27.79,27.79,0,0,0-9.49-2.27"/><polyline class="cls-35" points="114 39.21 99.44 53.44 116.27 65.08 120.49 60.92 108.63 52.69 118.89 42.64 114 39.21"/><polyline class="cls-36" points="123.11 38.52 118.89 42.64 108.63 52.69 120.49 60.92 125.35 64.29 139.64 50.16 123.11 38.52"/></g></g></g></g><g id="lights_shadows" data-name="lights shadows"><polygon class="cls-37" points="286.88 303.06 103.77 322.28 103.77 0 286.88 13.73 286.88 303.06"/><polygon class="cls-38" points="286.88 303.06 103.77 322.28 103.77 0 286.88 13.73 286.88 303.06"/><polygon class="cls-39" points="53.46 12.27 103.77 0 103.77 322.28 53.46 309.64 53.46 12.27"/><polygon class="cls-40" points="286.89 303.06 282.24 303.54 282.24 13.39 286.89 13.73 286.89 303.06"/><polygon class="cls-41" points="53.46 309.64 58.12 310.79 58.12 11.1 53.46 12.27 53.46 309.64"/><polygon class="cls-42" points="286.88 17.7 103.77 3.21 103.77 0 286.88 13.73 286.88 17.7"/><polygon class="cls-43" points="53.46 16.23 103.71 3.21 103.71 0 53.46 12.27 53.46 16.23"/><polygon class="cls-44" points="103.91 312.78 53.46 300.9 53.46 309.64 103.91 322.28 103.91 312.78"/><rect class="cls-45" x="102.05" width="3.32" height="322.28"/><polygon class="cls-46" points="111.32 321.49 103.71 322.28 103.71 0 111.32 0.57 111.32 321.49"/><polygon class="cls-47" points="103.77 312.78 286.88 294.31 286.88 303.06 103.77 322.28 103.77 312.78"/><polygon class="cls-37" points="286.88 303.06 103.77 322.28 103.77 0 286.88 13.73 286.88 303.06"/><polygon class="cls-48" points="100.39 321.48 103.71 322.28 103.71 0 100.39 0.84 100.39 321.48"/></g></g></g></svg>