<svg xmlns="http://www.w3.org/2000/svg" xmlns:xlink="http://www.w3.org/1999/xlink" viewBox="0 0 293.41 326.44"><defs><style>.cls-1{fill:none;}.cls-2{isolation:isolate;}.cls-3{opacity:0.7;}.cls-4{fill:#fff;opacity:0;}.cls-5{fill:#fbfbfb;opacity:0.05;}.cls-6{fill:#f8f8f8;opacity:0.1;}.cls-7{fill:#f4f4f4;opacity:0.14;}.cls-8{fill:#f1f1f0;opacity:0.19;}.cls-9{fill:#ededed;opacity:0.24;}.cls-10{fill:#e9e9e9;opacity:0.29;}.cls-11{fill:#e6e6e5;opacity:0.33;}.cls-12{fill:#e2e2e2;opacity:0.38;}.cls-13{fill:#dedede;opacity:0.43;}.cls-14{fill:#dbdbda;opacity:0.48;}.cls-15{fill:#d7d7d7;opacity:0.52;}.cls-16{fill:#d4d4d3;opacity:0.57;}.cls-17{fill:#d0d0cf;opacity:0.62;}.cls-18{fill:#ccc;opacity:0.67;}.cls-19{fill:#c9c9c8;opacity:0.71;}.cls-20{fill:#c5c5c4;opacity:0.76;}.cls-21{fill:#c1c1c1;opacity:0.81;}.cls-22{fill:#bebebd;opacity:0.86;}.cls-23{fill:#babab9;opacity:0.9;}.cls-24{fill:#b7b7b6;opacity:0.95;}.cls-25{fill:#b3b3b2;}.cls-26{fill:#fcda00;}.cls-27{fill:#ffca02;}.cls-28{fill:#d10910;}.cls-29{clip-path:url(#clip-path);}.cls-30{fill:#e7eaec;}.cls-31{fill:#95ceb8;}.cls-32{clip-path:url(#clip-path-2);}.cls-33{fill:#e5e5e2;}.cls-34{fill:#4ab285;}.cls-35{fill:#003d60;}.cls-36,.cls-45{mix-blend-mode:soft-light;}.cls-36{fill:url(#Безымянный_градиент_2036);}.cls-37,.cls-38,.cls-44{mix-blend-mode:multiply;}.cls-37{fill:url(#Безымянный_градиент_761);}.cls-38{fill:url(#Безымянный_градиент_2038);}.cls-39,.cls-40,.cls-41,.cls-42,.cls-43,.cls-46{mix-blend-mode:overlay;}.cls-39{fill:url(#Безымянный_градиент_148);}.cls-40{fill:url(#Безымянный_градиент_148-2);}.cls-41{fill:url(#Безымянный_градиент_147);}.cls-42{fill:url(#Безымянный_градиент_503);}.cls-43{fill:url(#Безымянный_градиент_543);}.cls-44{fill:url(#Безымянный_градиент_771);}.cls-45{fill:url(#Безымянный_градиент_13);}.cls-46{fill:url(#Безымянный_градиент_549);}.cls-47{mix-blend-mode:hard-light;fill:url(#Безымянный_градиент_8);}</style><clipPath id="clip-path"><polygon class="cls-1" points="103.49 80.89 81.45 62.94 81.45 42.34 103.49 18.16 103.49 80.89"/></clipPath><clipPath id="clip-path-2"><polygon class="cls-1" points="151.34 23.43 151.34 81.85 103.49 95.3 103.49 9.98 151.34 23.43"/></clipPath><linearGradient id="Безымянный_градиент_2036" x1="245.23" y1="-23.95" x2="141.06" y2="342.32" gradientUnits="userSpaceOnUse"><stop offset="0" stop-color="#fff"/><stop offset="0.42" stop-color="#d4cccc"/><stop offset="1" stop-color="#958080"/></linearGradient><linearGradient id="Безымянный_градиент_761" x1="235.97" y1="8.63" x2="150.82" y2="308.02" gradientUnits="userSpaceOnUse"><stop offset="0" stop-color="#fff"/><stop offset="0.66" stop-color="#f3f3f3"/><stop offset="1" stop-color="#eaeaea"/></linearGradient><linearGradient id="Безымянный_градиент_2038" x1="121.03" y1="10.01" x2="41.91" y2="303.35" gradientUnits="userSpaceOnUse"><stop offset="0" stop-color="#f1f4f1"/><stop offset="0.33" stop-color="#e8e2e4"/><stop offset="1" stop-color="#d8c2cd"/></linearGradient><linearGradient id="Безымянный_градиент_148" x1="282.24" y1="158.47" x2="286.89" y2="158.47" gradientUnits="userSpaceOnUse"><stop offset="0" stop-color="gray"/><stop offset="0.42" stop-color="#828282"/><stop offset="0.6" stop-color="#898989"/><stop offset="0.74" stop-color="#969696"/><stop offset="0.85" stop-color="#a8a8a8"/><stop offset="0.95" stop-color="#bfbfbf"/><stop offset="1" stop-color="#cfcfcf"/></linearGradient><linearGradient id="Безымянный_градиент_148-2" x1="-4448.35" y1="160.94" x2="-4443.7" y2="160.94" gradientTransform="matrix(-1, 0, 0, 1, -4390.23, 0)" xlink:href="#Безымянный_градиент_148"/><linearGradient id="Безымянный_градиент_147" x1="195.48" y1="6.87" x2="195.2" y2="10.45" gradientUnits="userSpaceOnUse"><stop offset="0" stop-color="#cfcfcf"/><stop offset="0.05" stop-color="#bfbfbf"/><stop offset="0.15" stop-color="#a8a8a8"/><stop offset="0.26" stop-color="#969696"/><stop offset="0.4" stop-color="#898989"/><stop offset="0.58" stop-color="#828282"/><stop offset="1" stop-color="gray"/></linearGradient><linearGradient id="Безымянный_градиент_503" x1="78.12" y1="6.35" x2="78.95" y2="9.51" gradientUnits="userSpaceOnUse"><stop offset="0" stop-color="#ebebeb"/><stop offset="0.04" stop-color="#dbdbdb"/><stop offset="0.12" stop-color="#bfbfbf"/><stop offset="0.21" stop-color="#a8a8a8"/><stop offset="0.32" stop-color="#969696"/><stop offset="0.44" stop-color="#898989"/><stop offset="0.61" stop-color="#828282"/><stop offset="1" stop-color="gray"/></linearGradient><linearGradient id="Безымянный_градиент_543" x1="77.68" y1="315.49" x2="79.88" y2="306.95" gradientUnits="userSpaceOnUse"><stop offset="0" stop-color="#414141"/><stop offset="0.03" stop-color="#565656"/><stop offset="0.08" stop-color="#696969"/><stop offset="0.13" stop-color="#767676"/><stop offset="0.19" stop-color="#7e7e7e"/><stop offset="0.32" stop-color="gray"/></linearGradient><linearGradient id="Безымянный_градиент_771" x1="102.05" y1="161.14" x2="105.37" y2="161.14" gradientUnits="userSpaceOnUse"><stop offset="0" stop-color="#fff"/><stop offset="0.21" stop-color="#fefefd"/><stop offset="0.3" stop-color="#fcfcf6"/><stop offset="0.36" stop-color="#f9f7e9"/><stop offset="0.42" stop-color="#f4f1d8"/><stop offset="0.46" stop-color="#ede9c1"/><stop offset="0.48" stop-color="#eae5b5"/><stop offset="0.5" stop-color="#eeeac3"/><stop offset="0.55" stop-color="#f4f2d9"/><stop offset="0.61" stop-color="#f9f8ea"/><stop offset="0.67" stop-color="#fcfcf6"/><stop offset="0.76" stop-color="#fefefd"/><stop offset="1" stop-color="#fff"/></linearGradient><linearGradient id="Безымянный_градиент_13" x1="103.71" y1="161.14" x2="111.32" y2="161.14" gradientUnits="userSpaceOnUse"><stop offset="0" stop-color="gray"/><stop offset="0.01" stop-color="#858586"/><stop offset="0.04" stop-color="#97999e"/><stop offset="0.07" stop-color="#a2a5ac"/><stop offset="0.1" stop-color="#a6a9b1"/><stop offset="0.14" stop-color="#9fa1a8"/><stop offset="0.26" stop-color="#919296"/><stop offset="0.39" stop-color="#878889"/><stop offset="0.58" stop-color="#828282"/><stop offset="1" stop-color="gray"/></linearGradient><linearGradient id="Безымянный_градиент_549" x1="195.71" y1="312.06" x2="194.87" y2="303.76" gradientUnits="userSpaceOnUse"><stop offset="0" stop-color="#060606"/><stop offset="0.06" stop-color="#292929"/><stop offset="0.14" stop-color="#4e4e4e"/><stop offset="0.21" stop-color="#6a6a6a"/><stop offset="0.27" stop-color="#7a7a7a"/><stop offset="0.32" stop-color="gray"/></linearGradient><linearGradient id="Безымянный_градиент_8" x1="-4390.74" y1="161.14" x2="-4387.42" y2="161.14" gradientTransform="matrix(-1, 0, 0, 1, -4287.03, 0)" gradientUnits="userSpaceOnUse"><stop offset="0" stop-color="gray"/><stop offset="0.02" stop-color="#999992"/><stop offset="0.05" stop-color="#afb1a3"/><stop offset="0.08" stop-color="#bdbfad"/><stop offset="0.1" stop-color="#c2c4b0"/><stop offset="0.12" stop-color="#bdbfac"/><stop offset="0.21" stop-color="#a7a89c"/><stop offset="0.31" stop-color="#95968f"/><stop offset="0.44" stop-color="#898987"/><stop offset="0.61" stop-color="#828281"/><stop offset="1" stop-color="gray"/></linearGradient></defs><title>salary</title><g class="cls-2"><g id="Layer_2" data-name="Layer 2"><g id="box_color" data-name="box color"><g class="cls-3"><path class="cls-4" d="M8.27,314.71C39.94,321.58,91.2,325,91.2,325a52.65,52.65,0,0,0,18.4,1.15l180.31-20.6c4.58-.15,4.43-5,.92-5.66l-202-29a78.62,78.62,0,0,0-24.89-.44S36.5,293.17,12.38,297C.88,298.83-6.55,311.49,8.27,314.71Z"/><path class="cls-5" d="M10.52,314.49c30.16,6.55,81.22,10.32,81.22,10.32a50.48,50.48,0,0,0,17.64,1.1l180.2-20.51c4.39-.15,4.24-4.84.87-5.44L91.25,271.3a75.22,75.22,0,0,0-23.8-.42s-30,23.06-53,26.71C3.46,299.33-3.62,311.42,10.52,314.49Z"/><path class="cls-6" d="M12.77,314.27c28.65,6.22,79.5,10.4,79.5,10.4a48.32,48.32,0,0,0,16.88,1.05l180.09-20.42c4.2-.14,4.06-4.65.83-5.22L93.71,271.77a71.82,71.82,0,0,0-22.72-.4s-32.69,23.33-54.5,26.8C6,299.84-.68,311.35,12.77,314.27Z"/><path class="cls-7" d="M15,314.06c27.15,5.89,77.78,10.47,77.78,10.47a46.15,46.15,0,0,0,16.12,1l180-20.32c4-.14,3.88-4.45.79-5l-193.51-28a68.42,68.42,0,0,0-21.63-.38s-35.33,23.61-56,26.89C8.62,300.34,2.25,311.28,15,314.06Z"/><path class="cls-8" d="M17.26,313.84c25.64,5.56,76.07,10.55,76.07,10.55a44,44,0,0,0,15.36,1l179.87-20.23c3.82-.14,3.7-4.26.75-4.78L98.64,272.72a65,65,0,0,0-20.54-.36s-38,23.89-57.49,27C11.21,300.84,5.18,311.21,17.26,313.84Z"/><path class="cls-9" d="M19.51,313.62c24.13,5.24,74.35,10.62,74.35,10.62a41.81,41.81,0,0,0,14.61.92L288.23,305c3.63-.13,3.52-4.06.7-4.56L101.1,273.2a61.61,61.61,0,0,0-19.46-.34S41,297,22.66,299.94C13.79,301.35,8.12,311.15,19.51,313.62Z"/><path class="cls-10" d="M21.76,313.41c22.62,4.91,72.63,10.7,72.63,10.7a39.65,39.65,0,0,0,13.85.87l179.65-20c3.44-.13,3.34-3.87.66-4.34l-185-26.92a58.21,58.21,0,0,0-18.37-.32s-43.26,24.44-60.48,27.18C16.37,301.85,11.05,311.08,21.76,313.41Z"/><path class="cls-11" d="M24,313.19C45.12,317.77,94.93,324,94.93,324a37.48,37.48,0,0,0,13.09.82l179.53-20c3.26-.12,3.16-3.67.62-4.12L106,274.14a54.81,54.81,0,0,0-17.28-.3s-45.9,24.72-62,27.27C19,302.36,14,311,24,313.19Z"/><path class="cls-12" d="M26.26,313c19.6,4.26,69.2,10.85,69.2,10.85a35.31,35.31,0,0,0,12.33.78l179.42-19.87c3.07-.12,3-3.48.58-3.9l-179.3-26.22a51.41,51.41,0,0,0-16.2-.28s-48.55,25-63.47,27.37C21.54,302.86,16.92,310.94,26.26,313Z"/><path class="cls-13" d="M28.51,312.75C46.61,316.68,96,323.68,96,323.68a33.15,33.15,0,0,0,11.57.73l179.31-19.77c2.88-.11,2.8-3.28.53-3.68L111,275.09a48,48,0,0,0-15.11-.26s-51.19,25.27-65,27.46C24.12,303.37,19.86,310.87,28.51,312.75Z"/><path class="cls-14" d="M30.76,312.54c16.59,3.6,65.76,11,65.76,11a31,31,0,0,0,10.82.68l179.2-19.68c2.69-.11,2.62-3.09.49-3.46L113.42,275.57a44.6,44.6,0,0,0-14-.24s-53.83,25.55-66.46,27.55C26.7,303.87,22.79,310.8,30.76,312.54Z"/><path class="cls-15" d="M33,312.32c15.08,3.27,64,11.07,64,11.07a28.81,28.81,0,0,0,10.06.64L286.2,304.44c2.5-.11,2.44-2.89.45-3.24L115.88,276a41.2,41.2,0,0,0-12.94-.22s-56.47,25.83-68,27.65C29.28,304.37,25.72,310.73,33,312.32Z"/><path class="cls-16" d="M35.26,312.1c13.57,2.95,62.33,11.15,62.33,11.15a26.64,26.64,0,0,0,9.3.59l179-19.5c2.31-.1,2.26-2.7.41-3L118.35,276.51a37.8,37.8,0,0,0-11.85-.2S47.38,302.42,37,304.06C31.86,304.88,28.66,310.66,35.26,312.1Z"/><path class="cls-17" d="M37.51,311.89c12.06,2.62,60.61,11.23,60.61,11.23a24.48,24.48,0,0,0,8.54.55l178.87-19.41c2.12-.1,2.08-2.5.36-2.8L120.81,277a34.4,34.4,0,0,0-10.76-.18S48.29,303.19,39.1,304.65C34.45,305.38,31.59,310.59,37.51,311.89Z"/><path class="cls-18" d="M39.76,311.67C50.31,314,98.65,323,98.65,323a22.31,22.31,0,0,0,7.79.5l178.75-19.31c1.93-.09,1.9-2.31.32-2.58L123.27,277.46a31,31,0,0,0-9.68-.16S49.19,304,41.16,305.24C37,305.89,34.53,310.53,39.76,311.67Z"/><path class="cls-19" d="M42,311.45c9,2,57.18,11.38,57.18,11.38a20.14,20.14,0,0,0,7,.45l178.64-19.22a1.19,1.19,0,1,0,.28-2.36l-159.4-23.76a27.6,27.6,0,0,0-8.59-.14s-67,26.93-73.94,28C39.61,306.39,37.46,310.46,42,311.45Z"/><path class="cls-20" d="M44.25,311.24c7.54,1.64,55.46,11.45,55.46,11.45a18,18,0,0,0,6.27.41L284.52,304a1.08,1.08,0,0,0,.24-2.14L128.2,278.41a24.2,24.2,0,0,0-7.5-.12S51,305.5,45.27,306.42C42.19,306.9,40.4,310.39,44.25,311.24Z"/><path class="cls-21" d="M46.5,311c6,1.31,53.75,11.53,53.75,11.53a15.81,15.81,0,0,0,5.51.36l178.42-19a1,1,0,0,0,.19-1.92L130.66,278.89a20.8,20.8,0,0,0-6.42-.1S51.91,306.27,47.32,307C44.77,307.4,43.33,310.32,46.5,311Z"/><path class="cls-22" d="M48.75,310.8c4.52,1,52,11.6,52,11.6a13.64,13.64,0,0,0,4.75.31l178.31-18.95a.85.85,0,0,0,.15-1.7L133.13,279.36a17.4,17.4,0,0,0-5.33-.08s-75,27.77-78.42,28.31C47.36,307.91,46.26,310.26,48.75,310.8Z"/><path class="cls-23" d="M51,310.58c3,.67,50.31,11.68,50.31,11.68a11.48,11.48,0,0,0,4,.27l178.2-18.85a.74.74,0,0,0,.11-1.48l-148-22.36a14,14,0,0,0-4.24-.06s-77.62,28-79.91,28.4C49.94,308.41,49.2,310.19,51,310.58Z"/><path class="cls-24" d="M53.25,310.37c1.51.34,48.6,11.75,48.6,11.75a9.31,9.31,0,0,0,3.24.22l178.09-18.76a.63.63,0,0,0,.07-1.26l-145.18-22a10.62,10.62,0,0,0-3.16,0s-80.26,28.32-81.41,28.5C52.52,308.92,52.13,310.12,53.25,310.37Z"/><path class="cls-25" d="M55.5,310.15,102.38,322a7.14,7.14,0,0,0,2.48.17l178-18.67a.52.52,0,0,0,0-1L140.52,280.78a7.25,7.25,0,0,0-2.07,0l-82.9,28.59A.4.4,0,0,0,55.5,310.15Z"/></g><polygon class="cls-26" points="286.89 303.06 103.78 322.28 103.78 0 286.89 13.73 286.89 303.06"/><polygon class="cls-27" points="53.47 12.27 103.78 0 103.78 322.28 53.47 309.64 53.47 12.27"/><path class="cls-28" d="M136.65,184.82h-.18l-.19,0-.2,0-.22,0-.23.07-.24.1-.24.13-.24.15.5,1.15.27-.18.26-.13.26-.08.25,0h.16l.15,0,.13,0,.11.07.08.09.06.1a.53.53,0,0,1,0,.11.55.55,0,0,1,0,.12.66.66,0,0,1,0,.26.48.48,0,0,1-.15.19.68.68,0,0,1-.24.12,1.37,1.37,0,0,1-.34,0h-.82v1.19h.82a1.58,1.58,0,0,1,.37,0,.71.71,0,0,1,.26.11.46.46,0,0,1,.16.19.65.65,0,0,1,.05.27.64.64,0,0,1,0,.12.58.58,0,0,1,0,.11l-.06.11-.08.1-.1.09-.13.07-.16,0-.19,0h-.15l-.16,0-.16-.06-.17-.08-.16-.09-.16-.11-.15-.12-.14-.13-.59,1.1.2.17.19.15.18.13.17.1.17.09.16.07.15.05.15,0,.15,0,.16,0h.34l.27,0,.26,0,.25-.07.25-.1.22-.12.2-.15.18-.17.16-.2a1.6,1.6,0,0,0,.12-.22,1.64,1.64,0,0,0,.09-.24,1.75,1.75,0,0,0,.05-.25,1.94,1.94,0,0,0,0-.27,1.85,1.85,0,0,0-.06-.49,1.29,1.29,0,0,0-.18-.4,1.22,1.22,0,0,0-.3-.3,1.62,1.62,0,0,0-.42-.21h0l.18-.09.16-.12.14-.14.13-.17a1.24,1.24,0,0,0,.11-.18,1.29,1.29,0,0,0,.07-.2,1.46,1.46,0,0,0,0-.21,1.76,1.76,0,0,0,0-.23,1.69,1.69,0,0,0,0-.22,1.52,1.52,0,0,0,0-.21,1.39,1.39,0,0,0-.07-.2,1.32,1.32,0,0,0-.11-.19,1.38,1.38,0,0,0-.13-.18l-.16-.16-.19-.14-.21-.12-.23-.1-.25-.07-.27,0h-.29"/><path class="cls-28" d="M141.26,189.75l-.18,0-.16-.05-.13-.09a.66.66,0,0,1-.11-.13l-.08-.15a1.19,1.19,0,0,1-.06-.17,1.29,1.29,0,0,1,0-.18,1.47,1.47,0,0,1,0-.19s0-.07,0-.11,0-.07,0-.11l0-.11,0-.11,0-.11.05-.1.07-.09.08-.08.09-.07.1,0,.12,0h.29l.15,0,.13.08.11.12.09.15a1,1,0,0,1,.07.16,1.15,1.15,0,0,1,0,.18,1.34,1.34,0,0,1,0,.2,1.37,1.37,0,0,1,0,.14,1.3,1.3,0,0,1,0,.13l0,.12,0,.11,0,.11-.06.1-.07.08-.09.07-.09.06-.1,0-.11,0h-.12m-.45-3.15-.25,0-.23.06-.21.09-.2.13-.18.17-.15.19-.13.22a2.6,2.6,0,0,0-.11.24q0,.12-.08.26t-.06.27,0,.28,0,.29q0,.16,0,.3t0,.29.07.27.09.26a2.3,2.3,0,0,0,.11.23l.13.21.15.18.18.16.2.12.21.08.22,0h.23a1.59,1.59,0,0,0,.35,0,1.29,1.29,0,0,0,.31-.12,1.3,1.3,0,0,0,.27-.2,1.64,1.64,0,0,0,.23-.28v.49l1.22,0v-4.05l-1.22,0v.49l-.12-.16-.13-.14-.13-.11-.14-.09-.15-.06-.16,0-.17,0h-.18"/><path class="cls-28" d="M146,189.66l-.18,0-.16-.05-.13-.09a.62.62,0,0,1-.11-.13l-.08-.15a1.19,1.19,0,0,1-.06-.16,1.28,1.28,0,0,1,0-.18,1.47,1.47,0,0,1,0-.19,1.36,1.36,0,0,1,0-.18,1.28,1.28,0,0,1,0-.17,1.24,1.24,0,0,1,.06-.17l.08-.16a.65.65,0,0,1,.11-.12l.13-.09.16-.06.18,0h.17l.15,0,.13.08.11.12.09.15a1,1,0,0,1,.07.16,1.14,1.14,0,0,1,0,.18,1.34,1.34,0,0,1,0,.19,1.45,1.45,0,0,1,0,.2,1.2,1.2,0,0,1,0,.18,1.07,1.07,0,0,1-.07.17l-.09.15-.11.12-.13.09-.15.06-.17,0m.45-3.16h-.18l-.17,0-.16,0-.14.07-.14.09-.13.12-.13.14-.13.16v-.48l-1.23,0v5.81l1.28,0v-2.17a1.64,1.64,0,0,0,.24.24,1.34,1.34,0,0,0,.27.17,1.28,1.28,0,0,0,.29.1,1.45,1.45,0,0,0,.32,0l.25,0,.23-.06.21-.1.2-.13.17-.17.15-.19a2.05,2.05,0,0,0,.13-.22,2.24,2.24,0,0,0,.1-.24q0-.13.08-.26t.06-.27,0-.27,0-.28,0-.21,0-.21,0-.21,0-.2a1.92,1.92,0,0,0-.06-.19l-.07-.18-.09-.16-.1-.15-.11-.14-.12-.12-.13-.11-.14-.09-.16-.07-.17-.05-.18,0h-.19"/><polyline class="cls-28" points="152.37 186.56 148.69 186.62 148.69 190.66 149.97 190.64 149.97 187.59 151.09 187.58 151.09 190.62 152.37 190.59 152.37 186.56"/><path class="cls-28" d="M156.88,186.48l-3.3.06v2.3a1.49,1.49,0,0,1,0,.32.68.68,0,0,1-.09.23.4.4,0,0,1-.15.14.47.47,0,0,1-.21,0l-.22,0v1.05l.23,0,.19,0h.25l.26,0,.23-.05.19-.08.16-.11.13-.13.1-.14.08-.14a.9.9,0,0,0,.05-.15l0-.15,0-.16q0-.08,0-.16t0-.17v-1.69h.81v3l1.27,0v-4"/><path class="cls-28" d="M159.57,189.41l-.18,0-.15-.05-.13-.09a.65.65,0,0,1-.1-.13l-.08-.15a1.25,1.25,0,0,1-.06-.16,1.23,1.23,0,0,1,0-.17,1.28,1.28,0,0,1,0-.19,1,1,0,0,1,0-.11s0-.07,0-.11l0-.11,0-.11,0-.11.05-.1.06-.09.08-.08.09-.07.1,0,.11,0h.3l.15,0,.13.08.11.12a.9.9,0,0,1,.09.14,1,1,0,0,1,.06.16,1.19,1.19,0,0,1,0,.18,1.54,1.54,0,0,1,0,.19s0,.09,0,.14,0,.09,0,.13a1.13,1.13,0,0,1,0,.12l0,.11,0,.11-.06.1-.07.08-.08.07-.09.06-.1,0-.11,0h-.12m-.44-3.12-.24,0-.23.06-.21.09-.19.13-.17.16-.15.19-.13.21a2.58,2.58,0,0,0-.11.24q0,.12-.08.25t-.06.27,0,.28,0,.28q0,.15,0,.3t0,.29a2.74,2.74,0,0,0,.06.27,2.53,2.53,0,0,0,.09.26,2.07,2.07,0,0,0,.11.23l.13.2.16.18.17.16.19.12.2.08.22,0h.23a1.55,1.55,0,0,0,.35,0,1.22,1.22,0,0,0,.57-.32,1.53,1.53,0,0,0,.22-.28v.48l1.21,0v-4l-1.21,0v.48l-.11-.16-.12-.13-.13-.11-.14-.09-.14-.06-.15,0-.16,0h-.18"/><polyline class="cls-28" points="165.01 186.34 161.93 186.4 161.93 187.44 162.85 187.43 162.85 190.4 164.11 190.37 164.11 187.41 165.01 187.39 165.01 186.34"/><path class="cls-28" d="M167.32,189.27l-.17,0-.15-.05-.13-.09a.62.62,0,0,1-.1-.13l-.08-.15a1.19,1.19,0,0,1-.06-.16,1.29,1.29,0,0,1,0-.17,1.47,1.47,0,0,1,0-.19s0-.07,0-.11,0-.07,0-.11l0-.11,0-.11,0-.11.06-.1.07-.09.08-.08.09-.07.1,0,.11,0h.29l.15,0,.13.08.11.12a.9.9,0,0,1,.09.14,1,1,0,0,1,.06.16,1.19,1.19,0,0,1,0,.18,1.54,1.54,0,0,1,0,.19s0,.09,0,.13,0,.09,0,.13a1.13,1.13,0,0,1,0,.12l0,.11-.05.11-.06.1-.07.08-.08.07-.09.06-.1,0-.11,0h-.11m-.43-3.11-.25,0-.23.06-.21.09-.19.12-.17.16-.15.19a2,2,0,0,0-.13.21,2.22,2.22,0,0,0-.1.23q0,.12-.08.25t-.06.27,0,.28,0,.28q0,.15,0,.3t0,.28.06.27.09.26a2.24,2.24,0,0,0,.11.23l.13.2.15.18.18.16.19.12.2.08.22,0h.23a1.48,1.48,0,0,0,.34,0,1.24,1.24,0,0,0,.3-.12,1.28,1.28,0,0,0,.26-.2,1.62,1.62,0,0,0,.23-.28v.48l1.2,0v-4l-1.2,0v.48l-.12-.16-.13-.13-.13-.11-.13-.08-.14-.06-.15,0-.16,0h-.17"/><polyline class="cls-28" points="176.22 186.16 175.04 186.18 173.78 188.34 173.78 186.2 172.53 186.22 172.53 190.22 173.75 190.19 174.98 187.96 174.98 190.17 176.22 190.15 176.22 186.16"/><polyline class="cls-28" points="183.49 186.03 182.22 186.05 181.42 188.2 180.48 186.08 179.03 186.11 180.73 189.49 179.68 191.81 181.02 191.78 183.49 186.03"/><polyline class="cls-28" points="187.38 185.97 183.82 186.03 183.82 190 185.05 189.98 185.05 186.99 186.13 186.97 186.13 189.96 187.38 189.94 187.38 185.97"/><path class="cls-28" d="M190,188.85l-.18,0-.15-.05-.13-.09a.61.61,0,0,1-.1-.13l-.08-.15a1.19,1.19,0,0,1-.06-.16,1.28,1.28,0,0,1,0-.17,1.46,1.46,0,0,1,0-.18,1.35,1.35,0,0,1,0-.18,1.28,1.28,0,0,1,0-.17,1.24,1.24,0,0,1,.06-.16l.08-.15a.63.63,0,0,1,.1-.12l.13-.09.15-.06.18,0h.16l.15,0,.13.08a.56.56,0,0,1,.1.12l.09.14a1,1,0,0,1,.06.16,1.14,1.14,0,0,1,0,.17,1.34,1.34,0,0,1,0,.19,1.45,1.45,0,0,1,0,.2,1.2,1.2,0,0,1,0,.18,1.06,1.06,0,0,1-.06.16l-.09.15a.65.65,0,0,1-.1.12l-.13.09-.15.06-.16,0m.43-3.09h-.17l-.16,0-.15,0-.14.07-.13.09-.13.11-.13.14-.13.16v-.48l-1.18,0v5.69l1.23,0V189.5a1.59,1.59,0,0,0,.23.23,1.28,1.28,0,0,0,.26.17,1.21,1.21,0,0,0,.28.1,1.37,1.37,0,0,0,.31,0l.24,0,.22-.06.21-.1.19-.13.17-.17.15-.19.12-.21a2.23,2.23,0,0,0,.1-.23q0-.13.08-.26t.06-.26,0-.26,0-.27,0-.21,0-.21,0-.2l0-.2-.06-.18-.07-.17-.08-.16-.09-.15-.1-.14-.12-.12-.13-.11-.14-.09-.16-.07-.17,0-.17,0h-.18"/><path class="cls-28" d="M194.44,188.77l-.17,0-.15-.05-.13-.09a.61.61,0,0,1-.1-.13l-.08-.15a1.18,1.18,0,0,1-.06-.16,1.28,1.28,0,0,1,0-.17,1.47,1.47,0,0,1,0-.18s0-.07,0-.11,0-.07,0-.11l0-.11,0-.11,0-.11.05-.1.07-.09L194,187l.09-.06.1,0,.11,0h.29l.15,0,.13.08.11.12a.89.89,0,0,1,.08.14,1,1,0,0,1,.06.16,1.19,1.19,0,0,1,0,.17,1.54,1.54,0,0,1,0,.19s0,.09,0,.13,0,.09,0,.13a1.13,1.13,0,0,1,0,.12l0,.11,0,.11-.06.09-.07.08-.08.07-.09.06-.1,0-.1,0h-.11M194,185.7l-.24,0-.22.06-.21.09-.19.12-.17.16-.14.19a1.94,1.94,0,0,0-.12.21,2.2,2.2,0,0,0-.1.23q0,.12-.08.25t-.06.26,0,.27,0,.28q0,.15,0,.3t0,.28.06.27a2.55,2.55,0,0,0,.08.25,2,2,0,0,0,.11.23l.13.2.15.18.17.15.18.11.2.08.21,0H194a1.43,1.43,0,0,0,.33,0,1.2,1.2,0,0,0,.29-.12,1.25,1.25,0,0,0,.26-.2,1.6,1.6,0,0,0,.22-.28v.47l1.17,0v-4l-1.17,0v.47l-.12-.15-.12-.13-.12-.11-.13-.08-.14-.06-.15,0-.16,0H194"/><path class="cls-28" d="M198.26,188.87v-.76h.62l.08,0,.07,0,.06,0,.11.29-.09.28-.06,0-.07,0-.08,0h-.62m0-1.54v-.7h.5l.16,0a.28.28,0,0,1,.11.06.25.25,0,0,1,.07.1.43.43,0,0,1,0,.15.5.5,0,0,1,0,.16.3.3,0,0,1-.07.11.29.29,0,0,1-.11.07l-.16,0h-.5m1-1.56-2.2,0v4l2.25,0,.29,0,.24-.07a.73.73,0,0,0,.19-.11.61.61,0,0,0,.13-.16l.09-.17a1.34,1.34,0,0,0,.07-.17,1.15,1.15,0,0,0,0-.17,1.06,1.06,0,0,0,0-.17,1.77,1.77,0,0,0,0-.22,1.22,1.22,0,0,0,0-.19.89.89,0,0,0-.07-.16.74.74,0,0,0-.09-.14l-.11-.11-.12-.09-.13-.06-.14,0h0l.15-.08.12-.09.1-.11.07-.13.06-.14,0-.14a1.37,1.37,0,0,0,0-.3,1.08,1.08,0,0,0,0-.17,1,1,0,0,0,0-.16.94.94,0,0,0-.07-.15L200,186a.55.55,0,0,0-.13-.12l-.17-.08-.21,0h-.25"/><path class="cls-28" d="M204.53,185.68l-3.15.05V188a1.48,1.48,0,0,1,0,.31.67.67,0,0,1-.09.22.38.38,0,0,1-.14.14.44.44,0,0,1-.2,0l-.22,0v1l.23,0,.18,0h.23l.25,0,.22,0,.18-.08.15-.1.13-.13.1-.13.07-.14a1,1,0,0,0,0-.14s0-.1,0-.15,0-.1,0-.15,0-.11,0-.16,0-.11,0-.16v-1.65h.78v3l1.21,0v-3.94"/><path class="cls-28" d="M206.29,187.14a1.21,1.21,0,0,1,0-.15,1,1,0,0,1,0-.14l.06-.14.08-.13.1-.1.11-.08.13,0,.15,0h.15l.13,0,.11.07.09.1.08.13.06.13a1,1,0,0,1,0,.14,1.21,1.21,0,0,1,0,.15l-1.35,0m.68-1.66-.26,0-.24.05-.23.08-.22.11-.2.14-.18.17-.16.2a2,2,0,0,0-.13.23,2.19,2.19,0,0,0-.1.25,2.5,2.5,0,0,0-.07.28,2.84,2.84,0,0,0,0,.3q0,.15,0,.31c0,.08,0,.16,0,.23s0,.15,0,.22,0,.14,0,.21l.05.2a1.9,1.9,0,0,0,.07.19l.09.17.1.16.12.15.12.13.14.11.16.1.17.09.17.06.19,0,.2,0H207l.36,0,.32-.08a1.57,1.57,0,0,0,.28-.12,1.29,1.29,0,0,0,.23-.17,1.9,1.9,0,0,0,.2-.21,2,2,0,0,0,.16-.23,2.21,2.21,0,0,0,.13-.26,2.48,2.48,0,0,0,.1-.28l-1.16,0,0,.11,0,.1-.06.09-.08.07-.09.06-.1,0-.11,0h-.24l-.11,0-.1,0-.09-.05-.07-.08-.06-.09-.05-.09,0-.1,0-.11,0-.11s0-.08,0-.12,0-.08,0-.12l2.53,0q0-.16,0-.31t0-.3-.05-.29-.08-.28a1.91,1.91,0,0,0-.1-.26,1.78,1.78,0,0,0-.13-.23,1.7,1.7,0,0,0-.16-.21l-.19-.18a1.33,1.33,0,0,0-.23-.15l-.26-.1-.28-.06-.31,0"/><polyline class="cls-28" points="212.92 185.53 211.72 185.56 211.72 186.94 210.61 186.96 210.61 185.57 209.4 185.59 209.4 189.53 210.61 189.5 210.61 187.93 211.72 187.91 211.72 189.48 212.92 189.46 212.92 185.53"/><polyline class="cls-28" points="217.25 185.46 216.09 185.48 214.9 187.6 214.9 185.5 213.69 185.52 213.69 189.44 214.86 189.42 216.05 187.23 216.05 189.4 217.25 189.38 217.25 185.46"/><path class="cls-28" d="M219,186.92a1.2,1.2,0,0,1,0-.15,1,1,0,0,1,0-.14l.06-.13.08-.13.1-.1.11-.08.13,0,.15,0h.15l.13,0,.11.07.09.1.08.13.06.13a1,1,0,0,1,0,.14,1,1,0,0,1,0,.15l-1.35,0m.67-1.65-.25,0-.24.05-.22.08-.21.11-.2.14-.18.17a1.66,1.66,0,0,0-.15.2,1.8,1.8,0,0,0-.13.22,2,2,0,0,0-.11.25,2.32,2.32,0,0,0-.08.27,2.7,2.7,0,0,0,0,.29q0,.15,0,.31c0,.08,0,.16,0,.23s0,.15,0,.22,0,.14,0,.21l.05.2a1.9,1.9,0,0,0,.07.19l.09.17.1.16.12.15.13.13.14.11.15.1.17.09.17.06.18,0,.19,0h.2l.36,0,.32-.08a1.52,1.52,0,0,0,.27-.12,1.3,1.3,0,0,0,.23-.17,1.82,1.82,0,0,0,.2-.2,1.87,1.87,0,0,0,.17-.23,2,2,0,0,0,.13-.26,2.2,2.2,0,0,0,.1-.28l-1.15,0a.65.65,0,0,1,0,.11l0,.1-.06.08-.08.07-.08.06-.1,0-.11,0h-.24l-.1,0-.1,0-.09-.05-.07-.08-.06-.09-.05-.09,0-.1,0-.11,0-.11s0-.08,0-.12,0-.08,0-.12l2.51,0q0-.16,0-.31t0-.3-.05-.29-.07-.28a2.11,2.11,0,0,0-.1-.26,1.91,1.91,0,0,0-.13-.23,1.75,1.75,0,0,0-.16-.21l-.19-.18a1.34,1.34,0,0,0-.22-.15l-.25-.1-.28-.06-.31,0"/><polyline class="cls-28" points="227.87 185.28 224.44 185.34 224.44 189.24 225.63 189.22 225.63 186.28 226.67 186.26 226.67 189.2 227.87 189.18 227.87 185.28"/><path class="cls-28" d="M229.59,186.73a1.21,1.21,0,0,1,0-.15,1,1,0,0,1,0-.14l.06-.13.08-.13.1-.1L230,186l.13,0,.15,0h.15l.13,0,.11.07.09.1.08.12.06.13a1,1,0,0,1,0,.14,1.19,1.19,0,0,1,0,.15l-1.32,0m.67-1.64-.25,0-.24.05-.22.08-.21.11-.2.14-.17.17-.15.19a2,2,0,0,0-.13.22,2.19,2.19,0,0,0-.1.25,2.5,2.5,0,0,0-.07.27,2.84,2.84,0,0,0,0,.29q0,.15,0,.31c0,.08,0,.16,0,.23s0,.15,0,.22,0,.14,0,.21l.05.2a1.91,1.91,0,0,0,.07.19l.08.17.1.16.11.15.12.13.14.11.15.1.17.08.17.06.18,0,.19,0h.2l.35,0,.31-.08a1.52,1.52,0,0,0,.27-.12,1.26,1.26,0,0,0,.23-.17,1.88,1.88,0,0,0,.19-.2,2,2,0,0,0,.16-.23,2.2,2.2,0,0,0,.13-.26,2.46,2.46,0,0,0,.1-.28l-1.14,0,0,.11,0,.1-.06.08-.08.07-.08.06-.1,0-.11,0h-.24l-.11,0-.1,0-.08-.05-.07-.08-.06-.08-.05-.09,0-.1,0-.1,0-.11s0-.08,0-.12,0-.08,0-.12l2.48,0q0-.16,0-.31t0-.3-.05-.29-.08-.28a1.89,1.89,0,0,0-.09-.25,1.77,1.77,0,0,0-.13-.23,1.68,1.68,0,0,0-.16-.21l-.18-.18a1.32,1.32,0,0,0-.22-.15l-.25-.1-.28-.06-.31,0"/><path class="cls-28" d="M234.41,188h-.17l-.14-.05-.12-.09a.62.62,0,0,1-.1-.12l-.08-.15a1.17,1.17,0,0,1-.05-.16,1.28,1.28,0,0,1,0-.17,1.47,1.47,0,0,1,0-.18,1.36,1.36,0,0,1,0-.17,1.28,1.28,0,0,1,0-.17,1.22,1.22,0,0,1,.05-.16l.08-.15.1-.12.12-.09.14-.05.17,0h.16l.14,0,.12.08.1.11.08.14a1,1,0,0,1,.06.16,1.19,1.19,0,0,1,0,.17,1.54,1.54,0,0,1,0,.19,1.67,1.67,0,0,1,0,.2,1.24,1.24,0,0,1,0,.18,1,1,0,0,1-.06.16l-.08.14-.1.12-.12.09-.14.05-.16,0m.41-3h-.16l-.15,0-.14,0-.13.06-.13.09-.12.11-.12.13-.11.16v-.47l-1.13,0v5.57l1.18,0v-2.08a1.55,1.55,0,0,0,.22.23,1.24,1.24,0,0,0,.24.16,1.14,1.14,0,0,0,.27.09,1.23,1.23,0,0,0,.29,0l.24,0,.22-.06.2-.09.18-.13.16-.17.14-.19.12-.21a2.2,2.2,0,0,0,.1-.23q0-.12.07-.25t.05-.25,0-.26,0-.26,0-.2,0-.2,0-.2,0-.2l-.06-.18-.07-.17-.08-.16-.09-.15-.1-.13-.11-.12-.13-.1-.14-.09-.15-.07-.16,0-.17,0h-.18"/><path class="cls-28" d="M238.4,185h-.18l-.18,0-.17,0-.16.07-.14.08-.14.1-.13.12-.12.14-.1.14-.09.16-.08.17-.07.18q0,.1-.05.2t0,.2,0,.21,0,.22,0,.29,0,.28.06.26.08.25a2,2,0,0,0,.11.22l.13.2.16.17.18.15.19.11.21.08.23,0h.25l.26,0,.26-.06.26-.09.26-.13v-1.24l-.19.17-.18.13-.18.08-.18,0h-.1l-.1,0-.09,0-.09,0-.08-.06-.07-.07-.06-.09,0-.1,0-.11a.92.92,0,0,1,0-.12s0-.09,0-.13,0-.09,0-.15,0-.09,0-.14,0-.09,0-.13a1.19,1.19,0,0,1,0-.12l0-.11,0-.11.06-.09.07-.08.08-.07.08-.06.08,0,.09,0h.21l.11,0,.1,0,.1,0,.09.06.09.07.09.08.08.09v-1.23l-.13-.07-.13-.06-.13-.05-.12,0-.12,0-.13,0h-.27"/><path class="cls-28" d="M241.76,188l-.17,0-.15-.05-.12-.09a.61.61,0,0,1-.1-.13,1.05,1.05,0,0,1-.08-.16,1.27,1.27,0,0,1-.06-.18,1.65,1.65,0,0,1,0-.2,2.21,2.21,0,0,1,0-.22,2.08,2.08,0,0,1,0-.22,1.64,1.64,0,0,1,0-.2,1.32,1.32,0,0,1,.06-.18,1.1,1.1,0,0,1,.08-.17.68.68,0,0,1,.1-.13l.12-.1.15-.06.17,0,.17,0,.15.06.12.09a.63.63,0,0,1,.1.13,1,1,0,0,1,.08.16,1.27,1.27,0,0,1,.06.18,1.61,1.61,0,0,1,0,.2,2.08,2.08,0,0,1,0,.22,2.23,2.23,0,0,1,0,.23,1.67,1.67,0,0,1,0,.21,1.3,1.3,0,0,1-.06.19,1.09,1.09,0,0,1-.08.17.74.74,0,0,1-.1.13l-.12.1-.15.06-.17,0m0-3.15a2.44,2.44,0,0,0-.43,0,1.89,1.89,0,0,0-.38.11,1.66,1.66,0,0,0-.33.18,1.71,1.71,0,0,0-.28.26,1.88,1.88,0,0,0-.23.31,2,2,0,0,0-.16.36,2.3,2.3,0,0,0-.1.4,2.89,2.89,0,0,0,0,.44,3.05,3.05,0,0,0,0,.3,2.58,2.58,0,0,0,0,.28,2.31,2.31,0,0,0,.07.26,2.22,2.22,0,0,0,.1.24,1.87,1.87,0,0,0,.13.23,1.6,1.6,0,0,0,.15.19l.18.16.21.14.23.11.25.08.27,0h.29l.29,0,.27-.05.25-.09.23-.12.21-.15.18-.17a1.57,1.57,0,0,0,.15-.2,1.76,1.76,0,0,0,.12-.23,1.93,1.93,0,0,0,.1-.24,2.13,2.13,0,0,0,.07-.26,2.58,2.58,0,0,0,0-.28q0-.15,0-.3t0-.29a2.57,2.57,0,0,0,0-.28,2.15,2.15,0,0,0-.07-.26,1.83,1.83,0,0,0-.1-.24,1.69,1.69,0,0,0-.12-.22,1.65,1.65,0,0,0-.15-.19l-.18-.17-.2-.14-.23-.11-.25-.08-.27,0h-.29"/><polyline class="cls-28" points="247.68 184.95 246.51 184.97 246.51 186.33 245.44 186.35 245.44 184.99 244.27 185 244.27 188.87 245.44 188.85 245.44 187.3 246.51 187.28 246.51 188.83 247.68 188.81 247.68 184.95"/><path class="cls-28" d="M250.14,187.76H250l-.14-.05-.12-.09a.6.6,0,0,1-.1-.12l-.07-.15a1.17,1.17,0,0,1-.05-.16,1.28,1.28,0,0,1,0-.17,1.47,1.47,0,0,1,0-.18s0-.07,0-.1,0-.07,0-.11l0-.11,0-.1,0-.11.05-.09.06-.08.07-.08.08-.06.09,0,.1,0h.27l.14,0,.12.08.1.11.08.14a1,1,0,0,1,.06.15,1.19,1.19,0,0,1,0,.17,1.54,1.54,0,0,1,0,.19s0,.09,0,.13,0,.08,0,.12a1.12,1.12,0,0,1,0,.12l0,.11,0,.11-.05.09-.06.08-.07.07-.09.06-.09,0-.1,0h-.11m-.39-3-.23,0-.21.06-.19.09-.18.12-.16.16-.14.18-.12.2a2.19,2.19,0,0,0-.1.23q0,.12-.07.24t-.05.26,0,.27,0,.27,0,.29,0,.27.06.26a2.5,2.5,0,0,0,.08.25,2,2,0,0,0,.1.22l.12.2.14.17.16.15.18.11.19.08.2,0h.21a1.32,1.32,0,0,0,.31,0,1.12,1.12,0,0,0,.28-.12,1.19,1.19,0,0,0,.25-.19,1.55,1.55,0,0,0,.21-.27v.46l1.12,0v-3.85l-1.12,0v.46l-.11-.15-.11-.13-.12-.11-.12-.08-.13-.06-.14,0-.15,0h-.16"/><path class="cls-28" d="M256,184.81l-3,.05v2.2a1.48,1.48,0,0,1,0,.3.67.67,0,0,1-.08.22.37.37,0,0,1-.14.13.41.41,0,0,1-.19,0l-.21,0v1l.22,0,.17,0H253l.24,0,.21,0,.18-.08.15-.1.11-.13.09-.13.07-.14a1,1,0,0,0,0-.14l0-.15s0-.1,0-.15,0-.1,0-.16,0-.11,0-.16v-1.61h.74v2.9l1.16,0v-3.85"/><path class="cls-28" d="M258.5,187.74h-.17l-.15-.05-.12-.09a.6.6,0,0,1-.1-.13,1,1,0,0,1-.08-.16,1.27,1.27,0,0,1-.06-.18,1.65,1.65,0,0,1,0-.2,2.22,2.22,0,0,1,0-.22,2.1,2.1,0,0,1,0-.22,1.64,1.64,0,0,1,0-.2,1.31,1.31,0,0,1,.06-.18,1.09,1.09,0,0,1,.08-.16.66.66,0,0,1,.1-.13l.12-.1.15-.06.17,0,.17,0,.14.06.12.09a.63.63,0,0,1,.1.12,1,1,0,0,1,.08.16,1.27,1.27,0,0,1,.06.18,1.61,1.61,0,0,1,0,.2,2.08,2.08,0,0,1,0,.21,2.23,2.23,0,0,1,0,.22,1.67,1.67,0,0,1,0,.2,1.3,1.3,0,0,1-.06.18,1.08,1.08,0,0,1-.08.16.63.63,0,0,1-.1.13l-.12.09-.14.06-.17,0m0-3.12a2.45,2.45,0,0,0-.43,0,1.86,1.86,0,0,0-.37.11,1.62,1.62,0,0,0-.32.18,1.68,1.68,0,0,0-.28.25,1.86,1.86,0,0,0-.23.31,2,2,0,0,0-.16.35,2.29,2.29,0,0,0-.1.4,2.89,2.89,0,0,0,0,.44q0,.16,0,.3a2.58,2.58,0,0,0,0,.28,2.31,2.31,0,0,0,.07.26,2.21,2.21,0,0,0,.1.24,1.86,1.86,0,0,0,.13.22,1.59,1.59,0,0,0,.15.19l.18.16.2.14.23.11.25.08.27,0h.29l.28,0,.26-.05.24-.08.23-.12.2-.15.18-.17a1.56,1.56,0,0,0,.15-.2,1.76,1.76,0,0,0,.12-.23,2.1,2.1,0,0,0,.1-.24,2.2,2.2,0,0,0,.07-.26,2.49,2.49,0,0,0,0-.28,3,3,0,0,0,0-.3,2.79,2.79,0,0,0,0-.29,2.49,2.49,0,0,0,0-.27,2.22,2.22,0,0,0-.07-.26,2,2,0,0,0-.1-.24,1.69,1.69,0,0,0-.12-.22l-.15-.19-.18-.17-.2-.14-.23-.11-.24-.08-.26,0h-.28"/><polyline class="cls-28" points="264.99 184.65 263.76 184.68 263.1 186.95 262.43 184.7 261.19 184.72 260.69 188.56 261.77 188.54 262.04 186.42 262.69 188.53 263.51 188.51 264.15 186.38 264.41 188.5 265.5 188.47 264.99 184.65"/><path class="cls-28" d="M269.83,187.38h-.13l-.11,0-.1-.07-.08-.09-.06-.11,0-.12a.86.86,0,0,1,0-.13,1.05,1.05,0,0,1,0-.14l.07-.35.21-.26.29-.1h.11l.1,0,.1.05.09.07.08.1a.59.59,0,0,1,.06.12.79.79,0,0,1,0,.14,1.16,1.16,0,0,1,0,.16.93.93,0,0,1,0,.14.91.91,0,0,1,0,.13l0,.12-.06.11-.08.1-.1.07-.12,0-.13,0m0-2.41h-.08l-.08,0-.08,0-.08-.06-.06-.08a.47.47,0,0,1,0-.1.72.72,0,0,1,0-.12,1.2,1.2,0,0,1,0-.15,1.24,1.24,0,0,1,0-.15.79.79,0,0,1,0-.13.53.53,0,0,1,0-.1l.06-.08.08-.06.08,0,.09,0h.18l.09,0,.08,0,.08.06.06.08,0,.1a.72.72,0,0,1,0,.12,1,1,0,0,1,0,.15.93.93,0,0,1,0,.14.67.67,0,0,1,0,.12l0,.1-.07.08-.07.07-.08,0-.08,0h-.09m0-2.29-.23,0-.21,0-.2.06-.19.08-.16.11-.14.13-.12.15-.1.17a1.55,1.55,0,0,0-.08.18,1.63,1.63,0,0,0-.06.2,1.78,1.78,0,0,0,0,.21,2,2,0,0,0,0,.22,2.11,2.11,0,0,0,0,.23,1.69,1.69,0,0,0,0,.21,1.35,1.35,0,0,0,.06.19,1.1,1.1,0,0,0,.08.16l.1.14.11.12.12.09.13.07h0l-.17.08-.16.1-.15.13-.14.16a1.17,1.17,0,0,0-.11.19,1.38,1.38,0,0,0-.08.22,1.8,1.8,0,0,0,0,.26,2.47,2.47,0,0,0,0,.29,2.07,2.07,0,0,0,0,.32,1.86,1.86,0,0,0,.07.3,1.81,1.81,0,0,0,.12.28,1.91,1.91,0,0,0,.17.26,1.09,1.09,0,0,0,.24.22,1.32,1.32,0,0,0,.31.15,1.89,1.89,0,0,0,.38.09,3.17,3.17,0,0,0,.9,0,1.94,1.94,0,0,0,.38-.1,1.38,1.38,0,0,0,.31-.17,1.15,1.15,0,0,0,.23-.23,2,2,0,0,0,.17-.27,1.88,1.88,0,0,0,.12-.28,1.9,1.9,0,0,0,.07-.3,2.08,2.08,0,0,0,0-.32,2.46,2.46,0,0,0,0-.29,1.76,1.76,0,0,0,0-.25,1.33,1.33,0,0,0-.08-.22,1.11,1.11,0,0,0-.11-.18l-.14-.15-.15-.13-.16-.1-.17-.07h0l.13-.07.12-.1.11-.12.1-.14a1.14,1.14,0,0,0,.08-.17,1.39,1.39,0,0,0,.06-.19,1.72,1.72,0,0,0,0-.21,2.14,2.14,0,0,0,0-.23,2,2,0,0,0,0-.22,1.75,1.75,0,0,0,0-.21,1.58,1.58,0,0,0-.06-.19,1.48,1.48,0,0,0-.08-.18l-.1-.16-.12-.14-.15-.12-.17-.1-.18-.08-.2-.06-.21,0h-.23"/><path class="cls-28" d="M189.45,123.64a14.63,14.63,0,0,0-6.55,1.46,16.78,16.78,0,0,0-5.38,4.15,19.92,19.92,0,0,0-3.64,6.22,22.27,22.27,0,0,0-1.34,7.66,22.56,22.56,0,0,0,.68,5.52,21.13,21.13,0,0,0,1.91,4.91,19.3,19.3,0,0,0,2.94,4.07,17.11,17.11,0,0,0,3.77,3,6.91,6.91,0,0,0,.74.43c.27.14.56.27.84.39l.77.31.52.18c.38.12.8.22,1.24.32s.89.18,1.35.26.93.14,1.38.2l1.32.13.84,0,1.3,0h2.15l77.18-.41v-8.4l-77,.1h-2l-1.24,0-.79,0-.76-.08-.83-.11-.82-.13c-.26,0-.51-.1-.72-.16l-.72-.24-.65-.26-.55-.25-.4-.22a9.49,9.49,0,0,1-2-1.68,10.77,10.77,0,0,1-1.55-2.23,11.77,11.77,0,0,1-1-2.66,12.47,12.47,0,0,1-.36-3,12.33,12.33,0,0,1,.74-4.23,11,11,0,0,1,2-3.44,9.3,9.3,0,0,1,3-2.3,8.1,8.1,0,0,1,7.16,0,9.35,9.35,0,0,1,2.9,2.25,11.06,11.06,0,0,1,2,3.33,12.33,12.33,0,0,1,.8,4.08l7.4,0a22.31,22.31,0,0,0-1.37-7.44,20.08,20.08,0,0,0-3.56-6.1,17,17,0,0,0-5.25-4.15,14.74,14.74,0,0,0-6.44-1.58M142.53,122l-17-.22v9l9.09.08v47.29l7.89-.1V122m46.91-13A25.53,25.53,0,0,0,178,111.46a29.36,29.36,0,0,0-9.47,7.24,34.86,34.86,0,0,0-6.44,10.92,38.88,38.88,0,0,0-2.37,13.47,39.42,39.42,0,0,0,1.15,9.51,37.17,37.17,0,0,0,3.24,8.48,34.07,34.07,0,0,0,5,7.08,30.2,30.2,0,0,0,6.4,5.3c.42.25.88.51,1.36.75s1,.47,1.41.68l1.25.55.88.34c.66.22,1.35.42,2.07.6s1.46.34,2.2.48,1.5.26,2.25.36,1.48.18,2.2.24l1.11,0,1.56,0h2.67l77.07-.93v-8.71l-77,.61h-2.26l-1.35,0-.9,0c-.58,0-1.18-.1-1.8-.18s-1.24-.17-1.85-.28-1.23-.24-1.82-.38-1.16-.3-1.69-.48l-.5-.19-.74-.3-.74-.32-.51-.24a21.7,21.7,0,0,1-5.12-3.82,24.72,24.72,0,0,1-4-5.31,27.17,27.17,0,0,1-2.62-6.49,29.07,29.07,0,0,1,.79-17.2,25.65,25.65,0,0,1,4.7-8A21.6,21.6,0,0,1,181,119.9a18.74,18.74,0,0,1,16.7.21,22,22,0,0,1,6.75,5.38,26,26,0,0,1,4.57,7.87,28.68,28.68,0,0,1,1.75,9.58l7.61,0a39,39,0,0,0-2.33-13,35.31,35.31,0,0,0-6.17-10.73,29.92,29.92,0,0,0-9.16-7.36A25.8,25.8,0,0,0,189.45,109m-34.69-.73-20.11-.39v9.38l12,.18v60.65l8.13-.1V108.24"/><path class="cls-28" d="M233.34,121.16a3.66,3.66,0,0,1-1.6-.4,4.28,4.28,0,0,1-1.33-1.06,5.09,5.09,0,0,1-.91-1.59,5.88,5.88,0,0,1-.34-2,5.48,5.48,0,0,1,.34-1.91,4.89,4.89,0,0,1,.91-1.53,4.15,4.15,0,0,1,1.33-1,3.56,3.56,0,0,1,1.6-.35,3.64,3.64,0,0,1,1.6.41,4.35,4.35,0,0,1,1.32,1.06,5.11,5.11,0,0,1,.9,1.56,5.58,5.58,0,0,1,.33,1.91,5.78,5.78,0,0,1-.33,2,4.88,4.88,0,0,1-.9,1.55,4.09,4.09,0,0,1-1.32,1,3.59,3.59,0,0,1-1.6.35m0-10.76a4.28,4.28,0,0,0-1.92.42,4.89,4.89,0,0,0-1.58,1.21,5.81,5.81,0,0,0-1.07,1.83,6.59,6.59,0,0,0-.39,2.27,6.83,6.83,0,0,0,.39,2.3,6.26,6.26,0,0,0,1.07,1.9,5.19,5.19,0,0,0,1.58,1.29,4.24,4.24,0,0,0,3.87.05,4.85,4.85,0,0,0,1.57-1.25,6,6,0,0,0,1-1.86,7,7,0,0,0,0-4.54,6,6,0,0,0-1-1.86,5,5,0,0,0-1.57-1.27,4.47,4.47,0,0,0-2-.49"/><path class="cls-28" d="M232.51,115.87V114l.91,0a1.77,1.77,0,0,1,.43.05.9.9,0,0,1,.33.16.72.72,0,0,1,.22.29,1.31,1.31,0,0,1,0,.74.8.8,0,0,1-.13.29.68.68,0,0,1-.28.21,1.1,1.1,0,0,1-.46.08l-1.06,0m1.27-2.57-2.16,0v5.82h.9v-2.4h.71a1.64,1.64,0,0,1,.6.11.75.75,0,0,1,.33.26.87.87,0,0,1,.14.35,2.14,2.14,0,0,1,0,.39c0,.25,0,.44,0,.6a3.59,3.59,0,0,0,0,.37.65.65,0,0,0,.06.22.35.35,0,0,0,.11.13h.91a.58.58,0,0,1-.11-.19.94.94,0,0,1,0-.23c0-.09,0-.21,0-.35s0-.32,0-.55a4.3,4.3,0,0,0,0-.48,1.82,1.82,0,0,0-.1-.43,1,1,0,0,0-.21-.35,1,1,0,0,0-.37-.24A1.51,1.51,0,0,0,235,116a1.16,1.16,0,0,0,.26-.35,1.3,1.3,0,0,0,.11-.36,1.84,1.84,0,0,0,0-.31,2,2,0,0,0-.18-.9,1.36,1.36,0,0,0-.44-.52,1.62,1.62,0,0,0-.53-.24,2,2,0,0,0-.45-.06"/><g class="cls-2"><g class="cls-2"><g class="cls-29"><path class="cls-30" d="M106.36,14.16a8.34,8.34,0,0,0-.9.23,9.18,9.18,0,0,0-.9.34q-.45.2-.91.45c-.3.17.25,4.55-.05,4.76a36.21,36.21,0,0,0-15,29.57c0,14.87,7.34,22.38,10.82,26.12,3.06,2.95,4.86,4.49,6.67,4.33.3,0,.8.92,1.1.86a8.42,8.42,0,0,0,.91-.24,9.3,9.3,0,0,0,.92-.36q.46-.21.92-.47a17.76,17.76,0,0,0,5.9-6.12,40.68,40.68,0,0,0,4.34-10,63.73,63.73,0,0,0,2.31-12.55,68.52,68.52,0,0,0-.18-13.59,52.1,52.1,0,0,0-2.23-10.43,29.72,29.72,0,0,0-3.69-7.65A13.87,13.87,0,0,0,111.65,15a7.81,7.81,0,0,0-5.29-.82"/><polyline class="cls-31" points="103.49 43.81 96.03 52.64 103.73 57.66 107.22 54.42 104.86 51.04 105.67 40.57 103.54 38.89"/></g></g><g class="cls-2"><g class="cls-32"><path class="cls-33" d="M115.1,43.18l2.82-3.55,13.74,7.31L122.1,59.09l-4-2.11-2.83,3.58-14-7.28L111,41l4.06,2.15m1.26-25.5q-.85,0-1.71,0t-1.72.06q-.87.06-1.73.17t-1.74.28a27.86,27.86,0,0,0-11.05,4.78,29.8,29.8,0,0,0-8.05,8.8A32.66,32.66,0,0,0,86.1,43.3a34.8,34.8,0,0,0,.37,13.08,35.17,35.17,0,0,0,4.14,10.52,33.61,33.61,0,0,0,6.88,8.22,31.38,31.38,0,0,0,8.82,5.4,28.77,28.77,0,0,0,10,2.08q.85,0,1.71,0t1.72-.11q.86-.08,1.72-.22t1.72-.33a27.92,27.92,0,0,0,10.79-5,30,30,0,0,0,7.72-8.78,32.74,32.74,0,0,0,4-11.33,34.79,34.79,0,0,0-.35-12.71,35.2,35.2,0,0,0-3.93-10.29,33.72,33.72,0,0,0-6.59-8.18A31.57,31.57,0,0,0,126.23,20a28.94,28.94,0,0,0-9.88-2.37"/><polyline class="cls-34" points="110.45 37.01 95.29 51.82 112.82 63.95 117.21 59.61 104.86 51.04 115.55 40.58 110.45 37.01"/><polyline class="cls-35" points="119.93 36.28 115.55 40.58 104.86 51.04 117.21 59.61 122.27 63.12 137.16 48.4 119.93 36.28"/></g></g></g></g><g id="lights_shadows" data-name="lights shadows"><polygon class="cls-36" points="286.88 303.06 103.77 322.28 103.77 0 286.88 13.73 286.88 303.06"/><polygon class="cls-37" points="286.88 303.06 103.77 322.28 103.77 0 286.88 13.73 286.88 303.06"/><polygon class="cls-38" points="53.46 12.27 103.77 0 103.77 322.28 53.46 309.64 53.46 12.27"/><polygon class="cls-39" points="286.89 303.06 282.24 303.54 282.24 13.39 286.89 13.73 286.89 303.06"/><polygon class="cls-40" points="53.46 309.64 58.12 310.79 58.12 11.1 53.46 12.27 53.46 309.64"/><polygon class="cls-41" points="286.88 17.7 103.77 3.21 103.77 0 286.88 13.73 286.88 17.7"/><polygon class="cls-42" points="53.46 16.23 103.71 3.21 103.71 0 53.46 12.27 53.46 16.23"/><polygon class="cls-43" points="103.91 312.78 53.46 300.9 53.46 309.64 103.91 322.28 103.91 312.78"/><rect class="cls-44" x="102.05" width="3.32" height="322.28"/><polygon class="cls-45" points="111.32 321.49 103.71 322.28 103.71 0 111.32 0.57 111.32 321.49"/><polygon class="cls-46" points="103.77 312.78 286.88 294.31 286.88 303.06 103.77 322.28 103.77 312.78"/><polygon class="cls-36" points="286.88 303.06 103.77 322.28 103.77 0 286.88 13.73 286.88 303.06"/><polygon class="cls-47" points="100.39 321.48 103.71 322.28 103.71 0 100.39 0.84 100.39 321.48"/></g></g></g></svg>