<svg xmlns="http://www.w3.org/2000/svg" xmlns:xlink="http://www.w3.org/1999/xlink" viewBox="0 0 326.22 326.44"><defs><style>.cls-1{fill:none;}.cls-2{isolation:isolate;}.cls-3{opacity:0.7;}.cls-4{fill:#fff;opacity:0;}.cls-5{fill:#fbfbfb;opacity:0.05;}.cls-6{fill:#f8f8f8;opacity:0.1;}.cls-7{fill:#f4f4f4;opacity:0.14;}.cls-8{fill:#f1f1f0;opacity:0.19;}.cls-9{fill:#ededed;opacity:0.24;}.cls-10{fill:#e9e9e9;opacity:0.29;}.cls-11{fill:#e6e6e5;opacity:0.33;}.cls-12{fill:#e2e2e2;opacity:0.38;}.cls-13{fill:#dedede;opacity:0.43;}.cls-14{fill:#dbdbda;opacity:0.48;}.cls-15{fill:#d7d7d7;opacity:0.52;}.cls-16{fill:#d4d4d3;opacity:0.57;}.cls-17{fill:#d0d0cf;opacity:0.62;}.cls-18{fill:#ccc;opacity:0.67;}.cls-19{fill:#c9c9c8;opacity:0.71;}.cls-20{fill:#c5c5c4;opacity:0.76;}.cls-21{fill:#c1c1c1;opacity:0.81;}.cls-22{fill:#bebebd;opacity:0.86;}.cls-23{fill:#babab9;opacity:0.9;}.cls-24{fill:#b7b7b6;opacity:0.95;}.cls-25{fill:#b3b3b2;}.cls-26{fill:#fcda00;}.cls-27{fill:#ffca02;}.cls-28{fill:#d10910;}.cls-29{clip-path:url(#clip-path);}.cls-30{fill:#e7eaec;}.cls-31{fill:#95ceb8;}.cls-32{clip-path:url(#clip-path-2);}.cls-33{fill:#e5e5e2;}.cls-34{fill:#4ab285;}.cls-35{fill:#003d60;}.cls-36,.cls-37,.cls-43{mix-blend-mode:multiply;}.cls-36{fill:url(#Безымянный_градиент_761);}.cls-37{fill:url(#Безымянный_градиент_2038);}.cls-38,.cls-39,.cls-40,.cls-41,.cls-42,.cls-45{mix-blend-mode:overlay;}.cls-38{fill:url(#Безымянный_градиент_500);}.cls-39{fill:url(#Безымянный_градиент_500-2);}.cls-40{fill:url(#Безымянный_градиент_147);}.cls-41{fill:url(#Безымянный_градиент_503);}.cls-42{fill:url(#Безымянный_градиент_543);}.cls-43{fill:url(#Безымянный_градиент_771);}.cls-44,.cls-46,.cls-48{mix-blend-mode:soft-light;}.cls-44{fill:url(#Безымянный_градиент_13);}.cls-45{fill:url(#Безымянный_градиент_549);}.cls-46{fill:url(#Безымянный_градиент_2036);}.cls-47{mix-blend-mode:hard-light;fill:url(#Безымянный_градиент_8);}.cls-48{fill:url(#Безымянный_градиент_5);}</style><clipPath id="clip-path"><polygon class="cls-1" points="136.16 84.94 114.12 66.98 114.12 46.38 136.16 22.2 136.16 84.94"/></clipPath><clipPath id="clip-path-2"><polygon class="cls-1" points="184.01 27.47 184.01 85.89 136.16 99.34 136.16 14.02 184.01 27.47"/></clipPath><linearGradient id="Безымянный_градиент_761" x1="268.79" y1="8.63" x2="183.64" y2="308.02" gradientUnits="userSpaceOnUse"><stop offset="0" stop-color="#fff"/><stop offset="0.66" stop-color="#f3f3f3"/><stop offset="1" stop-color="#eaeaea"/></linearGradient><linearGradient id="Безымянный_градиент_2038" x1="139.95" y1="6.28" x2="60.6" y2="300.46" gradientUnits="userSpaceOnUse"><stop offset="0" stop-color="#f1f4f1"/><stop offset="0.33" stop-color="#e8e2e4"/><stop offset="1" stop-color="#d8c2cd"/></linearGradient><linearGradient id="Безымянный_градиент_500" x1="315.06" y1="158.47" x2="319.71" y2="158.47" gradientUnits="userSpaceOnUse"><stop offset="0" stop-color="gray"/><stop offset="0.42" stop-color="#828282"/><stop offset="0.6" stop-color="#898989"/><stop offset="0.74" stop-color="#969696"/><stop offset="0.85" stop-color="#a8a8a8"/><stop offset="0.95" stop-color="#bfbfbf"/><stop offset="1" stop-color="#cfcfcf"/></linearGradient><linearGradient id="Безымянный_градиент_500-2" x1="-4422.28" y1="162.53" x2="-4417.62" y2="162.53" gradientTransform="matrix(-1, 0, 0, 1, -4364.15, 0)" xlink:href="#Безымянный_градиент_500"/><linearGradient id="Безымянный_градиент_147" x1="228.3" y1="6.87" x2="228.02" y2="10.45" gradientUnits="userSpaceOnUse"><stop offset="0" stop-color="#cfcfcf"/><stop offset="0.05" stop-color="#bfbfbf"/><stop offset="0.15" stop-color="#a8a8a8"/><stop offset="0.26" stop-color="#969696"/><stop offset="0.4" stop-color="#898989"/><stop offset="0.58" stop-color="#828282"/><stop offset="1" stop-color="gray"/></linearGradient><linearGradient id="Безымянный_градиент_503" x1="94.51" y1="11.8" x2="95.61" y2="15.99" gradientUnits="userSpaceOnUse"><stop offset="0" stop-color="#ebebeb"/><stop offset="0.04" stop-color="#dbdbdb"/><stop offset="0.12" stop-color="#bfbfbf"/><stop offset="0.21" stop-color="#a8a8a8"/><stop offset="0.32" stop-color="#969696"/><stop offset="0.44" stop-color="#898989"/><stop offset="0.61" stop-color="#828282"/><stop offset="1" stop-color="gray"/></linearGradient><linearGradient id="Безымянный_градиент_543" x1="94.04" y1="311.75" x2="96.35" y2="302.75" gradientUnits="userSpaceOnUse"><stop offset="0" stop-color="#414141"/><stop offset="0.03" stop-color="#565656"/><stop offset="0.08" stop-color="#696969"/><stop offset="0.13" stop-color="#767676"/><stop offset="0.19" stop-color="#7e7e7e"/><stop offset="0.32" stop-color="gray"/></linearGradient><linearGradient id="Безымянный_градиент_771" x1="134.87" y1="161.14" x2="138.19" y2="161.14" gradientUnits="userSpaceOnUse"><stop offset="0" stop-color="#fff"/><stop offset="0.21" stop-color="#fefefd"/><stop offset="0.3" stop-color="#fcfcf6"/><stop offset="0.36" stop-color="#f9f7e9"/><stop offset="0.42" stop-color="#f4f1d8"/><stop offset="0.46" stop-color="#ede9c1"/><stop offset="0.48" stop-color="#eae5b5"/><stop offset="0.5" stop-color="#eeeac3"/><stop offset="0.55" stop-color="#f4f2d9"/><stop offset="0.61" stop-color="#f9f8ea"/><stop offset="0.67" stop-color="#fcfcf6"/><stop offset="0.76" stop-color="#fefefd"/><stop offset="1" stop-color="#fff"/></linearGradient><linearGradient id="Безымянный_градиент_13" x1="136.53" y1="161.14" x2="144.14" y2="161.14" gradientUnits="userSpaceOnUse"><stop offset="0" stop-color="gray"/><stop offset="0.01" stop-color="#858586"/><stop offset="0.04" stop-color="#97999e"/><stop offset="0.07" stop-color="#a2a5ac"/><stop offset="0.1" stop-color="#a6a9b1"/><stop offset="0.14" stop-color="#9fa1a8"/><stop offset="0.26" stop-color="#919296"/><stop offset="0.39" stop-color="#878889"/><stop offset="0.58" stop-color="#828282"/><stop offset="1" stop-color="gray"/></linearGradient><linearGradient id="Безымянный_градиент_549" x1="228.53" y1="312.06" x2="227.69" y2="303.76" gradientUnits="userSpaceOnUse"><stop offset="0" stop-color="#060606"/><stop offset="0.06" stop-color="#292929"/><stop offset="0.14" stop-color="#4e4e4e"/><stop offset="0.21" stop-color="#6a6a6a"/><stop offset="0.27" stop-color="#7a7a7a"/><stop offset="0.32" stop-color="gray"/></linearGradient><linearGradient id="Безымянный_градиент_2036" x1="278.05" y1="-23.95" x2="173.89" y2="342.32" gradientUnits="userSpaceOnUse"><stop offset="0" stop-color="#fff"/><stop offset="0.42" stop-color="#d4cccc"/><stop offset="1" stop-color="#958080"/></linearGradient><linearGradient id="Безымянный_градиент_8" x1="-4397.48" y1="161.14" x2="-4394.16" y2="161.14" gradientTransform="matrix(-1, 0, 0, 1, -4260.95, 0)" gradientUnits="userSpaceOnUse"><stop offset="0" stop-color="gray"/><stop offset="0.02" stop-color="#999992"/><stop offset="0.05" stop-color="#afb1a3"/><stop offset="0.08" stop-color="#bdbfad"/><stop offset="0.1" stop-color="#c2c4b0"/><stop offset="0.12" stop-color="#bdbfac"/><stop offset="0.21" stop-color="#a7a89c"/><stop offset="0.31" stop-color="#95968f"/><stop offset="0.44" stop-color="#898987"/><stop offset="0.61" stop-color="#828281"/><stop offset="1" stop-color="gray"/></linearGradient><linearGradient id="Безымянный_градиент_5" x1="278.05" y1="-23.95" x2="173.89" y2="342.32" gradientUnits="userSpaceOnUse"><stop offset="0" stop-color="#fff"/><stop offset="0.1" stop-color="#fbfafa"/><stop offset="0.22" stop-color="#efecec"/><stop offset="0.35" stop-color="#dbd4d4"/><stop offset="0.48" stop-color="#c0b3b3"/><stop offset="0.62" stop-color="#9c8989"/><stop offset="0.64" stop-color="#958080"/></linearGradient></defs><title>UpravlenieHoldingom</title><g class="cls-2"><g id="Layer_2" data-name="Layer 2"><g id="box_color" data-name="box color"><g class="cls-3"><path class="cls-4" d="M8.27,306.78C39.94,313.66,124,325,124,325a52.65,52.65,0,0,0,18.4,1.15l180.31-20.6c4.58-.15,4.43-5,.92-5.66l-202-29a78.62,78.62,0,0,0-24.89-.44S36.5,285.24,12.38,289.07C.88,290.9-6.55,303.56,8.27,306.78Z"/><path class="cls-5" d="M10.52,306.56c30.16,6.55,114,18.25,114,18.25a50.48,50.48,0,0,0,17.64,1.1l180.2-20.51c4.39-.15,4.24-4.84.87-5.44L124.06,271.3a75.22,75.22,0,0,0-23.8-.42S37.4,286,14.44,289.66C3.46,291.41-3.62,303.5,10.52,306.56Z"/><path class="cls-6" d="M12.77,306.35c28.65,6.22,112.31,18.32,112.31,18.32A48.32,48.32,0,0,0,142,325.73L322,305.31c4.2-.14,4.06-4.65.83-5.22L126.53,271.77a71.82,71.82,0,0,0-22.72-.4s-65.5,15.41-87.32,18.87C6,291.91-.68,303.43,12.77,306.35Z"/><path class="cls-7" d="M15,306.13c27.15,5.89,110.6,18.4,110.6,18.4a46.15,46.15,0,0,0,16.12,1l180-20.32c4-.14,3.88-4.45.79-5L129,272.25a68.42,68.42,0,0,0-21.63-.38s-68.15,15.68-88.81,19C8.62,292.41,2.25,303.36,15,306.13Z"/><path class="cls-8" d="M17.26,305.91c25.64,5.56,108.88,18.48,108.88,18.48a44,44,0,0,0,15.36,1l179.87-20.23c3.82-.14,3.7-4.26.75-4.78L131.45,272.72a65,65,0,0,0-20.54-.36s-70.79,16-90.31,19.06C11.21,292.92,5.18,303.29,17.26,305.91Z"/><path class="cls-9" d="M19.51,305.7c24.13,5.24,107.16,18.55,107.16,18.55a41.81,41.81,0,0,0,14.61.92L321,305c3.63-.13,3.52-4.06.7-4.56L133.92,273.2a61.61,61.61,0,0,0-19.46-.34S41,289.1,22.66,292C13.79,293.42,8.12,303.22,19.51,305.7Z"/><path class="cls-10" d="M21.76,305.48c22.62,4.91,105.45,18.63,105.45,18.63a39.65,39.65,0,0,0,13.85.87l179.65-20c3.44-.13,3.34-3.87.66-4.34l-185-26.92a58.21,58.21,0,0,0-18.37-.32s-76.07,16.52-93.3,19.25C16.37,293.93,11.05,303.15,21.76,305.48Z"/><path class="cls-11" d="M24,305.26C45.12,309.85,127.74,324,127.74,324a37.48,37.48,0,0,0,13.09.82l179.53-20c3.26-.12,3.16-3.67.62-4.12L138.84,274.14a54.81,54.81,0,0,0-17.28-.3s-78.72,16.79-94.79,19.35C19,294.43,14,303.08,24,305.26Z"/><path class="cls-12" d="M26.26,305c19.6,4.26,102,18.78,102,18.78a35.31,35.31,0,0,0,12.33.78L320,304.73c3.07-.12,3-3.48.58-3.9l-179.3-26.22a51.41,51.41,0,0,0-16.2-.28s-81.36,17.07-96.29,19.44C21.54,294.94,16.92,303,26.26,305Z"/><path class="cls-13" d="M28.51,304.83c18.1,3.93,100.3,18.85,100.3,18.85a33.15,33.15,0,0,0,11.57.73l179.31-19.77c2.88-.11,2.8-3.28.53-3.68L143.77,275.09a48,48,0,0,0-15.11-.26s-84,17.35-97.78,19.53C24.12,295.44,19.86,302.94,28.51,304.83Z"/><path class="cls-14" d="M30.76,304.61c16.59,3.6,98.58,18.93,98.58,18.93a31,31,0,0,0,10.82.68l179.2-19.68c2.69-.11,2.62-3.09.49-3.46L146.23,275.57a44.6,44.6,0,0,0-14-.24S45.57,293,32.94,295C26.7,295.94,22.79,302.87,30.76,304.61Z"/><path class="cls-15" d="M33,304.39c15.08,3.27,96.86,19,96.86,19a28.81,28.81,0,0,0,10.06.64L319,304.44c2.5-.11,2.44-2.89.45-3.24L148.7,276a41.2,41.2,0,0,0-12.94-.22S46.47,293.72,35,295.55C29.28,296.45,25.72,302.81,33,304.39Z"/><path class="cls-16" d="M35.26,304.18c13.57,2.95,95.14,19.08,95.14,19.08a26.64,26.64,0,0,0,9.3.59l179-19.5c2.31-.1,2.26-2.7.41-3L151.16,276.51a37.8,37.8,0,0,0-11.85-.2S47.38,294.49,37,296.14C31.86,297,28.66,302.74,35.26,304.18Z"/><path class="cls-17" d="M37.51,304c12.06,2.62,93.43,19.15,93.43,19.15a24.48,24.48,0,0,0,8.54.55l178.87-19.41c2.12-.1,2.08-2.5.36-2.8L153.62,277a34.4,34.4,0,0,0-10.76-.18S48.29,295.26,39.1,296.72C34.45,297.46,31.59,302.67,37.51,304Z"/><path class="cls-18" d="M39.76,303.74C50.31,306,131.47,323,131.47,323a22.31,22.31,0,0,0,7.79.5L318,304.16c1.93-.09,1.9-2.31.32-2.58L156.09,277.46a31,31,0,0,0-9.68-.16S49.19,296,41.16,297.31C37,298,34.53,302.6,39.76,303.74Z"/><path class="cls-19" d="M42,303.53c9,2,90,19.3,90,19.3a20.14,20.14,0,0,0,7,.45l178.64-19.22a1.19,1.19,0,1,0,.28-2.36l-159.4-23.76a27.6,27.6,0,0,0-8.59-.14s-99.86,19-106.75,20.1C39.61,298.47,37.46,302.53,42,303.53Z"/><path class="cls-20" d="M44.25,303.31c7.54,1.64,88.28,19.38,88.28,19.38a18,18,0,0,0,6.27.41L317.33,304a1.08,1.08,0,0,0,.24-2.14L161,278.41a24.2,24.2,0,0,0-7.5-.12S51,297.58,45.27,298.49C42.19,299,40.4,302.46,44.25,303.31Z"/><path class="cls-21" d="M46.5,303.09c6,1.31,86.56,19.45,86.56,19.45a15.81,15.81,0,0,0,5.51.36l178.42-19a1,1,0,0,0,.19-1.92L163.48,278.89a20.8,20.8,0,0,0-6.42-.1S51.91,298.35,47.32,299.08C44.77,299.47,43.33,302.39,46.5,303.09Z"/><path class="cls-22" d="M48.75,302.88c4.52,1,84.84,19.53,84.84,19.53a13.64,13.64,0,0,0,4.75.31l178.31-18.95a.85.85,0,0,0,.15-1.7L165.94,279.36a17.4,17.4,0,0,0-5.33-.08S52.82,299.13,49.38,299.67C47.36,300,46.26,302.33,48.75,302.88Z"/><path class="cls-23" d="M51,302.66c3,.67,83.13,19.6,83.13,19.6a11.48,11.48,0,0,0,4,.27l178.2-18.85a.74.74,0,0,0,.11-1.48l-148-22.36a14,14,0,0,0-4.24-.06S53.73,299.9,51.43,300.26C49.94,300.49,49.2,302.26,51,302.66Z"/><path class="cls-24" d="M53.25,302.44c1.51.34,81.41,19.68,81.41,19.68a9.31,9.31,0,0,0,3.24.22L316,303.58a.63.63,0,0,0,.07-1.26l-145.18-22a10.62,10.62,0,0,0-3.16,0S54.64,300.67,53.49,300.84C52.52,301,52.13,302.19,53.25,302.44Z"/><path class="cls-25" d="M55.5,302.22,135.19,322a7.14,7.14,0,0,0,2.48.17l178-18.67a.52.52,0,0,0,0-1L173.33,280.78a7.25,7.25,0,0,0-2.07,0L55.54,301.43A.4.4,0,0,0,55.5,302.22Z"/></g><polygon class="cls-26" points="319.7 303.06 136.59 322.28 136.59 0 319.7 13.73 319.7 303.06"/><polygon class="cls-27" points="53.47 23.36 136.59 0 136.59 322.28 53.47 301.71 53.47 23.36"/><polyline class="cls-28" points="176.97 186.51 174.71 186.54 173.52 190.14 172.06 186.59 169.59 186.63 172.4 192.75 171.39 195.12 173.63 195.08 176.97 186.51"/><polyline class="cls-28" points="182.84 189.05 177.5 189.14 177.5 195 179.36 194.96 179.36 190.55 180.99 190.52 180.99 194.93 182.84 194.89 182.84 189.05"/><path class="cls-28" d="M186.81,193.28l-.26,0a.9.9,0,0,1-.23-.07.78.78,0,0,1-.19-.13.89.89,0,0,1-.15-.18,1.51,1.51,0,0,1-.12-.22,1.57,1.57,0,0,1-.08-.23,1.78,1.78,0,0,1,0-.25,2.16,2.16,0,0,1,0-.27,2.11,2.11,0,0,1,0-.26,1.88,1.88,0,0,1,0-.25,1.74,1.74,0,0,1,.08-.24,1.69,1.69,0,0,1,.12-.22,1,1,0,0,1,.16-.19.86.86,0,0,1,.19-.13,1,1,0,0,1,.23-.08l.26,0,.25,0a.93.93,0,0,1,.22.07.82.82,0,0,1,.19.12.91.91,0,0,1,.16.17,1.36,1.36,0,0,1,.13.21,1.52,1.52,0,0,1,.09.23,1.73,1.73,0,0,1,.06.26,2,2,0,0,1,0,.28,2.09,2.09,0,0,1,0,.29,1.76,1.76,0,0,1-.06.26,1.62,1.62,0,0,1-.09.24,1.64,1.64,0,0,1-.13.22,1,1,0,0,1-.16.18.86.86,0,0,1-.19.13,1,1,0,0,1-.22.08l-.25,0m.65-4.54-.26,0-.24,0-.22.07-.2.09-.19.13-.19.16-.18.2-.18.24V189L184,189v8.38l1.85,0v-3.13a2.37,2.37,0,0,0,.34.35,1.9,1.9,0,0,0,.38.25,1.8,1.8,0,0,0,.42.14,2.06,2.06,0,0,0,.47,0l.36,0a2,2,0,0,0,.34-.09,1.9,1.9,0,0,0,.31-.15,1.92,1.92,0,0,0,.28-.2,2.63,2.63,0,0,0,.25-.25,2.68,2.68,0,0,0,.22-.28,2.86,2.86,0,0,0,.18-.32,3.18,3.18,0,0,0,.15-.35q.07-.18.12-.36t.08-.38q0-.19.05-.39t0-.39q0-.16,0-.31t0-.31q0-.15,0-.3t-.06-.29-.09-.27-.11-.26l-.12-.24-.14-.22-.15-.2-.17-.17-.2-.15-.22-.13-.23-.11-.25-.08-.26,0h-.27"/><path class="cls-28" d="M193.43,193.15l-.26,0a.89.89,0,0,1-.22-.07.82.82,0,0,1-.19-.13,1,1,0,0,1-.16-.18,1.72,1.72,0,0,1-.2-.45,1.8,1.8,0,0,1-.05-.25,2,2,0,0,1,0-.27,1.62,1.62,0,0,1,0-.16c0-.05,0-.11,0-.16l0-.16,0-.16.06-.15.08-.14.1-.13.11-.12.13-.09.15-.07.16,0,.18,0,.24,0,.22.07a.86.86,0,0,1,.19.12,1,1,0,0,1,.16.17,1.26,1.26,0,0,1,.12.21,1.47,1.47,0,0,1,.09.23,1.78,1.78,0,0,1,.05.26,2.21,2.21,0,0,1,0,.28q0,.1,0,.19t0,.18,0,.18a1.63,1.63,0,0,1-.05.17l-.08.15-.09.14-.1.12-.11.1-.13.08-.14.06-.15,0h-.17m-.62-4.5-.36,0a2,2,0,0,0-.33.09,1.92,1.92,0,0,0-.31.14,2,2,0,0,0-.28.19,2.29,2.29,0,0,0-.25.23,2.47,2.47,0,0,0-.22.27,2.79,2.79,0,0,0-.19.3,3.26,3.26,0,0,0-.16.34q-.07.18-.12.37t-.08.39q0,.2-.05.4t0,.42q0,.22,0,.43t.06.41q0,.2.09.39t.13.36a3.23,3.23,0,0,0,.16.34,2.67,2.67,0,0,0,.19.3,2.41,2.41,0,0,0,.48.48,1.92,1.92,0,0,0,.28.17,1.85,1.85,0,0,0,.3.12l.32.07.34,0a2.06,2.06,0,0,0,.49-.07,1.82,1.82,0,0,0,.44-.18,1.93,1.93,0,0,0,.38-.29,2.39,2.39,0,0,0,.33-.4v.69l1.76,0v-5.8l-1.76,0v.7l-.17-.23-.18-.2-.19-.16-.19-.12-.21-.09-.22-.06-.24,0h-.25"/><path class="cls-28" d="M199.11,193.3v-1.13l.8,0H200l.11,0,.1,0,.09.07.07.08.05.1a.59.59,0,0,1,0,.11.72.72,0,0,1,0,.13.71.71,0,0,1,0,.12.59.59,0,0,1,0,.11l0,.09-.06.08-.09.06-.1,0-.11,0h-.13l-.8,0m0-2.26v-1h.75a.81.81,0,0,1,.24,0,.41.41,0,0,1,.17.09.37.37,0,0,1,.1.15.66.66,0,0,1,0,.22.68.68,0,0,1,0,.22.41.41,0,0,1-.1.16.43.43,0,0,1-.17.1.78.78,0,0,1-.24,0h-.75m1.54-2.29-3.28.06v5.8l3.35-.07a2.78,2.78,0,0,0,.44,0,1.73,1.73,0,0,0,.36-.1,1.13,1.13,0,0,0,.28-.17.9.9,0,0,0,.2-.23,2.81,2.81,0,0,0,.13-.25,2.18,2.18,0,0,0,.09-.25,1.74,1.74,0,0,0,.06-.24,1.46,1.46,0,0,0,0-.23,2.61,2.61,0,0,0,0-.33,1.8,1.8,0,0,0-.06-.29,1.3,1.3,0,0,0-.1-.24,1,1,0,0,0-.14-.2l-.17-.16-.18-.13-.2-.09-.21-.06v0l.23-.11.19-.13a1,1,0,0,0,.15-.16.93.93,0,0,0,.11-.19,1.91,1.91,0,0,0,.14-.42,2,2,0,0,0,0-.22,2.15,2.15,0,0,0,0-.22,1.62,1.62,0,0,0,0-.25,1.45,1.45,0,0,0-.06-.24,1.4,1.4,0,0,0-.1-.22,1.49,1.49,0,0,0-.14-.21.83.83,0,0,0-.19-.17,1.05,1.05,0,0,0-.25-.12,1.61,1.61,0,0,0-.31-.07l-.38,0"/><path class="cls-28" d="M208.45,188.61l-4.69.08V192a2.17,2.17,0,0,1,0,.45,1,1,0,0,1-.13.33.57.57,0,0,1-.21.2.67.67,0,0,1-.3.07l-.33-.06v1.52l.33,0,.27,0,.21,0h.14l.37,0,.32-.07a1.44,1.44,0,0,0,.27-.11,1.13,1.13,0,0,0,.22-.16l.18-.19.15-.19a1.31,1.31,0,0,0,.11-.2,1.15,1.15,0,0,0,.06-.22q0-.11,0-.22t0-.23,0-.23,0-.24v-2.42l1.16,0v4.35l1.79,0v-5.77"/><path class="cls-28" d="M211.07,190.76a1.62,1.62,0,0,1,0-.22,1.46,1.46,0,0,1,.05-.21,1.44,1.44,0,0,1,.08-.2,1.56,1.56,0,0,1,.11-.19.94.94,0,0,1,.14-.15l.17-.11.19-.07.22,0,.22,0,.19.06.17.11a.89.89,0,0,1,.14.15l.11.18a1.39,1.39,0,0,1,.08.2,1.42,1.42,0,0,1,.05.21,1.58,1.58,0,0,1,0,.22l-2,0m1-2.44-.38,0-.36.07-.34.12-.32.16a2.35,2.35,0,0,0-.29.21,2.45,2.45,0,0,0-.26.25,2.73,2.73,0,0,0-.23.29,3.21,3.21,0,0,0-.2.33,2.71,2.71,0,0,0-.16.36,3.23,3.23,0,0,0-.11.4,3.93,3.93,0,0,0-.07.44q0,.23,0,.47t0,.33q0,.16,0,.32t.06.31q0,.15.08.3t.11.27l.13.25.15.23.16.21.19.19.21.17.23.14.25.12.27.09.28.07.29,0h.3a3.92,3.92,0,0,0,.54,0,2.9,2.9,0,0,0,.47-.11,2.3,2.3,0,0,0,.41-.18,2,2,0,0,0,.35-.25,3.09,3.09,0,0,0,.29-.3,2.93,2.93,0,0,0,.44-.71,3.13,3.13,0,0,0,.15-.41l-1.71,0a1,1,0,0,1,0,.15l-.07.14-.09.12-.11.11-.13.08-.15.06-.17,0-.18,0h-.17l-.16,0-.15-.06-.13-.09-.11-.11-.1-.12-.08-.14-.06-.15-.05-.16q0-.08,0-.16t0-.16,0-.17l3.77-.07q0-.24,0-.46t-.05-.44q0-.22-.08-.42t-.11-.41a2.78,2.78,0,0,0-.15-.38,2.63,2.63,0,0,0-.19-.34,2.58,2.58,0,0,0-.24-.31,2.62,2.62,0,0,0-.28-.27,1.94,1.94,0,0,0-.33-.21,2.17,2.17,0,0,0-.38-.15,2.61,2.61,0,0,0-.42-.09,3.28,3.28,0,0,0-.47,0"/><polyline class="cls-28" points="220.87 188.4 219.1 188.43 219.1 190.44 217.45 190.47 217.45 188.46 215.66 188.49 215.66 194.23 217.45 194.2 217.45 191.9 219.1 191.87 219.1 194.16 220.87 194.13 220.87 188.4"/><polyline class="cls-28" points="227.26 188.29 225.56 188.32 223.78 191.41 223.78 188.35 222.01 188.38 222.01 194.11 223.74 194.07 225.49 190.89 225.49 194.04 227.26 194 227.26 188.29"/><path class="cls-28" d="M229.82,190.42a1.6,1.6,0,0,1,0-.22,1.44,1.44,0,0,1,.14-.41l.11-.19a.93.93,0,0,1,.14-.15l.17-.11.19-.07.22,0,.22,0,.19.06.17.1a.89.89,0,0,1,.14.15l.11.18a1.39,1.39,0,0,1,.08.19,1.42,1.42,0,0,1,.05.21,1.58,1.58,0,0,1,0,.22l-2,0m1-2.42-.37,0-.35.07-.33.12-.31.16a2.3,2.3,0,0,0-.29.21,2.42,2.42,0,0,0-.26.25,2.71,2.71,0,0,0-.22.29,3.19,3.19,0,0,0-.19.33,2.69,2.69,0,0,0-.16.36,3.21,3.21,0,0,0-.11.4,3.93,3.93,0,0,0-.06.43q0,.22,0,.46t0,.33q0,.16,0,.32t.06.3.08.29.1.27l.12.25.14.23.16.21.19.19.21.17.22.14.24.12.26.09.27.07.29,0h.3a3.82,3.82,0,0,0,.53,0,2.83,2.83,0,0,0,.46-.11,2.24,2.24,0,0,0,.4-.18,2,2,0,0,0,.34-.25,3,3,0,0,0,.29-.3,2.91,2.91,0,0,0,.43-.7,3.12,3.12,0,0,0,.14-.4l-1.68,0a1,1,0,0,1,0,.15l-.07.14-.09.12-.11.11-.13.08-.15.06-.16,0-.18,0h-.17l-.16,0-.14-.06-.13-.08-.11-.1-.09-.12-.08-.14-.06-.15-.05-.16q0-.08,0-.16t0-.16,0-.17l3.7-.07q0-.23,0-.46t0-.44q0-.21-.08-.42t-.11-.4a2.77,2.77,0,0,0-.14-.38,2.61,2.61,0,0,0-.19-.34,2.55,2.55,0,0,0-.23-.3,2.58,2.58,0,0,0-.28-.26,1.9,1.9,0,0,0-.32-.21,2.12,2.12,0,0,0-.37-.15,2.53,2.53,0,0,0-.42-.09,3.18,3.18,0,0,0-.46,0"/><polyline class="cls-28" points="243.27 188.02 241.25 188.05 240.46 189.57 239.7 188.08 237.56 188.11 239.33 190.72 237.21 193.8 239.33 193.76 240.36 191.88 241.33 193.72 243.35 193.68 241.47 190.7 243.27 188.02"/><path class="cls-28" d="M246.44,192.34l-.25,0a.86.86,0,0,1-.22-.08.84.84,0,0,1-.19-.13,1,1,0,0,1-.16-.19,1.69,1.69,0,0,1-.12-.24,1.91,1.91,0,0,1-.08-.27,2.35,2.35,0,0,1-.05-.3,3.07,3.07,0,0,1,0-.33,3,3,0,0,1,0-.32,2.36,2.36,0,0,1,.05-.29,2,2,0,0,1,.08-.27,1.77,1.77,0,0,1,.12-.24,1,1,0,0,1,.15-.19.84.84,0,0,1,.18-.14.89.89,0,0,1,.22-.09l.26,0,.25,0a.85.85,0,0,1,.22.08.8.8,0,0,1,.18.13,1,1,0,0,1,.15.19,1.7,1.7,0,0,1,.12.24,1.92,1.92,0,0,1,.08.26,2.32,2.32,0,0,1,.05.29,3,3,0,0,1,0,.32,3.09,3.09,0,0,1,0,.33,2.4,2.4,0,0,1-.05.3,2,2,0,0,1-.08.27,1.76,1.76,0,0,1-.12.24,1.12,1.12,0,0,1-.15.19.87.87,0,0,1-.18.14.86.86,0,0,1-.21.09l-.25,0m0-4.6a3.64,3.64,0,0,0-.64.06,2.87,2.87,0,0,0-.56.17,2.49,2.49,0,0,0-.9.64,2.74,2.74,0,0,0-.34.45,2.88,2.88,0,0,0-.24.52,3.36,3.36,0,0,0-.14.59,4.23,4.23,0,0,0,0,.65q0,.23,0,.44a3.65,3.65,0,0,0,.06.41,3.14,3.14,0,0,0,.11.38,2.87,2.87,0,0,0,.15.36,2.64,2.64,0,0,0,.19.32,2.38,2.38,0,0,0,.49.53,2.58,2.58,0,0,0,.3.21l.34.16.37.11.4.06.43,0,.43,0,.4-.08.37-.13.34-.17a2.74,2.74,0,0,0,.3-.22,2.59,2.59,0,0,0,.26-.26,2.66,2.66,0,0,0,.23-.29,3,3,0,0,0,.19-.33,3.16,3.16,0,0,0,.15-.36,3.39,3.39,0,0,0,.1-.38,3.84,3.84,0,0,0,.06-.41q0-.21,0-.44a4.3,4.3,0,0,0,0-.43,3.62,3.62,0,0,0-.06-.41,3.15,3.15,0,0,0-.11-.38,2.88,2.88,0,0,0-.15-.35,2.51,2.51,0,0,0-.19-.32,2.4,2.4,0,0,0-.23-.28,2.45,2.45,0,0,0-.27-.25,2.68,2.68,0,0,0-.31-.21,2.45,2.45,0,0,0-.33-.16l-.36-.11-.4-.07-.43,0"/><path class="cls-28" d="M255.16,187.81l-4.47.08v3.21a2.16,2.16,0,0,1,0,.44,1,1,0,0,1-.12.32.55.55,0,0,1-.2.19.63.63,0,0,1-.29.07l-.31-.06v1.48l.32,0,.26,0,.2,0h.14l.36,0,.31-.07a1.35,1.35,0,0,0,.26-.11,1.08,1.08,0,0,0,.21-.16l.17-.18.14-.19a1.28,1.28,0,0,0,.1-.2,1.14,1.14,0,0,0,.06-.21q0-.11,0-.22t0-.22,0-.22,0-.23v-2.36l1.1,0v4.24l1.71,0v-5.63"/><path class="cls-28" d="M257.89,192l.14-.19.12-.19a1.73,1.73,0,0,0,.09-.2,1.55,1.55,0,0,0,.06-.2q0-.1,0-.22t0-.25,0-.28,0-.3v-1l1.14,0V192l-1.67,0m3.3-4.28-4.31.07v2.12q0,.2,0,.38t0,.37q0,.18-.06.35t-.08.34a1.22,1.22,0,0,1-.13.29.84.84,0,0,1-.18.21.78.78,0,0,1-.24.13,1,1,0,0,1-.29.05v3l1.51,0V193.4l3-.06V195l1.5,0v-3h-.68v-4.21"/><polyline class="cls-28" points="267.57 187.6 265.94 187.63 264.25 190.65 264.25 187.66 262.55 187.69 262.55 193.29 264.2 193.26 265.88 190.14 265.88 193.23 267.57 193.19 267.57 187.6"/><polyline class="cls-28" points="273.58 187.5 271.9 187.53 271.9 189.49 270.35 189.51 270.35 187.55 268.66 187.58 268.66 193.17 270.35 193.14 270.35 190.9 271.9 190.87 271.9 193.1 273.58 193.07 273.58 187.5"/><polyline class="cls-28" points="277.88 187.42 274.66 187.48 274.66 193.05 276.33 193.02 276.33 188.9 277.88 188.87 277.88 187.42"/><path class="cls-28" d="M281,191.67l-.24,0a.81.81,0,0,1-.21-.08.77.77,0,0,1-.18-.13.94.94,0,0,1-.14-.18,1.66,1.66,0,0,1-.11-.23,1.9,1.9,0,0,1-.08-.26,2.35,2.35,0,0,1,0-.29,3.09,3.09,0,0,1,0-.32,3,3,0,0,1,0-.32,2.36,2.36,0,0,1,0-.29,2,2,0,0,1,.08-.26,1.75,1.75,0,0,1,.11-.24,1,1,0,0,1,.14-.19.82.82,0,0,1,.18-.14.84.84,0,0,1,.21-.08l.24,0,.24,0a.81.81,0,0,1,.21.08.78.78,0,0,1,.18.13.94.94,0,0,1,.14.18,1.68,1.68,0,0,1,.11.23,1.91,1.91,0,0,1,.08.26,2.32,2.32,0,0,1,0,.29,3,3,0,0,1,0,.31,3.09,3.09,0,0,1,0,.32,2.39,2.39,0,0,1,0,.29,2,2,0,0,1-.08.26,1.75,1.75,0,0,1-.11.24,1,1,0,0,1-.14.19.82.82,0,0,1-.18.14.84.84,0,0,1-.21.08l-.24,0m0-4.52a3.39,3.39,0,0,0-.61.06,2.73,2.73,0,0,0-.54.17,2.46,2.46,0,0,0-.47.27,2.53,2.53,0,0,0-.4.37,2.72,2.72,0,0,0-.32.45,2.9,2.9,0,0,0-.23.51,3.39,3.39,0,0,0-.14.58,4.25,4.25,0,0,0,0,.64q0,.22,0,.43a3.77,3.77,0,0,0,.06.4,3.29,3.29,0,0,0,.1.38,3,3,0,0,0,.14.35,2.48,2.48,0,0,0,.18.32,2.35,2.35,0,0,0,.22.28,2.39,2.39,0,0,0,.26.24,2.6,2.6,0,0,0,.3.21l.33.16.36.11.38.06.41,0,.41,0,.38-.08.36-.12.33-.17a2.74,2.74,0,0,0,.29-.22,2.52,2.52,0,0,0,.26-.25,2.47,2.47,0,0,0,.22-.29,2.59,2.59,0,0,0,.18-.32,3.13,3.13,0,0,0,.14-.35,3.38,3.38,0,0,0,.1-.38,3.83,3.83,0,0,0,.06-.4q0-.21,0-.43t0-.42a3.74,3.74,0,0,0-.06-.4,3.3,3.3,0,0,0-.1-.37,3,3,0,0,0-.14-.35,2.8,2.8,0,0,0-.18-.32,2.47,2.47,0,0,0-.22-.28,2.37,2.37,0,0,0-.25-.24,2.49,2.49,0,0,0-.29-.21l-.33-.16-.36-.11-.38-.06-.41,0"/><polyline class="cls-28" points="290.4 187.21 288.6 187.24 287.66 190.54 286.7 187.27 284.9 187.3 284.17 192.86 285.74 192.83 286.13 189.77 287.06 192.8 288.25 192.78 289.17 189.71 289.55 192.75 291.12 192.72 290.4 187.21"/><path class="cls-28" d="M297.36,191.13l-.19,0-.16-.05-.14-.09a.78.78,0,0,1-.12-.13l-.09-.16a1.27,1.27,0,0,1-.07-.17,1.24,1.24,0,0,1,0-.18,1.36,1.36,0,0,1,0-.19,1.16,1.16,0,0,1,0-.13,1.24,1.24,0,0,1,0-.13l0-.12,0-.12.06-.11.07-.1.08-.08.09-.07.1-.06.1,0,.11,0h.27l.15,0,.14.08.13.11a.7.7,0,0,1,.11.14.86.86,0,0,1,.08.17,1.14,1.14,0,0,1,0,.2,1.55,1.55,0,0,1,0,.23,1.5,1.5,0,0,1,0,.19,1.25,1.25,0,0,1,0,.18,1.18,1.18,0,0,1-.07.17l-.1.17a.72.72,0,0,1-.12.14l-.14.1-.17.06-.19,0m0-3.46h-.12l-.12,0-.11-.06-.11-.09a.47.47,0,0,1-.1-.11.63.63,0,0,1-.07-.15,1,1,0,0,1,0-.18,1.72,1.72,0,0,1,0-.21,1.76,1.76,0,0,1,0-.21,1.12,1.12,0,0,1,0-.18.75.75,0,0,1,.06-.15.59.59,0,0,1,.09-.12l.11-.09.11-.07.12,0,.13,0h.13l.12,0,.11.06.11.08a.6.6,0,0,1,.09.12.75.75,0,0,1,.07.15,1.05,1.05,0,0,1,0,.18,1.56,1.56,0,0,1,0,.21,1.46,1.46,0,0,1,0,.21,1,1,0,0,1,0,.18.74.74,0,0,1-.07.15.61.61,0,0,1-.1.12l-.11.09-.11.07-.12,0-.12,0m0-3.3-.33,0-.31.06-.29.09-.26.13-.24.15-.21.18a1.85,1.85,0,0,0-.18.21,1.91,1.91,0,0,0-.15.24,2.09,2.09,0,0,0-.12.26,2.25,2.25,0,0,0-.08.28,2.56,2.56,0,0,0,0,.3,3,3,0,0,0,0,.32,3.11,3.11,0,0,0,0,.34,2.41,2.41,0,0,0,.05.3,1.91,1.91,0,0,0,.09.27,1.58,1.58,0,0,0,.12.24,1.76,1.76,0,0,0,.14.2l.16.17.18.13.19.1v0l-.25.11-.23.15-.21.19a2.21,2.21,0,0,0-.19.22,1.61,1.61,0,0,0-.17.28,2,2,0,0,0-.12.32,2.58,2.58,0,0,0-.07.37,3.51,3.51,0,0,0,0,.42,3,3,0,0,0,0,.47,2.63,2.63,0,0,0,.11.44,2.53,2.53,0,0,0,.18.4,2.67,2.67,0,0,0,.25.37,1.46,1.46,0,0,0,.33.31,1.88,1.88,0,0,0,.44.22,2.79,2.79,0,0,0,.55.12,4.68,4.68,0,0,0,1.3,0,2.84,2.84,0,0,0,.54-.15,2,2,0,0,0,.44-.23,1.62,1.62,0,0,0,.34-.32,2.87,2.87,0,0,0,.24-.38,2.71,2.71,0,0,0,.17-.41,2.75,2.75,0,0,0,.11-.44,3,3,0,0,0,0-.47,3.51,3.51,0,0,0,0-.42,2.59,2.59,0,0,0-.07-.37,2,2,0,0,0-.12-.32,1.58,1.58,0,0,0-.16-.27l-.2-.22-.21-.18-.22-.14-.24-.1v0l.19-.11.17-.14.16-.17.14-.21a1.56,1.56,0,0,0,.12-.24,1.87,1.87,0,0,0,.09-.27,2.37,2.37,0,0,0,.05-.31,3.1,3.1,0,0,0,0-.34,2.8,2.8,0,0,0,0-.32,2.45,2.45,0,0,0-.05-.3,2.24,2.24,0,0,0-.09-.28,2.14,2.14,0,0,0-.12-.26,1.82,1.82,0,0,0-.15-.23,1.76,1.76,0,0,0-.18-.2l-.21-.17-.24-.14-.26-.12-.28-.08-.3,0h-.33"/><path class="cls-28" d="M222,124.87a13.89,13.89,0,0,0-6.23,1.37,15.92,15.92,0,0,0-5.12,3.94,18.94,18.94,0,0,0-3.47,5.93,21.27,21.27,0,0,0-1.27,7.31,21.56,21.56,0,0,0,.65,5.27,20.21,20.21,0,0,0,1.82,4.69,18.45,18.45,0,0,0,2.8,3.89,16.33,16.33,0,0,0,3.59,2.88,6.53,6.53,0,0,0,.71.41c.26.13.54.26.8.37l.73.29.49.17c.37.11.77.22,1.19.31s.85.18,1.29.25l1.31.19,1.25.13.8,0,1.23,0h2l73.24-.27v-8l-73,0h-.76l-1.18,0-1.18,0-.75,0-.73-.08-.79-.1-.78-.13-.69-.15-.68-.23-.62-.25-.52-.24-.38-.21a9.18,9.18,0,0,1-1.9-1.61,10.31,10.31,0,0,1-1.48-2.12,11.21,11.21,0,0,1-1-2.53,12,12,0,0,1,.36-6.87,10.49,10.49,0,0,1,1.91-3.28,8.82,8.82,0,0,1,2.82-2.19,7.69,7.69,0,0,1,6.81,0,9,9,0,0,1,2.76,2.16,10.63,10.63,0,0,1,1.89,3.18,11.81,11.81,0,0,1,.77,3.89l7,0a21.31,21.31,0,0,0-1.31-7.09,19.23,19.23,0,0,0-3.38-5.82,16.23,16.23,0,0,0-5-4,14,14,0,0,0-6.12-1.53m-44.69-1.66-16.2-.26v8.64l8.66.1v45.13l7.54-.08V123.21M222,110.89a24.23,24.23,0,0,0-10.92,2.33,27.84,27.84,0,0,0-9,6.88,33.14,33.14,0,0,0-6.13,10.4,37.11,37.11,0,0,0-2.26,12.85,37.6,37.6,0,0,0,1.1,9.07,35.52,35.52,0,0,0,3.09,8.09,32.6,32.6,0,0,0,4.75,6.75,28.89,28.89,0,0,0,6.09,5.06c.4.24.84.49,1.29.72s.91.46,1.35.66l1.19.53.83.33c.63.21,1.29.4,2,.58s1.39.33,2.1.46,1.43.25,2.14.34,1.41.17,2.1.22l1.05,0,1.48,0h2.54l73.13-.8v-8.28l-73,.47h-2.15l-1.29,0-.86,0c-.55,0-1.13-.1-1.71-.17s-1.18-.16-1.76-.27-1.17-.23-1.73-.37-1.1-.29-1.61-.46l-.47-.18-.7-.29-.7-.31-.48-.23a20.64,20.64,0,0,1-4.89-3.64,23.56,23.56,0,0,1-3.83-5.07,25.94,25.94,0,0,1-2.5-6.19,27.59,27.59,0,0,1-.89-7A27.28,27.28,0,0,1,202.9,134a24.38,24.38,0,0,1,4.48-7.63,20.48,20.48,0,0,1,6.6-5.07,17.81,17.81,0,0,1,15.9.25,21,21,0,0,1,6.41,5.14,24.81,24.81,0,0,1,4.34,7.5,27.34,27.34,0,0,1,1.65,9.12l7.24,0a37.29,37.29,0,0,0-2.22-12.42,33.83,33.83,0,0,0-5.87-10.23,28.59,28.59,0,0,0-8.71-7A24.51,24.51,0,0,0,222,110.89m-33-.79-19.18-.44v8.94l11.43.21V176.7l7.75-.08V110.1"/><path class="cls-28" d="M263.7,122.62a3.5,3.5,0,0,1-1.52-.38,4.08,4.08,0,0,1-1.26-1,4.85,4.85,0,0,1-.87-1.51,5.61,5.61,0,0,1-.32-1.9A5.17,5.17,0,0,1,260,116a4.63,4.63,0,0,1,.87-1.45,3.94,3.94,0,0,1,1.26-1,3.38,3.38,0,0,1,1.52-.33,3.44,3.44,0,0,1,1.51.39,4.15,4.15,0,0,1,1.25,1,4.88,4.88,0,0,1,.85,1.48,5.3,5.3,0,0,1,.32,1.81,5.54,5.54,0,0,1-.32,1.88,4.62,4.62,0,0,1-.85,1.48,3.85,3.85,0,0,1-1.25,1,3.38,3.38,0,0,1-1.51.33m0-10.24a4,4,0,0,0-1.82.39,4.64,4.64,0,0,0-1.5,1.15,5.51,5.51,0,0,0-1,1.74,6.26,6.26,0,0,0-.38,2.16,6.52,6.52,0,0,0,.38,2.19,6,6,0,0,0,1,1.81,5,5,0,0,0,1.5,1.24,4,4,0,0,0,3.68.06,4.6,4.6,0,0,0,1.49-1.19,5.67,5.67,0,0,0,1-1.77,6.68,6.68,0,0,0,0-4.33,5.74,5.74,0,0,0-1-1.77,4.79,4.79,0,0,0-1.49-1.21,4.24,4.24,0,0,0-1.85-.47"/><path class="cls-28" d="M262.9,117.58v-1.73l.86,0a1.69,1.69,0,0,1,.41.05.87.87,0,0,1,.32.16.69.69,0,0,1,.21.28,1.12,1.12,0,0,1,.07.43,1.07,1.07,0,0,1,0,.28.75.75,0,0,1-.13.27.65.65,0,0,1-.26.2,1,1,0,0,1-.43.07l-1,0m1.2-2.43-2.05,0v5.53l.85,0v-2.27h.68a1.56,1.56,0,0,1,.57.1.71.71,0,0,1,.31.24.82.82,0,0,1,.13.33,2,2,0,0,1,0,.36c0,.24,0,.43,0,.58a3.39,3.39,0,0,0,0,.36.6.6,0,0,0,.05.2.33.33,0,0,0,.11.12l.86,0a.53.53,0,0,1-.1-.17.9.9,0,0,1,0-.22c0-.09,0-.2,0-.34s0-.31,0-.53a4,4,0,0,0,0-.45,1.72,1.72,0,0,0-.09-.41,1,1,0,0,0-.56-.58,1.45,1.45,0,0,0,.44-.27,1.09,1.09,0,0,0,.25-.32,1.21,1.21,0,0,0,.11-.33,1.73,1.73,0,0,0,0-.3,1.93,1.93,0,0,0-.18-.86,1.3,1.3,0,0,0-.42-.5,1.54,1.54,0,0,0-.5-.23,1.87,1.87,0,0,0-.43-.06"/><g class="cls-2"><g class="cls-2"><g class="cls-29"><path class="cls-30" d="M139,18.21a8.34,8.34,0,0,0-.9.23,9.18,9.18,0,0,0-.9.34q-.45.2-.91.45c-.3.17.25,4.55-.05,4.76a36.21,36.21,0,0,0-15,29.57c0,14.87,7.34,22.38,10.82,26.12,3.06,2.95,4.86,4.49,6.67,4.33.3,0,.8.92,1.1.86a8.42,8.42,0,0,0,.91-.24,9.3,9.3,0,0,0,.92-.36q.46-.21.92-.47a17.76,17.76,0,0,0,5.9-6.12,40.68,40.68,0,0,0,4.34-10,63.73,63.73,0,0,0,2.31-12.55,68.52,68.52,0,0,0-.18-13.59,52.1,52.1,0,0,0-2.23-10.43A29.72,29.72,0,0,0,149,23.45,13.87,13.87,0,0,0,144.31,19a7.81,7.81,0,0,0-5.29-.82"/><polyline class="cls-31" points="136.16 47.85 128.7 56.68 136.22 61.16 139.88 58.46 137.53 55.08 138.33 44.61 136.21 42.93"/></g></g><g class="cls-2"><g class="cls-32"><path class="cls-33" d="M147.76,47.22l2.82-3.55L164.33,51l-9.56,12.16-4-2.11-2.83,3.58-14-7.28,9.75-12.25,4.06,2.15M149,21.72q-.85,0-1.71,0t-1.72.06q-.87.06-1.73.17t-1.74.28A27.86,27.86,0,0,0,131.06,27a29.8,29.8,0,0,0-8.05,8.8,32.66,32.66,0,0,0-4.24,11.59,34.8,34.8,0,0,0,.37,13.08,35.17,35.17,0,0,0,4.14,10.52,33.61,33.61,0,0,0,6.88,8.22,31.38,31.38,0,0,0,8.82,5.4,28.77,28.77,0,0,0,10,2.08q.85,0,1.71,0t1.72-.11q.86-.08,1.72-.22t1.72-.33a27.92,27.92,0,0,0,10.79-5,30,30,0,0,0,7.72-8.78,32.74,32.74,0,0,0,4-11.33A34.79,34.79,0,0,0,178,48.12a35.2,35.2,0,0,0-3.93-10.29,33.72,33.72,0,0,0-6.59-8.18,31.57,31.57,0,0,0-8.58-5.55A28.94,28.94,0,0,0,149,21.72"/><polyline class="cls-34" points="143.12 41.05 127.96 55.87 145.48 67.99 149.88 63.65 137.53 55.08 148.21 44.62 143.12 41.05"/><polyline class="cls-35" points="152.6 40.32 148.21 44.62 137.53 55.08 149.88 63.65 154.94 67.17 169.82 52.44 152.6 40.32"/></g></g></g></g><g id="lights_shadows" data-name="lights shadows"><polygon class="cls-36" points="319.7 303.06 136.59 322.28 136.59 0 319.7 13.73 319.7 303.06"/><polygon class="cls-37" points="53.47 23.36 136.59 0 136.59 322.28 53.47 301.71 53.47 23.36"/><polygon class="cls-38" points="319.71 303.06 315.06 303.54 315.06 13.39 319.71 13.73 319.71 303.06"/><polygon class="cls-39" points="53.47 301.71 58.12 302.86 58.12 22.2 53.47 23.37 53.47 301.71"/><polygon class="cls-40" points="319.7 17.7 136.59 3.21 136.59 0 319.7 13.73 319.7 17.7"/><polygon class="cls-41" points="53.47 27.33 136.53 3.21 136.53 0 53.47 23.36 53.47 27.33"/><polygon class="cls-42" points="136.73 312.78 53.47 292.97 53.47 301.71 136.73 322.28 136.73 312.78"/><rect class="cls-43" x="134.87" width="3.32" height="322.28"/><polygon class="cls-44" points="144.14 321.49 136.53 322.28 136.53 0 144.14 0.57 144.14 321.49"/><polygon class="cls-45" points="136.59 312.78 319.7 294.31 319.7 303.06 136.59 322.28 136.59 312.78"/><polygon class="cls-46" points="319.7 303.06 136.59 322.28 136.59 0 319.7 13.73 319.7 303.06"/><polygon class="cls-47" points="133.21 321.48 136.53 322.28 136.53 0 133.21 0.84 133.21 321.48"/><polygon class="cls-48" points="319.7 303.06 136.59 322.28 136.59 0 319.7 13.73 319.7 303.06"/></g></g></g></svg>