<svg xmlns="http://www.w3.org/2000/svg" xmlns:xlink="http://www.w3.org/1999/xlink" viewBox="0 0 326.22 326.44"><defs><style>.cls-1{fill:none;}.cls-2{isolation:isolate;}.cls-3{opacity:0.7;}.cls-4{fill:#fff;opacity:0;}.cls-5{fill:#fbfbfb;opacity:0.05;}.cls-6{fill:#f8f8f8;opacity:0.1;}.cls-7{fill:#f4f4f4;opacity:0.14;}.cls-8{fill:#f1f1f0;opacity:0.19;}.cls-9{fill:#ededed;opacity:0.24;}.cls-10{fill:#e9e9e9;opacity:0.29;}.cls-11{fill:#e6e6e5;opacity:0.33;}.cls-12{fill:#e2e2e2;opacity:0.38;}.cls-13{fill:#dedede;opacity:0.43;}.cls-14{fill:#dbdbda;opacity:0.48;}.cls-15{fill:#d7d7d7;opacity:0.52;}.cls-16{fill:#d4d4d3;opacity:0.57;}.cls-17{fill:#d0d0cf;opacity:0.62;}.cls-18{fill:#ccc;opacity:0.67;}.cls-19{fill:#c9c9c8;opacity:0.71;}.cls-20{fill:#c5c5c4;opacity:0.76;}.cls-21{fill:#c1c1c1;opacity:0.81;}.cls-22{fill:#bebebd;opacity:0.86;}.cls-23{fill:#babab9;opacity:0.9;}.cls-24{fill:#b7b7b6;opacity:0.95;}.cls-25{fill:#b3b3b2;}.cls-26{fill:#fcda00;}.cls-27{fill:#ffca02;}.cls-28{fill:#d10910;}.cls-29{clip-path:url(#clip-path);}.cls-30{fill:#e7eaec;}.cls-31{fill:#95ceb8;}.cls-32{clip-path:url(#clip-path-2);}.cls-33{fill:#e5e5e2;}.cls-34{fill:#4ab285;}.cls-35{fill:#003d60;}.cls-36,.cls-37,.cls-43{mix-blend-mode:multiply;}.cls-36{fill:url(#Безымянный_градиент_761);}.cls-37{fill:url(#Безымянный_градиент_2038);}.cls-38,.cls-39,.cls-40,.cls-41,.cls-42,.cls-45{mix-blend-mode:overlay;}.cls-38{fill:url(#Безымянный_градиент_500);}.cls-39{fill:url(#Безымянный_градиент_500-2);}.cls-40{fill:url(#Безымянный_градиент_147);}.cls-41{fill:url(#Безымянный_градиент_503);}.cls-42{fill:url(#Безымянный_градиент_543);}.cls-43{fill:url(#Безымянный_градиент_771);}.cls-44,.cls-46,.cls-48{mix-blend-mode:soft-light;}.cls-44{fill:url(#Безымянный_градиент_13);}.cls-45{fill:url(#Безымянный_градиент_549);}.cls-46{fill:url(#Безымянный_градиент_2036);}.cls-47{mix-blend-mode:hard-light;fill:url(#Безымянный_градиент_8);}.cls-48{fill:url(#Безымянный_градиент_5);}</style><clipPath id="clip-path"><polygon class="cls-1" points="136.45 92.77 112.25 73.06 112.25 50.43 136.45 23.88 136.45 92.77"/></clipPath><clipPath id="clip-path-2"><polygon class="cls-1" points="188.99 29.66 188.99 93.82 136.45 108.58 136.45 14.9 188.99 29.66"/></clipPath><linearGradient id="Безымянный_градиент_761" x1="268.79" y1="8.63" x2="183.64" y2="308.02" gradientUnits="userSpaceOnUse"><stop offset="0" stop-color="#fff"/><stop offset="0.66" stop-color="#f3f3f3"/><stop offset="1" stop-color="#eaeaea"/></linearGradient><linearGradient id="Безымянный_градиент_2038" x1="139.95" y1="6.28" x2="60.6" y2="300.46" gradientUnits="userSpaceOnUse"><stop offset="0" stop-color="#f1f4f1"/><stop offset="0.33" stop-color="#e8e2e4"/><stop offset="1" stop-color="#d8c2cd"/></linearGradient><linearGradient id="Безымянный_градиент_500" x1="315.06" y1="158.47" x2="319.71" y2="158.47" gradientUnits="userSpaceOnUse"><stop offset="0" stop-color="gray"/><stop offset="0.42" stop-color="#828282"/><stop offset="0.6" stop-color="#898989"/><stop offset="0.74" stop-color="#969696"/><stop offset="0.85" stop-color="#a8a8a8"/><stop offset="0.95" stop-color="#bfbfbf"/><stop offset="1" stop-color="#cfcfcf"/></linearGradient><linearGradient id="Безымянный_градиент_500-2" x1="-2095.21" y1="162.53" x2="-2090.55" y2="162.53" gradientTransform="matrix(-1, 0, 0, 1, -2037.08, 0)" xlink:href="#Безымянный_градиент_500"/><linearGradient id="Безымянный_градиент_147" x1="228.3" y1="6.87" x2="228.02" y2="10.45" gradientUnits="userSpaceOnUse"><stop offset="0" stop-color="#cfcfcf"/><stop offset="0.05" stop-color="#bfbfbf"/><stop offset="0.15" stop-color="#a8a8a8"/><stop offset="0.26" stop-color="#969696"/><stop offset="0.4" stop-color="#898989"/><stop offset="0.58" stop-color="#828282"/><stop offset="1" stop-color="gray"/></linearGradient><linearGradient id="Безымянный_градиент_503" x1="94.51" y1="11.8" x2="95.61" y2="15.99" gradientUnits="userSpaceOnUse"><stop offset="0" stop-color="#ebebeb"/><stop offset="0.04" stop-color="#dbdbdb"/><stop offset="0.12" stop-color="#bfbfbf"/><stop offset="0.21" stop-color="#a8a8a8"/><stop offset="0.32" stop-color="#969696"/><stop offset="0.44" stop-color="#898989"/><stop offset="0.61" stop-color="#828282"/><stop offset="1" stop-color="gray"/></linearGradient><linearGradient id="Безымянный_градиент_543" x1="94.04" y1="311.75" x2="96.35" y2="302.75" gradientUnits="userSpaceOnUse"><stop offset="0" stop-color="#414141"/><stop offset="0.03" stop-color="#565656"/><stop offset="0.08" stop-color="#696969"/><stop offset="0.13" stop-color="#767676"/><stop offset="0.19" stop-color="#7e7e7e"/><stop offset="0.32" stop-color="gray"/></linearGradient><linearGradient id="Безымянный_градиент_771" x1="134.87" y1="161.14" x2="138.19" y2="161.14" gradientUnits="userSpaceOnUse"><stop offset="0" stop-color="#fff"/><stop offset="0.21" stop-color="#fefefd"/><stop offset="0.3" stop-color="#fcfcf6"/><stop offset="0.36" stop-color="#f9f7e9"/><stop offset="0.42" stop-color="#f4f1d8"/><stop offset="0.46" stop-color="#ede9c1"/><stop offset="0.48" stop-color="#eae5b5"/><stop offset="0.5" stop-color="#eeeac3"/><stop offset="0.55" stop-color="#f4f2d9"/><stop offset="0.61" stop-color="#f9f8ea"/><stop offset="0.67" stop-color="#fcfcf6"/><stop offset="0.76" stop-color="#fefefd"/><stop offset="1" stop-color="#fff"/></linearGradient><linearGradient id="Безымянный_градиент_13" x1="136.53" y1="161.14" x2="144.14" y2="161.14" gradientUnits="userSpaceOnUse"><stop offset="0" stop-color="gray"/><stop offset="0.01" stop-color="#858586"/><stop offset="0.04" stop-color="#97999e"/><stop offset="0.07" stop-color="#a2a5ac"/><stop offset="0.1" stop-color="#a6a9b1"/><stop offset="0.14" stop-color="#9fa1a8"/><stop offset="0.26" stop-color="#919296"/><stop offset="0.39" stop-color="#878889"/><stop offset="0.58" stop-color="#828282"/><stop offset="1" stop-color="gray"/></linearGradient><linearGradient id="Безымянный_градиент_549" x1="228.53" y1="312.06" x2="227.69" y2="303.76" gradientUnits="userSpaceOnUse"><stop offset="0" stop-color="#060606"/><stop offset="0.06" stop-color="#292929"/><stop offset="0.14" stop-color="#4e4e4e"/><stop offset="0.21" stop-color="#6a6a6a"/><stop offset="0.27" stop-color="#7a7a7a"/><stop offset="0.32" stop-color="gray"/></linearGradient><linearGradient id="Безымянный_градиент_2036" x1="278.05" y1="-23.95" x2="173.89" y2="342.32" gradientUnits="userSpaceOnUse"><stop offset="0" stop-color="#fff"/><stop offset="0.42" stop-color="#d4cccc"/><stop offset="1" stop-color="#958080"/></linearGradient><linearGradient id="Безымянный_градиент_8" x1="-2070.41" y1="161.14" x2="-2067.09" y2="161.14" gradientTransform="matrix(-1, 0, 0, 1, -1933.88, 0)" gradientUnits="userSpaceOnUse"><stop offset="0" stop-color="gray"/><stop offset="0.02" stop-color="#999992"/><stop offset="0.05" stop-color="#afb1a3"/><stop offset="0.08" stop-color="#bdbfad"/><stop offset="0.1" stop-color="#c2c4b0"/><stop offset="0.12" stop-color="#bdbfac"/><stop offset="0.21" stop-color="#a7a89c"/><stop offset="0.31" stop-color="#95968f"/><stop offset="0.44" stop-color="#898987"/><stop offset="0.61" stop-color="#828281"/><stop offset="1" stop-color="gray"/></linearGradient><linearGradient id="Безымянный_градиент_5" x1="278.05" y1="-23.95" x2="173.89" y2="342.32" gradientUnits="userSpaceOnUse"><stop offset="0" stop-color="#fff"/><stop offset="0.1" stop-color="#fbfafa"/><stop offset="0.22" stop-color="#efecec"/><stop offset="0.35" stop-color="#dbd4d4"/><stop offset="0.48" stop-color="#c0b3b3"/><stop offset="0.62" stop-color="#9c8989"/><stop offset="0.64" stop-color="#958080"/></linearGradient></defs><title>Upravlenie-torgovlej</title><g class="cls-2"><g id="Layer_2" data-name="Layer 2"><g id="box_color" data-name="box color"><g class="cls-3"><path class="cls-4" d="M8.27,306.78C39.94,313.66,124,325,124,325a52.65,52.65,0,0,0,18.4,1.15l180.31-20.6c4.58-.15,4.43-5,.92-5.66l-202-29a78.62,78.62,0,0,0-24.89-.44S36.5,285.24,12.38,289.07C.88,290.9-6.55,303.56,8.27,306.78Z"/><path class="cls-5" d="M10.52,306.56c30.16,6.55,114,18.25,114,18.25a50.48,50.48,0,0,0,17.64,1.1l180.2-20.51c4.39-.15,4.24-4.84.87-5.44L124.06,271.3a75.22,75.22,0,0,0-23.8-.42S37.4,286,14.44,289.66C3.46,291.41-3.62,303.5,10.52,306.56Z"/><path class="cls-6" d="M12.77,306.35c28.65,6.22,112.31,18.32,112.31,18.32A48.32,48.32,0,0,0,142,325.73L322,305.31c4.2-.14,4.06-4.65.83-5.22L126.53,271.77a71.82,71.82,0,0,0-22.72-.4s-65.5,15.41-87.32,18.87C6,291.91-.68,303.43,12.77,306.35Z"/><path class="cls-7" d="M15,306.13c27.15,5.89,110.6,18.4,110.6,18.4a46.15,46.15,0,0,0,16.12,1l180-20.32c4-.14,3.88-4.45.79-5L129,272.25a68.42,68.42,0,0,0-21.63-.38s-68.15,15.68-88.81,19C8.62,292.41,2.25,303.36,15,306.13Z"/><path class="cls-8" d="M17.26,305.91c25.64,5.56,108.88,18.48,108.88,18.48a44,44,0,0,0,15.36,1l179.87-20.23c3.82-.14,3.7-4.26.75-4.78L131.45,272.72a65,65,0,0,0-20.54-.36s-70.79,16-90.31,19.06C11.21,292.92,5.18,303.29,17.26,305.91Z"/><path class="cls-9" d="M19.51,305.7c24.13,5.24,107.16,18.55,107.16,18.55a41.81,41.81,0,0,0,14.61.92L321,305c3.63-.13,3.52-4.06.7-4.56L133.92,273.2a61.61,61.61,0,0,0-19.46-.34S41,289.1,22.66,292C13.79,293.42,8.12,303.22,19.51,305.7Z"/><path class="cls-10" d="M21.76,305.48c22.62,4.91,105.45,18.63,105.45,18.63a39.65,39.65,0,0,0,13.85.87l179.65-20c3.44-.13,3.34-3.87.66-4.34l-185-26.92a58.21,58.21,0,0,0-18.37-.32s-76.07,16.52-93.3,19.25C16.37,293.93,11.05,303.15,21.76,305.48Z"/><path class="cls-11" d="M24,305.26C45.12,309.85,127.74,324,127.74,324a37.48,37.48,0,0,0,13.09.82l179.53-20c3.26-.12,3.16-3.67.62-4.12L138.84,274.14a54.81,54.81,0,0,0-17.28-.3s-78.72,16.79-94.79,19.35C19,294.43,14,303.08,24,305.26Z"/><path class="cls-12" d="M26.26,305c19.6,4.26,102,18.78,102,18.78a35.31,35.31,0,0,0,12.33.78L320,304.73c3.07-.12,3-3.48.58-3.9l-179.3-26.22a51.41,51.41,0,0,0-16.2-.28s-81.36,17.07-96.29,19.44C21.54,294.94,16.92,303,26.26,305Z"/><path class="cls-13" d="M28.51,304.83c18.1,3.93,100.3,18.85,100.3,18.85a33.15,33.15,0,0,0,11.57.73l179.31-19.77c2.88-.11,2.8-3.28.53-3.68L143.77,275.09a48,48,0,0,0-15.11-.26s-84,17.35-97.78,19.53C24.12,295.44,19.86,302.94,28.51,304.83Z"/><path class="cls-14" d="M30.76,304.61c16.59,3.6,98.58,18.93,98.58,18.93a31,31,0,0,0,10.82.68l179.2-19.68c2.69-.11,2.62-3.09.49-3.46L146.23,275.57a44.6,44.6,0,0,0-14-.24S45.57,293,32.94,295C26.7,295.94,22.79,302.87,30.76,304.61Z"/><path class="cls-15" d="M33,304.39c15.08,3.27,96.86,19,96.86,19a28.81,28.81,0,0,0,10.06.64L319,304.44c2.5-.11,2.44-2.89.45-3.24L148.7,276a41.2,41.2,0,0,0-12.94-.22S46.47,293.72,35,295.55C29.28,296.45,25.72,302.81,33,304.39Z"/><path class="cls-16" d="M35.26,304.18c13.57,2.95,95.14,19.08,95.14,19.08a26.64,26.64,0,0,0,9.3.59l179-19.5c2.31-.1,2.26-2.7.41-3L151.16,276.51a37.8,37.8,0,0,0-11.85-.2S47.38,294.49,37,296.14C31.86,297,28.66,302.74,35.26,304.18Z"/><path class="cls-17" d="M37.51,304c12.06,2.62,93.43,19.15,93.43,19.15a24.48,24.48,0,0,0,8.54.55l178.87-19.41c2.12-.1,2.08-2.5.36-2.8L153.62,277a34.4,34.4,0,0,0-10.76-.18S48.29,295.26,39.1,296.72C34.45,297.46,31.59,302.67,37.51,304Z"/><path class="cls-18" d="M39.76,303.74C50.31,306,131.47,323,131.47,323a22.31,22.31,0,0,0,7.79.5L318,304.16c1.93-.09,1.9-2.31.32-2.58L156.09,277.46a31,31,0,0,0-9.68-.16S49.19,296,41.16,297.31C37,298,34.53,302.6,39.76,303.74Z"/><path class="cls-19" d="M42,303.53c9,2,90,19.3,90,19.3a20.14,20.14,0,0,0,7,.45l178.64-19.22a1.19,1.19,0,1,0,.28-2.36l-159.4-23.76a27.6,27.6,0,0,0-8.59-.14s-99.86,19-106.75,20.1C39.61,298.47,37.46,302.53,42,303.53Z"/><path class="cls-20" d="M44.25,303.31c7.54,1.64,88.28,19.38,88.28,19.38a18,18,0,0,0,6.27.41L317.33,304a1.08,1.08,0,0,0,.24-2.14L161,278.41a24.2,24.2,0,0,0-7.5-.12S51,297.58,45.27,298.49C42.19,299,40.4,302.46,44.25,303.31Z"/><path class="cls-21" d="M46.5,303.09c6,1.31,86.56,19.45,86.56,19.45a15.81,15.81,0,0,0,5.51.36l178.42-19a1,1,0,0,0,.19-1.92L163.48,278.89a20.8,20.8,0,0,0-6.42-.1S51.91,298.35,47.32,299.08C44.77,299.47,43.33,302.39,46.5,303.09Z"/><path class="cls-22" d="M48.75,302.88c4.52,1,84.84,19.53,84.84,19.53a13.64,13.64,0,0,0,4.75.31l178.31-18.95a.85.85,0,0,0,.15-1.7L165.94,279.36a17.4,17.4,0,0,0-5.33-.08S52.82,299.13,49.38,299.67C47.36,300,46.26,302.33,48.75,302.88Z"/><path class="cls-23" d="M51,302.66c3,.67,83.13,19.6,83.13,19.6a11.48,11.48,0,0,0,4,.27l178.2-18.85a.74.74,0,0,0,.11-1.48l-148-22.36a14,14,0,0,0-4.24-.06S53.73,299.9,51.43,300.26C49.94,300.49,49.2,302.26,51,302.66Z"/><path class="cls-24" d="M53.25,302.44c1.51.34,81.41,19.68,81.41,19.68a9.31,9.31,0,0,0,3.24.22L316,303.58a.63.63,0,0,0,.07-1.26l-145.18-22a10.62,10.62,0,0,0-3.16,0S54.64,300.67,53.49,300.84C52.52,301,52.13,302.19,53.25,302.44Z"/><path class="cls-25" d="M55.5,302.22,135.19,322a7.14,7.14,0,0,0,2.48.17l178-18.67a.52.52,0,0,0,0-1L173.33,280.78a7.25,7.25,0,0,0-2.07,0L55.54,301.43A.4.4,0,0,0,55.5,302.22Z"/></g><polygon class="cls-26" points="319.7 303.06 136.59 322.28 136.59 0 319.7 13.73 319.7 303.06"/><polygon class="cls-27" points="53.47 23.36 136.59 0 136.59 322.28 53.47 301.71 53.47 23.36"/><polyline class="cls-28" points="183.3 185.98 181.12 186.01 179.97 189.47 178.55 186.05 176.17 186.08 178.89 191.99 177.9 194.29 180.07 194.25 183.3 185.98"/><polyline class="cls-28" points="188.95 188.44 183.8 188.52 183.8 194.18 185.59 194.15 185.59 189.9 187.17 189.87 187.17 194.12 188.95 194.09 188.95 188.44"/><path class="cls-28" d="M192.8,192.54l-.26,0a.89.89,0,0,1-.22-.07.81.81,0,0,1-.18-.12.92.92,0,0,1-.15-.17,1.66,1.66,0,0,1-.2-.44,1.74,1.74,0,0,1,0-.24,1.9,1.9,0,0,1,0-.25,2,2,0,0,1,0-.26,1.72,1.72,0,0,1,0-.24,1.66,1.66,0,0,1,.08-.23,1.77,1.77,0,0,1,.12-.22.87.87,0,0,1,.15-.18.83.83,0,0,1,.18-.13.94.94,0,0,1,.22-.08l.26,0,.24,0,.21.07a.81.81,0,0,1,.18.12.88.88,0,0,1,.15.16,1.34,1.34,0,0,1,.12.2,1.42,1.42,0,0,1,.09.23,1.65,1.65,0,0,1,.05.25,2.06,2.06,0,0,1,0,.28,2,2,0,0,1,0,.28,1.73,1.73,0,0,1-.05.26,1.51,1.51,0,0,1-.09.23,1.37,1.37,0,0,1-.12.21.93.93,0,0,1-.15.17.85.85,0,0,1-.18.12l-.21.08-.24,0m.62-4.39-.25,0-.23,0-.22.07-.2.09-.19.12-.18.16-.18.2-.17.23v-.69l-1.71,0v8.09l1.77,0v-3a2.22,2.22,0,0,0,.33.34,1.83,1.83,0,0,0,.37.24,1.77,1.77,0,0,0,.41.14,2,2,0,0,0,.45,0l.35,0a1.89,1.89,0,0,0,.32-.09,1.76,1.76,0,0,0,.3-.14,1.84,1.84,0,0,0,.27-.2,2.56,2.56,0,0,0,.25-.24,2.53,2.53,0,0,0,.21-.27,2.73,2.73,0,0,0,.18-.3,3.21,3.21,0,0,0,.15-.34q.06-.17.11-.35t.08-.36q0-.18,0-.37t0-.38q0-.16,0-.31t0-.3,0-.29-.07-.28-.08-.27-.1-.25l-.12-.23-.13-.21-.15-.2-.17-.17-.19-.15-.21-.12-.22-.1-.24-.07-.25,0h-.27"/><path class="cls-28" d="M199.18,192.43l-.25,0a.85.85,0,0,1-.21-.07.8.8,0,0,1-.18-.13.93.93,0,0,1-.15-.18,1.6,1.6,0,0,1-.11-.21,1.67,1.67,0,0,1-.08-.22,1.77,1.77,0,0,1,0-.24,1.91,1.91,0,0,1,0-.25c0-.05,0-.11,0-.16s0-.11,0-.16,0-.1,0-.16l0-.16.06-.15.08-.13.09-.12.11-.11.13-.09.14-.07.16,0,.17,0,.23,0,.21.07a.85.85,0,0,1,.18.12,1,1,0,0,1,.15.16,1.23,1.23,0,0,1,.12.2,1.42,1.42,0,0,1,.09.23,1.74,1.74,0,0,1,.05.25,2.19,2.19,0,0,1,0,.28c0,.06,0,.12,0,.18s0,.12,0,.17a1.66,1.66,0,0,1,0,.17,1.51,1.51,0,0,1-.06.16l-.07.15L200,192l-.1.11-.12.1-.12.08-.14.06-.15,0h-.16m-.6-4.35-.34,0-.32.08-.3.13a2.1,2.1,0,0,0-.28.18,2.18,2.18,0,0,0-.24.22,2.35,2.35,0,0,0-.21.26,2.68,2.68,0,0,0-.18.29,3.19,3.19,0,0,0-.15.33q-.07.18-.12.36t-.08.37q0,.19,0,.39t0,.41q0,.21,0,.42t.05.39a3.58,3.58,0,0,0,.09.38,3.32,3.32,0,0,0,.13.36,3,3,0,0,0,.16.32,2.58,2.58,0,0,0,.18.28,2.37,2.37,0,0,0,.21.25l.24.21a2,2,0,0,0,.27.17l.29.12.31.07.32,0a2,2,0,0,0,.48-.06,1.75,1.75,0,0,0,.42-.17,1.86,1.86,0,0,0,.37-.28,2.37,2.37,0,0,0,.32-.39v.67l1.69,0v-5.61l-1.69,0V189l-.17-.23-.17-.19-.18-.15-.19-.12-.2-.09-.21-.06-.23,0h-.24"/><path class="cls-28" d="M204.67,192.57v-1.09h.89l.11,0,.1,0,.08.07.07.08,0,.09a.55.55,0,0,1,0,.11.71.71,0,0,1,0,.12.66.66,0,0,1,0,.12.58.58,0,0,1,0,.1l0,.09-.06.08-.08.06-.1,0-.11,0h-.9m0-2.19v-1h.72a.77.77,0,0,1,.22,0,.4.4,0,0,1,.16.09.36.36,0,0,1,.1.15.63.63,0,0,1,0,.21.65.65,0,0,1,0,.22.4.4,0,0,1-.1.16.42.42,0,0,1-.16.1.74.74,0,0,1-.22,0h-.72m1.49-2.21-3.17,0v5.61l3.24-.06a2.72,2.72,0,0,0,.43,0,1.63,1.63,0,0,0,.35-.1,1.08,1.08,0,0,0,.27-.16.89.89,0,0,0,.19-.22,2.68,2.68,0,0,0,.13-.24,2,2,0,0,0,.09-.24,1.62,1.62,0,0,0,.06-.23,1.43,1.43,0,0,0,0-.23,2.58,2.58,0,0,0,0-.32,1.75,1.75,0,0,0-.06-.28,1.26,1.26,0,0,0-.1-.24,1,1,0,0,0-.14-.2l-.16-.15-.18-.12-.19-.09-.2-.06h0l.22-.1.18-.13a1,1,0,0,0,.25-.35,2.06,2.06,0,0,0,.08-.2,1.92,1.92,0,0,0,.05-.2,2,2,0,0,0,0-.21c0-.07,0-.14,0-.21a1.54,1.54,0,0,0,0-.24,1.4,1.4,0,0,0-.06-.23,1.36,1.36,0,0,0-.1-.22,1.43,1.43,0,0,0-.14-.2.75.75,0,0,0-.18-.17,1,1,0,0,0-.24-.12,1.55,1.55,0,0,0-.3-.07l-.36,0"/><path class="cls-28" d="M213.69,188.06l-4.53.07v3.19a2,2,0,0,1,0,.43.91.91,0,0,1-.12.31.54.54,0,0,1-.21.19.66.66,0,0,1-.29.07h-.24l-.08,0v1.46l.32,0,.26,0,.2,0h.14l.36,0,.32-.07a1.43,1.43,0,0,0,.27-.12,1.13,1.13,0,0,0,.22-.16l.17-.18.14-.19a1.39,1.39,0,0,0,.1-.2,1.25,1.25,0,0,0,.07-.2q0-.11,0-.22t0-.22,0-.22,0-.22v-2.33l1.11,0v4.2l1.75,0v-5.58"/><path class="cls-28" d="M216.21,190.14a1.5,1.5,0,0,1,0-.22,1.43,1.43,0,0,1,.14-.4l.11-.18a1,1,0,0,1,.14-.15l.16-.11L217,189l.21,0,.21,0,.19.07.16.11a1,1,0,0,1,.14.15,1.35,1.35,0,0,1,.11.17,1.4,1.4,0,0,1,.08.19,1.54,1.54,0,0,1,.05.2,1.76,1.76,0,0,1,0,.21l-1.94,0m1-2.35-.36,0-.35.07-.33.11-.31.16a2.16,2.16,0,0,0-.28.2,2.32,2.32,0,0,0-.25.24,2.6,2.6,0,0,0-.22.28,3,3,0,0,0-.19.32,2.71,2.71,0,0,0-.15.36,3.13,3.13,0,0,0-.11.39,3.83,3.83,0,0,0-.06.42q0,.22,0,.46t0,.32q0,.16,0,.31t.06.29a4.25,4.25,0,0,0,.18.55,2.64,2.64,0,0,0,.12.25l.14.23.16.2.19.19.2.16.22.14.24.11.25.09.27.06.28,0h.3a3.88,3.88,0,0,0,.52,0,2.83,2.83,0,0,0,.46-.11,2.2,2.2,0,0,0,.4-.18,1.91,1.91,0,0,0,.34-.24,2.7,2.7,0,0,0,.52-.61,2.89,2.89,0,0,0,.19-.36,3.28,3.28,0,0,0,.14-.4l-1.66,0a1,1,0,0,1,0,.15.83.83,0,0,1-.06.13l-.09.12-.11.1-.12.08-.14.06-.16,0H217l-.15,0-.14-.06-.12-.09-.11-.1-.09-.12-.08-.13-.06-.14,0-.15,0-.16c0-.05,0-.11,0-.16s0-.11,0-.17l3.65-.06q0-.23,0-.44t0-.43q0-.21-.08-.41t-.11-.39a3,3,0,0,0-.15-.37,2.7,2.7,0,0,0-.19-.33,2.59,2.59,0,0,0-.23-.29,2.66,2.66,0,0,0-.27-.26,2,2,0,0,0-.32-.21,2.08,2.08,0,0,0-.36-.15,2.48,2.48,0,0,0-.41-.09,3.21,3.21,0,0,0-.45,0"/><polyline class="cls-28" points="225.69 187.87 223.98 187.9 223.98 189.85 222.39 189.88 222.39 187.92 220.66 187.95 220.66 193.51 222.39 193.48 222.39 191.26 223.98 191.23 223.98 193.45 225.69 193.42 225.69 187.87"/><polyline class="cls-28" points="231.87 187.78 230.23 187.8 228.51 190.79 228.51 187.83 226.8 187.85 226.8 193.4 228.47 193.37 230.15 190.28 230.15 193.34 231.87 193.3 231.87 187.78"/><path class="cls-28" d="M234.34,189.84a1.5,1.5,0,0,1,0-.22,1.42,1.42,0,0,1,.13-.39l.11-.18a1,1,0,0,1,.14-.15l.16-.11.18-.07.21,0,.21,0,.18.06.16.11a1,1,0,0,1,.14.15,1.32,1.32,0,0,1,.18.36,1.4,1.4,0,0,1,0,.2,1.54,1.54,0,0,1,0,.21l-1.9,0m1-2.33-.36,0-.34.07-.32.11-.3.16a2.14,2.14,0,0,0-.28.2,2.34,2.34,0,0,0-.25.24,2.69,2.69,0,0,0-.22.28,3.19,3.19,0,0,0-.19.31,2.83,2.83,0,0,0-.15.36,3.27,3.27,0,0,0-.1.39,4,4,0,0,0-.06.42q0,.22,0,.45t0,.32q0,.16,0,.31t.06.29a2.78,2.78,0,0,0,.08.28q0,.14.1.27a2.57,2.57,0,0,0,.12.24l.14.22.16.2.18.18.2.16.22.14.24.11.25.09.26.06.28,0h.29a3.79,3.79,0,0,0,.51,0,2.78,2.78,0,0,0,.45-.11,2.2,2.2,0,0,0,.39-.17,2,2,0,0,0,.34-.24,2.66,2.66,0,0,0,.51-.61,2.87,2.87,0,0,0,.19-.36,3.27,3.27,0,0,0,.14-.39l-1.63,0a1,1,0,0,1,0,.15.82.82,0,0,1-.06.13l-.08.12-.11.1-.12.08-.14.06-.16,0h-.34l-.15,0-.14-.06-.13-.09-.1-.1-.09-.12-.07-.13-.06-.14,0-.15q0-.08,0-.16t0-.16,0-.17l3.58-.06q0-.22,0-.44t0-.42q0-.21-.08-.41t-.11-.39a2.79,2.79,0,0,0-.14-.36,2.55,2.55,0,0,0-.18-.33,2.49,2.49,0,0,0-.23-.29,2.6,2.6,0,0,0-.27-.25,1.93,1.93,0,0,0-.31-.21,2,2,0,0,0-.36-.15,2.41,2.41,0,0,0-.4-.08,3.12,3.12,0,0,0-.45,0"/><polyline class="cls-28" points="245.75 187.56 241.63 187.62 241.63 189.05 242.85 189.03 242.85 193.1 244.54 193.07 244.54 189 245.75 188.99 245.75 187.56"/><path class="cls-28" d="M248.89,191.77l-.24,0a.81.81,0,0,1-.21-.08.78.78,0,0,1-.18-.13.92.92,0,0,1-.14-.19,1.43,1.43,0,0,1-.12-.23,1.78,1.78,0,0,1-.08-.26,2.29,2.29,0,0,1,0-.29,3,3,0,0,1,0-.31,3.09,3.09,0,0,1,0-.32,2.37,2.37,0,0,1,0-.29,1.89,1.89,0,0,1,.08-.26,1.6,1.6,0,0,1,.11-.23,1,1,0,0,1,.15-.19.83.83,0,0,1,.18-.13.86.86,0,0,1,.21-.08l.24,0,.24,0a.82.82,0,0,1,.21.07.75.75,0,0,1,.18.13.88.88,0,0,1,.14.18,1.45,1.45,0,0,1,.12.23,1.73,1.73,0,0,1,.08.25,2.23,2.23,0,0,1,0,.29,3,3,0,0,1,0,.32,2.76,2.76,0,0,1,0,.31,2.35,2.35,0,0,1-.05.29,2,2,0,0,1-.08.26,1.69,1.69,0,0,1-.11.23,1.08,1.08,0,0,1-.15.19.85.85,0,0,1-.18.14.83.83,0,0,1-.21.09l-.24,0m0-4.47a3.59,3.59,0,0,0-.62.06,2.82,2.82,0,0,0-.55.16,2.43,2.43,0,0,0-.88.62,2.72,2.72,0,0,0-.32.44,2.8,2.8,0,0,0-.23.51,3.29,3.29,0,0,0-.14.57,4.25,4.25,0,0,0,0,.64q0,.22,0,.42a3.6,3.6,0,0,0,.06.4,3.11,3.11,0,0,0,.1.37,2.83,2.83,0,0,0,.14.34,2.62,2.62,0,0,0,.18.31,2.36,2.36,0,0,0,.22.27,2.29,2.29,0,0,0,.26.24,2.38,2.38,0,0,0,.62.36l.36.11.39.06.42,0,.42,0,.39-.08L250,193l.33-.17a2.59,2.59,0,0,0,.3-.21,2.42,2.42,0,0,0,.26-.25,2.37,2.37,0,0,0,.22-.28,2.45,2.45,0,0,0,.18-.32,3.12,3.12,0,0,0,.14-.35,3.27,3.27,0,0,0,.1-.37,3.57,3.57,0,0,0,.06-.4,4.17,4.17,0,0,0,0-.84,3.52,3.52,0,0,0-.06-.39,3.19,3.19,0,0,0-.1-.37,3,3,0,0,0-.14-.34,2.62,2.62,0,0,0-.18-.31,2.37,2.37,0,0,0-.22-.27,2.29,2.29,0,0,0-.26-.24,2.39,2.39,0,0,0-.62-.36l-.36-.11-.39-.06-.41,0"/><path class="cls-28" d="M255,191.45l-.24,0a.84.84,0,0,1-.21-.07.74.74,0,0,1-.17-.12.79.79,0,0,1-.14-.17,1.64,1.64,0,0,1-.19-.43,1.73,1.73,0,0,1,0-.23,1.89,1.89,0,0,1,0-.24,2,2,0,0,1,0-.25,1.72,1.72,0,0,1,0-.23,1.65,1.65,0,0,1,.08-.22,1.74,1.74,0,0,1,.11-.21.83.83,0,0,1,.14-.17.78.78,0,0,1,.17-.13.86.86,0,0,1,.21-.08l.24,0,.22,0,.19.07a.79.79,0,0,1,.17.11,1,1,0,0,1,.14.16,1.31,1.31,0,0,1,.12.19,1.4,1.4,0,0,1,.08.22,1.64,1.64,0,0,1,.05.25,2.06,2.06,0,0,1,0,.27,2,2,0,0,1,0,.27,1.72,1.72,0,0,1-.05.25,1.49,1.49,0,0,1-.08.23,1.34,1.34,0,0,1-.12.2,1,1,0,0,1-.14.16.83.83,0,0,1-.17.12l-.19.07-.22,0m.58-4.25-.23,0-.22,0-.2.06-.19.09-.18.12-.17.15-.17.19-.16.23v-.67l-1.6,0v7.84l1.67,0v-2.92a2.12,2.12,0,0,0,.31.33,1.71,1.71,0,0,0,.35.23,1.62,1.62,0,0,0,.38.13,1.83,1.83,0,0,0,.42,0l.33,0,.3-.08a1.66,1.66,0,0,0,.28-.14,1.71,1.71,0,0,0,.25-.19,2.42,2.42,0,0,0,.23-.23,2.36,2.36,0,0,0,.2-.26,2.52,2.52,0,0,0,.16-.29,2.9,2.9,0,0,0,.13-.33q.06-.17.11-.34t.08-.35q0-.18,0-.36t0-.37q0-.15,0-.3t0-.29,0-.28-.06-.27-.08-.26l-.09-.24-.11-.22-.12-.2-.14-.19-.16-.17-.18-.14-.19-.12-.21-.1-.22-.07-.24,0h-.25"/><polyline class="cls-28" points="261.75 187.31 258.55 187.36 258.55 192.82 260.21 192.79 260.21 188.75 261.75 188.73 261.75 187.31"/><path class="cls-28" d="M264.83,191.49l-.24,0a.8.8,0,0,1-.39-.21,1,1,0,0,1-.15-.18,1.52,1.52,0,0,1-.11-.23,1.89,1.89,0,0,1-.08-.26,2.38,2.38,0,0,1,0-.28,3,3,0,0,1,0-.31,3.08,3.08,0,0,1,0-.32,2.37,2.37,0,0,1,0-.29,1.89,1.89,0,0,1,.08-.26,1.61,1.61,0,0,1,.11-.23,1,1,0,0,1,.15-.19.8.8,0,0,1,.18-.13.82.82,0,0,1,.21-.08l.24,0,.24,0a.79.79,0,0,1,.2.07.76.76,0,0,1,.17.13,1,1,0,0,1,.15.18,1.65,1.65,0,0,1,.11.22,1.88,1.88,0,0,1,.08.25,2.25,2.25,0,0,1,0,.28,2.81,2.81,0,0,1,0,.32,2.76,2.76,0,0,1,0,.31,2.35,2.35,0,0,1,0,.29,2,2,0,0,1-.08.26,1.68,1.68,0,0,1-.11.23,1,1,0,0,1-.15.19.85.85,0,0,1-.18.14.83.83,0,0,1-.21.09l-.23,0m0-4.43a3.5,3.5,0,0,0-.61.06,2.75,2.75,0,0,0-.54.16,2.39,2.39,0,0,0-.87.61,2.69,2.69,0,0,0-.32.44,2.79,2.79,0,0,0-.23.5,3.28,3.28,0,0,0-.13.56,4.25,4.25,0,0,0,0,.63q0,.22,0,.42a3.6,3.6,0,0,0,.06.39,3.11,3.11,0,0,0,.1.37,2.83,2.83,0,0,0,.14.34,2.61,2.61,0,0,0,.18.31,2.34,2.34,0,0,0,.22.27,2.26,2.26,0,0,0,.25.24,2.34,2.34,0,0,0,.61.35l.35.11.38.06.41,0,.4,0,.38-.08.35-.12a2.45,2.45,0,0,0,.61-.37,2.37,2.37,0,0,0,.25-.24,2.46,2.46,0,0,0,.21-.28,2.72,2.72,0,0,0,.18-.32,2.92,2.92,0,0,0,.14-.34,3.17,3.17,0,0,0,.1-.37,3.65,3.65,0,0,0,.06-.39q0-.2,0-.42t0-.42a3.6,3.6,0,0,0-.06-.39,3.1,3.1,0,0,0-.1-.37,2.82,2.82,0,0,0-.14-.34,2.61,2.61,0,0,0-.18-.31,2.34,2.34,0,0,0-.21-.27,2.26,2.26,0,0,0-.25-.24,2.35,2.35,0,0,0-.61-.35l-.35-.11-.38-.06-.4,0"/><path class="cls-28" d="M269.94,191.42v-1.05h.83l.1,0,.09,0,.08.06.06.08,0,.09a.57.57,0,0,1,0,.1.85.85,0,0,1,0,.12.77.77,0,0,1,0,.11.56.56,0,0,1,0,.1l0,.09-.06.08-.08.06-.09,0-.1,0h-.84m0-2.12v-.94h.67a.72.72,0,0,1,.21,0,.36.36,0,0,1,.15.08.34.34,0,0,1,.09.14.65.65,0,0,1,0,.21.68.68,0,0,1,0,.21.36.36,0,0,1-.24.24.69.69,0,0,1-.21,0h-.67m1.38-2.14-3,0v5.43l3-.06a2.43,2.43,0,0,0,.39,0,1.5,1.5,0,0,0,.32-.1,1,1,0,0,0,.25-.15.8.8,0,0,0,.18-.21,2.46,2.46,0,0,0,.13-.24,1.89,1.89,0,0,0,.09-.23,1.56,1.56,0,0,0,.05-.22,1.41,1.41,0,0,0,0-.22,2.41,2.41,0,0,0,0-.31,1.76,1.76,0,0,0-.06-.27,1.34,1.34,0,0,0-.09-.23,1.1,1.1,0,0,0-.12-.19l-.15-.15-.17-.12-.18-.09-.19-.06h0l.21-.1.17-.13a.89.89,0,0,0,.23-.33l.07-.19a2,2,0,0,0,.05-.2,1.86,1.86,0,0,0,0-.41,1.44,1.44,0,0,0,0-.23,1.41,1.41,0,0,0-.06-.22,1.47,1.47,0,0,0-.09-.21,1.59,1.59,0,0,0-.12-.2.77.77,0,0,0-.17-.16.94.94,0,0,0-.23-.11,1.41,1.41,0,0,0-.28-.07l-.34,0"/><path class="cls-28" d="M278.37,187.06l-4.24.07v3.09a2,2,0,0,1,0,.42.91.91,0,0,1-.11.3.51.51,0,0,1-.19.18.58.58,0,0,1-.27.06h-.23l-.08,0v1.42l.31,0,.25,0,.19,0h.13l.34,0,.29-.07a1.29,1.29,0,0,0,.25-.11,1.09,1.09,0,0,0,.2-.15l.17-.17.13-.18a1.31,1.31,0,0,0,.1-.19,1.22,1.22,0,0,0,.06-.2l0-.21q0-.11,0-.21t0-.21,0-.22v-2.26l1,0v4.06l1.63,0v-5.4"/><path class="cls-28" d="M280.73,189.08a1.83,1.83,0,0,1,0-.21,1.51,1.51,0,0,1,.05-.2,1.34,1.34,0,0,1,.08-.19,1.29,1.29,0,0,1,.11-.17.92.92,0,0,1,.13-.15l.15-.11.17-.06.19,0,.2,0,.18.06.15.1a.83.83,0,0,1,.13.14l.1.17a1.37,1.37,0,0,1,.13.38,1.4,1.4,0,0,1,0,.2l-1.82,0m.91-2.28-.34,0-.32.07-.3.11-.29.16a2.11,2.11,0,0,0-.27.19,2.26,2.26,0,0,0-.24.23,2.48,2.48,0,0,0-.21.27,2.75,2.75,0,0,0-.18.31,3,3,0,0,0-.14.35,3.33,3.33,0,0,0-.1.38,3.85,3.85,0,0,0-.06.41q0,.21,0,.44t0,.31q0,.15,0,.3t.05.28.07.27.1.26l.12.24.14.22.16.2.17.18.19.16.21.14.23.11.24.08.25.06.26,0h.27a3.52,3.52,0,0,0,.49,0,2.58,2.58,0,0,0,.43-.1,2,2,0,0,0,.37-.17,1.78,1.78,0,0,0,.32-.24,2.67,2.67,0,0,0,.49-.59,2.8,2.8,0,0,0,.18-.35,3.09,3.09,0,0,0,.14-.39l-1.57,0a.8.8,0,0,1,0,.15.76.76,0,0,1-.06.13l-.08.11-.1.1-.12.08-.13.06-.15,0h-.32l-.14,0-.13-.06-.12-.08-.1-.1-.09-.11-.07-.13-.05-.14,0-.15s0-.1,0-.15,0-.1,0-.16,0-.11,0-.16l3.41-.06q0-.22,0-.43t0-.41q0-.2-.07-.4t-.1-.38a2.75,2.75,0,0,0-.13-.35,2.46,2.46,0,0,0-.18-.32,2.36,2.36,0,0,0-.22-.28,2.45,2.45,0,0,0-.26-.25,1.72,1.72,0,0,0-.3-.2,1.89,1.89,0,0,0-.34-.14,2.28,2.28,0,0,0-.38-.08,2.93,2.93,0,0,0-.43,0"/><path class="cls-28" d="M289.65,186.88l-1.55,0-1.61,2.9v-2.88l-1.62,0v5.38l1.57,0,1.6-3v3l1.61,0v-5.37m-1.49-2.39a1.08,1.08,0,0,1-.1.29.71.71,0,0,1-.16.21.66.66,0,0,1-.22.13.91.91,0,0,1-.28,0,.87.87,0,0,1-.28,0,.65.65,0,0,1-.22-.12.73.73,0,0,1-.17-.2,1.14,1.14,0,0,1-.11-.29l-1.06.48a2.18,2.18,0,0,0,.13.28,1.93,1.93,0,0,0,.16.25,1.79,1.79,0,0,0,.2.21,1.76,1.76,0,0,0,.23.18l.26.13.27.09.29.06.3,0,.3,0,.29-.06.27-.1.25-.14.22-.18a1.77,1.77,0,0,0,.19-.22,1.92,1.92,0,0,0,.16-.25,2.3,2.3,0,0,0,.13-.29l-1-.45"/><path class="cls-28" d="M296.09,190.72l-.18,0-.16-.05-.14-.09a.71.71,0,0,1-.12-.13l-.09-.16a1.15,1.15,0,0,1-.07-.17,1.18,1.18,0,0,1,0-.18,1.29,1.29,0,0,1,0-.19,1.21,1.21,0,0,1,0-.13,1.17,1.17,0,0,1,0-.13l0-.12,0-.11.06-.1.06-.09.07-.08.08-.07.1-.06.1,0,.1,0h.26l.14,0,.14.08.13.11a.64.64,0,0,1,.11.13.77.77,0,0,1,.08.16,1.08,1.08,0,0,1,0,.2,1.62,1.62,0,0,1,0,.23,1.3,1.3,0,0,1,0,.19,1.2,1.2,0,0,1,0,.18,1.19,1.19,0,0,1-.07.17l-.09.16a.67.67,0,0,1-.11.14l-.14.1-.16.06-.19,0m0-3.37H296l-.11,0-.11-.06-.11-.08a.46.46,0,0,1-.09-.11.64.64,0,0,1-.07-.14,1,1,0,0,1,0-.18,1.57,1.57,0,0,1,0-.21,1.48,1.48,0,0,1,0-.2,1,1,0,0,1,0-.17.73.73,0,0,1,.06-.14l.09-.11.11-.09.11-.07.12,0h.25l.12,0,.11.06.11.09.09.11a.71.71,0,0,1,.06.14,1,1,0,0,1,0,.17,1.48,1.48,0,0,1,0,.2,1.5,1.5,0,0,1,0,.2,1,1,0,0,1,0,.18.72.72,0,0,1-.07.15.56.56,0,0,1-.09.12l-.11.09-.11.06-.12,0h-.12m0-3.2-.32,0-.3.06-.28.09-.26.12-.23.15-.2.18-.18.2a2.1,2.1,0,0,0-.15.23,2.23,2.23,0,0,0-.11.26,2.32,2.32,0,0,0-.08.27,2.51,2.51,0,0,0,0,.29,2.8,2.8,0,0,0,0,.31,3.06,3.06,0,0,0,0,.33,2.33,2.33,0,0,0,.05.3,1.83,1.83,0,0,0,.08.26,1.52,1.52,0,0,0,.12.23l.14.19.16.16.17.13.18.1v0l-.23.11-.22.15-.21.18-.19.22a1.54,1.54,0,0,0-.16.26,1.91,1.91,0,0,0-.12.31,2.49,2.49,0,0,0-.07.36,3.35,3.35,0,0,0,0,.41,2.78,2.78,0,0,0,0,.45,2.51,2.51,0,0,0,.11.42,2.47,2.47,0,0,0,.17.39,2.65,2.65,0,0,0,.24.36,1.44,1.44,0,0,0,.32.3,1.82,1.82,0,0,0,.43.22,2.68,2.68,0,0,0,.53.12,4.12,4.12,0,0,0,.63,0,4.19,4.19,0,0,0,.64-.06,2.74,2.74,0,0,0,.53-.14,1.92,1.92,0,0,0,.43-.23,1.58,1.58,0,0,0,.33-.32,2.85,2.85,0,0,0,.24-.37,2.61,2.61,0,0,0,.28-.82,2.82,2.82,0,0,0,0-.45,3.49,3.49,0,0,0,0-.41,2.43,2.43,0,0,0-.07-.36,1.75,1.75,0,0,0-.11-.31,1.38,1.38,0,0,0-.16-.26l-.19-.21-.2-.18-.22-.14-.24-.1v0l.18-.1.17-.14.15-.17.14-.2a1.58,1.58,0,0,0,.12-.23,1.88,1.88,0,0,0,.08-.27,2.37,2.37,0,0,0,.05-.3,3.07,3.07,0,0,0,0-.33,3,3,0,0,0,0-.31,2.43,2.43,0,0,0,0-.29,2.08,2.08,0,0,0-.08-.27,1.89,1.89,0,0,0-.12-.25,1.73,1.73,0,0,0-.14-.22l-.17-.2-.2-.17-.23-.15-.26-.11-.28-.08-.3,0h-.32"/><path class="cls-28" d="M225.35,129.56a13.07,13.07,0,0,0-5.86,1.3,15,15,0,0,0-4.81,3.71,17.81,17.81,0,0,0-3.26,5.57,20,20,0,0,0-1.2,6.87,20.27,20.27,0,0,0,.61,4.95,19,19,0,0,0,1.71,4.4,17.35,17.35,0,0,0,2.63,3.65,15.33,15.33,0,0,0,3.37,2.7,6.47,6.47,0,0,0,.67.38c.25.12.51.24.76.35l.69.28.47.16c.34.1.72.2,1.11.28s.8.16,1.21.23l1.23.18,1.18.13.75,0,1.16,0h1.92l69.1-.26V157H228.08l-1.11,0-.71,0-.68-.07-.74-.1-.73-.12-.65-.14-.64-.22-.58-.23-.49-.23-.36-.2a8.59,8.59,0,0,1-1.78-1.51,9.66,9.66,0,0,1-1.38-2,10.54,10.54,0,0,1-.89-2.38A11.22,11.22,0,0,1,217,147a11.1,11.1,0,0,1,.66-3.79,9.88,9.88,0,0,1,1.79-3.08,8.3,8.3,0,0,1,2.65-2.06,7.22,7.22,0,0,1,6.41,0,8.39,8.39,0,0,1,2.59,2,10,10,0,0,1,1.78,3,11.16,11.16,0,0,1,.72,3.66l6.62,0a20,20,0,0,0-1.23-6.67,18,18,0,0,0-3.19-5.47,15.23,15.23,0,0,0-4.7-3.72,13.18,13.18,0,0,0-5.76-1.42m-42-1.51-15.18-.22v8.1l8.12.08v42.36l7.05-.07V128.06m42-11.65a22.78,22.78,0,0,0-10.26,2.22,26.25,26.25,0,0,0-8.47,6.48,31.23,31.23,0,0,0-5.76,9.78A34.87,34.87,0,0,0,198.74,147a35.33,35.33,0,0,0,1,8.52,33.35,33.35,0,0,0,2.9,7.6,30.6,30.6,0,0,0,4.46,6.34,27.14,27.14,0,0,0,5.72,4.76c.37.23.79.46,1.21.68s.86.43,1.26.62l1.12.49.78.31c.59.2,1.22.38,1.86.54s1.31.31,2,.43,1.34.23,2,.32,1.33.16,2,.21l1,0,1.4,0h2.4l69-.72v-7.81l-68.9.44h-2l-1.21,0-.8,0c-.52,0-1.06-.09-1.61-.16s-1.11-.15-1.66-.25-1.1-.22-1.62-.34-1-.27-1.51-.43l-.45-.17-.66-.28-.66-.29-.46-.22a19.36,19.36,0,0,1-4.59-3.42,22.11,22.11,0,0,1-3.59-4.76,24.37,24.37,0,0,1-2.34-5.81,26,26,0,0,1-.84-6.57,25.66,25.66,0,0,1,1.55-8.84,23,23,0,0,1,4.2-7.18,19.29,19.29,0,0,1,6.2-4.77,16.74,16.74,0,0,1,14.94.21,19.68,19.68,0,0,1,6,4.83,23.33,23.33,0,0,1,4.09,7.06,25.76,25.76,0,0,1,1.57,8.59l6.81,0a35,35,0,0,0-2.08-11.69,31.74,31.74,0,0,0-5.53-9.63,26.83,26.83,0,0,0-8.2-6.61,23.05,23.05,0,0,0-10.1-2.58m-31-.68-18-.37v8.39l10.71.18v54.35l7.27-.08V115.73"/><path class="cls-28" d="M264.63,127.37a3.3,3.3,0,0,1-1.43-.36,3.84,3.84,0,0,1-1.19-.95,4.56,4.56,0,0,1-.82-1.42,5.28,5.28,0,0,1-.3-1.78,4.86,4.86,0,0,1,.3-1.7,4.37,4.37,0,0,1,.82-1.37,3.73,3.73,0,0,1,1.19-.91,3.2,3.2,0,0,1,1.43-.31,3.26,3.26,0,0,1,1.43.37,3.91,3.91,0,0,1,1.18,1,4.58,4.58,0,0,1,.81,1.4,5,5,0,0,1,.3,1.71,5.21,5.21,0,0,1-.3,1.77,4.36,4.36,0,0,1-.81,1.39,3.64,3.64,0,0,1-1.18.91,3.22,3.22,0,0,1-1.43.31m0-9.65a3.82,3.82,0,0,0-1.72.37,4.37,4.37,0,0,0-1.41,1.08,5.2,5.2,0,0,0-1,1.64,5.91,5.91,0,0,0-.35,2,6.15,6.15,0,0,0,.35,2.06,5.65,5.65,0,0,0,1,1.71,4.67,4.67,0,0,0,1.41,1.17,3.78,3.78,0,0,0,3.47.05,4.35,4.35,0,0,0,1.4-1.12,5.35,5.35,0,0,0,.94-1.67,6.28,6.28,0,0,0,0-4.08,5.38,5.38,0,0,0-.94-1.67,4.5,4.5,0,0,0-1.4-1.14,4,4,0,0,0-1.75-.44"/><path class="cls-28" d="M263.89,122.62V121l.81,0a1.58,1.58,0,0,1,.39,0,.8.8,0,0,1,.3.15.65.65,0,0,1,.19.26,1.07,1.07,0,0,1,.07.4,1,1,0,0,1,0,.26.69.69,0,0,1-.12.25.61.61,0,0,1-.25.19,1,1,0,0,1-.41.07l-.95,0m1.13-2.29-1.95,0v5.21h.81v-2.14h.64a1.45,1.45,0,0,1,.54.1.68.68,0,0,1,.3.23.78.78,0,0,1,.13.31,1.85,1.85,0,0,1,0,.35c0,.22,0,.4,0,.54a3.12,3.12,0,0,0,0,.33.55.55,0,0,0,.05.19.31.31,0,0,0,.1.11h.8a.48.48,0,0,1-.09-.16.85.85,0,0,1,0-.2c0-.08,0-.18,0-.31s0-.29,0-.49a3.87,3.87,0,0,0,0-.43,1.66,1.66,0,0,0-.09-.39,1,1,0,0,0-.19-.32.92.92,0,0,0-.33-.23,1.38,1.38,0,0,0,.42-.25,1,1,0,0,0,.23-.3,1.14,1.14,0,0,0,.1-.31,1.62,1.62,0,0,0,0-.28,1.8,1.8,0,0,0-.17-.81,1.23,1.23,0,0,0-.4-.47,1.46,1.46,0,0,0-.48-.22,1.75,1.75,0,0,0-.4-.06"/><g class="cls-2"><g class="cls-2"><g class="cls-29"><path class="cls-30" d="M139.59,19.5a9.16,9.16,0,0,0-1,.26,10.08,10.08,0,0,0-1,.38q-.5.22-1,.5c-.33.19.27,5-.06,5.22a39.76,39.76,0,0,0-16.5,32.47c0,16.33,8.06,24.58,11.88,28.68,3.36,3.24,5.34,4.93,7.32,4.76.33,0,.88,1,1.21.94a9.24,9.24,0,0,0,1-.27,10.21,10.21,0,0,0,1-.39q.51-.23,1-.52A19.5,19.5,0,0,0,150,84.81a44.67,44.67,0,0,0,4.77-11A70,70,0,0,0,157.27,60a75.24,75.24,0,0,0-.2-14.92,57.21,57.21,0,0,0-2.45-11.46,32.63,32.63,0,0,0-4.06-8.4,15.23,15.23,0,0,0-5.17-4.86,8.57,8.57,0,0,0-5.81-.9"/><polyline class="cls-31" points="136.45 52.05 128.25 61.74 136.7 67.26 140.54 63.7 137.95 59.99 138.83 48.49 136.5 46.64"/></g></g><g class="cls-2"><g class="cls-32"><path class="cls-33" d="M149.19,51.36l3.1-3.9,15.09,8-10.5,13.35-4.43-2.32-3.1,3.93-15.33-8L144.73,49l4.46,2.36m1.38-28q-.94-.05-1.88,0t-1.89.07q-1,.06-1.9.19t-1.91.31a30.59,30.59,0,0,0-12.13,5.24A32.72,32.72,0,0,0,122,38.77a35.86,35.86,0,0,0-4.65,12.72,38.21,38.21,0,0,0,.41,14.37,38.61,38.61,0,0,0,4.55,11.56,36.9,36.9,0,0,0,7.56,9,34.46,34.46,0,0,0,9.69,5.93,31.6,31.6,0,0,0,11,2.28q.93,0,1.88,0t1.88-.13q.94-.09,1.89-.24T158,93.9a30.65,30.65,0,0,0,11.84-5.52,32.89,32.89,0,0,0,8.48-9.65,36,36,0,0,0,4.41-12.44,38.21,38.21,0,0,0-.38-14A38.65,38.65,0,0,0,178.08,41a37,37,0,0,0-7.24-9,34.66,34.66,0,0,0-9.42-6.1,31.77,31.77,0,0,0-10.85-2.6"/><polyline class="cls-34" points="144.09 44.58 127.44 60.85 146.68 74.16 151.51 69.4 137.95 59.99 149.68 48.5 144.09 44.58"/><polyline class="cls-35" points="154.5 43.78 149.68 48.5 137.95 59.99 151.51 69.4 157.07 73.26 173.41 57.09 154.5 43.78"/></g></g></g></g><g id="lights_shadows" data-name="lights shadows"><polygon class="cls-36" points="319.7 303.06 136.59 322.28 136.59 0 319.7 13.73 319.7 303.06"/><polygon class="cls-37" points="53.47 23.36 136.59 0 136.59 322.28 53.47 301.71 53.47 23.36"/><polygon class="cls-38" points="319.71 303.06 315.06 303.54 315.06 13.39 319.71 13.73 319.71 303.06"/><polygon class="cls-39" points="53.47 301.71 58.12 302.86 58.12 22.2 53.47 23.37 53.47 301.71"/><polygon class="cls-40" points="319.7 17.7 136.59 3.21 136.59 0 319.7 13.73 319.7 17.7"/><polygon class="cls-41" points="53.47 27.33 136.53 3.21 136.53 0 53.47 23.36 53.47 27.33"/><polygon class="cls-42" points="136.73 312.78 53.47 292.97 53.47 301.71 136.73 322.28 136.73 312.78"/><rect class="cls-43" x="134.87" width="3.32" height="322.28"/><polygon class="cls-44" points="144.14 321.49 136.53 322.28 136.53 0 144.14 0.57 144.14 321.49"/><polygon class="cls-45" points="136.59 312.78 319.7 294.31 319.7 303.06 136.59 322.28 136.59 312.78"/><polygon class="cls-46" points="319.7 303.06 136.59 322.28 136.59 0 319.7 13.73 319.7 303.06"/><polygon class="cls-47" points="133.21 321.48 136.53 322.28 136.53 0 133.21 0.84 133.21 321.48"/><polygon class="cls-48" points="319.7 303.06 136.59 322.28 136.59 0 319.7 13.73 319.7 303.06"/></g></g></g></svg>