<svg xmlns="http://www.w3.org/2000/svg" xmlns:xlink="http://www.w3.org/1999/xlink" viewBox="0 0 326.22 326.44"><defs><style>.cls-1{fill:none;}.cls-2{isolation:isolate;}.cls-3{opacity:0.7;}.cls-4{fill:#fff;opacity:0;}.cls-5{fill:#fbfbfb;opacity:0.05;}.cls-6{fill:#f8f8f8;opacity:0.1;}.cls-7{fill:#f4f4f4;opacity:0.14;}.cls-8{fill:#f1f1f0;opacity:0.19;}.cls-9{fill:#ededed;opacity:0.24;}.cls-10{fill:#e9e9e9;opacity:0.29;}.cls-11{fill:#e6e6e5;opacity:0.33;}.cls-12{fill:#e2e2e2;opacity:0.38;}.cls-13{fill:#dedede;opacity:0.43;}.cls-14{fill:#dbdbda;opacity:0.48;}.cls-15{fill:#d7d7d7;opacity:0.52;}.cls-16{fill:#d4d4d3;opacity:0.57;}.cls-17{fill:#d0d0cf;opacity:0.62;}.cls-18{fill:#ccc;opacity:0.67;}.cls-19{fill:#c9c9c8;opacity:0.71;}.cls-20{fill:#c5c5c4;opacity:0.76;}.cls-21{fill:#c1c1c1;opacity:0.81;}.cls-22{fill:#bebebd;opacity:0.86;}.cls-23{fill:#babab9;opacity:0.9;}.cls-24{fill:#b7b7b6;opacity:0.95;}.cls-25{fill:#b3b3b2;}.cls-26{fill:#fcda00;}.cls-27{fill:#ffca02;}.cls-28{fill:#d10910;}.cls-29{clip-path:url(#clip-path);}.cls-30{fill:#e7eaec;}.cls-31{fill:#95ceb8;}.cls-32{clip-path:url(#clip-path-2);}.cls-33{fill:#e5e5e2;}.cls-34{fill:#4ab285;}.cls-35{fill:#003d60;}.cls-36,.cls-37,.cls-43{mix-blend-mode:multiply;}.cls-36{fill:url(#Безымянный_градиент_761);}.cls-37{fill:url(#Безымянный_градиент_2038);}.cls-38,.cls-39,.cls-40,.cls-41,.cls-42,.cls-45{mix-blend-mode:overlay;}.cls-38{fill:url(#Безымянный_градиент_500);}.cls-39{fill:url(#Безымянный_градиент_500-2);}.cls-40{fill:url(#Безымянный_градиент_147);}.cls-41{fill:url(#Безымянный_градиент_503);}.cls-42{fill:url(#Безымянный_градиент_543);}.cls-43{fill:url(#Безымянный_градиент_771);}.cls-44,.cls-46,.cls-48{mix-blend-mode:soft-light;}.cls-44{fill:url(#Безымянный_градиент_13);}.cls-45{fill:url(#Безымянный_градиент_549);}.cls-46{fill:url(#Безымянный_градиент_2036);}.cls-47{mix-blend-mode:hard-light;fill:url(#Безымянный_градиент_8);}.cls-48{fill:url(#Безымянный_градиент_5);}</style><clipPath id="clip-path"><polygon class="cls-1" points="136.9 84.94 114.86 66.98 114.86 46.38 136.9 22.2 136.9 84.94"/></clipPath><clipPath id="clip-path-2"><polygon class="cls-1" points="184.75 27.47 184.75 85.89 136.9 99.34 136.9 14.02 184.75 27.47"/></clipPath><linearGradient id="Безымянный_градиент_761" x1="268.79" y1="8.63" x2="183.64" y2="308.02" gradientUnits="userSpaceOnUse"><stop offset="0" stop-color="#fff"/><stop offset="0.66" stop-color="#f3f3f3"/><stop offset="1" stop-color="#eaeaea"/></linearGradient><linearGradient id="Безымянный_градиент_2038" x1="139.95" y1="6.28" x2="60.6" y2="300.46" gradientUnits="userSpaceOnUse"><stop offset="0" stop-color="#f1f4f1"/><stop offset="0.33" stop-color="#e8e2e4"/><stop offset="1" stop-color="#d8c2cd"/></linearGradient><linearGradient id="Безымянный_градиент_500" x1="315.06" y1="158.47" x2="319.71" y2="158.47" gradientUnits="userSpaceOnUse"><stop offset="0" stop-color="gray"/><stop offset="0.42" stop-color="#828282"/><stop offset="0.6" stop-color="#898989"/><stop offset="0.74" stop-color="#969696"/><stop offset="0.85" stop-color="#a8a8a8"/><stop offset="0.95" stop-color="#bfbfbf"/><stop offset="1" stop-color="#cfcfcf"/></linearGradient><linearGradient id="Безымянный_градиент_500-2" x1="-5648.53" y1="162.53" x2="-5643.88" y2="162.53" gradientTransform="matrix(-1, 0, 0, 1, -5590.41, 0)" xlink:href="#Безымянный_градиент_500"/><linearGradient id="Безымянный_градиент_147" x1="228.3" y1="6.87" x2="228.02" y2="10.45" gradientUnits="userSpaceOnUse"><stop offset="0" stop-color="#cfcfcf"/><stop offset="0.05" stop-color="#bfbfbf"/><stop offset="0.15" stop-color="#a8a8a8"/><stop offset="0.26" stop-color="#969696"/><stop offset="0.4" stop-color="#898989"/><stop offset="0.58" stop-color="#828282"/><stop offset="1" stop-color="gray"/></linearGradient><linearGradient id="Безымянный_градиент_503" x1="94.51" y1="11.8" x2="95.61" y2="15.99" gradientUnits="userSpaceOnUse"><stop offset="0" stop-color="#ebebeb"/><stop offset="0.04" stop-color="#dbdbdb"/><stop offset="0.12" stop-color="#bfbfbf"/><stop offset="0.21" stop-color="#a8a8a8"/><stop offset="0.32" stop-color="#969696"/><stop offset="0.44" stop-color="#898989"/><stop offset="0.61" stop-color="#828282"/><stop offset="1" stop-color="gray"/></linearGradient><linearGradient id="Безымянный_градиент_543" x1="94.04" y1="311.75" x2="96.35" y2="302.75" gradientUnits="userSpaceOnUse"><stop offset="0" stop-color="#414141"/><stop offset="0.03" stop-color="#565656"/><stop offset="0.08" stop-color="#696969"/><stop offset="0.13" stop-color="#767676"/><stop offset="0.19" stop-color="#7e7e7e"/><stop offset="0.32" stop-color="gray"/></linearGradient><linearGradient id="Безымянный_градиент_771" x1="134.87" y1="161.14" x2="138.19" y2="161.14" gradientUnits="userSpaceOnUse"><stop offset="0" stop-color="#fff"/><stop offset="0.21" stop-color="#fefefd"/><stop offset="0.3" stop-color="#fcfcf6"/><stop offset="0.36" stop-color="#f9f7e9"/><stop offset="0.42" stop-color="#f4f1d8"/><stop offset="0.46" stop-color="#ede9c1"/><stop offset="0.48" stop-color="#eae5b5"/><stop offset="0.5" stop-color="#eeeac3"/><stop offset="0.55" stop-color="#f4f2d9"/><stop offset="0.61" stop-color="#f9f8ea"/><stop offset="0.67" stop-color="#fcfcf6"/><stop offset="0.76" stop-color="#fefefd"/><stop offset="1" stop-color="#fff"/></linearGradient><linearGradient id="Безымянный_градиент_13" x1="136.53" y1="161.14" x2="144.14" y2="161.14" gradientUnits="userSpaceOnUse"><stop offset="0" stop-color="gray"/><stop offset="0.01" stop-color="#858586"/><stop offset="0.04" stop-color="#97999e"/><stop offset="0.07" stop-color="#a2a5ac"/><stop offset="0.1" stop-color="#a6a9b1"/><stop offset="0.14" stop-color="#9fa1a8"/><stop offset="0.26" stop-color="#919296"/><stop offset="0.39" stop-color="#878889"/><stop offset="0.58" stop-color="#828282"/><stop offset="1" stop-color="gray"/></linearGradient><linearGradient id="Безымянный_градиент_549" x1="228.53" y1="312.06" x2="227.69" y2="303.76" gradientUnits="userSpaceOnUse"><stop offset="0" stop-color="#060606"/><stop offset="0.06" stop-color="#292929"/><stop offset="0.14" stop-color="#4e4e4e"/><stop offset="0.21" stop-color="#6a6a6a"/><stop offset="0.27" stop-color="#7a7a7a"/><stop offset="0.32" stop-color="gray"/></linearGradient><linearGradient id="Безымянный_градиент_2036" x1="278.05" y1="-23.95" x2="173.89" y2="342.32" gradientUnits="userSpaceOnUse"><stop offset="0" stop-color="#fff"/><stop offset="0.42" stop-color="#d4cccc"/><stop offset="1" stop-color="#958080"/></linearGradient><linearGradient id="Безымянный_градиент_8" x1="-5623.73" y1="161.14" x2="-5620.42" y2="161.14" gradientTransform="matrix(-1, 0, 0, 1, -5487.2, 0)" gradientUnits="userSpaceOnUse"><stop offset="0" stop-color="gray"/><stop offset="0.02" stop-color="#999992"/><stop offset="0.05" stop-color="#afb1a3"/><stop offset="0.08" stop-color="#bdbfad"/><stop offset="0.1" stop-color="#c2c4b0"/><stop offset="0.12" stop-color="#bdbfac"/><stop offset="0.21" stop-color="#a7a89c"/><stop offset="0.31" stop-color="#95968f"/><stop offset="0.44" stop-color="#898987"/><stop offset="0.61" stop-color="#828281"/><stop offset="1" stop-color="gray"/></linearGradient><linearGradient id="Безымянный_градиент_5" x1="278.05" y1="-23.95" x2="173.89" y2="342.32" gradientUnits="userSpaceOnUse"><stop offset="0" stop-color="#fff"/><stop offset="0.1" stop-color="#fbfafa"/><stop offset="0.22" stop-color="#efecec"/><stop offset="0.35" stop-color="#dbd4d4"/><stop offset="0.48" stop-color="#c0b3b3"/><stop offset="0.62" stop-color="#9c8989"/><stop offset="0.64" stop-color="#958080"/></linearGradient></defs><title>upravleniePredpriyatiem</title><g class="cls-2"><g id="Layer_2" data-name="Layer 2"><g id="box_color" data-name="box color"><g class="cls-3"><path class="cls-4" d="M8.27,306.78C39.94,313.66,124,325,124,325a52.65,52.65,0,0,0,18.4,1.15l180.31-20.6c4.58-.15,4.43-5,.92-5.66l-202-29a78.62,78.62,0,0,0-24.89-.44S36.5,285.24,12.38,289.07C.88,290.9-6.55,303.56,8.27,306.78Z"/><path class="cls-5" d="M10.52,306.56c30.16,6.55,114,18.25,114,18.25a50.48,50.48,0,0,0,17.64,1.1l180.2-20.51c4.39-.15,4.24-4.84.87-5.44L124.06,271.3a75.22,75.22,0,0,0-23.8-.42S37.4,286,14.44,289.66C3.46,291.41-3.62,303.5,10.52,306.56Z"/><path class="cls-6" d="M12.77,306.35c28.65,6.22,112.31,18.32,112.31,18.32A48.32,48.32,0,0,0,142,325.73L322,305.31c4.2-.14,4.06-4.65.83-5.22L126.53,271.77a71.82,71.82,0,0,0-22.72-.4s-65.5,15.41-87.32,18.87C6,291.91-.68,303.43,12.77,306.35Z"/><path class="cls-7" d="M15,306.13c27.15,5.89,110.6,18.4,110.6,18.4a46.15,46.15,0,0,0,16.12,1l180-20.32c4-.14,3.88-4.45.79-5L129,272.25a68.42,68.42,0,0,0-21.63-.38s-68.15,15.68-88.81,19C8.62,292.41,2.25,303.36,15,306.13Z"/><path class="cls-8" d="M17.26,305.91c25.64,5.56,108.88,18.48,108.88,18.48a44,44,0,0,0,15.36,1l179.87-20.23c3.82-.14,3.7-4.26.75-4.78L131.45,272.72a65,65,0,0,0-20.54-.36s-70.79,16-90.31,19.06C11.21,292.92,5.18,303.29,17.26,305.91Z"/><path class="cls-9" d="M19.51,305.7c24.13,5.24,107.16,18.55,107.16,18.55a41.81,41.81,0,0,0,14.61.92L321,305c3.63-.13,3.52-4.06.7-4.56L133.92,273.2a61.61,61.61,0,0,0-19.46-.34S41,289.1,22.66,292C13.79,293.42,8.12,303.22,19.51,305.7Z"/><path class="cls-10" d="M21.76,305.48c22.62,4.91,105.45,18.63,105.45,18.63a39.65,39.65,0,0,0,13.85.87l179.65-20c3.44-.13,3.34-3.87.66-4.34l-185-26.92a58.21,58.21,0,0,0-18.37-.32s-76.07,16.52-93.3,19.25C16.37,293.93,11.05,303.15,21.76,305.48Z"/><path class="cls-11" d="M24,305.26C45.12,309.85,127.74,324,127.74,324a37.48,37.48,0,0,0,13.09.82l179.53-20c3.26-.12,3.16-3.67.62-4.12L138.84,274.14a54.81,54.81,0,0,0-17.28-.3s-78.72,16.79-94.79,19.35C19,294.43,14,303.08,24,305.26Z"/><path class="cls-12" d="M26.26,305c19.6,4.26,102,18.78,102,18.78a35.31,35.31,0,0,0,12.33.78L320,304.73c3.07-.12,3-3.48.58-3.9l-179.3-26.22a51.41,51.41,0,0,0-16.2-.28s-81.36,17.07-96.29,19.44C21.54,294.94,16.92,303,26.26,305Z"/><path class="cls-13" d="M28.51,304.83c18.1,3.93,100.3,18.85,100.3,18.85a33.15,33.15,0,0,0,11.57.73l179.31-19.77c2.88-.11,2.8-3.28.53-3.68L143.77,275.09a48,48,0,0,0-15.11-.26s-84,17.35-97.78,19.53C24.12,295.44,19.86,302.94,28.51,304.83Z"/><path class="cls-14" d="M30.76,304.61c16.59,3.6,98.58,18.93,98.58,18.93a31,31,0,0,0,10.82.68l179.2-19.68c2.69-.11,2.62-3.09.49-3.46L146.23,275.57a44.6,44.6,0,0,0-14-.24S45.57,293,32.94,295C26.7,295.94,22.79,302.87,30.76,304.61Z"/><path class="cls-15" d="M33,304.39c15.08,3.27,96.86,19,96.86,19a28.81,28.81,0,0,0,10.06.64L319,304.44c2.5-.11,2.44-2.89.45-3.24L148.7,276a41.2,41.2,0,0,0-12.94-.22S46.47,293.72,35,295.55C29.28,296.45,25.72,302.81,33,304.39Z"/><path class="cls-16" d="M35.26,304.18c13.57,2.95,95.14,19.08,95.14,19.08a26.64,26.64,0,0,0,9.3.59l179-19.5c2.31-.1,2.26-2.7.41-3L151.16,276.51a37.8,37.8,0,0,0-11.85-.2S47.38,294.49,37,296.14C31.86,297,28.66,302.74,35.26,304.18Z"/><path class="cls-17" d="M37.51,304c12.06,2.62,93.43,19.15,93.43,19.15a24.48,24.48,0,0,0,8.54.55l178.87-19.41c2.12-.1,2.08-2.5.36-2.8L153.62,277a34.4,34.4,0,0,0-10.76-.18S48.29,295.26,39.1,296.72C34.45,297.46,31.59,302.67,37.51,304Z"/><path class="cls-18" d="M39.76,303.74C50.31,306,131.47,323,131.47,323a22.31,22.31,0,0,0,7.79.5L318,304.16c1.93-.09,1.9-2.31.32-2.58L156.09,277.46a31,31,0,0,0-9.68-.16S49.19,296,41.16,297.31C37,298,34.53,302.6,39.76,303.74Z"/><path class="cls-19" d="M42,303.53c9,2,90,19.3,90,19.3a20.14,20.14,0,0,0,7,.45l178.64-19.22a1.19,1.19,0,1,0,.28-2.36l-159.4-23.76a27.6,27.6,0,0,0-8.59-.14s-99.86,19-106.75,20.1C39.61,298.47,37.46,302.53,42,303.53Z"/><path class="cls-20" d="M44.25,303.31c7.54,1.64,88.28,19.38,88.28,19.38a18,18,0,0,0,6.27.41L317.33,304a1.08,1.08,0,0,0,.24-2.14L161,278.41a24.2,24.2,0,0,0-7.5-.12S51,297.58,45.27,298.49C42.19,299,40.4,302.46,44.25,303.31Z"/><path class="cls-21" d="M46.5,303.09c6,1.31,86.56,19.45,86.56,19.45a15.81,15.81,0,0,0,5.51.36l178.42-19a1,1,0,0,0,.19-1.92L163.48,278.89a20.8,20.8,0,0,0-6.42-.1S51.91,298.35,47.32,299.08C44.77,299.47,43.33,302.39,46.5,303.09Z"/><path class="cls-22" d="M48.75,302.88c4.52,1,84.84,19.53,84.84,19.53a13.64,13.64,0,0,0,4.75.31l178.31-18.95a.85.85,0,0,0,.15-1.7L165.94,279.36a17.4,17.4,0,0,0-5.33-.08S52.82,299.13,49.38,299.67C47.36,300,46.26,302.33,48.75,302.88Z"/><path class="cls-23" d="M51,302.66c3,.67,83.13,19.6,83.13,19.6a11.48,11.48,0,0,0,4,.27l178.2-18.85a.74.74,0,0,0,.11-1.48l-148-22.36a14,14,0,0,0-4.24-.06S53.73,299.9,51.43,300.26C49.94,300.49,49.2,302.26,51,302.66Z"/><path class="cls-24" d="M53.25,302.44c1.51.34,81.41,19.68,81.41,19.68a9.31,9.31,0,0,0,3.24.22L316,303.58a.63.63,0,0,0,.07-1.26l-145.18-22a10.62,10.62,0,0,0-3.16,0S54.64,300.67,53.49,300.84C52.52,301,52.13,302.19,53.25,302.44Z"/><path class="cls-25" d="M55.5,302.22,135.19,322a7.14,7.14,0,0,0,2.48.17l178-18.67a.52.52,0,0,0,0-1L173.33,280.78a7.25,7.25,0,0,0-2.07,0L55.54,301.43A.4.4,0,0,0,55.5,302.22Z"/></g><polygon class="cls-26" points="319.7 303.06 136.59 322.28 136.59 0 319.7 13.73 319.7 303.06"/><polygon class="cls-27" points="53.47 23.36 136.59 0 136.59 322.28 53.47 301.71 53.47 23.36"/><polyline class="cls-28" points="176.49 184.25 173.08 184.31 173.08 190.77 176.49 190.7 176.49 189.16 174.67 189.2 174.67 188.16 176.32 188.13 176.32 186.71 174.67 186.74 174.67 185.83 176.49 185.8 176.49 184.25"/><path class="cls-28" d="M178.92,187.11v-1.48h.58l.16,0,.13.07.1.09.07.12.05.13a.88.88,0,0,1,0,.14,1,1,0,0,1,0,.15,1,1,0,0,1,0,.15.89.89,0,0,1,0,.14l-.05.13-.07.12-.1.1-.13.07-.16,0-.19,0h-.39m.77-2.91-2.35,0v6.45l1.58,0v-2.12l1.2,2.09,1.91,0-1.58-2.54a2,2,0,0,0,.52-.3,1.66,1.66,0,0,0,.37-.43,1.94,1.94,0,0,0,.22-.55,2.91,2.91,0,0,0,.07-.68,2.73,2.73,0,0,0,0-.29,2.35,2.35,0,0,0,0-.27,2.09,2.09,0,0,0-.07-.25,1.92,1.92,0,0,0-.1-.23l-.13-.2-.16-.18-.18-.15-.21-.12-.23-.09-.25-.06-.27,0h-.28"/><path class="cls-28" d="M184.12,187v-1.48h.45a1.13,1.13,0,0,1,.34,0,.6.6,0,0,1,.24.13.56.56,0,0,1,.15.23,1,1,0,0,1,0,.32,1,1,0,0,1,0,.33.59.59,0,0,1-.15.23.63.63,0,0,1-.24.14,1.14,1.14,0,0,1-.34.05h-.45m.79-2.9-2.36,0v6.43l1.58,0v-2.11h.79l.34,0,.31-.06.28-.1.24-.14.21-.17.18-.19a1.91,1.91,0,0,0,.16-.22,2.1,2.1,0,0,0,.13-.24,2.47,2.47,0,0,0,.09-.25,2.53,2.53,0,0,0,.07-.26,2.66,2.66,0,0,0,0-.27q0-.14,0-.28t0-.28a2.62,2.62,0,0,0,0-.27,2.47,2.47,0,0,0-.07-.26,2.41,2.41,0,0,0-.09-.25,2,2,0,0,0-.13-.23,1.87,1.87,0,0,0-.16-.21l-.18-.18-.21-.16a1.45,1.45,0,0,0-.24-.14l-.28-.09-.31-.05h-.34"/><polyline class="cls-28" points="195.52 183.94 193.82 183.97 192.93 186.68 191.84 184 189.99 184.03 192.09 188.63 191.34 190.42 193 190.39 195.52 183.94"/><polyline class="cls-28" points="199.9 185.85 195.9 185.92 195.9 190.33 197.29 190.3 197.29 186.99 198.51 186.97 198.51 190.28 199.9 190.25 199.9 185.85"/><path class="cls-28" d="M202.89,189l-.2,0-.17-.06-.14-.1a.71.71,0,0,1-.12-.14l-.08-.16a1.33,1.33,0,0,1-.06-.18,1.39,1.39,0,0,1,0-.19,1.56,1.56,0,0,1,0-.2,1.7,1.7,0,0,1,0-.2,1.44,1.44,0,0,1,0-.19,1.25,1.25,0,0,1,.06-.18,1.13,1.13,0,0,1,.09-.17.75.75,0,0,1,.12-.14l.14-.1.17-.06.2,0,.19,0,.17.06.14.09a.72.72,0,0,1,.12.13,1,1,0,0,1,.1.16,1,1,0,0,1,.07.17,1.26,1.26,0,0,1,0,.19,1.7,1.7,0,0,1,0,.22,1.76,1.76,0,0,1,0,.22,1.36,1.36,0,0,1,0,.2,1.12,1.12,0,0,1-.07.18,1,1,0,0,1-.1.16.7.7,0,0,1-.12.13l-.14.09-.17.06-.19,0m.48-3.42h-.19l-.18,0-.17.05-.15.07-.14.1-.14.12-.14.15-.13.18v-.53l-1.34,0v6.32l1.39,0v-2.36a1.87,1.87,0,0,0,.26.26,1.51,1.51,0,0,0,.29.19,1.37,1.37,0,0,0,.31.11,1.45,1.45,0,0,0,.34,0l.27,0,.25-.07.23-.11.21-.15.19-.19.16-.21a2.2,2.2,0,0,0,.14-.24,2.62,2.62,0,0,0,.11-.26q0-.14.08-.28t.06-.28,0-.29,0-.3,0-.24,0-.23,0-.23T205,187l-.07-.2-.08-.19-.09-.18-.11-.17-.11-.15-.13-.13-.15-.12-.16-.1-.17-.08-.18-.06-.2,0h-.21"/><path class="cls-28" d="M207.86,189l-.19,0-.17-.06-.14-.1a.71.71,0,0,1-.12-.14l-.08-.17a1.38,1.38,0,0,1-.06-.18,1.45,1.45,0,0,1,0-.19,1.52,1.52,0,0,1,0-.2s0-.08,0-.12,0-.08,0-.12,0-.08,0-.12l0-.12,0-.12.06-.11.07-.1.09-.09.1-.07.11-.05.12,0h.14l.18,0,.16.06.14.09.12.13.09.16a1.16,1.16,0,0,1,.07.17,1.28,1.28,0,0,1,0,.19,1.54,1.54,0,0,1,0,.22s0,.1,0,.15a1.36,1.36,0,0,1,0,.14l0,.13,0,.12-.05.12-.07.1-.08.09-.08.08-.1.06-.11,0-.12,0h-.13m-.47-3.4-.27,0-.25.06-.23.1-.22.14-.19.18-.16.2a2.08,2.08,0,0,0-.14.23,2.47,2.47,0,0,0-.11.26q-.05.14-.09.28t-.06.29,0,.3q0,.15,0,.31t0,.32q0,.16,0,.31a2.92,2.92,0,0,0,.07.3,2.53,2.53,0,0,0,.1.28,2.44,2.44,0,0,0,.12.25,2.11,2.11,0,0,0,.14.22l.17.2.19.17.21.13.23.09.24.05h.25a1.57,1.57,0,0,0,.37,0,1.37,1.37,0,0,0,.33-.13,1.46,1.46,0,0,0,.29-.22,1.84,1.84,0,0,0,.25-.3v.51l1.32,0v-4.38l-1.32,0v.53l-.13-.17-.14-.14-.14-.12-.14-.09-.16-.07-.17,0-.18,0h-.19"/><path class="cls-28" d="M212.14,189.08v-.86h.7l.08,0,.07,0,.06.05.05.06,0,.07a.46.46,0,0,1,0,.08.63.63,0,0,1,0,.09l-.11.31L213,189l-.07,0-.09,0h-.7m0-1.72v-.76h.56l.18,0a.3.3,0,0,1,.12.07.27.27,0,0,1,.07.11.5.5,0,0,1,0,.16.55.55,0,0,1,0,.17.29.29,0,0,1-.07.12.31.31,0,0,1-.12.07l-.18,0h-.56m1.16-1.73-2.47,0V190l2.53,0,.33,0a1.31,1.31,0,0,0,.27-.07.83.83,0,0,0,.21-.12.66.66,0,0,0,.15-.17l.11-.19a1.52,1.52,0,0,0,.08-.19,1.29,1.29,0,0,0,0-.19,1.13,1.13,0,0,0,0-.18,2,2,0,0,0,0-.25,1.32,1.32,0,0,0,0-.22.92.92,0,0,0-.08-.18.71.71,0,0,0-.11-.14l-.13-.12-.14-.1-.15-.07-.16,0v0l.17-.08.14-.1.11-.12a.77.77,0,0,0,.08-.14l.06-.16q0-.08,0-.16a1.55,1.55,0,0,0,0-.16,1.49,1.49,0,0,0,0-.16,1.24,1.24,0,0,0,0-.19,1.15,1.15,0,0,0,0-.18,1.11,1.11,0,0,0-.07-.17l-.1-.15a.64.64,0,0,0-.14-.14.79.79,0,0,0-.19-.1l-.24-.06h-.29"/><path class="cls-28" d="M219.19,185.52l-3.54.06v2.5a1.53,1.53,0,0,1,0,.34.74.74,0,0,1-.1.25.44.44,0,0,1-.16.15.5.5,0,0,1-.23.05l-.24,0V190l.25,0,.2,0,.15,0h.1l.29,0,.25-.06.21-.09.17-.12.13-.14.11-.15.08-.16a1.11,1.11,0,0,0,.06-.16l0-.16c0-.06,0-.11,0-.17s0-.12,0-.18,0-.12,0-.18v-1.83l.88,0v3.28l1.36,0v-4.36"/><path class="cls-28" d="M221.15,187.16a1.21,1.21,0,0,1,0-.17,1.17,1.17,0,0,1,0-.16l.07-.15.08-.14.11-.12.13-.08.14-.05.16,0h.17l.15,0,.13.08.11.12.08.14a1.11,1.11,0,0,1,.06.15,1.13,1.13,0,0,1,0,.16,1.3,1.3,0,0,1,0,.17l-1.52,0m.76-1.85-.28,0-.27.06-.26.09-.24.13-.22.15-.2.19a2.09,2.09,0,0,0-.17.22,2.39,2.39,0,0,0-.15.25,2.3,2.3,0,0,0-.12.28,2.57,2.57,0,0,0-.09.31,3,3,0,0,0-.05.33q0,.17,0,.35t0,.25,0,.24,0,.23.06.22l.08.21.1.19.11.18.13.16.14.14.16.13.17.11.19.09.2.07.21,0,.22,0h.23l.4,0a2.23,2.23,0,0,0,.36-.09,1.78,1.78,0,0,0,.31-.14,1.52,1.52,0,0,0,.26-.19,2.18,2.18,0,0,0,.23-.23,2.12,2.12,0,0,0,.19-.26,2.2,2.2,0,0,0,.15-.28,2.43,2.43,0,0,0,.11-.31l-1.3,0a.75.75,0,0,1,0,.11l-.05.1-.07.1-.09.09-.1.06-.11,0-.13,0h-.27l-.12,0-.11,0-.1-.07-.08-.08-.07-.09-.06-.11,0-.12,0-.12,0-.12s0-.08,0-.12,0-.08,0-.13L224,188q0-.18,0-.35t0-.34q0-.17-.06-.32a3.05,3.05,0,0,0-.09-.3,2.11,2.11,0,0,0-.11-.29,2,2,0,0,0-.15-.26,1.93,1.93,0,0,0-.18-.23l-.21-.2a1.48,1.48,0,0,0-.25-.16,1.65,1.65,0,0,0-.29-.11l-.32-.07-.36,0"/><polyline class="cls-28" points="228.57 185.36 227.23 185.38 227.23 186.91 225.99 186.93 225.99 185.4 224.64 185.43 224.64 189.78 225.99 189.75 225.99 188.03 227.23 188 227.23 189.73 228.57 189.7 228.57 185.36"/><polyline class="cls-28" points="233.41 185.28 232.13 185.3 230.79 187.65 230.79 185.32 229.44 185.34 229.44 189.69 230.75 189.66 232.08 187.25 232.08 189.64 233.41 189.61 233.41 185.28"/><path class="cls-28" d="M235.36,186.91a1.35,1.35,0,0,1,0-.17,1.14,1.14,0,0,1,0-.16,1,1,0,0,1,.06-.15l.09-.14a.62.62,0,0,1,.1-.12l.12-.08.14,0,.17,0h.17l.14,0,.12.08a.59.59,0,0,1,.1.12l.09.14a1,1,0,0,1,.06.15,1.06,1.06,0,0,1,0,.16,1.27,1.27,0,0,1,0,.17l-1.5,0m.75-1.84-.28,0-.27.06-.25.09-.24.12-.22.15-.2.19a1.89,1.89,0,0,0-.17.22,2.1,2.1,0,0,0-.14.25,2.28,2.28,0,0,0-.12.28,2.56,2.56,0,0,0-.08.3,3,3,0,0,0-.05.33q0,.17,0,.35t0,.25,0,.24,0,.23.07.22.08.21l.09.19.11.18.13.16.14.14.16.13.17.11.18.09.2.07.21,0,.22,0h.23l.4,0a2.18,2.18,0,0,0,.35-.09,1.78,1.78,0,0,0,.31-.14,1.62,1.62,0,0,0,.26-.19,2.21,2.21,0,0,0,.22-.23,2.17,2.17,0,0,0,.18-.25,2.24,2.24,0,0,0,.15-.28,2.45,2.45,0,0,0,.11-.31l-1.28,0a.77.77,0,0,1,0,.11l0,.1-.06.09-.08.08-.1.06-.11,0-.13,0H236l-.12,0-.11,0-.1-.07-.09-.07-.07-.09-.06-.1a.79.79,0,0,1,0-.12l0-.12,0-.12s0-.08,0-.12,0-.08,0-.13l2.81-.05q0-.18,0-.35t0-.34q0-.16-.06-.32t-.08-.3a2.49,2.49,0,0,0-.12-.29,2.11,2.11,0,0,0-.15-.26,1.92,1.92,0,0,0-.18-.23,1.88,1.88,0,0,0-.21-.2,1.61,1.61,0,0,0-.25-.16,1.66,1.66,0,0,0-.28-.11l-.31-.07-.35,0"/><polyline class="cls-28" points="245.29 185.07 241.47 185.14 241.47 189.46 242.79 189.43 242.79 186.19 243.97 186.17 243.97 189.41 245.29 189.38 245.29 185.07"/><path class="cls-28" d="M248.16,188.21l-.19,0-.16-.06-.14-.1a.69.69,0,0,1-.11-.13l-.08-.16a1.32,1.32,0,0,1-.06-.17,1.39,1.39,0,0,1,0-.18,1.56,1.56,0,0,1,0-.2,1.51,1.51,0,0,1,0-.19,1.47,1.47,0,0,1,0-.19,1.41,1.41,0,0,1,.06-.18l.08-.16a.73.73,0,0,1,.11-.14l.14-.1.16-.06.19,0,.17,0,.15.05.13.09a.7.7,0,0,1,.11.13,1,1,0,0,1,.09.15,1,1,0,0,1,.07.17,1.25,1.25,0,0,1,0,.19,1.71,1.71,0,0,1,0,.21,1.77,1.77,0,0,1,0,.22,1.35,1.35,0,0,1,0,.2,1.1,1.1,0,0,1-.07.18,1,1,0,0,1-.09.16.68.68,0,0,1-.11.13l-.13.09-.15.06-.17,0m.45-3.34h-.18l-.17,0-.16.05-.15.07-.14.09-.13.12-.13.15-.13.17V185l-1.27,0v6.19l1.32,0v-2.31a1.81,1.81,0,0,0,.25.25,1.44,1.44,0,0,0,.27.18,1.29,1.29,0,0,0,.3.11,1.36,1.36,0,0,0,.33,0l.26,0,.24-.07.22-.11.2-.15.18-.18.16-.21a2.16,2.16,0,0,0,.13-.23,2.6,2.6,0,0,0,.11-.25q0-.13.08-.27t.06-.28,0-.28,0-.29,0-.23,0-.23,0-.22,0-.22l-.06-.2-.08-.19-.09-.18-.09-.16-.11-.15-.13-.13-.14-.11-.16-.09-.16-.08-.18-.05-.19,0h-.2"/><path class="cls-28" d="M252,186.61a1.35,1.35,0,0,1,0-.17,1.13,1.13,0,0,1,0-.16,1,1,0,0,1,.06-.15l.09-.14.11-.12.12-.08.14,0,.16,0h.16l.14,0,.12.08a.58.58,0,0,1,.1.12l.09.14a1,1,0,0,1,.06.15,1.06,1.06,0,0,1,0,.16,1.27,1.27,0,0,1,0,.17l-1.47,0m.74-1.82-.27,0-.26.06L252,185l-.24.12-.22.15-.19.18a2,2,0,0,0-.17.22,2.51,2.51,0,0,0-.14.24,2.28,2.28,0,0,0-.12.28,2.56,2.56,0,0,0-.08.3,3,3,0,0,0,0,.33q0,.17,0,.35t0,.25,0,.24,0,.23.06.22a2.06,2.06,0,0,0,.08.21l.09.19.11.18.13.16.14.14.15.12.17.11.18.09.19.07.2,0,.21,0h.22l.4,0a2.16,2.16,0,0,0,.35-.09,1.71,1.71,0,0,0,.3-.14,1.47,1.47,0,0,0,.26-.19,2,2,0,0,0,.4-.48,2.19,2.19,0,0,0,.14-.28,2.56,2.56,0,0,0,.11-.31l-1.26,0,0,.11,0,.1-.06.09-.08.08-.1.06-.11,0-.12,0h-.27l-.11,0-.1,0-.1-.07-.08-.07-.07-.09-.06-.1,0-.12,0-.12,0-.12s0-.08,0-.12,0-.08,0-.12l2.77-.05q0-.18,0-.35t0-.33q0-.16-.06-.32t-.08-.3a2.47,2.47,0,0,0-.11-.29,2.09,2.09,0,0,0-.14-.26,1.89,1.89,0,0,0-.17-.23,1.86,1.86,0,0,0-.21-.2,1.44,1.44,0,0,0-.24-.16,1.59,1.59,0,0,0-.28-.11l-.31-.07-.35,0"/><path class="cls-28" d="M256.64,188.1l.11-.14.09-.15.07-.15a1.26,1.26,0,0,0,.05-.15q0-.08,0-.17t0-.19,0-.21,0-.23v-.78l.88,0v2.15l-1.28,0m2.53-3.26-3.29.06v1.62q0,.15,0,.29t0,.28,0,.27-.07.26a.94.94,0,0,1-.09.22.61.61,0,0,1-.14.16.56.56,0,0,1-.18.1.75.75,0,0,1-.22,0v2.31l1.15,0v-1.25l2.31,0v1.24l1.15,0V188h-.52v-3.22"/><polyline class="cls-28" points="263.98 184.76 260.22 184.82 260.22 189.1 261.53 189.07 261.53 185.86 262.67 185.84 262.67 189.05 263.98 189.02 263.98 184.76"/><path class="cls-28" d="M266.78,187.86l-.18,0-.16-.06-.13-.09a.69.69,0,0,1-.11-.13l-.09-.16a1.21,1.21,0,0,1-.06-.17,1.31,1.31,0,0,1,0-.18,1.54,1.54,0,0,1,0-.2,1.49,1.49,0,0,1,0-.19,1.39,1.39,0,0,1,0-.18,1.3,1.3,0,0,1,.06-.18,1.22,1.22,0,0,1,.09-.16.73.73,0,0,1,.11-.14l.13-.1.16-.06.18,0,.18,0,.15.05.13.09.11.13a1,1,0,0,1,.09.15,1,1,0,0,1,.06.17,1.25,1.25,0,0,1,0,.19,1.7,1.7,0,0,1,0,.21,1.76,1.76,0,0,1,0,.21,1.35,1.35,0,0,1,0,.19,1.11,1.11,0,0,1-.06.18,1,1,0,0,1-.09.16l-.11.13-.13.09-.15.06-.18,0m.46-3.31h-.18l-.17,0-.16.05-.14.07-.14.09-.13.12-.13.14-.13.17v-.52l-1.25,0v6.13l1.3,0v-2.29a1.83,1.83,0,0,0,.24.25,1.39,1.39,0,0,0,.27.18,1.24,1.24,0,0,0,.3.11,1.35,1.35,0,0,0,.33,0l.26,0,.24-.07.22-.11.2-.15.18-.18.15-.2a2,2,0,0,0,.13-.23,2.15,2.15,0,0,0,.1-.25q0-.13.09-.27t.06-.28,0-.28,0-.29,0-.23,0-.22,0-.22l0-.21-.06-.2-.08-.19-.09-.17-.1-.16-.11-.15-.12-.13-.14-.11-.15-.09-.17-.07-.17-.05-.18,0h-.19"/><polyline class="cls-28" points="273.36 184.59 272.12 184.62 270.82 186.92 270.82 184.64 269.53 184.66 269.53 188.92 270.79 188.89 272.06 186.52 272.06 188.87 273.36 188.84 273.36 184.59"/><path class="cls-28" d="M275.7,186.52a.63.63,0,0,1-.2,0,.35.35,0,0,1-.14-.09.36.36,0,0,1-.09-.15.69.69,0,0,1,0-.21.76.76,0,0,1,0-.22.41.41,0,0,1,.09-.16.36.36,0,0,1,.14-.1.6.6,0,0,1,.2,0h.43v1h-.43m1.72-2-2.06,0-.23,0-.23.05-.23.09-.23.12a.77.77,0,0,0-.2.17,1,1,0,0,0-.14.25,1.48,1.48,0,0,0-.08.32,2.47,2.47,0,0,0,0,.39,2.32,2.32,0,0,0,0,.26,1.91,1.91,0,0,0,0,.24,1.63,1.63,0,0,0,.07.22,1.48,1.48,0,0,0,.1.2,1.1,1.1,0,0,0,.13.17l.16.13.18.09.2.05-.93,1.48,1.33,0,.73-1.36h.1v1.35l1.29,0v-4.24"/><polyline class="cls-28" points="281 184.47 277.88 184.52 277.88 185.62 278.8 185.61 278.8 188.74 280.08 188.72 280.08 185.58 281 185.57 281 184.47"/><polyline class="cls-28" points="285.24 184.39 284.01 184.41 282.73 186.7 282.73 184.44 281.46 184.46 281.46 188.69 282.7 188.66 283.96 186.31 283.96 188.64 285.24 188.62 285.24 184.39"/><path class="cls-28" d="M287.09,186a1.33,1.33,0,0,1,0-.17,1.12,1.12,0,0,1,0-.16,1,1,0,0,1,.06-.15l.08-.13a.61.61,0,0,1,.1-.12l.12-.08.13,0,.15,0h.16l.14,0,.12.08a.55.55,0,0,1,.1.11l.08.14.06.14a1.26,1.26,0,0,1,0,.15,1.52,1.52,0,0,1,0,.17l-1.42,0m.7-1.79-.26,0-.25.05-.24.09-.22.12-.21.15-.19.18a2,2,0,0,0-.16.21,2.3,2.3,0,0,0-.14.24,2.43,2.43,0,0,0-.11.27,2.72,2.72,0,0,0-.08.3,3.12,3.12,0,0,0,0,.32q0,.17,0,.34t0,.24,0,.23,0,.22.06.21l.08.2.09.19.1.17.12.16.13.14.15.12.16.11.18.08.19.07.2,0,.21,0h.22l.38,0a2,2,0,0,0,.34-.08,1.67,1.67,0,0,0,.29-.13,1.54,1.54,0,0,0,.25-.18,2.11,2.11,0,0,0,.38-.47,2.21,2.21,0,0,0,.14-.28,2.43,2.43,0,0,0,.11-.3l-1.22,0a.74.74,0,0,1,0,.11l0,.1-.06.09-.08.08-.09.06-.11,0-.12,0h-.25l-.11,0-.1,0-.09-.07-.08-.07-.07-.09-.06-.1,0-.12,0-.11,0-.12s0-.08,0-.12,0-.08,0-.12l2.66,0q0-.17,0-.34t0-.33q0-.16-.06-.31a3,3,0,0,0-.08-.29,2.09,2.09,0,0,0-.1-.28,1.92,1.92,0,0,0-.14-.25,1.86,1.86,0,0,0-.17-.22l-.2-.19a1.41,1.41,0,0,0-.23-.16,1.49,1.49,0,0,0-.26-.11l-.3-.07-.34,0"/><polyline class="cls-28" points="294.79 184.23 293.42 184.25 292.7 186.76 291.97 184.28 290.6 184.3 290.05 188.52 291.24 188.5 291.54 186.17 292.25 188.48 293.15 188.46 293.85 186.13 294.14 188.44 295.34 188.42 294.79 184.23"/><path class="cls-28" d="M300.11,182.08l-.34,0-.31.08a1.51,1.51,0,0,0-.27.13,1.42,1.42,0,0,0-.24.18l-.2.21a2.14,2.14,0,0,0-.16.22,2,2,0,0,0-.13.24,2.08,2.08,0,0,0-.09.25q0,.13-.07.26t-.05.26,0,.25,0,.24l1.26,0c0-.06,0-.11,0-.17s0-.11,0-.17,0-.11,0-.17,0-.11.05-.17a.56.56,0,0,1,.07-.15.43.43,0,0,1,.11-.11l.14-.07.18,0h.08l.08,0,.08,0,.07,0,.22.28,0,.09,0,.1s0,.07,0,.11,0,.07,0,.11a1,1,0,0,1,0,.12,1.14,1.14,0,0,1,0,.12l0,.12,0,.12-.07.14-.1.17-.13.21-.17.24-2.08,3,3.86-.07V187l-1.48,0,.29-.36.25-.32.21-.28.17-.24.14-.22.12-.22.11-.21.09-.21q0-.1.07-.21t0-.21,0-.22,0-.23,0-.25,0-.24a2.42,2.42,0,0,0-.06-.23q0-.12-.08-.23a1.77,1.77,0,0,0-.11-.22l-.14-.2-.16-.18-.19-.16-.22-.13-.25-.09-.27-.05h-.3"/><path class="cls-28" d="M224.84,126.5a13.8,13.8,0,0,0-6.18,1.37,15.84,15.84,0,0,0-5.08,3.91,18.79,18.79,0,0,0-3.44,5.87,21,21,0,0,0-1.26,7.23,21.29,21.29,0,0,0,.64,5.22,20,20,0,0,0,1.8,4.64,18.24,18.24,0,0,0,2.77,3.84,16.08,16.08,0,0,0,3.56,2.84,6.47,6.47,0,0,0,.7.4c.26.13.54.26.8.37l.73.29.5.17c.36.11.76.21,1.17.3s.84.17,1.28.25.87.13,1.3.19l1.24.12.8,0,1.22,0h2l72.8-.36v-7.94l-72.59.06h-1.93l-1.17,0-.74,0-.71-.08-.78-.1-.78-.13-.69-.15-.67-.23-.61-.24-.51-.23-.38-.21a9,9,0,0,1-1.88-1.59,10.18,10.18,0,0,1-1.46-2.11,11.13,11.13,0,0,1-.94-2.51,11.83,11.83,0,0,1-.34-2.81,11.64,11.64,0,0,1,.69-4,10.41,10.41,0,0,1,1.89-3.25,8.77,8.77,0,0,1,2.8-2.17,7.64,7.64,0,0,1,6.76,0,8.82,8.82,0,0,1,2.73,2.13,10.47,10.47,0,0,1,1.87,3.14,11.71,11.71,0,0,1,.76,3.85l7,0a21.08,21.08,0,0,0-1.3-7,19,19,0,0,0-3.36-5.76,16,16,0,0,0-5-3.92,13.91,13.91,0,0,0-6.08-1.5m-44.27-1.56-16-.22v8.55l8.58.08V178l7.45-.09v-53m44.27-12.28A24.08,24.08,0,0,0,214,115a27.7,27.7,0,0,0-8.94,6.83A32.89,32.89,0,0,0,199,132.12a36.69,36.69,0,0,0-2.24,12.71,37.22,37.22,0,0,0,1.09,9,35.08,35.08,0,0,0,3.06,8,32.19,32.19,0,0,0,4.71,6.68,28.58,28.58,0,0,0,6,5c.39.24.83.48,1.28.71s.9.45,1.33.65l1.18.52.82.32c.62.21,1.28.4,2,.57s1.38.32,2.08.45,1.42.25,2.12.34,1.4.17,2.08.22l1,0,1.47,0h2.53l72.68-.85V168.3l-72.59.54h-2.14l-1.28,0-.85,0c-.55,0-1.12-.09-1.7-.16s-1.17-.16-1.75-.27-1.16-.23-1.71-.36-1.09-.29-1.59-.45l-.47-.18-.69-.29-.7-.3-.48-.22a20.49,20.49,0,0,1-4.84-3.61,23.29,23.29,0,0,1-3.79-5,25.63,25.63,0,0,1-2.47-6.12,27.36,27.36,0,0,1-.88-6.93,27,27,0,0,1,1.63-9.31,24.22,24.22,0,0,1,4.43-7.57,20.37,20.37,0,0,1,6.54-5,17.66,17.66,0,0,1,15.76.21,20.73,20.73,0,0,1,6.36,5.08,24.54,24.54,0,0,1,4.31,7.43,27.1,27.1,0,0,1,1.65,9l7.17,0a36.84,36.84,0,0,0-2.2-12.31,33.37,33.37,0,0,0-5.82-10.13,28.25,28.25,0,0,0-8.64-6.95,24.34,24.34,0,0,0-10.65-2.71m-32.74-.71-19-.38v8.86l11.31.18v57.27l7.67-.09V111.94"/><path class="cls-28" d="M266.25,124.18a3.48,3.48,0,0,1-1.51-.37,4,4,0,0,1-1.26-1,4.79,4.79,0,0,1-.86-1.5,5.55,5.55,0,0,1-.32-1.88,5.13,5.13,0,0,1,.32-1.8,4.63,4.63,0,0,1,.86-1.45,3.94,3.94,0,0,1,1.26-1,3.35,3.35,0,0,1,1.51-.33,3.42,3.42,0,0,1,1.5.39,4.12,4.12,0,0,1,1.25,1,4.85,4.85,0,0,1,.85,1.47,5.25,5.25,0,0,1,.31,1.8,5.48,5.48,0,0,1-.31,1.86,4.59,4.59,0,0,1-.85,1.47,3.84,3.84,0,0,1-1.25,1,3.39,3.39,0,0,1-1.5.33m0-10.15a4,4,0,0,0-1.81.39,4.61,4.61,0,0,0-1.49,1.14,5.48,5.48,0,0,0-1,1.72,6.22,6.22,0,0,0-.37,2.14,6.45,6.45,0,0,0,.37,2.17,5.92,5.92,0,0,0,1,1.79,4.9,4.9,0,0,0,1.49,1.22,4,4,0,0,0,3.65.05,4.57,4.57,0,0,0,1.48-1.18,5.61,5.61,0,0,0,1-1.75,6.6,6.6,0,0,0,0-4.29,5.66,5.66,0,0,0-1-1.76,4.74,4.74,0,0,0-1.48-1.2,4.21,4.21,0,0,0-1.84-.46"/><path class="cls-28" d="M265.46,119.18v-1.73l.86,0a1.61,1.61,0,0,1,.41.05.86.86,0,0,1,.31.16.69.69,0,0,1,.2.28,1.11,1.11,0,0,1,.07.42,1.12,1.12,0,0,1,0,.28.75.75,0,0,1-.13.27.64.64,0,0,1-.26.2,1,1,0,0,1-.44.07l-1,0m1.19-2.41-2.05,0v5.48h.86V120h.67a1.53,1.53,0,0,1,.57.1.71.71,0,0,1,.31.24.82.82,0,0,1,.13.33,1.88,1.88,0,0,1,0,.36c0,.23,0,.42,0,.57a3.39,3.39,0,0,0,0,.35.61.61,0,0,0,.05.2.33.33,0,0,0,.11.12h.84a.5.5,0,0,1-.1-.17.94.94,0,0,1,0-.22c0-.09,0-.2,0-.34s0-.31,0-.52a4.06,4.06,0,0,0,0-.45,1.72,1.72,0,0,0-.09-.4,1,1,0,0,0-.2-.33.94.94,0,0,0-.35-.23,1.43,1.43,0,0,0,.44-.27A1.1,1.1,0,0,0,268,119a1.23,1.23,0,0,0,.11-.34,1.74,1.74,0,0,0,0-.3,1.87,1.87,0,0,0-.18-.84,1.29,1.29,0,0,0-.42-.49,1.55,1.55,0,0,0-.5-.23,1.85,1.85,0,0,0-.42-.06"/><g class="cls-2"><g class="cls-2"><g class="cls-29"><path class="cls-30" d="M139.76,18.21a8.34,8.34,0,0,0-.9.23,9.18,9.18,0,0,0-.9.34q-.45.2-.91.45c-.3.17.25,4.55-.05,4.76a36.21,36.21,0,0,0-15,29.57c0,14.87,7.34,22.38,10.82,26.12,3.06,2.95,4.86,4.49,6.67,4.33.3,0,.8.92,1.1.86a8.42,8.42,0,0,0,.91-.24,9.3,9.3,0,0,0,.92-.36q.46-.21.92-.47a17.76,17.76,0,0,0,5.9-6.12,40.68,40.68,0,0,0,4.34-10,63.73,63.73,0,0,0,2.31-12.55,68.52,68.52,0,0,0-.18-13.59,52.1,52.1,0,0,0-2.23-10.43,29.72,29.72,0,0,0-3.69-7.65A13.87,13.87,0,0,0,145.05,19a7.81,7.81,0,0,0-5.29-.82"/><polyline class="cls-31" points="136.9 47.85 129.44 56.68 136.96 61.16 140.62 58.46 138.26 55.08 139.07 44.61 136.94 42.93"/></g></g><g class="cls-2"><g class="cls-32"><path class="cls-33" d="M148.5,47.22l2.82-3.55L165.06,51,155.5,63.13l-4-2.11-2.83,3.58-14-7.28,9.75-12.25,4.06,2.15m1.26-25.5q-.85,0-1.71,0t-1.72.06q-.87.06-1.73.17t-1.74.28A27.86,27.86,0,0,0,131.8,27a29.8,29.8,0,0,0-8.05,8.8,32.66,32.66,0,0,0-4.24,11.59,34.8,34.8,0,0,0,.37,13.08A35.17,35.17,0,0,0,124,70.95a33.61,33.61,0,0,0,6.88,8.22,31.38,31.38,0,0,0,8.82,5.4,28.77,28.77,0,0,0,10,2.08q.85,0,1.71,0t1.72-.11q.86-.08,1.72-.22t1.72-.33a27.92,27.92,0,0,0,10.79-5,30,30,0,0,0,7.72-8.78,32.74,32.74,0,0,0,4-11.33,34.79,34.79,0,0,0-.35-12.71,35.2,35.2,0,0,0-3.93-10.29,33.72,33.72,0,0,0-6.59-8.18,31.57,31.57,0,0,0-8.58-5.55,28.94,28.94,0,0,0-9.88-2.37"/><polyline class="cls-34" points="143.86 41.05 128.7 55.87 146.22 67.99 150.62 63.65 138.26 55.08 148.95 44.62 143.86 41.05"/><polyline class="cls-35" points="153.34 40.32 148.95 44.62 138.26 55.08 150.62 63.65 155.68 67.17 170.56 52.44 153.34 40.32"/></g></g></g></g><g id="lights_shadows" data-name="lights shadows"><polygon class="cls-36" points="319.7 303.06 136.59 322.28 136.59 0 319.7 13.73 319.7 303.06"/><polygon class="cls-37" points="53.47 23.36 136.59 0 136.59 322.28 53.47 301.71 53.47 23.36"/><polygon class="cls-38" points="319.71 303.06 315.06 303.54 315.06 13.39 319.71 13.73 319.71 303.06"/><polygon class="cls-39" points="53.47 301.71 58.12 302.86 58.12 22.2 53.47 23.37 53.47 301.71"/><polygon class="cls-40" points="319.7 17.7 136.59 3.21 136.59 0 319.7 13.73 319.7 17.7"/><polygon class="cls-41" points="53.47 27.33 136.53 3.21 136.53 0 53.47 23.36 53.47 27.33"/><polygon class="cls-42" points="136.73 312.78 53.47 292.97 53.47 301.71 136.73 322.28 136.73 312.78"/><rect class="cls-43" x="134.87" width="3.32" height="322.28"/><polygon class="cls-44" points="144.14 321.49 136.53 322.28 136.53 0 144.14 0.57 144.14 321.49"/><polygon class="cls-45" points="136.59 312.78 319.7 294.31 319.7 303.06 136.59 322.28 136.59 312.78"/><polygon class="cls-46" points="319.7 303.06 136.59 322.28 136.59 0 319.7 13.73 319.7 303.06"/><polygon class="cls-47" points="133.21 321.48 136.53 322.28 136.53 0 133.21 0.84 133.21 321.48"/><polygon class="cls-48" points="319.7 303.06 136.59 322.28 136.59 0 319.7 13.73 319.7 303.06"/></g></g></g></svg>