<svg xmlns="http://www.w3.org/2000/svg" xmlns:xlink="http://www.w3.org/1999/xlink" viewBox="0 0 326.22 326.44"><defs><style>.cls-1{fill:none;}.cls-2{isolation:isolate;}.cls-3{opacity:0.7;}.cls-4{fill:#fff;opacity:0;}.cls-5{fill:#fbfbfb;opacity:0.05;}.cls-6{fill:#f8f8f8;opacity:0.1;}.cls-7{fill:#f4f4f4;opacity:0.14;}.cls-8{fill:#f1f1f0;opacity:0.19;}.cls-9{fill:#ededed;opacity:0.24;}.cls-10{fill:#e9e9e9;opacity:0.29;}.cls-11{fill:#e6e6e5;opacity:0.33;}.cls-12{fill:#e2e2e2;opacity:0.38;}.cls-13{fill:#dedede;opacity:0.43;}.cls-14{fill:#dbdbda;opacity:0.48;}.cls-15{fill:#d7d7d7;opacity:0.52;}.cls-16{fill:#d4d4d3;opacity:0.57;}.cls-17{fill:#d0d0cf;opacity:0.62;}.cls-18{fill:#ccc;opacity:0.67;}.cls-19{fill:#c9c9c8;opacity:0.71;}.cls-20{fill:#c5c5c4;opacity:0.76;}.cls-21{fill:#c1c1c1;opacity:0.81;}.cls-22{fill:#bebebd;opacity:0.86;}.cls-23{fill:#babab9;opacity:0.9;}.cls-24{fill:#b7b7b6;opacity:0.95;}.cls-25{fill:#b3b3b2;}.cls-26{fill:#fcda00;}.cls-27{fill:#ffca02;}.cls-28{fill:#d10910;}.cls-29{clip-path:url(#clip-path);}.cls-30{fill:#e7eaec;}.cls-31{fill:#95ceb8;}.cls-32{clip-path:url(#clip-path-2);}.cls-33{fill:#e5e5e2;}.cls-34{fill:#4ab285;}.cls-35{fill:#003d60;}.cls-36,.cls-37,.cls-43{mix-blend-mode:multiply;}.cls-36{fill:url(#Безымянный_градиент_761);}.cls-37{fill:url(#Безымянный_градиент_2038);}.cls-38,.cls-39,.cls-40,.cls-41,.cls-42,.cls-45{mix-blend-mode:overlay;}.cls-38{fill:url(#Безымянный_градиент_500);}.cls-39{fill:url(#Безымянный_градиент_500-2);}.cls-40{fill:url(#Безымянный_градиент_147);}.cls-41{fill:url(#Безымянный_градиент_503);}.cls-42{fill:url(#Безымянный_градиент_543);}.cls-43{fill:url(#Безымянный_градиент_771);}.cls-44,.cls-46,.cls-48{mix-blend-mode:soft-light;}.cls-44{fill:url(#Безымянный_градиент_13);}.cls-45{fill:url(#Безымянный_градиент_549);}.cls-46{fill:url(#Безымянный_градиент_2036);}.cls-47{mix-blend-mode:hard-light;fill:url(#Безымянный_градиент_8);}.cls-48{fill:url(#Безымянный_градиент_5);}</style><clipPath id="clip-path"><polygon class="cls-1" points="136.53 85.39 114.49 67.43 114.49 46.83 136.53 22.65 136.53 85.39"/></clipPath><clipPath id="clip-path-2"><polygon class="cls-1" points="184.38 27.92 184.38 86.34 136.53 99.79 136.53 14.47 184.38 27.92"/></clipPath><linearGradient id="Безымянный_градиент_761" x1="268.79" y1="8.63" x2="183.64" y2="308.02" gradientUnits="userSpaceOnUse"><stop offset="0" stop-color="#fff"/><stop offset="0.66" stop-color="#f3f3f3"/><stop offset="1" stop-color="#eaeaea"/></linearGradient><linearGradient id="Безымянный_градиент_2038" x1="139.95" y1="6.28" x2="60.6" y2="300.46" gradientUnits="userSpaceOnUse"><stop offset="0" stop-color="#f1f4f1"/><stop offset="0.33" stop-color="#e8e2e4"/><stop offset="1" stop-color="#d8c2cd"/></linearGradient><linearGradient id="Безымянный_градиент_500" x1="315.06" y1="158.47" x2="319.71" y2="158.47" gradientUnits="userSpaceOnUse"><stop offset="0" stop-color="gray"/><stop offset="0.42" stop-color="#828282"/><stop offset="0.6" stop-color="#898989"/><stop offset="0.74" stop-color="#969696"/><stop offset="0.85" stop-color="#a8a8a8"/><stop offset="0.95" stop-color="#bfbfbf"/><stop offset="1" stop-color="#cfcfcf"/></linearGradient><linearGradient id="Безымянный_градиент_500-2" x1="-2081.56" y1="162.53" x2="-2076.9" y2="162.53" gradientTransform="matrix(-1, 0, 0, 1, -2023.43, 0)" xlink:href="#Безымянный_градиент_500"/><linearGradient id="Безымянный_градиент_147" x1="228.3" y1="6.87" x2="228.02" y2="10.45" gradientUnits="userSpaceOnUse"><stop offset="0" stop-color="#cfcfcf"/><stop offset="0.05" stop-color="#bfbfbf"/><stop offset="0.15" stop-color="#a8a8a8"/><stop offset="0.26" stop-color="#969696"/><stop offset="0.4" stop-color="#898989"/><stop offset="0.58" stop-color="#828282"/><stop offset="1" stop-color="gray"/></linearGradient><linearGradient id="Безымянный_градиент_503" x1="94.51" y1="11.8" x2="95.61" y2="15.99" gradientUnits="userSpaceOnUse"><stop offset="0" stop-color="#ebebeb"/><stop offset="0.04" stop-color="#dbdbdb"/><stop offset="0.12" stop-color="#bfbfbf"/><stop offset="0.21" stop-color="#a8a8a8"/><stop offset="0.32" stop-color="#969696"/><stop offset="0.44" stop-color="#898989"/><stop offset="0.61" stop-color="#828282"/><stop offset="1" stop-color="gray"/></linearGradient><linearGradient id="Безымянный_градиент_543" x1="94.04" y1="311.75" x2="96.35" y2="302.75" gradientUnits="userSpaceOnUse"><stop offset="0" stop-color="#414141"/><stop offset="0.03" stop-color="#565656"/><stop offset="0.08" stop-color="#696969"/><stop offset="0.13" stop-color="#767676"/><stop offset="0.19" stop-color="#7e7e7e"/><stop offset="0.32" stop-color="gray"/></linearGradient><linearGradient id="Безымянный_градиент_771" x1="134.87" y1="161.14" x2="138.19" y2="161.14" gradientUnits="userSpaceOnUse"><stop offset="0" stop-color="#fff"/><stop offset="0.21" stop-color="#fefefd"/><stop offset="0.3" stop-color="#fcfcf6"/><stop offset="0.36" stop-color="#f9f7e9"/><stop offset="0.42" stop-color="#f4f1d8"/><stop offset="0.46" stop-color="#ede9c1"/><stop offset="0.48" stop-color="#eae5b5"/><stop offset="0.5" stop-color="#eeeac3"/><stop offset="0.55" stop-color="#f4f2d9"/><stop offset="0.61" stop-color="#f9f8ea"/><stop offset="0.67" stop-color="#fcfcf6"/><stop offset="0.76" stop-color="#fefefd"/><stop offset="1" stop-color="#fff"/></linearGradient><linearGradient id="Безымянный_градиент_13" x1="136.53" y1="161.14" x2="144.14" y2="161.14" gradientUnits="userSpaceOnUse"><stop offset="0" stop-color="gray"/><stop offset="0.01" stop-color="#858586"/><stop offset="0.04" stop-color="#97999e"/><stop offset="0.07" stop-color="#a2a5ac"/><stop offset="0.1" stop-color="#a6a9b1"/><stop offset="0.14" stop-color="#9fa1a8"/><stop offset="0.26" stop-color="#919296"/><stop offset="0.39" stop-color="#878889"/><stop offset="0.58" stop-color="#828282"/><stop offset="1" stop-color="gray"/></linearGradient><linearGradient id="Безымянный_градиент_549" x1="228.53" y1="312.06" x2="227.69" y2="303.76" gradientUnits="userSpaceOnUse"><stop offset="0" stop-color="#060606"/><stop offset="0.06" stop-color="#292929"/><stop offset="0.14" stop-color="#4e4e4e"/><stop offset="0.21" stop-color="#6a6a6a"/><stop offset="0.27" stop-color="#7a7a7a"/><stop offset="0.32" stop-color="gray"/></linearGradient><linearGradient id="Безымянный_градиент_2036" x1="278.05" y1="-23.95" x2="173.89" y2="342.32" gradientUnits="userSpaceOnUse"><stop offset="0" stop-color="#fff"/><stop offset="0.42" stop-color="#d4cccc"/><stop offset="1" stop-color="#958080"/></linearGradient><linearGradient id="Безымянный_градиент_8" x1="-2056.76" y1="161.14" x2="-2053.44" y2="161.14" gradientTransform="matrix(-1, 0, 0, 1, -1920.23, 0)" gradientUnits="userSpaceOnUse"><stop offset="0" stop-color="gray"/><stop offset="0.02" stop-color="#999992"/><stop offset="0.05" stop-color="#afb1a3"/><stop offset="0.08" stop-color="#bdbfad"/><stop offset="0.1" stop-color="#c2c4b0"/><stop offset="0.12" stop-color="#bdbfac"/><stop offset="0.21" stop-color="#a7a89c"/><stop offset="0.31" stop-color="#95968f"/><stop offset="0.44" stop-color="#898987"/><stop offset="0.61" stop-color="#828281"/><stop offset="1" stop-color="gray"/></linearGradient><linearGradient id="Безымянный_градиент_5" x1="278.05" y1="-23.95" x2="173.89" y2="342.32" gradientUnits="userSpaceOnUse"><stop offset="0" stop-color="#fff"/><stop offset="0.1" stop-color="#fbfafa"/><stop offset="0.22" stop-color="#efecec"/><stop offset="0.35" stop-color="#dbd4d4"/><stop offset="0.48" stop-color="#c0b3b3"/><stop offset="0.62" stop-color="#9c8989"/><stop offset="0.64" stop-color="#958080"/></linearGradient></defs><title>Upravlenie-firmoj</title><g class="cls-2"><g id="Layer_2" data-name="Layer 2"><g id="box_color" data-name="box color"><g class="cls-3"><path class="cls-4" d="M8.27,306.78C39.94,313.66,124,325,124,325a52.65,52.65,0,0,0,18.4,1.15l180.31-20.6c4.58-.15,4.43-5,.92-5.66l-202-29a78.62,78.62,0,0,0-24.89-.44S36.5,285.24,12.38,289.07C.88,290.9-6.55,303.56,8.27,306.78Z"/><path class="cls-5" d="M10.52,306.56c30.16,6.55,114,18.25,114,18.25a50.48,50.48,0,0,0,17.64,1.1l180.2-20.51c4.39-.15,4.24-4.84.87-5.44L124.06,271.3a75.22,75.22,0,0,0-23.8-.42S37.4,286,14.44,289.66C3.46,291.41-3.62,303.5,10.52,306.56Z"/><path class="cls-6" d="M12.77,306.35c28.65,6.22,112.31,18.32,112.31,18.32A48.32,48.32,0,0,0,142,325.73L322,305.31c4.2-.14,4.06-4.65.83-5.22L126.53,271.77a71.82,71.82,0,0,0-22.72-.4s-65.5,15.41-87.32,18.87C6,291.91-.68,303.43,12.77,306.35Z"/><path class="cls-7" d="M15,306.13c27.15,5.89,110.6,18.4,110.6,18.4a46.15,46.15,0,0,0,16.12,1l180-20.32c4-.14,3.88-4.45.79-5L129,272.25a68.42,68.42,0,0,0-21.63-.38s-68.15,15.68-88.81,19C8.62,292.41,2.25,303.36,15,306.13Z"/><path class="cls-8" d="M17.26,305.91c25.64,5.56,108.88,18.48,108.88,18.48a44,44,0,0,0,15.36,1l179.87-20.23c3.82-.14,3.7-4.26.75-4.78L131.45,272.72a65,65,0,0,0-20.54-.36s-70.79,16-90.31,19.06C11.21,292.92,5.18,303.29,17.26,305.91Z"/><path class="cls-9" d="M19.51,305.7c24.13,5.24,107.16,18.55,107.16,18.55a41.81,41.81,0,0,0,14.61.92L321,305c3.63-.13,3.52-4.06.7-4.56L133.92,273.2a61.61,61.61,0,0,0-19.46-.34S41,289.1,22.66,292C13.79,293.42,8.12,303.22,19.51,305.7Z"/><path class="cls-10" d="M21.76,305.48c22.62,4.91,105.45,18.63,105.45,18.63a39.65,39.65,0,0,0,13.85.87l179.65-20c3.44-.13,3.34-3.87.66-4.34l-185-26.92a58.21,58.21,0,0,0-18.37-.32s-76.07,16.52-93.3,19.25C16.37,293.93,11.05,303.15,21.76,305.48Z"/><path class="cls-11" d="M24,305.26C45.12,309.85,127.74,324,127.74,324a37.48,37.48,0,0,0,13.09.82l179.53-20c3.26-.12,3.16-3.67.62-4.12L138.84,274.14a54.81,54.81,0,0,0-17.28-.3s-78.72,16.79-94.79,19.35C19,294.43,14,303.08,24,305.26Z"/><path class="cls-12" d="M26.26,305c19.6,4.26,102,18.78,102,18.78a35.31,35.31,0,0,0,12.33.78L320,304.73c3.07-.12,3-3.48.58-3.9l-179.3-26.22a51.41,51.41,0,0,0-16.2-.28s-81.36,17.07-96.29,19.44C21.54,294.94,16.92,303,26.26,305Z"/><path class="cls-13" d="M28.51,304.83c18.1,3.93,100.3,18.85,100.3,18.85a33.15,33.15,0,0,0,11.57.73l179.31-19.77c2.88-.11,2.8-3.28.53-3.68L143.77,275.09a48,48,0,0,0-15.11-.26s-84,17.35-97.78,19.53C24.12,295.44,19.86,302.94,28.51,304.83Z"/><path class="cls-14" d="M30.76,304.61c16.59,3.6,98.58,18.93,98.58,18.93a31,31,0,0,0,10.82.68l179.2-19.68c2.69-.11,2.62-3.09.49-3.46L146.23,275.57a44.6,44.6,0,0,0-14-.24S45.57,293,32.94,295C26.7,295.94,22.79,302.87,30.76,304.61Z"/><path class="cls-15" d="M33,304.39c15.08,3.27,96.86,19,96.86,19a28.81,28.81,0,0,0,10.06.64L319,304.44c2.5-.11,2.44-2.89.45-3.24L148.7,276a41.2,41.2,0,0,0-12.94-.22S46.47,293.72,35,295.55C29.28,296.45,25.72,302.81,33,304.39Z"/><path class="cls-16" d="M35.26,304.18c13.57,2.95,95.14,19.08,95.14,19.08a26.64,26.64,0,0,0,9.3.59l179-19.5c2.31-.1,2.26-2.7.41-3L151.16,276.51a37.8,37.8,0,0,0-11.85-.2S47.38,294.49,37,296.14C31.86,297,28.66,302.74,35.26,304.18Z"/><path class="cls-17" d="M37.51,304c12.06,2.62,93.43,19.15,93.43,19.15a24.48,24.48,0,0,0,8.54.55l178.87-19.41c2.12-.1,2.08-2.5.36-2.8L153.62,277a34.4,34.4,0,0,0-10.76-.18S48.29,295.26,39.1,296.72C34.45,297.46,31.59,302.67,37.51,304Z"/><path class="cls-18" d="M39.76,303.74C50.31,306,131.47,323,131.47,323a22.31,22.31,0,0,0,7.79.5L318,304.16c1.93-.09,1.9-2.31.32-2.58L156.09,277.46a31,31,0,0,0-9.68-.16S49.19,296,41.16,297.31C37,298,34.53,302.6,39.76,303.74Z"/><path class="cls-19" d="M42,303.53c9,2,90,19.3,90,19.3a20.14,20.14,0,0,0,7,.45l178.64-19.22a1.19,1.19,0,1,0,.28-2.36l-159.4-23.76a27.6,27.6,0,0,0-8.59-.14s-99.86,19-106.75,20.1C39.61,298.47,37.46,302.53,42,303.53Z"/><path class="cls-20" d="M44.25,303.31c7.54,1.64,88.28,19.38,88.28,19.38a18,18,0,0,0,6.27.41L317.33,304a1.08,1.08,0,0,0,.24-2.14L161,278.41a24.2,24.2,0,0,0-7.5-.12S51,297.58,45.27,298.49C42.19,299,40.4,302.46,44.25,303.31Z"/><path class="cls-21" d="M46.5,303.09c6,1.31,86.56,19.45,86.56,19.45a15.81,15.81,0,0,0,5.51.36l178.42-19a1,1,0,0,0,.19-1.92L163.48,278.89a20.8,20.8,0,0,0-6.42-.1S51.91,298.35,47.32,299.08C44.77,299.47,43.33,302.39,46.5,303.09Z"/><path class="cls-22" d="M48.75,302.88c4.52,1,84.84,19.53,84.84,19.53a13.64,13.64,0,0,0,4.75.31l178.31-18.95a.85.85,0,0,0,.15-1.7L165.94,279.36a17.4,17.4,0,0,0-5.33-.08S52.82,299.13,49.38,299.67C47.36,300,46.26,302.33,48.75,302.88Z"/><path class="cls-23" d="M51,302.66c3,.67,83.13,19.6,83.13,19.6a11.48,11.48,0,0,0,4,.27l178.2-18.85a.74.74,0,0,0,.11-1.48l-148-22.36a14,14,0,0,0-4.24-.06S53.73,299.9,51.43,300.26C49.94,300.49,49.2,302.26,51,302.66Z"/><path class="cls-24" d="M53.25,302.44c1.51.34,81.41,19.68,81.41,19.68a9.31,9.31,0,0,0,3.24.22L316,303.58a.63.63,0,0,0,.07-1.26l-145.18-22a10.62,10.62,0,0,0-3.16,0S54.64,300.67,53.49,300.84C52.52,301,52.13,302.19,53.25,302.44Z"/><path class="cls-25" d="M55.5,302.22,135.19,322a7.14,7.14,0,0,0,2.48.17l178-18.67a.52.52,0,0,0,0-1L173.33,280.78a7.25,7.25,0,0,0-2.07,0L55.54,301.43A.4.4,0,0,0,55.5,302.22Z"/></g><polygon class="cls-26" points="319.7 303.06 136.59 322.28 136.59 0 319.7 13.73 319.7 303.06"/><polygon class="cls-27" points="53.47 23.36 136.59 0 136.59 322.28 53.47 301.71 53.47 23.36"/><polyline class="cls-28" points="179.68 187.16 177.78 187.19 176.79 190.18 175.57 187.22 173.52 187.25 175.85 192.36 175.01 194.32 176.88 194.29 179.68 187.16"/><polyline class="cls-28" points="184.55 189.27 180.11 189.35 180.11 194.22 181.65 194.19 181.65 190.53 183.01 190.51 183.01 194.17 184.55 194.14 184.55 189.27"/><path class="cls-28" d="M187.88,192.81l-.22,0-.19-.06a.68.68,0,0,1-.16-.11.77.77,0,0,1-.13-.15,1.51,1.51,0,0,1-.1-.18,1.42,1.42,0,0,1-.07-.19,1.45,1.45,0,0,1,0-.21,1.6,1.6,0,0,1,0-.22,1.64,1.64,0,0,1,0-.22,1.56,1.56,0,0,1,0-.21,1.6,1.6,0,0,1,.07-.2l.09-.19a.81.81,0,0,1,.13-.16.71.71,0,0,1,.16-.11l.19-.07.23,0,.2,0,.18.06.16.1a.9.9,0,0,1,.13.14,1.17,1.17,0,0,1,.11.18,1.26,1.26,0,0,1,.08.2,1.47,1.47,0,0,1,0,.22,1.89,1.89,0,0,1,0,.48,1.5,1.5,0,0,1,0,.22,1.31,1.31,0,0,1-.08.2,1.23,1.23,0,0,1-.11.18,1,1,0,0,1-.13.14l-.16.11-.18.07-.2,0m.53-3.79-.22,0-.2,0-.19.06-.17.07-.16.11-.16.14-.15.17-.15.2v-.6l-1.48,0v7l1.54,0v-2.6a1.88,1.88,0,0,0,.28.29,1.57,1.57,0,0,0,.32.21,1.51,1.51,0,0,0,.35.12,1.7,1.7,0,0,0,.38,0l.3,0,.28-.08.26-.12.24-.16.21-.21a2.24,2.24,0,0,0,.18-.24,2.5,2.5,0,0,0,.15-.26,2.89,2.89,0,0,0,.13-.29q.06-.15.1-.3t.07-.31q0-.16,0-.32t0-.33,0-.26,0-.25,0-.25-.06-.24-.07-.23l-.09-.21-.1-.2-.11-.18-.13-.17-.15-.15-.16-.13-.18-.11-.19-.09-.21-.06-.22,0h-.23"/><path class="cls-28" d="M193.4,192.71l-.21,0-.18-.06a.68.68,0,0,1-.16-.11.77.77,0,0,1-.13-.15,1.46,1.46,0,0,1-.1-.18,1.47,1.47,0,0,1-.07-.2,1.5,1.5,0,0,1,0-.21,1.55,1.55,0,0,1,0-.22s0-.09,0-.14,0-.09,0-.14l0-.14,0-.13.05-.13.07-.12.08-.11.1-.09.11-.08.12-.06.14,0h.15l.2,0,.18.06.16.1a.85.85,0,0,1,.13.14,1.16,1.16,0,0,1,.11.18,1.26,1.26,0,0,1,.08.2,1.47,1.47,0,0,1,0,.22,1.81,1.81,0,0,1,0,.24q0,.08,0,.16t0,.15s0,.1,0,.14l0,.13-.06.13-.07.11-.09.1-.1.09-.11.07-.12.05-.13,0h-.14m-.52-3.76-.3,0-.28.07-.26.12-.24.16a1.78,1.78,0,0,0-.21.19,1.92,1.92,0,0,0-.18.22,2.22,2.22,0,0,0-.15.25,2.67,2.67,0,0,0-.13.29q-.06.15-.1.31t-.07.32q0,.16,0,.34t0,.35q0,.18,0,.36t0,.34a3.25,3.25,0,0,0,.08.32,3.05,3.05,0,0,0,.11.3,2.76,2.76,0,0,0,.14.29,2.25,2.25,0,0,0,.16.25,2,2,0,0,0,.19.21l.21.18.23.14.25.1.27.06.29,0a1.75,1.75,0,0,0,.41-.06,1.53,1.53,0,0,0,.37-.15,1.63,1.63,0,0,0,.32-.24,2.06,2.06,0,0,0,.28-.34v.57l1.46,0v-4.84l-1.46,0v.6l-.15-.2-.15-.17-.16-.13-.16-.1-.17-.07-.18-.05-.2,0h-.21"/><path class="cls-28" d="M198.15,192.82v-.94h.78l.09,0,.08,0,.07.06.05.07,0,.08a.52.52,0,0,1,0,.1.7.7,0,0,1,0,.11.64.64,0,0,1,0,.1.48.48,0,0,1,0,.09l0,.08-.06.07-.07.05-.08,0-.1,0h-.79m0-1.89v-.83h.63l.2,0a.35.35,0,0,1,.14.07.31.31,0,0,1,.08.13.53.53,0,0,1,0,.18.55.55,0,0,1,0,.18.34.34,0,0,1-.08.13.37.37,0,0,1-.14.08.64.64,0,0,1-.2,0h-.63m1.29-1.91-2.75,0v4.84l2.81-.05.37,0a1.42,1.42,0,0,0,.3-.08.89.89,0,0,0,.23-.14.71.71,0,0,0,.16-.19l.11-.21a1.72,1.72,0,0,0,.08-.2,1.37,1.37,0,0,0,.05-.2,1.19,1.19,0,0,0,0-.2,2.14,2.14,0,0,0,0-.28,1.51,1.51,0,0,0-.05-.24,1.15,1.15,0,0,0-.08-.2,1,1,0,0,0-.11-.17l-.14-.13-.16-.1-.17-.07-.18,0v0l.19-.09.16-.11.13-.14a.87.87,0,0,0,.09-.16l.07-.17a1.64,1.64,0,0,0,0-.17,1.71,1.71,0,0,0,0-.18q0-.09,0-.18a1.31,1.31,0,0,0,0-.21,1.23,1.23,0,0,0-.05-.2,1.22,1.22,0,0,0-.08-.19,1.27,1.27,0,0,0-.11-.17.68.68,0,0,0-.16-.15.9.9,0,0,0-.21-.1l-.26-.06-.31,0"/><path class="cls-28" d="M206,188.91,202,189v2.75a1.76,1.76,0,0,1,0,.38.79.79,0,0,1-.11.27.47.47,0,0,1-.18.16.56.56,0,0,1-.25.06l-.27,0v1.25l.28,0,.23,0h.3l.31,0,.27-.06.23-.09a1,1,0,0,0,.19-.13l.15-.16.12-.16a1.25,1.25,0,0,0,.09-.17,1.14,1.14,0,0,0,.06-.18q0-.09,0-.19t0-.19,0-.19,0-.2v-2l1,0v3.62l1.51,0v-4.81"/><path class="cls-28" d="M208.16,190.71a1.37,1.37,0,0,1,0-.19,1.21,1.21,0,0,1,0-.18,1.18,1.18,0,0,1,.07-.17l.1-.15a.77.77,0,0,1,.12-.13l.14-.09.16-.06.18,0h.18l.16.05.14.09a.72.72,0,0,1,.12.13l.09.16.07.17a1.43,1.43,0,0,1,0,.17,1.51,1.51,0,0,1,0,.18l-1.69,0m.84-2-.31,0-.3.06-.28.1-.27.13-.25.17a1.94,1.94,0,0,0-.22.21,2.12,2.12,0,0,0-.19.25,2.43,2.43,0,0,0-.16.28,2.3,2.3,0,0,0-.13.3,2.71,2.71,0,0,0-.1.34,3.25,3.25,0,0,0-.06.37,3.89,3.89,0,0,0,0,.39q0,.14,0,.28t0,.26.05.25.07.24.09.24l.1.22.12.19.14.17.16.16.18.14.19.12.21.1.22.07.23.05.24,0H209a3.28,3.28,0,0,0,.45,0,2.44,2.44,0,0,0,.4-.1,1.91,1.91,0,0,0,.34-.15,1.65,1.65,0,0,0,.29-.21,2.33,2.33,0,0,0,.25-.25,2.3,2.3,0,0,0,.21-.28,2.41,2.41,0,0,0,.17-.31,2.65,2.65,0,0,0,.12-.34l-1.45,0a.89.89,0,0,1,0,.13l-.05.12-.07.1-.09.09-.11.07-.13.05-.14,0h-.3l-.13,0-.12-.05-.11-.07-.09-.08-.08-.1-.07-.11-.06-.13,0-.13,0-.13s0-.09,0-.14,0-.1,0-.15l3.16-.06q0-.2,0-.39t0-.37q0-.18-.07-.36t-.1-.34a2.59,2.59,0,0,0-.13-.32,2.29,2.29,0,0,0-.16-.28,2.22,2.22,0,0,0-.2-.25,2.36,2.36,0,0,0-.24-.23,1.65,1.65,0,0,0-.28-.18,1.85,1.85,0,0,0-.32-.13,2.23,2.23,0,0,0-.36-.07l-.4,0"/><polyline class="cls-28" points="216.39 188.73 214.9 188.75 214.9 190.44 213.52 190.47 213.52 188.78 212.02 188.8 212.02 193.6 213.52 193.57 213.52 191.66 214.9 191.63 214.9 193.54 216.39 193.52 216.39 188.73"/><polyline class="cls-28" points="221.75 188.63 220.32 188.66 218.83 191.25 218.83 188.69 217.35 188.71 217.35 193.5 218.8 193.47 220.26 190.8 220.26 193.44 221.75 193.41 221.75 188.63"/><path class="cls-28" d="M223.9,190.42a1.36,1.36,0,0,1,0-.19,1.2,1.2,0,0,1,0-.18,1.16,1.16,0,0,1,.07-.16l.1-.15a.76.76,0,0,1,.12-.13l.14-.09.16-.06.18,0h.19l.16,0,.14.09a.64.64,0,0,1,.11.13l.1.16a1.23,1.23,0,0,1,.07.16,1.2,1.2,0,0,1,0,.17,1.27,1.27,0,0,1,0,.18l-1.66,0m.83-2-.31,0-.29.06-.28.1-.27.13-.24.17a2,2,0,0,0-.21.21,2.29,2.29,0,0,0-.19.24,2.68,2.68,0,0,0-.16.28,2.45,2.45,0,0,0-.13.3,2.87,2.87,0,0,0-.09.33,3.38,3.38,0,0,0-.06.36q0,.19,0,.39t0,.28,0,.26,0,.25a4.08,4.08,0,0,0,.16.47l.11.21.12.19.14.17.15.16.17.14.19.12.2.1.22.07.23.05.24,0h.25a3.21,3.21,0,0,0,.44,0,2.42,2.42,0,0,0,.39-.1,1.93,1.93,0,0,0,.34-.15,1.71,1.71,0,0,0,.29-.21,2.35,2.35,0,0,0,.44-.52,2.45,2.45,0,0,0,.16-.31,2.66,2.66,0,0,0,.12-.34l-1.41,0a.77.77,0,0,1,0,.13l-.06.12-.07.1-.09.09-.11.07-.12.05-.14,0h-.3l-.13,0-.12-.05-.11-.07-.09-.08-.08-.1L224,192l-.05-.13,0-.13,0-.13s0-.09,0-.14,0-.1,0-.14l3.11-.06q0-.2,0-.38t0-.37q0-.18-.07-.35t-.09-.34a2.59,2.59,0,0,0-.13-.31,2.28,2.28,0,0,0-.16-.28,2.2,2.2,0,0,0-.2-.25,2.34,2.34,0,0,0-.23-.22,1.63,1.63,0,0,0-.27-.18,1.81,1.81,0,0,0-.31-.13,2.18,2.18,0,0,0-.35-.07l-.39,0"/><polyline class="cls-28" points="234.95 188.41 233.48 188.44 233.48 190.11 232.13 190.13 232.13 188.46 230.66 188.48 230.66 193.24 232.13 193.21 232.13 191.31 233.48 191.29 233.48 193.18 234.95 193.15 234.95 188.41"/><path class="cls-28" d="M238.06,191.86l-.21,0-.18-.06a.65.65,0,0,1-.15-.11.75.75,0,0,1-.12-.15,1.3,1.3,0,0,1-.09-.18,1.4,1.4,0,0,1-.07-.19,1.55,1.55,0,0,1,0-.2,1.73,1.73,0,0,1,0-.21s0-.09,0-.14,0-.09,0-.13a1.33,1.33,0,0,1,0-.13l0-.13,0-.12.06-.12.08-.1.09-.09.11-.08.12-.06.13,0h.15l.19,0,.17.06.15.1.13.14a1.14,1.14,0,0,1,.1.17,1.25,1.25,0,0,1,.07.19,1.46,1.46,0,0,1,0,.21,1.81,1.81,0,0,1,0,.23q0,.08,0,.15t0,.15s0,.09,0,.14l0,.13-.06.13-.07.11-.08.1-.09.08-.1.07-.12.05-.12,0h-.13m-.51-3.68-.29,0-.26.07-.24.11-.22.16-.2.19a2,2,0,0,0-.18.22,2.16,2.16,0,0,0-.15.25,2.46,2.46,0,0,0-.12.28q-.05.15-.09.3t-.07.31q0,.16,0,.33t0,.34q0,.18,0,.35t0,.33q0,.16.07.31a3,3,0,0,0,.1.3,2.46,2.46,0,0,0,.13.28,2.06,2.06,0,0,0,.15.24,1.86,1.86,0,0,0,.18.21l.2.18.22.14.24.1.25.06.27,0a1.68,1.68,0,0,0,.4-.05,1.44,1.44,0,0,0,.35-.15,1.51,1.51,0,0,0,.31-.24,1.91,1.91,0,0,0,.26-.33v.56l1.4,0v-4.73l-1.4,0v.58l-.14-.19-.14-.16-.15-.13-.15-.1-.17-.07-.18-.05-.19,0h-.2"/><polyline class="cls-28" points="247.84 188.19 246.4 188.21 246.4 191.76 245.25 191.78 245.25 188.23 243.81 188.26 243.81 191.81 242.66 191.83 242.66 188.28 241.2 188.3 241.2 193.03 247.84 192.9 247.84 188.19"/><path class="cls-28" d="M249.95,190a1.36,1.36,0,0,1,0-.19,1.2,1.2,0,0,1,0-.17,1.16,1.16,0,0,1,.07-.16l.09-.15.11-.13.13-.09.15-.05.18,0h.18l.16,0,.14.09a.7.7,0,0,1,.12.12l.09.16a1.33,1.33,0,0,1,.07.16,1.26,1.26,0,0,1,0,.17,1.29,1.29,0,0,1,0,.18l-1.61,0m.8-2-.3,0-.29.06-.27.1-.26.13-.24.17a1.93,1.93,0,0,0-.21.21,2.2,2.2,0,0,0-.18.24,2.63,2.63,0,0,0-.16.28,2.43,2.43,0,0,0-.12.3,2.86,2.86,0,0,0-.09.33,3.37,3.37,0,0,0-.05.36q0,.19,0,.38t0,.27,0,.26,0,.25.07.24l.09.23.1.21.12.19.14.17.15.16.17.14.18.12.2.1.22.07.23.05.24,0h.25a3.05,3.05,0,0,0,.43,0,2.27,2.27,0,0,0,.38-.09,1.84,1.84,0,0,0,.33-.15,1.69,1.69,0,0,0,.28-.21,2.17,2.17,0,0,0,.24-.24,2.25,2.25,0,0,0,.2-.27,2.53,2.53,0,0,0,.16-.31,3,3,0,0,0,.12-.33l-1.39,0a.78.78,0,0,1,0,.13l-.05.11-.07.1-.09.09-.1.07-.12.05-.13,0h-.29l-.13,0-.12,0-.1-.07-.09-.08-.08-.1-.06-.11,0-.13,0-.13a1.31,1.31,0,0,1,0-.13s0-.09,0-.14,0-.09,0-.14l3-.06q0-.19,0-.38t0-.36q0-.18-.06-.35t-.09-.33a2.42,2.42,0,0,0-.12-.31,2.23,2.23,0,0,0-.35-.52l-.23-.22a1.61,1.61,0,0,0-.26-.17,1.72,1.72,0,0,0-.3-.12,2,2,0,0,0-.34-.07l-.38,0"/><path class="cls-28" d="M257.86,188l-1.37,0-1.44,2.54v-2.51l-1.43,0v4.7l1.39,0,1.43-2.62v2.59l1.42,0V188m-1.32-2.09a1,1,0,0,1-.09.25.64.64,0,0,1-.14.18.58.58,0,0,1-.2.11.81.81,0,0,1-.25,0,.81.81,0,0,1-.25,0,.57.57,0,0,1-.2-.1.63.63,0,0,1-.15-.18,1,1,0,0,1-.1-.25l-.94.43a2,2,0,0,0,.12.25,1.62,1.62,0,0,0,.14.22,1.41,1.41,0,0,0,.17.18l.2.15.23.12.24.08.26,0h.27l.27,0,.25-.06.24-.09.22-.13.2-.15a1.53,1.53,0,0,0,.17-.19,1.63,1.63,0,0,0,.14-.22,1.83,1.83,0,0,0,.11-.25l-.93-.4"/><path class="cls-28" d="M263.74,191.58h-.13l-.13,0-.12,0-.11-.07-.1-.08-.09-.1-.08-.12-.07-.13-.06-.16a1.65,1.65,0,0,1,0-.17q0-.09,0-.18t0-.19,0-.19,0-.18a1.68,1.68,0,0,1,0-.17l.06-.16.07-.14.08-.12.09-.11.1-.09.11-.07.12,0,.13,0h.13v2.59m1.24,0V189l.21,0,.18.06.16.1a1,1,0,0,1,.14.15,1.23,1.23,0,0,1,.12.19,1.33,1.33,0,0,1,.09.22,1.63,1.63,0,0,1,.05.25,2.19,2.19,0,0,1,0,.29,2.1,2.1,0,0,1,0,.28,1.64,1.64,0,0,1-.05.25,1.39,1.39,0,0,1-.09.22,1.31,1.31,0,0,1-.12.2,1.07,1.07,0,0,1-.14.15l-.16.11-.18.07-.21,0m.1-5.77-1.42,0v2a2.59,2.59,0,0,0-.4,0,2.55,2.55,0,0,0-.39.1,2.74,2.74,0,0,0-.38.16,3.2,3.2,0,0,0-.37.22,1.45,1.45,0,0,0-.31.32,1.79,1.79,0,0,0-.22.42,2.68,2.68,0,0,0-.13.53,4.32,4.32,0,0,0,0,.64,4.24,4.24,0,0,0,0,.64,2.64,2.64,0,0,0,.13.53,1.74,1.74,0,0,0,.22.42,1.36,1.36,0,0,0,.31.31,3.24,3.24,0,0,0,.37.21,2.71,2.71,0,0,0,.38.15,2.43,2.43,0,0,0,.79.12v2l1.42,0v-2l.24,0,.24,0,.25-.06.25-.09.25-.11.23-.16.21-.21a2.74,2.74,0,0,0,.2-.25,1.77,1.77,0,0,0,.16-.3,2.31,2.31,0,0,0,.12-.35,3.1,3.1,0,0,0,.07-.4,4.38,4.38,0,0,0,0-.91,3,3,0,0,0-.07-.4,2.19,2.19,0,0,0-.12-.35,1.71,1.71,0,0,0-.16-.29,2.59,2.59,0,0,0-.2-.24l-.21-.2-.23-.15-.25-.11-.25-.08-.24-.05-.24,0h-.24v-2"/><polyline class="cls-28" points="272.2 187.77 270.85 187.8 269.43 190.32 269.43 187.82 268.01 187.84 268.01 192.51 269.39 192.48 270.78 189.88 270.78 192.46 272.2 192.43 272.2 187.77"/><path class="cls-28" d="M275.24,191.16l-.2,0-.17-.06a.63.63,0,0,1-.15-.1.73.73,0,0,1-.12-.15l-.09-.17a1.41,1.41,0,0,1-.07-.19,1.45,1.45,0,0,1,0-.2,1.64,1.64,0,0,1,0-.42,1.48,1.48,0,0,1,0-.2,1.45,1.45,0,0,1,.07-.19l.09-.18a.69.69,0,0,1,.11-.15.64.64,0,0,1,.15-.11L275,189l.2,0,.19,0,.16.06.14.1.12.13a1.23,1.23,0,0,1,.1.17,1.29,1.29,0,0,1,.07.19,1.41,1.41,0,0,1,0,.21,1.68,1.68,0,0,1,0,.46,1.45,1.45,0,0,1,0,.21,1.34,1.34,0,0,1-.07.19,1.31,1.31,0,0,1-.1.17l-.12.14-.14.1-.16.06-.19,0m.49-3.63h-.2l-.18,0-.17.05-.16.07-.14.1-.14.13-.14.16-.14.2v-.57l-1.36,0v6.67l1.41,0v-2.49a1.91,1.91,0,0,0,.26.28,1.46,1.46,0,0,0,.29.2,1.33,1.33,0,0,0,.32.12,1.47,1.47,0,0,0,.35,0l.28,0,.26-.07.24-.12.22-.16.19-.2a2.12,2.12,0,0,0,.17-.23,2.22,2.22,0,0,0,.14-.25,2.36,2.36,0,0,0,.11-.28q.05-.14.09-.29t.07-.3q0-.15,0-.31t0-.31,0-.25,0-.24,0-.24-.06-.23-.06-.22l-.08-.21-.09-.19-.1-.18-.12-.16-.13-.14-.15-.12-.17-.1-.17-.09-.19-.06-.2,0h-.21"/><polyline class="cls-28" points="283.13 187.59 281.63 187.61 280.83 190.37 280.02 187.64 278.51 187.67 277.89 192.32 279.22 192.29 279.54 189.73 280.32 192.27 281.32 192.25 282.1 189.68 282.43 192.23 283.75 192.2 283.13 187.59"/><path class="cls-28" d="M286.4,191.12l-.2,0L286,191a.64.64,0,0,1-.15-.11.8.8,0,0,1-.12-.15,1.44,1.44,0,0,1-.1-.2,1.6,1.6,0,0,1-.07-.22,1.92,1.92,0,0,1,0-.24,2.42,2.42,0,0,1,0-.26,2.47,2.47,0,0,1,0-.26,2,2,0,0,1,0-.24,1.6,1.6,0,0,1,.07-.22,1.3,1.3,0,0,1,.1-.2.75.75,0,0,1,.12-.16.65.65,0,0,1,.15-.11l.17-.07.2,0,.2,0,.17.06a.64.64,0,0,1,.15.11.8.8,0,0,1,.12.15,1.35,1.35,0,0,1,.09.19,1.67,1.67,0,0,1,.07.22,2.06,2.06,0,0,1,0,.24,2.5,2.5,0,0,1,0,.26,2.47,2.47,0,0,1,0,.26,2.05,2.05,0,0,1,0,.24,1.78,1.78,0,0,1-.07.22,1.64,1.64,0,0,1-.09.2.85.85,0,0,1-.12.16.67.67,0,0,1-.15.11l-.17.07-.2,0m0-3.76a2.9,2.9,0,0,0-.51.05,2.29,2.29,0,0,0-.45.14,2,2,0,0,0-.73.52,2.32,2.32,0,0,0-.26.37,2.47,2.47,0,0,0-.19.43,2.86,2.86,0,0,0-.12.48,3.52,3.52,0,0,0,0,.53,3.56,3.56,0,0,0,0,.36,3.1,3.1,0,0,0,.05.33,2.81,2.81,0,0,0,.09.31,2.67,2.67,0,0,0,.12.29,2.09,2.09,0,0,0,.15.26,1.86,1.86,0,0,0,.18.23,1.79,1.79,0,0,0,.22.2l.25.16.27.13.29.09.32.05h.34l.35,0,.32-.06.3-.1.27-.14.24-.17a2,2,0,0,0,.21-.21,2.11,2.11,0,0,0,.18-.24,2.4,2.4,0,0,0,.16-.27,2.57,2.57,0,0,0,.12-.3,2.81,2.81,0,0,0,.08-.32,3.25,3.25,0,0,0,0-.34q0-.17,0-.36t0-.36a3.06,3.06,0,0,0,0-.33,2.58,2.58,0,0,0-.08-.31,2.31,2.31,0,0,0-.12-.29,2.1,2.1,0,0,0-.15-.26,1.89,1.89,0,0,0-.18-.23,1.82,1.82,0,0,0-.21-.2l-.24-.16-.27-.14-.3-.09-.32-.05h-.35"/><path class="cls-28" d="M293.44,187.41l-1.32,0-1.39,2.49v-2.47l-1.39,0v4.61l1.35,0,1.38-2.57V192l1.37,0v-4.6m-1.28-2.05a.93.93,0,0,1-.08.25.6.6,0,0,1-.14.18.56.56,0,0,1-.19.11.8.8,0,0,1-.25,0,.73.73,0,0,1-.23,0,.54.54,0,0,1-.19-.1.62.62,0,0,1-.14-.17,1,1,0,0,1-.09-.25l-.91.42a1.74,1.74,0,0,0,.11.25,1.49,1.49,0,0,0,.14.21,1.38,1.38,0,0,0,.17.18l.2.15.22.12.23.08.24,0h.25l.26,0,.25-.06.23-.09.22-.13.19-.15a1.48,1.48,0,0,0,.16-.18A1.72,1.72,0,0,0,293,186a2.14,2.14,0,0,0,.11-.25l-.91-.39"/><path class="cls-28" d="M299,190.7h-.15l-.14,0-.12-.08-.1-.11-.08-.13a.92.92,0,0,1-.05-.14,1,1,0,0,1,0-.15,1.2,1.2,0,0,1,0-.16s0-.08,0-.12a1.1,1.1,0,0,1,0-.11l0-.1,0-.1.05-.09.06-.08.07-.07.07-.06.08-.05.08,0,.09,0h.23l.12,0,.12.06.11.09a.58.58,0,0,1,.1.12.7.7,0,0,1,.07.14.94.94,0,0,1,0,.17,1.33,1.33,0,0,1,0,.19,1.07,1.07,0,0,1,0,.31,1.1,1.1,0,0,1-.06.15l-.08.14-.1.12-.12.08-.14.05-.16,0m0-2.9h-.1l-.1,0-.09,0-.09-.07-.08-.1a.55.55,0,0,1-.06-.12.81.81,0,0,1,0-.15,1.31,1.31,0,0,1,0-.18,1.25,1.25,0,0,1,0-.17.85.85,0,0,1,0-.15.62.62,0,0,1,.06-.12l.08-.1.09-.08.09-.06.1,0h.22l.1,0,.1.05.09.08.08.1a.54.54,0,0,1,.05.12.82.82,0,0,1,0,.15,1.39,1.39,0,0,1,0,.17,1.25,1.25,0,0,1,0,.17.88.88,0,0,1,0,.15.68.68,0,0,1-.05.13l-.08.11-.09.07-.1.05-.1,0H299m0-2.75-.28,0-.26,0-.24.07-.22.1-.2.13-.17.15-.15.18a1.8,1.8,0,0,0-.13.2,2,2,0,0,0-.1.22,2,2,0,0,0-.07.23,2.05,2.05,0,0,0,0,.25,2.25,2.25,0,0,0,0,.26,2.51,2.51,0,0,0,0,.28,1.93,1.93,0,0,0,0,.25,1.58,1.58,0,0,0,.07.23,1.39,1.39,0,0,0,.1.2l.12.16.13.14.15.11.16.09h0l-.2.1-.19.13-.18.16-.16.19a1.34,1.34,0,0,0-.14.23,1.62,1.62,0,0,0-.1.27,2.16,2.16,0,0,0-.06.31,3,3,0,0,0,0,.35,2.48,2.48,0,0,0,0,.39,2.2,2.2,0,0,0,.09.36,2.07,2.07,0,0,0,.15.34,2.11,2.11,0,0,0,.21.31,1.23,1.23,0,0,0,.28.26,1.55,1.55,0,0,0,.37.18,2.3,2.3,0,0,0,.46.1,3.93,3.93,0,0,0,1.08,0,2.39,2.39,0,0,0,.46-.12,1.64,1.64,0,0,0,.37-.2,1.29,1.29,0,0,0,.28-.27,2.38,2.38,0,0,0,.2-.32,2.26,2.26,0,0,0,.24-.71,2.4,2.4,0,0,0,0-.39,3,3,0,0,0,0-.35,2.11,2.11,0,0,0-.06-.31,1.56,1.56,0,0,0-.1-.26,1.28,1.28,0,0,0-.14-.22l-.17-.18-.18-.15-.19-.12-.2-.09h0l.16-.09.15-.12.13-.14.12-.17a1.34,1.34,0,0,0,.1-.2,1.58,1.58,0,0,0,.07-.23,2,2,0,0,0,0-.25,2.8,2.8,0,0,0,0-.28,2.44,2.44,0,0,0,0-.26,2,2,0,0,0,0-.25,1.73,1.73,0,0,0-.07-.23,1.62,1.62,0,0,0-.1-.21,1.47,1.47,0,0,0-.12-.2l-.15-.17-.17-.15-.2-.12-.22-.09-.24-.07-.26,0H299"/><path class="cls-28" d="M224.77,127.6a13.62,13.62,0,0,0-6.1,1.35,15.61,15.61,0,0,0-5,3.87,18.56,18.56,0,0,0-3.39,5.81,20.82,20.82,0,0,0-1.25,7.15,21,21,0,0,0,.63,5.15,19.76,19.76,0,0,0,1.78,4.58,18.06,18.06,0,0,0,2.74,3.8,16,16,0,0,0,3.51,2.81,6.34,6.34,0,0,0,.69.4c.26.13.53.25.79.36l.72.28.49.16c.36.11.75.21,1.16.3s.83.17,1.26.24l1.28.19,1.23.13.79,0,1.21,0h2l71.82-.35v-7.83l-71.62.05h-1.89l-1.15,0-.73,0L225,156l-.78-.1-.77-.12-.68-.15-.66-.23-.61-.24-.51-.24-.37-.21a8.93,8.93,0,0,1-1.86-1.57,10,10,0,0,1-1.44-2.08,11,11,0,0,1-.93-2.48,11.77,11.77,0,0,1,.35-6.72,10.28,10.28,0,0,1,1.86-3.21,8.63,8.63,0,0,1,2.76-2.15,7.52,7.52,0,0,1,6.67,0,8.74,8.74,0,0,1,2.7,2.11,10.39,10.39,0,0,1,1.85,3.11,11.58,11.58,0,0,1,.75,3.81l6.89,0a20.92,20.92,0,0,0-1.28-6.95,18.8,18.8,0,0,0-3.31-5.69,15.84,15.84,0,0,0-4.89-3.88,13.7,13.7,0,0,0-6-1.48M181.06,126l-15.83-.22v8.45l8.47.08v44.12l7.36-.09V126m43.71-12.12a23.74,23.74,0,0,0-10.69,2.31,27.33,27.33,0,0,0-8.82,6.75,32.5,32.5,0,0,0-6,10.19A36.31,36.31,0,0,0,197,145.73a36.76,36.76,0,0,0,1.08,8.87,34.69,34.69,0,0,0,3,7.91,31.84,31.84,0,0,0,4.65,6.6,28.22,28.22,0,0,0,6,4.95c.39.24.83.48,1.27.71s.89.45,1.32.64l1.17.51.81.32c.62.21,1.27.39,1.94.56s1.36.32,2.06.45,1.4.24,2.09.33,1.38.16,2,.21l1,0,1.45,0h2.49l71.7-.84V168.9l-71.62.53h-2.1l-1.26,0-.84,0c-.54,0-1.11-.09-1.68-.17s-1.15-.16-1.73-.26-1.14-.22-1.69-.36-1.08-.28-1.58-.45l-.46-.18-.68-.29-.69-.3-.47-.22a20.16,20.16,0,0,1-4.78-3.56,23,23,0,0,1-3.75-5,25.34,25.34,0,0,1-2.45-6.05,27,27,0,0,1-.87-6.84,26.68,26.68,0,0,1,1.61-9.2,23.91,23.91,0,0,1,4.38-7.47,20.11,20.11,0,0,1,6.46-5,17.43,17.43,0,0,1,15.56.21,20.47,20.47,0,0,1,6.28,5,24.26,24.26,0,0,1,4.25,7.34,26.8,26.8,0,0,1,1.63,8.93l7.08,0a36.5,36.5,0,0,0-2.17-12.16,33,33,0,0,0-5.75-10,27.9,27.9,0,0,0-8.53-6.87,24,24,0,0,0-10.51-2.69m-32.33-.71-18.73-.39v8.74l11.17.18v56.59l7.56-.09v-65"/><path class="cls-28" d="M265.63,125.32a3.43,3.43,0,0,1-1.49-.37,4,4,0,0,1-1.24-1,4.74,4.74,0,0,1-.85-1.48,5.49,5.49,0,0,1-.31-1.86,5.06,5.06,0,0,1,.31-1.77,4.55,4.55,0,0,1,.85-1.43,3.87,3.87,0,0,1,1.24-.94,3.32,3.32,0,0,1,1.49-.32,3.37,3.37,0,0,1,1.48.38,4.06,4.06,0,0,1,1.23,1,4.77,4.77,0,0,1,.84,1.45,5.18,5.18,0,0,1,.31,1.78,5.42,5.42,0,0,1-.31,1.84,4.54,4.54,0,0,1-.84,1.45,3.78,3.78,0,0,1-1.23.94,3.32,3.32,0,0,1-1.48.32m0-10a4,4,0,0,0-1.79.39,4.56,4.56,0,0,0-1.47,1.13,5.41,5.41,0,0,0-1,1.7,6.13,6.13,0,0,0-.37,2.11,6.37,6.37,0,0,0,.37,2.14,5.88,5.88,0,0,0,1,1.77,4.87,4.87,0,0,0,1.47,1.21,3.93,3.93,0,0,0,3.6.05,4.52,4.52,0,0,0,1.46-1.17,5.57,5.57,0,0,0,1-1.73,6.53,6.53,0,0,0,0-4.24,5.6,5.6,0,0,0-1-1.73,4.68,4.68,0,0,0-1.46-1.18,4.15,4.15,0,0,0-1.82-.46"/><path class="cls-28" d="M264.86,120.38v-1.7l.85,0a1.64,1.64,0,0,1,.4.05.84.84,0,0,1,.31.15.67.67,0,0,1,.2.28,1.11,1.11,0,0,1,.07.42,1.05,1.05,0,0,1,0,.27.73.73,0,0,1-.13.26.64.64,0,0,1-.26.2,1,1,0,0,1-.43.07l-1,0M266,118l-2,0v5.41h.85v-2.22h.65a1.53,1.53,0,0,1,.56.1.7.7,0,0,1,.31.24.8.8,0,0,1,.13.32,1.93,1.93,0,0,1,0,.36c0,.23,0,.42,0,.57a3.31,3.31,0,0,0,0,.35.58.58,0,0,0,.05.2.33.33,0,0,0,.1.12h.84a.5.5,0,0,1-.09-.17.9.9,0,0,1,0-.21c0-.09,0-.19,0-.33s0-.31,0-.52a3.86,3.86,0,0,0,0-.44,1.68,1.68,0,0,0-.09-.4.94.94,0,0,0-.55-.57,1.43,1.43,0,0,0,.44-.26,1,1,0,0,0,.24-.32,1.17,1.17,0,0,0,.1-.33,1.76,1.76,0,0,0,0-.29,1.89,1.89,0,0,0-.17-.84,1.27,1.27,0,0,0-.41-.49,1.51,1.51,0,0,0-.49-.22A1.84,1.84,0,0,0,266,118"/><g class="cls-2"><g class="cls-2"><g class="cls-29"><path class="cls-30" d="M139.4,18.66a8.34,8.34,0,0,0-.9.23,9.18,9.18,0,0,0-.9.34q-.45.2-.91.45c-.3.17.25,4.55-.05,4.76A36.21,36.21,0,0,0,121.6,54c0,14.87,7.34,22.38,10.82,26.12,3.06,2.95,4.86,4.49,6.67,4.33.3,0,.8.92,1.1.86a8.42,8.42,0,0,0,.91-.24,9.3,9.3,0,0,0,.92-.36q.46-.21.92-.47a17.76,17.76,0,0,0,5.9-6.12,40.68,40.68,0,0,0,4.34-10,63.73,63.73,0,0,0,2.31-12.55A68.52,68.52,0,0,0,155.32,42a52.1,52.1,0,0,0-2.23-10.43,29.72,29.72,0,0,0-3.69-7.65,13.87,13.87,0,0,0-4.71-4.42,7.81,7.81,0,0,0-5.29-.82"/><polyline class="cls-31" points="136.53 48.3 129.07 57.13 136.59 61.61 140.26 58.91 137.9 55.53 138.7 45.06 136.58 43.38"/></g></g><g class="cls-2"><g class="cls-32"><path class="cls-33" d="M148.14,47.67,151,44.12l13.74,7.31-9.56,12.16-4-2.11-2.83,3.58-14-7.28,9.75-12.25,4.06,2.15m1.26-25.5q-.85,0-1.71,0t-1.72.06q-.87.06-1.73.17t-1.74.28a27.86,27.86,0,0,0-11.05,4.78,29.8,29.8,0,0,0-8.05,8.8,32.66,32.66,0,0,0-4.24,11.59,34.8,34.8,0,0,0,.37,13.08,35.17,35.17,0,0,0,4.14,10.52,33.61,33.61,0,0,0,6.88,8.22,31.38,31.38,0,0,0,8.82,5.4,28.77,28.77,0,0,0,10,2.08q.85,0,1.71,0t1.72-.11q.86-.08,1.72-.22t1.72-.33a27.92,27.92,0,0,0,10.79-5,30,30,0,0,0,7.72-8.78,32.74,32.74,0,0,0,4-11.33,34.79,34.79,0,0,0-.35-12.71,35.2,35.2,0,0,0-3.93-10.29,33.72,33.72,0,0,0-6.59-8.18,31.57,31.57,0,0,0-8.58-5.55,28.94,28.94,0,0,0-9.88-2.37"/><polyline class="cls-34" points="143.49 41.5 128.33 56.31 145.85 68.44 150.25 64.1 137.9 55.53 148.59 45.07 143.49 41.5"/><polyline class="cls-35" points="152.97 40.77 148.59 45.07 137.9 55.53 150.25 64.1 155.31 67.61 170.19 52.89 152.97 40.77"/></g></g></g></g><g id="lights_shadows" data-name="lights shadows"><polygon class="cls-36" points="319.7 303.06 136.59 322.28 136.59 0 319.7 13.73 319.7 303.06"/><polygon class="cls-37" points="53.47 23.36 136.59 0 136.59 322.28 53.47 301.71 53.47 23.36"/><polygon class="cls-38" points="319.71 303.06 315.06 303.54 315.06 13.39 319.71 13.73 319.71 303.06"/><polygon class="cls-39" points="53.47 301.71 58.12 302.86 58.12 22.2 53.47 23.37 53.47 301.71"/><polygon class="cls-40" points="319.7 17.7 136.59 3.21 136.59 0 319.7 13.73 319.7 17.7"/><polygon class="cls-41" points="53.47 27.33 136.53 3.21 136.53 0 53.47 23.36 53.47 27.33"/><polygon class="cls-42" points="136.73 312.78 53.47 292.97 53.47 301.71 136.73 322.28 136.73 312.78"/><rect class="cls-43" x="134.87" width="3.32" height="322.28"/><polygon class="cls-44" points="144.14 321.49 136.53 322.28 136.53 0 144.14 0.57 144.14 321.49"/><polygon class="cls-45" points="136.59 312.78 319.7 294.31 319.7 303.06 136.59 322.28 136.59 312.78"/><polygon class="cls-46" points="319.7 303.06 136.59 322.28 136.59 0 319.7 13.73 319.7 303.06"/><polygon class="cls-47" points="133.21 321.48 136.53 322.28 136.53 0 133.21 0.84 133.21 321.48"/><polygon class="cls-48" points="319.7 303.06 136.59 322.28 136.59 0 319.7 13.73 319.7 303.06"/></g></g></g></svg>