<svg xmlns="http://www.w3.org/2000/svg" xmlns:xlink="http://www.w3.org/1999/xlink" width="145" height="46" viewBox="0 0 145 46">
    <defs>
        <path id="a" d="M.312.373h9.039V11.88H.312z"/>
    </defs>
    <g fill="none" fill-rule="evenodd">
        <path fill="#D61920" d="M78.622 7.91l.006 2.273a3.28 3.28 0 0 1-.975.454c-.347.096-.74.145-1.181.146-1.204.003-2.187-.38-2.95-1.151-.764-.771-1.147-1.792-1.151-3.064-.003-1.286.385-2.313 1.163-3.081.778-.767 1.739-1.152 2.88-1.155.419-.001.815.055 1.189.168.374.113.709.269 1.006.466l.006 2.318a3.023 3.023 0 0 0-.886-.706 2.183 2.183 0 0 0-1.012-.248c-.61 0-1.103.22-1.483.655-.38.435-.564.983-.555 1.646-.006.624.178 1.139.552 1.546.374.406.873.609 1.498.607a2.33 2.33 0 0 0 .993-.226c.319-.15.619-.365.9-.647M79.976 10.545l-.02-7.995 4.795-.012.005 1.918-2.558.007.003 1.12 2.32-.006.003 1.758-2.318.006.003 1.28 2.558-.007.005 1.918zM88.194 4.288l.005 1.838h.64c.357.006.63-.069.815-.226.187-.156.28-.39.28-.703-.002-.32-.098-.552-.289-.696-.19-.144-.46-.216-.81-.215l-.64.002zm-2.222 6.241l-.02-7.994 3.368-.009c.922-.002 1.638.25 2.15.754.51.505.767 1.142.77 1.911.001.784-.252 1.428-.76 1.932-.509.504-1.224.757-2.146.76l-1.13.002.006 2.638-2.238.006zM95.755 8.905l1.028-.003c.434-.001.742-.076.925-.224.182-.15.273-.357.272-.624 0-.251-.09-.447-.27-.587-.179-.141-.49-.21-.93-.21l-1.029.004.004 1.644zm-.009-3.243l.932-.003c.318-.001.566-.062.743-.184.177-.123.27-.313.277-.572 0-.26-.092-.457-.274-.593-.182-.137-.433-.205-.75-.204l-.932.003.004 1.553zM93.5 2.515l3.871-.01c.777-.002 1.37.176 1.778.532.408.357.613.855.615 1.495.001.366-.109.7-.329 1.006a1.851 1.851 0 0 1-.91.665v.023c.524.127.938.37 1.24.727.301.357.453.795.454 1.312.002.693-.238 1.238-.72 1.635-.484.398-1.113.597-1.889.599l-4.089.01-.02-7.994zM101.243 2.495l2.16-.006.011 4.79 3.07-4.798 2.206-.006.021 7.995-2.159.006-.013-4.798-3.073 4.806-2.202.006zM116.263 7.812l.006 2.272a3.28 3.28 0 0 1-.975.454c-.346.096-.74.145-1.181.146-1.204.003-2.186-.38-2.95-1.151-.763-.771-1.147-1.792-1.15-3.064-.004-1.286.384-2.313 1.162-3.081.779-.767 1.74-1.152 2.882-1.155.418-.001.814.055 1.188.168.373.113.709.269 1.005.466l.007 2.318a3.023 3.023 0 0 0-.886-.706 2.183 2.183 0 0 0-1.012-.248c-.61 0-1.103.22-1.483.655-.38.435-.566.983-.556 1.646-.005.624.179 1.139.553 1.546.373.406.873.609 1.498.607.342-.001.672-.076.993-.225.319-.15.618-.366.9-.648M117.39 10.447l-.021-7.995 2.238-.005.008 2.878 2.718-.007-.007-2.88 2.238-.004.02 7.994-2.237.006-.01-3.198-2.717.007.008 3.198zM133.059 10.405l-.021-7.994 2.238-.006.021 7.995-2.238.005zm-4.801-1.585l.959-.004c.404 0 .691-.072.862-.213.171-.142.256-.352.255-.635-.001-.296-.096-.51-.287-.638-.19-.13-.469-.192-.834-.192l-.96.003.005 1.678zm-2.234 1.604l-.021-7.994 2.238-.006.008 3.118 1.177-.003c1.043.005 1.827.212 2.354.622.527.41.791 1.01.793 1.802.002.807-.259 1.417-.784 1.83-.524.412-1.308.62-2.351.623l-3.414.008zM141.552.196l1.28.476c-.19.397-.492.71-.905.939-.415.23-.911.345-1.49.347-.587.001-1.088-.111-1.502-.339a2.027 2.027 0 0 1-.9-.934l1.279-.483a.925.925 0 0 0 .418.507c.194.11.428.164.702.164.267-.001.496-.057.69-.168a.975.975 0 0 0 .428-.509zm-4.838 2.205l2.16-.005.013 4.796 3.067-4.805 2.207-.005.022 7.994-2.16.006-.011-4.797-3.075 4.805-2.202.006-.02-7.995zM73.06 13.818l10.244-.027.03 11.492-3.217.01-.023-8.735-3.81.01.024 8.734-3.218.008zM89.943 16.516L88.7 20.755l2.508-.007-1.265-4.232zm-6.018 8.766l4.058-11.503 3.907-.01 4.117 11.48-3.45.01-.593-1.985-4.006.01-.583 1.989-3.45.009zM99.793 16.276l.007 2.643.919-.002c.515.01.906-.098 1.173-.323.268-.225.4-.562.4-1.011-.001-.46-.14-.793-.413-1-.275-.207-.663-.311-1.167-.309l-.92.002zm-3.194 8.973l-.03-11.493 4.843-.013c1.324-.003 2.353.359 3.089 1.085.735.725 1.104 1.641 1.107 2.747.003 1.127-.361 2.053-1.093 2.777-.731.724-1.76 1.088-3.083 1.091l-1.625.004.01 3.793-3.218.009zM108.73 25.217l-.022-8.734-2.528.007-.007-2.76 8.274-.02.007 2.758-2.528.006.023 8.735zM115.626 25.198l-.03-11.492 3.216-.009.011 4.137 3.908-.01-.011-4.137 3.219-.009.03 11.493-3.218.008-.014-4.597-3.906.01.013 4.598zM127.38 25.168l-.03-11.492 6.896-.018.007 2.758-3.677.008.004 1.61 3.332-.01.007 2.53-3.333.008.005 1.838 3.678-.008.007 2.758z"/>
        <g transform="translate(135 13.268)">
            <mask id="b" fill="#fff">
                <use xlink:href="#a"/>
            </mask>
            <path fill="#D61920" d="M3.536 2.906l.007 2.643.92-.002c.514.01.905-.098 1.172-.323.268-.225.401-.562.4-1.01 0-.46-.14-.794-.413-1-.275-.208-.663-.312-1.167-.31l-.919.002zM.342 11.88L.312.386 5.155.373C6.48.37 7.508.733 8.245 1.458c.734.725 1.103 1.641 1.106 2.747.003 1.127-.36 2.053-1.093 2.777-.73.724-1.759 1.088-3.083 1.091l-1.625.004.01 3.793-3.218.01z" mask="url(#b)"/>
        </g>
        <path fill="#D61920" d="M0 9.125l.015 5.791 6.611-.018.08 30.37 5.789-.016-.095-36.16L0 9.125zM21.528 45.23l-6.02.015-.103-39.169-8.802.023L6.587.076l14.822-.04.119 45.193zm30.099-15.428c-.432.001-2.708-.008-3.13-.044-.711-.057-1.745-.162-2.408-.312-.75-.2-1.452-.46-1.773-.635a7.116 7.116 0 0 1-3.751-6.252 7.128 7.128 0 0 1 7.112-7.148c3.856-.01 6.999 3.05 7.135 6.88l5.749-.015c-.14-7.005-5.865-12.633-12.899-12.615-7.114.02-12.867 5.801-12.849 12.913.014 5.018 2.899 9.342 7.093 11.454.645.375 1.858.768 2.204.858 1.181.307 2.772.517 4.059.608.478.036 2.809.048 3.302.05v.01l92.71-.245-.015-5.75-92.539.243zm-3.448 9.363c-1.789-.113-3.86-.42-5.487-.89a27.414 27.414 0 0 1-1.894-.696c-5.678-2.613-9.646-8.34-9.664-14.995-.024-9.13 7.384-16.58 16.518-16.605 9.052-.023 16.446 7.264 16.595 16.287l5.981-.016C70.071 9.93 59.986-.033 47.636 0 35.208.033 25.123 10.172 25.155 22.6c.023 8.568 4.858 16.01 11.926 19.8 1.277.671 3.106 1.36 3.728 1.548 2.015.594 4.478.984 6.678 1.147.748.054 3.35.077 4.113.078l92.609-.244-.015-5.96-92.542.243c-.548.001-2.939-.013-3.473-.048z"/>
    </g>
</svg>
