<svg xmlns="http://www.w3.org/2000/svg" xmlns:xlink="http://www.w3.org/1999/xlink" width="102" height="94" viewBox="0 0 102 94">
    <defs>
        <path id="a" d="M0 .62h101.868V94H.001z"/>
    </defs>
    <g fill="none" fill-rule="evenodd">
        <path fill="#2A3F91" d="M82.209 40.733c.667 1.056.627 2.433.763 3.674-.037 2.618.193 5.742-.244 8.41-.22 1.102-.926 2.254-2.035 2.67-1.772.831-4.169.609-5.811-.352-1.38-1.007-1.561-2.706-1.742-4.315-.142-3.17-.371-6.523.464-9.42.66-1.795 2.48-2.258 4.12-2.4 1.73-.005 3.417.266 4.485 1.733"/>
        <g>
            <mask id="b" fill="#fff">
                <use xlink:href="#a"/>
            </mask>
            <path fill="#2A3F91" d="M58.77 80.493c.136.271-.228.181-.318.273-4.828 1.056-10.205 1.116-15.04-.052-.092-.227.228-.273.363-.41 4.232-2.782 10.839-2.798 14.994.189zM42.452 79.49c-.228.272-.592.546-.91.728-3.83-.988-7.39-2.705-10.678-5.058v-.137c1.092-.685 2.184-1.413 3.367-1.916 2.606 2.581 5.3 4.528 8.22 6.383zm28.879-4.573c-2.547 2.05-5.505 3.421-8.51 4.564l-2.14.687c-.364-.18-.684-.453-1.005-.723l.092-.137c2.911-1.733 5.55-3.83 8.05-6.335 1.23.497 2.418 1.175 3.513 1.944zm-4.883-2.577c-1.453 1.685-3.319 3.143-5.046 4.375-1.047.638-2.094 1.322-3.186 1.87l-1.961-.858.135-.319c1.636-2.23 3.087-4.505 4.356-6.915l.137-.091c1.962.45 3.831 1.08 5.565 1.938zm-25.068-1.842c1.327 2.495 2.974 4.854 4.622 7.21-.638.365-1.412.595-2.049.96a30.743 30.743 0 0 1-8.31-6.065v-.136c1.774-.869 3.642-1.509 5.554-2.014l.183.045zm17.999-.455l.046.135c-1.27 2.457-2.859 4.823-4.585 7.053-.774.094-1.505-.223-2.279-.266l-.774-.088c-.099-2.68-.15-5.042-.022-7.722 2.599.038 5.197.303 7.614.888zm-8.96 6.79c-.956.23-2.005.233-2.916.463-1.873-2.221-3.43-4.624-4.757-7.12l.227-.181c2.368-.46 4.828-.83 7.381-.837l.065 7.675zm-9.598-10.422c-.455.002-.956-.088-1.276.049l1.147 2.678-.137.137a55.38 55.38 0 0 0-6.01 2.15l-.182-.09c-1.279-1.405-2.514-2.947-3.521-4.489-.23-.771-1.14-.314-1.64-.403 1.098 1.995 2.561 3.763 4.024 5.575-1.229.73-2.456 1.552-3.732 2.145a32.982 32.982 0 0 1-7.22-7.657c-.547-.09-.911-.043-1.458.004 3.296 5.17 8.41 9.698 13.75 12.363 0 0 0-.045.045-.045s.137.092.047.137c3.603 1.762 7.436 3.023 11.492 3.558C60.147 84.35 73.482 78.272 81.2 66.353a7.77 7.77 0 0 0-1.46.003c-1.906 2.776-4.314 5.463-6.95 7.558-.093.137-.365.092-.457-.043-1.14-.724-2.373-1.312-3.468-2.035 1.453-1.775 2.86-3.552 3.95-5.507l-1.413.004c-1.136 1.683-2.315 3.458-3.815 4.961-2.008-.811-3.832-1.535-5.884-2.075l-.229-.18c.318-.91.906-1.775 1.087-2.683l-1.23.003-1.225 2.455c-2.69-.581-5.653-.893-8.387-1.066-.139-.409.043-1-.14-1.364l-1.186.004c-.089.546.14.953-.132 1.41-2.826.141-5.558.468-8.2 1.02l-1.238-2.406zM11.84 31.604l-2.826.053c-.04 2.409-.031 5.224.02 7.677 1.55.042 3.009-.008 4.512.125l.042 15.444-.046.635-4.51.103c-.085 2.543-.078 4.997.02 7.495l20.096-.053-.02-7.495c-1.503-.087-3.188.054-4.648-.124l.003-15.943.092-.137 4.512-.056c.038-2.59.076-5.36-.067-7.722l-17.18-.002zm77.432 2.523c-5.935-3.8-14.958-4.05-21.056-.581-3.322 1.735-5.5 5.148-6.175 8.647-1.214 5.771-.878 12.63 3.508 16.933 5.117 4.528 12.548 5.508 19.15 3.63.314-.063 1.309-.322 1.992-.694l.193-.084c2.048-.869 4.005-2.282 5.458-4.194 3.359-5.005 3.566-12.502 1.501-18.128-.826-2.177-2.516-4.127-4.571-5.529zm-38.648-1.353c-5.018-2.122-12.038-2.33-16.586.998-2.957 2.189-3.858 6.097-3.074 9.547.602 3.268 3.707 5.668 6.672 6.795 4.06 1.444 8.3 2.477 12.406 3.875.411.18.958.587.868 1.087.001.41-.408.638-.726.82-4.28 1.191-8.931.297-12.04-2.967-.366-.453-.595-.997-.96-1.45l-6.153.062c-.08 3.678-.115 7.903.032 11.537l6.836-.064.085-2.18c.776.36 1.552.813 2.328 1.22 4.743 1.985 10.852 2.424 15.539-.041 3.413-1.917 5.225-5.6 4.713-9.55-.511-3.86-4.167-7.349-7.859-8.292l-11.037-3.197-.821-.406c-.367-.317-.596-.725-.505-1.225.862-1.502 2.867-1.052 4.372-1.01 3.19.445 6.475 1.526 8.35 4.474 2.006-.006 4.33.034 6.517-.063.082-3.725-.063-6.995-.119-10.765-2.051-.04-4.558-.033-6.608.063-.088.545.096 1.317-.132 1.862l-2.098-1.13zm3.65-15.451c1.784 2.264 3.521 4.578 4.712 7.073a32.135 32.135 0 0 1-7.516.928c-.097-2.408-.059-5.088-.02-7.587.91-.138 1.913-.276 2.824-.414zm-4.282.373c.142 2.361.058 5.088.065 7.586-1.276.186-2.415-.04-3.692-.126-1.231-.18-2.781-.312-4.012-.717 1.315-2.502 2.858-4.913 4.72-7.143l2.919.4zm-4.423-.852l-.136.365c-1.725 2.185-3.086 4.55-4.448 6.87l-.182.045c-1.87-.493-3.694-1.08-5.428-1.846l.09-.274c2.5-2.413 5.14-4.42 8.05-5.972.684.272 1.37.497 2.054.812zm20.52 5.125l-.09.137c-1.776.776-3.597 1.508-5.555 1.921-1.42-2.403-2.975-4.806-4.712-7.118.635-.365 1.41-.64 2.093-1.005 2.965 1.492 5.843 3.619 8.264 6.065zm-23.943-6.795c-2.821 1.779-5.595 3.875-8.14 6.425-1.23-.451-2.373-1.13-3.468-1.898v-.092c2.864-2.142 6.051-3.74 9.42-4.838.136-.137.226-.274.409-.274l.001.09c.365.09.638-.32.957-.048.274.227.593.409.82.635zm28.722 4.239l-.092.183-3.138 1.778-.23.002c-2.42-2.447-5.252-4.575-8.126-6.247.09-.318.545-.546.863-.775 3.83.989 7.436 2.705 10.723 5.059zM58.32 13.904l.002.092c-3.958 2.917-10.382 3.207-14.583.537-.227-.18-.683-.27-.73-.589 4.827-1.148 10.524-1.253 15.311-.04zm-4.698-2.031c-1.231-.134-2.734-.175-4.057-.035-.5-.044-1.093.003-1.685.05-10.934.891-20.99 6.596-27.254 16.288.456-.047 1.003.133 1.458-.05a42.127 42.127 0 0 1 3.678-4.507c1.183-1.138 2.274-2.232 3.547-3.052 1.187.769 2.511 1.402 3.652 2.125-1.408 1.776-2.861 3.55-3.905 5.46.32.137.912.089 1.368-.003 1.134-1.683 2.36-3.367 3.814-4.87 1.962.722 3.878 1.488 5.885 2.029l.182.181-1.132 2.637c.501.09.82.043 1.32-.004.409-.773.727-1.636 1.18-2.41 2.645.584 5.426.896 8.252.979.364.317.093.998.23 1.407l1.231-.004c.136-.455-.048-.953.132-1.363 2.644-.144 5.423-.424 7.973-1.065l.229.045 1.236 2.358c.41-.002.958.088 1.276-.093l-1.146-2.632.09-.091c2.096-.55 4.052-1.374 6.055-2.197 1.417 1.495 2.744 3.263 3.933 4.986.5-.001 1.002.044 1.366-.095a17.642 17.642 0 0 0-1.966-2.854 19.81 19.81 0 0 0-2.012-2.449l-.001-.226 3.185-1.872.455-.182a33.479 33.479 0 0 1 7.22 7.565c.547 0 1.003.18 1.458-.048-6.13-9.25-16.216-15.174-27.11-16.008l-.045.091-.092-.091zM.246 94L.001.886 101.623.619l.245 93.114L.246 94z" mask="url(#b)"/>
        </g>
    </g>
</svg>
