<svg xmlns="http://www.w3.org/2000/svg" xmlns:xlink="http://www.w3.org/1999/xlink" width="160" height="53" viewBox="0 0 160 53">
    <defs>
        <path id="a" d="M.78.522h8.663V9H.78z"/>
        <path id="c" d="M.6.685h16.273v20.739H.6z"/>
        <path id="e" d="M.434.246H47v46.566H.434z"/>
    </defs>
    <g fill="none" fill-rule="evenodd">
        <path fill="#D22027" d="M7.736 40.334a2.754 2.754 0 0 1-1.565.465c-1.75.004-3.044-1.19-3.05-3.125-.005-1.935 1.374-3.137 2.941-3.141.553-.002 1.106.089 1.66.456l.005 1.75c-.278-.367-.74-.734-1.385-.732-.92.002-1.472.74-1.47 1.662.003.922.557 1.565 1.48 1.563.644-.002 1.104-.372 1.38-.65l.004 1.752zM8.55 34.71l3.503-.009.003 1.382-1.843.005.003.83 1.75-.005.004 1.29-1.751.004.002.922 1.843-.005.004 1.382-3.502.01zM14.455 37.367l.461-.001c.737-.002.828-.463.827-.647 0-.277-.093-.645-.83-.643l-.46.001.002 1.29zm-1.574-2.668l2.488-.007c1.66-.004 2.123 1.193 2.125 1.93.002.829-.456 1.936-2.114 1.941l-.83.002.005 1.935-1.658.004-.016-5.805zM19.244 36.064l-1.29.003-.004-1.382 4.239-.01.004 1.381-1.29.004.012 4.515-1.66.004-.011-4.515M24.585 34.668l.009 3.502 2.295-3.508 1.658-.004.016 5.897-1.567.004-.01-3.594-2.294 3.508-1.658.005-.016-5.898 1.567-.004zM33.533 38.515c.37-.001 1.29-.096 1.288-1.201-.003-1.014-.834-1.196-1.293-1.195l.005 2.396zm-1.48-2.392c-.368 0-1.29.096-1.287 1.2.003 1.015.833 1.197 1.294 1.196l-.008-2.396zm-.082 3.594c-1.015.003-2.767-.27-2.771-2.39-.006-2.026 1.744-2.4 2.758-2.402l-.002-.645 1.659-.004.002.645c1.013-.003 2.765.269 2.77 2.389.005 2.027-1.745 2.4-2.758 2.403l.002.829-1.659.004-.002-.83zM38.776 34.63l.009 3.503 2.295-3.508 1.658-.004.016 5.897-1.567.004-.01-3.594-2.294 3.508-1.658.005-.016-5.898 1.567-.004zM43.66 34.618l1.659-.004.012 4.515 1.935-.005-.012-4.515 1.659-.005.01 4.516.739-.002.006 2.58-1.382.003-.003-1.198-4.515.012zM51.77 34.596l.008 3.502 2.295-3.508 1.658-.004.016 5.897-1.567.004-.009-3.594-2.295 3.508-1.658.005-.016-5.898 1.567-.004zM58.503 37.251l.461-.001c.737-.002.828-.463.827-.647 0-.277-.093-.645-.83-.643l-.46.001.002 1.29zm-1.666-2.668l2.488-.007c1.66-.004 2.123 1.193 2.125 1.93.002.829-.456 1.936-2.115 1.941l-.829.002.005 1.935-1.658.004-.016-5.805zM66.613 37.506c-.003-1.106-.742-1.657-1.479-1.655-.737.002-1.473.557-1.47 1.663.003 1.106.742 1.657 1.479 1.655.829-.003 1.473-.557 1.47-1.663m-4.608.012c-.004-1.566 1.006-3.136 3.125-3.14 2.12-.007 3.138 1.557 3.142 3.124.004 1.566-1.006 3.135-3.125 3.141-2.12.006-3.137-1.558-3.142-3.125M71.225 39.245c.276-.001.921-.002.92-.647-.002-.553-.647-.552-.923-.551l-.737.002.003 1.198.737-.002zm-.098-2.396c.645-.001.736-.37.735-.555 0-.276-.185-.552-.738-.55h-.645l.002 1.107.646-.002zm.546-2.305c1.567-.004 1.754 1.009 1.755 1.47.002.645-.458 1.107-.918 1.2.37.09 1.291.458 1.294 1.47.002.83-.549 1.66-1.93 1.665l-3.042.008-.016-5.898 2.857-.007v.092zM76.383 38.125l1.382-.004-.651-2.21-.731 2.214zm-.286-3.593l2.027-.005 2.135 5.892-1.843.004-.371-1.012-2.027.005-.366 1.015-1.751.004 2.196-5.903zM80.888 34.52l1.66-.004.004 2.119 2.028-.005-.005-2.12 1.659-.004.015 5.898-1.658.004-.007-2.396-2.028.005.007 2.396-1.659.005zM87.247 34.503l1.659-.004.005 2.119 2.028-.005-.006-2.12 1.659-.004.015 5.898-1.658.004-.007-2.396-2.027.005.006 2.396-1.658.005zM98.036 37.423c-.003-1.106-.742-1.657-1.479-1.655-.737.002-1.473.557-1.47 1.663.003 1.106.742 1.657 1.48 1.655.736-.002 1.472-.557 1.47-1.663m-4.609.012c-.004-1.566 1.006-3.136 3.125-3.14 2.12-.007 3.138 1.557 3.142 3.124.004 1.566-1.006 3.135-3.125 3.141-2.12.006-3.137-1.558-3.142-3.125M100.24 34.469l3.502-.01.003 1.383-1.843.005.012 4.515-1.658.005zM108.541 37.396c-.003-1.106-.742-1.657-1.479-1.655-.737.002-1.473.557-1.47 1.663.003 1.106.742 1.657 1.48 1.655.736-.002 1.472-.557 1.47-1.663m-4.7.012c-.005-1.566 1.005-3.135 3.124-3.141 2.12-.006 3.137 1.558 3.142 3.125.004 1.566-1.006 3.136-3.125 3.14-2.12.007-3.138-1.557-3.142-3.124"/>
        <g transform="translate(2 43.315)">
            <mask id="b" fill="#fff">
                <use xlink:href="#a"/>
            </mask>
            <path fill="#D22027" d="M7.047 4.756c-.004-1.567-.928-2.301-2.033-2.298C4 2.46 2.988 3.2 2.992 4.767c.005 1.566.928 2.301 2.034 2.298 1.013-.003 2.025-.742 2.02-2.309m-6.265.017C.775 2.653 2.15.53 5.1.522 8.049.514 9.437 2.63 9.443 4.75 9.448 6.869 8.072 8.992 5.123 9 2.082 9.008.786 6.892.78 4.773" mask="url(#b)"/>
        </g>
        <path fill="#D22027" d="M21.585 50.434c.737-.002 1.105-.187 1.104-.832-.002-.645-.37-.83-1.108-.827l-.922.003.004 1.658.922-.002m-3.15-6.35l5.898-.016.005 1.936-3.686.009.003 1.198 1.198-.003c.645-.002 3.133-.008 3.14 2.388.006 2.488-2.574 2.495-3.127 2.496l-3.41.009-.02-8.017M34.377 44.042l1.575 3.313 1.282-3.321 2.396-.006-3.573 8.027-2.396.006 1.1-2.215-3.056-5.797zM51.254 48.881c-.83.094-1.013.095-1.474.096-2.673.007-2.86-1.375-2.864-2.665l-.006-2.304 2.212-.005.005 2.027c.002.645.003 1.198 1.2 1.195.185 0 .37 0 .83-.095l-.008-3.133 2.396-.006.02 8.017-2.211.006-.1-3.133zM61.377 43.97l4.792-.012.005 1.936-2.58.006.003 1.105L65.9 47l.005 1.752-2.304.006.004 1.29 2.58-.008.005 1.935-4.792.014zM74.094 43.937l2.212-.006.007 2.857 2.765-.007-.008-2.857 2.212-.006.021 8.017-2.212.006-.008-3.225-2.765.007.01 3.225-2.213.006zM91.05 43.892l.013 4.792 3.12-4.8 2.212-.006.02 8.017-2.12.006-.011-4.792-3.121 4.8-2.211.006-.021-8.017zM107.734 45.6l-.645.001c-.277 0-1.106.003-1.103.924.002.83.647.92 1.108.92l.645-.003-.005-1.843zm-2.111 3.23c-1.014-.182-1.846-1.009-1.85-2.299-.006-2.672 2.482-2.679 2.85-2.68l3.318-.009.02 8.017-2.211.006-.007-2.764h-.184l-1.652 2.77-2.395.005 2.11-3.046zM0 7.088l.011 4.147 4.147-.011.054 20.548 4.054-.01-.065-24.697z"/>
        <path fill="#D22027" d="M4.14 4.773l5.806-.015.164 26.999 4.054-.01L14.082.6 4.13.626zM70.439 20.54l.005 1.751-7.004.018-.004-1.75-29.95.078c-2.303.006-4.704-1.738-4.71-4.134-.008-2.949 1.737-5.257 4.686-5.265 2.949-.008 4.706 2.291 4.714 5.24l4.146-.01c-.014-5.253-4.171-9.389-8.871-9.377-4.976.013-8.744 4.078-8.731 8.87.013 4.884 3.893 8.744 8.777 8.731l76.024-.2-.011-4.147-39.071.195z"/>
        <path fill="#D22027" d="M22.325 16.52c-.016-5.898 4.024-11.714 11.12-11.732 7.003-.019 11.165 5.684 11.18 11.673l4.147-.01C48.75 7.603 42.28.617 33.433.64c-8.754.023-15.277 7.504-15.255 15.89.022 8.386 6.95 14.726 15.336 14.704l75.932-.2-.01-4.147-75.933.2c-6.358.017-11.164-5.315-11.178-10.568"/>
        <g transform="translate(52 -.685)">
            <mask id="d" fill="#fff">
                <use xlink:href="#c"/>
            </mask>
            <path fill="#D22027" d="M.6.723L5.115.71l.037 13.73 5.252-.013L10.368.697l4.515-.012.036 13.73 1.936-.004.018 7.003-3.87.01-.01-3.225-12.347.033z" mask="url(#d)"/>
        </g>
        <path fill="#D22027" d="M70.493 5.98l6.91-.018.008 2.764-3.686.01.005 1.66 3.316-.01.007 2.488-3.317.01.004 1.842 3.687-.01.007 2.765-6.912.018zM79.247 5.957l3.225-.008.01 4.146 3.964-.01-.011-4.147 3.225-.008.03 11.518-3.225.01-.012-4.609-3.963.011.013 4.607-3.226.01zM93.63 8.684l-2.58.007-.007-2.765 8.292-.022.008 2.765-2.58.007.022 8.754-3.224.009-.024-8.755zM104.049 11.052l.922-.002c1.474-.004 1.564-.834 1.562-1.387-.001-.553-.187-1.289-1.57-1.286l-.921.003.007 2.672zm-3.24-5.152l4.885-.013c3.318-.009 4.245 2.293 4.249 3.86.004 1.566-.911 3.872-4.228 3.881l-1.66.004.01 3.778-3.225.01-.03-11.52zM148.162 36.001c-.185-.092-.369-.09-.553-.183l.004 1.567.002 1.013.004 1.014.006 2.304.552-.462.918-.74 1.293 1.102-.005-2.21-.002-1.015-.004-1.014-.004-1.474c-.367.185-.827.28-1.288.28-.37.001-.645-.09-.923-.182M148.981 31.944c-.369.001-.645.094-.828.371-.276.185-.368.554-.367.922.001.37.186.645.371.921.185.184.554.275.831.274.276 0 .644-.094.828-.279.276-.185.46-.554.458-.922a1.259 1.259 0 0 0-1.293-1.287M144.117 39.422l1.935-.005.003 1.014-1.935.005zM124.843 34.035l-2.764.007-.002-.645 2.764-.007-.003-1.198-2.764.007-.002-.645 2.764-.007-.003-1.198-2.764.007-.002-.645 2.765-.007-.004-1.198-2.764.007-.002-.645 2.765-.007-.003-1.198-2.765.007-.002-.645 2.765-.007-.02-7.464-4.423.011.067 25.342 12.532-.033-.003-1.383-8.11.022zM135.371 42.67c-.276 0-.553-.091-.83-.09h-.552l.003 1.292.003 1.013.002 1.014.006 2.304L135.475 47l1.293 1.102-.006-2.211-.003-1.014-.003-1.014-.003-1.29h-.46c-.369.002-.646.095-.922.096M140.707 39.43l-.276.001.002 1.013.003 1.014.003 1.014.006 2.303.275-.277 1.012-.832.184-.092 1.201 1.102-.006-2.21-.003-1.015-.002-1.014-.003-1.013-1.382.003zM137.674 42.48l1.751-.006.003 1.29-1.75.005z"/>
        <path fill="#D22027" d="M150.461 34.06c-.092.185-.275.369-.459.554-.276.185-.645.278-1.013.279-.277.001-.646-.09-.83-.274l-.093-.092a.945.945 0 0 1-.462-.552 1.556 1.556 0 0 1-.279-.92 1.644 1.644 0 0 1 .918-1.477c.276-.185.552-.278.828-.279a1.75 1.75 0 0 1 1.756 1.746c-.09.461-.182.83-.366 1.015m-1.482-2.853a2.201 2.201 0 0 0-.829.187c-.46.277-.827.739-1.01 1.292 0 .185-.09.369-.09.461 0 .185 0 .369.092.461.001.184.093.276.186.46s.277.368.37.552c.092.092.277.276.461.275.185.092.462.184.646.183h.184l.185-.001c.46-.001.828-.186 1.104-.556.184-.185.276-.277.367-.554.184-.277.275-.553.274-.922.09-.922-.834-1.841-1.94-1.838"/>
        <path fill="#D22027" d="M135.698 27.003l3.963-.103 1.013-.002 1.014-.003 3.04-.008 1.383-.004 1.014-.002 1.013-.003 3.779-.01.001.645-3.778.01-1.013.003-1.014.002-4.423.012-1.013.003-1.014.002-3.964.011v-.553zm-.005-1.843l3.962-.103 1.014-.002 1.014-.003 3.042-.008 1.382-.004 1.013-.002 1.013-.003 3.778-.01.002.645-3.778.01-1.013.003-1.014.002-4.423.012-1.013.003-1.014.002-3.962.011-.002-.553zm-.005-1.843l3.964-.103 1.013-.002 1.014-.003 3.04-.008 1.382-.004 1.014-.002 1.013-.003 3.78-.01v.645l-3.777.01-1.014.003-1.013.002-4.424.012-1.013.003-1.014.002-3.963.011-.001-.553zm-.004-1.935l3.963-.01 1.013-.003 1.013-.003 4.423-.012 1.014-.002 1.013-.003 3.78-.01v.645l-3.778.01-1.012.003-1.014.002-4.423.012-1.014.003-1.014.002-3.963.011-.001-.645zm-.005-1.843l3.963-.01 1.013-.003 1.013-.003 4.423-.012 1.014-.002 1.014-.003 3.779-.01.001.645-3.779.01-1.013.003-1.013.002-4.423.012-1.014.003-1.014.002-3.963.011-.001-.645zm10.31-4.266l.002 1.013-3.502.01-.002-1.014 3.501-.009zm-5.901-1.183v-.276l7.924-.02.276-.002.004 1.014-.278.001-1.014.002-6.91.02-.002-.739zm-3.718 23.324l.922-.002 1.751-.005H139.69l.553-.003h.553l.46-.003h.46l.737-.003h.462l.369-.002h.276l.553-.002h.091l.462-.002 1.567-.004h.46l-.007-2.397c-.276-.368-.37-.736-.464-1.104-.091-.184-.093-.46-.094-.645 0-.185 0-.46.091-.646.184-.645.55-1.199 1.01-1.66a2.199 2.199 0 0 1 1.011-.556c.278-.093.553-.186.83-.187 1.659-.004 2.953 1.375 2.957 2.941.001.737-.274 1.291-.64 1.845l.006 2.304 1.935-.006-.067-25.249-19.167.051.002 1.013.002 1.014.004 1.014.004 1.29v.461l.002.553v.46l.002.553.004 1.751.004 1.014.004 1.29v.645l.004 1.198.001.645.002.83.002.368v.368l.001.37.002.828.001.37.002.368v.368l.002.83.001.368.001.37.002.367.002.83.001.645.004 1.198.001.645.008 2.95.002.46h.276l1.935-.007v-.092z"/>
        <path fill="#D22027" d="M132.03 34.016l-.001-.645-.003-1.198-.002-.645-.002-.829-3.501.01-.001-.37-.001-.368 3.5-.01v-.276l-.002-.829-3.501.01-.001-.37-.001-.368 3.5-.01v-.276l-.001-.829-3.502.01-.001-.37-.001-.368 3.502-.01-.001-.276-.002-.829-3.502.01-.002-.738 3.502-.01-.003-1.105-3.502.01-.002-.738h.369l3.133-.01-.003-.92v-.37l-.003-1.013-.005-1.75-.002-1.015-.003-1.014-.004-1.382-5.16.014.003 1.382.003 1.014.003 1.013.004 1.751.003 1.014.012 4.7.002.645.003 1.198.002.645.003 1.198.002.645.003 1.198.002.645.003 1.198.002.645.017 6.45 5.62-.015h.554l.553-.003h.46l.369-.002 1.843-.005h.645l.184-.002h.553l.553-.003 1.198-.003-.003-1.014-1.105.003-.461.002-.553.001-.184.001h-.277l-.276.001-2.396.006-.277.001-.276.001h-.184l-.553.002-.461.001-.37.001z"/>
        <g transform="translate(113 5.315)">
            <mask id="f" fill="#fff">
                <use xlink:href="#e"/>
            </mask>
            <path fill="#D22027" d="M42.36 34.077l-3.963.01.011 4.424L36.1 36.49l-2.39 2.034-.004-1.382-2.488.006.011 4.424-2.309-2.022-.184.093.003.921-1.014.003-1.287 1.11-.003-1.106-1.75.004.011 4.423-2.309-2.02-2.39 2.033-.013-4.424-14.559.04-.078-29.397 6.451-.017-.009-3.317 7.188-.019-.008-3.04 23.314-.063.077 29.304zM.433.368l.122 46.444L47 46.69 46.877.246.434.368z" mask="url(#f)"/>
        </g>
    </g>
</svg>
