<svg xmlns="http://www.w3.org/2000/svg" xmlns:xlink="http://www.w3.org/1999/xlink" width="100" height="60" viewBox="0 0 100 60">
    <defs>
        <path id="a" d="M.919.147h5.749V8H.919z"/>
    </defs>
    <g fill="none" fill-rule="evenodd">
        <path fill="#D61920" d="M0 9.317l.016 5.91 6.749-.018.082 31.009 5.909-.016-.097-36.918L0 9.317zm21.978 36.86l-6.146.017-.105-39.991-8.986.023L6.725.078l15.132-.04.121 46.14zm30.731-15.751c-.442 0-2.766-.01-3.197-.047-.726-.06-1.78-.164-2.458-.32-.765-.203-1.483-.47-1.809-.646a7.266 7.266 0 0 1-3.83-6.384 7.277 7.277 0 0 1 7.26-7.297c3.939-.01 7.148 3.115 7.286 7.024l5.867-.016c-.142-7.15-5.986-12.897-13.169-12.878-7.263.019-13.135 5.924-13.116 13.183.014 5.122 2.959 9.54 7.241 11.695.657.385 1.897.787 2.251.876 1.206.317 2.829.527 4.143.623.49.038 2.87.049 3.372.05v.007l46.773-.123-.016-5.87-46.598.123zm-3.521 9.558c-1.827-.116-3.94-.427-5.603-.908a27.632 27.632 0 0 1-1.932-.708c-5.798-2.67-9.848-8.52-9.866-15.313-.025-9.321 7.538-16.927 16.862-16.951 9.241-.025 16.791 7.414 16.943 16.626l6.106-.016C71.538 10.136 61.242-.033 48.633 0 35.946.034 25.65 10.384 25.684 23.07c.023 8.75 4.96 16.347 12.174 20.219 1.303.685 3.172 1.389 3.805 1.578 2.057.61 4.574 1.007 6.82 1.174.762.055 3.42.078 4.198.079l46.668-.122-.016-6.09-46.599.124c-.559 0-2.999-.01-3.546-.048zM83.77 7.683c-1.83.005-3.408-1.428-3.413-3.389-.005-1.862 1.566-3.34 3.396-3.345 1.83-.005 3.402 1.465 3.407 3.327.005 1.961-1.56 3.402-3.39 3.407m-.018-7.38c-2.215.006-4.044 1.776-4.038 3.993.006 2.215 1.844 4.045 4.059 4.04a4.034 4.034 0 0 0 4.037-4.062C87.804 2.058 86.034.297 83.752.303"/>
        <path fill="#D61920" d="M83.953 4.06l-.868.003-.003-1.252.74-.002c.515-.002.867.158.869.64 0 .254-.125.61-.738.612m1.353 1.313c-.001-.45-.065-.866-.58-1.025.64-.228.703-.648.703-.902-.003-1.03-.936-1.156-1.32-1.155l-1.767.005.01 3.984.739-.002-.004-1.64.578-.001c.835-.002.903.384.904.738.002.676.002.805.162.899l.738-.002c-.161-.16-.097-.287-.163-.9M7.976 53.486l-1.123.003-.004-1.708 3.022-.008.019 7.428-1.9.005z"/>
        <g transform="translate(10 51.4)">
            <mask id="b" fill="#fff">
                <use xlink:href="#a"/>
            </mask>
            <path fill="#D61920" d="M6.668 7.443c-.66.458-1.352.555-1.982.557C2.503 8.006.925 6.461.919 4.084.912 1.601 2.64.153 4.634.147 5.284.146 6.03.314 6.65.736l.006 2.155c-.379-.444-.958-.89-1.745-.887-1.133.002-1.876.917-1.873 2.138.003 1.125.709 2.004 1.884 2.001.766-.003 1.363-.418 1.74-.811l.006 2.111z" mask="url(#b)"/>
        </g>
        <path fill="#D61920" d="M18.604 57.204a1.08 1.08 0 0 1 1.073 1.08 1.082 1.082 0 0 1-1.067 1.085 1.083 1.083 0 0 1-.006-2.165m-.01-3.342a1.08 1.08 0 0 1 1.074 1.078 1.08 1.08 0 0 1-1.067 1.086 1.082 1.082 0 0 1-.006-2.164M25.737 56.634c.514.009 1.552-.174 1.55-1.49-.004-1.316-1.044-1.493-1.558-1.481l.008 2.97zm-1.77-2.966c-.515-.01-1.553.173-1.55 1.488.004 1.317 1.043 1.494 1.557 1.483l-.008-2.971zm-.136 4.456c-1.259.015-3.464-.351-3.47-2.962-.008-2.578 2.195-3.02 3.454-2.98l-.002-.817 2.057-.005.002.817c1.26-.046 3.464.384 3.471 2.96.007 2.612-2.196 2.99-3.455 2.982l.003 1.04-2.057.006-.003-1.041zM32.093 55.057l.587-.002c.913-.002 1.006-.543 1.005-.862-.001-.37-.127-.848-1.009-.846l-.588.002.005 1.708zm-2.066-3.337l3.096-.008c2.088-.005 2.68 1.457 2.683 2.476.002 1.029-.592 2.496-2.67 2.5l-1.039.004.007 2.45-2.057.007-.02-7.43zM38.224 56.208l1.68-.004-.848-2.736-.831 2.74zm-.421-4.508l2.498-.007 2.631 7.422-2.203.005-.413-1.284-2.498.007-.404 1.286-2.205.006 2.593-7.435zM43.459 51.685l2.056-.005.008 2.674 2.496-.007-.006-2.674 2.056-.005.02 7.428-2.056.005-.008-2.972-2.497.006.008 2.973-2.058.005zM54.836 56.185c-.756.108-.913.11-1.375.11-2.487.007-2.595-1.246-2.598-2.477l-.006-2.153 2.057-.006.005 1.857c.002.573-.008 1.115 1.136 1.112.168 0 .378-.033.777-.077l-.008-2.897 2.056-.005.02 7.428-2.056.006-.008-2.898zM60.408 56.15l1.68-.004-.848-2.736-.832 2.74zm-.422-4.508l2.498-.007 2.633 7.422-2.204.005-.413-1.284-2.497.007-.406 1.286-2.204.006 2.593-7.435zM71.159 50.02c-.397.871-1.33 1.191-2.2 1.193-.872.003-1.806-.313-2.208-1.18l1.175-.45c.19.508.652.624 1.03.623.377 0 .839-.12 1.026-.629l1.177.443zm-3.637 1.601l.01 4.456 2.834-4.463 2.014-.006.02 7.43-1.983.004-.012-4.457-2.832 4.464-2.015.006-.02-7.429 1.984-.005zM73.283 52.083c.356-.202 1.247-.693 2.475-.696 1.647-.004 2.825.852 2.828 2.093a1.763 1.763 0 0 1-1.203 1.68v.033c.6.19 1.366.643 1.37 1.768.003 1.41-1.285 2.274-2.943 2.279-1.039.002-1.71-.197-2.889-1.096l.847-1.382c.525.497 1.23.846 1.786.844.881-.002 1.08-.512 1.078-.82 0-.435-.306-.773-1.187-.771l-1.166.003-.003-1.485 1.165-.003c.933-.003 1.09-.44 1.09-.768-.002-.466-.423-.742-1.053-.74-.598.002-1.027.215-1.478.514l-.717-1.453zM81.52 51.584l.011 4.456 2.833-4.463 2.014-.006.02 7.43-1.983.004-.012-4.457-2.832 4.464-2.015.006-.02-7.429zM87.208 51.57l2.057-.006.007 2.674 2.497-.007-.007-2.674 2.057-.005.02 7.428-2.057.005-.008-2.972-2.497.006.008 2.973-2.057.005zM94.857 51.55l4.407-.013.005 1.783-2.35.007.015 5.645-2.057.005z"/>
    </g>
</svg>
