<svg xmlns="http://www.w3.org/2000/svg" xmlns:xlink="http://www.w3.org/1999/xlink" width="150" height="53" viewBox="0 0 150 53">
    <defs>
        <path id="a" d="M.798.91h7.744v8.777H.798z"/>
    </defs>
    <g fill="none" fill-rule="evenodd">
        <path fill="#D61920" d="M10.222 42.168l.02 7.286-3.519.01-.019-7.287-1.68.004.022 8.757 6.355-.016.005 1.97 1.576-.005-.009-3.44-1.05.003-.02-7.287zM19.589 43.614l-3.178.008.005 1.957 3.047-.008.004 1.47-3.047.008.006 2.389 3.178-.008.004 1.47-4.86.014-.022-8.757 4.859-.013zM23.571 45.52l3.756-.01-.009-3.387 1.68-.004.024 8.757-1.68.004-.01-3.899-3.757.01.01 3.899-1.68.005-.024-8.757 1.681-.005zM34.373 43.575l.019 7.287-1.68.004-.02-7.287-1.97.006-.004-1.471 5.621-.014.004 1.47zM39.776 46.134l.704-.002c.169 0 .352-.012.55-.034.2-.022.393-.104.578-.244a1.15 1.15 0 0 0 .357-.461c.08-.184.119-.373.119-.565a1.142 1.142 0 0 0-.154-.61 1.498 1.498 0 0 0-.34-.387 1.374 1.374 0 0 0-.592-.228 4.61 4.61 0 0 0-.631-.044l-.598.002.007 2.573zm.857-4.046c.49-.001.916.038 1.28.121.363.083.708.263 1.032.542a2.546 2.546 0 0 1 .719 1.055c.066.188.112.372.139.551.027.18.04.348.04.506 0 .087-.006.206-.02.354a2.92 2.92 0 0 1-.09.499c-.048.185-.12.373-.217.566a2.119 2.119 0 0 1-.394.54 2.547 2.547 0 0 1-.917.573c-.365.136-.803.205-1.315.206l-1.11.003.008 3.244-1.68.004-.023-8.757 2.548-.007zM51.132 45.763l3.207-3.711 2.154-.005L52.8 46.1l3.912 4.704-2.258.005-3.123-3.917-.197.198.01 3.728-1.68.005-.024-8.758 1.68-.004zM62.435 49.436c.429-.001.82-.077 1.174-.226a2.744 2.744 0 0 0 1.519-1.58c.144-.368.215-.775.214-1.222a3.275 3.275 0 0 0-.221-1.22 2.903 2.903 0 0 0-.606-.957 2.69 2.69 0 0 0-.921-.628 3 3 0 0 0-1.175-.22c-.43.002-.82.077-1.175.226a2.69 2.69 0 0 0-.917.633 2.927 2.927 0 0 0-.602.96 3.328 3.328 0 0 0-.213 1.22c0 .448.074.855.22 1.223a2.743 2.743 0 0 0 1.527 1.571c.355.147.746.22 1.176.22m-.02-7.602a5.102 5.102 0 0 1 1.898.336 4.375 4.375 0 0 1 1.48.947c.412.407.733.889.962 1.449.229.56.344 1.172.346 1.837a4.811 4.811 0 0 1-.337 1.839 4.183 4.183 0 0 1-.954 1.447c-.411.404-.902.72-1.475.95a5.086 5.086 0 0 1-1.896.346 5.095 5.095 0 0 1-1.898-.336 4.405 4.405 0 0 1-1.48-.942 4.181 4.181 0 0 1-.962-1.442 4.823 4.823 0 0 1-.347-1.837 4.818 4.818 0 0 1 .337-1.84 4.281 4.281 0 0 1 .955-1.453c.41-.408.9-.726 1.475-.955a5.098 5.098 0 0 1 1.896-.346M70.49 42.01l1.234-.003 2.338 5.56 2.416-5.574 1.233-.003 1.494 8.753-1.733.005-.802-5.393-2.336 5.402-.578.002-2.26-5.39-.878 5.398-1.734.005zM88.307 41.963l.023 8.757-1.68.005-.02-7.287-3.572.009.02 7.287-1.68.004-.024-8.757zM95.809 43.413l-3.178.008.005 1.957 3.047-.008.004 1.47-3.047.008.006 2.39 3.178-.009.004 1.471-4.86.013-.022-8.757 4.859-.013zM101.113 43.4l.02 7.286-1.682.004-.019-7.287-1.97.006-.004-1.47 5.62-.015.004 1.47zM109.687 43.377l-3.178.008.005 1.956 3.047-.008.004 1.47-3.047.009.006 2.389 3.178-.008.004 1.47-4.859.014-.023-8.758 4.86-.012zM113.67 45.283l3.756-.01-.01-3.387 1.682-.004.023 8.757-1.681.004-.01-3.9-3.756.01.01 3.9-1.68.005-.023-8.757 1.68-.005zM121.736 41.875l1.681-.004.019 7.286 3.519-.01-.019-7.286 1.68-.004.02 7.286 1.051-.003.009 3.44-1.576.005-.005-1.97-6.356.017zM133.12 41.845l.014 5.829 4.836-5.842 1.19-.003.022 8.757-1.68.005-.016-5.856-4.835 5.869-1.19.003-.023-8.758z"/>
        <g transform="translate(141 40.892)">
            <mask id="b" fill="#fff">
                <use xlink:href="#a"/>
            </mask>
            <path fill="#D61920" d="M2.48.925l.014 5.83L7.33.911 8.52.91l.022 8.757-1.68.005-.016-5.856-4.835 5.87-1.19.002L.798.93z" mask="url(#b)"/>
        </g>
        <path fill="#D61920" d="M61.364 20.536L61.312.655 67.048.64l.022 8.325L73.221.624l6.736-.018-7.76 9.65 8.017 10.23-7.156.019-5.98-8.57.023 8.586zM94.048 16.25c1.425-.004 2.628-.505 3.61-1.503.984-.995 1.473-2.414 1.468-4.247-.005-1.82-.502-3.232-1.49-4.23-.987-1.004-2.194-1.502-3.618-1.499-1.445.004-2.653.51-3.626 1.517-.973 1.005-1.456 2.418-1.451 4.24.005 1.832.495 3.248 1.473 4.238.978.993 2.189 1.488 3.634 1.484m.013 4.77c-3.201.008-5.837-.927-7.911-2.802-2.072-1.884-3.114-4.439-3.123-7.676-.008-3.222 1.02-5.778 3.082-7.68C88.173.963 90.805.007 94.005 0c3.18-.009 5.807.934 7.88 2.82 2.073 1.892 3.125 4.442 3.153 7.665.008 3.236-1.023 5.797-3.097 7.692-2.073 1.886-4.7 2.835-7.88 2.843M115.65 4.886l.012 4.574 1.638-.004c.917.015 1.614-.168 2.09-.562.478-.388.714-.968.712-1.745-.002-.801-.245-1.374-.734-1.734-.49-.358-1.182-.536-2.08-.533l-1.638.004zm-5.696 15.522L109.902.527l8.633-.023c2.36-.006 4.196.618 5.507 1.875 1.312 1.254 1.97 2.839 1.975 4.755.005 1.95-.645 3.55-1.949 4.8-1.305 1.258-3.139 1.886-5.498 1.893l-2.896.007.017 6.559-5.737.015zM130.77.472l18.264-.048.052 19.88-5.735.016-.04-15.108-6.793.018.04 15.108-5.737.015z"/>
        <path fill="#D61920" d="M149.454 31.804l-108.103.285c-.443 0-2.379-.012-2.813-.04-1.45-.092-3.127-.343-4.447-.721a24.21 24.21 0 0 1-1.533-.563c-4.6-2.115-7.814-6.753-7.828-12.143-.02-7.397 5.98-13.435 13.382-13.454 7.33-.02 13.322 5.886 13.443 13.197l4.845-.013C56.274 8.37 48.104.302 38.1.329 28.03.355 19.857 8.566 19.883 18.635c.018 6.939 3.938 12.968 9.664 16.038 1.033.54 2.515 1.097 3.02 1.25 1.628.483 3.628.798 5.41.927.605.049 2.714.067 3.331.065l108.158-.285-.013-4.826z"/>
        <path fill="#D61920" d="M41.332 24.468c-.351 0-2.195-.008-2.536-.036-.576-.047-1.411-.133-1.951-.255-.607-.16-1.177-.374-1.435-.514a5.766 5.766 0 0 1-3.041-5.061 5.777 5.777 0 0 1 5.764-5.794c3.125-.01 5.67 2.473 5.779 5.577l4.658-.013c-.115-5.674-4.753-10.235-10.45-10.22-5.765.015-10.425 4.697-10.41 10.462.01 4.06 2.347 7.565 5.746 9.275.523.305 1.505.623 1.787.696.957.249 2.244.415 3.288.49.387.027 2.275.04 2.675.044v.005l108.237-.285-.012-4.656-108.1.285zM11.81 36.992l4.87-.012L16.584.386 4.878.416 4.89 5.29l6.832-.018z"/>
        <path fill="#D61920" d="M9.7 36.998L9.62 7.938l-9.62.025.012 4.872 4.847-.012.064 24.188z"/>
    </g>
</svg>
