<svg xmlns="http://www.w3.org/2000/svg" xmlns:xlink="http://www.w3.org/1999/xlink" width="156" height="30" viewBox="0 0 156 30">
    <defs>
        <path id="a" d="M0 .422h7.867V24H0z"/>
        <path id="c" d="M.362.98h13.16v16.965H.363z"/>
    </defs>
    <g fill="none" fill-rule="evenodd">
        <path fill="#D61920" d="M155.99 25.707l-122.314.322c-.358 0-1.93-.01-2.28-.031-1.176-.076-2.536-.28-3.607-.585-.2-.06-1.03-.362-1.243-.46-3.73-1.716-6.336-5.476-6.348-9.847-.016-6 4.849-10.894 10.852-10.91 5.945-.016 10.803 4.772 10.902 10.7l3.93-.01C45.778 6.79 39.152.249 31.04.27c-8.166.022-14.793 6.68-14.772 14.846.015 5.628 3.193 10.517 7.838 13.006.836.44 2.038.893 2.447 1.016 1.322.39 2.943.646 4.388.753.49.036 2.2.05 2.7.05L156 29.62l-.01-3.913z"/>
        <path fill="#D61920" d="M58.813 19.778l-25.154.066c-.283.001-1.778-.005-2.055-.027-.467-.039-1.145-.107-1.583-.206-.493-.132-.954-.305-1.163-.416a4.676 4.676 0 0 1-2.467-4.106 4.685 4.685 0 0 1 4.675-4.697 4.681 4.681 0 0 1 4.688 4.52l3.775-.01c-.092-4.603-3.853-8.299-8.473-8.287-4.675.012-8.456 3.81-8.443 8.484a8.436 8.436 0 0 0 4.661 7.522c.423.248 1.22.503 1.447.562.777.204 1.822.341 2.668.4.312.023 1.845.033 2.17.034v.007l122.42-.322-.01-3.78-90.177.238.006 2.141-6.979.018-.006-2.14zM9.578 30.005l3.95-.01L13.45.316 3.957.341l.01 3.953 5.54-.014z"/>
        <g transform="translate(0 6.02)">
            <mask id="b" fill="#fff">
                <use xlink:href="#a"/>
            </mask>
            <path fill="#D61920" d="M7.867 23.99L7.803.422 0 .442l.01 3.953 3.933-.01L3.994 24z" mask="url(#b)"/>
        </g>
        <path fill="#D61920" d="M60.443 20.33l3.717-.01-.018-6.814-1.857.004L62.25.227l-4.337.011.035 13.284-5.11.013L52.801.252l-4.336.011.045 16.998 11.924-.03zM72.474 14.51l-3.586.008-.005-1.792 3.251-.009-.007-2.464-3.25.008-.004-1.569 3.586-.009-.007-2.688-6.722.018.03 11.203 6.721-.018zM77.37 12.704l3.81-.01.011 4.482 3.138-.008-.03-11.204-3.138.009.011 4.033-3.81.01-.01-4.033-3.136.008.03 11.203 3.136-.008zM88.237 17.157l3.14-.008-.024-8.516 2.464-.006-.007-2.688-8.066.021.007 2.688 2.464-.006zM98.32 8.391l.895-.002c1.344-.004 1.54.718 1.54 1.276.001.481-.142 1.297-1.533 1.301l-.896.002-.007-2.577zm.012 5.044l1.585-.004c3.17-.008 4.076-2.223 4.072-3.775-.004-1.535-.908-3.742-4.092-3.734l-4.722.013.03 11.203 3.137-.008-.01-3.695zM111.391 12.298l-4.761.013-.006-2.16 4.761-.011z"/>
        <g transform="translate(141 -.98)">
            <mask id="d" fill="#fff">
                <use xlink:href="#c"/>
            </mask>
            <path fill="#D61920" d="M4.673 8.924l1.723-.005c2.47-.007 2.739-1.602 2.737-2.354-.003-.879-.357-2.318-2.75-2.31l-1.722.003.012 4.666zM.362.999l7.09-.02c4.626.049 6.065 3.17 6.07 5.574.007 2.433-1.433 5.583-6.041 5.595l-2.82.008.015 5.778-4.27.011L.363.998z" mask="url(#d)"/>
        </g>
        <path fill="#D61920" d="M123.86 13.43l-5.595.032-.017-3.27 5.115-.014-.01-3.49-5.134.014-.017-3.001 5.633-.012-.01-3.584-9.894.026.044 16.927 9.895-.045zM130.769 3.3l1.52-.005c2.068.072 2.619 1.367 2.622 2.345.002 1.028-.524 2.352-2.61 2.339l-1.52.003-.012-4.683zm.016 13.694l-.017-6.563 4.252 6.552 5.145-.014-4.85-6.843c1.839-.573 3.874-1.835 3.865-5.145-.002-.784-.176-4.712-5.374-4.923l-7.335.02.044 16.928 4.27-.012z"/>
    </g>
</svg>
