<svg xmlns="http://www.w3.org/2000/svg" xmlns:xlink="http://www.w3.org/1999/xlink" width="114" height="75" viewBox="0 0 114 75">
    <defs>
        <path id="a" d="M.675.915h17.768v17.481H.675z"/>
        <path id="c" d="M.453.384h29.274v19.648H.453z"/>
    </defs>
    <g fill="none" fill-rule="evenodd">
        <path fill="#D61920" d="M7 2v6.9h9.908l.07 45.1H24V2z"/>
        <path fill="#D61920" d="M0 12v6.856h7.033V53H14l-.069-41zM113.584 45.391H54.672c-10.906 0-18.851-8.952-18.851-17.871 0-9.891 6.933-19.753 18.851-19.82 11.851-.034 18.754 9.69 18.853 19.82h6.936C80.461 12.647 69.553.768 54.672.768c-14.88 0-25.819 12.586-25.819 26.752 0 14.134 11.748 24.836 25.819 24.836H113.584v-6.965z"/>
        <path fill="#D61920" d="M113.584 34.454H54.672c-3.97 0-7.978-2.963-7.978-6.934 0-4.947 2.997-8.915 7.978-8.915 4.948 0 7.91 3.968 7.91 8.915 0 0 6.97.036 6.97 0 0-8.915-6.97-15.881-15.048-15.881-8.314 0-14.812 6.862-14.745 15.007.032 8.182 6.596 14.778 14.811 14.778h59.014v-6.97zM15.098 61.936l-1.805 6.094h3.61l-1.805-6.094zM6.402 74.527l5.884-16.535h5.624l5.883 16.535h-4.965l-.847-2.86h-5.767l-.847 2.86H6.402zM29.747 61.629v3.804h1.324c.74.015 1.302-.138 1.69-.462.387-.322.58-.806.58-1.452 0-.663-.198-1.142-.593-1.442-.393-.3-.954-.448-1.677-.448h-1.324zm-4.63 12.898V57.992h6.97c1.907 0 3.388.522 4.441 1.57 1.056 1.046 1.586 2.365 1.586 3.957 0 1.622-.53 2.952-1.586 3.99-1.053 1.042-2.534 1.56-4.44 1.56h-2.34v5.458h-4.631zM44.895 61.629v3.804h1.323c.74.015 1.303-.138 1.69-.462.387-.322.58-.806.58-1.452 0-.663-.197-1.142-.59-1.442-.396-.3-.956-.448-1.68-.448h-1.323zm-4.63 12.898V57.992h6.97c1.907 0 3.387.522 4.442 1.57 1.056 1.046 1.584 2.365 1.584 3.957 0 1.622-.528 2.952-1.584 3.99-1.055 1.042-2.535 1.56-4.442 1.56h-2.34v5.458h-4.63zM53.543 72.54c-.017-.642.216-1.202.697-1.675a2.442 2.442 0 0 1 1.714-.731c.646 0 1.209.237 1.689.719.481.48.722 1.045.722 1.688 0 .663-.24 1.23-.722 1.702-.48.471-1.043.708-1.689.708a2.324 2.324 0 0 1-1.701-.708 2.319 2.319 0 0 1-.71-1.702M73.037 69.07v4.7a6.841 6.841 0 0 1-2.02.934c-.716.197-1.531.296-2.446.296-2.487 0-4.52-.8-6.095-2.399-1.576-1.599-2.363-3.713-2.363-6.343 0-2.66.807-4.783 2.42-6.366 1.616-1.582 3.605-2.374 5.967-2.374.868 0 1.686.119 2.458.355a7.843 7.843 0 0 1 2.08.968v4.794a6.286 6.286 0 0 0-1.831-1.463 4.49 4.49 0 0 0-2.092-.52c-1.26 0-2.285.45-3.07 1.345-.79.9-1.176 2.032-1.16 3.403-.016 1.292.362 2.358 1.134 3.2.771.843 1.805 1.265 3.096 1.265a4.82 4.82 0 0 0 2.055-.46c.663-.307 1.284-.753 1.867-1.336"/>
        <g transform="translate(73.948 56.604)">
            <mask id="b" fill="#fff">
                <use xlink:href="#a"/>
            </mask>
            <path fill="#D61920" d="M9.559 14.427c1.15 0 2.122-.414 2.916-1.24.797-.827 1.195-2.003 1.195-3.533 0-1.51-.398-2.684-1.195-3.518-.794-.836-1.767-1.252-2.916-1.252-1.168 0-2.143.416-2.932 1.252-.788.834-1.182 2.008-1.182 3.518 0 1.53.394 2.706 1.182 3.534.789.825 1.764 1.24 2.932 1.24m0 3.969c-2.585 0-4.711-.784-6.382-2.352C1.508 14.477.675 12.347.675 9.655c0-2.677.833-4.805 2.502-6.379C4.847 1.703 6.974.915 9.56.915c2.566 0 4.685.788 6.356 2.361 1.67 1.574 2.513 3.702 2.528 6.378 0 2.693-.84 4.823-2.518 6.39-1.676 1.569-3.8 2.353-6.366 2.353" mask="url(#b)"/>
        </g>
        <path fill="#D61920" d="M93.004 74.527l2.41-16.535h4.638l2.9 10.085 2.925-10.085h4.615l2.41 16.535h-4.441l-1.23-9.591-2.79 9.591h-2.978l-2.787-9.591-1.229 9.591z"/>
        <g transform="translate(83.857 7.075)">
            <mask id="d" fill="#fff">
                <use xlink:href="#c"/>
            </mask>
            <path fill="#D61920" d="M22.28 5.066C20.76 2.182 17.86.384 14.56.384c-3.586 0-6.886 2.019-8.426 5.146a8.557 8.557 0 0 1 4.073.867c1.007-1.29 2.617-2.08 4.352-2.08 2.077 0 3.873 1.314 4.574 3.354l.456 1.325h2.596c2.024 0 3.61 1.627 3.61 3.707 0 1.905-1.586 3.4-3.61 3.4H6.405c-1.133 0-2.02-.821-2.02-1.868 0-1.04.772-2.161 2.02-2.161 1.163 0 2.01.91 2.01 2.16h3.932c0-3.413-2.61-6.09-5.941-6.09-3.282 0-5.953 2.731-5.953 6.09 0 3.199 2.671 5.798 5.953 5.798h15.78c4.155 0 7.541-3.288 7.541-7.329 0-4.25-3.265-7.587-7.447-7.637" mask="url(#d)"/>
        </g>
    </g>
</svg>
