<svg xmlns="http://www.w3.org/2000/svg" xmlns:xlink="http://www.w3.org/1999/xlink" width="157" height="40" viewBox="0 0 157 40">
    <defs>
        <path id="a" d="M0 0h52.256v40H0z"/>
        <path id="c" d="M.894.505h7.097v7.617H.894z"/>
    </defs>
    <g fill="none" fill-rule="evenodd">
        <path fill="#D61920" d="M15.282 26.31a.427.427 0 0 0-.255.141c-.634.727-1.253 1.466-1.894 2.186-.167.187-.127.293.032.44.896.826 1.71 1.723 2.358 2.761.2.32.369.66.56.986.255.436.52.865.777 1.301.423.718 1.083 1.076 1.872 1.234.896.18 1.792.252 2.677-.066.1-.036.199-.082.405-.169-.26-.226-.471-.41-.681-.596-.755-.662-1.61-1.172-2.507-1.606-.518-.25-.853-.63-1.07-1.14-.383-.91-.745-1.823-.884-2.81-.072-.507.023-.669.488-.866.85-.237 1.865-.605 2.422-1.245.048-.034-2.855-.695-4.3-.55M35.02 26.838c.56 1.752 5.347 4.919 5.288 7.94.053.435.413.84.86.984 1.083.349 2.206.364 3.393.27-.09-.126-.15-.233-.23-.322-.604-.673-1.184-1.37-1.828-2.003-1.315-1.31-3.087-6.283-3.135-7.361-.98-.373-3.505-.074-4.348.492M50.464 18.332c-.73 1.157-1.713 2.342-1.713 2.342.232.4.544 1.016.802 1.5.735-1.167 1.163-2.627.91-3.842"/>
        <g>
            <mask id="b" fill="#fff">
                <use xlink:href="#a"/>
            </mask>
            <path fill="#D61920" d="M48.255 26.49s.504-.51.503-.748c-.864.22-1.584.694-2.765 1.59 1.046-1.3 2.573-2.295 3.664-2.27-.139.473-.919 1.258-1.402 1.429M37.78 13.095c-.201-1.591 2.477-2.191 2.766.378-.976-.747-2.125-.7-2.766-.378m-1.903-6.187c-1.181-.78-2.51-1.071-3.908-1.214.083 1.1 1.019 2.418 1.931 2.499.012-.56-.34-.968-.644-1.451.816.17 1.487.477 2.064.97l-.023.078-1.104.059.092.875c-.152-.036-.219-.05-.283-.067-1.33-.385-2.293-1.197-2.864-2.463-.113-.252-.217-.51-.31-.77-.048-.134-.01-.24.165-.23.622.038 1.257.01 1.864.127.987.19 1.862.682 2.701 1.226.129.084.239.196.358.295l-.039.066M48.568 24.56c.263-.108.522-.23.791-.32.291-.098.589-.178.888-.25.286-.068.578-.115.935-.184-.511-.277-.961-.542-1.431-.767-.361-.172-5.522-7.664-3.245-11.675a.37.37 0 0 0 .001-.304c-.504-1.016-.959-2.06-1.543-3.028a16.784 16.784 0 0 0-4.198-4.691C39.063 2.04 37.296.834 35.279.056a1.022 1.022 0 0 0-.562-.03c-.355.082-.697.215-1.115.349.959.558 1.771 1.199 2.43 2.029-.064-.033-.13-.061-.192-.098A11.756 11.756 0 0 0 32.405.918c-.074-.017-.164-.037-.23-.011-.609.234-1.214.478-1.862.736l2.073 1.164-.045.105c-.101-.031-.204-.058-.303-.095-.906-.337-1.854-.473-2.808-.47-.37 0-.761.205-1.106.387-1.936 1.024-3.79 2.182-5.507 3.547-1.021.812-2 1.674-3.022 2.483-1.562 1.236-3.327 2.135-5.122 2.975-1.53.715-3.058 1.434-4.595 2.135-.386.176-.808.276-1.202.437-.169.07-.346.18-.457.32-.85 1.073-1.844 1.947-3.166 2.396-.133.045-.246.15-.351.27.944.272 1.821.035 2.742-.217-.248.389-.471.795-.748 1.163a76.868 76.868 0 0 1-1.768 2.255c-.164.203-.212.359-.079.608.396.739.402 1.547.342 2.357-.069.927-.356 1.795-.797 2.605-.395.726-.886 1.375-1.705 1.674-.229.084-.315.24-.34.47-.085.8-.174 1.6-.276 2.399-.188 1.478-.59 2.88-1.465 4.118-.195.275-.366.567-.545.855a.326.326 0 0 0-.063.162c-.003 1.21.916 2.746 1.902 3.26l.555-1.715c.032 0 .064.002.097 0l.487 1.612c.139-.136.272-.215.334-.333.293-.55.581-1.106.839-1.673a.822.822 0 0 0 .018-.524c-.202-.701-.17-1.416-.179-2.132-.013-1.04.255-2.011.718-2.925.435-.857 1.172-1.417 2.001-1.862 1.37-.734 2.845-.9 4.371-.784.134.01.31-.017.407-.098.728-.603 1.457-1.206 2.155-1.843 1.089-.996 1.765-2.266 2.302-3.62.034-.088.069-.176.126-.256-.181.982-.389 1.953-.886 2.895 3.423-.48 7.374 2.127 11.671 1.844-.163-.762-1.587-3.396-1.728-3.677-.36-.717-.475-1.431-.187-2.21.321-.873.588-1.766.881-2.65.033-.097.085-.188.127-.282l.07.022c-.07.394-.144.788-.212 1.183-.124.725-.25 1.449-.364 2.174-.06.377 0 .739.171 1.087.746 1.514 1.515 3.018 2.214 4.553a56.077 56.077 0 0 1 1.587 3.86c.511 1.387.631 2.849.636 4.32.002.497.025.995.028 1.492a.887.887 0 0 0 .248.645 6.683 6.683 0 0 0 3.062 1.874c.046.013.095.01.147.017l-.005-1.98 2.021.512.062-.072c-.124-.282-.228-.576-.378-.845-.189-.338-.422-.65-.623-.981-.531-.874-1.102-1.73-1.572-2.635-.937-1.807-1.005-3.745-.763-5.724.144-1.173.516-2.256 1.057-3.297.435-.834.545-1.761.681-2.675.059-.392.093-.79.192-1.194.042.36.094.72.12 1.08.029.388.05.777.04 1.164-.009.375-.544 3.06-.572 3.385 2.351-1.42 5.508-1.06 7.308-.591a19.79 19.79 0 0 1-2.162-2.617c-1.196-1.722-1.597-3.411-1.28-5.26.096 2.166.93 3.568 1.681 4.572 2.188-1.028 4.132-3.483 4.261-3.641.113.804-.491 3.662-2.523 5.63-.014.015-.027.038-.039.055 1.505 1.657 2.272 1.768 3.435 2.564.06-.01.117-.05.183-.121.455-.497.967-.93 1.548-1.244-.434.546-1.155 1.394-1.594 1.946l.061.096c2.138.192 6.473-2.11 7.366-3.64.058-.1.096-.21.153-.337-1.166-.15-2.585.214-3.688.41" mask="url(#b)"/>
        </g>
        <path fill="#D61920" d="M57.682 2.718l2.127-.006.015 5.776 2.508-.007-.015-5.775 2.128-.006.015 5.776.912-.003.01 3.344-1.825.004-.004-1.52-5.85.016zM66.115 2.696l4.56-.012.004 1.824-2.432.006.003 1.064 2.204-.006.004 1.672-2.204.006.003 1.216 2.432-.007.005 1.824-4.559.012zM71.813 2.68l2.127-.005.007 2.736 2.584-.007-.007-2.735 2.128-.006.02 7.599-2.128.005-.008-3.04-2.584.008.008 3.039-2.127.006zM81.086 4.48l-1.672.004-.005-1.823 5.472-.015.005 1.824-1.672.004.015 5.776-2.128.005zM87.776 6.059l.608-.003c.945-.002 1.041-.556 1.04-.881 0-.38-.133-.869-1.044-.865h-.609l.005 1.749zM85.64 2.644l3.202-.009c2.16-.004 2.772 1.492 2.775 2.534.003 1.053-.612 2.553-2.762 2.559l-1.075.002.007 2.508-2.127.005-.02-7.599zM59.853 19.156l.608-.002c.945-.002 1.04-.556 1.04-.882-.001-.38-.133-.868-1.044-.865l-.61.001.006 1.748zm-2.136-3.414l3.202-.009c2.16-.005 2.772 1.491 2.775 2.533.003 1.053-.612 2.553-2.762 2.558l-1.075.003.007 2.508-2.127.005-.02-7.598zM64.673 15.724l4.559-.012.005 1.824-2.432.006.003 1.064 2.204-.006.004 1.672-2.204.006.003 1.216 2.432-.006.005 1.823-4.559.012zM72.75 20.316l1.736-.005-.876-2.798-.86 2.803zm-.437-4.613l2.584-.006 2.723 7.591-2.28.006-.427-1.312-2.583.007-.42 1.314-2.279.006 2.682-7.606z"/>
        <path fill="#D61920" d="M84.818 15.67l.02 7.6-2.127.005-.015-5.775-1.52.004.008 2.996c.002 1.097-.101 2.877-2.75 2.884a3.193 3.193 0 0 1-.891-.095l-.004-1.823c.162.043.315.074.467.074.933-.003 1.05-.59 1.048-1.663l-.011-4.191 5.775-.015zM89.24 21.738c.661-.002 1.063-.198 1.061-.806-.002-.597-.393-.791-1.066-.79l-.912.003.004 1.595.912-.002zm-3.056-6.071l2.127-.005.008 2.963 1.118-.003c1.086-.003 2.986.21 2.992 2.304.005 2.106-1.905 2.329-2.98 2.33l-3.245.01-.02-7.6zM93.401 15.648l2.127-.006.007 2.736 2.584-.007-.007-2.735 2.128-.006.02 7.599-2.128.005-.008-3.039-2.584.007.008 3.039-2.127.006zM107.25 19.41c-.004-1.464-.907-2.19-1.895-2.186-.987.002-1.887.732-1.883 2.197.004 1.466.907 2.19 1.895 2.188.988-.003 1.887-.732 1.883-2.198m-5.97.016c-.006-2.03 1.292-4.02 4.071-4.028 2.78-.007 4.087 1.977 4.092 4.006.005 2.03-1.292 4.02-4.07 4.028-2.78.007-4.088-1.976-4.094-4.006M116.277 13.96c-.41.89-1.375 1.22-2.277 1.221-.9.003-1.867-.32-2.282-1.21l1.214-.459c.197.521.675.64 1.066.638.39 0 .868-.122 1.062-.644l1.217.453zm-3.763 1.637l.012 4.56 2.93-4.567 2.084-.006.02 7.6-2.051.004-.012-4.559-2.93 4.567-2.084.006-.02-7.599 2.05-.006zM60.13 33.374l1.736-.005-.876-2.8-.86 2.805zm-.437-4.613l2.584-.006L65 36.345l-2.28.007-.426-1.312-2.584.006-.42 1.315-2.279.006 2.682-7.606zM68.707 34.816c.326-.001 1.14-.014 1.138-.806-.002-.76-.794-.758-1.142-.757l-.977.002.004 1.564.977-.003zm-.095-3.082c.836-.002.976-.437.975-.72-.001-.401-.251-.758-.98-.756l-.89.002.005 1.476.89-.002zm.654-2.998c2.063-.005 2.273 1.34 2.274 1.926.002.804-.56 1.369-1.18 1.588v.022c.5.118 1.609.549 1.613 1.939.003 1.064-.722 2.118-2.48 2.123l-3.886.01-.02-7.598 3.679-.01zM74.014 30.546l-1.672.004-.005-1.823 5.472-.014.005 1.823-1.672.004.015 5.776-2.128.005zM84.21 32.495c-.003-1.465-.906-2.19-1.894-2.187-.987.003-1.887.732-1.883 2.197.004 1.466.907 2.19 1.895 2.188.988-.003 1.887-.732 1.883-2.198m-5.971.016c-.005-2.03 1.293-4.02 4.072-4.027 2.779-.007 4.087 1.976 4.092 4.005.005 2.031-1.292 4.021-4.071 4.028-2.78.007-4.088-1.976-4.093-4.006M87.998 28.686l2.128-.006 1.347 4.632 1.323-4.639 2.128-.005 1.127 7.595-2.04.006-.577-4.406-1.269 4.41-1.368.004-1.292-4.404-.553 4.41-2.04.004zM99.244 33.27l1.737-.004-.876-2.8-.861 2.805zm-.436-4.612l2.584-.006 2.723 7.59-2.28.007-.427-1.312-2.583.006-.42 1.315-2.28.006 2.683-7.606zM105.77 30.463l-1.672.004-.005-1.823 5.472-.014.005 1.823-1.672.004.015 5.776-2.128.005zM112.375 28.622l.012 4.56 2.93-4.568 2.084-.005.02 7.598-2.051.006-.012-4.559-2.93 4.566-2.084.006-.02-7.599zM118.55 29.095c.369-.208 1.29-.71 2.56-.713 1.705-.004 2.923.87 2.927 2.142a1.806 1.806 0 0 1-1.244 1.718v.033c.619.194 1.413.659 1.416 1.809.004 1.443-1.33 2.327-3.044 2.33-1.075.004-1.77-.201-2.99-1.12l.877-1.414c.544.51 1.272.866 1.848.864.912-.002 1.117-.524 1.116-.84-.001-.444-.317-.791-1.23-.788l-1.204.003-.004-1.52 1.205-.002c.966-.003 1.127-.448 1.127-.785-.002-.478-.436-.76-1.088-.757-.62 0-1.063.22-1.53.525l-.741-1.485zM127.56 33.196l1.737-.005-.876-2.799-.861 2.804zm-.436-4.613l2.584-.006 2.723 7.591-2.28.006-.427-1.312-2.583.007-.42 1.314-2.28.006 2.683-7.606zM133.017 28.568l2.127-.006.015 5.776 2.508-.007-.015-5.775 2.128-.006.015 5.776.912-.003.01 3.343-1.825.005-.004-1.52-5.85.015zM143.502 28.54l.012 4.56 2.93-4.568 2.084-.005.02 7.598-2.051.006-.012-4.559-2.93 4.566-2.084.006-.02-7.599z"/>
        <g transform="translate(149 28)">
            <mask id="d" fill="#fff">
                <use xlink:href="#c"/>
            </mask>
            <path fill="#D61920" d="M2.945.518l.012 4.559L5.887.51 7.971.505l.02 7.598-2.05.006-.013-4.559-2.93 4.566-2.084.006L.894.523z" mask="url(#d)"/>
        </g>
    </g>
</svg>
