<svg xmlns="http://www.w3.org/2000/svg" xmlns:xlink="http://www.w3.org/1999/xlink" viewBox="0 0 200 181.6">
  <defs/>
  <defs>
    <linearGradient id="Безымянный_градиент_173" x1="192.2" x2="198.4" y1="114.5" y2="125.1" gradientUnits="userSpaceOnUse">
      <stop offset="0" stop-color="#e8e4df"/>
      <stop offset="1" stop-color="#d8d3cc"/>
    </linearGradient>
    <linearGradient id="Безымянный_градиент_76" x1="68.9" x2="73.8" y1="47.8" y2="47.8" gradientUnits="userSpaceOnUse">
      <stop offset="0" stop-color="#bfbdbd"/>
      <stop offset="1" stop-color="#a6a5a5"/>
    </linearGradient>
    <linearGradient id="Безымянный_градиент_173-2" x1="189.3" x2="197.9" y1="114.9" y2="129.8" xlink:href="#Безымянный_градиент_173"/>
    <linearGradient id="Безымянный_градиент_76-2" x1="145.3" x2="181.2" y1="152.3" y2="152.3" xlink:href="#Безымянный_градиент_76"/>
    <linearGradient id="Безымянный_градиент_686" x1="117.8" x2="141.5" y1="118.8" y2="159.9" gradientUnits="userSpaceOnUse">
      <stop offset=".7" stop-color="#595a5a"/>
      <stop offset=".8" stop-color="#525353"/>
      <stop offset=".9" stop-color="#3f403f"/>
      <stop offset=".9" stop-color="#383938"/>
      <stop offset="1" stop-color="#2d2e2d"/>
    </linearGradient>
    <linearGradient id="Безымянный_градиент_173-3" x1="147.2" x2="155.8" y1="139.2" y2="154" xlink:href="#Безымянный_градиент_173"/>
    <linearGradient id="Безымянный_градиент_76-3" x1="20.7" x2="66.6" y1="24.8" y2="24.8" xlink:href="#Безымянный_градиент_76"/>
    <linearGradient id="Безымянный_градиент_76-4" x1="10.1" x2="23.1" y1="79.5" y2="79.5" xlink:href="#Безымянный_градиент_76"/>
    <linearGradient id="Безымянный_градиент_173-4" x1="142.7" x2="148.8" y1="143.1" y2="153.7" xlink:href="#Безымянный_градиент_173"/>
    <linearGradient id="Безымянный_градиент_173-5" x1="46.8" x2="52.6" y1="1.4" y2="12.8" xlink:href="#Безымянный_градиент_173"/>
    <linearGradient id="Безымянный_градиент_173-6" x1="-5632.9" x2="-5639.6" y1="6.2" y2="17.8" gradientTransform="matrix(-1 0 0 1 -5595 0)" xlink:href="#Безымянный_градиент_173"/>
    <linearGradient id="Безымянный_градиент_811" x1="88.3" x2="88.8" y1="80.9" y2="81.7" gradientUnits="userSpaceOnUse">
      <stop offset="0" stop-color="#818181"/>
      <stop offset=".5" stop-color="#7f7f7f"/>
      <stop offset=".7" stop-color="#787878"/>
      <stop offset=".8" stop-color="#6d6d6d"/>
      <stop offset=".9" stop-color="#5c5c5c"/>
      <stop offset="1" stop-color="#464646"/>
      <stop offset="1" stop-color="#424242"/>
    </linearGradient>
    <linearGradient id="Безымянный_градиент_236" x1="79.5" x2="84.7" y1="58.4" y2="58.4" gradientUnits="userSpaceOnUse">
      <stop offset="0" stop-color="#05a2a7"/>
      <stop offset="1" stop-color="#0b7c7b"/>
    </linearGradient>
    <linearGradient id="Безымянный_градиент_810" x1="88.3" x2="88.8" y1="51.4" y2="52.2" gradientUnits="userSpaceOnUse">
      <stop offset="0" stop-color="#c3c3c3"/>
      <stop offset=".1" stop-color="#ababab"/>
      <stop offset=".3" stop-color="#989898"/>
      <stop offset=".4" stop-color="#8b8b8b"/>
      <stop offset=".6" stop-color="#838383"/>
      <stop offset="1" stop-color="#818181"/>
    </linearGradient>
    <linearGradient id="Безымянный_градиент_809" x1="73.1" x2="73.6" y1="83.3" y2="82.5" gradientUnits="userSpaceOnUse">
      <stop offset="0" stop-color="#424242"/>
      <stop offset=".1" stop-color="#575757"/>
      <stop offset=".2" stop-color="#6a6a6a"/>
      <stop offset=".4" stop-color="#777"/>
      <stop offset=".6" stop-color="#7f7f7f"/>
      <stop offset="1" stop-color="#818181"/>
    </linearGradient>
    <linearGradient id="Безымянный_градиент_808" x1="73.1" x2="73.6" y1="53.8" y2="53" gradientUnits="userSpaceOnUse">
      <stop offset="0" stop-color="#818181"/>
      <stop offset=".3" stop-color="#838383"/>
      <stop offset=".5" stop-color="#8b8b8b"/>
      <stop offset=".6" stop-color="#989898"/>
      <stop offset=".7" stop-color="#ababab"/>
      <stop offset=".8" stop-color="#c4c4c4"/>
      <stop offset=".9" stop-color="#e2e2e2"/>
      <stop offset="1" stop-color="#fff"/>
    </linearGradient>
    <linearGradient id="Безымянный_градиент_807" x1="79.4" x2="79.8" y1="71.9" y2="71.9" gradientUnits="userSpaceOnUse">
      <stop offset="0" stop-color="#fff"/>
      <stop offset=".2" stop-color="#fdfdfd"/>
      <stop offset=".3" stop-color="#f6f6f6"/>
      <stop offset=".4" stop-color="#e9eaea"/>
      <stop offset=".4" stop-color="#d8d8d8"/>
      <stop offset=".5" stop-color="#c1c2c2"/>
      <stop offset=".5" stop-color="#b5b6b6"/>
      <stop offset=".5" stop-color="#c3c3c3"/>
      <stop offset=".6" stop-color="#d9d9d9"/>
      <stop offset=".6" stop-color="#eaeaea"/>
      <stop offset=".7" stop-color="#f6f6f6"/>
      <stop offset=".8" stop-color="#fdfdfd"/>
      <stop offset="1" stop-color="#fff"/>
    </linearGradient>
    <linearGradient id="Безымянный_градиент_806" x1="79.6" x2="80.5" y1="71.7" y2="71.7" gradientUnits="userSpaceOnUse">
      <stop offset="0" stop-color="#818181"/>
      <stop offset="0" stop-color="#848780"/>
      <stop offset=".1" stop-color="#8b957f"/>
      <stop offset=".1" stop-color="#8e9a7e"/>
      <stop offset=".1" stop-color="#8c977e"/>
      <stop offset=".3" stop-color="#868a80"/>
      <stop offset=".5" stop-color="#828381"/>
      <stop offset="1" stop-color="#818181"/>
    </linearGradient>
    <linearGradient id="Безымянный_градиент_805" x1="-6478.8" x2="-6478.4" y1="71.8" y2="71.8" gradientTransform="matrix(-1 0 0 1 -6399.2 0)" gradientUnits="userSpaceOnUse">
      <stop offset="0" stop-color="#818181"/>
      <stop offset="0" stop-color="#868582"/>
      <stop offset="0" stop-color="#afa887"/>
      <stop offset="0" stop-color="#d0c38c"/>
      <stop offset=".1" stop-color="#e8d78f"/>
      <stop offset=".1" stop-color="#f6e391"/>
      <stop offset=".1" stop-color="#fbe792"/>
      <stop offset=".2" stop-color="#dccd8e"/>
      <stop offset=".2" stop-color="#c0b68a"/>
      <stop offset=".3" stop-color="#a9a287"/>
      <stop offset=".4" stop-color="#979384"/>
      <stop offset=".5" stop-color="#8a8982"/>
      <stop offset=".7" stop-color="#838381"/>
      <stop offset="1" stop-color="#818181"/>
    </linearGradient>
    <linearGradient id="Безымянный_градиент_556" x1="42.2" x2="79.5" y1="16.8" y2="83.9" gradientUnits="userSpaceOnUse">
      <stop offset="0" stop-color="#35c1d0"/>
      <stop offset="1" stop-color="#fff" stop-opacity="0"/>
    </linearGradient>
    <linearGradient id="Безымянный_градиент_811-2" x1="132.6" x2="133.1" y1="105.8" y2="106.6" xlink:href="#Безымянный_градиент_811"/>
    <linearGradient id="Безымянный_градиент_809-2" x1="117.4" x2="117.9" y1="108.2" y2="107.4" xlink:href="#Безымянный_градиент_809"/>
    <linearGradient id="Безымянный_градиент_807-2" x1="123.7" x2="124.1" y1="96.8" y2="96.8" xlink:href="#Безымянный_градиент_807"/>
    <linearGradient id="Безымянный_градиент_236-2" x1="123.9" x2="129" y1="83.3" y2="83.3" xlink:href="#Безымянный_градиент_236"/>
    <radialGradient id="Безымянный_градиент_172" cx="33.5" cy="13.6" r="14.8" gradientUnits="userSpaceOnUse">
      <stop offset="0" stop-color="#dcd8d0"/>
      <stop offset=".5" stop-color="#cbc6bb"/>
      <stop offset="1" stop-color="#c0bbad"/>
    </radialGradient>
    <radialGradient id="Безымянный_градиент_672" cx="47.5" cy="14.3" r="4.4" gradientTransform="rotate(30 47.5 14.3)" gradientUnits="userSpaceOnUse">
      <stop offset="0" stop-color="#17b4ac"/>
      <stop offset=".1" stop-color="#149e97"/>
      <stop offset=".1" stop-color="#0f7570"/>
      <stop offset=".3" stop-color="#0b514d"/>
      <stop offset=".4" stop-color="#073432"/>
      <stop offset=".5" stop-color="#041d1c"/>
      <stop offset=".6" stop-color="#030d0d"/>
      <stop offset=".8" stop-color="#010404"/>
      <stop offset="1" stop-color="#010101"/>
    </radialGradient>
    <radialGradient id="Безымянный_градиент_672-2" cx="41.9" cy="17.5" r="4.4" gradientTransform="rotate(30 41.9 17.5)" xlink:href="#Безымянный_градиент_672"/>
    <style>
      .cls-1{isolation:isolate}.cls-3{fill:#b9b4a8}.cls-4{fill:#393634}.cls-6{fill:#e8e4df}.cls-7{fill:#eeebe9}.cls-18{fill:#2d2b2a}.cls-24{fill:#a8dde3;mix-blend-mode:screen}.cls-27{fill:#eeb32e}.cls-27,.cls-28,.cls-29,.cls-38{fill-rule:evenodd}.cls-28{fill:#fae048}.cls-29{fill:#faf070}.cls-38{fill:#d71920}
    </style>
  </defs>
  <g class="cls-1">
    <g id="Layer_2" data-name="Layer 2">
      <g id="Layer_1-2" data-name="Layer 1">
        <g id="_5" data-name="5">
          <g id="Axonometric_Cylinder" data-name="Axonometric Cylinder">
            <path fill="url(#Безымянный_градиент_173)" d="M195.7 114.6a3 3 0 00-3.1-.3l-3.8 2.2L195 127l3.8-2.2a3 3 0 001.2-2.8 9.6 9.6 0 00-4.3-7.5z"/>
            <path id="Cylinder_face" d="M196.2 124.3c0 2.7-2 3.9-4.3 2.5a9.6 9.6 0 01-4.4-7.5c0-2.8 2-4 4.4-2.5a9.6 9.6 0 014.3 7.5z" class="cls-3" data-name="Cylinder face"/>
            <path id="Cylinder_face-2" d="M194 123c0 1.3-1 1.8-2 1.1a4.5 4.5 0 01-2-3.5c0-1.3.9-1.9 2-1.2a4.5 4.5 0 012 3.5z" class="cls-4" data-name="Cylinder face"/>
          </g>
          <path fill="url(#Безымянный_градиент_76)" d="M68.9 8.7l4.8-2.9.1 81.2-4.9 2.9V8.7z"/>
          <path d="M58.8 2.9L63.7 0l10 5.8-4.8 2.9-10.1-5.8z" class="cls-6"/>
          <path d="M68.9 8.7v81.2L58.8 84V2.9l10.1 5.8z" class="cls-7"/>
          <g class="cls-1">
            <path d="M57.8 35.8c-2-1.1-3.7-1.2-5-.4l-3.5 2c1.3-.8 3.1-.7 5.1.4l134.2 77.5 2-.6 1.4-1.4z" class="cls-6"/>
            <path fill="url(#Безымянный_градиент_173-2)" d="M198 120.3a17.2 17.2 0 00-2.9-4.4 12.6 12.6 0 00-3-2.6l-3.5 2a12.6 12.6 0 013.1 2.6 17.2 17.2 0 012.8 4.4 13.4 13.4 0 011.2 5.3c0 2.3-.8 3.9-2 4.6l3.4-2c1.2-.7 2-2.3 2-4.6a13.4 13.4 0 00-1.2-5.3z"/>
            <path d="M188.6 115.3L54.4 37.8c-4-2.2-7.1-.4-7.1 4.1a15.7 15.7 0 007 12.3l134.3 77.5c3.9 2.3 7 .5 7.1-4a15.7 15.7 0 00-7-12.4z" class="cls-3"/>
          </g>
          <path fill="url(#Безымянный_градиент_76-2)" d="M145.3 143.7l35.9-20.8v37.9l-35.9 20.8v-37.9z"/>
          <path fill="#e4e0dc" d="M145.3 143.7v37.9l-126-72.7v-38l126 72.8z"/>
          <g class="cls-1">
            <path d="M148.6 139L18 63.7c-3-1.8-5.5-.4-5.5 3.1a12 12 0 005.5 9.5l130.6 75.3c3 1.8 5.5.4 5.5-3.1a12 12 0 00-5.5-9.5z" class="cls-3"/>
            <path fill="url(#Безымянный_градиент_686)" d="M185.8 115.7L55.2 40.4c-1.6-1-3.5-1.4-5-.5L13 61.5c1.5-.9 3.4-.4 5 .5l130.6 75.3c6 3.5 9.4 14 5 16.5l37-21.6c4.5-2.5 1.2-13-4.8-16.5z"/>
            <path fill="#1f1c1c" d="M148.6 137.3L18 62c-3.8-2.2-7-.4-7 4a15.4 15.4 0 007 12l130.6 75.3c3.9 2.3 7 .5 7-4a15.4 15.4 0 00-7-12zm0 14.3L18 76.3a12 12 0 01-5.5-9.5c0-3.4 2.5-4.9 5.5-3.1L148.6 139a12 12 0 015.5 9.5c0 3.5-2.5 4.9-5.5 3.1z"/>
            <path d="M45.5 77.8l-.4-.2L82.4 56l.4.2zm64.9-5.6l-.5-.2-37.2 21.5.4.2zM89.7 60.3l-.4-.3L52 81.6l.5.2zm13.8 8l-.4-.3-37.3 21.5.4.3zm-6.9-4l-.4-.3-37.3 21.5.4.3zm94.2 56.8l-.1-.2-37.2 21.5.1.3 37.3-21.4zm-5-5.4l-37.3 21.6h.1l.3.2 37.3-21.5zM18 62l37.2-21.5-.4-.2-37.3 21.5.5.2zm51-13.5l-.5-.3-37.2 21.5.4.3zM24.4 65.7l.5.2L62 44.4l-.4-.3zM76 52.3l-.4-.2-37.3 21.5.5.3zm69 39.8l-.5-.2-37.3 21.5.5.2zm-27.6-15.9l-.5-.3-37.2 21.6.4.2zm41.4 23.9l-.5-.3-37.3 21.5.5.3zm6.9 4l-.5-.3-37.3 21.5.5.3zm27.1 23.7v-.1l-36.6 21 .5.4 36.1-21v-.3zM179.4 112l-.5-.3-37.3 21.6.5.2zm-7-4l-.4-.3-37.3 21.6.5.2zm-41.3-23.8l-.5-.3-37.3 21.5.5.3zm-7-4l-.4-.3-37.2 21.5.4.3zM151.9 96l-.5-.3-37.3 21.5.5.3zM138 88l-.5-.3-37.3 21.6.5.3z" style="mix-blend-mode:multiply" fill="#393634" opacity=".3"/>
          </g>
          <g class="cls-1">
            <path d="M15.8 60.1c-2-1.1-3.8-1.2-5-.5l-3.5 2c1.3-.7 3-.6 5 .5l134.2 77.5 2.1-.7 1.4-1.3z" class="cls-6"/>
            <path fill="url(#Безымянный_градиент_173-3)" d="M155.8 144.6a17.2 17.2 0 00-2.7-4.4 12.6 12.6 0 00-3.1-2.6l-3.5 2a12.6 12.6 0 013.2 2.6 17.2 17.2 0 012.7 4.4 13.4 13.4 0 011.2 5.3c0 2.3-.8 3.8-2 4.6l3.4-2c1.3-.8 2-2.3 2-4.6a13.4 13.4 0 00-1.2-5.3z"/>
            <path d="M146.6 139.6a15.7 15.7 0 017 12.3c0 4.5-3.2 6.3-7.1 4L12.3 78.6a15.7 15.7 0 01-7.1-12.3c0-4.5 3.2-6.3 7.1-4z" class="cls-7"/>
          </g>
          <g id="Axonometric_Cube" data-name="Axonometric Cube">
            <path id="Cube_face_-_left" d="M20.7 40.3L15.1 37v-4.3l5.6 3.2v4.4z" class="cls-3" data-name="Cube face - left"/>
            <path id="Cube_face_-_right" fill="url(#Безымянный_градиент_76-3)" d="M66.6 13.8L20.7 40.3v-4.4L66.6 9.4v4.4z" data-name="Cube face - right"/>
            <path id="Cube_face_-_top" d="M20.7 35.9l-5.6-3.2L61 6.2l5.6 3.2-45.9 26.5z" class="cls-6" data-name="Cube face - top"/>
          </g>
          <path d="M7.9 32.2l5.1-2.9 10.1 5.8L18 38 7.9 32.2z" class="cls-6"/>
          <path d="M18 38v18.6L7.9 50.8V32.2L18 38z" class="cls-7"/>
          <path fill="url(#Безымянный_градиент_76-4)" d="M23.1 116.3V35.1L18 38v12.8l-7.9 19.4v53.7l13-7.6z"/>
          <path d="M8 44.9L0 64.3l10.1 5.9L18 50.7 8 44.9z" class="cls-7"/>
          <path d="M10.1 70.2L0 64.3V118l10.1 5.9V70.2z" class="cls-7"/>
          <g id="Axonometric_Cylinder-2" data-name="Axonometric Cylinder">
            <path fill="url(#Безымянный_градиент_173-4)" d="M146.1 143.2a3 3 0 00-3.1-.3l-3.8 2.2 6.2 10.6 3.8-2.2a3 3 0 001.2-2.8 9.6 9.6 0 00-4.3-7.5z"/>
            <path id="Cylinder_face-3" d="M146.7 152.9c0 2.8-2 3.9-4.4 2.5a9.6 9.6 0 01-4.3-7.5c0-2.8 2-4 4.3-2.5a9.6 9.6 0 014.4 7.5z" class="cls-3" data-name="Cylinder face"/>
            <path id="Cylinder_face-4" d="M144.4 151.6c0 1.3-1 1.8-2 1.1a4.5 4.5 0 01-2-3.5c0-1.3.9-1.8 2-1.2a4.5 4.5 0 012 3.6z" class="cls-4" data-name="Cylinder face"/>
          </g>
          <g id="Axonometric_Cube-2" data-name="Axonometric Cube">
            <path id="Cube_face_-_left-2" d="M40.2 24.7l-4.1-2.4v-7l11.8-2-7.7 11.4z" class="cls-18" data-name="Cube face - left"/>
            <path id="Cube_face_-_right-2" d="M48.2 24.4l-8 4.6V17.7l8-4.6v11.3z" class="cls-4" data-name="Cube face - right"/>
            <path id="Cube_face_-_top-2" d="M40.2 17.7l-4.1-2.4 8-4.6 4.1 2.4-8 4.6z" class="cls-18" data-name="Cube face - top"/>
          </g>
          <path fill="url(#Безымянный_градиент_173-5)" d="M49 2.6a4.6 4.6 0 00-4.7-.1L51.1 14a4.6 4.6 0 002.1-4.3 8.8 8.8 0 00-4.2-7z"/>
          <path fill="url(#Безымянный_градиент_173-6)" d="M44.3 2.5a3.3 3.3 0 013.3.3 10.4 10.4 0 014.8 8.1 3.4 3.4 0 01-1.3 3.1L35 23.4l-6.7-11.5z"/>
          <path fill="url(#Безымянный_градиент_172)" d="M28.3 11.9a3.3 3.3 0 013.3.2 10.4 10.4 0 014.8 8.2 3.4 3.4 0 01-1.4 3.1 4.6 4.6 0 01-4.6-.1c-3.8-2-6.3-8.7-2.1-11.4z"/>
          <path fill="#b9b4a8" d="M29.7 15.5a6.1 6.1 0 012.9 4.8c0 1.8-1.3 2.5-2.8 1.7a6.1 6.1 0 01-2.9-4.8c0-1.8 1.3-2.5 2.8-1.7z" opacity=".8"/>
          <path fill="#3ea296" d="M29.7 16c-1.4-.8-2.4-.2-2.4 1.4a5.4 5.4 0 002.5 4.2c1.3.7 2.4 0 2.4-1.5a5.4 5.4 0 00-2.5-4.2zm0 5.3a4.8 4.8 0 01-2.1-3.8c0-1.3 1-2 2.1-1.3A4.8 4.8 0 0132 20c0 1.3-.9 2-2.1 1.3z"/>
          <path d="M49.1 14.4L40 19.6c-.6.4-1 .2-1-.4a2.3 2.3 0 011-1.7l9-5.3c.7-.3 1.2-.1 1.2.5a2.3 2.3 0 01-1.1 1.7z" class="cls-4"/>
          <path d="M48.2 13.9a1.5 1.5 0 01-.8 1.1c-.4.2-.7 0-.7-.4a1.5 1.5 0 01.8-1c.4-.3.8-.1.7.3z" class="cls-24"/>
          <circle cx="47.5" cy="14.3" r="4.4" transform="rotate(-30 47.5 14.3)" style="mix-blend-mode:screen" fill="url(#Безымянный_градиент_672)"/>
          <path d="M42.6 17.1a1.5 1.5 0 01-.8 1.1c-.4.2-.7 0-.7-.4a1.5 1.5 0 01.8-1c.5-.2.8 0 .7.3z" class="cls-24"/>
          <circle cx="41.9" cy="17.5" r="4.4" transform="rotate(-30 41.9 17.5)" style="mix-blend-mode:screen" fill="url(#Безымянный_градиент_672-2)"/>
        </g>
        <path d="M97.5 46.2v30.4L79.6 87.1V56.8l17.9-10.6z" class="cls-27"/>
        <path d="M79.6 56.8v30.3l-12.5-7.4V49.4l12.5 7.4z" class="cls-28"/>
        <path d="M97.5 46.2L79.6 56.8l-12.5-7.4L85 38.8l12.5 7.4z" class="cls-29"/>
        <path style="mix-blend-mode:overlay" fill="url(#Безымянный_градиент_811)" d="M79.6 86l17.9-10.5v1L79.6 87.1V86z"/>
        <path fill="url(#Безымянный_градиент_236)" d="M79.5 56.8V63l5.2-9.2-5.2 3z" opacity=".9"/>
        <path style="mix-blend-mode:overlay" fill="url(#Безымянный_градиент_810)" d="M79.6 56.5L97.5 46v1L79.6 57.6v-1.1z"/>
        <path style="mix-blend-mode:overlay" fill="url(#Безымянный_градиент_809)" d="M79.6 86l-12.5-7.3v1l12.5 7.4V86z"/>
        <path style="mix-blend-mode:overlay" fill="url(#Безымянный_градиент_808)" d="M79.6 56.5l-12.5-7.3v1l12.5 7.4v-1.1z"/>
        <path style="mix-blend-mode:multiply" fill="url(#Безымянный_градиент_807)" d="M79.4 56.8h.4v30.4h-.4z"/>
        <path style="mix-blend-mode:hard-light" fill="url(#Безымянный_градиент_806)" d="M80.5 86.6l-.9.5V56.8l.9-.5v30.3z"/>
        <path style="mix-blend-mode:hard-light" fill="url(#Безымянный_градиент_805)" d="M79.2 86.9l.4.2V56.8l-.4-.3v30.4z"/>
        <path d="M89.2 68.1a3.3 3.3 0 01-.6.3h-.2c-.7 0-1.2-.5-1.2-1.4a4 4 0 011.9-3.3 1.2 1.2 0 012 1l.7-.3c0-1.6-1.3-2.3-2.7-1.5a5.5 5.5 0 00-2.5 4.5c0 1.1.6 1.8 1.4 1.8a2.2 2.2 0 00.4 0 3.9 3.9 0 00.8-.2l.5-.3 4.7-2.7v-.8L89.6 68zm.4-1.4l-.3.2-.3.1h-.2c-.3 0-.4-.2-.5-.6a1.8 1.8 0 01.8-1.4c.5-.3.8 0 .9.5l.6-.4a1 1 0 00-1.5-.9 3.2 3.2 0 00-1.5 2.6c0 .7.4 1 .9 1a1 1 0 00.3 0 3 3 0 00.4-.1l.4-.2 4.8-2.8V64zm-3.4 4l-.7.4-.2-5.3-1 .6v-.8l1.8-1zm-2.6-3.5v.8l.8-.4v4l.7-.4-.1-4.7z" class="cls-38"/>
        <path fill="url(#Безымянный_градиент_556)" d="M50 12.2c-.2-.2-.5-.2-1 0l-9 5.3a2.3 2.3 0 00-1 1.7l-2.3 53 31.8 18.3 38.7-22.2z"/>
        <path d="M141.8 71.1v30.4L123.9 112V81.7l17.9-10.6z" class="cls-27"/>
        <path d="M123.9 81.7V112l-12.5-7.4V74.3l12.5 7.4z" class="cls-28"/>
        <path d="M141.8 71.1l-17.9 10.6-12.5-7.4 17.9-10.6 12.5 7.4z" class="cls-29"/>
        <path style="mix-blend-mode:overlay" fill="url(#Безымянный_градиент_811-2)" d="M123.9 110.9l17.9-10.5v1L123.9 112v-1.1z"/>
        <path style="mix-blend-mode:overlay" fill="url(#Безымянный_градиент_809-2)" d="M123.9 110.9l-12.5-7.3v1l12.5 7.4v-1.1z"/>
        <path style="mix-blend-mode:multiply" fill="url(#Безымянный_градиент_807-2)" d="M123.7 81.7h.4v30.4h-.4z"/>
        <path fill="url(#Безымянный_градиент_236-2)" d="M123.9 81.7v6.2l5.1-9.2-5.1 3z" opacity=".9"/>
        <path d="M133.5 93a3.3 3.3 0 01-.6.2h-.2c-.7 0-1.2-.4-1.2-1.3a4 4 0 011.9-3.3 1.2 1.2 0 012 1l.7-.3c0-1.7-1.2-2.3-2.7-1.5a5.5 5.5 0 00-2.5 4.5c0 1.1.6 1.8 1.4 1.8a2.2 2.2 0 00.4 0 3.9 3.9 0 00.8-.3l.5-.2 4.8-2.7V90l-4.8 2.7zm.4-1.5l-.3.2-.3.2h-.2c-.3 0-.5-.3-.5-.6a1.8 1.8 0 01.8-1.5c.5-.2.8 0 .9.5l.6-.4a1 1 0 00-1.5-.8 3.2 3.2 0 00-1.4 2.6c0 .7.4 1 .8 1a1 1 0 00.3 0 3 3 0 00.5-.1l.4-.2 4.7-2.8V89zm-3.4 4l-.7.4-.1-5.2-1 .6v-.8l1.7-1zm-2.6-3.4v.8l.8-.4v4l.7-.4v-4.8z" class="cls-38"/>
      </g>
    </g>
  </g>
</svg>
