<svg xmlns="http://www.w3.org/2000/svg" xmlns:xlink="http://www.w3.org/1999/xlink" viewBox="0 0 338.1 296.7"><defs><style>.cls-1{fill:none;}.cls-2{fill:url(#linear-gradient);}.cls-3{fill:url(#linear-gradient-2);}.cls-4{fill:url(#linear-gradient-3);}.cls-5{fill:url(#linear-gradient-4);}.cls-6{fill:url(#linear-gradient-5);}.cls-7{fill:#e2e1e1;}.cls-8{fill:url(#linear-gradient-6);}.cls-9{fill:url(#linear-gradient-7);}.cls-10{fill:#06b0ab;}.cls-11{fill:url(#linear-gradient-8);}.cls-12{fill:#282b35;}.cls-13{fill:#1e1f27;}.cls-14{fill:#343744;}.cls-15{fill:#2e323d;}.cls-16{fill:url(#linear-gradient-9);}.cls-17{fill:#0b7c7b;}.cls-18{fill:url(#linear-gradient-10);}.cls-19{fill:#e0e0d9;}.cls-20{fill:url(#linear-gradient-11);}.cls-21{fill:url(#linear-gradient-12);}.cls-22{fill:url(#linear-gradient-13);}.cls-23{fill:url(#linear-gradient-14);}.cls-24{fill:url(#linear-gradient-15);}.cls-25{fill:url(#linear-gradient-16);}.cls-26{fill:url(#linear-gradient-17);}.cls-27{fill:#7e8181;}.cls-28{fill:url(#linear-gradient-18);}.cls-29{fill:url(#linear-gradient-19);}.cls-30,.cls-42{fill:#fff;}.cls-30,.cls-39{opacity:0.5;}.cls-30,.cls-35,.cls-39{isolation:isolate;}.cls-31{fill:#e4e4e3;}.cls-32{fill:url(#linear-gradient-20);}.cls-33{fill:url(#linear-gradient-21);}.cls-34{fill:url(#radial-gradient);}.cls-35{fill:#d2d2ce;opacity:0.6;}.cls-36{clip-path:url(#clip-path);}.cls-37{fill:#fffffc;}.cls-38{fill:#b7b6b3;}.cls-39{fill:#cdcfce;}.cls-40{fill:#f1efed;}.cls-41{fill-rule:evenodd;fill:url(#Безымянный_градиент_304);}</style><linearGradient id="linear-gradient" x1="-9479.9" y1="283.69" x2="-9488.35" y2="269.04" gradientTransform="matrix(1, 0, 0, -1, 9592.98, 289.7)" gradientUnits="userSpaceOnUse"><stop offset="0" stop-color="#fff"/><stop offset="0.02" stop-color="#fff"/><stop offset="0.31" stop-color="#f7f8f8"/><stop offset="1" stop-color="#f5f6f6"/></linearGradient><linearGradient id="linear-gradient-2" x1="-9500.67" y1="277.66" x2="-9504.08" y2="271.73" xlink:href="#linear-gradient"/><linearGradient id="linear-gradient-3" x1="-9517.86" y1="286.31" x2="-9535.72" y2="255.4" xlink:href="#linear-gradient"/><linearGradient id="linear-gradient-4" x1="-9542.55" y1="259.43" x2="-9561.39" y2="226.81" xlink:href="#linear-gradient"/><linearGradient id="linear-gradient-5" x1="-9562.68" y1="227.63" x2="-9584.52" y2="189.8" xlink:href="#linear-gradient"/><linearGradient id="linear-gradient-6" x1="11482.17" y1="231.88" x2="11484.14" y2="231.88" gradientTransform="translate(11560.18 289.7) rotate(180)" gradientUnits="userSpaceOnUse"><stop offset="0" stop-color="#057c85"/><stop offset="0.65" stop-color="#07727b"/><stop offset="1" stop-color="#046a75"/></linearGradient><linearGradient id="linear-gradient-7" x1="11478.16" y1="243.64" x2="11489.18" y2="243.64" xlink:href="#linear-gradient-6"/><linearGradient id="linear-gradient-8" x1="71.87" y1="257.76" x2="87.62" y2="223.39" gradientTransform="matrix(1, 0, 0, -1, 0, 289.7)" gradientUnits="userSpaceOnUse"><stop offset="0" stop-color="#03a6b7"/><stop offset="0.23" stop-color="#04a2ae"/><stop offset="0.44" stop-color="#03999e"/><stop offset="0.62" stop-color="#078f95"/><stop offset="0.91" stop-color="#08747d"/><stop offset="1" stop-color="#046a75"/></linearGradient><linearGradient id="linear-gradient-9" x1="5984.99" y1="9538.52" x2="5986.72" y2="9535.52" gradientTransform="matrix(-0.5, -0.87, -0.87, 0.5, 11353.02, 528.9)" gradientUnits="userSpaceOnUse"><stop offset="0" stop-color="#1e1f27"/><stop offset="0.36" stop-color="#21232b"/><stop offset="0.77" stop-color="#2b2e3a"/><stop offset="1" stop-color="#343744"/></linearGradient><linearGradient id="linear-gradient-10" x1="5984.98" y1="9557.39" x2="5986.7" y2="9554.41" xlink:href="#linear-gradient-9"/><linearGradient id="linear-gradient-11" x1="11909.09" y1="165.38" x2="12043.98" y2="165.38" gradientTransform="translate(12192.01 289.7) rotate(180)" gradientUnits="userSpaceOnUse"><stop offset="0" stop-color="#f5f6f6"/><stop offset="0.69" stop-color="#f7f8f8"/><stop offset="0.98" stop-color="#fff"/><stop offset="1" stop-color="#fff"/></linearGradient><linearGradient id="linear-gradient-12" x1="11910.89" y1="166.09" x2="12042.02" y2="166.09" gradientTransform="translate(12192.01 289.7) rotate(180)" gradientUnits="userSpaceOnUse"><stop offset="0" stop-color="#0b7c7b"/><stop offset="1" stop-color="#05a2a7"/></linearGradient><linearGradient id="linear-gradient-13" x1="-9416.73" y1="217.85" x2="-9278.62" y2="217.85" gradientTransform="matrix(1, 0, 0, -1, 9564.76, 289.7)" gradientUnits="userSpaceOnUse"><stop offset="0" stop-color="#fdfeff"/><stop offset="1" stop-color="#fff"/></linearGradient><linearGradient id="linear-gradient-14" x1="-9500.6" y1="62.58" x2="-9365.7" y2="62.58" gradientTransform="matrix(1, 0, 0, -1, 9564.76, 289.7)" gradientUnits="userSpaceOnUse"><stop offset="0" stop-color="#dfdfde"/><stop offset="0.44" stop-color="#d4d4d4"/><stop offset="1" stop-color="#b5b5b5"/></linearGradient><linearGradient id="linear-gradient-15" x1="-9500.6" y1="88.66" x2="-9282.09" y2="88.66" xlink:href="#linear-gradient-13"/><linearGradient id="linear-gradient-16" x1="9495.02" y1="47.52" x2="9585.37" y2="47.52" gradientTransform="translate(9784.42 289.7) rotate(180)" gradientUnits="userSpaceOnUse"><stop offset="0" stop-color="#a8a6a6"/><stop offset="0.52" stop-color="#a3a1a1"/><stop offset="1" stop-color="#989898"/></linearGradient><linearGradient id="linear-gradient-17" x1="9498.27" y1="127.07" x2="9501.49" y2="127.07" xlink:href="#linear-gradient-16"/><linearGradient id="linear-gradient-18" x1="9517.64" y1="98.24" x2="9675.22" y2="98.24" gradientTransform="translate(9784.42 289.7) rotate(180)" gradientUnits="userSpaceOnUse"><stop offset="0" stop-color="#8e9191"/><stop offset="1" stop-color="#afb4b3"/></linearGradient><linearGradient id="linear-gradient-19" x1="-9441.77" y1="76.68" x2="-9386.58" y2="76.68" gradientTransform="matrix(1, 0, 0, -1, 9564.76, 289.7)" xlink:href="#linear-gradient-11"/><linearGradient id="linear-gradient-20" x1="-9351.06" y1="111.51" x2="-9348.88" y2="115.41" gradientTransform="matrix(1, 0, 0, -1, 9564.76, 289.7)" gradientUnits="userSpaceOnUse"><stop offset="0" stop-color="#d3d3d3"/><stop offset="0.52" stop-color="#ebebeb"/><stop offset="1" stop-color="#c3c3c3"/></linearGradient><linearGradient id="linear-gradient-21" x1="9508.66" y1="-5021.35" x2="9511.2" y2="-5021.35" gradientTransform="matrix(0, -0.93, 0.96, 0, 5120.62, 9112.01)" xlink:href="#linear-gradient-14"/><radialGradient id="radial-gradient" cx="11298.61" cy="15.02" r="43.63" gradientTransform="translate(11530.13 289.7) rotate(180)" gradientUnits="userSpaceOnUse"><stop offset="0" stop-color="#fdfcfa"/><stop offset="1" stop-color="#d2d2ce"/></radialGradient><clipPath id="clip-path"><path class="cls-1" d="M265.26,268.08s-4.13,2.39-6.23,2.58a3.06,3.06,0,0,1-1.48-.26c-.51-.25-.81-.76-.62-1.78l.89-4.43s4-3.51,5.76-1.47S265.85,266.69,265.26,268.08Z"/></clipPath><linearGradient id="Безымянный_градиент_304" x1="-231.76" y1="1899.09" x2="-212.44" y2="1899.09" gradientTransform="matrix(0.89, 0.49, -0.02, 1.11, 412.12, -1895.73)" gradientUnits="userSpaceOnUse"><stop offset="0" stop-color="#fff"/><stop offset="0.02" stop-color="#fefefe"/><stop offset="0.31" stop-color="#f7f8f8"/><stop offset="1" stop-color="#f5f6f6"/></linearGradient></defs><title>Accounting3_0</title><g id="Layer_2" data-name="Layer 2"><g id="Layer_1-2" data-name="Layer 1"><g id="_1" data-name=" 1"><path class="cls-2" d="M109.74,4.08c-3.41-2-8.06-1.74-13.18,1.21A32.08,32.08,0,0,0,89,11.56l19,11.06a32.08,32.08,0,0,1,7.57-6.27c5.18-3,9.8-3.21,13.18-1.27Z"/><path class="cls-3" d="M86.29,8.57C84,7.24,80.9,7.41,77.47,9.39c-.52.3-1,.65-1.56,1l19,11.06a11.16,11.16,0,0,1,1.56-1c3.43-2,6.54-2.14,8.82-.82Z"/><path class="cls-4" d="M71.12,1.08c-2.87-1.67-6.77-1.46-11.07,1C52.18,6.6,45.74,17.19,44.52,26.85l19,11.06c1.22-9.66,7.69-20.25,15.57-24.83,4.3-2.47,8.2-2.68,11.07-1Z"/><path class="cls-5" d="M44.52,26.85a15.53,15.53,0,0,0-6.45,2.23c-8.8,5.07-16,17.34-16.54,28l19,11.06c.58-10.64,7.74-22.91,16.54-28A15.53,15.53,0,0,1,63.52,38Z"/><path class="cls-6" d="M21.54,57a14.9,14.9,0,0,0-5.8,2.07C7,64.08,0,76.63,0,87.08c0,5.28,1.88,9,4.85,10.71l19,11.06c-3-1.72-4.82-5.44-4.85-10.71,0-10.41,7-22.93,15.74-28a14.9,14.9,0,0,1,5.84-2Z"/><path class="cls-7" d="M115.6,16.33A32.09,32.09,0,0,0,108,22.6c-2-4-6.41-5.1-11.52-2.16-.52.3-1,.65-1.56,1C94.3,12,87.43,8.29,79.08,13.09c-7.87,4.57-14.34,15.16-15.53,24.82a15.53,15.53,0,0,0-6.44,2.17c-8.8,5.07-16,17.34-16.54,28a14.91,14.91,0,0,0-5.83,2C26,75.08,19,87.63,19,98.08s7.19,14.73,15.94,9.7l80.89-46.59c10.41-6,18.78-20.89,18.72-33.26S126,10.34,115.6,16.33Z"/><polygon class="cls-8" points="77.97 52.68 76.03 51.56 76.07 62.94 78 64.06 77.97 52.68"/><polygon class="cls-9" points="82.02 37.65 80.08 36.52 71 54.47 72.93 55.59 82.02 37.65"/><polygon class="cls-10" points="91.18 45.06 82.02 37.65 72.93 55.59 77.97 52.68 78 64.06 82.09 61.71 86.17 59.35 86.13 47.97 91.18 45.06"/><path class="cls-11" d="M99.74,39.08c0,12.17-5,26-19.62,33.35-10.93,5.49-19.21,1.21-19.24-11S69.4,34.43,80,28.32,99.74,26.91,99.74,39.08ZM80.11,70.25c9.53-5.5,17.25-18.88,17.22-29.83s-7.06-14.84-16.59-9.34-17,18-17,29,6.84,15.67,16.37,10.17"/><path class="cls-10" d="M101.23,40.32c0,12.17-8.52,27-19.11,33.1s-19.21,1.21-19.24-11S71.4,35.42,82,29.31,101.2,28.15,101.23,40.32ZM82.11,71.25c9.53-5.5,17.25-18.88,17.22-29.83S91.53,26.08,82,31.54,64.74,50.42,64.74,61.37s7.81,15.38,17.34,9.88"/><polygon class="cls-12" points="62.63 87.57 49.33 95.25 49.33 86.52 62.63 78.84 62.63 87.57"/><path class="cls-13" d="M58.4,93.77V91.69l-5.66-3.31v2.08a.33.33,0,0,0,.14.3l5.65,3.32A.33.33,0,0,1,58.4,93.77Z"/><path class="cls-14" d="M59.23,84.23a.33.33,0,0,0-.34,0l-5.72,3.3,5.69,3.32,5.72-3.3a.33.33,0,0,1,.34,0Z"/><path class="cls-15" d="M53.17,87.56a1,1,0,0,0-.47.81l5.69,3.32a1,1,0,0,1,.47-.81Z"/><path class="cls-12" d="M65.06,87.85c0-.3-.21-.42-.47-.27l-5.72,3.3a1,1,0,0,0-.47.81v2.08c0,.3.21.42.48.27l5.72-3.3a1,1,0,0,0,.47-.81Z"/><g id="Axonometric_Cylinder" data-name="Axonometric Cylinder"><path id="Cylinder_face" data-name="Cylinder face" class="cls-12" d="M63.3,90.32c.68-.39,1.22-.07,1.22.71a2.7,2.7,0,0,1-1.22,2.12c-.67.39-1.22.07-1.22-.71A2.7,2.7,0,0,1,63.3,90.32Z"/><path id="Cylinder_body" data-name="Cylinder body" class="cls-16" d="M62.45,93.24l-1.54-.89a.85.85,0,0,1-.37-.8,2.7,2.7,0,0,1,1.2-2.11.86.86,0,0,1,.86-.09l1.54.89a.86.86,0,0,0-.86.09,2.7,2.7,0,0,0-1.22,2.12A.85.85,0,0,0,62.45,93.24Z"/></g><path class="cls-17" d="M102.47,168.81,74.22,152.49A5.18,5.18,0,0,1,71.64,148V99A5.72,5.72,0,0,0,68.74,94L63.9,91.23c-.57-.33-1.34,1-.77,1.34L68,95.36A4.17,4.17,0,0,1,70.05,99V148a6.73,6.73,0,0,0,3.36,5.81l28.33,16.32a.77.77,0,0,0,.77-1.34Z"/><polygon class="cls-12" points="46.22 97.04 32.91 104.73 32.91 95.99 46.22 88.31 46.22 97.04"/><path class="cls-13" d="M42,103.25v-2.08l-5.69-3.32v2.08a.33.33,0,0,0,.14.3l5.69,3.32A.33.33,0,0,1,42,103.25Z"/><path class="cls-14" d="M42.82,93.7a.33.33,0,0,0-.34,0l-5.74,3.38,5.69,3.32,5.72-3.3a.33.33,0,0,1,.34,0Z"/><path class="cls-15" d="M36.74,97.08a1,1,0,0,0-.47.81L42,101.21a1,1,0,0,1,.47-.81Z"/><path class="cls-12" d="M48.64,97.32c0-.3-.21-.42-.47-.27l-5.72,3.3a1,1,0,0,0-.47.81v2.08c0,.3.21.42.48.27l5.72-3.3a1,1,0,0,0,.47-.81Z"/><g id="Axonometric_Cylinder-2" data-name="Axonometric Cylinder-2"><path id="Cylinder_face-2" data-name="Cylinder face-2" class="cls-12" d="M46.89,99.8c.67-.39,1.22-.07,1.22.71a2.7,2.7,0,0,1-1.22,2.12c-.68.39-1.22.07-1.22-.71A2.7,2.7,0,0,1,46.89,99.8Z"/><path id="Cylinder_body-2" data-name="Cylinder body-2" class="cls-18" d="M46,102.71l-1.54-.89a.85.85,0,0,1-.37-.8,2.7,2.7,0,0,1,1.22-2.12.86.86,0,0,1,.86-.09l1.54.89a.86.86,0,0,0-.86.09,2.7,2.7,0,0,0-1.22,2.12A.85.85,0,0,0,46,102.71Z"/></g><path class="cls-17" d="M86.06,178.28,57.81,162a5.18,5.18,0,0,1-2.58-4.47V108.44a5.72,5.72,0,0,0-2.86-4.95l-4.84-2.79c-.57-.33-1.34,1-.77,1.34l4.84,2.79a4.17,4.17,0,0,1,2.08,3.61v49.05A6.73,6.73,0,0,0,57,163.3l28.25,16.31a.77.77,0,0,0,.77-1.34Z"/><path class="cls-19" d="M336.41,224.77l-50.26.74-72.68,42.75H199.09L74.46,196.08l90.79-54.21,78.32,16.92,93.76,62.84a1.71,1.71,0,0,1-.92,3.14Z"/><g id="_14" data-name=" 14"><polygon class="cls-20" points="282.92 111.88 148.03 33.4 148.03 136.84 282.92 215.23 282.92 111.88"/><polygon class="cls-21" points="281.12 112.95 149.99 36.5 149.99 134.48 280.98 210.7 281.12 112.95"/><polygon class="cls-22" points="286.14 110.02 150.93 31.8 148.03 33.4 282.92 111.88 286.14 110.02"/><polygon class="cls-23" points="199.05 264.36 64.16 185.97 64.17 189.86 199.06 268.25 199.05 264.36"/><polygon class="cls-24" points="282.67 216.09 147.78 137.7 64.16 185.97 199.05 264.36 282.67 216.09"/><polygon class="cls-25" points="282.67 216.09 282.67 219.98 199.06 268.25 199.05 264.36 282.67 216.09"/><polygon class="cls-26" points="282.92 215.23 282.92 111.88 286.14 110.02 286.14 213.33 282.92 215.23"/><path class="cls-27" d="M129.39,180.08l41,23.68a2.13,2.13,0,0,0,1.93,0l4.62-2.68a.59.59,0,0,0,0-1.11l-41-23.68a2.13,2.13,0,0,0-1.93,0L129.4,179a.59.59,0,0,0,0,1.13Zm94.2,16.2,4.61-2.66a2.13,2.13,0,0,1,1.93,0l5.48,3.17a.59.59,0,0,1,0,1.11L231,200.56a2.13,2.13,0,0,1-1.93,0l-5.48-3.17a.59.59,0,0,1,0-1.1Zm-8.86-4,5.48,3.17a2.13,2.13,0,0,0,1.93,0l4.61-2.66a.59.59,0,0,0,0-1.11l-5.48-3.17a2.13,2.13,0,0,0-1.93,0l-4.6,2.67a.59.59,0,0,0,0,1.11Zm-8.86-5.11,5.48,3.17a2.13,2.13,0,0,0,1.93,0l4.61-2.66a.59.59,0,0,0,0-1.11l-5.48-3.17a2.13,2.13,0,0,0-1.93,0l-4.61,2.68a.59.59,0,0,0,0,1.1ZM197,182.08l5.48,3.17a2.13,2.13,0,0,0,1.93,0l4.61-2.66a.59.59,0,0,0,0-1.11l-5.48-3.17a2.13,2.13,0,0,0-1.93,0L197,181a.59.59,0,0,0,0,1.11ZM188.16,177l5.48,3.17a2.13,2.13,0,0,0,1.93,0l4.61-2.66a.59.59,0,0,0,0-1.11l-5.44-3.19a2.13,2.13,0,0,0-1.93,0l-4.61,2.66a.59.59,0,0,0,0,1.11Zm-8.86-5.11,5.48,3.17a2.13,2.13,0,0,0,1.93,0l4.61-2.66a.59.59,0,0,0,0-1.11l-5.47-3.18a2.13,2.13,0,0,0-1.93,0l-4.61,2.66a.59.59,0,0,0,0,1.1Zm-8.86-5.11,5.48,3.17a2.13,2.13,0,0,0,1.93,0l4.61-2.66a.59.59,0,0,0,0-1.11L177,163a2.13,2.13,0,0,0-1.93,0l-4.61,2.66a.59.59,0,0,0,0,1.09Zm-8.86-5.11,5.48,3.17a2.13,2.13,0,0,0,1.93,0l4.61-2.66a.59.59,0,0,0,0-1.11l-5.48-3.17a2.13,2.13,0,0,0-1.93,0l-4.61,2.66a.59.59,0,0,0,0,1.09Zm-8.84-5.14,5.48,3.17a2.13,2.13,0,0,0,1.93,0l4.61-2.66a.59.59,0,0,0,0-1.11l-5.48-3.17a2.13,2.13,0,0,0-1.93,0l-4.61,2.66a.59.59,0,0,0,0,1.11ZM141,149.74l8.34,4.81a2.13,2.13,0,0,0,1.93,0l4.61-2.66a.59.59,0,0,0,0-1.11L147.57,146a2.13,2.13,0,0,0-1.93,0L141,148.63a.59.59,0,0,0,0,1.11Zm89.8,80.34,5.48,3.17a2.13,2.13,0,0,0,1.93,0l4.61-2.66a.59.59,0,0,0,0-1.11l-5.48-3.17a2.13,2.13,0,0,0-1.93,0L230.83,229a.59.59,0,0,0,0,1.11ZM222,225l5.48,3.17a2.13,2.13,0,0,0,1.93,0l4.61-2.66a.59.59,0,0,0,0-1.11l-5.48-3.17a2.13,2.13,0,0,0-1.93,0L222,223.86a.59.59,0,0,0,0,1.1Zm-8.86-5.11,5.48,3.17a2.13,2.13,0,0,0,1.93,0l4.61-2.66a.59.59,0,0,0,0-1.11l-5.47-3.18a2.13,2.13,0,0,0-1.93,0l-4.61,2.66a.59.59,0,0,0,0,1.11Zm9.62,14.9,5.48,3.17a2.13,2.13,0,0,0,1.93,0l4.61-2.66a.59.59,0,0,0,0-1.11L229.27,231a2.13,2.13,0,0,0-1.93,0l-4.6,2.65a.59.59,0,0,0,0,1.11Zm-8.86-5.11,5.48,3.17a2.13,2.13,0,0,0,1.93,0l4.61-2.66a.59.59,0,0,0,0-1.11l-5.48-3.17a2.13,2.13,0,0,0-1.93,0l-4.61,2.66a.59.59,0,0,0,0,1.1ZM205,224.54l5.48,3.17a2.13,2.13,0,0,0,1.93,0l4.61-2.66a.59.59,0,0,0,0-1.11l-5.48-3.17a2.13,2.13,0,0,0-1.93,0L205,223.43a.59.59,0,0,0,0,1.1Zm7.46-24.15,8.34,4.81a2.13,2.13,0,0,0,1.93,0l4.61-2.66a.59.59,0,0,0,0-1.11L219,196.62a2.13,2.13,0,0,0-1.93,0l-4.61,2.66a.59.59,0,0,0,0,1.1Zm-8.86-5.11,5.48,3.17a2.13,2.13,0,0,0,1.93,0l4.61-2.66a.59.59,0,0,0,0-1.11l-5.48-3.17a2.13,2.13,0,0,0-1.93,0l-4.61,2.66a.59.59,0,0,0,0,1.1Zm-8.87-5.13,5.48,3.17a2.13,2.13,0,0,0,1.93,0l4.61-2.66a.59.59,0,0,0,0-1.11l-5.48-3.17a2.13,2.13,0,0,0-1.93,0l-4.61,2.7a.59.59,0,0,0,0,1.07Zm-8.82-5.07,5.48,3.17a2.13,2.13,0,0,0,1.93,0l4.61-2.66a.59.59,0,0,0,0-1.11l-5.48-3.17a2.13,2.13,0,0,0-1.93,0L185.92,184a.59.59,0,0,0,0,1.11ZM177.06,180l5.48,3.17a2.13,2.13,0,0,0,1.93,0l4.61-2.66a.59.59,0,0,0,0-1.11l-5.48-3.17a2.13,2.13,0,0,0-1.93,0l-4.61,2.66a.63.63,0,0,0-.16.85c0,.07.11.13.16.22Zm-8.86-5.11,5.48,3.17a2.13,2.13,0,0,0,1.93,0l4.61-2.66a.59.59,0,0,0,0-1.11l-5.48-3.18a2.13,2.13,0,0,0-1.93,0l-4.61,2.66a.59.59,0,0,0,0,1.08Zm-8.86-5.11,5.48,3.17a2.13,2.13,0,0,0,1.93,0l4.61-2.66a.59.59,0,0,0,0-1.11L165.88,166a2.13,2.13,0,0,0-1.93,0l-4.61,2.66a.59.59,0,0,0,0,1.06Zm-8.86-5.11,5.48,3.17a2.13,2.13,0,0,0,1.93,0l4.61-2.66a.59.59,0,0,0,0-1.11L157,160.87a2.13,2.13,0,0,0-1.93,0l-4.61,2.66a.59.59,0,0,0,0,1.06Zm-8.86-5.11,5.48,3.17a2.13,2.13,0,0,0,1.93,0l4.61-2.66a.59.59,0,0,0,0-1.11l-5.48-3.17a2.13,2.13,0,0,0-1.93,0l-4.61,2.66a.59.59,0,0,0,0,1.06Zm-8.88-5.16,5.48,3.17a2.13,2.13,0,0,0,1.93,0l4.61-2.66a.59.59,0,0,0,0-1.11l-5.48-3.17a2.13,2.13,0,0,0-1.93,0l-4.61,2.65a.59.59,0,0,0,0,1.12Zm74.71,52.33,5.48,3.17a2.13,2.13,0,0,0,1.93,0l4.61-2.66a.59.59,0,0,0,0-1.11L214,202.93a2.13,2.13,0,0,0-1.93,0l-4.61,2.66a.59.59,0,0,0,0,1.1Zm-8.86-5.11,5.48,3.17a2.13,2.13,0,0,0,1.93,0l4.61-2.66a.59.59,0,0,0,0-1.11l-5.48-3.17a2.13,2.13,0,0,0-1.93,0l-4.61,2.66a.59.59,0,0,0,.05,1.1Zm-8.85-5.12,5.48,3.17a2.13,2.13,0,0,0,1.93,0l4.61-2.66a.59.59,0,0,0,0-1.11l-5.48-3.17a2.13,2.13,0,0,0-1.93,0l-4.61,2.65a.59.59,0,0,0,0,1.12Zm-8.86-5.11,5.48,3.17a2.13,2.13,0,0,0,1.93,0l4.61-2.66a.59.59,0,0,0,0-1.11l-5.48-3.17a2.13,2.13,0,0,0-1.93,0l-4.61,2.66a.59.59,0,0,0,.05,1.11ZM191.39,216l5.48,3.17a2.13,2.13,0,0,0,1.93,0l4.61-2.66a.59.59,0,0,0,0-1.11l-5.48-3.17a2.13,2.13,0,0,0-1.93,0l-4.61,2.66a.59.59,0,0,0,0,1.1Zm-8.86-5.11L188,214a2.13,2.13,0,0,0,1.93,0l4.61-2.66a.59.59,0,0,0,0-1.11l-5.43-3.18a2.13,2.13,0,0,0-1.93,0l-4.61,2.66a.56.56,0,0,0-.59.55.54.54,0,0,0,.59.55Zm-8.79-5.12,5.48,3.17a2.13,2.13,0,0,0,1.93,0l4.61-2.66a.59.59,0,0,0,0-1.11L180.28,202a2.13,2.13,0,0,0-1.93,0l-4.61,2.66a.59.59,0,0,0,0,1.11ZM120.54,175l5.48,3.17a2.13,2.13,0,0,0,1.93,0l4.61-2.66a.59.59,0,0,0,0-1.11l-5.48-3.17a2.13,2.13,0,0,0-1.93,0l-4.61,2.66a.59.59,0,0,0,0,1.11Zm-11.6-6.65,8.34,4.82a2.13,2.13,0,0,0,1.93,0l4.61-2.66a.59.59,0,0,0,0-1.11l-8.34-4.82a2.13,2.13,0,0,0-1.93,0l-4.61,2.66a.58.58,0,0,0-.4.72A.55.55,0,0,0,108.94,168.33Zm63.14,17.91,5.48,3.17a2.13,2.13,0,0,0,1.93,0l4.61-2.66a.59.59,0,0,0,0-1.11l-5.48-3.17a2.13,2.13,0,0,0-1.93,0l-4.62,2.61a.59.59,0,0,0,0,1.16Zm-8.86-5.11,5.48,3.17a2.13,2.13,0,0,0,1.93,0l4.61-2.66a.59.59,0,0,0,0-1.11l-5.5-3.18a2.13,2.13,0,0,0-1.93,0L163.2,180a.59.59,0,0,0,0,1.12ZM154.36,176l5.48,3.17a2.13,2.13,0,0,0,1.93,0l4.61-2.66a.59.59,0,0,0,0-1.11l-5.48-3.17a2.13,2.13,0,0,0-1.93,0l-4.61,2.66a.59.59,0,0,0,0,1.11Zm-8.86-5.11,5.48,3.17a2.13,2.13,0,0,0,1.93,0l4.61-2.66a.59.59,0,0,0,0-1.11l-5.47-3.23a2.13,2.13,0,0,0-1.93,0l-4.61,2.66a.59.59,0,0,0,0,1.17Zm-8.86-5.11,5.48,3.17a2.13,2.13,0,0,0,1.93,0l4.61-2.66a.59.59,0,0,0,0-1.11L143.18,162a2.13,2.13,0,0,0-1.93,0l-4.61,2.66a.59.59,0,0,0,0,1.1Zm-11.7-6.72,8.34,4.81a2.13,2.13,0,0,0,1.93,0l4.61-2.66a.59.59,0,0,0,0-1.11l-8.34-4.81a2.13,2.13,0,0,0-1.93,0L124.94,158a.59.59,0,0,0,0,1.11Zm71.45,50.64,8.35,4.76a2.13,2.13,0,0,0,1.93,0l4.61-2.66a.59.59,0,0,0,0-1.11l-8.34-4.81a2.13,2.13,0,0,0-1.93,0l-4.61,2.66a.59.59,0,0,0,0,1.11Zm-8.86-5.11,5.48,3.17a2.13,2.13,0,0,0,1.93,0l4.61-2.66a.59.59,0,0,0,0-1.11l-5.48-3.17a2.13,2.13,0,0,0-1.93,0l-4.61,2.66a.59.59,0,0,0,0,1.06Zm-8.86-5.11,5.48,3.17a2.13,2.13,0,0,0,1.93,0l4.61-2.66a.59.59,0,0,0,0-1.11l-5.48-3.17a2.13,2.13,0,0,0-1.93,0l-4.61,2.66a.59.59,0,0,0,0,1.05Zm-8.86-5.11,5.48,3.17a2.13,2.13,0,0,0,1.93,0l4.61-2.66a.59.59,0,0,0,0-1.11l-5.48-3.17a2.13,2.13,0,0,0-1.93,0l-4.61,2.66a.59.59,0,0,0,0,1.05ZM161,189.28l5.48,3.17a2.13,2.13,0,0,0,1.93,0l4.61-2.66a.59.59,0,0,0,0-1.11l-5.48-3.17a2.13,2.13,0,0,0-1.93,0L161,188.08a.59.59,0,0,0,0,1.14Zm-8.84-5.2,5.48,3.17a2.13,2.13,0,0,0,1.93,0l4.61-2.66a.59.59,0,0,0,0-1.11l-5.48-3.17a2.13,2.13,0,0,0-1.93,0L152.11,183a.59.59,0,0,0,0,1.11ZM143.25,179l5.48,3.17a2.13,2.13,0,0,0,1.93,0l4.61-2.66a.59.59,0,0,0,0-1.11l-5.48-3.17a2.13,2.13,0,0,0-1.93,0l-4.61,2.66a.59.59,0,0,0,0,1.13Zm-8.86-5.11,5.48,3.17a2.13,2.13,0,0,0,1.93,0l4.61-2.66a.59.59,0,0,0,0-1.11L141,170.08a2.13,2.13,0,0,0-1.93,0l-4.61,2.66a.59.59,0,0,0,0,1.14Zm-8.86-5.11,5.48,3.17a2.13,2.13,0,0,0,1.93,0l4.61-2.66a.59.59,0,0,0,0-1.11L132.07,165a2.13,2.13,0,0,0-1.93,0l-4.61,2.66a.59.59,0,0,0,0,1.13Zm-8.79-5.09,5.48,3.17a2.13,2.13,0,0,0,1.93,0l4.61-2.66a.59.59,0,0,0,0-1.11l-5.48-3.17a2.13,2.13,0,0,0-1.93,0l-4.61,2.65a.59.59,0,0,0,0,1.12Zm138.33,52.42,5.48,3.17a2.13,2.13,0,0,0,1.93,0l4.61-2.66a.59.59,0,0,0,0-1.11l-5.48-3.17a2.13,2.13,0,0,0-1.93,0L255.07,215a.59.59,0,0,0,0,1.11ZM246.21,211l5.48,3.17a2.13,2.13,0,0,0,1.93,0l4.61-2.66a.59.59,0,0,0,0-1.11l-5.49-3.18a2.13,2.13,0,0,0-1.93,0l-4.61,2.66a.59.59,0,0,0,0,1.12Zm-8.86-5.11,5.48,3.17a2.13,2.13,0,0,0,1.93,0l4.61-2.66a.59.59,0,0,0,0-1.11l-5.47-3.18a2.13,2.13,0,0,0-1.93,0l-4.61,2.66a.6.6,0,0,0-.32.78.68.68,0,0,0,.32.34Zm-8.08,4.66,5.48,3.17a2.13,2.13,0,0,0,1.93,0l4.61-2.66a.59.59,0,0,0,0-1.11l-5.48-3.17a2.13,2.13,0,0,0-1.93,0l-4.61,2.66a.59.59,0,0,0,0,1.11Zm-7.83,4.56,23.05,13.31a2.65,2.65,0,0,0,2.4,0l12.11-7a.73.73,0,0,0,0-1.38l-13.9-8a2.65,2.65,0,0,0-2.4,0l-6.07,3.51a1.5,1.5,0,0,1-1.35,0l-7.74-4.44a1.77,1.77,0,0,0-1.6,0l-4.51,2.6a.73.73,0,0,0,0,1.4Z"/><path class="cls-28" d="M170.6,202.54l-41-23.77,4.62-2.67a1.53,1.53,0,0,1,1.34,0l41,23.77-4.62,2.67A1.53,1.53,0,0,1,170.6,202.54Zm26.61,15.27-5.47-3.25,4.61-2.67a1.41,1.41,0,0,1,.67-.15,1.38,1.38,0,0,1,.67.16l5.48,3.26-4.62,2.67a1.53,1.53,0,0,1-1.34,0Zm7.81-4.65-8.34-4.91,4.62-2.67a1.53,1.53,0,0,1,1.34,0l8.34,4.91-4.62,2.67A1.53,1.53,0,0,1,205,213.16Zm-16.67-.47-5.48-3.26,4.61-2.67a1.41,1.41,0,0,1,.67-.15,1.38,1.38,0,0,1,.67.16L194.3,210l-4.56,2.68a1.53,1.53,0,0,1-1.34,0Zm24.91-4.16-5.52-3.24,4.62-2.67a1.53,1.53,0,0,1,1.34,0l5.48,3.25-4.61,2.67a1.56,1.56,0,0,1-1.34,0Zm-33.77-1L174,204.27l4.61-2.67a1.41,1.41,0,0,1,.67-.15,1.38,1.38,0,0,1,.67.16l5.48,3.26-4.62,2.67a1.53,1.53,0,0,1-1.34,0Zm13.81-1.18-5.48-3.25,4.62-2.67a1.53,1.53,0,0,1,1.34,0l5.48,3.26-4.62,2.67a1.53,1.53,0,0,1-1.34,0Zm27.8-2.53L212.74,199l4.62-2.67a1.53,1.53,0,0,1,1.34,0l8.34,4.91-4.62,2.67a1.53,1.53,0,0,1-1.34,0Zm-16.7-.45-5.48-3.26,4.61-2.67a1.41,1.41,0,0,1,.67-.15,1.39,1.39,0,0,1,.67.16l5.48,3.25-4.61,2.73a1.53,1.53,0,0,1-1.34,0ZM126.24,177l-5.5-3.2,4.61-2.67a1.41,1.41,0,0,1,.67-.15,1.38,1.38,0,0,1,.67.16l5.48,3.26L127.56,177a1.41,1.41,0,0,1-.67.15,1.38,1.38,0,0,1-.63-.16Zm58.2,24.27L179,198.08l4.62-2.67a1.53,1.53,0,0,1,1.34,0l5.48,3.26-4.62,2.67a1.53,1.53,0,0,1-1.34,0Zm44.9-2L223.86,196l4.62-2.67a1.53,1.53,0,0,1,1.34,0l5.48,3.25-4.56,2.71a1.53,1.53,0,0,1-1.34,0Zm-33.8-.93-5.47-3.22,4.61-2.67a1.41,1.41,0,0,1,.67-.15,1.38,1.38,0,0,1,.67.16l5.48,3.26-4.62,2.67a1.53,1.53,0,0,1-1.34,0Zm13.84-1.2-5.48-3.26,4.62-2.67a1.53,1.53,0,0,1,1.34,0l5.48,3.26-4.6,2.65a1.53,1.53,0,0,1-1.34,0Zm-33.8-.94-5.48-3.26,4.61-2.67a1.41,1.41,0,0,1,.67-.15,1.38,1.38,0,0,1,.67.16l5.48,3.25-4.62,2.67a1.53,1.53,0,0,1-1.34,0Zm44.9-2L215,190.9l4.61-2.67a1.41,1.41,0,0,1,.67-.15,1.38,1.38,0,0,1,.67.16l5.48,3.25-4.62,2.67a1.53,1.53,0,0,1-1.34,0Zm-33.8-.93L181.2,190l4.61-2.67a1.41,1.41,0,0,1,.67-.15,1.38,1.38,0,0,1,.67.16l5.48,3.26L188,193.24a1.53,1.53,0,0,1-1.34,0Zm13.84-1.2L195,188.77l4.62-2.67a1.53,1.53,0,0,1,1.34,0l5.48,3.26L201.86,192A1.53,1.53,0,0,1,200.52,192Zm-33.78-1-5.48-3.26,4.61-2.67a1.41,1.41,0,0,1,.67-.15,1.38,1.38,0,0,1,.67.16l5.48,3.25-4.6,2.67a1.53,1.53,0,0,1-1.34,0Zm44.9-2-5.48-3.26,4.58-2.74a1.41,1.41,0,0,1,.67-.15,1.39,1.39,0,0,1,.67.16l5.48,3.26L213,189.08a1.53,1.53,0,0,1-1.34,0Zm-33.8-.93-5.48-3.26,4.61-2.67a1.41,1.41,0,0,1,.67-.15,1.38,1.38,0,0,1,.67.16l5.48,3.25-4.6,2.6a1.41,1.41,0,0,1-.67.15,1.38,1.38,0,0,1-.67-.15Zm13.84-1.2-5.48-3.26,4.62-2.67a1.53,1.53,0,0,1,1.34,0l5.48,3.25L193,186.94a1.53,1.53,0,0,1-1.34,0Zm-33.8-.94-5.48-3.26,4.61-2.67a1.41,1.41,0,0,1,.67-.15,1.38,1.38,0,0,1,.67.16l5.48,3.26L159.21,186a1.53,1.53,0,0,1-1.34,0Zm44.9-2-5.48-3.26,4.61-2.67a1.41,1.41,0,0,1,.67-.15,1.39,1.39,0,0,1,.67.16l5.48,3.26L204.11,184a1.53,1.53,0,0,1-1.34,0Zm-33.8-.93-5.48-3.26,4.61-2.67a1.41,1.41,0,0,1,.67-.15,1.38,1.38,0,0,1,.67.16l5.48,3.25-4.61,2.67a1.41,1.41,0,0,1-.67.15A1.38,1.38,0,0,1,169,183Zm13.84-1.2-5.48-3.26L182,176a1.41,1.41,0,0,1,.67-.15,1.38,1.38,0,0,1,.67.16l5.48,3.26-4.62,2.67a1.53,1.53,0,0,1-1.34,0Zm-33.8-.94-5.48-3.25,4.61-2.67a1.41,1.41,0,0,1,.67-.15,1.39,1.39,0,0,1,.67.16l5.48,3.26L150.36,181a1.41,1.41,0,0,1-.67.15,1.38,1.38,0,0,1-.65-.27Zm44.9-2-5.48-3.26,4.61-2.67a1.41,1.41,0,0,1,.67-.15,1.38,1.38,0,0,1,.67.16l5.48,3.25-4.61,2.67a1.41,1.41,0,0,1-.67.15,1.38,1.38,0,0,1-.65-.29Zm-33.8-.93-5.48-3.26,4.61-2.67a1.41,1.41,0,0,1,.67-.15,1.38,1.38,0,0,1,.67.16l5.48,3.26L161.46,178a1.41,1.41,0,0,1-.67.15,1.38,1.38,0,0,1-.65-.3Zm13.84-1.2-5.48-3.26,4.61-2.67a1.41,1.41,0,0,1,.67-.15,1.38,1.38,0,0,1,.67.16l5.48,3.26-4.62,2.67a1.53,1.53,0,0,1-1.34,0Zm-33.8-.94-5.42-3.4,4.61-2.67a1.41,1.41,0,0,1,.67-.15,1.38,1.38,0,0,1,.67.16l5.45,3.27-4.61,2.67a1.41,1.41,0,0,1-.67.15,1.38,1.38,0,0,1-.68-.17Zm44.9-2-5.48-3.26,4.61-2.67a1.41,1.41,0,0,1,.67-.15,1.38,1.38,0,0,1,.67.16L191,171.2l-4.61,2.67a1.41,1.41,0,0,1-.67.15,1.38,1.38,0,0,1-.64-.33Zm-33.8-.93-5.48-3.26,4.61-2.67a1.41,1.41,0,0,1,.67-.15,1.38,1.38,0,0,1,.67.16l5.51,3.06-4.61,2.67a1.41,1.41,0,0,1-.67.15,1.38,1.38,0,0,1-.68-.14ZM117.54,172l-8.34-4.91,4.61-2.67a1.41,1.41,0,0,1,.67-.15,1.38,1.38,0,0,1,.67.16l8.34,4.91L118.87,172a1.53,1.53,0,0,1-1.34,0Zm47.56-.28-5.48-3.26,4.61-2.67a1.41,1.41,0,0,1,.67-.15,1.39,1.39,0,0,1,.67.16l5.48,3.26-4.62,2.67a1.53,1.53,0,0,1-1.34,0Zm-33.8-.94-5.48-3.26,4.61-2.67a1.41,1.41,0,0,1,.67-.15,1.38,1.38,0,0,1,.67.16l5.48,3.25-4.61,2.67a1.41,1.41,0,0,1-.67.15,1.38,1.38,0,0,1-.64-.32Zm44.9-2-5.46-3.47,4.61-2.67a1.41,1.41,0,0,1,.67-.15,1.38,1.38,0,0,1,.67.16l5.48,3.26-4.61,2.67a1.41,1.41,0,0,1-.67.15,1.38,1.38,0,0,1-.66-.16Zm-33.8-.93-5.48-3.26,4.61-2.67a1.41,1.41,0,0,1,.67-.15,1.38,1.38,0,0,1,.67.16l5.48,3.25-4.61,2.46a1.41,1.41,0,0,1-.67.15,1.39,1.39,0,0,1-.64-.16Zm13.84-1.2-5.5-3.48,4.61-2.67a1.41,1.41,0,0,1,.67-.15,1.38,1.38,0,0,1,.67.16l5.48,3.25-4.61,2.67a1.41,1.41,0,0,1-.67.15,1.38,1.38,0,0,1-.62-.15Zm-33.8-.94L117,162.46l4.61-2.67a1.41,1.41,0,0,1,.67-.15,1.38,1.38,0,0,1,.67.16l5.48,3.26-4.61,2.67a1.41,1.41,0,0,1-.67.15,1.38,1.38,0,0,1-.64-.38Zm44.9-2-5.48-3.26,4.61-2.67a1.41,1.41,0,0,1,.67-.15,1.38,1.38,0,0,1,.67.16l5.48,3.26-4.55,2.41a1.41,1.41,0,0,1-.67.15,1.38,1.38,0,0,1-.69-.15Zm-33.8-.93-8.34-4.91,4.61-2.67a1.41,1.41,0,0,1,.67-.15,1.38,1.38,0,0,1,.67.16l8.34,4.91-4.61,2.67a1.41,1.41,0,0,1-.67.15,1.38,1.38,0,0,1-.64-.42ZM228.43,237,223,233.77l4.61-2.67a1.41,1.41,0,0,1,.67-.15,1.38,1.38,0,0,1,.67.16l5.48,3.26L229.77,237a1.41,1.41,0,0,1-.67.15,1.38,1.38,0,0,1-.64-.42Zm-81-75.44-5.5-3.51,4.61-2.67a1.41,1.41,0,0,1,.67-.15,1.38,1.38,0,0,1,.67.16l5.48,3.25-4.62,2.66a1.41,1.41,0,0,1-.67.15,1.38,1.38,0,0,1-.65-.15Zm11.1-3L153,155.08l4.61-2.67a1.41,1.41,0,0,1,.67-.15,1.38,1.38,0,0,1,.67.16l5.48,3.25-4.61,2.67a1.41,1.41,0,0,1-.67.15,1.38,1.38,0,0,1-.67-.14Zm78,73.74-5.48-3.25,4.62-2.67a1.53,1.53,0,0,1,1.34,0l5.48,3.26-4.6,2.41a1.53,1.53,0,0,1-1.34,0Zm-16.95-.44-5.48-3.26,4.61-2.67a1.41,1.41,0,0,1,.67-.15,1.38,1.38,0,0,1,.67.16l5.48,3.26-4.61,2.67a1.41,1.41,0,0,1-.67.15,1.38,1.38,0,0,1-.64-.39Zm-81-75.44-5.48-3.26,4.61-2.67a1.41,1.41,0,0,1,.67-.15,1.38,1.38,0,0,1,.67.16l5.48,3.26-4.61,2.67a1.41,1.41,0,0,1-.67.15,1.38,1.38,0,0,1-.69-.39Zm11.1-3-8.34-4.91,4.61-2.67a1.41,1.41,0,0,1,.67-.15,1.39,1.39,0,0,1,.67.16l8.34,4.9L151,153.45a1.41,1.41,0,0,1-.67.15,1.38,1.38,0,0,1-.68-.36Zm95.07,74L221.7,214.14v-.36l4.51-2.61a1.06,1.06,0,0,1,.5-.11,1.1,1.1,0,0,1,.51.11l7.75,4.41a2.2,2.2,0,0,0,2,0l6.07-3.51a2.06,2.06,0,0,1,1.81,0l13.9,8v.36l-12.11,7a2.06,2.06,0,0,1-1.81,0Zm-17-.27-5.48-3.26,4.62-2.67a1.53,1.53,0,0,1,1.34,0l5.48,3.25-4.62,2.67a1.53,1.53,0,0,1-1.34,0Zm-17-.64-5.48-3.26,4.61-2.67a1.41,1.41,0,0,1,.67-.15,1.38,1.38,0,0,1,.67.16l5.53,3.26-4.61,2.67a1.41,1.41,0,0,1-.67.15A1.39,1.39,0,0,1,210.74,226.54Zm8.09-4.68-5.48-3.26,4.61-2.67a1.41,1.41,0,0,1,.67-.15,1.38,1.38,0,0,1,.67.16l5.48,3.25-4.62,2.67a1.53,1.53,0,0,1-1.34,0Zm42-3.77-5.48-3.25,4.61-2.67a1.41,1.41,0,0,1,.67-.15,1.38,1.38,0,0,1,.67.16l5.48,3.26-4.64,2.64a1.41,1.41,0,0,1-.67.15,1.38,1.38,0,0,1-.67-.15ZM252,213l-5.48-3.26,4.62-2.67a1.53,1.53,0,0,1,1.34,0l5.48,3.26L253.32,213a1.56,1.56,0,0,1-1.34,0ZM235,212.53l-5.48-3.26,4.61-2.67a1.41,1.41,0,0,1,.67-.15,1.39,1.39,0,0,1,.67.16l5.48,3.26-4.61,2.67a1.41,1.41,0,0,1-.67.15,1.38,1.38,0,0,1-.7-.15Zm8.08-4.66-5.48-3.26,4.62-2.67a1.53,1.53,0,0,1,1.34,0l5.48,3.25-4.61,2.67a1.56,1.56,0,0,1-1.34,0Z"/><path class="cls-29" d="M123,209.62,156.47,229h0l21.71-12.54h0l-33.44-19.33h0L123,209.58Z"/><path class="cls-30" d="M231.39,234.76l-1.85-1.1,1-.56,1.85,1.1Zm8.09-4.68-1.85-1.1,1-.56,1.85,1.1Zm-16.95-.44-1.85-1.1,1-.56,1.85,1.1Zm8.09-4.68-1.85-1.1,1-.56,1.85,1.1Zm-16.95-.44-1.85-1.1,1-.56,1.85,1.1Zm8.09-4.68-1.85-1.1,1-.56,1.85,1.1Zm42-3.76-1.85-1.1,1-.56,1.85,1.1ZM254.88,211l-1.85-1.1,1-.56,1.85,1.1ZM238,210.52l-1.85-1.1,1-.56L239,210Zm8.07-4.66-1.85-1.1,1-.56,1.85,1.1Zm-45.78,9.92-1.85-1.1,1-.56,1.85,1.1Zm7.81-4.65-4.69-2.76,1-.55,4.69,2.76Zm-16.66-.47-1.85-1.1,1-.56,1.85,1.1Zm24.91-4.16-1.85-1.1,1-.56,1.85,1.1Zm-33.77-1-1.85-1.1,1-.56,1.85,1.1Zm13.81-1.18-1.85-1.1,1-.56,1.85,1.1Zm27.8-2.53-4.69-2.71,1-.55,4.69,2.76Zm-16.7-.45-1.85-1.1,1-.56,1.85,1.1Zm-77.64-26.4-1.85-1.1,1-.56,1.85,1.1Zm57.68,24.26-1.85-1.1,1-.56,1.85,1.1Zm44.9-2-1.84-1.12,1-.56,1.85,1.1Zm-33.8-.93-1.84-1.09,1-.56,1.85,1.1Zm13.84-1.2-1.85-1.1,1-.56,1.85,1.1Zm-33.8-.94-1.88-1.05,1-.56,1.85,1.1Zm44.9-2-1.85-1.1,1-.56,1.85,1.1Zm-33.8-.93-1.85-1.1,1-.56,1.85,1.1Zm13.84-1.2-1.85-1.1,1-.56,1.85,1.1Zm-33.82-.92-1.85-1.1,1-.56,1.85,1.1Zm44.9-2-1.85-1.1,1-.56,1.85,1.1Zm-33.8-.93-1.85-1.1,1-.56,1.85,1.1Zm13.84-1.2-1.85-1.1,1-.56,1.85,1.1Zm-33.8-.94-1.85-1.1,1-.56,1.85,1.1Zm44.9-2-1.85-1.1,1-.56,1.85,1.1Zm-33.8-.93-1.85-1.1,1-.56,1.85,1.1Zm13.84-1.2-1.85-1.1,1-.56,1.85,1.1Zm-33.8-.94-1.85-1.1,1-.56,1.85,1.1Zm44.9-2-1.86-1.1,1-.56,1.85,1.1Zm-33.8-.94-1.85-1.1,1-.56,1.86,1.1ZM177,174.8l-1.85-1.1,1-.56,1.85,1.1Zm-33.8-.94-1.85-1.1,1-.56,1.85,1.1Zm44.9-2-1.85-1.1,1-.56,1.85,1.1Zm-33.8-.93-1.85-1.1,1-.56,1.86,1.1ZM120.54,170l-4.64-2.92,1-.55,4.69,2.76Zm47.56-.28-1.85-1.1,1-.56,1.85,1.1Zm-33.8-.94-1.85-1.1,1-.56,1.85,1.1Zm44.9-2-1.85-1.1,1-.56,1.85,1.1Zm-33.8-.93-1.85-1.1,1-.56,1.85,1.1Zm13.84-1.2-1.85-1.1,1-.56,1.85,1.1Zm-33.8-.94-1.85-1.1,1-.56,1.85,1.1Zm44.9-2-1.85-1.1,1-.56,1.85,1.1Zm-33.8-.93L131.85,158l1-.55,4.69,2.76Zm13.85-1.2-1.85-1.1,1-.56,1.85,1.1Zm11.1-3-1.85-1.1,1-.56,1.86,1.1Zm-20-2.14-1.75-1.36,1-.56,1.86,1.1Zm11.1-3-4.69-2.76,1-.55,4.69,2.76Z"/><path class="cls-31" d="M144.74,197.08h0l33.48,19.33h0l-1.46.84-32-18.49h0l-20.32,11.7-1.46-.84h0Z"/></g><path class="cls-32" d="M147,137.08a3.55,3.55,0,0,1,.57-.9,2.68,2.68,0,0,1,.68-.56l135,78.52a2.68,2.68,0,0,0-.68.56,3.55,3.55,0,0,0-.57.9,2.81,2.81,0,0,0-.26,1.12V217l-135-78.55v-.25A2.81,2.81,0,0,1,147,137.08Z"/><ellipse class="cls-33" cx="283.53" cy="214.33" rx="1.65" ry="1.19" transform="translate(-43.58 353.36) rotate(-60.11)"/><path class="cls-34" d="M222.79,284c1.81-4.62,8.65-13.54,19-17.47,8.27-3.15,18.71-6.37,31.09.8a14.8,14.8,0,0,1,1.34.88c4.48,3.29,4.34,8.82-.44,12.17-8.79,6.16-19.47,12-19.47,12a37.09,37.09,0,0,1-8.36,3.33c-7.11,1.81-13.42,1.16-18.77-2-3.38-2-5.06-4.53-5-7.11A8.38,8.38,0,0,1,222.79,284Z"/><path class="cls-35" d="M257.53,268.61l3.49-1.9a3.52,3.52,0,0,1,3.93.61c.86.74.47,1-.55,1.54l-3.51,1.65a4.16,4.16,0,0,1-3.65,0C256.31,269.89,256.51,269.08,257.53,268.61Z"/><g class="cls-36"><path class="cls-37" d="M259.79,265.79a3.39,3.39,0,0,1,3.43-.11l-5,8C255.74,271.83,257,267.51,259.79,265.79Z"/><path class="cls-38" d="M258.26,269.74a7.32,7.32,0,0,1,2.92-3.62,2.94,2.94,0,0,1,1.69-.45,1.69,1.69,0,0,1,.71.22,3.17,3.17,0,0,1,1.46,2c.86,3-2.66,8.17-6.24,6.27C257.74,273.49,257.49,271.73,258.26,269.74Z"/><path class="cls-39" d="M260.74,270.64a4.58,4.58,0,0,1,1.82-2.26,1.83,1.83,0,0,1,1-.28c1,.09,1.36,1.37.78,2.86a4.58,4.58,0,0,1-1.82,2.27,1.82,1.82,0,0,1-1,.28C260.53,273.42,260.18,272.13,260.74,270.64Z"/><path class="cls-40" d="M257.91,269.53l.14-.34a8,8,0,0,1,1.3-2,6,6,0,0,1,1.48-1.25,2.93,2.93,0,0,1,1.69-.45,1.69,1.69,0,0,1,.71.22l.35.2a1.69,1.69,0,0,0-.71-.22,2.94,2.94,0,0,0-1.69.45,6,6,0,0,0-1.48,1.25,8,8,0,0,0-1.3,2l-.14.34c-.77,2-.51,3.75.53,4.36l-.35-.2C257.4,273.28,257.14,271.53,257.91,269.53Z"/></g><path class="cls-35" d="M226.52,291.45c5.35,3.11,11.66,3.76,18.77,2a37.1,37.1,0,0,0,8.36-3.33s10.68-5.78,19.47-12c2.66-1.86,3.87-4.4,3.67-6.84,1.47,3.06.47,6.68-3,9.14-8.79,6.16-19.47,12-19.47,12A37.08,37.08,0,0,1,246,295.7c-7.11,1.81-13.42,1.16-18.77-2-3.15-1.83-4.8-4.19-5-6.59A10.67,10.67,0,0,0,226.52,291.45Z"/><path class="cls-35" d="M226.84,292.55c5.35,3.11,11.66,3.76,18.77,2a37.08,37.08,0,0,0,8.36-3.33s10.68-5.78,19.47-12c2.84-2,4-4.75,3.6-7.35,1.08,2.92,0,6.24-3.29,8.55-8.79,6.16-19.47,12-19.47,12a37.08,37.08,0,0,1-8.36,3.33c-7.11,1.81-13.42,1.16-18.77-2-2.92-1.7-4.54-3.85-4.92-6.07A10.08,10.08,0,0,0,226.84,292.55Z"/></g><path class="cls-41" d="M169.36,101.25a7.27,7.27,0,0,1-1-.74l-.33-.34a6.64,6.64,0,0,1-1.64-4.25c0-2,1.39-2.92,3-2a6.4,6.4,0,0,1,2.86,5.22l1.06.59a8.7,8.7,0,0,0-3.89-7.12c-2.2-1.22-4,0-4.1,2.75a9,9,0,0,0,2,5.53,9.22,9.22,0,0,0,.65.71,9,9,0,0,0,1.18.91l.73.42h0L178,107.4l0-1.31-8.1-4.48Zm.66-1.72h0l-.56-.32a5,5,0,0,1-.43-.31,3.14,3.14,0,0,1-.31-.31,2.84,2.84,0,0,1-.63-1.75c0-.87.6-1.26,1.3-.87a2.75,2.75,0,0,1,1.23,2.22l1,.56a5,5,0,0,0-2.22-4c-1.26-.7-2.31,0-2.34,1.57a5.14,5.14,0,0,0,1.2,3.22,3.85,3.85,0,0,0,.39.41,6.42,6.42,0,0,0,.72.54l.59.34h0l8.13,4.5,0-1.27Zm-5.42.42-1.07-.59.18-8.62-1.56-.86,0-1.33L164.81,90ZM161,89.89l0,1.27,1.17.65L162,98.5l1,.57.17-8Z"/><path class="cls-42" d="M183.66,104.8a4.62,4.62,0,0,1,1.8,1.83,4.78,4.78,0,0,1,.66,2.5,1.93,1.93,0,0,1-.75,1.74,1.82,1.82,0,0,1-1.84-.2l-2.92-1.62.2-9.46,4.79,2.65,0,1.78-3.29-1.82,0,1.8Zm-.09,4.14c.6.33,1,.13,1.06-.63a2,2,0,0,0-1-1.76l-1.42-.78-.05,2.39Z"/><path class="cls-42" d="M190.28,107.58l1.5.83-2.13,5.66c-.6,1.6-1.57,2-2.93,1.11l0-1.62c.74.42,1.14.32,1.42-.39l-2.06-7.9,1.49.83,1.36,5.35Z"/><path class="cls-42" d="M197.33,118.32l-1.62-.9-1.13-2.71-1.23,1.4-1.62-.9,2.07-2.34-1.84-4.37,1.62.9,1.06,2.52,1.14-1.3,1.61.89-2,2.24Z"/><path class="cls-42" d="M201.9,114l0,1.68-2.32-1.29-.11,5.08L198,118.7l.14-6.76Z"/><path class="cls-42" d="M206.57,116.6l1.41.78-.14,6.76-1.41-.78,0-.8c-.44.43-1,.43-1.8,0a4.75,4.75,0,0,1-1.85-2.07,6.19,6.19,0,0,1-.72-3,2.56,2.56,0,0,1,.83-2.1,1.63,1.63,0,0,1,1.9,0,4.11,4.11,0,0,1,1.75,2ZM204.94,121a1,1,0,0,0,1.09.07,1.31,1.31,0,0,0,.46-1.14,3.12,3.12,0,0,0-.41-1.61,2.68,2.68,0,0,0-1.07-1.14,1,1,0,0,0-1.09-.06,1.31,1.31,0,0,0-.45,1.13,3.26,3.26,0,0,0,.4,1.61A2.72,2.72,0,0,0,204.94,121Z"/><path class="cls-42" d="M213.92,120.67l-.14,6.76-1.41-.78.11-5.08-1.5-.83,0,2.26c0,2.1-.83,2.61-2.36,1.55l0-1.64c.57.5.9.25.92-.79l.08-3.84Z"/><path class="cls-42" d="M219.49,123.75l0,1.68-1.7-.94-.11,5.08-1.41-.78.11-5.08-1.72-1,0-1.68Z"/><path class="cls-42" d="M221.13,128.8a2.87,2.87,0,0,0,1.51,2.12c.53.3,1,.3,1.23,0l1.12,1.44c-.55.66-1.36.71-2.41.13a5.39,5.39,0,0,1-2.15-2.21,6,6,0,0,1-.76-3,2.45,2.45,0,0,1,.86-2.09,1.88,1.88,0,0,1,2.09.12,4.87,4.87,0,0,1,2,2.12,6.08,6.08,0,0,1,.73,3,4.93,4.93,0,0,1-.07.69Zm2.78.17a2.82,2.82,0,0,0-1.32-2.11c-.75-.42-1.27-.2-1.46.57Z"/><path class="cls-42" d="M231.38,131.2a6.07,6.07,0,0,1,.73,3,2.54,2.54,0,0,1-.84,2.11,1.62,1.62,0,0,1-1.9,0,4.05,4.05,0,0,1-1.74-2l-.07,3.5-1.41-.78.2-9.46,1.41.78,0,.8c.43-.43,1-.43,1.79,0A4.76,4.76,0,0,1,231.38,131.2Zm-2.23,3.25a1,1,0,0,0,1.09.07,1.31,1.31,0,0,0,.46-1.14,3.12,3.12,0,0,0-.41-1.61,2.68,2.68,0,0,0-1.07-1.14,1,1,0,0,0-1.09-.06,1.31,1.31,0,0,0-.45,1.13,3.26,3.26,0,0,0,.4,1.61A2.72,2.72,0,0,0,229.15,134.45Z"/><path class="cls-42" d="M237.11,133.51l1,.58-.14,6.76-1.37-.76.08-3.84-2.64,2.42-1-.58.14-6.76,1.37.76-.08,3.84Z"/><path class="cls-42" d="M243.81,137.22l-.14,6.76-1.37-.76,0-2.11-.49-.27-1.3,1.41-1.62-.9,1.41-1.56a4.23,4.23,0,0,1-1.1-2.76,1.56,1.56,0,0,1,.58-1.33,1.31,1.31,0,0,1,1.44.1Zm-2.47.2c-.4-.22-.71-.07-.73.43a1.38,1.38,0,0,0,.69,1.19l1.07.59,0-1.62Z"/><path class="cls-42" d="M251,142.35a5.06,5.06,0,0,1,1.69,3.67c0,1-.3,1.59-.84,1.84a2.06,2.06,0,0,1-1.95-.24,5.51,5.51,0,0,1-2.57-3.45l1.3-.21a2.58,2.58,0,0,0,1.31,1.83c.77.43,1.23.19,1.25-.61a2.22,2.22,0,0,0-1.19-2l-.33-.18-.55-1.4,1.55-1.6-3-1.65,0-1.74,4.79,2.65,0,1.54Z"/><path class="cls-42" d="M253.56,149.3c-.35-.65-.33-1.38,0-1.62s1,.08,1.31.72.33,1.38,0,1.62S253.91,149.94,253.56,149.3Z"/><path class="cls-42" d="M256.56,150a9.6,9.6,0,0,1-.73-4,4.74,4.74,0,0,1,.88-3.12c.56-.6,1.32-.63,2.27-.11a5.15,5.15,0,0,1,2.22,2.59,9.49,9.49,0,0,1,.73,4,4.8,4.8,0,0,1-.88,3.14c-.55.6-1.31.63-2.27.1A5.23,5.23,0,0,1,256.56,150Zm2.39-5.45c-1-.56-1.57.24-1.61,2.25s.47,3.39,1.48,4,1.58-.23,1.62-2.23S260,145.07,258.94,144.51Z"/></g></g></svg>