<svg xmlns="http://www.w3.org/2000/svg" xmlns:xlink="http://www.w3.org/1999/xlink" viewBox="0 0 131.7 72.44"><defs><style>.cls-1{isolation:isolate;}.cls-2{fill:url(#Безымянный_градиент_2581);}.cls-3{fill:url(#Безымянный_градиент_2581-2);}.cls-4{fill:url(#Безымянный_градиент_2581-3);}.cls-5{fill:#015354;}.cls-6{fill:#d4d3d3;}.cls-7{fill:#dbdadb;}.cls-8{fill:url(#Безымянный_градиент_191);}.cls-9{fill:#cabad3;}.cls-10{fill:url(#Безымянный_градиент_190);}.cls-11{fill:#d4c7da;}.cls-12{fill:#cac7cd;}.cls-13{fill:url(#Безымянный_градиент_196);}.cls-14{fill:#fffefe;}.cls-15{fill:#d8d5d9;}.cls-16{fill:#232323;}.cls-17{fill:#fffcfd;}.cls-18{fill:url(#Безымянный_градиент_194);}.cls-19{fill:#2f3030;}.cls-20{fill:#3d3d3e;}.cls-21{fill:#f3f1f3;}.cls-22{fill:#303232;}.cls-23{fill:url(#Безымянный_градиент_193);}</style><linearGradient id="Безымянный_градиент_2581" x1="9462.81" y1="26.79" x2="9546.99" y2="26.79" gradientTransform="matrix(-1, 0, 0, 1, 9547, 0)" gradientUnits="userSpaceOnUse"><stop offset="0" stop-color="#0b7c7b"/><stop offset="1" stop-color="#05a2a7"/></linearGradient><linearGradient id="Безымянный_градиент_2581-2" x1="9431.37" y1="46.66" x2="9509.59" y2="46.66" xlink:href="#Безымянный_градиент_2581"/><linearGradient id="Безымянный_градиент_2581-3" x1="9431.37" y1="56.33" x2="9478.16" y2="56.33" xlink:href="#Безымянный_градиент_2581"/><linearGradient id="Безымянный_градиент_191" x1="10126.13" y1="-24.91" x2="10107.75" y2="6.94" gradientTransform="matrix(-0.95, 0, 0, 0.95, 9653.46, 32.79)" gradientUnits="userSpaceOnUse"><stop offset="0" stop-color="#f3f1f2"/><stop offset="0.28" stop-color="#fbfafa"/><stop offset="0.64" stop-color="#fff"/><stop offset="0.95" stop-color="#f5f4f4"/><stop offset="1" stop-color="#f3f1f2"/></linearGradient><linearGradient id="Безымянный_градиент_190" x1="10094.19" y1="-11.32" x2="10076.41" y2="19.47" gradientTransform="matrix(-0.95, 0, 0, 0.95, 9653.46, 32.79)" gradientUnits="userSpaceOnUse"><stop offset="0" stop-color="#f3f1f2"/><stop offset="0.05" stop-color="#f5f4f4"/><stop offset="0.36" stop-color="#fff"/><stop offset="0.72" stop-color="#fbfafa"/><stop offset="1" stop-color="#f3f1f2"/></linearGradient><linearGradient id="Безымянный_градиент_196" x1="-14957.28" y1="23.82" x2="-14955.23" y2="27.37" gradientTransform="translate(14320.97 32.79) scale(0.95)" gradientUnits="userSpaceOnUse"><stop offset="0" stop-color="#282929"/><stop offset="0.52" stop-color="#333434"/><stop offset="0.76" stop-color="#282929"/><stop offset="0.85" stop-color="#232323"/></linearGradient><linearGradient id="Безымянный_градиент_194" x1="-14241.06" y1="17.94" x2="-14230.11" y2="17.94" gradientTransform="translate(13645.79 32.79) scale(0.95)" gradientUnits="userSpaceOnUse"><stop offset="0" stop-color="#fffcfd"/><stop offset="0.46" stop-color="#fffefe"/><stop offset="1" stop-color="#fff"/></linearGradient><linearGradient id="Безымянный_градиент_193" x1="-14715.93" y1="38.4" x2="-14714.58" y2="40.54" gradientTransform="translate(14058.6 32.79) scale(0.95)" gradientUnits="userSpaceOnUse"><stop offset="0" stop-color="#f5f4f5"/><stop offset="1" stop-color="#e5e1e4"/></linearGradient></defs><title>book</title><g id="Layer_2" data-name="Layer 2"><g id="Layer_1-2" data-name="Layer 1"><g class="cls-1"><path class="cls-2" d="M0,29.8,46.79,2.63l31.44,17.7a18.56,18.56,0,0,0,3,2.18,13.38,13.38,0,0,0,1.58.78,11.67,11.67,0,0,0,1.41.48L37.4,50.95a11.81,11.81,0,0,1-1.47-.36,14,14,0,0,1-1.6-.82,19,19,0,0,1-2.89-2.27Z"/><polygon class="cls-3" points="115.63 42.37 68.84 69.54 37.41 50.95 84.19 23.78 115.63 42.37"/><polygon class="cls-4" points="68.84 70.28 115.62 43.11 115.63 42.37 68.84 69.54 68.84 70.28"/><path class="cls-5" d="M31.44,47.5,0,29.8v.74L31.33,48.18c.6.49,1.06.84,1.51,1.16s.7.48,1,.68.37.25.56.35.37.19.55.29c.33.18.67.36,1,.5s.94.37,1.4.52l31.46,18.6v-.74L37.4,50.95a12.55,12.55,0,0,1-3-1.26A18.57,18.57,0,0,1,31.44,47.5Z"/></g><g class="cls-1"><polygon class="cls-6" points="47.23 0.22 80.74 19.3 81.78 19.91 114.94 39.31 68.83 66.09 35.66 46.68 34.62 46.08 1.11 27 47.23 0.22"/><polygon class="cls-6" points="68.82 68.81 114.93 42.03 114.94 39.31 68.83 66.09 68.82 68.81"/><path class="cls-7" d="M34.62,46.08,1.11,27v2.72L31.93,47.08a14.57,14.57,0,0,0,3,2.15c2.37,1.37,3,1.33,3,1.35L68.82,68.81V66.09L35.66,46.68Z"/></g><path class="cls-8" d="M1.81,26.77,47.92,0a29.14,29.14,0,0,0,2.87,1.87C55.86,4.8,62.24,6.79,67.55,8.46c1.65.51,3.18,1,4.53,1.45a12.25,12.25,0,0,1,2.12,1c4.64,2.68,6.91,7.81,7.14,8.35L35.23,46c-.23-.54-2.49-5.67-7.14-8.35a12.26,12.26,0,0,0-2.12-1c-1.34-.46-2.88-.94-4.53-1.45-5.31-1.67-11.69-3.65-16.76-6.58a29.16,29.16,0,0,1-2.87-1.87Z"/><g class="cls-1"><polygon class="cls-9" points="68.72 65.7 114.82 38.93 114.78 38.6 68.68 65.38 68.72 65.7"/><path class="cls-10" d="M82.27,18.52c1.08-.63,3.14-1.17,6.25.63a16.52,16.52,0,0,1,2.12,1.48C92,21.71,93.52,23,95.17,24.4c5.29,4.45,11.67,9.83,16.74,12.76a23.85,23.85,0,0,0,2.87,1.44L68.68,65.38a23.92,23.92,0,0,1-2.87-1.44C60.73,61,54.35,55.63,49.06,51.18c-1.64-1.39-3.19-2.69-4.52-3.78a16.56,16.56,0,0,0-2.12-1.48c-3.12-1.8-5.17-1.26-6.25-.63Z"/><path class="cls-11" d="M1.81,26.77a29.13,29.13,0,0,0,2.87,1.87c5.07,2.93,11.45,4.92,16.76,6.58,1.65.51,3.19,1,4.53,1.45a12.26,12.26,0,0,1,2.12,1C32.74,40.33,35,45.46,35.23,46l-.33-.19A18.25,18.25,0,0,0,28.1,38,11.9,11.9,0,0,0,26,37c-1.33-.46-2.88-1-4.53-1.46C16.19,33.91,9.81,31.92,4.71,29a30.32,30.32,0,0,1-2.93-1.92Z"/><path class="cls-11" d="M42.42,45.92a16.56,16.56,0,0,1,2.12,1.48c1.33,1.08,2.88,2.39,4.52,3.78C54.35,55.63,60.73,61,65.81,63.94a23.92,23.92,0,0,0,2.87,1.44l0,.33a24.94,24.94,0,0,1-2.93-1.47C60.68,61.29,54.31,55.91,49,51.45c-1.64-1.39-3.19-2.69-4.52-3.76a16.08,16.08,0,0,0-2.07-1.45c-4.11-2.37-6.31-.56-6.83,0L35.26,46C35.49,45.74,37.78,43.24,42.42,45.92Z"/></g><path class="cls-12" d="M93.24,68.07a.29.29,0,0,0-.33,0c-.32.27-.06.86.27,1a.41.41,0,0,0,.36,0,.3.3,0,0,0,.16-.31A1,1,0,0,0,93.24,68.07Z"/><path class="cls-13" d="M131.7,47.42a3.55,3.55,0,0,0-.1-.6l0-.08a2.74,2.74,0,0,0-.16-.41l-.05-.1a2.63,2.63,0,0,0-.2-.32l-.07-.09a2.55,2.55,0,0,0-.27-.28l-.08-.07a2.2,2.2,0,0,0-.3-.21,1.22,1.22,0,0,0-1.13-.08c-.23.12-18.76,10.83-29.28,17.73a61.56,61.56,0,0,0-6.08,4.31l-.14.13a.44.44,0,0,0-.11.33,1.23,1.23,0,0,0,.57,1,.46.46,0,0,0,.35,0l.09,0,.71-.27c.86-.34,2.25-1,5-2.39,2.58-1.34,6.36-3.39,12-6.59,8.18-4.64,18.63-10.82,18.81-10.93a.91.91,0,0,0,.36-.4,1,1,0,0,0,.07-.15,2.21,2.21,0,0,0,.06-.28s0-.08,0-.12,0-.08,0-.12Z"/><path class="cls-14" d="M94.24,67.35a.37.37,0,0,0-.42,0l-.91.73a.29.29,0,0,1,.33,0,1,1,0,0,1,.45.76.3.3,0,0,1-.15.31l1.08-.44a.38.38,0,0,0,.2-.39A1.23,1.23,0,0,0,94.24,67.35Z"/><path class="cls-14" d="M93.14,68.24a.23.23,0,0,0-.28,0l-.89.85a.1.1,0,0,1,.12,0,.34.34,0,0,1,.16.27c0,.06,0,.1-.06.11l1.18-.37c.09,0,.14-.12.14-.25A.78.78,0,0,0,93.14,68.24Z"/><path class="cls-15" d="M92.09,69.09a.1.1,0,0,0-.12,0,.54.54,0,0,0-.18.22.16.16,0,0,0,.07.19c.09,0,.18,0,.33,0a.1.1,0,0,0,.06-.11A.34.34,0,0,0,92.09,69.09Z"/><polygon class="cls-16" points="129.61 46.84 117.65 53.75 116.67 53.17 128.62 46.27 129.61 46.84"/><g class="cls-1"><polygon class="cls-17" points="127.18 47.29 126.4 46.84 128.64 46.36 129.42 46.81 127.18 47.29"/><polygon class="cls-12" points="117.56 53.08 116.78 52.62 116.77 52.39 117.56 52.85 117.56 53.08"/><polygon class="cls-18" points="117.56 52.85 116.77 52.39 126.4 46.84 127.18 47.29 117.56 52.85"/><polygon class="cls-15" points="127.18 47.29 129.42 46.81 126.67 48.4 126.16 48.11 117.56 53.08 117.56 52.85 127.18 47.29"/></g><path class="cls-19" d="M76,71.44l-1,.94s0,.06.08,0l1.63-.6Z"/><path class="cls-15" d="M124.56,44.31,81.62,69.17v.77l43.19-25A3.36,3.36,0,0,0,124.56,44.31Z"/><polygon class="cls-16" points="123.86 44.71 123.86 45.49 127.38 43.44 127.38 42.67 123.86 44.71"/><path class="cls-17" d="M124.09,43.48,81.14,68.35l.47.83,42.94-24.87A7.31,7.31,0,0,0,124.09,43.48Z"/><polygon class="cls-20" points="127.38 42.67 126.91 41.84 123.4 43.88 123.86 44.71 127.38 42.67"/><path class="cls-21" d="M123.72,42.91,80.47,68l.68.39,42.94-24.87Z"/><polygon class="cls-22" points="126.91 41.84 126.23 41.45 122.73 43.48 123.4 43.88 126.91 41.84"/><path class="cls-23" d="M82.07,68.23l-2.07.1a3.33,3.33,0,0,0-1.16.58l-3.19,2.89c.38-.22.59.09.45.26l5-1.81c.19-.14.5-.27.56-.44l.67-1.44Z"/><path class="cls-17" d="M79.3,68.62c.12.3.6.12.78.25s-.95.85-.2,1A3.39,3.39,0,0,0,81,69.56c.11,0,.27,0,.31,0s-.36.35-.29.67L84,68.5l-1.46-1.75Z"/><path class="cls-21" d="M82.54,66.75l-.88.5-2.36,1.37c.13.29.59.12.77.24a.08.08,0,0,1,0,.07l3.19-1.84Z"/><path class="cls-15" d="M83.63,68l-2.79,1.61.2-.06c.11,0,.27,0,.31,0s-.36.35-.29.67l3.45-2Z"/></g></g></svg>