<svg xmlns="http://www.w3.org/2000/svg" xmlns:xlink="http://www.w3.org/1999/xlink" viewBox="0 0 60.3 94.11"><defs><style>.cls-1{isolation:isolate;}.cls-2{fill:url(#GradientFill_5);}.cls-3{fill:#e0e0d9;mix-blend-mode:multiply;}.cls-4{fill:url(#Безымянный_градиент_3250);}.cls-5{fill:#e9e8e7;}.cls-6{fill:url(#Безымянный_градиент_236);}.cls-7{fill:url(#Безымянный_градиент_236-2);}.cls-8{fill:#7ea9d9;}.cls-9{fill:#c7dbeb;}.cls-10{fill:#f9ab84;}.cls-11{fill:#f5f6f6;}.cls-12{fill:#fed6b1;}.cls-13{fill:#fbba96;}.cls-14{fill:url(#Безымянный_градиент_1102);}.cls-15{fill:url(#GradientFill_4);}.cls-16{fill:url(#Безымянный_градиент_1047);}.cls-17{fill:url(#GradientFill_6);}.cls-18{fill:url(#Безымянный_градиент_3255);}.cls-19{fill:url(#Безымянный_градиент_236-3);}.cls-20{fill:#a8b2b0;}.cls-21{fill:#829591;}.cls-22{fill:url(#GradientFill_4-2);}.cls-23{fill:#868686;}.cls-24{fill:url(#Безымянный_градиент_236-4);}.cls-25{fill:url(#Безымянный_градиент_1047-2);}.cls-26{fill:url(#GradientFill_4-3);}.cls-27{fill:url(#Безымянный_градиент_3236);}.cls-28{fill:url(#GradientFill_6-2);}.cls-29{fill:url(#GradientFill_6-3);}</style><linearGradient id="GradientFill_5" y1="71.5" x2="60.3" y2="71.5" gradientUnits="userSpaceOnUse"><stop offset="0" stop-color="#b8bab9"/><stop offset="1" stop-color="#8e9090"/></linearGradient><linearGradient id="Безымянный_градиент_3250" x1="16" y1="66.52" x2="48.53" y2="66.52" gradientUnits="userSpaceOnUse"><stop offset="0" stop-color="#9fa1a1"/><stop offset="0.31" stop-color="#9b9d9d"/><stop offset="0.61" stop-color="#909292"/><stop offset="0.89" stop-color="#7e7f80"/><stop offset="1" stop-color="#757677"/></linearGradient><linearGradient id="Безымянный_градиент_236" x1="-10538.99" y1="61.73" x2="-10532.49" y2="61.73" gradientTransform="matrix(-1, 0, 0, 1, -10500.86, 0)" gradientUnits="userSpaceOnUse"><stop offset="0" stop-color="#05a2a7"/><stop offset="1" stop-color="#0b7c7b"/></linearGradient><linearGradient id="Безымянный_градиент_236-2" x1="-10539.97" y1="74.55" x2="-10533.03" y2="74.55" xlink:href="#Безымянный_градиент_236"/><linearGradient id="Безымянный_градиент_1102" x1="-10547.85" y1="24.75" x2="-10511.67" y2="24.75" gradientTransform="matrix(-1, 0, 0, 1, -10500.86, 0)" gradientUnits="userSpaceOnUse"><stop offset="0" stop-color="#4a4c4c"/><stop offset="1" stop-color="#a68f77"/></linearGradient><linearGradient id="GradientFill_4" x1="-212.02" y1="29.08" x2="-203.73" y2="43.43" gradientTransform="translate(226.63)" gradientUnits="userSpaceOnUse"><stop offset="0" stop-color="#d2d5d5"/><stop offset="0.28" stop-color="#bbbebe"/><stop offset="0.44" stop-color="#afb2b3"/><stop offset="0.79" stop-color="#7c7f7f"/><stop offset="1" stop-color="#7c7f7f"/></linearGradient><linearGradient id="Безымянный_градиент_1047" x1="-10524.31" y1="36.96" x2="-10512.31" y2="36.96" gradientTransform="matrix(-1, 0, 0, 1, -10500.86, 0)" gradientUnits="userSpaceOnUse"><stop offset="0" stop-color="#6a6c6c"/><stop offset="1" stop-color="#8d8f8f"/></linearGradient><linearGradient id="GradientFill_6" x1="-215.56" y1="31.84" x2="-203.71" y2="43.43" gradientTransform="translate(226.63)" gradientUnits="userSpaceOnUse"><stop offset="0" stop-color="#b4b5b1"/><stop offset="0.52" stop-color="#b1b2ad"/><stop offset="1" stop-color="#a6a7a3"/></linearGradient><linearGradient id="Безымянный_градиент_3255" x1="-10520.66" y1="38.65" x2="-10510.29" y2="38.65" gradientTransform="matrix(-1, 0, 0, 1, -10500.86, 0)" gradientUnits="userSpaceOnUse"><stop offset="0" stop-color="#0b7c7b"/><stop offset="0.45" stop-color="#0b7e7d"/><stop offset="0.67" stop-color="#0a8485"/><stop offset="0.84" stop-color="#089092"/><stop offset="0.98" stop-color="#05a0a4"/><stop offset="1" stop-color="#05a2a7"/></linearGradient><linearGradient id="Безымянный_градиент_236-3" x1="-10519.75" y1="38.91" x2="-10510.72" y2="38.91" xlink:href="#Безымянный_градиент_236"/><linearGradient id="GradientFill_4-2" x1="13.39" y1="20.14" x2="45.33" y2="20.14" gradientTransform="matrix(1, 0, 0, 1, 0, 0)" xlink:href="#GradientFill_4"/><linearGradient id="Безымянный_градиент_236-4" x1="-10514.91" y1="39.83" x2="-10512.13" y2="39.83" xlink:href="#Безымянный_градиент_236"/><linearGradient id="Безымянный_градиент_1047-2" x1="-10540.95" y1="8.1" x2="-10514.88" y2="8.1" xlink:href="#Безымянный_градиент_1047"/><linearGradient id="GradientFill_4-3" x1="-194.82" y1="-1.05" x2="-214.61" y2="31.71" xlink:href="#GradientFill_4"/><linearGradient id="Безымянный_градиент_3236" x1="-10543.73" y1="49.51" x2="-10538.17" y2="49.51" gradientTransform="matrix(-1, 0, 0, 1, -10500.86, 0)" gradientUnits="userSpaceOnUse"><stop offset="0" stop-color="#8d8f8f"/><stop offset="1" stop-color="#6a6c6c"/></linearGradient><linearGradient id="GradientFill_6-2" x1="-10543.18" y1="49.03" x2="-10539.36" y2="49.03" gradientTransform="matrix(-1, 0, 0, 1, -10500.86, 0)" xlink:href="#GradientFill_6"/><linearGradient id="GradientFill_6-3" x1="-10539.12" y1="47.47" x2="-10520.89" y2="47.47" gradientTransform="matrix(-1, 0, 0, 1, -10500.86, 0)" xlink:href="#GradientFill_6"/></defs><title>callcenter</title><g class="cls-1"><g id="Layer_2" data-name="Layer 2"><g id="Layer_1-2" data-name="Layer 1"><path class="cls-2" d="M60.19,70a35.06,35.06,0,0,0-2.61-8.63,28.13,28.13,0,0,0-4.23-5.9l0,0,0,0c-.4-.36-2.59-2.32-3.06-2.67-1.71-1.26-5.81-3.67-7.8-3.79-1.15-.08-2.26-.12-3.42-.12l.45,2.65a.67.67,0,0,0-.28,0,.77.77,0,0,0-.28,0h-.12a1.63,1.63,0,0,0-.44,0h0c-.48,0-.91,0-1.39,0h-.16a1,1,0,0,0-.32,0,8.42,8.42,0,0,0-1.39.08,54.1,54.1,0,0,0-5.68.64h-.2c-.08,0-.12,0-.2,0-.76.12-1.51.24-2.27.4-1.43.28-2.82.6-4.21,1a3.32,3.32,0,0,0-.83.24l-1.22.33h0l-.11,0c-1.07.3-2.13.61-3.18,1l-.07,0,0,0a19.46,19.46,0,0,0-2.75,1.45l0,0h0c-7.76,4.29-11.41,9.67-13.28,14A13.49,13.49,0,0,0,3.63,85.27a23.1,23.1,0,0,0,4.69,3.83c.27.18.52.37.8.54a17.42,17.42,0,0,0,2.31,1.18,30.47,30.47,0,0,0,3.72,1.54h0l.09-.06c11.34,4.09,25.69.82,35.39-5.22C57,83.13,61,75.14,60.19,70ZM33.56,76c-1.37-4.18-3.22-9.4-4.56-11.39l-5.87-3.8a27.41,27.41,0,0,1,2.74-.65c.83-.32,1.67-.6,2.5-.91h.08s.08,0,.16,0a.3.3,0,0,1,.16,0,70.47,70.47,0,0,1,7.67-2.15c.28,0,.56-.12.87-.16L39,56.54c1.79-.32,1.38-3.2,3.21-3.36l.51-.05c.16,3.91-3.41,16.17-5.62,23.36C35.92,76.3,34.75,76.16,33.56,76Z"/><path class="cls-3" d="M22.33,51.55s-6,3.17-6.38,6.26-.82,5.86-.14,8.26,2.77,7.42,2.77,7.42l5.57.77-3.91,4.39,17.15,7.22,9.44-17.66L43.34,66.3,48,64l.5-1.22c-.13-1.86-.12-7.21-2.83-9.45a19.63,19.63,0,0,0-7-3.68Z"/><path class="cls-4" d="M45.82,51.29a15.84,15.84,0,0,0-6.64-3.36L22.87,50.81s-6,3.17-6.38,6.26-.82,5.92-.14,8.33,2.77,7.36,2.77,7.36l5.57.77-3.91,4.39L37.87,85.1l9.5-17.63-3.49-1.91,4.58-2.83S49.21,54.08,45.82,51.29Z"/><path class="cls-5" d="M37.3,81.9S27.59,66.84,25.22,63.31l-5-4.33a3.81,3.81,0,0,1,.3-4.65c.4-.12.81-.23,1.22-.34v0a8.35,8.35,0,0,1,.83-.19c1.38-.36,2.78-.68,4.2-1,.75-.16,1.52-.28,2.27-.4.08,0,.12,0,.2,0h.19a53.21,53.21,0,0,1,5.68-.63,8.35,8.35,0,0,1,1.4-.08,1,1,0,0,1,.32,0H37c.48,0,.91,0,1.4,0h0a1.6,1.6,0,0,1,.43,0h0l2.68,2.62C41.87,59.61,37.3,81.9,37.3,81.9Z"/><polygon class="cls-6" points="33.85 55.99 31.63 63.75 35.11 67.47 38.13 61.22 33.85 55.99"/><polygon class="cls-7" points="35.07 65.19 32.17 69.98 32.17 73.97 37.63 83.91 39.12 72.47 37.97 68.29 35.07 65.19"/><path class="cls-8" d="M21.5,60.87l-1.41-2.09a3.6,3.6,0,0,1,1.61-5.35c5.61-2.25,8.74-2.81,14.74-3.59l4.38,3.88A171.25,171.25,0,0,0,21.5,60.87Z"/><path class="cls-9" d="M37.29,57.56,38.89,53l-1-1.81-1.16,1.15S35.37,57.19,37.29,57.56Z"/><path class="cls-10" d="M22.42,43.34l-.15,10.45s1.18,4.22,5,5,6.93.37,8.4-.43c1.3-.71,1.32-1,1.32-1l.15-10.32Z"/><path class="cls-11" d="M37,52.38c.3,4.3-1.77,5.9-1.77,5.9l2.46,3.95s2.93-2.18,3.72-4.58a5.3,5.3,0,0,0-1.6-6.51Z"/><path class="cls-12" d="M20.7,45.8h0a26.33,26.33,0,0,0,5.88,4.88c11.46,6.77,17.79-3,19.15-11.28C46.6,34.16,48,26,47.06,19.18c-1.39-.94-3.48-1.4-6.6-.69-9.67,2.2-14.49,3-14.44,9s-.15,9.93-.15,9.93l-2.47,0s-3-11.06-5.94-8.34C10.92,35.09,20.94,36.37,20.7,45.8Z"/><path class="cls-13" d="M40,14.57a6.94,6.94,0,0,1,3.55.55,7.33,7.33,0,0,1,2.11,1.64,5.12,5.12,0,0,1,1.15,1.72,1,1,0,0,1,0,.75c1,2.11-3.82,2.75-4.54,2.87-5,.85-6.95-.63-10.63-.93-3.94-.32-4.24,9-4.51,13a65,65,0,0,0,1.13,17.42c-.56-.26-1.12-.55-1.71-.9A26.15,26.15,0,0,1,20.7,45.8c-1.4-8.29-10.79-12-3.23-16.77,4.81-3,5.94,8.34,5.94,8.34l2.47,0a32.61,32.61,0,0,1-1.52-10c0-.88,1.53-1.56,1.32-2.41-.32-1.32.38-1.93.67-3.07.36-1.4.67-2.81,1-4.22a1.45,1.45,0,0,1,.23-.58,1.32,1.32,0,0,1,.35-.28,7.55,7.55,0,0,1,2.81-1c1.18-.19,2.38.19,3.57-.09.27-.06.52-.18.78-.26a6.58,6.58,0,0,1,.86-.14C37.32,15.16,38.6,14.68,40,14.57Z"/><path class="cls-14" d="M10.88,26.91S10.81,39.45,20.7,45.8a12.14,12.14,0,0,0-2-6.89c-.53-.84-1.14-1.62-1.74-2.42a6.43,6.43,0,0,1-1.29-3.1,4.5,4.5,0,0,1,1.44-4,2.11,2.11,0,0,1,3,.37A20.12,20.12,0,0,1,23,35.91c.16.48.31,1,.44,1.46l2.47,0s-.29-1-.33-6.93a35.67,35.67,0,0,1,1.34-7.82c1.58-4.18,4.71-3.65,5.31-3.42a25,25,0,0,0,8.31,1.86c4,0,6.14-1.52,6.42-2.13s-.11-1.35-.22-1.84a19.4,19.4,0,0,0-.63-2.21,12.11,12.11,0,0,0-3.42-5.27C35.51,3.56,29,1.5,19.26,6.52S10.88,26.91,10.88,26.91Z"/><path class="cls-11" d="M22.31,51.14a8.58,8.58,0,0,0-2,1.51c-2,2-1.08,6.87,2.32,9.15a23.65,23.65,0,0,0,8.15,3.32l2.56-6.39s-4.5.32-7.73-1.31S22.31,51.14,22.31,51.14Z"/><path class="cls-15" d="M20,29.48a5,5,0,0,0-4.31-.91,4.35,4.35,0,0,0-2.79,3.67,10.94,10.94,0,0,0,1.33,6.93A10.74,10.74,0,0,0,17.52,43c3.26,2.21,6.43,1,7.1-2.76S23.22,31.71,20,29.48Z"/><path class="cls-16" d="M18.68,30.18a5,5,0,0,0-4.31-.91,4.35,4.35,0,0,0-2.79,3.67,10.94,10.94,0,0,0,1.33,6.93,10.74,10.74,0,0,0,3.31,3.87c3.26,2.21,6.43,1,7.1-2.76S21.92,32.42,18.68,30.18Z"/><path class="cls-17" d="M18,30.61a5,5,0,0,0-4.31-.91A3.56,3.56,0,0,0,12,30.84h0l0,0a4.38,4.38,0,0,0-.41.6l-1.25,1.8.48.91a11.38,11.38,0,0,0,1.43,6.1,10.74,10.74,0,0,0,3.31,3.87,7.41,7.41,0,0,0,.8.47l.43.82,2.19-.2h0c1.82-.12,3.25-1.47,3.68-3.84C23.31,37.67,21.21,32.84,18,30.61Z"/><path class="cls-18" d="M15.68,32.79A4.27,4.27,0,0,0,12,32a3.75,3.75,0,0,0-2.41,3.17,9.44,9.44,0,0,0,1.15,6,9.27,9.27,0,0,0,2.86,3.34c2.81,1.91,5.55.85,6.13-2.38A10.13,10.13,0,0,0,15.68,32.79Z"/><path class="cls-19" d="M15.3,33.81a3.73,3.73,0,0,0-3.24-.69A3.27,3.27,0,0,0,10,35.88a8.23,8.23,0,0,0,1,5.21A8.08,8.08,0,0,0,13.45,44c2.45,1.66,4.84.74,5.34-2.07A8.84,8.84,0,0,0,15.3,33.81Z"/><path class="cls-20" d="M13.86,37.19a1.61,1.61,0,0,0-1.4-.3,1.16,1.16,0,0,0-.55.37h0a1.41,1.41,0,0,0-.13.19l-.41.59.16.3a3.7,3.7,0,0,0,.47,2,3.49,3.49,0,0,0,1.08,1.26l.26.15.14.27.71-.06h0a1.34,1.34,0,0,0,1.2-1.25A3.82,3.82,0,0,0,13.86,37.19Z"/><path class="cls-21" d="M13.12,37.9a1.39,1.39,0,0,0-1.21-.26,1.22,1.22,0,0,0-.78,1,3.07,3.07,0,0,0,.37,1.94,3,3,0,0,0,.93,1.09,1.18,1.18,0,0,0,2-.77A3.29,3.29,0,0,0,13.12,37.9Z"/><path class="cls-5" d="M42.7,9.72l0,0-.34-.28h0l-.16-.3c-.12-.22-.27-.43-.41-.64,0,0,0,0,0,0a7.45,7.45,0,0,0-.47-.62,7.2,7.2,0,0,0-.51-.58l-.51-.5a1.74,1.74,0,0,0-.16-.14h0c-.15-.14-.31-.27-.47-.39a6.56,6.56,0,0,0-.62-.45c-.18-.12-.37-.23-.55-.34h0a.75.75,0,0,0-.11-.07l-.53-.27a10.6,10.6,0,0,0-1.37-.54,9.72,9.72,0,0,0-3-.49,10.05,10.05,0,0,0-5.09,1.38l-2,1.16a22.07,22.07,0,0,0-11,19l-.5,3.4,0,.18-.05.34-.38,2.56-.16,1.12L13.55,37l-.08.5h0l-.08.6L12,37.85l-.37-.08v-.14l0-.93,0-.58v0l-.11-2.5v-.19l0-1.16,0-.57-.31-7.37a23.68,23.68,0,0,1,3.8-12.9c.2-.32.42-.65.65-1A23.05,23.05,0,0,1,20,5.71s0,0,0,0a23.38,23.38,0,0,1,3-2.06l2-1.15a11.9,11.9,0,0,1,11.88-.11l1.47.85.58.35.19.11h0a.22.22,0,0,1,.09.05c.18.09.35.19.51.3l.31.2a0,0,0,0,1,0,0l.2.14a2.51,2.51,0,0,1,.3.23C42.3,6.06,42.31,7.37,42.7,9.72Z"/><path class="cls-22" d="M45.33,13.19A10.92,10.92,0,0,0,42.7,9.72l0,0-.34-.28h0l-.16-.3c-.12-.22-.27-.43-.41-.64,0,0,0,0,0,0a7.45,7.45,0,0,0-.47-.62,7.2,7.2,0,0,0-.51-.58l-.51-.5a1.74,1.74,0,0,0-.16-.14h0c-.15-.14-.31-.27-.47-.39a6.56,6.56,0,0,0-.62-.45c-.18-.12-.37-.23-.55-.34h0a.75.75,0,0,0-.11-.07l-.53-.27a10.6,10.6,0,0,0-1.37-.54,9.72,9.72,0,0,0-3-.49,10.05,10.05,0,0,0-5.09,1.38l-2,1.16a22.07,22.07,0,0,0-11,19v5.33l-.57,1.24v.05l-.05,1.16V38l-.38,0-.54.07-.31,0V25.62a23.85,23.85,0,0,1,3.79-12.9,10.85,10.85,0,0,1,.66-.95A23.58,23.58,0,0,1,25.31,5l2-1.16a11.86,11.86,0,0,1,8.09-1.45h0a11.46,11.46,0,0,1,2.76.85l.18.08.58.28.19.11h0a.22.22,0,0,1,.09.05c.18.09.35.19.51.3l.31.2a0,0,0,0,1,0,0l.2.14a2.51,2.51,0,0,1,.3.23A11.76,11.76,0,0,1,45.33,13.19Z"/><path class="cls-23" d="M42.15,9.09l.16.3A34.36,34.36,0,0,0,39.15,7a8.27,8.27,0,0,0-.77-.91h0a9.89,9.89,0,0,0-2-1.6,10.6,10.6,0,0,1,1.37.54l.53.27a.75.75,0,0,1,.11.07h0c.19.11.38.22.55.34a6.56,6.56,0,0,1,.62.45,4.42,4.42,0,0,1,.49.39,1.74,1.74,0,0,1,.16.14l.51.5a7.2,7.2,0,0,1,.51.58,7.45,7.45,0,0,1,.47.62s0,0,0,0C41.88,8.65,42,8.87,42.15,9.09Z"/><path class="cls-5" d="M13.12,37.9a1.39,1.39,0,0,0-1.21-.26,1.22,1.22,0,0,0-.78,1,3.07,3.07,0,0,0,.37,1.94,3,3,0,0,0,.93,1.09,1.18,1.18,0,0,0,2-.77A3.29,3.29,0,0,0,13.12,37.9Z"/><path class="cls-24" d="M12.94,38.27a1.15,1.15,0,0,0-1-.21,1,1,0,0,0-.65.85,2.53,2.53,0,0,0,.31,1.6,2.49,2.49,0,0,0,.77.9A1,1,0,0,0,14,40.76,2.72,2.72,0,0,0,12.94,38.27Z"/><path class="cls-5" d="M12.42,39.22a.67.67,0,0,0-.58-.12.58.58,0,0,0-.37.49,1.47,1.47,0,0,0,.18.93,1.44,1.44,0,0,0,.44.52.56.56,0,0,0,1-.37A1.58,1.58,0,0,0,12.42,39.22Z"/><path class="cls-25" d="M25.71,8.53l2-1.16a13,13,0,0,1,5-1.52c1.74-.2,2.83-.65,7.4.74V4l-2.75-.86c-1.89-1.2-5.59-1.22-5.59-1.22a12.31,12.31,0,0,0-1.53-.1A12.55,12.55,0,0,0,24,3.5L22,4.66c-2.55,1.47-6.05,2.71-7.88,4.93-.26.32.53,1.63.53,1.63L20.1,14.4C21.78,12.2,23.25,9.95,25.71,8.53Z"/><path class="cls-26" d="M25.37,6.12l2-1.16a13.82,13.82,0,0,1,5.09-1.7c1.74-.2,3.2-.56,7.63.73l-3-1.88a21.79,21.79,0,0,0-5.32-2A12.33,12.33,0,0,0,30.23,0,12.55,12.55,0,0,0,24,1.71L22,2.87a26.89,26.89,0,0,0-7.88,6.72l4.84,2.8C20.61,10.2,22.9,7.54,25.37,6.12Z"/><path class="cls-27" d="M37.66,49.17a1.77,1.77,0,0,0-.26,1.55,1.55,1.55,0,0,0,1.35.94,3.91,3.91,0,0,0,2.45-.57,3.84,3.84,0,0,0,1.33-1.24,1.5,1.5,0,0,0-1.09-2.49A4.19,4.19,0,0,0,37.66,49.17Z"/><path class="cls-28" d="M38.74,48.8a1.21,1.21,0,0,0-.18,1.06,1.07,1.07,0,0,0,.93.65,2.68,2.68,0,0,0,1.68-.39,2.63,2.63,0,0,0,.91-.85,1,1,0,0,0-.75-1.71A2.88,2.88,0,0,0,38.74,48.8Z"/><path class="cls-5" d="M34.25,52A8.77,8.77,0,0,1,29,50.26L20.2,43.81s-.36-.16,0-.79.81-.3.81-.3l8.77,6.45a7.43,7.43,0,0,0,6.06,1.33l1.48-.32a.66.66,0,0,1,.93.47c.19.73-.25.76-.25.76l-1.88.41A8.81,8.81,0,0,1,34.25,52Z"/><path class="cls-29" d="M38.21,50.85l-1.88.41a8.76,8.76,0,0,1-7.15-1.57l-8.76-6.45a.37.37,0,0,1-.15-.33l-.07.11c-.35.63,0,.79,0,.79L29,50.26a8.76,8.76,0,0,0,7.15,1.57L38,51.42s.33-.05.26-.59Z"/></g></g></g></svg>