<svg xmlns="http://www.w3.org/2000/svg" xmlns:xlink="http://www.w3.org/1999/xlink" viewBox="0 0 134.58 109.89"><defs><style>.cls-1{fill:none;}.cls-2{isolation:isolate;}.cls-3{fill:url(#Безымянный_градиент_304);}.cls-4{fill:url(#Безымянный_градиент_304-2);}.cls-5{fill:url(#Безымянный_градиент_304-3);}.cls-6{fill:url(#Безымянный_градиент_304-4);}.cls-7{fill:url(#Безымянный_градиент_304-5);}.cls-8{fill:#e2e1e1;}.cls-9{fill:url(#Безымянный_градиент_60);}.cls-10{fill:url(#Безымянный_градиент_60-2);}.cls-11{fill:url(#Безымянный_градиент_60-3);}.cls-12{fill:#06b0ab;}.cls-13{clip-path:url(#clip-path);}.cls-14{fill:url(#Безымянный_градиент_59);}</style><linearGradient id="Безымянный_градиент_304" x1="-9479.82" y1="6.04" x2="-9488.28" y2="20.69" gradientTransform="translate(9592.98)" gradientUnits="userSpaceOnUse"><stop offset="0" stop-color="#fff"/><stop offset="0.02" stop-color="#fefefe"/><stop offset="0.31" stop-color="#f7f8f8"/><stop offset="1" stop-color="#f5f6f6"/></linearGradient><linearGradient id="Безымянный_градиент_304-2" x1="-9500.6" y1="12.09" x2="-9504.02" y2="18.02" xlink:href="#Безымянный_градиент_304"/><linearGradient id="Безымянный_градиент_304-3" x1="-9517.81" y1="3.39" x2="-9535.66" y2="34.32" xlink:href="#Безымянный_градиент_304"/><linearGradient id="Безымянный_градиент_304-4" x1="-9542.51" y1="30.29" x2="-9561.34" y2="62.92" xlink:href="#Безымянный_градиент_304"/><linearGradient id="Безымянный_градиент_304-5" x1="-9562.68" y1="62.08" x2="-9584.52" y2="99.91" xlink:href="#Безымянный_градиент_304"/><linearGradient id="Безымянный_градиент_60" x1="4833.09" y1="51.45" x2="4864.54" y2="51.45" gradientTransform="matrix(-1, 0, 0, 1, 4932.47, 0)" gradientUnits="userSpaceOnUse"><stop offset="0" stop-color="#057c85"/><stop offset="0.65" stop-color="#04727c"/><stop offset="1" stop-color="#046a75"/></linearGradient><linearGradient id="Безымянный_градиент_60-2" x1="4854.42" y1="57.85" x2="4856.39" y2="57.85" xlink:href="#Безымянный_градиент_60"/><linearGradient id="Безымянный_градиент_60-3" x1="4850.41" y1="46.1" x2="4861.43" y2="46.1" xlink:href="#Безымянный_градиент_60"/><clipPath id="clip-path"><polygon class="cls-1" points="91.22 45.1 82.06 37.69 72.97 55.63 78.01 52.72 78.05 64.1 82.13 61.75 86.21 59.39 86.18 48.01 91.22 45.1"/></clipPath><linearGradient id="Безымянный_градиент_59" x1="4836.79" y1="50.22" x2="4871.48" y2="50.22" gradientTransform="matrix(-1, 0, 0, 1, 4932.47, 0)" gradientUnits="userSpaceOnUse"><stop offset="0" stop-color="#03a6b7"/><stop offset="0.23" stop-color="#03a1ad"/><stop offset="0.44" stop-color="#03999e"/><stop offset="0.62" stop-color="#038f95"/><stop offset="0.92" stop-color="#04737d"/><stop offset="1" stop-color="#046a75"/></linearGradient></defs><title>cloud</title><g id="Layer_2" data-name="Layer 2"><g id="Layer_1-2" data-name="Layer 1"><g class="cls-2"><path class="cls-3" d="M109.78,4.1c-3.41-2-8.06-1.74-13.18,1.21A32.08,32.08,0,0,0,89,11.58l19,11.06a32.08,32.08,0,0,1,7.57-6.27c5.11-2.95,9.76-3.19,13.18-1.21Z"/><path class="cls-4" d="M86.34,8.61c-2.28-1.33-5.39-1.16-8.82.82-.52.3-1,.65-1.56,1L95,21.5c.51-.37,1-.72,1.56-1,3.43-2,6.54-2.14,8.82-.82Z"/><path class="cls-5" d="M71.16,1.08c-2.87-1.67-6.77-1.46-11.07,1C52.22,6.64,45.74,17.23,44.56,26.88l19,11.06c1.18-9.65,7.66-20.25,15.53-24.79,4.3-2.47,8.2-2.68,11.07-1Z"/><path class="cls-6" d="M44.56,26.88a15.53,15.53,0,0,0-6.45,2.18c-8.8,5.07-16,17.34-16.54,28l19,11.06c.58-10.64,7.74-22.91,16.54-28a15.53,15.53,0,0,1,6.45-2.18Z"/><path class="cls-7" d="M21.58,57a14.9,14.9,0,0,0-5.84,2C7,64.11-.05,76.62,0,87c0,5.28,1.88,9,4.85,10.71l19,11.06c-3-1.72-4.82-5.44-4.85-10.71-.05-10.41,7-22.93,15.74-28a14.9,14.9,0,0,1,5.84-2Z"/><path class="cls-8" d="M115.64,16.37a32.09,32.09,0,0,0-7.57,6.27c-2-4-6.41-5.1-11.52-2.16-.52.3-1,.65-1.56,1-.65-9.4-7.52-13.15-15.87-8.35C71.26,17.7,64.77,28.29,63.6,37.95a15.53,15.53,0,0,0-6.45,2.18c-8.8,5.07-16,17.34-16.54,28a14.91,14.91,0,0,0-5.84,2C26,75.17,19,87.69,19,98.1s7.19,14.73,15.94,9.7L115.86,61.2c10.41-6,18.78-20.89,18.72-33.26S126,10.38,115.64,16.37Z"/></g><g class="cls-2"><path class="cls-9" d="M70.51,72.82c-.22-.1-.44-.21-.65-.34l-1.94-1.13c.21.12.43.23.65.34l.22.09.46.19.38.13.24.07.48.12.17,0,.1,0c.26.05.53.09.8.12l.28,0,.55,0H73l.36,0,.37,0,.41,0,.35-.06.44-.08.3-.07.48-.12L76,72l.52-.16.25-.08.76-.28h0l.79-.34.24-.12.57-.28.28-.14.76-.41.85-.52,0,0,.81-.54.28-.2.53-.39.33-.25.48-.38.35-.29.45-.38.36-.31.44-.4.35-.33.44-.43.32-.32.46-.47.29-.3.53-.58.2-.22.71-.83.14-.17.55-.68.63-.83.1-.14c.34-.45.66-.92,1-1.39l.18-.26q.6-.9,1.15-1.84l.14-.24q.39-.66.75-1.33l.26-.5.27-.52.36-.73.12-.25q.22-.48.44-1l.11-.26.3-.72.13-.33.27-.69.11-.31q.16-.43.31-.87l0-.12q.17-.5.32-1l.09-.32c.07-.23.13-.46.2-.69l.1-.38.16-.64.09-.38c0-.22.1-.44.14-.66l.07-.35q.08-.42.15-.83l0-.15q.08-.49.14-1l0-.27c0-.23.05-.47.07-.7s0-.22,0-.33,0-.44,0-.66,0-.21,0-.32c0-.31,0-.62,0-.92s0-.64,0-.95c0-.09,0-.17,0-.26s0-.42,0-.63,0-.24,0-.36,0-.35-.06-.52,0-.25-.06-.38-.05-.31-.08-.47L97,36.36l-.09-.41q-.06-.24-.12-.47l-.1-.36c-.06-.19-.12-.37-.18-.55l-.1-.29c-.11-.3-.24-.6-.37-.88s-.21-.43-.33-.64l0-.06q-.15-.27-.32-.53c-.18-.28-.37-.53-.56-.78l-.14-.18c-.19-.23-.39-.45-.59-.65l0-.05a8.52,8.52,0,0,0-.7-.6l-.18-.13a8.27,8.27,0,0,0-.76-.51h0l1.94,1.13a8.28,8.28,0,0,1,.76.51l.18.13a8.52,8.52,0,0,1,.7.6l0,.05c.21.2.4.42.59.65l.14.18c.2.25.39.51.56.78l0,0c.1.16.2.33.3.51l0,.06q.16.3.31.61v0c.13.28.26.57.37.88l0,.08.07.21c.06.18.12.36.18.54l0,.15.06.21q.06.23.12.47l.05.2,0,.22.08.41,0,.22c0,.08,0,.17,0,.25s0,.25.06.37,0,.13,0,.2,0,.22,0,.33,0,.24,0,.36,0,.1,0,.15,0,.32,0,.49,0,.17,0,.26v.07q0,.41,0,.83v0q0,.39,0,.78s0,.1,0,.15,0,.21,0,.31,0,.25,0,.37,0,.19,0,.29,0,.22,0,.33,0,.14,0,.22,0,.33-.05.49l0,.27v.09q-.05.43-.12.87v0l0,.14c0,.23-.08.47-.12.7l0,.14L98.8,47c0,.14-.05.27-.08.41l-.06.24-.09.38-.07.28-.09.36-.1.38,0,.18-.15.52L98,50l0,.08q-.14.45-.29.89v0l0,.11-.26.75,0,.13-.11.3-.16.41L97,53l-.13.33-.09.23-.21.49-.11.25,0,.09-.38.84,0,0-.12.24-.31.63-.05.1-.27.52L95,57.2l0,.08q-.36.67-.75,1.33l-.06.11-.08.12q-.55.93-1.15,1.84l-.06.1-.11.16c-.32.47-.64.94-1,1.39h0l-.1.13-.63.83,0,0-.51.63-.15.18h0l-.67.78,0,0-.2.22-.45.5-.08.08-.29.3-.34.35-.12.12-.32.32-.29.28-.16.15-.35.33-.25.23-.19.17-.36.31-.22.19-.23.19-.35.29-.19.15-.29.22-.33.25-.14.1-.4.28-.28.2-.07.05-.73.48h0l0,0-.68.42-.17.1-.55.31-.21.11-.28.14-.22.11-.35.17-.25.12-.1,0-.69.29h0l-.66.25-.09,0-.25.08-.34.11-.18,0-.31.08-.23.06-.25.06-.3.07-.16,0-.29,0-.35.06-.12,0-.29,0-.37,0H74.18l-.55,0h-.16l-.12,0c-.27,0-.54-.07-.8-.12h-.1l-.17,0-.48-.12-.24-.07-.3-.1-.08,0-.46-.19Z"/><polygon class="cls-10" points="78.01 52.72 76.08 51.6 76.11 62.98 78.05 64.1 78.01 52.72"/><polygon class="cls-11" points="82.06 37.69 80.13 36.56 71.04 54.51 72.97 55.63 82.06 37.69"/><polygon class="cls-12" points="91.22 45.1 82.06 37.69 72.97 55.63 78.01 52.72 78.05 64.1 82.13 61.75 86.21 59.39 86.18 48.01 91.22 45.1"/><path class="cls-14" d="M61,60.51c0-.05,0-.11,0-.16s0-.23,0-.35,0-.27,0-.41,0-.21,0-.32,0-.25,0-.37,0-.16,0-.24,0-.35.06-.53,0-.2,0-.31v-.1q.06-.48.14-1v0l0-.14c0-.27.09-.54.14-.81l0-.15.08-.38c0-.16.06-.31.1-.47l.06-.26.1-.42.08-.32.1-.39.11-.42.05-.21.16-.56.1-.36,0-.1q.15-.5.32-1h0l0-.09c.1-.29.2-.59.31-.88l.05-.14.12-.33.18-.47.12-.3.15-.37.11-.27.23-.53.12-.28,0-.1.42-.93,0,0,.12-.26.35-.71.06-.11.3-.57.24-.47,0-.08q.4-.75.83-1.48l.07-.13.22-.37.36-.59.33-.53.38-.58.12-.19.13-.18c.35-.52.72-1,1.09-1.55h0v0q.4-.54.8-1.06l0,0,.62-.76L71,36.2h0l.74-.87,0,0L72,35l.47-.53.09-.1.33-.34.36-.38.14-.14.36-.36.31-.31.18-.17.39-.36.27-.25.22-.19.39-.34.24-.21.26-.22.39-.32.2-.16.33-.25.36-.28.15-.11.45-.32.31-.22.08-.06.81-.54h0l.05,0,.75-.46.19-.11.61-.34.23-.12.31-.16.24-.13.39-.18.27-.13.11-.05.77-.33h0l.77-.29.1,0,.28-.09.39-.13.19-.05.34-.09.26-.07.27-.06.34-.07.18,0,.31-.05.39-.06.14,0,.32,0,.41,0h.4l.49,0H89l.6,0h.18l.13,0c.3,0,.6.07.9.13h.1l.18,0,.54.13.26.08.34.11.08,0,.51.21.24.1c.24.11.48.24.72.37l1.94,1.13c-.23-.14-.47-.26-.72-.37l-.24-.1-.51-.21-.42-.14-.26-.08L93,27l-.18,0-.1,0c-.29-.06-.59-.1-.9-.13l-.31,0-.6,0h-.34l-.49,0-.4,0-.41,0-.46.06-.39.06-.49.09-.34.07-.53.13-.34.09-.59.18-.28.09L85,28h0l-.88.38-.27.13-.63.31-.31.16L82,29.4,81.1,30,81,30l-.9.6-.31.22-.6.43-.36.28-.53.42-.39.32-.5.43-.39.34-.49.44-.39.36-.49.47-.36.36-.5.52-.33.34-.57.62-.23.26-.79.92-.12.14-.65.81q-.41.52-.8,1.06v0c-.37.51-.73,1-1.09,1.55l-.25.37-.38.58-.33.53-.36.59-.3.5q-.43.73-.83,1.48l-.29.55-.3.57-.4.82-.13.26q-.25.53-.48,1.07l-.12.28-.33.8-.15.36-.3.77-.12.33q-.19.51-.36,1l0,.08q-.19.55-.35,1.11l-.1.36c-.07.25-.15.51-.22.76l-.11.42q-.09.36-.18.71l-.1.42c-.05.24-.11.49-.16.73l-.08.39q-.09.48-.17.95l0,.15q-.09.54-.15,1.09c0,.1,0,.21,0,.31q0,.39-.08.77c0,.12,0,.25,0,.37s0,.49,0,.73,0,.23,0,.35c0,.34,0,.69,0,1s0,.71,0,1.05c0,.1,0,.19,0,.29s0,.47,0,.7,0,.27,0,.4,0,.39.07.58,0,.28.06.42.06.35.09.52.06.31.09.46l.1.46q.06.27.14.53l.12.4c.06.21.13.41.2.61l.12.32c.13.34.26.66.41,1s.23.48.36.71h0c.12.22.26.44.39.65s.41.59.62.87l.16.2c.21.25.43.5.66.73l.05.05a9.44,9.44,0,0,0,.77.67l.2.15a9.16,9.16,0,0,0,.84.56h0l-1.94-1.13a9.16,9.16,0,0,1-.84-.56l-.2-.15a9.43,9.43,0,0,1-.77-.67l-.05-.05c-.23-.23-.45-.47-.66-.73l-.16-.2c-.22-.28-.43-.56-.62-.87l0,0q-.19-.3-.37-.63h0q-.18-.33-.35-.67v0c-.15-.31-.28-.64-.41-1l0-.08L62,67.79c-.07-.2-.14-.4-.2-.61L61.74,67l-.06-.24q-.07-.26-.14-.53L61.48,66c0-.08,0-.16,0-.24s-.06-.3-.09-.46,0-.16,0-.24,0-.19,0-.29,0-.28-.06-.42,0-.14,0-.21,0-.25,0-.37,0-.26,0-.4,0-.11,0-.16,0-.36,0-.54,0-.19,0-.29v-.07q0-.46,0-.93v-.06Q61,60.95,61,60.51Z"/><path class="cls-12" d="M101.28,40.36c0,12.17-8.52,27-19.11,33.1S63,74.67,62.92,62.51,71.45,35.51,82,29.4,101.24,28.19,101.28,40.36ZM82.16,71.29c9.53-5.5,17.25-18.88,17.22-29.83S91.57,26.08,82,31.58,64.79,50.46,64.82,61.41s7.81,15.38,17.34,9.88"/></g></g></g></svg>