<svg xmlns="http://www.w3.org/2000/svg" xmlns:xlink="http://www.w3.org/1999/xlink" viewBox="0 0 338.14 296.73"><defs><style>.cls-1{fill:none;}.cls-2{isolation:isolate;}.cls-3{fill:url(#Безымянный_градиент_304);}.cls-4{fill:url(#Безымянный_градиент_304-2);}.cls-5{fill:url(#Безымянный_градиент_304-3);}.cls-6{fill:url(#Безымянный_градиент_304-4);}.cls-7{fill:url(#Безымянный_градиент_304-5);}.cls-8{fill:#e2e1e1;}.cls-9{fill:url(#Безымянный_градиент_60);}.cls-10{fill:url(#Безымянный_градиент_60-2);}.cls-11{fill:#06b0ab;}.cls-12{clip-path:url(#clip-path);}.cls-13{fill:url(#Безымянный_градиент_59);}.cls-14{fill:#282b35;}.cls-15{fill:#1e1f27;}.cls-16{fill:#343744;}.cls-17{fill:#2e323d;}.cls-18{fill:url(#Безымянный_градиент_58);}.cls-19{fill:#0b7c7b;}.cls-20{fill:url(#Безымянный_градиент_58-2);}.cls-21{fill:#e0e0d9;}.cls-21,.cls-37,.cls-41{mix-blend-mode:multiply;}.cls-22{fill:url(#Безымянный_градиент_113);}.cls-23{fill:url(#Безымянный_градиент_2581);}.cls-24{fill:url(#Безымянный_градиент_120);}.cls-25{fill:url(#Безымянный_градиент_116);}.cls-26{fill:url(#Безымянный_градиент_120-2);}.cls-27{fill:url(#GradientFill_121);}.cls-28{fill:url(#GradientFill_121-2);}.cls-29{fill:#7e8181;}.cls-30{fill:url(#Безымянный_градиент_301);}.cls-31{fill:url(#Безымянный_градиент_113-2);}.cls-32,.cls-43{fill:#fff;}.cls-32,.cls-41{opacity:0.5;}.cls-33{fill:#e4e4e3;}.cls-34{fill:url(#Безымянный_градиент_284);}.cls-35{fill:url(#Безымянный_градиент_116-2);}.cls-36{fill:url(#Безымянный_градиент_260);}.cls-37{fill:#d2d2ce;opacity:0.6;}.cls-38{clip-path:url(#clip-path-2);}.cls-39{fill:#fffffc;}.cls-40{fill:#b7b6b3;}.cls-41{fill:#cdcfce;}.cls-42{fill:#f1efed;}</style><linearGradient id="Безымянный_градиент_304" x1="-9479.82" y1="6.04" x2="-9488.28" y2="20.69" gradientTransform="translate(9592.98)" gradientUnits="userSpaceOnUse"><stop offset="0" stop-color="#fff"/><stop offset="0.02" stop-color="#fefefe"/><stop offset="0.31" stop-color="#f7f8f8"/><stop offset="1" stop-color="#f5f6f6"/></linearGradient><linearGradient id="Безымянный_градиент_304-2" x1="-9500.6" y1="12.09" x2="-9504.02" y2="18.02" xlink:href="#Безымянный_градиент_304"/><linearGradient id="Безымянный_градиент_304-3" x1="-9517.81" y1="3.39" x2="-9535.66" y2="34.32" xlink:href="#Безымянный_градиент_304"/><linearGradient id="Безымянный_градиент_304-4" x1="-9542.51" y1="30.29" x2="-9561.34" y2="62.92" xlink:href="#Безымянный_градиент_304"/><linearGradient id="Безымянный_градиент_304-5" x1="-9562.68" y1="62.08" x2="-9584.52" y2="99.91" xlink:href="#Безымянный_градиент_304"/><linearGradient id="Безымянный_градиент_60" x1="1464.5" y1="57.85" x2="1466.47" y2="57.85" gradientTransform="matrix(-1, 0, 0, 1, 1542.55, 0)" gradientUnits="userSpaceOnUse"><stop offset="0" stop-color="#057c85"/><stop offset="0.65" stop-color="#04727c"/><stop offset="1" stop-color="#046a75"/></linearGradient><linearGradient id="Безымянный_градиент_60-2" x1="1460.49" y1="46.1" x2="1471.51" y2="46.1" xlink:href="#Безымянный_градиент_60"/><clipPath id="clip-path"><polygon class="cls-1" points="91.22 45.1 82.06 37.69 72.97 55.63 78.01 52.72 78.05 64.1 82.13 61.75 86.21 59.39 86.18 48.01 91.22 45.1"/></clipPath><linearGradient id="Безымянный_градиент_59" x1="71.89" y1="31.95" x2="87.64" y2="66.33" gradientUnits="userSpaceOnUse"><stop offset="0" stop-color="#03a6b7"/><stop offset="0.23" stop-color="#03a1ad"/><stop offset="0.44" stop-color="#03999e"/><stop offset="0.62" stop-color="#038f95"/><stop offset="0.92" stop-color="#04737d"/><stop offset="1" stop-color="#046a75"/></linearGradient><linearGradient id="Безымянный_градиент_58" x1="431.82" y1="-1599.1" x2="433.55" y2="-1596.1" gradientTransform="matrix(-0.5, -0.87, 0.87, -0.5, 1662.01, -333.01)" gradientUnits="userSpaceOnUse"><stop offset="0" stop-color="#1e1f27"/><stop offset="0.36" stop-color="#21232b"/><stop offset="0.77" stop-color="#2b2e39"/><stop offset="1" stop-color="#343744"/></linearGradient><linearGradient id="Безымянный_градиент_58-2" x1="431.82" y1="-1618.05" x2="433.55" y2="-1615.06" xlink:href="#Безымянный_градиент_58"/><linearGradient id="Безымянный_градиент_113" x1="1891.41" y1="124.36" x2="2026.31" y2="124.36" gradientTransform="matrix(-1, 0, 0, 1, 2174.38, 0)" gradientUnits="userSpaceOnUse"><stop offset="0" stop-color="#f5f6f6"/><stop offset="0.69" stop-color="#f7f8f8"/><stop offset="0.98" stop-color="#fefefe"/><stop offset="1" stop-color="#fff"/></linearGradient><linearGradient id="Безымянный_градиент_2581" x1="1893.22" y1="123.64" x2="2024.35" y2="123.64" gradientTransform="matrix(-1, 0, 0, 1, 2174.38, 0)" gradientUnits="userSpaceOnUse"><stop offset="0" stop-color="#0b7c7b"/><stop offset="1" stop-color="#05a2a7"/></linearGradient><linearGradient id="Безымянный_градиент_120" x1="-9416.68" y1="71.88" x2="-9278.57" y2="71.88" gradientTransform="translate(9564.76)" gradientUnits="userSpaceOnUse"><stop offset="0" stop-color="#fdfeff"/><stop offset="1" stop-color="#fff"/></linearGradient><linearGradient id="Безымянный_градиент_116" x1="-9500.56" y1="227.15" x2="-9365.65" y2="227.15" gradientTransform="translate(9564.76)" gradientUnits="userSpaceOnUse"><stop offset="0" stop-color="#dfdfde"/><stop offset="0.44" stop-color="#d4d4d4"/><stop offset="1" stop-color="#b5b5b5"/></linearGradient><linearGradient id="Безымянный_градиент_120-2" x1="-9500.56" y1="201.07" x2="-9282.05" y2="201.07" xlink:href="#Безымянный_градиент_120"/><linearGradient id="GradientFill_121" x1="-522.65" y1="242.21" x2="-432.3" y2="242.21" gradientTransform="matrix(-1, 0, 0, 1, -233.21, 0)" gradientUnits="userSpaceOnUse"><stop offset="0" stop-color="#a8a6a6"/><stop offset="0.52" stop-color="#a3a1a1"/><stop offset="1" stop-color="#989898"/></linearGradient><linearGradient id="GradientFill_121-2" x1="-519.4" y1="162.67" x2="-516.18" y2="162.67" xlink:href="#GradientFill_121"/><linearGradient id="Безымянный_градиент_301" x1="-500" y1="191.26" x2="-342.48" y2="191.26" gradientTransform="matrix(-1, 0, 0, 1, -233.21, 0)" gradientUnits="userSpaceOnUse"><stop offset="0" stop-color="#8e9191"/><stop offset="1" stop-color="#afb4b3"/></linearGradient><linearGradient id="Безымянный_градиент_113-2" x1="-9441.74" y1="213.04" x2="-9386.51" y2="213.04" gradientTransform="translate(9564.76)" xlink:href="#Безымянный_градиент_113"/><linearGradient id="Безымянный_градиент_284" x1="-9351.01" y1="178.22" x2="-9348.84" y2="174.32" gradientTransform="translate(9564.76)" gradientUnits="userSpaceOnUse"><stop offset="0" stop-color="#d3d3d3"/><stop offset="0.52" stop-color="#ebebeb"/><stop offset="1" stop-color="#c3c3c3"/></linearGradient><linearGradient id="Безымянный_градиент_116-2" x1="1039.6" y1="2920.35" x2="1042.14" y2="2920.35" gradientTransform="matrix(0, -0.93, -0.96, 0, 3092.91, 1186.42)" xlink:href="#Безымянный_градиент_116"/><radialGradient id="Безымянный_градиент_260" cx="1280.94" cy="274.71" r="43.63" gradientTransform="matrix(-1, 0, 0, 1, 1512.51, 0)" gradientUnits="userSpaceOnUse"><stop offset="0" stop-color="#fdfcfa"/><stop offset="1" stop-color="#d2d2ce"/></radialGradient><clipPath id="clip-path-2"><path class="cls-1" d="M265.3,268.08s-4.13,2.39-6.23,2.58a3.06,3.06,0,0,1-1.48-.26c-.51-.25-.81-.76-.62-1.78l.89-4.43s4-3.51,5.76-1.47S265.89,266.73,265.3,268.08Z"/></clipPath></defs><title>corp</title><g class="cls-2"><g id="Layer_2" data-name="Layer 2"><g id="Layer_1-2" data-name="Layer 1"><g class="cls-2"><path class="cls-3" d="M109.78,4.1c-3.41-2-8.06-1.74-13.18,1.21A32.08,32.08,0,0,0,89,11.58l19,11.06a32.08,32.08,0,0,1,7.57-6.27c5.11-2.95,9.76-3.19,13.18-1.21Z"/><path class="cls-4" d="M86.34,8.61c-2.28-1.33-5.39-1.16-8.82.82-.52.3-1,.65-1.56,1L95,21.5c.51-.37,1-.72,1.56-1,3.43-2,6.54-2.14,8.82-.82Z"/><path class="cls-5" d="M71.16,1.08c-2.87-1.67-6.77-1.46-11.07,1C52.22,6.64,45.74,17.23,44.56,26.88l19,11.06c1.18-9.65,7.66-20.25,15.53-24.79,4.3-2.47,8.2-2.68,11.07-1Z"/><path class="cls-6" d="M44.56,26.88a15.53,15.53,0,0,0-6.45,2.18c-8.8,5.07-16,17.34-16.54,28l19,11.06c.58-10.64,7.74-22.91,16.54-28a15.53,15.53,0,0,1,6.45-2.18Z"/><path class="cls-7" d="M21.58,57a14.9,14.9,0,0,0-5.84,2C7,64.11-.05,76.62,0,87c0,5.28,1.88,9,4.85,10.71l19,11.06c-3-1.72-4.82-5.44-4.85-10.71-.05-10.41,7-22.93,15.74-28a14.9,14.9,0,0,1,5.84-2Z"/><path class="cls-8" d="M115.64,16.37a32.09,32.09,0,0,0-7.57,6.27c-2-4-6.41-5.1-11.52-2.16-.52.3-1,.65-1.56,1-.65-9.4-7.52-13.15-15.87-8.35C71.26,17.7,64.77,28.29,63.6,37.95a15.53,15.53,0,0,0-6.45,2.18c-8.8,5.07-16,17.34-16.54,28a14.91,14.91,0,0,0-5.84,2C26,75.17,19,87.69,19,98.1s7.19,14.73,15.94,9.7L115.86,61.2c10.41-6,18.78-20.89,18.72-33.26S126,10.38,115.64,16.37Z"/></g><g class="cls-2"><polygon class="cls-9" points="78.01 52.72 76.08 51.6 76.11 62.98 78.05 64.1 78.01 52.72"/><polygon class="cls-10" points="82.06 37.69 80.13 36.56 71.04 54.51 72.97 55.63 82.06 37.69"/><polygon class="cls-11" points="91.22 45.1 82.06 37.69 72.97 55.63 78.01 52.72 78.05 64.1 82.13 61.75 86.21 59.39 86.18 48.01 91.22 45.1"/><path class="cls-13" d="M99.78,39.12c0,12.17-5,26-19.62,33.35C69.24,78,61,73.67,60.92,61.51S69.45,34.51,80,28.4,99.75,26.95,99.78,39.12ZM80.16,70.29c9.53-5.5,17.25-18.88,17.22-29.83s-7.07-14.84-16.59-9.34-17,18-17,29,6.84,15.67,16.37,10.17"/><path class="cls-11" d="M101.28,40.36c0,12.17-8.52,27-19.11,33.1S63,74.67,62.92,62.51,71.45,35.51,82,29.4,101.24,28.19,101.28,40.36ZM82.16,71.29c9.53-5.5,17.25-18.88,17.22-29.83S91.57,26.08,82,31.58,64.79,50.46,64.82,61.41s7.81,15.38,17.34,9.88"/></g><polygon class="cls-14" points="62.67 87.61 49.37 95.29 49.37 86.56 62.67 78.88 62.67 87.61"/><g class="cls-2"><path class="cls-15" d="M58.44,93.81V91.73l-5.69-3.32v2.08a.33.33,0,0,0,.14.3l5.69,3.32A.33.33,0,0,1,58.44,93.81Z"/><path class="cls-16" d="M59.27,84.27a.33.33,0,0,0-.34,0l-5.72,3.3,5.69,3.32,5.72-3.3a.33.33,0,0,1,.34,0Z"/><path class="cls-17" d="M53.22,87.6a1,1,0,0,0-.47.81l5.69,3.32a1,1,0,0,1,.47-.81Z"/><path class="cls-14" d="M65.1,87.88c0-.3-.21-.42-.47-.27l-5.72,3.3a1,1,0,0,0-.47.81v2.08c0,.3.21.42.48.27l5.72-3.3a1,1,0,0,0,.47-.81Z"/></g><g id="Axonometric_Cylinder" data-name="Axonometric Cylinder"><path id="Cylinder_face" data-name="Cylinder face" class="cls-14" d="M63.35,90.36c.68-.39,1.22-.07,1.22.71a2.7,2.7,0,0,1-1.22,2.12c-.67.39-1.22.07-1.22-.71A2.7,2.7,0,0,1,63.35,90.36Z"/><path id="Cylinder_body" data-name="Cylinder body" class="cls-18" d="M62.49,93.28l-1.54-.89a.85.85,0,0,1-.37-.8,2.7,2.7,0,0,1,1.22-2.12.86.86,0,0,1,.86-.09l1.54.89a.86.86,0,0,0-.86.09,2.7,2.7,0,0,0-1.22,2.12A.85.85,0,0,0,62.49,93.28Z"/></g><path class="cls-19" d="M102.52,168.84,74.26,152.53a5.18,5.18,0,0,1-2.58-4.47V99a5.72,5.72,0,0,0-2.86-4.95L64,91.27c-.57-.33-1.34,1-.77,1.34L68,95.4A4.17,4.17,0,0,1,70.13,99v49.05a6.73,6.73,0,0,0,3.36,5.81l28.25,16.31a.77.77,0,0,0,.77-1.34Z"/><polygon class="cls-14" points="46.26 97.08 32.96 104.77 32.96 96.03 46.26 88.35 46.26 97.08"/><g class="cls-2"><path class="cls-15" d="M42,103.29v-2.08l-5.69-3.32V100a.33.33,0,0,0,.14.3l5.69,3.32A.33.33,0,0,1,42,103.29Z"/><path class="cls-16" d="M42.86,93.74a.33.33,0,0,0-.34,0l-5.72,3.3,5.69,3.32,5.72-3.3a.33.33,0,0,1,.34,0Z"/><path class="cls-17" d="M36.8,97.08a1,1,0,0,0-.47.81L42,101.21a1,1,0,0,1,.47-.81Z"/><path class="cls-14" d="M48.69,97.36c0-.3-.21-.42-.47-.27l-5.72,3.3a1,1,0,0,0-.47.81v2.08c0,.3.21.42.48.27l5.72-3.3a1,1,0,0,0,.47-.81Z"/></g><g id="Axonometric_Cylinder-2" data-name="Axonometric Cylinder"><path id="Cylinder_face-2" data-name="Cylinder face" class="cls-14" d="M46.93,99.84c.67-.39,1.22-.07,1.22.71a2.7,2.7,0,0,1-1.22,2.12c-.68.39-1.22.07-1.22-.71A2.7,2.7,0,0,1,46.93,99.84Z"/><path id="Cylinder_body-2" data-name="Cylinder body" class="cls-20" d="M46.08,102.75l-1.54-.89a.85.85,0,0,1-.37-.8,2.7,2.7,0,0,1,1.22-2.12.86.86,0,0,1,.86-.09l1.54.89a.86.86,0,0,0-.86.09A2.7,2.7,0,0,0,45.71,102,.85.85,0,0,0,46.08,102.75Z"/></g><path class="cls-19" d="M86.1,178.32,57.85,162a5.18,5.18,0,0,1-2.58-4.47V108.48a5.72,5.72,0,0,0-2.86-4.95l-4.84-2.79c-.57-.33-1.34,1-.77,1.34l4.84,2.79a4.17,4.17,0,0,1,2.08,3.61v49.05a6.73,6.73,0,0,0,3.36,5.81l28.25,16.31a.77.77,0,1,0,.77-1.34Z"/><path class="cls-21" d="M336.45,224.8l-50.26.74-72.68,42.75-14.38,0L74.51,196.12l90.79-54.21,78.32,16.92,93.76,62.84A1.71,1.71,0,0,1,336.45,224.8Z"/><g id="_14" data-name="14"><polygon class="cls-22" points="282.97 111.92 148.08 33.44 148.08 136.88 282.97 215.27 282.97 111.92"/><polygon class="cls-23" points="281.16 112.99 150.03 36.54 150.03 134.52 281.02 210.74 281.16 112.99"/><polygon class="cls-24" points="286.19 110.06 150.97 31.84 148.08 33.44 282.97 111.92 286.19 110.06"/><polygon class="cls-25" points="199.09 264.4 64.2 186.01 64.21 189.9 199.1 268.29 199.09 264.4"/><polygon class="cls-26" points="282.71 216.13 147.82 137.74 64.2 186.01 199.09 264.4 282.71 216.13"/><polygon class="cls-27" points="282.71 216.13 282.71 220.02 199.1 268.29 199.09 264.4 282.71 216.13"/><polygon class="cls-28" points="282.97 215.27 282.97 111.92 286.19 110.06 286.19 213.37 282.97 215.27"/><path class="cls-29" d="M129.43,180.13l41,23.68a2.13,2.13,0,0,0,1.93,0l4.61-2.66a.59.59,0,0,0,0-1.11l-41-23.68a2.13,2.13,0,0,0-1.93,0L129.43,179A.59.59,0,0,0,129.43,180.13Zm94.2,16.2,4.61-2.66a2.13,2.13,0,0,1,1.93,0l5.48,3.17a.59.59,0,0,1,0,1.11L231,200.61a2.13,2.13,0,0,1-1.93,0l-5.48-3.17A.59.59,0,0,1,223.63,196.33Zm-8.86-4,5.48,3.17a2.13,2.13,0,0,0,1.93,0l4.61-2.66a.59.59,0,0,0,0-1.11l-5.48-3.17a2.13,2.13,0,0,0-1.93,0l-4.61,2.66A.59.59,0,0,0,214.77,192.33Zm-8.86-5.11,5.48,3.17a2.13,2.13,0,0,0,1.93,0l4.61-2.66a.59.59,0,0,0,0-1.11l-5.48-3.17a2.13,2.13,0,0,0-1.93,0l-4.61,2.66A.59.59,0,0,0,205.92,187.22Zm-8.86-5.11,5.48,3.17a2.13,2.13,0,0,0,1.93,0l4.61-2.66a.59.59,0,0,0,0-1.11l-5.48-3.17a2.13,2.13,0,0,0-1.93,0L197.06,181A.59.59,0,0,0,197.06,182.1ZM188.21,177l5.48,3.17a2.13,2.13,0,0,0,1.93,0l4.61-2.66a.59.59,0,0,0,0-1.11l-5.48-3.17a2.13,2.13,0,0,0-1.93,0l-4.61,2.66A.59.59,0,0,0,188.21,177Zm-8.86-5.11,5.48,3.17a2.13,2.13,0,0,0,1.93,0l4.61-2.66a.59.59,0,0,0,0-1.11l-5.48-3.17a2.13,2.13,0,0,0-1.93,0l-4.61,2.66A.59.59,0,0,0,179.35,171.88Zm-8.86-5.11,5.48,3.17a2.13,2.13,0,0,0,1.93,0l4.61-2.66a.59.59,0,0,0,0-1.11L177,163a2.13,2.13,0,0,0-1.93,0l-4.61,2.66A.59.59,0,0,0,170.5,166.77Zm-8.86-5.11,5.48,3.17a2.13,2.13,0,0,0,1.93,0l4.61-2.66a.59.59,0,0,0,0-1.11l-5.48-3.17a2.13,2.13,0,0,0-1.93,0l-4.61,2.66A.59.59,0,0,0,161.64,161.65Zm-8.86-5.11,5.48,3.17a2.13,2.13,0,0,0,1.93,0l4.61-2.66a.59.59,0,0,0,0-1.11l-5.48-3.17a2.13,2.13,0,0,0-1.93,0l-4.61,2.66A.59.59,0,0,0,152.78,156.54Zm-11.71-6.76,8.34,4.81a2.13,2.13,0,0,0,1.93,0l4.61-2.66a.59.59,0,0,0,0-1.11L147.62,146a2.13,2.13,0,0,0-1.93,0l-4.61,2.66A.59.59,0,0,0,141.08,149.78Zm89.8,80.33,5.48,3.17a2.13,2.13,0,0,0,1.93,0l4.61-2.66a.59.59,0,0,0,0-1.11l-5.48-3.17a2.13,2.13,0,0,0-1.93,0L230.87,229A.59.59,0,0,0,230.87,230.11ZM222,225l5.48,3.17a2.13,2.13,0,0,0,1.93,0l4.61-2.66a.59.59,0,0,0,0-1.11l-5.48-3.17a2.13,2.13,0,0,0-1.93,0L222,223.89A.59.59,0,0,0,222,225Zm-8.86-5.11,5.48,3.17a2.13,2.13,0,0,0,1.93,0l4.61-2.66a.59.59,0,0,0,0-1.11l-5.48-3.17a2.13,2.13,0,0,0-1.93,0l-4.61,2.66A.59.59,0,0,0,213.16,219.89Zm9.62,14.9,5.48,3.17a2.13,2.13,0,0,0,1.93,0l4.61-2.66a.59.59,0,0,0,0-1.11L229.32,231a2.13,2.13,0,0,0-1.93,0l-4.61,2.66A.59.59,0,0,0,222.78,234.79Zm-8.86-5.11,5.48,3.17a2.13,2.13,0,0,0,1.93,0l4.61-2.66a.59.59,0,0,0,0-1.11l-5.48-3.17a2.13,2.13,0,0,0-1.93,0l-4.61,2.66A.59.59,0,0,0,213.92,229.68Zm-8.86-5.11,5.48,3.17a2.13,2.13,0,0,0,1.93,0l4.61-2.66a.59.59,0,0,0,0-1.11l-5.48-3.17a2.13,2.13,0,0,0-1.93,0l-4.61,2.66A.59.59,0,0,0,205.07,224.56Zm7.46-24.15,8.34,4.81a2.13,2.13,0,0,0,1.93,0l4.61-2.66a.59.59,0,0,0,0-1.11l-8.34-4.81a2.13,2.13,0,0,0-1.93,0l-4.61,2.66A.59.59,0,0,0,212.52,200.42Zm-8.86-5.11,5.48,3.17a2.13,2.13,0,0,0,1.93,0l4.61-2.66a.59.59,0,0,0,0-1.11l-5.48-3.17a2.13,2.13,0,0,0-1.93,0l-4.61,2.66A.59.59,0,0,0,203.67,195.3Zm-8.86-5.11,5.48,3.17a2.13,2.13,0,0,0,1.93,0l4.61-2.66a.59.59,0,0,0,0-1.11l-5.48-3.17a2.13,2.13,0,0,0-1.93,0l-4.61,2.66A.59.59,0,0,0,194.81,190.19ZM186,185.08l5.48,3.17a2.13,2.13,0,0,0,1.93,0l4.61-2.66a.59.59,0,0,0,0-1.11l-5.48-3.17a2.13,2.13,0,0,0-1.93,0L186,184A.59.59,0,0,0,186,185.08ZM177.1,180l5.48,3.17a2.13,2.13,0,0,0,1.93,0l4.61-2.66a.59.59,0,0,0,0-1.11l-5.48-3.17a2.13,2.13,0,0,0-1.93,0l-4.61,2.66A.59.59,0,0,0,177.1,180Zm-8.86-5.11,5.48,3.17a2.13,2.13,0,0,0,1.93,0l4.61-2.66a.59.59,0,0,0,0-1.11l-5.48-3.17a2.13,2.13,0,0,0-1.93,0l-4.61,2.66A.59.59,0,0,0,168.25,174.85Zm-8.86-5.11,5.48,3.17a2.13,2.13,0,0,0,1.93,0l4.61-2.66a.59.59,0,0,0,0-1.11L165.94,166a2.13,2.13,0,0,0-1.93,0l-4.61,2.66A.59.59,0,0,0,159.39,169.74Zm-8.86-5.11L156,167.8a2.13,2.13,0,0,0,1.93,0l4.61-2.66a.59.59,0,0,0,0-1.11l-5.48-3.17a2.13,2.13,0,0,0-1.93,0l-4.61,2.66A.59.59,0,0,0,150.54,164.63Zm-8.86-5.11,5.48,3.17a2.13,2.13,0,0,0,1.93,0l4.61-2.66a.59.59,0,0,0,0-1.11l-5.48-3.17a2.13,2.13,0,0,0-1.93,0l-4.61,2.66A.59.59,0,0,0,141.68,159.52Zm-8.86-5.11,5.48,3.17a2.13,2.13,0,0,0,1.93,0l4.61-2.66a.59.59,0,0,0,0-1.11l-5.48-3.17a2.13,2.13,0,0,0-1.93,0l-4.61,2.66A.59.59,0,0,0,132.83,154.4Zm74.71,52.33L213,209.9a2.13,2.13,0,0,0,1.93,0l4.61-2.66a.59.59,0,0,0,0-1.11L214.08,203a2.13,2.13,0,0,0-1.93,0l-4.61,2.66A.59.59,0,0,0,207.53,206.73Zm-8.86-5.11,5.48,3.17a2.13,2.13,0,0,0,1.93,0l4.61-2.66a.59.59,0,0,0,0-1.11l-5.48-3.17a2.13,2.13,0,0,0-1.93,0l-4.61,2.66A.59.59,0,0,0,198.68,201.62Zm-8.86-5.11,5.48,3.17a2.13,2.13,0,0,0,1.93,0l4.61-2.66a.59.59,0,0,0,0-1.11l-5.48-3.17a2.13,2.13,0,0,0-1.93,0l-4.61,2.66A.59.59,0,0,0,189.82,196.51ZM181,191.39l5.48,3.17a2.13,2.13,0,0,0,1.93,0L193,191.9a.59.59,0,0,0,0-1.11l-5.48-3.17a2.13,2.13,0,0,0-1.93,0L181,190.28A.59.59,0,0,0,181,191.39ZM191.48,216l5.48,3.17a2.13,2.13,0,0,0,1.93,0l4.61-2.66a.59.59,0,0,0,0-1.11L198,212.23a2.13,2.13,0,0,0-1.93,0l-4.61,2.66A.59.59,0,0,0,191.48,216Zm-8.86-5.11,5.48,3.17a2.13,2.13,0,0,0,1.93,0l4.61-2.66a.59.59,0,0,0,0-1.11l-5.48-3.17a2.13,2.13,0,0,0-1.93,0l-4.61,2.66A.59.59,0,0,0,182.62,210.89Zm-8.86-5.11,5.48,3.17a2.13,2.13,0,0,0,1.93,0l4.61-2.66a.59.59,0,0,0,0-1.11L180.31,202a2.13,2.13,0,0,0-1.93,0l-4.61,2.66A.59.59,0,0,0,173.77,205.78ZM120.58,175l5.48,3.17a2.13,2.13,0,0,0,1.93,0l4.61-2.66a.59.59,0,0,0,0-1.11l-5.48-3.17a2.13,2.13,0,0,0-1.93,0l-4.61,2.66A.59.59,0,0,0,120.58,175ZM109,168.37l8.34,4.82a2.13,2.13,0,0,0,1.93,0l4.61-2.66a.59.59,0,0,0,0-1.11l-8.34-4.82a2.13,2.13,0,0,0-1.93,0L109,167.26A.59.59,0,0,0,109,168.37Zm63.14,17.91,5.48,3.17a2.13,2.13,0,0,0,1.93,0l4.61-2.66a.59.59,0,0,0,0-1.11l-5.48-3.17a2.13,2.13,0,0,0-1.93,0l-4.61,2.66A.59.59,0,0,0,172.11,186.28Zm-8.86-5.11,5.48,3.17a2.13,2.13,0,0,0,1.93,0l4.61-2.66a.59.59,0,0,0,0-1.11l-5.48-3.17a2.13,2.13,0,0,0-1.93,0l-4.61,2.66A.59.59,0,0,0,163.26,181.17Zm-8.86-5.11,5.48,3.17a2.13,2.13,0,0,0,1.93,0l4.61-2.66a.59.59,0,0,0,0-1.11l-5.48-3.17a2.13,2.13,0,0,0-1.93,0l-4.61,2.66A.59.59,0,0,0,154.4,176.06Zm-8.86-5.11,5.48,3.17a2.13,2.13,0,0,0,1.93,0l4.61-2.66a.59.59,0,0,0,0-1.11l-5.48-3.17a2.13,2.13,0,0,0-1.93,0l-4.61,2.66A.59.59,0,0,0,145.55,170.94Zm-8.86-5.11,5.48,3.17a2.13,2.13,0,0,0,1.93,0l4.61-2.66a.59.59,0,0,0,0-1.11l-5.48-3.17a2.13,2.13,0,0,0-1.93,0l-4.61,2.66A.59.59,0,0,0,136.69,165.83ZM125,159.07l8.34,4.81a2.13,2.13,0,0,0,1.93,0l4.61-2.66a.59.59,0,0,0,0-1.11l-8.34-4.81a2.13,2.13,0,0,0-1.93,0L125,158A.59.59,0,0,0,125,159.07Zm71.45,50.64,8.34,4.81a2.13,2.13,0,0,0,1.93,0l4.61-2.66a.59.59,0,0,0,0-1.11L203,205.93a2.13,2.13,0,0,0-1.93,0l-4.61,2.66A.59.59,0,0,0,196.43,209.71Zm-8.86-5.11,5.48,3.17a2.13,2.13,0,0,0,1.93,0l4.61-2.66a.59.59,0,0,0,0-1.11l-5.48-3.17a2.13,2.13,0,0,0-1.93,0l-4.61,2.66A.59.59,0,0,0,187.58,204.59Zm-8.86-5.11,5.48,3.17a2.13,2.13,0,0,0,1.93,0l4.61-2.66a.59.59,0,0,0,0-1.11l-5.48-3.17a2.13,2.13,0,0,0-1.93,0l-4.61,2.66A.59.59,0,0,0,178.72,199.48Zm-8.86-5.11,5.48,3.17a2.13,2.13,0,0,0,1.93,0l4.61-2.66a.59.59,0,0,0,0-1.11l-5.48-3.17a2.13,2.13,0,0,0-1.93,0l-4.61,2.66A.59.59,0,0,0,169.87,194.37ZM161,189.26l5.48,3.17a2.13,2.13,0,0,0,1.93,0l4.61-2.66a.59.59,0,0,0,0-1.11l-5.48-3.17a2.13,2.13,0,0,0-1.93,0L161,188.14A.59.59,0,0,0,161,189.26Zm-8.86-5.11,5.48,3.17a2.13,2.13,0,0,0,1.93,0l4.61-2.66a.59.59,0,0,0,0-1.11l-5.48-3.17a2.13,2.13,0,0,0-1.93,0L152.16,183A.59.59,0,0,0,152.16,184.14ZM143.3,179l5.48,3.17a2.13,2.13,0,0,0,1.93,0l4.61-2.66a.59.59,0,0,0,0-1.11l-5.48-3.17a2.13,2.13,0,0,0-1.93,0l-4.61,2.66A.59.59,0,0,0,143.3,179Zm-8.86-5.11,5.48,3.17a2.13,2.13,0,0,0,1.93,0l4.61-2.66a.59.59,0,0,0,0-1.11L141,170.14a2.13,2.13,0,0,0-1.93,0l-4.61,2.66A.59.59,0,0,0,134.45,173.92Zm-8.86-5.11,5.48,3.17a2.13,2.13,0,0,0,1.93,0l4.61-2.66a.59.59,0,0,0,0-1.11L132.13,165a2.13,2.13,0,0,0-1.93,0l-4.61,2.66A.59.59,0,0,0,125.59,168.81Zm-8.86-5.11,5.48,3.17a2.13,2.13,0,0,0,1.93,0l4.61-2.66a.59.59,0,0,0,0-1.11l-5.48-3.17a2.13,2.13,0,0,0-1.93,0l-4.61,2.66A.59.59,0,0,0,116.74,163.69Zm138.37,52.43,5.48,3.17a2.13,2.13,0,0,0,1.93,0l4.61-2.66a.59.59,0,0,0,0-1.11l-5.48-3.17a2.13,2.13,0,0,0-1.93,0L255.11,215A.59.59,0,0,0,255.11,216.12ZM246.25,211l5.48,3.17a2.13,2.13,0,0,0,1.93,0l4.61-2.66a.59.59,0,0,0,0-1.11l-5.48-3.17a2.13,2.13,0,0,0-1.93,0l-4.61,2.66A.59.59,0,0,0,246.25,211Zm-8.86-5.11,5.48,3.17a2.13,2.13,0,0,0,1.93,0l4.61-2.66a.59.59,0,0,0,0-1.11l-5.48-3.17a2.13,2.13,0,0,0-1.93,0l-4.61,2.66A.59.59,0,0,0,237.4,205.89Zm-8.08,4.66,5.48,3.17a2.13,2.13,0,0,0,1.93,0l4.61-2.66a.59.59,0,0,0,0-1.11l-5.48-3.17a2.13,2.13,0,0,0-1.93,0l-4.61,2.66A.59.59,0,0,0,229.32,210.56Zm-7.84,4.57,23.05,13.31a2.65,2.65,0,0,0,2.4,0l12.11-7a.73.73,0,0,0,0-1.38l-13.9-8a2.65,2.65,0,0,0-2.4,0l-6.07,3.51a1.5,1.5,0,0,1-1.35,0l-7.75-4.41a1.77,1.77,0,0,0-1.6,0l-4.51,2.6A.73.73,0,0,0,221.48,215.13Z"/><path class="cls-30" d="M170.64,202.58l-41-23.77,4.62-2.67a1.53,1.53,0,0,1,1.34,0l41,23.77L172,202.58a1.53,1.53,0,0,1-1.34,0Zm26.61,15.27-5.48-3.26,4.61-2.67a1.41,1.41,0,0,1,.67-.15,1.38,1.38,0,0,1,.67.16l5.48,3.26-4.62,2.67a1.53,1.53,0,0,1-1.34,0Zm7.81-4.65-8.34-4.91,4.62-2.67a1.53,1.53,0,0,1,1.34,0l8.34,4.91-4.62,2.67a1.53,1.53,0,0,1-1.34,0Zm-16.67-.47-5.48-3.26,4.61-2.67a1.41,1.41,0,0,1,.67-.15,1.38,1.38,0,0,1,.67.16l5.48,3.26-4.62,2.67a1.53,1.53,0,0,1-1.34,0Zm24.91-4.16-5.48-3.26,4.62-2.67a1.53,1.53,0,0,1,1.34,0l5.48,3.25-4.61,2.67a1.56,1.56,0,0,1-1.34,0Zm-33.77-1-5.48-3.26,4.61-2.67a1.41,1.41,0,0,1,.67-.15,1.38,1.38,0,0,1,.67.16L185.5,205l-4.62,2.67a1.53,1.53,0,0,1-1.34,0Zm13.81-1.18-5.48-3.25,4.62-2.67a1.53,1.53,0,0,1,1.34,0l5.48,3.26-4.62,2.67a1.53,1.53,0,0,1-1.34,0Zm27.8-2.53L212.82,199l4.62-2.67a1.53,1.53,0,0,1,1.34,0l8.34,4.91-4.62,2.67a1.53,1.53,0,0,1-1.34,0Zm-16.7-.45L199,200.21l4.61-2.67a1.41,1.41,0,0,1,.67-.15,1.39,1.39,0,0,1,.67.16l5.48,3.25-4.62,2.67a1.53,1.53,0,0,1-1.34,0ZM126.3,177.06l-5.48-3.26,4.61-2.67a1.41,1.41,0,0,1,.67-.15,1.38,1.38,0,0,1,.67.16l5.48,3.26-4.61,2.67a1.41,1.41,0,0,1-.67.15A1.38,1.38,0,0,1,126.3,177.06Zm58.2,24.27L179,198.07l4.62-2.67a1.53,1.53,0,0,1,1.34,0l5.48,3.26-4.62,2.67a1.53,1.53,0,0,1-1.34,0Zm44.9-2L223.92,196l4.62-2.67a1.53,1.53,0,0,1,1.34,0l5.48,3.25-4.62,2.67a1.53,1.53,0,0,1-1.34,0Zm-33.8-.93-5.48-3.26,4.61-2.67a1.41,1.41,0,0,1,.67-.15,1.38,1.38,0,0,1,.67.16l5.48,3.26-4.62,2.67a1.53,1.53,0,0,1-1.34,0Zm13.84-1.2L204,193.9l4.62-2.67a1.53,1.53,0,0,1,1.34,0l5.48,3.26-4.62,2.67a1.53,1.53,0,0,1-1.34,0Zm-33.8-.94L170.16,193l4.61-2.67a1.41,1.41,0,0,1,.67-.15,1.38,1.38,0,0,1,.67.16l5.48,3.25L177,196.22a1.53,1.53,0,0,1-1.34,0Zm44.9-2-5.48-3.26,4.61-2.67a1.41,1.41,0,0,1,.67-.15,1.38,1.38,0,0,1,.67.16l5.48,3.25-4.62,2.67a1.53,1.53,0,0,1-1.34,0Zm-33.8-.93L181.26,190l4.61-2.67a1.41,1.41,0,0,1,.67-.15,1.38,1.38,0,0,1,.67.16l5.48,3.26-4.62,2.67a1.53,1.53,0,0,1-1.34,0Zm13.84-1.2-5.48-3.26,4.62-2.67a1.53,1.53,0,0,1,1.34,0l5.48,3.26L201.93,192a1.53,1.53,0,0,1-1.34,0Zm-33.8-.94-5.48-3.26,4.61-2.67a1.41,1.41,0,0,1,.67-.15,1.38,1.38,0,0,1,.67.16l5.48,3.25-4.62,2.67a1.53,1.53,0,0,1-1.34,0Zm44.9-2-5.48-3.26,4.61-2.67a1.41,1.41,0,0,1,.67-.15,1.39,1.39,0,0,1,.67.16l5.48,3.26L213,189.07a1.53,1.53,0,0,1-1.34,0Zm-33.8-.93-5.48-3.26,4.61-2.67a1.41,1.41,0,0,1,.67-.15,1.38,1.38,0,0,1,.67.16l5.48,3.25-4.61,2.67a1.41,1.41,0,0,1-.67.15A1.38,1.38,0,0,1,177.89,188.13Zm13.84-1.2-5.48-3.26,4.62-2.67a1.53,1.53,0,0,1,1.34,0l5.48,3.25-4.62,2.67a1.53,1.53,0,0,1-1.34,0Zm-33.8-.94-5.48-3.26,4.61-2.67a1.41,1.41,0,0,1,.67-.15,1.38,1.38,0,0,1,.67.16l5.48,3.26L159.27,186a1.53,1.53,0,0,1-1.34,0Zm44.9-2-5.48-3.26L202,178a1.41,1.41,0,0,1,.67-.15,1.39,1.39,0,0,1,.67.16l5.48,3.26L204.18,184a1.53,1.53,0,0,1-1.34,0ZM169,183l-5.48-3.26,4.61-2.67a1.41,1.41,0,0,1,.67-.15,1.38,1.38,0,0,1,.67.16l5.48,3.25L170.38,183a1.41,1.41,0,0,1-.67.15A1.38,1.38,0,0,1,169,183Zm13.84-1.2-5.48-3.26,4.61-2.67a1.41,1.41,0,0,1,.67-.15,1.38,1.38,0,0,1,.67.16l5.48,3.26-4.62,2.67a1.53,1.53,0,0,1-1.34,0Zm-33.8-.94-5.48-3.25,4.61-2.67a1.41,1.41,0,0,1,.67-.15,1.39,1.39,0,0,1,.67.16l5.48,3.26-4.61,2.67a1.41,1.41,0,0,1-.67.15A1.38,1.38,0,0,1,149.08,180.88Zm44.9-2-5.48-3.26,4.61-2.67a1.41,1.41,0,0,1,.67-.15,1.38,1.38,0,0,1,.67.16l5.48,3.25-4.61,2.67a1.41,1.41,0,0,1-.67.15A1.38,1.38,0,0,1,194,178.84Zm-33.8-.93-5.48-3.26,4.61-2.67a1.41,1.41,0,0,1,.67-.15,1.38,1.38,0,0,1,.67.16l5.48,3.26-4.61,2.67a1.41,1.41,0,0,1-.67.15A1.38,1.38,0,0,1,160.18,177.91ZM174,176.7l-5.48-3.26,4.61-2.67a1.41,1.41,0,0,1,.67-.15,1.38,1.38,0,0,1,.67.16L180,174l-4.62,2.67a1.53,1.53,0,0,1-1.34,0Zm-33.8-.94-5.49-3.26,4.61-2.67a1.41,1.41,0,0,1,.67-.15,1.38,1.38,0,0,1,.67.16l5.48,3.25-4.61,2.67a1.41,1.41,0,0,1-.67.15A1.38,1.38,0,0,1,140.23,175.77Zm44.9-2-5.48-3.26,4.61-2.67a1.41,1.41,0,0,1,.67-.15,1.38,1.38,0,0,1,.67.16l5.48,3.25-4.61,2.67a1.41,1.41,0,0,1-.67.15A1.38,1.38,0,0,1,185.13,173.73Zm-33.8-.93-5.48-3.26,4.61-2.67a1.41,1.41,0,0,1,.67-.15,1.38,1.38,0,0,1,.67.16l5.48,3.26-4.61,2.67a1.41,1.41,0,0,1-.67.15A1.38,1.38,0,0,1,151.33,172.79Zm-33.72-.93L109.27,167l4.61-2.67a1.41,1.41,0,0,1,.67-.15,1.38,1.38,0,0,1,.67.16l8.34,4.91-4.62,2.67a1.53,1.53,0,0,1-1.34,0Zm47.56-.28-5.48-3.26,4.61-2.67a1.41,1.41,0,0,1,.67-.15,1.39,1.39,0,0,1,.67.16l5.48,3.26-4.62,2.67a1.53,1.53,0,0,1-1.34,0Zm-33.8-.94-5.48-3.26,4.61-2.67a1.41,1.41,0,0,1,.67-.15,1.38,1.38,0,0,1,.67.16l5.48,3.25-4.61,2.67a1.41,1.41,0,0,1-.67.15A1.38,1.38,0,0,1,131.37,170.65Zm44.9-2-5.48-3.26,4.61-2.67a1.41,1.41,0,0,1,.67-.15,1.38,1.38,0,0,1,.67.16l5.48,3.26-4.61,2.67a1.41,1.41,0,0,1-.67.15A1.38,1.38,0,0,1,176.27,168.62Zm-33.8-.93L137,164.42l4.61-2.67a1.41,1.41,0,0,1,.67-.15,1.38,1.38,0,0,1,.67.16l5.48,3.25-4.61,2.67a1.41,1.41,0,0,1-.67.15A1.39,1.39,0,0,1,142.47,167.68Zm13.84-1.2-5.48-3.26,4.61-2.67a1.41,1.41,0,0,1,.67-.15,1.38,1.38,0,0,1,.67.16l5.48,3.25-4.61,2.67a1.41,1.41,0,0,1-.67.15A1.38,1.38,0,0,1,156.32,166.48Zm-33.8-.94L117,162.29l4.61-2.67a1.41,1.41,0,0,1,.67-.15,1.38,1.38,0,0,1,.67.16l5.48,3.26-4.61,2.67a1.41,1.41,0,0,1-.67.15A1.38,1.38,0,0,1,122.52,165.54Zm44.9-2-5.48-3.26,4.61-2.67a1.41,1.41,0,0,1,.67-.15,1.38,1.38,0,0,1,.67.16l5.48,3.26-4.61,2.67a1.41,1.41,0,0,1-.67.15A1.38,1.38,0,0,1,167.42,163.5Zm-33.8-.93-8.34-4.91,4.61-2.67a1.41,1.41,0,0,1,.67-.15,1.38,1.38,0,0,1,.67.16l8.34,4.91L135,162.57a1.41,1.41,0,0,1-.67.15A1.38,1.38,0,0,1,133.62,162.57Zm94.89,74.24L223,233.55l4.61-2.67a1.41,1.41,0,0,1,.67-.15,1.38,1.38,0,0,1,.67.16l5.48,3.26-4.61,2.67a1.41,1.41,0,0,1-.67.15A1.38,1.38,0,0,1,228.5,236.81Zm-81-75.44L142,158.11l4.61-2.67a1.41,1.41,0,0,1,.67-.15,1.38,1.38,0,0,1,.67.16l5.48,3.25-4.61,2.67a1.41,1.41,0,0,1-.67.15A1.38,1.38,0,0,1,147.46,161.37Zm11.1-3-5.48-3.26,4.61-2.67a1.41,1.41,0,0,1,.67-.15,1.38,1.38,0,0,1,.67.16l5.48,3.25-4.61,2.67a1.41,1.41,0,0,1-.67.15A1.38,1.38,0,0,1,158.56,158.39Zm78,73.74-5.48-3.25,4.62-2.67a1.53,1.53,0,0,1,1.34,0l5.48,3.26-4.62,2.67a1.53,1.53,0,0,1-1.34,0Zm-16.95-.44-5.48-3.26,4.61-2.67a1.41,1.41,0,0,1,.67-.15,1.38,1.38,0,0,1,.67.16L225.6,229,221,231.7a1.41,1.41,0,0,1-.67.15A1.38,1.38,0,0,1,219.65,231.69Zm-81-75.44L133.12,153l4.61-2.67a1.41,1.41,0,0,1,.67-.15,1.38,1.38,0,0,1,.67.16l5.48,3.26-4.61,2.67a1.41,1.41,0,0,1-.67.15A1.38,1.38,0,0,1,138.61,156.25Zm11.1-3-8.34-4.91,4.61-2.67a1.41,1.41,0,0,1,.67-.15,1.39,1.39,0,0,1,.67.16l8.34,4.9L151,153.28a1.41,1.41,0,0,1-.67.15A1.38,1.38,0,0,1,149.71,153.28Zm95.07,74L221.72,214v-.36l4.51-2.61a1.06,1.06,0,0,1,.5-.11,1.1,1.1,0,0,1,.51.11l7.75,4.41a2,2,0,0,0,1,.24,2,2,0,0,0,1-.24l6.07-3.51a2.06,2.06,0,0,1,1.81,0l13.9,8v.36l-12.11,7a2.06,2.06,0,0,1-1.81,0Zm-17-.27-5.48-3.26,4.62-2.67a1.53,1.53,0,0,1,1.34,0l5.48,3.25L229.08,227a1.53,1.53,0,0,1-1.34,0Zm-16.95-.44-5.48-3.26,4.61-2.67a1.41,1.41,0,0,1,.67-.15,1.38,1.38,0,0,1,.67.16l5.48,3.26-4.61,2.67a1.41,1.41,0,0,1-.67.15A1.39,1.39,0,0,1,210.79,226.58Zm8.09-4.68-5.48-3.26L218,216a1.41,1.41,0,0,1,.67-.15,1.38,1.38,0,0,1,.67.16l5.48,3.25-4.62,2.67a1.53,1.53,0,0,1-1.34,0Zm42-3.77-5.48-3.25,4.61-2.67a1.41,1.41,0,0,1,.67-.15,1.38,1.38,0,0,1,.67.16l5.48,3.26-4.61,2.67a1.41,1.41,0,0,1-.67.15A1.38,1.38,0,0,1,260.84,218.14ZM252,213l-5.48-3.26,4.62-2.67a1.53,1.53,0,0,1,1.34,0l5.48,3.26L253.33,213a1.56,1.56,0,0,1-1.34,0Zm-16.93-.45-5.48-3.26,4.61-2.67a1.41,1.41,0,0,1,.67-.15,1.39,1.39,0,0,1,.67.16l5.48,3.26-4.61,2.67a1.41,1.41,0,0,1-.67.15A1.38,1.38,0,0,1,235.05,212.57Zm8.08-4.66-5.48-3.26,4.62-2.67a1.53,1.53,0,0,1,1.34,0l5.48,3.25-4.61,2.67a1.56,1.56,0,0,1-1.34,0Z"/><path class="cls-31" d="M123,209.66,156.51,229h0l21.71-12.54a0,0,0,0,0,0,0l-33.48-19.33h0L123,209.62A0,0,0,0,0,123,209.66Z"/><path class="cls-32" d="M231.43,234.79l-1.85-1.1,1-.56,1.85,1.1Zm8.09-4.68-1.85-1.1,1-.56,1.85,1.1Zm-16.95-.44-1.85-1.1,1-.56,1.85,1.1Zm8.09-4.68-1.85-1.1,1-.56,1.85,1.1Zm-16.95-.44-1.85-1.1,1-.56,1.85,1.1Zm8.09-4.68-1.85-1.1,1-.56,1.85,1.1Zm42-3.77-1.85-1.1,1-.56,1.85,1.1ZM254.91,211l-1.85-1.1,1-.56,1.85,1.1ZM238,210.56l-1.85-1.1,1-.56,1.85,1.1Zm8.07-4.66-1.85-1.1,1-.56,1.85,1.1Zm-45.77,9.92-1.85-1.1,1-.56,1.85,1.1Zm7.81-4.65-4.69-2.76,1-.55,4.69,2.76Zm-16.66-.47-1.85-1.1,1-.56,1.85,1.1Zm24.91-4.16-1.85-1.1,1-.56,1.85,1.1Zm-33.77-1-1.85-1.1,1-.56,1.85,1.1Zm13.81-1.18-1.85-1.1,1-.56,1.85,1.1Zm27.8-2.53-4.69-2.76,1-.55,4.69,2.76Zm-16.7-.45-1.85-1.1,1-.56,1.85,1.1ZM129.85,175l-1.85-1.1,1-.56,1.85,1.1Zm57.68,24.26-1.85-1.1,1-.56,1.85,1.1Zm44.9-2-1.85-1.1,1-.56,1.85,1.1Zm-33.8-.93-1.85-1.1,1-.56,1.85,1.1Zm13.84-1.2-1.85-1.1,1-.56,1.85,1.1Zm-33.8-.94-1.85-1.1,1-.56,1.85,1.1Zm44.9-2-1.85-1.1,1-.56,1.85,1.1Zm-33.8-.93-1.85-1.1,1-.56,1.85,1.1Zm13.84-1.2-1.85-1.1,1-.56,1.85,1.1Zm-33.8-.94L168,188l1-.56,1.85,1.1Zm44.9-2-1.85-1.1,1-.56,1.85,1.1Zm-33.8-.93-1.85-1.1,1-.56,1.85,1.1Zm13.84-1.2-1.85-1.1,1-.56,1.85,1.1ZM161,184l-1.85-1.1,1-.56,1.85,1.1Zm44.9-2-1.85-1.1,1-.56,1.85,1.1Zm-33.8-.93-1.85-1.1,1-.56,1.85,1.1Zm13.84-1.2-1.85-1.1,1-.56,1.85,1.1Zm-33.8-.94-1.85-1.1,1-.56,1.85,1.1Zm44.9-2-1.86-1.1,1-.56,1.85,1.1Zm-33.8-.94-1.85-1.1,1-.56,1.86,1.1Zm13.84-1.2-1.85-1.1,1-.56,1.85,1.1Zm-33.8-.94-1.85-1.1,1-.56,1.85,1.1Zm44.9-2-1.85-1.1,1-.56,1.85,1.1Zm-33.8-.93-1.85-1.1,1-.56,1.86,1.1Zm-33.72-.93-4.69-2.76,1-.55,4.69,2.76Zm47.56-.28-1.85-1.1,1-.56,1.85,1.1Zm-33.8-.94-1.85-1.1,1-.56,1.85,1.1Zm44.9-2-1.85-1.1,1-.56,1.85,1.1Zm-33.8-.93-1.85-1.1,1-.56,1.85,1.1Zm13.84-1.2-1.85-1.1,1-.56,1.85,1.1Zm-33.8-.94-1.85-1.1,1-.56,1.85,1.1Zm44.9-2-1.85-1.1,1-.56,1.85,1.1Zm-33.8-.93-4.69-2.76,1-.55L137.6,160Zm13.85-1.2-1.85-1.1,1-.56,1.85,1.1Zm11.1-3-1.85-1.1,1-.56,1.86,1.1Zm-20-2.14-1.86-1.1,1-.56,1.86,1.1Zm11.1-3L148,148.48l1-.55,4.69,2.76Z"/><path class="cls-33" d="M144.74,197.09h0l33.48,19.33a0,0,0,0,1,0,0l-1.46.84-32-18.49h0L124.49,210.5l-1.46-.84a0,0,0,0,1,0,0Z"/></g><path class="cls-34" d="M147,137.08a3.55,3.55,0,0,1,.57-.9,2.68,2.68,0,0,1,.68-.56l135,78.52a2.68,2.68,0,0,0-.68.56,3.55,3.55,0,0,0-.57.9,2.81,2.81,0,0,0-.26,1.12c0,.09,0,.17,0,.25l-135-78.52c0-.08,0-.16,0-.25A2.81,2.81,0,0,1,147,137.08Z"/><ellipse class="cls-35" cx="282.54" cy="215.56" rx="1.64" ry="1.19" transform="matrix(0.5, -0.87, 0.87, 0.5, -45.41, 352.46)"/><path class="cls-36" d="M222.83,284.07c1.81-4.62,8.65-13.54,19-17.47,8.27-3.15,18.71-6.37,31.09.8a14.8,14.8,0,0,1,1.34.88c4.48,3.29,4.34,8.82-.44,12.17-8.79,6.16-19.47,11.95-19.47,11.95a37.09,37.09,0,0,1-8.36,3.33c-7.11,1.81-13.42,1.16-18.77-1.95-3.38-2-5.06-4.53-5-7.11A8.38,8.38,0,0,1,222.83,284.07Z"/><path class="cls-37" d="M257.57,268.65l3.49-1.9a3.52,3.52,0,0,1,3.93.61c.86.74.47,1-.55,1.54l-3.51,1.65a4.16,4.16,0,0,1-3.65,0C256.35,269.92,256.56,269.15,257.57,268.65Z"/><g class="cls-38"><g class="cls-2"><path class="cls-39" d="M259.83,265.83a3.39,3.39,0,0,1,3.43-.11l-5,8C255.77,271.87,257,267.55,259.83,265.83Z"/><path class="cls-40" d="M258.3,269.77a7.32,7.32,0,0,1,2.92-3.62,2.94,2.94,0,0,1,1.69-.45,1.69,1.69,0,0,1,.71.22,3.17,3.17,0,0,1,1.46,1.95c.86,3-2.66,8.17-6.24,6.27C257.79,273.52,257.53,271.77,258.3,269.77Z"/><path class="cls-41" d="M260.8,270.68a4.58,4.58,0,0,1,1.82-2.26,1.83,1.83,0,0,1,1.05-.28c1,.09,1.36,1.37.78,2.86a4.58,4.58,0,0,1-1.82,2.27,1.82,1.82,0,0,1-1,.28C260.57,273.45,260.22,272.17,260.8,270.68Z"/><path class="cls-42" d="M258,269.57l.14-.34a8,8,0,0,1,1.3-2,6,6,0,0,1,1.48-1.25,2.93,2.93,0,0,1,1.69-.45,1.69,1.69,0,0,1,.71.22l.35.2a1.69,1.69,0,0,0-.71-.22,2.94,2.94,0,0,0-1.69.45,6,6,0,0,0-1.48,1.25,8,8,0,0,0-1.3,2l-.14.34c-.77,2-.51,3.75.53,4.36l-.35-.2C257.44,273.32,257.18,271.57,258,269.57Z"/></g></g><path class="cls-37" d="M226.56,291.49c5.35,3.11,11.66,3.76,18.77,1.95a37.1,37.1,0,0,0,8.36-3.33s10.68-5.78,19.47-11.95c2.66-1.86,3.87-4.4,3.67-6.84,1.47,3.06.47,6.68-3,9.14-8.79,6.16-19.47,11.95-19.47,11.95a37.08,37.08,0,0,1-8.36,3.33c-7.11,1.81-13.42,1.16-18.77-1.95-3.15-1.83-4.8-4.19-5-6.59A10.67,10.67,0,0,0,226.56,291.49Z"/><path class="cls-37" d="M226.88,292.58c5.35,3.11,11.66,3.76,18.77,1.95A37.08,37.08,0,0,0,254,291.2s10.68-5.78,19.47-11.95c2.84-2,4-4.75,3.6-7.35,1.08,2.92,0,6.24-3.29,8.55-8.79,6.16-19.47,11.95-19.47,11.95a37.08,37.08,0,0,1-8.36,3.33c-7.11,1.81-13.42,1.16-18.77-1.95-2.92-1.7-4.54-3.85-4.92-6.07A10.08,10.08,0,0,0,226.88,292.58Z"/><path class="cls-43" d="M195.07,126.84l-3.88-2.12-5.5-14.55-.6,11.22-3.36-1.84L183,95.61l3.36,1.84L185.81,108l6.41-7.38,3.88,2.12-6.93,8.18Z"/><path class="cls-43" d="M203.31,131.84a15,15,0,0,1-6.1-7,21.16,21.16,0,0,1-2.09-10.26q.28-5.23,3-7.43c1.86-1.48,4-1.54,6.48-.19a15,15,0,0,1,6.1,7.06,20.77,20.77,0,0,1,2.12,10.24c-.19,3.49-1.19,6-3.05,7.45S205.77,133.18,203.31,131.84Zm.25-4.62c1.56.85,2.92.85,4,0s1.76-2.49,1.88-4.78a13.32,13.32,0,0,0-1.29-6.51,9.3,9.3,0,0,0-3.81-4.37,3.42,3.42,0,0,0-4,.08c-1.13.9-1.76,2.49-1.88,4.78a13.32,13.32,0,0,0,1.29,6.51A9.21,9.21,0,0,0,203.55,127.22Z"/><path class="cls-43" d="M222.21,117a9.92,9.92,0,0,1,4,4.59,13.43,13.43,0,0,1,1.38,6.63c-.12,2.26-.78,3.87-2,4.8a3.66,3.66,0,0,1-4.27.06l-3-1.64-.42,7.87-3.36-1.84,1.27-23.95Zm-.62,11.67c1.44.79,2.57-.22,2.68-2.27s-.86-4.2-2.29-5l-3-1.64-.38,7.25Z"/><path class="cls-43" d="M243,128.36l-1.27,23.95-3.36-1.84,1-19.43-6-3.29-1,19.43L229,145.35l1.27-23.95Z"/></g></g></g></svg>