<svg xmlns="http://www.w3.org/2000/svg" xmlns:xlink="http://www.w3.org/1999/xlink" viewBox="0 0 450 331.48"><defs><style>.cls-1{fill:none;}.cls-2{isolation:isolate;}.cls-3,.cls-69,.cls-85,.cls-89{mix-blend-mode:multiply;}.cls-4,.cls-80,.cls-91{fill:#fff;}.cls-4{opacity:0;}.cls-5{fill:#fbfbfb;opacity:0.05;}.cls-6{fill:#f8f7f7;opacity:0.1;}.cls-7{fill:#f5f5f5;opacity:0.14;}.cls-8{fill:#f3f2f2;opacity:0.19;}.cls-9{fill:#f0f0f0;opacity:0.24;}.cls-10{fill:#eee;opacity:0.29;}.cls-11{fill:#ecebec;opacity:0.33;}.cls-12{fill:#eae9e9;opacity:0.38;}.cls-13{fill:#e8e7e7;opacity:0.43;}.cls-14{fill:#e5e5e5;opacity:0.48;}.cls-15{fill:#e3e3e3;opacity:0.52;}.cls-16{fill:#e1e1e2;opacity:0.57;}.cls-17{fill:#dfdfe0;opacity:0.62;}.cls-18{fill:#ddddde;opacity:0.67;}.cls-19{fill:#dbdadc;opacity:0.71;}.cls-20{fill:#d8d8da;opacity:0.76;}.cls-21{fill:#d6d6d8;opacity:0.81;}.cls-22{fill:#d4d4d6;opacity:0.86;}.cls-23{fill:#d2d3d4;opacity:0.9;}.cls-24{fill:#d0d1d2;opacity:0.95;}.cls-25{fill:#cecfd0;}.cls-26{fill:#c4c4c4;}.cls-26,.cls-27,.cls-28,.cls-29,.cls-30,.cls-31,.cls-32,.cls-33,.cls-34,.cls-35,.cls-36,.cls-37,.cls-38,.cls-39,.cls-40,.cls-41,.cls-42,.cls-43,.cls-44,.cls-45,.cls-46,.cls-47,.cls-48,.cls-49,.cls-50,.cls-51,.cls-52,.cls-53,.cls-54,.cls-55,.cls-56,.cls-57,.cls-58,.cls-59,.cls-60,.cls-61,.cls-62,.cls-63,.cls-64,.cls-65,.cls-66,.cls-67,.cls-68{fill-rule:evenodd;}.cls-27{fill:url(#linear-gradient);}.cls-28{fill:url(#linear-gradient-2);}.cls-29{fill:url(#linear-gradient-3);}.cls-30{fill:url(#linear-gradient-4);}.cls-31{fill:url(#linear-gradient-5);}.cls-32{fill:url(#linear-gradient-6);}.cls-33{fill:url(#linear-gradient-7);}.cls-34{fill:url(#linear-gradient-8);}.cls-35{fill:url(#linear-gradient-9);}.cls-36{fill:url(#linear-gradient-10);}.cls-37{fill:url(#linear-gradient-11);}.cls-38{fill:url(#linear-gradient-12);}.cls-39{fill:url(#linear-gradient-13);}.cls-40{fill:url(#linear-gradient-14);}.cls-41{fill:url(#linear-gradient-15);}.cls-42{fill:url(#linear-gradient-16);}.cls-43{fill:url(#linear-gradient-17);}.cls-44{fill:url(#linear-gradient-18);}.cls-45{fill:url(#linear-gradient-19);}.cls-46{fill:url(#linear-gradient-20);}.cls-47{fill:url(#Безымянный_градиент_650);}.cls-48{fill:url(#linear-gradient-21);}.cls-49{fill:url(#linear-gradient-22);}.cls-50{fill:url(#linear-gradient-23);}.cls-51{fill:url(#linear-gradient-24);}.cls-52{fill:url(#linear-gradient-25);}.cls-53{fill:url(#linear-gradient-26);}.cls-54{fill:url(#linear-gradient-27);}.cls-55{fill:url(#linear-gradient-28);}.cls-56{fill:url(#linear-gradient-29);}.cls-57{fill:url(#linear-gradient-30);}.cls-58{fill:url(#linear-gradient-31);}.cls-59{fill:url(#linear-gradient-32);}.cls-60{fill:url(#linear-gradient-33);}.cls-61{fill:url(#linear-gradient-34);}.cls-62{fill:url(#linear-gradient-35);}.cls-63{fill:url(#linear-gradient-36);}.cls-64{fill:url(#linear-gradient-37);}.cls-65{fill:url(#linear-gradient-38);}.cls-66{fill:url(#linear-gradient-39);}.cls-67{fill:url(#linear-gradient-40);}.cls-68{fill:url(#Безымянный_градиент_3084);}.cls-69{fill:#e0e0d9;}.cls-70{fill:url(#Безымянный_градиент_113);}.cls-71{fill:url(#Безымянный_градиент_2581);}.cls-72{fill:url(#Безымянный_градиент_120);}.cls-73{fill:url(#Безымянный_градиент_116);}.cls-74{fill:url(#Безымянный_градиент_120-2);}.cls-75{fill:url(#GradientFill_121);}.cls-76{fill:url(#GradientFill_121-2);}.cls-77{fill:#7e8181;}.cls-78{fill:url(#Безымянный_градиент_301);}.cls-79{fill:url(#Безымянный_градиент_113-2);}.cls-80,.cls-89{opacity:0.5;}.cls-81{fill:#e4e4e3;}.cls-82{fill:url(#Безымянный_градиент_284);}.cls-83{fill:url(#Безымянный_градиент_116-2);}.cls-84{fill:url(#Безымянный_градиент_260);}.cls-85{fill:#d2d2ce;opacity:0.6;}.cls-86{clip-path:url(#clip-path);}.cls-87{fill:#fffffc;}.cls-88{fill:#b7b6b3;}.cls-89{fill:#cdcfce;}.cls-90{fill:#f1efed;}</style><linearGradient id="linear-gradient" x1="17.03" y1="181.18" x2="408.06" y2="181.18" gradientUnits="userSpaceOnUse"><stop offset="0" stop-color="#c6c6c6"/><stop offset="1" stop-color="#c5c4c4"/></linearGradient><linearGradient id="linear-gradient-2" x1="16.85" y1="181.06" x2="408.15" y2="181.06" gradientUnits="userSpaceOnUse"><stop offset="0" stop-color="#c9c8c8"/><stop offset="1" stop-color="#c5c5c5"/></linearGradient><linearGradient id="linear-gradient-3" x1="16.66" y1="180.93" x2="408.24" y2="180.93" gradientUnits="userSpaceOnUse"><stop offset="0" stop-color="#cbcaca"/><stop offset="1" stop-color="#c5c5c5"/></linearGradient><linearGradient id="linear-gradient-4" x1="16.48" y1="180.8" x2="408.33" y2="180.8" gradientUnits="userSpaceOnUse"><stop offset="0" stop-color="#cdcdcd"/><stop offset="1" stop-color="#c6c6c6"/></linearGradient><linearGradient id="linear-gradient-5" x1="16.29" y1="180.67" x2="408.42" y2="180.67" gradientUnits="userSpaceOnUse"><stop offset="0" stop-color="#cfcfcf"/><stop offset="1" stop-color="#c6c6c6"/></linearGradient><linearGradient id="linear-gradient-6" x1="16.11" y1="180.55" x2="408.51" y2="180.55" gradientUnits="userSpaceOnUse"><stop offset="0" stop-color="#d2d1d1"/><stop offset="1" stop-color="#c7c7c7"/></linearGradient><linearGradient id="linear-gradient-7" x1="15.92" y1="180.42" x2="408.6" y2="180.42" gradientUnits="userSpaceOnUse"><stop offset="0" stop-color="#d4d4d3"/><stop offset="1" stop-color="#c7c7c7"/></linearGradient><linearGradient id="linear-gradient-8" x1="15.74" y1="180.29" x2="408.69" y2="180.29" gradientUnits="userSpaceOnUse"><stop offset="0" stop-color="#d6d6d6"/><stop offset="1" stop-color="#c8c7c7"/></linearGradient><linearGradient id="linear-gradient-9" x1="15.55" y1="180.17" x2="408.78" y2="180.17" gradientUnits="userSpaceOnUse"><stop offset="0" stop-color="#d9d8d8"/><stop offset="1" stop-color="#c8c8c8"/></linearGradient><linearGradient id="linear-gradient-10" x1="15.37" y1="180.04" x2="408.86" y2="180.04" gradientUnits="userSpaceOnUse"><stop offset="0" stop-color="#dbdbda"/><stop offset="1" stop-color="#c9c8c8"/></linearGradient><linearGradient id="linear-gradient-11" x1="15.18" y1="179.91" x2="408.95" y2="179.91" gradientUnits="userSpaceOnUse"><stop offset="0" stop-color="#ddd"/><stop offset="1" stop-color="#c9c9c9"/></linearGradient><linearGradient id="linear-gradient-12" x1="15" y1="179.78" x2="409.04" y2="179.78" gradientUnits="userSpaceOnUse"><stop offset="0" stop-color="#e0e0df"/><stop offset="1" stop-color="#cac9c9"/></linearGradient><linearGradient id="linear-gradient-13" x1="14.81" y1="179.66" x2="409.13" y2="179.66" gradientUnits="userSpaceOnUse"><stop offset="0" stop-color="#e2e2e2"/><stop offset="1" stop-color="#cacaca"/></linearGradient><linearGradient id="linear-gradient-14" x1="14.63" y1="179.53" x2="409.22" y2="179.53" gradientUnits="userSpaceOnUse"><stop offset="0" stop-color="#e5e4e4"/><stop offset="1" stop-color="#cacaca"/></linearGradient><linearGradient id="linear-gradient-15" x1="14.45" y1="179.4" x2="409.31" y2="179.4" gradientUnits="userSpaceOnUse"><stop offset="0" stop-color="#e7e7e7"/><stop offset="1" stop-color="#cbcbcb"/></linearGradient><linearGradient id="linear-gradient-16" x1="14.26" y1="179.27" x2="409.4" y2="179.27" gradientUnits="userSpaceOnUse"><stop offset="0" stop-color="#eae9e9"/><stop offset="1" stop-color="#cbcbcb"/></linearGradient><linearGradient id="linear-gradient-17" x1="14.08" y1="179.15" x2="409.49" y2="179.15" gradientUnits="userSpaceOnUse"><stop offset="0" stop-color="#ececec"/><stop offset="1" stop-color="#ccc"/></linearGradient><linearGradient id="linear-gradient-18" x1="13.89" y1="179.02" x2="409.58" y2="179.02" gradientUnits="userSpaceOnUse"><stop offset="0" stop-color="#efefef"/><stop offset="1" stop-color="#ccc"/></linearGradient><linearGradient id="linear-gradient-19" x1="13.71" y1="178.89" x2="409.67" y2="178.89" gradientUnits="userSpaceOnUse"><stop offset="0" stop-color="#f2f1f1"/><stop offset="1" stop-color="#cdcdcc"/></linearGradient><linearGradient id="linear-gradient-20" x1="13.52" y1="178.77" x2="409.76" y2="178.77" gradientUnits="userSpaceOnUse"><stop offset="0" stop-color="#f4f4f4"/><stop offset="1" stop-color="#cdcdcd"/></linearGradient><linearGradient id="Безымянный_градиент_650" x1="13.34" y1="178.64" x2="409.85" y2="178.64" gradientUnits="userSpaceOnUse"><stop offset="0" stop-color="#f7f8f8"/><stop offset="1" stop-color="#cececd"/></linearGradient><linearGradient id="linear-gradient-21" x1="16.43" y1="184.54" x2="409.36" y2="172.51" gradientUnits="userSpaceOnUse"><stop offset="0" stop-color="#f8f8f8"/><stop offset="1" stop-color="#cfcfcf"/></linearGradient><linearGradient id="linear-gradient-22" x1="19.81" y1="190.25" x2="408.57" y2="166.43" gradientUnits="userSpaceOnUse"><stop offset="0" stop-color="#f8f8f8"/><stop offset="1" stop-color="#d1d1d1"/></linearGradient><linearGradient id="linear-gradient-23" x1="23.47" y1="195.75" x2="407.48" y2="160.4" gradientUnits="userSpaceOnUse"><stop offset="0" stop-color="#f8f9f9"/><stop offset="1" stop-color="#d3d3d3"/></linearGradient><linearGradient id="linear-gradient-24" x1="27.38" y1="201.02" x2="406.09" y2="154.44" gradientUnits="userSpaceOnUse"><stop offset="0" stop-color="#f8f9f9"/><stop offset="1" stop-color="#d5d5d5"/></linearGradient><linearGradient id="linear-gradient-25" x1="31.55" y1="206.07" x2="404.4" y2="148.58" gradientUnits="userSpaceOnUse"><stop offset="0" stop-color="#f9f9f9"/><stop offset="1" stop-color="#d7d7d6"/></linearGradient><linearGradient id="linear-gradient-26" x1="35.93" y1="210.86" x2="402.43" y2="142.82" gradientUnits="userSpaceOnUse"><stop offset="0" stop-color="#f9f9fa"/><stop offset="1" stop-color="#d9d8d8"/></linearGradient><linearGradient id="linear-gradient-27" x1="40.53" y1="215.4" x2="400.18" y2="137.17" gradientUnits="userSpaceOnUse"><stop offset="0" stop-color="#f9fafa"/><stop offset="1" stop-color="#dbdada"/></linearGradient><linearGradient id="linear-gradient-28" x1="45.31" y1="219.67" x2="397.66" y2="131.67" gradientUnits="userSpaceOnUse"><stop offset="0" stop-color="#fafafa"/><stop offset="1" stop-color="#dddcdc"/></linearGradient><linearGradient id="linear-gradient-29" x1="50.27" y1="223.67" x2="394.87" y2="126.31" gradientUnits="userSpaceOnUse"><stop offset="0" stop-color="#fafafb"/><stop offset="1" stop-color="#dedede"/></linearGradient><linearGradient id="linear-gradient-30" x1="55.38" y1="227.39" x2="391.84" y2="121.11" gradientUnits="userSpaceOnUse"><stop offset="0" stop-color="#fafbfb"/><stop offset="1" stop-color="#e0e0e0"/></linearGradient><linearGradient id="linear-gradient-31" x1="60.61" y1="230.83" x2="388.57" y2="116.09" gradientUnits="userSpaceOnUse"><stop offset="0" stop-color="#fbfbfb"/><stop offset="1" stop-color="#e2e2e2"/></linearGradient><linearGradient id="linear-gradient-32" x1="65.96" y1="233.98" x2="385.07" y2="111.25" gradientUnits="userSpaceOnUse"><stop offset="0" stop-color="#fbfbfc"/><stop offset="1" stop-color="#e4e4e4"/></linearGradient><linearGradient id="linear-gradient-33" x1="71.4" y1="236.84" x2="381.36" y2="106.61" gradientUnits="userSpaceOnUse"><stop offset="0" stop-color="#fcfcfc"/><stop offset="1" stop-color="#e7e6e6"/></linearGradient><linearGradient id="linear-gradient-34" x1="76.92" y1="239.4" x2="377.44" y2="102.18" gradientUnits="userSpaceOnUse"><stop offset="0" stop-color="#fcfcfc"/><stop offset="1" stop-color="#e8e8e8"/></linearGradient><linearGradient id="linear-gradient-35" x1="82.48" y1="241.68" x2="373.34" y2="97.96" gradientUnits="userSpaceOnUse"><stop offset="0" stop-color="#fcfdfd"/><stop offset="1" stop-color="#eaeaea"/></linearGradient><linearGradient id="linear-gradient-36" x1="88.08" y1="243.67" x2="369.06" y2="93.97" gradientUnits="userSpaceOnUse"><stop offset="0" stop-color="#fdfdfd"/><stop offset="1" stop-color="#ececec"/></linearGradient><linearGradient id="linear-gradient-37" x1="93.7" y1="245.37" x2="364.62" y2="90.2" gradientUnits="userSpaceOnUse"><stop offset="0" stop-color="#fdfdfd"/><stop offset="1" stop-color="#efeeee"/></linearGradient><linearGradient id="linear-gradient-38" x1="99.31" y1="246.79" x2="360.04" y2="86.67" gradientUnits="userSpaceOnUse"><stop offset="0" stop-color="#fefefe"/><stop offset="1" stop-color="#f1f0f0"/></linearGradient><linearGradient id="linear-gradient-39" x1="104.9" y1="247.94" x2="355.34" y2="83.38" gradientUnits="userSpaceOnUse"><stop offset="0" stop-color="#fefefe"/><stop offset="1" stop-color="#f3f3f3"/></linearGradient><linearGradient id="linear-gradient-40" x1="110.45" y1="248.82" x2="350.52" y2="80.34" gradientUnits="userSpaceOnUse"><stop offset="0" stop-color="#fff"/><stop offset="1" stop-color="#f5f5f5"/></linearGradient><linearGradient id="Безымянный_градиент_3084" x1="115.94" y1="249.43" x2="345.61" y2="77.54" gradientUnits="userSpaceOnUse"><stop offset="0" stop-color="#fff"/><stop offset="1" stop-color="#f7f8f8"/></linearGradient><linearGradient id="Безымянный_градиент_113" x1="2843.17" y1="92.52" x2="2978.06" y2="92.52" gradientTransform="matrix(-1, 0, 0, 1, 3143.35, 0)" gradientUnits="userSpaceOnUse"><stop offset="0" stop-color="#f5f6f6"/><stop offset="0.69" stop-color="#f7f8f8"/><stop offset="0.98" stop-color="#fefefe"/><stop offset="1" stop-color="#fff"/></linearGradient><linearGradient id="Безымянный_градиент_2581" x1="2844.98" y1="91.8" x2="2976.11" y2="91.8" gradientTransform="matrix(-1, 0, 0, 1, 3143.35, 0)" gradientUnits="userSpaceOnUse"><stop offset="0" stop-color="#0b7c7b"/><stop offset="1" stop-color="#05a2a7"/></linearGradient><linearGradient id="Безымянный_градиент_120" x1="-9399.47" y1="40.04" x2="-9261.35" y2="40.04" gradientTransform="translate(9564.76)" gradientUnits="userSpaceOnUse"><stop offset="0" stop-color="#fdfeff"/><stop offset="1" stop-color="#fff"/></linearGradient><linearGradient id="Безымянный_градиент_116" x1="-9483.34" y1="195.32" x2="-9348.44" y2="195.32" gradientTransform="translate(9564.76)" gradientUnits="userSpaceOnUse"><stop offset="0" stop-color="#dfdfde"/><stop offset="0.44" stop-color="#d4d4d4"/><stop offset="1" stop-color="#b5b5b5"/></linearGradient><linearGradient id="Безымянный_градиент_120-2" x1="-9483.34" y1="169.24" x2="-9264.83" y2="169.24" xlink:href="#Безымянный_градиент_120"/><linearGradient id="GradientFill_121" x1="429.1" y1="210.37" x2="519.45" y2="210.37" gradientTransform="matrix(-1, 0, 0, 1, 735.76, 0)" gradientUnits="userSpaceOnUse"><stop offset="0" stop-color="#a8a6a6"/><stop offset="0.52" stop-color="#a3a1a1"/><stop offset="1" stop-color="#989898"/></linearGradient><linearGradient id="GradientFill_121-2" x1="432.36" y1="130.83" x2="435.58" y2="130.83" xlink:href="#GradientFill_121"/><linearGradient id="Безымянный_градиент_301" x1="451.75" y1="159.42" x2="609.27" y2="159.42" gradientTransform="matrix(-1, 0, 0, 1, 735.76, 0)" gradientUnits="userSpaceOnUse"><stop offset="0" stop-color="#8e9191"/><stop offset="1" stop-color="#afb4b3"/></linearGradient><linearGradient id="Безымянный_градиент_113-2" x1="-9424.52" y1="181.2" x2="-9369.29" y2="181.2" gradientTransform="translate(9564.76)" xlink:href="#Безымянный_градиент_113"/><linearGradient id="Безымянный_градиент_284" x1="-9333.8" y1="146.38" x2="-9331.62" y2="142.48" gradientTransform="translate(9564.76)" gradientUnits="userSpaceOnUse"><stop offset="0" stop-color="#d3d3d3"/><stop offset="0.52" stop-color="#ebebeb"/><stop offset="1" stop-color="#c3c3c3"/></linearGradient><linearGradient id="Безымянный_градиент_116-2" x1="1599.22" y1="3064.32" x2="1601.76" y2="3064.32" gradientTransform="matrix(0, -0.93, -0.96, 0, 3248.67, 1676.57)" xlink:href="#Безымянный_градиент_116"/><radialGradient id="Безымянный_градиент_260" cx="2232.69" cy="242.88" r="43.63" gradientTransform="matrix(-1, 0, 0, 1, 2481.48, 0)" gradientUnits="userSpaceOnUse"><stop offset="0" stop-color="#fdfcfa"/><stop offset="1" stop-color="#d2d2ce"/></radialGradient><clipPath id="clip-path"><path class="cls-1" d="M282.52,236.25s-4.13,2.39-6.23,2.58a3.06,3.06,0,0,1-1.48-.26c-.51-.25-.81-.76-.62-1.78l.89-4.43s4-3.51,5.76-1.47S283.11,234.89,282.52,236.25Z"/></clipPath></defs><title>corp_1</title><g class="cls-2"><g id="Layer_2" data-name="Layer 2"><g id="Layer_1-2" data-name="Layer 1"><g class="cls-3"><ellipse class="cls-4" cx="225" cy="210.53" rx="225" ry="120.95"/><ellipse class="cls-5" cx="224.26" cy="211.19" rx="220.96" ry="118.18"/><ellipse class="cls-6" cx="223.53" cy="211.84" rx="216.92" ry="115.4"/><ellipse class="cls-7" cx="222.79" cy="212.5" rx="212.88" ry="112.63"/><ellipse class="cls-8" cx="222.05" cy="213.15" rx="208.84" ry="109.85"/><ellipse class="cls-9" cx="221.32" cy="213.81" rx="204.8" ry="107.07"/><ellipse class="cls-10" cx="220.58" cy="214.47" rx="200.76" ry="104.3"/><ellipse class="cls-11" cx="219.84" cy="215.12" rx="196.72" ry="101.52"/><ellipse class="cls-12" cx="219.1" cy="215.78" rx="192.68" ry="98.74"/><ellipse class="cls-13" cx="218.37" cy="216.44" rx="188.64" ry="95.97"/><ellipse class="cls-14" cx="217.63" cy="217.09" rx="184.59" ry="93.19"/><ellipse class="cls-15" cx="216.89" cy="217.75" rx="180.55" ry="90.41"/><ellipse class="cls-16" cx="216.16" cy="218.41" rx="176.51" ry="87.64"/><ellipse class="cls-17" cx="215.42" cy="219.06" rx="172.47" ry="84.86"/><ellipse class="cls-18" cx="214.68" cy="219.72" rx="168.43" ry="82.09"/><ellipse class="cls-19" cx="213.95" cy="220.38" rx="164.39" ry="79.31"/><ellipse class="cls-20" cx="213.21" cy="221.03" rx="160.35" ry="76.53"/><ellipse class="cls-21" cx="212.47" cy="221.69" rx="156.31" ry="73.76"/><ellipse class="cls-22" cx="211.74" cy="222.35" rx="152.27" ry="70.98"/><ellipse class="cls-23" cx="211" cy="223" rx="148.23" ry="68.2"/><ellipse class="cls-24" cx="210.26" cy="223.66" rx="144.19" ry="65.43"/><ellipse class="cls-25" cx="209.53" cy="224.32" rx="140.15" ry="62.65"/></g><path class="cls-26" d="M74.46,101.48c76.25-44.05,200-44.05,276.31,0s76.27,115.6,0,159.64-200.06,44.08-276.31,0S-1.86,145.56,74.46,101.48Z"/><path class="cls-27" d="M74.31,101.32c76.3-44.07,200.15-44.07,276.5,0s76.33,115.64,0,159.7-200.2,44.1-276.5,0S-2.06,145.42,74.31,101.32Z"/><path class="cls-28" d="M74.17,101.17c76.35-44.08,200.29-44.08,276.7,0s76.38,115.69,0,159.76-200.34,44.11-276.7,0S-2.26,145.28,74.17,101.17Z"/><path class="cls-29" d="M74,101c76.41-44.1,200.43-44.1,276.89,0s76.43,115.73,0,159.81S150.43,305,74,260.83-2.46,145.14,74,101Z"/><path class="cls-30" d="M73.88,100.85c76.46-44.11,200.57-44.11,277.08,0s76.49,115.77,0,159.87-200.62,44.14-277.08,0S-2.66,145,73.88,100.85Z"/><path class="cls-31" d="M73.74,100.7c76.51-44.13,200.71-44.13,277.28,0s76.54,115.81,0,159.93-200.76,44.16-277.28,0S-2.85,144.86,73.74,100.7Z"/><path class="cls-32" d="M73.59,100.54c76.57-44.15,200.85-44.15,277.47,0s76.59,115.85,0,160-200.9,44.17-277.47,0S-3.05,144.72,73.59,100.54Z"/><path class="cls-33" d="M73.45,100.39c76.62-44.16,201-44.16,277.67,0s76.65,115.89,0,160-201,44.19-277.67,0S-3.25,144.58,73.45,100.39Z"/><path class="cls-34" d="M73.3,100.23c76.67-44.18,201.13-44.18,277.86,0s76.7,115.93,0,160.1S150,304.54,73.3,260.33-3.45,144.44,73.3,100.23Z"/><path class="cls-35" d="M73.16,100.08c76.73-44.19,201.27-44.19,278.05,0s76.75,116,0,160.16-201.32,44.22-278.05,0S-3.65,144.3,73.16,100.08Z"/><path class="cls-36" d="M73,99.92c76.78-44.21,201.41-44.21,278.25,0s76.81,116,0,160.21-201.46,44.24-278.25,0S-3.85,144.16,73,99.92Z"/><path class="cls-37" d="M72.87,99.76c76.83-44.22,201.55-44.22,278.44,0s76.86,116.06,0,160.27S149.7,304.29,72.87,260-4,144,72.87,99.76Z"/><path class="cls-38" d="M72.72,99.61c76.89-44.24,201.7-44.24,278.63,0s76.92,116.1,0,160.33-201.75,44.27-278.63,0S-4.24,143.88,72.72,99.61Z"/><path class="cls-39" d="M72.58,99.45c76.94-44.26,201.84-44.26,278.83,0s77,116.14,0,160.38-201.89,44.28-278.83,0S-4.44,143.74,72.58,99.45Z"/><path class="cls-40" d="M72.43,99.3c77-44.27,202-44.27,279,0s77,116.18,0,160.44-202,44.3-279,0S-4.64,143.6,72.43,99.3Z"/><path class="cls-41" d="M72.29,99.14c77-44.29,202.12-44.29,279.21,0s77.08,116.22,0,160.5-202.17,44.32-279.21,0S-4.84,143.46,72.29,99.14Z"/><path class="cls-42" d="M72.14,99c77.1-44.3,202.26-44.3,279.41,0s77.13,116.26,0,160.55-202.31,44.33-279.41,0S-5,143.32,72.14,99Z"/><path class="cls-43" d="M72,98.83c77.16-44.32,202.4-44.32,279.6,0s77.18,116.3,0,160.61-202.45,44.35-279.6,0S-5.23,143.18,72,98.83Z"/><path class="cls-44" d="M71.86,98.67c77.21-44.33,202.54-44.33,279.8,0s77.24,116.35,0,160.67-202.59,44.36-279.8,0S-5.43,143,71.86,98.67Z"/><path class="cls-45" d="M71.71,98.52c77.26-44.35,202.68-44.35,280,0s77.29,116.39,0,160.73-202.73,44.38-280,0S-5.63,142.9,71.71,98.52Z"/><path class="cls-46" d="M71.57,98.36C148.88,54,274.38,54,351.75,98.36s77.34,116.43,0,160.78-202.87,44.39-280.18,0S-5.83,142.76,71.57,98.36Z"/><path class="cls-47" d="M71.42,98.21c77.37-44.38,203-44.38,280.38,0s77.4,116.47,0,160.84-203,44.41-280.38,0S-6,142.62,71.42,98.21Z"/><path class="cls-48" d="M71.57,98.16c77.32-44.37,202.82-44.37,280.18,0s77.34,116.43,0,160.78-202.87,44.39-280.18,0S-5.83,142.56,71.57,98.16Z"/><path class="cls-49" d="M71.71,98.12c77.26-44.35,202.68-44.35,280,0s77.29,116.39,0,160.73-202.73,44.38-280,0S-5.63,142.5,71.71,98.12Z"/><path class="cls-50" d="M71.86,98.07c77.21-44.33,202.54-44.33,279.8,0s77.24,116.35,0,160.67-202.59,44.36-279.8,0S-5.43,142.43,71.86,98.07Z"/><path class="cls-51" d="M72,98c77.16-44.32,202.4-44.32,279.6,0s77.18,116.3,0,160.61S149.16,303,72,258.64-5.23,142.37,72,98Z"/><path class="cls-52" d="M72.14,98c77.1-44.3,202.26-44.3,279.41,0s77.13,116.26,0,160.55-202.31,44.33-279.41,0S-5,142.31,72.14,98Z"/><path class="cls-53" d="M72.29,97.94c77-44.29,202.12-44.29,279.21,0s77.08,116.22,0,160.5-202.17,44.32-279.21,0S-4.84,142.25,72.29,97.94Z"/><path class="cls-54" d="M72.43,97.89c77-44.27,202-44.27,279,0s77,116.18,0,160.44-202,44.3-279,0S-4.64,142.19,72.43,97.89Z"/><path class="cls-55" d="M72.58,97.85c76.94-44.26,201.84-44.26,278.83,0s77,116.14,0,160.38-201.89,44.28-278.83,0S-4.44,142.13,72.58,97.85Z"/><path class="cls-56" d="M72.72,97.8c76.89-44.24,201.7-44.24,278.63,0s76.92,116.1,0,160.33-201.75,44.27-278.63,0S-4.24,142.07,72.72,97.8Z"/><path class="cls-57" d="M72.87,97.75c76.83-44.22,201.55-44.22,278.44,0s76.86,116.06,0,160.27S149.7,302.28,72.87,258-4,142,72.87,97.75Z"/><path class="cls-58" d="M73,97.71c76.78-44.21,201.41-44.21,278.25,0s76.81,116,0,160.21-201.46,44.24-278.25,0S-3.85,141.95,73,97.71Z"/><path class="cls-59" d="M73.16,97.66c76.73-44.19,201.27-44.19,278.05,0s76.75,116,0,160.16-201.32,44.22-278.05,0S-3.65,141.89,73.16,97.66Z"/><path class="cls-60" d="M73.3,97.62c76.67-44.18,201.13-44.18,277.86,0s76.7,115.93,0,160.1S150,301.92,73.3,257.72-3.45,141.82,73.3,97.62Z"/><path class="cls-61" d="M73.45,97.57c76.62-44.16,201-44.16,277.67,0s76.65,115.89,0,160-201,44.19-277.67,0S-3.25,141.76,73.45,97.57Z"/><path class="cls-62" d="M73.59,97.53c76.57-44.15,200.85-44.15,277.47,0s76.59,115.85,0,160-200.9,44.17-277.47,0S-3.05,141.7,73.59,97.53Z"/><path class="cls-63" d="M73.74,97.48c76.51-44.13,200.71-44.13,277.28,0s76.54,115.81,0,159.93-200.76,44.16-277.28,0S-2.85,141.64,73.74,97.48Z"/><path class="cls-64" d="M73.88,97.44c76.46-44.11,200.57-44.11,277.08,0s76.49,115.77,0,159.87-200.62,44.14-277.08,0S-2.66,141.58,73.88,97.44Z"/><path class="cls-65" d="M74,97.39c76.41-44.1,200.43-44.1,276.89,0s76.43,115.73,0,159.81-200.48,44.13-276.89,0S-2.46,141.52,74,97.39Z"/><path class="cls-66" d="M74.17,97.35c76.35-44.08,200.29-44.08,276.7,0s76.38,115.69,0,159.76-200.34,44.11-276.7,0S-2.26,141.46,74.17,97.35Z"/><path class="cls-67" d="M74.31,97.3c76.3-44.07,200.15-44.07,276.5,0s76.33,115.64,0,159.7-200.2,44.1-276.5,0S-2.06,141.4,74.31,97.3Z"/><path class="cls-68" d="M74.46,97.26c76.25-44.05,200-44.05,276.31,0s76.27,115.6,0,159.64S150.71,301,74.46,256.9-1.86,141.34,74.46,97.26Z"/><path class="cls-69" d="M353.67,193l-50.26.74-72.68,42.75-14.38,0L91.72,164.29l90.79-54.21L260.84,127l93.76,62.84A1.71,1.71,0,0,1,353.67,193Z"/><g id="_14" data-name="14"><polygon class="cls-70" points="300.18 80.08 165.29 1.6 165.29 105.05 300.18 183.44 300.18 80.08"/><polygon class="cls-71" points="298.38 81.15 167.25 4.71 167.25 102.69 298.24 178.9 298.38 81.15"/><polygon class="cls-72" points="303.4 78.23 168.19 0 165.29 1.6 300.18 80.08 303.4 78.23"/><polygon class="cls-73" points="216.31 232.57 81.42 154.18 81.43 158.07 216.32 236.46 216.31 232.57"/><polygon class="cls-74" points="299.93 184.29 165.04 105.9 81.42 154.18 216.31 232.57 299.93 184.29"/><polygon class="cls-75" points="299.93 184.29 299.93 188.19 216.32 236.46 216.31 232.57 299.93 184.29"/><polygon class="cls-76" points="300.18 183.44 300.18 80.08 303.4 78.23 303.4 181.53 300.18 183.44"/><path class="cls-77" d="M146.65,148.29l41,23.68a2.13,2.13,0,0,0,1.93,0l4.61-2.66a.59.59,0,0,0,0-1.11l-41-23.68a2.13,2.13,0,0,0-1.93,0l-4.61,2.66A.59.59,0,0,0,146.65,148.29Zm94.2,16.2,4.61-2.66a2.13,2.13,0,0,1,1.93,0l5.48,3.17a.59.59,0,0,1,0,1.11l-4.61,2.66a2.13,2.13,0,0,1-1.93,0l-5.48-3.17A.59.59,0,0,1,240.84,164.49Zm-8.86-4,5.48,3.17a2.13,2.13,0,0,0,1.93,0L244,161a.59.59,0,0,0,0-1.11l-5.48-3.17a2.13,2.13,0,0,0-1.93,0L232,159.38A.59.59,0,0,0,232,160.49Zm-8.86-5.11,5.48,3.17a2.13,2.13,0,0,0,1.93,0l4.61-2.66a.59.59,0,0,0,0-1.11l-5.48-3.17a2.13,2.13,0,0,0-1.93,0l-4.61,2.66A.59.59,0,0,0,223.13,155.38Zm-8.86-5.11,5.48,3.17a2.13,2.13,0,0,0,1.93,0l4.61-2.66a.59.59,0,0,0,0-1.11l-5.48-3.17a2.13,2.13,0,0,0-1.93,0l-4.61,2.66A.59.59,0,0,0,214.28,150.27Zm-8.86-5.11,5.48,3.17a2.13,2.13,0,0,0,1.93,0l4.61-2.66a.59.59,0,0,0,0-1.11L212,141.38a2.13,2.13,0,0,0-1.93,0L205.42,144A.59.59,0,0,0,205.42,145.15ZM196.57,140l5.48,3.17a2.13,2.13,0,0,0,1.93,0l4.61-2.66a.59.59,0,0,0,0-1.11l-5.48-3.17a2.13,2.13,0,0,0-1.93,0l-4.61,2.66A.59.59,0,0,0,196.57,140Zm-8.86-5.11,5.48,3.17a2.13,2.13,0,0,0,1.93,0l4.61-2.66a.59.59,0,0,0,0-1.11l-5.48-3.17a2.13,2.13,0,0,0-1.93,0l-4.61,2.66A.59.59,0,0,0,187.71,134.93Zm-8.86-5.11,5.48,3.17a2.13,2.13,0,0,0,1.93,0l4.61-2.66a.59.59,0,0,0,0-1.11L185.4,126a2.13,2.13,0,0,0-1.93,0l-4.61,2.66A.59.59,0,0,0,178.86,129.82ZM170,124.7l5.48,3.17a2.13,2.13,0,0,0,1.93,0l4.61-2.66a.59.59,0,0,0,0-1.11l-5.48-3.17a2.13,2.13,0,0,0-1.93,0L170,123.59A.59.59,0,0,0,170,124.7Zm-11.71-6.76,8.34,4.81a2.13,2.13,0,0,0,1.93,0l4.61-2.66a.59.59,0,0,0,0-1.11l-8.34-4.81a2.13,2.13,0,0,0-1.93,0l-4.61,2.66A.59.59,0,0,0,158.29,117.94Zm89.8,80.33,5.48,3.17a2.13,2.13,0,0,0,1.93,0l4.61-2.66a.59.59,0,0,0,0-1.11l-5.48-3.17a2.13,2.13,0,0,0-1.93,0l-4.61,2.66A.59.59,0,0,0,248.09,198.28Zm-8.86-5.11,5.48,3.17a2.13,2.13,0,0,0,1.93,0l4.61-2.66a.59.59,0,0,0,0-1.11l-5.48-3.17a2.13,2.13,0,0,0-1.93,0l-4.61,2.66A.59.59,0,0,0,239.23,193.17Zm-8.86-5.11,5.48,3.17a2.13,2.13,0,0,0,1.93,0l4.61-2.66a.59.59,0,0,0,0-1.11l-5.48-3.17a2.13,2.13,0,0,0-1.93,0l-4.61,2.66A.59.59,0,0,0,230.38,188.05ZM240,203l5.48,3.17a2.13,2.13,0,0,0,1.93,0l4.61-2.66a.59.59,0,0,0,0-1.11l-5.48-3.17a2.13,2.13,0,0,0-1.93,0L240,201.84A.59.59,0,0,0,240,203Zm-8.86-5.11,5.48,3.17a2.13,2.13,0,0,0,1.93,0l4.61-2.66a.59.59,0,0,0,0-1.11l-5.48-3.17a2.13,2.13,0,0,0-1.93,0l-4.61,2.66A.59.59,0,0,0,231.14,197.84Zm-8.86-5.11,5.48,3.17a2.13,2.13,0,0,0,1.93,0l4.61-2.66a.59.59,0,0,0,0-1.11l-5.48-3.17a2.13,2.13,0,0,0-1.93,0l-4.61,2.66A.59.59,0,0,0,222.28,192.73Zm7.46-24.15,8.34,4.81a2.13,2.13,0,0,0,1.93,0l4.61-2.66a.59.59,0,0,0,0-1.11l-8.34-4.81a2.13,2.13,0,0,0-1.93,0l-4.61,2.66A.59.59,0,0,0,229.74,168.58Zm-8.86-5.11,5.48,3.17a2.13,2.13,0,0,0,1.93,0l4.61-2.66a.59.59,0,0,0,0-1.11l-5.48-3.17a2.13,2.13,0,0,0-1.93,0l-4.61,2.66A.59.59,0,0,0,220.89,163.47ZM212,158.36l5.48,3.17a2.13,2.13,0,0,0,1.93,0l4.61-2.66a.59.59,0,0,0,0-1.11l-5.48-3.17a2.13,2.13,0,0,0-1.93,0L212,157.24A.59.59,0,0,0,212,158.36Zm-8.86-5.11,5.48,3.17a2.13,2.13,0,0,0,1.93,0l4.61-2.66a.59.59,0,0,0,0-1.11l-5.48-3.17a2.13,2.13,0,0,0-1.93,0l-4.61,2.66A.59.59,0,0,0,203.18,153.24Zm-8.86-5.11,5.48,3.17a2.13,2.13,0,0,0,1.93,0l4.61-2.66a.59.59,0,0,0,0-1.11l-5.48-3.17a2.13,2.13,0,0,0-1.93,0L194.32,147A.59.59,0,0,0,194.32,148.13ZM185.47,143l5.48,3.17a2.13,2.13,0,0,0,1.93,0l4.61-2.66a.59.59,0,0,0,0-1.11L192,139.24a2.13,2.13,0,0,0-1.93,0l-4.61,2.66A.59.59,0,0,0,185.47,143Zm-8.86-5.11,5.48,3.17a2.13,2.13,0,0,0,1.93,0l4.61-2.66a.59.59,0,0,0,0-1.11l-5.48-3.17a2.13,2.13,0,0,0-1.93,0l-4.61,2.66A.59.59,0,0,0,176.61,137.91Zm-8.86-5.11,5.48,3.17a2.13,2.13,0,0,0,1.93,0l4.61-2.66a.59.59,0,0,0,0-1.11L174.3,129a2.13,2.13,0,0,0-1.93,0l-4.61,2.66A.59.59,0,0,0,167.75,132.79Zm-8.86-5.11,5.48,3.17a2.13,2.13,0,0,0,1.93,0l4.61-2.66a.59.59,0,0,0,0-1.11l-5.48-3.17a2.13,2.13,0,0,0-1.93,0l-4.61,2.66A.59.59,0,0,0,158.9,127.68ZM150,122.57l5.48,3.17a2.13,2.13,0,0,0,1.93,0l4.61-2.66a.59.59,0,0,0,0-1.11l-5.48-3.17a2.13,2.13,0,0,0-1.93,0L150,121.45A.59.59,0,0,0,150,122.57Zm74.71,52.33,5.48,3.17a2.13,2.13,0,0,0,1.93,0l4.61-2.66a.59.59,0,0,0,0-1.11l-5.48-3.17a2.13,2.13,0,0,0-1.93,0l-4.61,2.66A.59.59,0,0,0,224.75,174.9Zm-8.86-5.11,5.48,3.17a2.13,2.13,0,0,0,1.93,0l4.61-2.66a.59.59,0,0,0,0-1.11L222.44,166a2.13,2.13,0,0,0-1.93,0l-4.61,2.66A.59.59,0,0,0,215.9,169.78ZM207,164.67l5.48,3.17a2.13,2.13,0,0,0,1.93,0l4.61-2.66a.59.59,0,0,0,0-1.11l-5.48-3.17a2.13,2.13,0,0,0-1.93,0L207,163.56A.59.59,0,0,0,207,164.67Zm-8.86-5.11,5.48,3.17a2.13,2.13,0,0,0,1.93,0l4.61-2.66a.59.59,0,0,0,0-1.11l-5.48-3.17a2.13,2.13,0,0,0-1.93,0l-4.61,2.66A.59.59,0,0,0,198.19,159.56Zm10.51,24.61,5.48,3.17a2.13,2.13,0,0,0,1.93,0l4.61-2.66a.59.59,0,0,0,0-1.11l-5.48-3.17a2.13,2.13,0,0,0-1.93,0l-4.61,2.66A.59.59,0,0,0,208.69,184.17Zm-8.86-5.11,5.48,3.17a2.13,2.13,0,0,0,1.93,0l4.61-2.66a.59.59,0,0,0,0-1.11l-5.48-3.17a2.13,2.13,0,0,0-1.93,0l-4.61,2.66A.59.59,0,0,0,199.84,179.05ZM191,173.94l5.48,3.17a2.13,2.13,0,0,0,1.93,0l4.61-2.66a.59.59,0,0,0,0-1.11l-5.48-3.17a2.13,2.13,0,0,0-1.93,0L191,172.83A.59.59,0,0,0,191,173.94ZM137.8,143.18l5.48,3.17a2.13,2.13,0,0,0,1.93,0l4.61-2.66a.59.59,0,0,0,0-1.11l-5.48-3.17a2.13,2.13,0,0,0-1.93,0l-4.61,2.66A.59.59,0,0,0,137.8,143.18Zm-11.6-6.65,8.34,4.82a2.13,2.13,0,0,0,1.93,0l4.61-2.66a.59.59,0,0,0,0-1.11l-8.34-4.82a2.13,2.13,0,0,0-1.93,0l-4.61,2.66A.59.59,0,0,0,126.2,136.54Zm63.14,17.91,5.48,3.17a2.13,2.13,0,0,0,1.93,0l4.61-2.66a.59.59,0,0,0,0-1.11l-5.48-3.17a2.13,2.13,0,0,0-1.93,0l-4.61,2.66A.59.59,0,0,0,189.33,154.44Zm-8.86-5.11L186,152.5a2.13,2.13,0,0,0,1.93,0l4.61-2.66a.59.59,0,0,0,0-1.11L187,145.56a2.13,2.13,0,0,0-1.93,0l-4.61,2.66A.59.59,0,0,0,180.48,149.33Zm-8.86-5.11,5.48,3.17a2.13,2.13,0,0,0,1.93,0l4.61-2.66a.59.59,0,0,0,0-1.11l-5.48-3.17a2.13,2.13,0,0,0-1.93,0l-4.61,2.66A.59.59,0,0,0,171.62,144.22Zm-8.86-5.11,5.48,3.17a2.13,2.13,0,0,0,1.93,0l4.61-2.66a.59.59,0,0,0,0-1.11l-5.48-3.17a2.13,2.13,0,0,0-1.93,0L162.77,138A.59.59,0,0,0,162.77,139.11ZM153.91,134l5.48,3.17a2.13,2.13,0,0,0,1.93,0l4.61-2.66a.59.59,0,0,0,0-1.11l-5.48-3.17a2.13,2.13,0,0,0-1.93,0l-4.61,2.66A.59.59,0,0,0,153.91,134Zm-11.71-6.76,8.34,4.81a2.13,2.13,0,0,0,1.93,0l4.61-2.66a.59.59,0,0,0,0-1.11l-8.34-4.81a2.13,2.13,0,0,0-1.93,0l-4.61,2.66A.59.59,0,0,0,142.2,127.23Zm71.45,50.64,8.34,4.81a2.13,2.13,0,0,0,1.93,0l4.61-2.66a.59.59,0,0,0,0-1.11l-8.34-4.81a2.13,2.13,0,0,0-1.93,0l-4.61,2.66A.59.59,0,0,0,213.65,177.87Zm-8.86-5.11,5.48,3.17a2.13,2.13,0,0,0,1.93,0l4.61-2.66a.59.59,0,0,0,0-1.11L211.34,169a2.13,2.13,0,0,0-1.93,0l-4.61,2.66A.59.59,0,0,0,204.79,172.76Zm-8.86-5.11,5.48,3.17a2.13,2.13,0,0,0,1.93,0l4.61-2.66a.59.59,0,0,0,0-1.11l-5.48-3.17a2.13,2.13,0,0,0-1.93,0l-4.61,2.66A.59.59,0,0,0,195.94,167.65Zm-8.86-5.11,5.48,3.17a2.13,2.13,0,0,0,1.93,0l4.61-2.66a.59.59,0,0,0,0-1.11l-5.48-3.17a2.13,2.13,0,0,0-1.93,0l-4.61,2.66A.59.59,0,0,0,187.08,162.53Zm-8.86-5.11,5.48,3.17a2.13,2.13,0,0,0,1.93,0l4.61-2.66a.59.59,0,0,0,0-1.11l-5.48-3.17a2.13,2.13,0,0,0-1.93,0l-4.61,2.66A.59.59,0,0,0,178.23,157.42Zm-8.86-5.11,5.48,3.17a2.13,2.13,0,0,0,1.93,0l4.61-2.66a.59.59,0,0,0,0-1.11l-5.48-3.17a2.13,2.13,0,0,0-1.93,0l-4.61,2.66A.59.59,0,0,0,169.37,152.31Zm-8.86-5.11,5.48,3.17a2.13,2.13,0,0,0,1.93,0l4.61-2.66a.59.59,0,0,0,0-1.11l-5.48-3.17a2.13,2.13,0,0,0-1.93,0l-4.61,2.66A.59.59,0,0,0,160.52,147.2Zm-8.86-5.11,5.48,3.17a2.13,2.13,0,0,0,1.93,0l4.61-2.66a.59.59,0,0,0,0-1.11l-5.48-3.17a2.13,2.13,0,0,0-1.93,0L151.66,141A.59.59,0,0,0,151.66,142.08ZM142.81,137l5.48,3.17a2.13,2.13,0,0,0,1.93,0l4.61-2.66a.59.59,0,0,0,0-1.11l-5.48-3.17a2.13,2.13,0,0,0-1.93,0l-4.61,2.66A.59.59,0,0,0,142.81,137ZM134,131.86l5.48,3.17a2.13,2.13,0,0,0,1.93,0l4.61-2.66a.59.59,0,0,0,0-1.11l-5.48-3.17a2.13,2.13,0,0,0-1.93,0L134,130.74A.59.59,0,0,0,134,131.86Zm138.37,52.43,5.48,3.17a2.13,2.13,0,0,0,1.93,0l4.61-2.66a.59.59,0,0,0,0-1.11l-5.48-3.17a2.13,2.13,0,0,0-1.93,0l-4.61,2.66A.59.59,0,0,0,272.33,184.28Zm-8.86-5.11,5.48,3.17a2.13,2.13,0,0,0,1.93,0l4.61-2.66a.59.59,0,0,0,0-1.11L270,175.39a2.13,2.13,0,0,0-1.93,0l-4.61,2.66A.59.59,0,0,0,263.47,179.17Zm-8.86-5.11,5.48,3.17a2.13,2.13,0,0,0,1.93,0l4.61-2.66a.59.59,0,0,0,0-1.11l-5.48-3.17a2.13,2.13,0,0,0-1.93,0l-4.61,2.66A.59.59,0,0,0,254.62,174.06Zm-8.08,4.66,5.48,3.17a2.13,2.13,0,0,0,1.93,0l4.61-2.66a.59.59,0,0,0,0-1.11l-5.48-3.17a2.13,2.13,0,0,0-1.93,0l-4.61,2.66A.59.59,0,0,0,246.54,178.72Zm-7.84,4.57,23.05,13.31a2.65,2.65,0,0,0,2.4,0l12.11-7a.73.73,0,0,0,0-1.38l-13.9-8a2.65,2.65,0,0,0-2.4,0l-6.07,3.51a1.5,1.5,0,0,1-1.35,0l-7.75-4.41a1.77,1.77,0,0,0-1.6,0l-4.51,2.6A.73.73,0,0,0,238.7,183.3Z"/><path class="cls-78" d="M187.86,170.74l-41-23.77,4.62-2.67a1.53,1.53,0,0,1,1.34,0l41,23.77-4.62,2.67a1.53,1.53,0,0,1-1.34,0ZM214.47,186,209,182.76l4.61-2.67a1.41,1.41,0,0,1,.67-.15,1.38,1.38,0,0,1,.67.16l5.48,3.26L215.81,186a1.53,1.53,0,0,1-1.34,0Zm7.81-4.65-8.34-4.91,4.62-2.67a1.53,1.53,0,0,1,1.34,0l8.34,4.91-4.62,2.67a1.53,1.53,0,0,1-1.34,0Zm-16.67-.47-5.48-3.26,4.61-2.67a1.41,1.41,0,0,1,.67-.15,1.38,1.38,0,0,1,.67.16l5.48,3.26L207,180.91a1.53,1.53,0,0,1-1.34,0Zm24.91-4.16L225,173.49l4.62-2.67a1.53,1.53,0,0,1,1.34,0l5.48,3.25-4.61,2.67a1.56,1.56,0,0,1-1.34,0Zm-33.77-1-5.48-3.26,4.61-2.67a1.41,1.41,0,0,1,.67-.15,1.38,1.38,0,0,1,.67.16l5.48,3.26-4.62,2.67a1.53,1.53,0,0,1-1.34,0Zm13.81-1.18-5.48-3.25,4.62-2.67a1.53,1.53,0,0,1,1.34,0l5.48,3.26-4.62,2.67a1.53,1.53,0,0,1-1.34,0Zm27.8-2.53L230,167.17l4.62-2.67a1.53,1.53,0,0,1,1.34,0l8.34,4.91-4.62,2.67a1.53,1.53,0,0,1-1.34,0Zm-16.7-.45-5.48-3.26,4.61-2.67a1.41,1.41,0,0,1,.67-.15,1.39,1.39,0,0,1,.67.16l5.48,3.25L223,171.64a1.53,1.53,0,0,1-1.34,0Zm-78.16-26.41L138,142l4.61-2.67a1.41,1.41,0,0,1,.67-.15,1.38,1.38,0,0,1,.67.16l5.48,3.26-4.61,2.67a1.41,1.41,0,0,1-.67.15A1.38,1.38,0,0,1,143.52,145.22Zm58.2,24.27-5.48-3.25,4.62-2.67a1.53,1.53,0,0,1,1.34,0l5.48,3.26-4.62,2.67a1.53,1.53,0,0,1-1.34,0Zm44.9-2-5.48-3.26,4.62-2.67a1.53,1.53,0,0,1,1.34,0l5.48,3.25L248,167.46a1.53,1.53,0,0,1-1.34,0Zm-33.8-.93-5.48-3.26,4.61-2.67a1.41,1.41,0,0,1,.67-.15,1.38,1.38,0,0,1,.67.16l5.48,3.26-4.62,2.67a1.53,1.53,0,0,1-1.34,0Zm13.84-1.2-5.48-3.26,4.62-2.67a1.53,1.53,0,0,1,1.34,0l5.48,3.26L228,165.32a1.53,1.53,0,0,1-1.34,0Zm-33.8-.94-5.48-3.26,4.61-2.67a1.41,1.41,0,0,1,.67-.15,1.38,1.38,0,0,1,.67.16l5.48,3.25-4.62,2.67a1.53,1.53,0,0,1-1.34,0Zm44.9-2-5.48-3.26,4.61-2.67a1.41,1.41,0,0,1,.67-.15,1.38,1.38,0,0,1,.67.16l5.48,3.25-4.62,2.67a1.53,1.53,0,0,1-1.34,0Zm-33.8-.93-5.48-3.26,4.61-2.67a1.41,1.41,0,0,1,.67-.15,1.38,1.38,0,0,1,.67.16l5.48,3.26-4.62,2.67a1.53,1.53,0,0,1-1.34,0Zm13.84-1.2-5.48-3.26,4.62-2.67a1.53,1.53,0,0,1,1.34,0l5.48,3.26-4.62,2.67a1.53,1.53,0,0,1-1.34,0Zm-33.8-.94L178.52,156l4.61-2.67a1.41,1.41,0,0,1,.67-.15,1.38,1.38,0,0,1,.67.16l5.48,3.25-4.62,2.67a1.53,1.53,0,0,1-1.34,0Zm44.9-2L223.43,154l4.61-2.67a1.41,1.41,0,0,1,.67-.15,1.39,1.39,0,0,1,.67.16l5.48,3.26-4.62,2.67a1.53,1.53,0,0,1-1.34,0Zm-33.8-.93L189.62,153l4.61-2.67a1.41,1.41,0,0,1,.67-.15,1.38,1.38,0,0,1,.67.16l5.48,3.25-4.61,2.67a1.41,1.41,0,0,1-.67.15A1.38,1.38,0,0,1,195.11,156.3Zm13.84-1.2-5.48-3.26,4.62-2.67a1.53,1.53,0,0,1,1.34,0l5.48,3.25-4.62,2.67a1.53,1.53,0,0,1-1.34,0Zm-33.8-.94-5.48-3.26,4.61-2.67a1.41,1.41,0,0,1,.67-.15,1.38,1.38,0,0,1,.67.16l5.48,3.26-4.62,2.67a1.53,1.53,0,0,1-1.34,0Zm44.9-2-5.48-3.26,4.61-2.67a1.41,1.41,0,0,1,.67-.15,1.39,1.39,0,0,1,.67.16l5.48,3.26-4.62,2.67a1.53,1.53,0,0,1-1.34,0Zm-33.8-.93-5.48-3.26,4.61-2.67a1.41,1.41,0,0,1,.67-.15,1.38,1.38,0,0,1,.67.16l5.48,3.25-4.61,2.67a1.41,1.41,0,0,1-.67.15A1.38,1.38,0,0,1,186.25,151.18ZM200.1,150l-5.48-3.26,4.61-2.67a1.41,1.41,0,0,1,.67-.15,1.38,1.38,0,0,1,.67.16l5.48,3.26L201.44,150a1.53,1.53,0,0,1-1.34,0ZM166.3,149l-5.48-3.25,4.61-2.67a1.41,1.41,0,0,1,.67-.15,1.39,1.39,0,0,1,.67.16l5.48,3.26L167.64,149a1.41,1.41,0,0,1-.67.15A1.38,1.38,0,0,1,166.3,149Zm44.9-2-5.48-3.26,4.61-2.67a1.41,1.41,0,0,1,.67-.15,1.38,1.38,0,0,1,.67.16l5.48,3.25L212.54,147a1.41,1.41,0,0,1-.67.15A1.38,1.38,0,0,1,211.2,147Zm-33.8-.93-5.48-3.26,4.61-2.67a1.41,1.41,0,0,1,.67-.15,1.38,1.38,0,0,1,.67.16l5.48,3.26-4.61,2.67a1.41,1.41,0,0,1-.67.15A1.38,1.38,0,0,1,177.4,146.07Zm13.84-1.2-5.48-3.26,4.61-2.67a1.41,1.41,0,0,1,.67-.15,1.38,1.38,0,0,1,.67.16l5.48,3.26-4.62,2.67a1.53,1.53,0,0,1-1.34,0Zm-33.8-.94L152,140.68l4.61-2.67a1.41,1.41,0,0,1,.67-.15,1.38,1.38,0,0,1,.67.16l5.48,3.25-4.61,2.67a1.41,1.41,0,0,1-.67.15A1.38,1.38,0,0,1,157.44,143.93Zm44.9-2-5.48-3.26,4.61-2.67a1.41,1.41,0,0,1,.67-.15,1.38,1.38,0,0,1,.67.16l5.48,3.25-4.61,2.67a1.41,1.41,0,0,1-.67.15A1.38,1.38,0,0,1,202.35,141.89Zm-33.8-.93-5.48-3.26,4.61-2.67a1.41,1.41,0,0,1,.67-.15,1.38,1.38,0,0,1,.67.16l5.48,3.26L169.89,141a1.41,1.41,0,0,1-.67.15A1.38,1.38,0,0,1,168.54,141ZM134.83,140l-8.34-4.91,4.61-2.67a1.41,1.41,0,0,1,.67-.15,1.38,1.38,0,0,1,.67.16l8.34,4.91L136.17,140a1.53,1.53,0,0,1-1.34,0Zm47.56-.28-5.48-3.26,4.61-2.67a1.41,1.41,0,0,1,.67-.15,1.39,1.39,0,0,1,.67.16l5.48,3.26-4.62,2.67a1.53,1.53,0,0,1-1.34,0Zm-33.8-.94-5.48-3.26,4.61-2.67a1.41,1.41,0,0,1,.67-.15,1.38,1.38,0,0,1,.67.16l5.48,3.25-4.61,2.67a1.41,1.41,0,0,1-.67.15A1.38,1.38,0,0,1,148.59,138.82Zm44.9-2L188,133.52l4.61-2.67a1.41,1.41,0,0,1,.67-.15,1.38,1.38,0,0,1,.67.16l5.48,3.26-4.61,2.67a1.41,1.41,0,0,1-.67.15A1.38,1.38,0,0,1,193.49,136.78Zm-33.8-.93-5.48-3.26,4.61-2.67a1.41,1.41,0,0,1,.67-.15,1.38,1.38,0,0,1,.67.16l5.48,3.25L161,135.85a1.41,1.41,0,0,1-.67.15A1.39,1.39,0,0,1,159.69,135.85Zm13.84-1.2L168,131.39l4.61-2.67a1.41,1.41,0,0,1,.67-.15,1.38,1.38,0,0,1,.67.16l5.48,3.25-4.61,2.67a1.41,1.41,0,0,1-.67.15A1.38,1.38,0,0,1,173.53,134.64Zm-33.8-.94-5.48-3.26,4.61-2.67a1.41,1.41,0,0,1,.67-.15,1.38,1.38,0,0,1,.67.16l5.48,3.26-4.61,2.67a1.41,1.41,0,0,1-.67.15A1.38,1.38,0,0,1,139.73,133.71Zm44.9-2-5.48-3.26,4.61-2.67a1.41,1.41,0,0,1,.67-.15,1.38,1.38,0,0,1,.67.16l5.48,3.26L186,131.67a1.41,1.41,0,0,1-.67.15A1.38,1.38,0,0,1,184.64,131.67Zm-33.8-.93-8.34-4.91,4.61-2.67a1.41,1.41,0,0,1,.67-.15,1.38,1.38,0,0,1,.67.16l8.34,4.91-4.61,2.67a1.41,1.41,0,0,1-.67.15A1.38,1.38,0,0,1,150.83,130.73ZM245.72,205l-5.48-3.26,4.61-2.67a1.41,1.41,0,0,1,.67-.15,1.38,1.38,0,0,1,.67.16l5.48,3.26L247.06,205a1.41,1.41,0,0,1-.67.15A1.38,1.38,0,0,1,245.72,205Zm-81-75.44-5.48-3.26,4.61-2.67a1.41,1.41,0,0,1,.67-.15,1.38,1.38,0,0,1,.67.16l5.48,3.25L166,129.53a1.41,1.41,0,0,1-.67.15A1.38,1.38,0,0,1,164.68,129.53Zm11.1-3-5.48-3.26,4.61-2.67a1.41,1.41,0,0,1,.67-.15,1.38,1.38,0,0,1,.67.16l5.48,3.25-4.61,2.67a1.41,1.41,0,0,1-.67.15A1.38,1.38,0,0,1,175.78,126.55Zm78,73.74L248.33,197l4.62-2.67a1.53,1.53,0,0,1,1.34,0l5.48,3.26-4.62,2.67a1.53,1.53,0,0,1-1.34,0Zm-16.95-.44-5.48-3.26,4.61-2.67a1.41,1.41,0,0,1,.67-.15,1.38,1.38,0,0,1,.67.16l5.48,3.26-4.61,2.67a1.41,1.41,0,0,1-.67.15A1.38,1.38,0,0,1,236.87,199.86Zm-81-75.44-5.48-3.26,4.61-2.67a1.41,1.41,0,0,1,.67-.15,1.38,1.38,0,0,1,.67.16l5.48,3.26-4.61,2.67a1.41,1.41,0,0,1-.67.15A1.38,1.38,0,0,1,155.82,124.42Zm11.1-3-8.34-4.91,4.61-2.67a1.41,1.41,0,0,1,.67-.15,1.39,1.39,0,0,1,.67.16l8.34,4.9-4.61,2.67a1.41,1.41,0,0,1-.67.15A1.38,1.38,0,0,1,166.93,121.44Zm95.07,74-23.05-13.31v-.36l4.51-2.61a1.06,1.06,0,0,1,.5-.11,1.1,1.1,0,0,1,.51.11l7.75,4.41a2,2,0,0,0,1,.24,2,2,0,0,0,1-.24l6.07-3.51a2.06,2.06,0,0,1,1.81,0l13.9,8v.36l-12.11,7a2.06,2.06,0,0,1-1.81,0Zm-17-.27-5.48-3.26,4.62-2.67a1.53,1.53,0,0,1,1.34,0l5.48,3.25-4.62,2.67a1.53,1.53,0,0,1-1.34,0ZM228,194.75l-5.48-3.26,4.61-2.67a1.41,1.41,0,0,1,.67-.15,1.38,1.38,0,0,1,.67.16l5.48,3.26-4.61,2.67a1.41,1.41,0,0,1-.67.15A1.39,1.39,0,0,1,228,194.75Zm8.09-4.68-5.48-3.26,4.61-2.67a1.41,1.41,0,0,1,.67-.15,1.38,1.38,0,0,1,.67.16l5.48,3.25-4.62,2.67a1.53,1.53,0,0,1-1.34,0Zm42-3.77L272.57,183l4.61-2.67a1.41,1.41,0,0,1,.67-.15,1.38,1.38,0,0,1,.67.16l5.48,3.26-4.61,2.67a1.41,1.41,0,0,1-.67.15A1.38,1.38,0,0,1,278.06,186.3Zm-8.86-5.11-5.48-3.26,4.62-2.67a1.53,1.53,0,0,1,1.34,0l5.48,3.26-4.61,2.67a1.56,1.56,0,0,1-1.34,0Zm-16.93-.45-5.48-3.26,4.61-2.67a1.41,1.41,0,0,1,.67-.15,1.39,1.39,0,0,1,.67.16l5.48,3.26-4.61,2.67a1.41,1.41,0,0,1-.67.15A1.38,1.38,0,0,1,252.27,180.74Zm8.08-4.66-5.48-3.26,4.62-2.67a1.53,1.53,0,0,1,1.34,0l5.48,3.25-4.61,2.67a1.56,1.56,0,0,1-1.34,0Z"/><path class="cls-79" d="M140.25,177.82l33.48,19.33h0l21.71-12.54a0,0,0,0,0,0,0L162,165.25h0l-21.71,12.54A0,0,0,0,0,140.25,177.82Z"/><path class="cls-80" d="M248.65,203l-1.85-1.1,1-.56,1.85,1.1Zm8.09-4.68-1.85-1.1,1-.56,1.85,1.1Zm-16.95-.44-1.85-1.1,1-.56,1.85,1.1Zm8.09-4.68-1.85-1.1,1-.56,1.85,1.1Zm-16.95-.44-1.85-1.1,1-.56,1.85,1.1Zm8.09-4.68-1.85-1.1,1-.56,1.85,1.1Zm42-3.77-1.85-1.1,1-.56,1.85,1.1Zm-8.86-5.11-1.85-1.1,1-.56,1.85,1.1Zm-16.93-.45-1.85-1.1,1-.56,1.85,1.1Zm8.07-4.66-1.85-1.1,1-.56,1.85,1.1ZM217.5,184l-1.85-1.1,1-.56,1.85,1.1Zm7.81-4.65-4.69-2.76,1-.55,4.69,2.76Zm-16.66-.47-1.85-1.1,1-.56,1.85,1.1Zm24.91-4.16-1.85-1.1,1-.56,1.85,1.1Zm-33.77-1-1.85-1.1,1-.56,1.85,1.1Zm13.81-1.18-1.85-1.1,1-.56,1.85,1.1ZM241.4,170l-4.69-2.76,1-.55,4.69,2.76Zm-16.7-.45-1.85-1.1,1-.56,1.85,1.1Zm-77.64-26.4-1.85-1.1,1-.56,1.85,1.1Zm57.68,24.26-1.85-1.1,1-.56,1.85,1.1Zm44.9-2-1.85-1.1,1-.56,1.85,1.1Zm-33.8-.93-1.85-1.1,1-.56,1.85,1.1Zm13.84-1.2-1.85-1.1,1-.56,1.85,1.1Zm-33.8-.94-1.85-1.1,1-.56,1.85,1.1Zm44.9-2-1.85-1.1,1-.56,1.85,1.1Zm-33.8-.93-1.85-1.1,1-.56,1.85,1.1Zm13.84-1.2-1.85-1.1,1-.56,1.85,1.1Zm-33.8-.94-1.85-1.1,1-.56,1.85,1.1Zm44.9-2-1.85-1.1,1-.56,1.85,1.1Zm-33.8-.93-1.85-1.1,1-.56,1.85,1.1Zm13.84-1.2-1.85-1.1,1-.56,1.85,1.1Zm-33.8-.94-1.85-1.1,1-.56,1.85,1.1Zm44.9-2-1.85-1.1,1-.56,1.85,1.1Zm-33.8-.93-1.85-1.1,1-.56,1.85,1.1Zm13.84-1.2-1.85-1.1,1-.56,1.85,1.1Zm-33.8-.94-1.85-1.1,1-.56,1.85,1.1Zm44.9-2-1.86-1.1,1-.56,1.85,1.1Zm-33.8-.94-1.85-1.1,1-.56,1.86,1.1Zm13.84-1.2-1.85-1.1,1-.56,1.85,1.1Zm-33.8-.94-1.85-1.1,1-.56,1.85,1.1Zm44.9-2-1.85-1.1,1-.56,1.85,1.1Zm-33.8-.93-1.85-1.1,1-.56,1.86,1.1ZM137.85,138l-4.69-2.76,1-.55,4.69,2.76Zm47.56-.28-1.85-1.1,1-.56,1.85,1.1Zm-33.8-.94-1.85-1.1,1-.56,1.85,1.1Zm44.9-2-1.85-1.1,1-.56,1.85,1.1Zm-33.8-.93-1.85-1.1,1-.56,1.85,1.1Zm13.84-1.2-1.85-1.1,1-.56,1.85,1.1Zm-33.8-.94-1.85-1.1,1-.56,1.85,1.1Zm44.9-2-1.85-1.1,1-.56,1.85,1.1Zm-33.8-.93-4.69-2.76,1-.55,4.69,2.76Zm13.85-1.2-1.85-1.1,1-.56,1.85,1.1Zm11.1-3-1.85-1.1,1-.56,1.86,1.1Zm-20-2.14-1.86-1.1,1-.56,1.86,1.1Zm11.1-3-4.69-2.76,1-.55,4.69,2.76Z"/><path class="cls-81" d="M162,165.25h0l33.48,19.33a0,0,0,0,1,0,0l-1.46.84L162,167h0L141.7,178.66l-1.46-.84a0,0,0,0,1,0,0Z"/></g><path class="cls-82" d="M164.25,105.25a3.55,3.55,0,0,1,.57-.9,2.68,2.68,0,0,1,.68-.56l135,78.52a2.68,2.68,0,0,0-.68.56,3.55,3.55,0,0,0-.57.9,2.81,2.81,0,0,0-.26,1.12c0,.09,0,.17,0,.25L164,106.62c0-.08,0-.16,0-.25A2.81,2.81,0,0,1,164.25,105.25Z"/><ellipse class="cls-83" cx="299.75" cy="183.72" rx="1.64" ry="1.19" transform="matrix(0.5, -0.87, 0.87, 0.5, -9.23, 351.46)"/><path class="cls-84" d="M240.05,252.23c1.81-4.62,8.65-13.54,19-17.47,8.27-3.15,18.71-6.37,31.09.8a14.8,14.8,0,0,1,1.34.88c4.48,3.29,4.34,8.82-.44,12.17-8.79,6.16-19.47,11.95-19.47,11.95a37.09,37.09,0,0,1-8.36,3.33c-7.11,1.81-13.42,1.16-18.77-1.95-3.38-2-5.06-4.53-5-7.11A8.38,8.38,0,0,1,240.05,252.23Z"/><path class="cls-85" d="M274.79,236.82l3.49-1.9a3.52,3.52,0,0,1,3.93.61c.86.74.47,1-.55,1.54l-3.51,1.65a4.16,4.16,0,0,1-3.65,0C273.57,238.09,273.77,237.31,274.79,236.82Z"/><g class="cls-86"><g class="cls-2"><path class="cls-87" d="M277.05,234a3.39,3.39,0,0,1,3.43-.11l-5,8C273,240,274.21,235.71,277.05,234Z"/><path class="cls-88" d="M275.52,237.94a7.32,7.32,0,0,1,2.92-3.62,2.94,2.94,0,0,1,1.69-.45,1.69,1.69,0,0,1,.71.22A3.17,3.17,0,0,1,282.3,236c.86,3-2.66,8.17-6.24,6.27C275,241.69,274.75,239.93,275.52,237.94Z"/><path class="cls-89" d="M278,238.84a4.58,4.58,0,0,1,1.82-2.26,1.83,1.83,0,0,1,1.05-.28c1,.09,1.36,1.37.78,2.86a4.58,4.58,0,0,1-1.82,2.27,1.82,1.82,0,0,1-1,.28C277.79,241.62,277.44,240.34,278,238.84Z"/><path class="cls-90" d="M275.17,237.73l.14-.34a8,8,0,0,1,1.3-2,6,6,0,0,1,1.48-1.25,2.93,2.93,0,0,1,1.69-.45,1.69,1.69,0,0,1,.71.22l.35.2a1.69,1.69,0,0,0-.71-.22,2.94,2.94,0,0,0-1.69.45,6,6,0,0,0-1.48,1.25,8,8,0,0,0-1.3,2l-.14.34c-.77,2-.51,3.75.53,4.36l-.35-.2C274.66,241.49,274.4,239.73,275.17,237.73Z"/></g></g><path class="cls-85" d="M243.78,259.65c5.35,3.11,11.66,3.76,18.77,1.95a37.1,37.1,0,0,0,8.36-3.33s10.68-5.78,19.47-11.95c2.66-1.86,3.87-4.4,3.67-6.84,1.47,3.06.47,6.68-3,9.14-8.79,6.16-19.47,11.95-19.47,11.95a37.08,37.08,0,0,1-8.36,3.33c-7.11,1.81-13.42,1.16-18.77-1.95-3.15-1.83-4.8-4.19-5-6.59A10.67,10.67,0,0,0,243.78,259.65Z"/><path class="cls-85" d="M244.1,260.75c5.35,3.11,11.66,3.76,18.77,1.95a37.08,37.08,0,0,0,8.36-3.33s10.68-5.78,19.47-11.95c2.84-2,4-4.75,3.6-7.35,1.08,2.92,0,6.24-3.29,8.55-8.79,6.16-19.47,11.95-19.47,11.95a37.08,37.08,0,0,1-8.36,3.33c-7.11,1.81-13.42,1.16-18.77-1.95-2.92-1.7-4.54-3.85-4.92-6.07A10.08,10.08,0,0,0,244.1,260.75Z"/><path class="cls-91" d="M192.32,60.53c1.35,1.06,2.08.54,2.26-2.58l.56-9.78L203,52.62,202,69.16l-2.26-1.28.77-13.42-3.33-1.89-.38,6.57c-.16,2.86-.79,4.55-1.7,5s-1.84.23-3-.6Z"/><path class="cls-91" d="M210.73,61.87l1.58.9-.68,11.81-2.08-1.18.38-6.71-4.26,4.52-1.58-.9.68-11.81,2.08,1.18-.38,6.71Z"/><path class="cls-91" d="M221,76.94l1.39.78-.35,6L220,82.57l.18-3.17-6.57-3.72.68-11.81,2.13,1.2-.51,9,3,1.7.51-9,2.13,1.2Z"/><path class="cls-91" d="M225.32,77.51a4.38,4.38,0,0,0,2.2,3.54c.81.46,1.46.41,1.92-.14l1.64,2.39c-.91,1.22-2.16,1.39-3.74.49a7.67,7.67,0,0,1-3.18-3.63,10.71,10.71,0,0,1-1-5.17,5,5,0,0,1,1.48-3.75,2.64,2.64,0,0,1,3.24,0,7,7,0,0,1,2.89,3.49,11,11,0,0,1,.93,5.11,9.9,9.9,0,0,1-.16,1.21Zm4.31,0A4.38,4.38,0,0,0,227.72,74c-1.14-.64-2-.21-2.3,1.16Z"/><path class="cls-91" d="M238.94,77.82,241.07,79l-.68,11.81-2.13-1.21.26-4.49-3.29-1.86L235,87.78l-2.13-1.2.68-11.81,2.13,1.2-.26,4.47,3.29,1.86Z"/><path class="cls-91" d="M248.62,92.18c-.12,2-1.43,2.85-3.54,1.66a6.87,6.87,0,0,1-3.25-4.77l1.82-.48a3.39,3.39,0,0,0,1.61,2.57c.79.45,1.26.23,1.31-.53a1.65,1.65,0,0,0-.91-1.64l-1.17-.66.15-2.6.89.5c.64.36,1,.19,1-.55a1.89,1.89,0,0,0-1-1.71q-1.06-.6-1.62.62l-1.63-2.39c.73-1.46,1.86-1.76,3.38-.9a5.44,5.44,0,0,1,2.19,2.31,5.64,5.64,0,0,1,.7,3c-.07,1.16-.41,1.84-1.06,2.09A5.14,5.14,0,0,1,248.62,92.18Z"/><path class="cls-91" d="M256.41,87.7l1.58.9-.68,11.81-2.08-1.18.38-6.71L251.36,97l-1.58-.9.68-11.81,2.08,1.18-.38,6.71Z"/><path class="cls-91" d="M265.9,93.07l1.58.9-.68,11.81-2.08-1.18.38-6.71-4.27,4.52-1.58-.9.68-11.81L262,90.88l-.38,6.71Z"/><path class="cls-91" d="M194.5,77.09l2,1.12-.95,16.54-2.28-1.29L194,80.37,191.78,80l-.4-3.1Z"/><path class="cls-91" d="M199.1,94.54a14.79,14.79,0,0,1-1.35-7.08c.14-2.43.82-4.17,2.05-5.16s2.72-1,4.45,0A11.41,11.41,0,0,1,209,89l-2.06.52a6.59,6.59,0,0,0-2.87-4.06,2.32,2.32,0,0,0-2.81,0A4.6,4.6,0,0,0,200,88.74a9.57,9.57,0,0,0,.8,4.48,6.35,6.35,0,0,0,2.64,3.05c1.32.75,2.51.49,3.14-.64l1.87,2.74c-1.13,1.83-3.08,2.28-5.19,1.09A10.27,10.27,0,0,1,199.1,94.54Z"/><path class="cls-91" d="M222.95,110.25l-2.62-1.48-3.68-10.08-.44,7.75-2.28-1.29.95-16.54,2.28,1.29-.42,7.3,4.38-5.06,2.63,1.48L219,99.23Z"/><path class="cls-91" d="M228.53,113.74a10.38,10.38,0,0,1-4.12-4.89,14.86,14.86,0,0,1-1.38-7.1q.21-3.62,2.08-5.12c1.27-1,2.74-1,4.4-.1a10.33,10.33,0,0,1,4.12,4.91,14.6,14.6,0,0,1,1.4,7.09c-.14,2.41-.83,4.12-2.1,5.13A3.68,3.68,0,0,1,228.53,113.74Zm.18-3.19a2.29,2.29,0,0,0,2.75,0,4.34,4.34,0,0,0,1.3-3.29,9.36,9.36,0,0,0-.85-4.5,6.42,6.42,0,0,0-2.57-3,2.29,2.29,0,0,0-2.75,0,4.34,4.34,0,0,0-1.3,3.29,9.36,9.36,0,0,0,.85,4.51A6.36,6.36,0,0,0,228.71,110.55Z"/><path class="cls-91" d="M241.42,103.61a6.84,6.84,0,0,1,2.71,3.19,9.41,9.41,0,0,1,.91,4.59,4.27,4.27,0,0,1-1.37,3.3,2.45,2.45,0,0,1-2.9,0l-2-1.15-.31,5.43-2.28-1.29.95-16.54Zm-.46,8.06c1,.55,1.75-.13,1.83-1.55a3.83,3.83,0,0,0-1.54-3.46l-2-1.15-.29,5Z"/><path class="cls-91" d="M255.48,111.57l-.95,16.54-2.28-1.29L253,113.4l-4.08-2.31-.77,13.42-2.28-1.29.95-16.54Z"/></g></g></g></svg>