<svg xmlns="http://www.w3.org/2000/svg" xmlns:xlink="http://www.w3.org/1999/xlink" viewBox="0 0 159.12 183.74"><defs><style>.cls-1{fill:#f2f2f0;}.cls-1,.cls-2,.cls-3,.cls-4,.cls-5,.cls-6{fill-rule:evenodd;}.cls-2{fill:#eeebe9;}.cls-3{fill:url(#GradientFill_7);}.cls-4{fill:#474647;}.cls-5{fill:#d7d4d3;}.cls-6{fill:url(#GradientFill_172);}</style><linearGradient id="GradientFill_7" x1="98.7" y1="79.08" x2="166.53" y2="196.57" gradientUnits="userSpaceOnUse"><stop offset="0" stop-color="#b4b2b3"/><stop offset="1" stop-color="#929090"/></linearGradient><linearGradient id="GradientFill_172" x1="111.15" y1="89.63" x2="164.48" y2="253.76" gradientUnits="userSpaceOnUse"><stop offset="0" stop-color="#7f7d7d"/><stop offset="1" stop-color="#333232"/></linearGradient></defs><title>delivery</title><g id="Layer_2" data-name="Layer 2"><g id="Layer_1-2" data-name="Layer 1"><polygon class="cls-1" points="79.56 0 159.12 45.94 79.56 183.74 0 45.94 79.56 0"/><polygon class="cls-2" points="0 137.8 0 45.94 79.56 91.87 79.56 183.74 0 137.8"/><polygon class="cls-3" points="159.12 137.8 159.12 45.94 79.56 91.87 79.56 183.74 159.12 137.8"/><path class="cls-4" d="M63,95.07v11.08l-1.65-.95V94.13L59.45,93l2.74-2.54,2.75,5.71L63,95.07Zm-9.65,6.61v1.44l11.55,6.67v-1.45l-11.55-6.66Zm3.55-10.13v11.08l-1.65-1V90.59l-1.92-1.1L56.08,87l2.74,5.7Z"/><polygon class="cls-5" points="48.22 18.09 127.78 64.03 110.9 73.77 31.34 27.84 48.22 18.09"/><polygon class="cls-6" points="127.78 155.9 127.78 64.03 110.9 73.77 110.9 165.64 127.78 155.9"/></g></g></svg>