<svg xmlns="http://www.w3.org/2000/svg" xmlns:xlink="http://www.w3.org/1999/xlink" viewBox="0 0 250 184.15"><defs><style>.cls-1{isolation:isolate;}.cls-2{fill:#e0e0d9;mix-blend-mode:multiply;}.cls-10,.cls-11,.cls-12,.cls-13,.cls-14,.cls-15,.cls-16,.cls-17,.cls-18,.cls-19,.cls-2,.cls-20,.cls-21,.cls-22,.cls-23,.cls-24,.cls-25,.cls-26,.cls-27,.cls-28,.cls-29,.cls-3,.cls-30,.cls-31,.cls-32,.cls-33,.cls-34,.cls-35,.cls-36,.cls-37,.cls-38,.cls-39,.cls-4,.cls-40,.cls-41,.cls-42,.cls-43,.cls-44,.cls-45,.cls-46,.cls-5,.cls-6,.cls-7,.cls-8,.cls-9{fill-rule:evenodd;}.cls-3{fill:#313031;}.cls-4{fill:url(#GradientFill_156);}.cls-5{fill:#6d6c6c;}.cls-6{fill:#353635;}.cls-7{fill:#1e1e1e;}.cls-8{fill:#036d77;}.cls-9{fill:#5b5b5b;}.cls-10{fill:url(#Безымянный_градиент_387);}.cls-11{fill:url(#Безымянный_градиент_387-2);}.cls-12{fill:#5e5d5d;}.cls-13{fill:url(#GradientFill_156-2);}.cls-14{fill:url(#GradientFill_156-3);}.cls-15{fill:url(#GradientFill_121);}.cls-16{fill:#eeebe9;}.cls-17{fill:#f2f2f0;}.cls-18{fill:url(#Безымянный_градиент_67);}.cls-19{fill:url(#GradientFill_150);}.cls-20{fill:#e9e8e7;}.cls-21{fill:#f9f9f9;}.cls-22{fill:url(#GradientFill_156-4);}.cls-23{fill:url(#GradientFill_33);}.cls-24{fill:url(#GradientFill_33-2);}.cls-25{fill:#acabab;}.cls-26{fill:#8ad1ce;}.cls-27{fill:#f3f3f1;}.cls-28{fill:url(#GradientFill_33-3);}.cls-29{fill:url(#Безымянный_градиент_67-2);}.cls-30{fill:url(#GradientFill_121-2);}.cls-31{fill:url(#GradientFill_150-2);}.cls-32{fill:url(#GradientFill_152);}.cls-33{fill:url(#GradientFill_152-2);}.cls-34{fill:url(#GradientFill_153);}.cls-35{fill:url(#Безымянный_градиент_411);}.cls-36{fill:url(#GradientFill_33-4);}.cls-37{fill:url(#GradientFill_33-5);}.cls-38{fill:url(#GradientFill_152-3);}.cls-39{fill:url(#GradientFill_33-6);}.cls-40{fill:url(#GradientFill_33-7);}.cls-41{fill:#e7e7e6;}.cls-42{fill:url(#Безымянный_градиент_409);}.cls-43{fill:url(#Безымянный_градиент_395);}.cls-44{fill:url(#GradientFill_152-4);}.cls-45{fill:url(#GradientFill_152-5);}.cls-46{fill:url(#GradientFill_151);}</style><linearGradient id="GradientFill_156" x1="14452.09" y1="39.91" x2="14439.19" y2="54.23" gradientTransform="translate(-14388)" gradientUnits="userSpaceOnUse"><stop offset="0" stop-color="#c0bebe"/><stop offset="1" stop-color="#acabab"/></linearGradient><linearGradient id="Безымянный_градиент_387" x1="14397.91" y1="11.68" x2="14438.36" y2="11.68" gradientTransform="translate(-14388)" gradientUnits="userSpaceOnUse"><stop offset="0" stop-color="#34b3b7"/><stop offset="1" stop-color="#2b8e8d"/></linearGradient><linearGradient id="Безымянный_градиент_387-2" x1="14397.91" y1="55.09" x2="14432.54" y2="55.09" xlink:href="#Безымянный_градиент_387"/><linearGradient id="GradientFill_156-2" x1="14411.82" y1="75.86" x2="14409.07" y2="53.48" xlink:href="#GradientFill_156"/><linearGradient id="GradientFill_156-3" x1="14419.49" y1="79.9" x2="14418.52" y2="71.96" xlink:href="#GradientFill_156"/><linearGradient id="GradientFill_121" x1="14488.68" y1="87.2" x2="14575.86" y2="238.2" gradientTransform="translate(-14388)" gradientUnits="userSpaceOnUse"><stop offset="0" stop-color="#a8a6a6"/><stop offset="0.52" stop-color="#a3a1a1"/><stop offset="1" stop-color="#989898"/></linearGradient><linearGradient id="Безымянный_градиент_67" x1="14504.72" y1="77.27" x2="14460.52" y2="0.72" gradientTransform="translate(-14388)" gradientUnits="userSpaceOnUse"><stop offset="0" stop-color="#d3d2d2"/><stop offset="0.52" stop-color="#a3a1a1"/><stop offset="1" stop-color="#989898"/></linearGradient><linearGradient id="GradientFill_150" x1="14442.15" y1="56.91" x2="14469.41" y2="54.53" gradientTransform="translate(-14388)" gradientUnits="userSpaceOnUse"><stop offset="0" stop-color="#82807f"/><stop offset="1" stop-color="#242223"/></linearGradient><linearGradient id="GradientFill_156-4" x1="14420.21" y1="53.75" x2="14526.58" y2="53.75" xlink:href="#GradientFill_156"/><linearGradient id="GradientFill_33" x1="14471" y1="49.34" x2="14458.34" y2="67.42" gradientTransform="translate(-14388)" gradientUnits="userSpaceOnUse"><stop offset="0" stop-color="#9c9b9b"/><stop offset="1" stop-color="#929191"/></linearGradient><linearGradient id="GradientFill_33-2" x1="14454.78" y1="60.7" x2="14452.7" y2="63.67" xlink:href="#GradientFill_33"/><linearGradient id="GradientFill_33-3" x1="14477.01" y1="66.74" x2="14480.21" y2="73.29" xlink:href="#GradientFill_33"/><linearGradient id="Безымянный_градиент_67-2" x1="14471.82" y1="34.17" x2="14494.75" y2="83.33" xlink:href="#Безымянный_градиент_67"/><linearGradient id="GradientFill_121-2" x1="14475.93" y1="60.39" x2="14500.75" y2="109.09" xlink:href="#GradientFill_121"/><linearGradient id="GradientFill_150-2" x1="14446.64" y1="73.82" x2="14442.21" y2="65.83" xlink:href="#GradientFill_150"/><linearGradient id="GradientFill_152" x1="14445.35" y1="72.55" x2="14446.07" y2="74.75" gradientTransform="translate(-14388)" gradientUnits="userSpaceOnUse"><stop offset="0" stop-color="#9c9b9b"/><stop offset="1" stop-color="#797777"/></linearGradient><linearGradient id="GradientFill_152-2" x1="14447.08" y1="71.55" x2="14448.68" y2="73.15" xlink:href="#GradientFill_152"/><linearGradient id="GradientFill_153" x1="14441.43" y1="72.49" x2="14442.28" y2="70.65" gradientTransform="translate(-14388)" gradientUnits="userSpaceOnUse"><stop offset="0" stop-color="#f3f3f1"/><stop offset="1" stop-color="#f9f9f9"/></linearGradient><linearGradient id="Безымянный_градиент_411" x1="14463.47" y1="95.21" x2="14323.73" y2="85.44" gradientTransform="translate(-14388)" gradientUnits="userSpaceOnUse"><stop offset="0" stop-color="#b6b6b6"/><stop offset="1" stop-color="#dcdbdb"/></linearGradient><linearGradient id="GradientFill_33-4" x1="14428.43" y1="46.38" x2="14431.64" y2="52.42" xlink:href="#GradientFill_33"/><linearGradient id="GradientFill_33-5" x1="14424.54" y1="98.23" x2="14420.16" y2="91.74" xlink:href="#GradientFill_33"/><linearGradient id="GradientFill_152-3" x1="14426.78" y1="97.86" x2="14428.59" y2="101.01" xlink:href="#GradientFill_152"/><linearGradient id="GradientFill_33-6" x1="14413.85" y1="61.21" x2="14430.07" y2="76.87" xlink:href="#GradientFill_33"/><linearGradient id="GradientFill_33-7" x1="14439.92" y1="49.05" x2="14447.84" y2="63.95" xlink:href="#GradientFill_33"/><linearGradient id="Безымянный_градиент_409" x1="14442.87" y1="113.44" x2="14569.91" y2="113.44" gradientTransform="translate(-14388)" gradientUnits="userSpaceOnUse"><stop offset="0" stop-color="#0b7c7b"/><stop offset="1" stop-color="#04666e"/></linearGradient><linearGradient id="Безымянный_градиент_395" x1="14534.54" y1="35.35" x2="14524.45" y2="20.94" gradientTransform="translate(-14388)" gradientUnits="userSpaceOnUse"><stop offset="0" stop-color="#aaa9a9"/><stop offset="1" stop-color="#dcdbdb"/></linearGradient><linearGradient id="GradientFill_152-4" x1="14535.11" y1="32.53" x2="14537.85" y2="36.31" xlink:href="#GradientFill_152"/><linearGradient id="GradientFill_152-5" x1="14476.43" y1="65.63" x2="14480.01" y2="72.09" xlink:href="#GradientFill_152"/><linearGradient id="GradientFill_151" x1="14472.85" y1="75.29" x2="14471.92" y2="68.65" gradientTransform="translate(-14388)" gradientUnits="userSpaceOnUse"><stop offset="0" stop-color="#797777"/><stop offset="1" stop-color="#929191"/></linearGradient></defs><title>desk</title><g class="cls-1"><g id="Layer_2" data-name="Layer 2"><g id="Layer_1-2" data-name="Layer 1"><path class="cls-2" d="M123,184.15l36-20.77,3.64,2.1h1.84l5.81-3.35h0l-4.56-2.63L250,110.8,195.13,79.12h-8.88l-7.69,4.44H134.74l21.91,12.65-31.82,18.37V109l-70,7.05v68.09H123Z"/><polygon class="cls-3" points="65.68 54.57 50.36 45.73 52.31 44.61 67.62 53.45 65.68 54.57"/><polygon class="cls-4" points="50.36 50.22 50.36 45.73 65.68 54.57 69.28 49.64 50.36 38.72 50.36 34.23 71.58 46.48 71.58 50.97 65.68 59.06 50.36 50.22"/><polygon class="cls-5" points="79.87 46.77 75.98 49.02 50.36 34.22 54.25 31.98 79.87 46.77"/><polygon class="cls-6" points="75.98 53.51 75.98 49.02 50.36 34.23 50.36 38.72 75.98 53.51"/><polygon class="cls-3" points="65.52 42.98 59.07 41.5 50.36 34.22 51.91 33.33 56.22 33.11 69.41 40.73 65.52 42.98"/><polygon class="cls-3" points="67.77 48.77 65.52 42.98 50.36 34.23 50.36 38.72 67.77 48.77"/><polygon class="cls-7" points="75.98 53.51 75.98 49.02 79.87 46.77 79.87 51.26 75.98 53.51"/><polygon class="cls-8" points="54.26 36.48 50.36 2.25 39.65 5.4 20.66 16.38 9.91 21.11 13.81 42.14 14.94 58.24 14.94 74.23 25.55 68.09 44.54 57.11 54.26 52.47 54.26 36.48"/><polygon class="cls-9" points="44.54 84.58 17.7 69.08 54.25 47.97 81.1 63.47 84.1 71.39 58.25 86.32 44.54 84.58"/><polygon class="cls-8" points="25.47 73.57 17.69 69.08 54.25 47.97 77.4 61.33 69.81 65.71 61.77 71.32 33.69 73.57 25.47 73.57"/><polygon class="cls-10" points="50.36 2.25 40.65 6.89 31.25 12.32 21.84 17.75 13.8 23.36 9.91 21.11 17.76 15.63 17.91 15.52 17.93 15.51 27.35 10.07 36.77 4.63 36.79 4.62 36.97 4.54 46.47 0 50.36 2.25"/><polygon class="cls-11" points="44.54 89.07 44.54 84.58 17.7 69.09 17.7 57.59 13.8 23.35 9.91 21.11 13.8 55.34 13.8 66.84 13.8 66.84 13.8 71.33 44.54 89.07"/><polygon class="cls-5" points="27.17 76.8 14.99 72.78 11.86 67.96 13.8 66.84 29.12 75.68 27.17 76.8"/><polygon class="cls-12" points="11.86 72.45 11.86 67.96 27.17 76.8 30.77 71.87 11.86 60.95 11.86 56.46 33.08 68.71 33.08 73.2 27.17 81.29 11.86 72.45"/><polygon class="cls-13" points="29.07 74.2 30.77 71.87 11.86 60.95 11.86 58.48 13.16 57.21 33.08 68.71 33.08 73.2 31.38 75.53 29.07 74.2"/><polygon class="cls-14" points="27.17 81.29 33.08 73.2 35.02 72.08 29.12 80.17 27.17 81.29"/><polygon class="cls-12" points="35.53 76.86 35.53 72.37 17.52 59.88 9.91 57.58 9.91 62.07 35.53 76.86"/><polygon class="cls-7" points="35.53 76.86 35.53 72.37 39.41 70.13 39.42 74.62 35.53 76.86"/><polygon class="cls-5" points="39.41 70.13 35.52 72.37 14.96 60.5 9.91 57.58 13.8 55.34 39.41 70.13"/><polygon class="cls-15" points="54.87 116.06 54.87 175.27 174.22 106.36 174.22 47.16 54.87 116.06"/><polygon class="cls-16" points="54.87 116.06 54.87 184.15 0 152.47 0 84.39 54.87 116.06"/><polygon class="cls-17" points="54.87 116.06 181.91 42.72 127.05 11.04 0 84.39 54.87 116.06"/><polygon class="cls-18" points="151.91 56.14 148.99 54.45 113.23 54.45 107.38 57.83 107.38 57.83 98.28 63.08 86.03 61.24 76.09 66.98 77.39 67.73 87.58 69.26 70.41 79.17 73.33 80.86 75.24 80.86 109.1 80.86 151.91 56.14"/><polygon class="cls-19" points="93.05 49.47 84.63 44.61 56.71 60.73 63.78 65.59 65.12 65.59 93.05 49.47"/><polygon class="cls-20" points="63.78 65.59 55.36 60.73 55.36 59.38 60.41 61.96 63.78 64.24 63.78 65.59"/><polygon class="cls-21" points="91.7 48.12 83.29 43.26 55.36 59.38 63.78 64.24 91.7 48.12"/><path class="cls-22" d="M68.82,60.94l-7.07-4.08-4.37,2.52,6.39,4.08h.67l4.37-2.52ZM91,48.12,69.81,60.37h-.67l-6.39-4.08L84,44Z"/><polygon class="cls-20" points="63.78 63.46 56.71 59.38 56.71 58.71 63.78 62.79 63.78 63.46"/><polygon class="cls-20" points="69.14 60.37 62.08 56.29 62.07 55.61 69.14 59.69 69.14 60.37"/><polygon class="cls-23" points="63.78 65.59 91.7 49.47 91.7 48.12 63.78 64.24 63.78 65.59"/><polygon class="cls-24" points="63.78 63.46 68.15 60.94 68.15 60.26 63.78 62.79 63.78 63.46"/><polygon class="cls-25" points="69.14 60.37 90.36 48.12 90.35 47.45 69.14 59.69 69.14 60.37"/><path class="cls-26" d="M68.15,60.26l-7.07-4.08-4.37,2.52,7.07,4.08,4.37-2.52Zm22.2-12.82L69.14,59.69l-7.07-4.08L83.29,43.36Z"/><polygon class="cls-21" points="95.14 65 86.03 59.74 76.08 65.48 80.75 69.29 85.19 70.74 95.14 65"/><polygon class="cls-27" points="85.19 72.24 76.09 66.98 76.08 65.48 85.19 70.74 85.19 72.24"/><polygon class="cls-27" points="67.25 74.78 64.33 73.09 64.33 37.33 104.31 22.77 67.25 74.78"/><polygon class="cls-21" points="110.07 14.3 107.15 12.61 64.33 37.33 67.25 39.02 110.07 14.3"/><polygon class="cls-28" points="86.08 67.76 83.06 69.5 83.79 70.24 85.19 70.74 95.14 65 95.59 65.26 93 63.77 86.56 60.05 85.72 59.92 87.94 65.48 89.76 66.53 86.08 67.76"/><polygon class="cls-29" points="110.07 50.06 67.25 74.78 67.25 39.02 110.07 14.3 110.07 50.06"/><polygon class="cls-30" points="95.14 65 93.63 55.84 83.69 61.58 84.4 69.01 85.19 70.74 91.4 68.44 95.14 65"/><polygon class="cls-31" points="57.25 69.28 61.52 71.75 59.88 73.41 56.99 74.36 55.81 74.36 52.35 69.74 54.38 69.07 55.23 69.17 55.56 69.07 57.25 69.28"/><polygon class="cls-27" points="51.17 69.74 52.67 70.76 51.55 71.89 51.17 70.92 51.17 69.74"/><polygon class="cls-20" points="55.81 73.18 51.55 70.72 51.55 71.89 55.81 74.36 55.81 73.18"/><polygon class="cls-32" points="55.81 73.18 58.7 72.23 59.34 72.12 58.7 73.41 55.81 74.36 55.81 73.18"/><polygon class="cls-33" points="60.34 70.56 58.7 72.23 58.7 73.41 60.34 71.75 60.34 70.56"/><polygon class="cls-26" points="56.58 68.37 57.64 68.99 58.71 69.6 60.34 70.56 59.93 70.98 59.52 71.4 59.11 71.82 58.7 72.23 57.98 72.47 57.26 72.71 56.54 72.94 55.81 73.18 51.55 70.72 51.45 70.47 51.36 70.23 51.27 69.98 51.17 69.74 51.47 69.44 51.76 69.15 52.05 68.86 52.35 68.56 52.85 68.39 53.36 68.22 53.87 68.06 54.38 67.89 56.58 68.37"/><polygon class="cls-27" points="58.71 69.6 60.34 70.56 59.93 70.98 59.52 71.4 59.11 71.82 58.7 72.23 57.98 72.47 57.26 72.71 56.54 72.94 55.81 73.18 55.31 71.56 58.71 69.6"/><polygon class="cls-21" points="56.58 68.37 57.64 68.99 58.71 69.6 55.31 71.56 54.24 70.95 53.18 70.33 56.58 68.37"/><polygon class="cls-34" points="51.55 70.72 55.81 73.18 55.31 71.56 53.18 70.33 51.55 70.72"/><polygon class="cls-35" points="22.71 94.91 32.28 89.39 45.34 96.93 40.66 99.63 48.26 103.94 84.23 91.48 75.59 86.49 81.4 83.14 83.24 83.14 83.25 83.13 102.14 94.04 102.14 94.04 96.33 97.4 94.48 97.4 86.53 92.8 48.56 105.95 39.04 100.56 35.77 102.45 34.75 102.45 22.71 94.91"/><polygon class="cls-21" points="30.44 39.51 49.34 52.27 55.15 47.06 36.26 36.15 30.44 39.51"/><polygon class="cls-27" points="49.34 50.41 30.44 39.51 30.44 41.36 49.34 52.27 49.34 50.41"/><polygon class="cls-36" points="40.69 45.42 39.89 46.81 41.4 47.68 40.69 45.42"/><polygon class="cls-21" points="21.69 93.89 31.26 88.36 44.32 95.9 34.75 102.45 21.69 93.89"/><polygon class="cls-37" points="39.64 98.61 39.04 99.45 38.02 99.54 33.04 96.72 31.44 96.72 31.43 95.8 36.16 93.07 37.77 93.99 34.66 95.79 34.66 95.79 39.64 98.61"/><polygon class="cls-21" points="31.44 95.14 36.17 92.42 34.56 91.49 29.84 94.22 31.44 95.14"/><polygon class="cls-38" points="34.75 102.45 44.32 96.93 44.32 95.9 34.75 101.43 34.75 102.45"/><polygon class="cls-27" points="21.69 93.89 21.69 94.91 34.75 102.45 34.75 101.43 21.69 93.89"/><polygon class="cls-39" points="31.44 95.14 17.56 75.12 17.22 74.63 17.82 73.88 40.69 45.42 40.69 47.27 19.11 74.12 33.05 94.22 36.17 92.42 36.17 94 31.44 96.72 31.44 95.14"/><polygon class="cls-40" points="49.34 50.41 55.15 47.06 55.15 48.91 49.34 52.27 49.34 50.41"/><polygon class="cls-41" points="29.84 94.22 31.44 95.14 31.44 96.72 29.84 95.8 29.84 94.22"/><polygon class="cls-41" points="29.84 94.22 31.44 95.14 31.44 96.72 29.84 95.8 29.84 94.22"/><polygon class="cls-27" points="29.84 94.22 31.44 95.14 17.22 74.63 15.61 73.7 29.84 94.22"/><polygon class="cls-21" points="39.09 44.5 40.69 45.42 17.22 74.63 15.61 73.7 39.09 44.5"/><polygon class="cls-42" points="62.56 120.51 181.91 51.6 181.91 42.72 54.87 116.06 54.87 184.15 62.56 179.71 62.56 120.51"/><polygon class="cls-43" points="156.48 31.76 146.6 40 143.46 40 133.74 34.86 143.62 26.62 156.48 31.76"/><polygon class="cls-20" points="143.46 40 146.16 34.41 130.59 31.71 130.59 34.86 143.46 40"/><polygon class="cls-26" points="153.33 28.61 143.46 36.85 130.59 31.71 140.47 23.47 153.33 28.61"/><polygon class="cls-44" points="143.46 40 143.46 36.85 153.33 28.61 153.33 31.76 143.46 40"/><polygon class="cls-45" points="95.14 65 95.14 66.5 85.19 72.24 84.38 71.05 85.19 70.74 95.14 65"/><polygon class="cls-46" points="83.69 61.58 83.8 69.94 83.06 69.5 83.81 71.44 85.19 72.24 85.19 70.74 83.69 61.58"/></g></g></g></svg>