<svg xmlns="http://www.w3.org/2000/svg" xmlns:xlink="http://www.w3.org/1999/xlink" viewBox="0 0 79.57 99.3"><defs><style>.cls-1{isolation:isolate;}.cls-2{fill:url(#Безымянный_градиент_490);}.cls-3{fill:#036d77;}.cls-4{fill:#e4e0dc;}.cls-5{fill:#c4c4c4;}.cls-6{fill:#c1c8d1;}.cls-7{fill:url(#Безымянный_градиент_490-2);}.cls-8{fill:#62626a;}.cls-9{fill:#686e70;mix-blend-mode:screen;}</style><linearGradient id="Безымянный_градиент_490" x1="10949.15" y1="90.13" x2="10998.9" y2="3.97" gradientTransform="matrix(-1, 0, 0, 1, 11018.25, 0)" gradientUnits="userSpaceOnUse"><stop offset="0" stop-color="#2b8e8d"/><stop offset="1" stop-color="#34b3b7"/></linearGradient><linearGradient id="Безымянный_градиент_490-2" x1="10966.21" y1="95.6" x2="11012.47" y2="15.48" xlink:href="#Безымянный_градиент_490"/></defs><title>digitalClock</title><g class="cls-1"><g id="Layer_2" data-name="Layer 2"><g id="Layer_1-2" data-name="Layer 1"><path class="cls-2" d="M49.59,94.1c1.35.3-1,4.3.37,4.39,4.55.29,12.37-4.47,16-6.53a24.17,24.17,0,0,0,9.29-10.08c4.42-8.46,5.51-20,3.09-32.37C73.63,25.44,56.81,4.42,39.2.62a26.7,26.7,0,0,0-4-.57A22,22,0,0,0,24.43,2C20,4,11.9,6.86,9.22,12,4.8,20.45,8.06,32.8,10.48,45.22,15.17,69.28,32,90.3,49.59,94.1Z"/><path class="cls-3" d="M40.38,98.69a27.74,27.74,0,0,0,4,.56c9.33.59,17-4,21.61-12.79,4.41-8.47,5.51-20,3.09-32.38C64.41,30,47.59,9,30,5.19a27,27,0,0,0-4-.57C16.64,4,9,8.58,4.35,17.42c-4.42,8.46-5.51,20-3.09,32.38,4.69,24.06,21.5,45.08,39.11,48.88Z"/><path class="cls-4" d="M4.25,50C9.06,74.62,26.8,95.46,43.86,96.53s27-18,22.26-42.62c-.21-1-.43-2.09-.7-3.12A72,72,0,0,0,53.57,25.16a51.53,51.53,0,0,0-13.9-13.26A28.71,28.71,0,0,0,27.21,7.44c-.25,0-.47-.06-.72-.08C9.41,6.27-.55,25.34,4.25,50Z"/><path class="cls-5" d="M65.86,56.49c-.21-1-.43-2.09-.7-3.12A72,72,0,0,0,53.31,27.75a51.52,51.52,0,0,0-13.9-13.26A28.72,28.72,0,0,0,27,10c-.25,0-.47-.06-.72-.08-12.48-.79-21.15,9.18-23,24.21C4.37,17.69,13.3,6.52,26.49,7.36c.25,0,.47,0,.72.08a28.71,28.71,0,0,1,12.46,4.46,51.53,51.53,0,0,1,13.9,13.26A72,72,0,0,1,65.42,50.78c.27,1,.49,2.07.7,3.12a58.48,58.48,0,0,1,.8,18.36A60.33,60.33,0,0,0,65.86,56.49Z"/><path class="cls-5" d="M63.95,53.9c-.21-1-.43-2.09-.7-3.12A72,72,0,0,0,51.4,25.16,51.53,51.53,0,0,0,37.5,11.89,28.71,28.71,0,0,0,25,7.44c-.25,0-.47-.06-.72-.08h-.21a21.15,21.15,0,0,1,2.38,0c.25,0,.47,0,.72.08a28.71,28.71,0,0,1,12.46,4.46,51.53,51.53,0,0,1,13.9,13.26A72,72,0,0,1,65.42,50.78c.27,1,.49,2.07.7,3.12,4.76,24.52-5.09,43.55-22,42.63C59.68,95.77,68.5,77.35,63.95,53.9Z"/><polygon class="cls-6" points="13.86 23.2 14.37 21.47 45.27 61.83 44.21 62.82 13.86 23.2"/><polygon class="cls-6" points="36.51 52.24 45.8 58.95 55.65 62.5 55.65 61.52 47.65 55.05 36.81 50.27 36.51 52.24"/><polygon class="cls-6" points="36.15 49.81 34.65 29.31 36.2 18.03 36.92 18.36 38.48 29.95 37.11 50.34 36.15 49.81"/><path class="cls-6" d="M36.08,47.09c1.49.09,3,1.9,3.43,4s-.44,3.78-1.92,3.7-3-1.9-3.43-4S34.61,47,36.08,47.09Z"/><path class="cls-7" d="M26.49,7.35c.2,0,.41.06.62.07C10.73,7.29,1.22,25.68,5.83,49.29c4.71,24.12,22.36,44.5,39.42,45.49a19.12,19.12,0,0,0,15.42-6.07,19.06,19.06,0,0,1-16.82,7.82C26.79,95.46,9.06,74.62,4.26,50S9.41,6.26,26.49,7.35Z"/><polygon class="cls-8" points="34.27 17.52 36.08 18.58 36.08 12.13 34.27 11.06 34.27 17.52"/><polygon class="cls-8" points="22.73 17.67 24.43 17.24 22.55 11.06 20.85 11.49 22.73 17.67"/><polygon class="cls-8" points="49.56 92.24 51.27 91.82 49.38 85.64 47.68 86.06 49.56 92.24"/><polygon class="cls-8" points="14.4 26.48 15.31 24.8 11.03 19.96 10.13 21.64 14.4 26.48"/><polygon class="cls-8" points="21.3 78.01 20.02 76.64 23.29 71.07 24.59 72.44 21.3 78.01"/><polygon class="cls-8" points="46.68 28.45 45.4 27.09 48.68 21.52 49.96 22.88 46.68 28.45"/><polygon class="cls-8" points="9.96 58.09 9.35 56.34 15.31 54.53 15.94 56.28 9.96 58.09"/><polygon class="cls-8" points="56.02 47.36 55.38 45.62 61.36 43.82 61.99 45.56 56.02 47.36"/><polygon class="cls-8" points="61.54 82.47 62.44 80.78 58.16 75.95 57.25 77.63 61.54 82.47"/><polygon class="cls-8" points="34.27 90.36 36.08 91.42 36.08 84.96 34.27 83.9 34.27 90.36"/><polygon class="cls-8" points="11.94 38.8 11.94 36.65 6.5 33.18 6.5 35.32 11.94 38.8"/><polygon class="cls-8" points="66.79 70.28 66.79 68.13 61.35 64.66 61.35 66.8 66.79 70.28"/><polygon class="cls-3" points="12.44 24.08 12.94 22.35 43.84 62.71 42.78 63.7 12.44 24.08"/><path class="cls-8" d="M34.42,48.07c1.49.09,3,1.9,3.43,4s-.44,3.78-1.92,3.7-3-1.9-3.43-4S33,48,34.42,48.07Z"/><polygon class="cls-8" points="34.86 52.56 44.16 59.28 54.01 62.82 54.01 61.85 46.01 55.37 35.17 50.59 34.86 52.56"/><polygon class="cls-8" points="34.51 50.13 33.01 29.63 34.56 18.35 35.28 18.68 36.84 30.27 35.47 50.66 34.51 50.13"/><path class="cls-9" d="M26.08,87.12c5.75,4.93,12.09,8,18.33,8.36.41,0,.78,0,1.17,0L65.42,50.78A72,72,0,0,0,53.57,25.16Z"/><path class="cls-9" d="M6.2,54.76v0a71.86,71.86,0,0,0,7.08,16.67L39.67,11.89A28.71,28.71,0,0,0,27.21,7.44Z"/></g></g></g></svg>