<?xml version="1.0" encoding="utf-8"?>
<!-- Generator: Adobe Illustrator 21.1.0, SVG Export Plug-In . SVG Version: 6.00 Build 0)  -->
<svg version="1.1" id="_x31_" xmlns="http://www.w3.org/2000/svg" xmlns:xlink="http://www.w3.org/1999/xlink" x="0px" y="0px"
	 viewBox="0 0 292 234" style="enable-background:new 0 0 292 234;" xml:space="preserve">
<style type="text/css">
	.st0{fill:#7B0E12;}
	.st1{enable-background:new    ;}
	.st2{fill:#9C1117;}
	.st3{fill:#C2161D;}
	.st4{fill:#8E1015;}
	.st5{fill:url(#SVGID_1_);}
	.st6{clip-path:url(#SVGID_3_);fill:url(#SVGID_4_);}
	.st7{fill:url(#SVGID_5_);}
	.st8{fill:#740D11;}
	.st9{fill:url(#SVGID_6_);}
	.st10{fill:#921016;}
	.st11{fill:#700C11;}
	.st12{fill:url(#SVGID_7_);}
	.st13{fill:#790C11;}
	.st14{fill:url(#SVGID_8_);}
	.st15{fill:url(#SVGID_9_);}
	.st16{fill:#6C0C10;}
	.st17{fill:url(#SVGID_10_);}
	.st18{fill:url(#SVGID_11_);}
</style>
<path class="st0" d="M291.8,212.8l-7.1-4.1l7.2-4.2l0-16.2l0,0h0l0,0c0,0,0,0,0,0c-0.4,0.2-0.8,0.4-1.2,0.6
	c-0.6,0.2-1.2,0.4-1.8,0.6c-0.2,0-0.3,0.1-0.5,0.1c-0.4,0.1-0.8,0.1-1.2,0.1c-0.3,0-0.6,0-0.9,0c-0.4,0-0.9-0.1-1.4-0.2
	c-0.4-0.1-0.9-0.2-1.3-0.3c-0.1,0-0.2,0-0.3-0.1c-0.6-0.2-1.2-0.4-1.8-0.7c-0.5-0.2-0.9-0.4-1.4-0.7c-0.8-0.4-1.5-1-2.2-1.5
	c-0.6-0.4-1.1-0.9-1.6-1.3c-0.4-0.3-0.7-0.6-1.1-1c-0.5-0.5-1-1.1-1.5-1.7c-0.3-0.3-0.6-0.7-0.9-1c-0.1-0.1-0.2-0.2-0.2-0.4
	l19.3-11.2l0-16.5c-0.1-0.1-0.1-0.2-0.2-0.2h0c-0.6-0.8-1.2-1.5-1.8-2.2c-0.3-0.4-0.6-0.8-1-1.2c-1-1.1-2.1-2.2-3.2-3.3
	c-1-1-2.1-1.8-3.2-2.7c-0.2-0.2-0.4-0.3-0.7-0.5c-0.2-0.1-0.4-0.3-0.6-0.4c-1-0.7-1.9-1.3-2.9-1.9c-0.9-0.5-1.7-1-2.6-1.4
	c0,0,0,0,0,0c0,0-0.1,0-0.1-0.1c-0.7-0.3-1.4-0.6-2.1-0.9c-0.2-0.1-0.4-0.2-0.7-0.2c-0.3-0.1-0.5-0.2-0.8-0.3
	c-0.2-0.1-0.3-0.1-0.5-0.1c-0.6-0.2-1.2-0.3-1.8-0.4c-0.2,0-0.4-0.1-0.6-0.1c-0.1,0-0.2,0-0.3,0c-0.6-0.1-1.2-0.1-1.7-0.1
	c-0.2,0-0.4,0-0.6,0c0,0-0.1,0-0.1,0c-0.8,0-1.6,0.1-2.3,0.2c0,0,0,0-0.1,0c-0.1,0-0.2,0.1-0.3,0.1c-0.7,0.1-1.4,0.4-2,0.6
	c-0.1,0-0.2,0.1-0.3,0.1c-0.4,0.2-0.7,0.3-1.1,0.5c-0.1,0-0.2,0.1-0.3,0.1l-20.4,11.9c0.1,0,0.2-0.1,0.3-0.1c0,0,0,0,0,0
	c0,0,0,0,0,0c-0.2,0.1-0.4,0.2-0.6,0.4l0-4.5l11-6.4l0-13.7l-35.8-20.6l-5,2.9l0-5.8L196,94.7l-19.2,11.2l0.1-22.2l-13.4-7.7
	L152.9,82c0-0.2-0.1-0.4-0.1-0.6c0-0.2-0.1-0.3-0.1-0.5c0-0.1-0.1-0.2-0.1-0.3c-0.1-0.3-0.2-0.5-0.3-0.7c-0.1-0.3-0.2-0.5-0.3-0.8
	c0-0.1-0.1-0.1-0.1-0.1c0-0.1-0.1-0.1-0.1-0.1c-0.1-0.2-0.2-0.4-0.3-0.6c-0.2-0.4-0.5-0.8-0.8-1.2c0,0,0,0,0,0
	c0-0.1-0.1-0.1-0.1-0.2c-0.4-0.5-0.8-0.9-1.2-1.3c-0.2-0.2-0.3-0.3-0.5-0.4c-0.2-0.2-0.4-0.4-0.7-0.6c-0.2-0.2-0.5-0.3-0.7-0.4
	c-0.2-0.1-0.3-0.2-0.5-0.3c-0.3-0.1-0.5-0.2-0.8-0.3c0-0.1,0-0.2,0-0.3c0-0.3-0.1-0.6-0.2-0.9c0-0.1,0-0.1,0-0.2c0,0,0,0,0,0
	c-0.1-0.3-0.2-0.7-0.3-1c0-0.1,0-0.1-0.1-0.2c0-0.1-0.1-0.2-0.1-0.3c-0.1-0.2-0.1-0.3-0.2-0.5c-0.1-0.2-0.1-0.3-0.2-0.5
	c0-0.1-0.1-0.2-0.1-0.3c0-0.1,0-0.1-0.1-0.2c-0.1-0.3-0.3-0.6-0.5-0.8c0-0.1-0.1-0.1-0.1-0.2c0,0,0,0,0,0c-0.1-0.1-0.1-0.2-0.2-0.3
	c-0.2-0.3-0.4-0.6-0.6-0.9c0,0,0,0,0-0.1c-0.1-0.1-0.1-0.2-0.2-0.2c-0.2-0.3-0.5-0.6-0.7-0.8c-0.1-0.1-0.2-0.2-0.4-0.4
	c-0.2-0.2-0.5-0.4-0.7-0.6c-0.1-0.1-0.1-0.1-0.2-0.2c-0.2-0.1-0.4-0.2-0.6-0.4c-0.1-0.1-0.3-0.2-0.4-0.2c-0.2-0.1-0.3-0.1-0.5-0.2
	c0,0-0.1,0-0.1,0c0,0,0,0,0,0c-0.2-0.1-0.4-0.1-0.6-0.1c-0.1,0-0.1,0-0.2,0c-0.1,0-0.1,0-0.2,0c-0.1,0-0.1,0-0.2,0
	c-0.2,0-0.4,0-0.6,0.1c0,0,0,0,0,0c0,0-0.1,0-0.1,0c-0.1,0-0.3,0.1-0.4,0.1c-0.1,0-0.2,0.1-0.3,0.1l-3.6,2.1c0,0-0.1,0-0.1-0.1
	c-0.2-0.1-0.3-0.1-0.5-0.2c-0.1,0-0.2-0.1-0.3-0.1c0,0-0.1,0-0.1-0.1c-0.2-0.1-0.5-0.1-0.7-0.2c0,0-0.1,0-0.1,0c-0.1,0-0.1,0-0.2,0
	c-0.1,0-0.2,0-0.3,0c-0.2,0-0.3,0-0.5,0c0,0,0,0-0.1,0c0,0,0,0,0,0c-0.2,0-0.4,0.1-0.6,0.2c-0.1,0-0.2,0.1-0.3,0.1l-15.3,8.9
	c0-0.2-0.1-0.3-0.1-0.5c0-0.2-0.1-0.3-0.1-0.5c-0.2-1-0.5-2.1-0.8-3.1c-0.1-0.4-0.2-0.7-0.3-1.1c-0.1-0.2-0.2-0.5-0.2-0.7
	c-0.4-1.2-0.8-2.3-1.2-3.5c-0.1-0.2-0.1-0.3-0.2-0.5c-0.1-0.3-0.3-0.6-0.4-0.9c-0.4-1.1-0.9-2.1-1.4-3.2c-0.1-0.3-0.2-0.5-0.4-0.8
	c-0.1-0.2-0.2-0.3-0.3-0.5c-0.8-1.6-1.6-3.2-2.5-4.8c0-0.1-0.1-0.1-0.1-0.2c-0.3-0.5-0.6-0.9-0.9-1.4c-0.4-0.7-0.8-1.3-1.2-2
	c-0.3-0.5-0.7-1-1.1-1.5c-0.4-0.6-0.9-1.2-1.3-1.8c-0.1-0.1-0.1-0.2-0.2-0.3c-0.2-0.3-0.5-0.6-0.7-0.8c-0.6-0.8-1.3-1.6-1.9-2.4
	c-0.4-0.4-0.7-0.8-1.1-1.2c-0.6-0.7-1.3-1.4-1.9-2.1c-0.4-0.4-0.8-0.8-1.2-1.2c-0.7-0.7-1.4-1.3-2-1.9c-0.4-0.3-0.8-0.7-1.2-1
	c-0.8-0.7-1.6-1.3-2.5-1.9c-0.2-0.2-0.5-0.4-0.7-0.5c0,0-0.1-0.1-0.1-0.1c-1.1-0.8-2.2-1.5-3.3-2.1c-0.9-0.5-1.8-1-2.6-1.4
	c-0.1-0.1-0.2-0.1-0.3-0.1c-0.2-0.1-0.4-0.2-0.6-0.3c-0.7-0.3-1.5-0.6-2.2-0.9c-0.2-0.1-0.5-0.2-0.7-0.2c-0.1,0-0.3-0.1-0.4-0.1
	c-0.3-0.1-0.5-0.1-0.7-0.2c-0.8-0.2-1.6-0.4-2.3-0.6c-0.2,0-0.4-0.1-0.5-0.1c-0.2,0-0.4,0-0.6,0c-0.7-0.1-1.4-0.1-2-0.2
	c-0.2,0-0.5-0.1-0.7-0.1c-0.1,0-0.2,0-0.4,0c-0.8,0-1.6,0.1-2.4,0.2c-0.2,0-0.3,0-0.5,0c0,0-0.1,0-0.1,0c-0.1,0-0.2,0.1-0.3,0.1
	c-0.6,0.1-1.2,0.3-1.8,0.5c-0.2,0.1-0.3,0.1-0.5,0.2c-0.1,0.1-0.3,0.1-0.4,0.1c-0.5,0.2-1.1,0.5-1.6,0.8l-13.9,8.1l0.1-26.6L29.5,0
	L9,11.9l0,3.7l-9,5.2l0,9L9,35L8.8,82.4l7.9,4.5l4.1-2.4l0,4.7L29,94l11.7-6.8c2.6,5.2,5.8,10.2,9.5,14.6c1.7,2,4.2,4.6,5,5.3
	c2.7,2.5,6.1,5.1,9.1,7c1,0.7,4.5,2.8,5.6,3.4L271.4,234l20.4-11.9L291.8,212.8 M143,98.5l0,13.6l-11.8-6.8L143,98.5z M175.8,141.5
	l0,4.3l-3.7-2.1L175.8,141.5z M291.8,152.8L291.8,152.8L291.8,152.8L291.8,152.8z M110.5,87.7c0.3,0.4,0.5,0.7,0.8,1.1
	c-0.9,1.1-1.3,2.7-1,4.6l-4.8-2.8L110.5,87.7z"/>
<g>
	<g class="st1">
		<g>
			<polygon class="st2" points="0,20.8 20.5,8.9 37.3,18.6 16.9,30.5 			"/>
		</g>
		<g>
			<polygon class="st3" points="0,29.8 0,20.8 16.9,30.5 16.7,86.9 8.8,82.4 9,35 			"/>
		</g>
		<g>
			<polygon class="st0" points="16.9,30.5 37.3,18.6 37.1,75.1 16.7,86.9 			"/>
		</g>
		<g>
			<polygon class="st0" points="29.2,23.5 49.6,11.6 49.4,82.1 29,94 			"/>
		</g>
		<g>
			<polygon class="st2" points="9,11.9 29.5,0 49.6,11.6 29.2,23.5 			"/>
		</g>
		<g>
			<polygon class="st3" points="9,21.3 9,11.9 29.2,23.5 29,94 20.8,89.3 21,28.2 			"/>
		</g>
	</g>
	<g class="st1">
		<path class="st4" d="M90.3,96.5c-0.7-0.4-4-2.3-4.7-2.8c-0.6-0.4-1.2-0.8-1.8-1.2c-0.9-0.6-1.7-1.3-2.6-1.9
			c-0.2-0.2-0.4-0.3-0.6-0.5c-0.9-0.7-1.7-1.4-2.4-2.1c-0.4-0.4-2.1-2.1-2.6-2.6c-1-1.1-1.9-2.2-2.8-3.4
			c-6.2-8.2-10.2-18.5-10.2-27.6c0-7.1,2.5-12.1,6.6-14.4L48.8,51.9c-4,2.3-6.5,7.3-6.6,14.4c0,9.1,4,19.4,10.2,27.6l0,0
			c0,0,0,0,0,0c0.9,1.2,1.8,2.3,2.8,3.4c0.4,0.5,2.2,2.2,2.6,2.6c0.8,0.7,1.6,1.4,2.4,2.1c0.2,0.2,0.4,0.3,0.6,0.5
			c0.9,0.7,1.7,1.3,2.6,1.9c0,0,0,0,0,0c0.6,0.4,1.2,0.8,1.8,1.2c0.7,0.5,4,2.4,4.7,2.8l201.5,116.3l20.4-11.9L90.3,96.5z"/>
		<path class="st4" d="M69.4,76.8c-0.8-1.3-1.5-2.6-2.1-4c-0.6-1.2-1.1-2.4-1.6-3.6c-0.4-1.1-0.9-2.3-1.2-3.4
			c-0.4-1.1-0.7-2.3-0.9-3.4c-0.3-1.2-0.5-2.4-0.7-3.6c-0.2-1.4-0.3-2.8-0.3-4.2c0-0.1,0-0.1,0-0.2c0-7.1,2.5-12.1,6.6-14.4
			L48.8,51.9c-4,2.3-6.5,7.3-6.6,14.4c0,0.1,0,0.1,0,0.2c0,1.4,0.1,2.8,0.3,4.2c0.2,1.2,0.4,2.4,0.7,3.6c0.3,1.1,0.6,2.3,0.9,3.4
			c0.4,1.1,0.8,2.3,1.2,3.4c0.5,1.2,1,2.4,1.6,3.6c0.6,1.3,1.4,2.7,2.1,4c1,1.8,2.2,3.5,3.4,5.1L72.8,82
			C71.6,80.3,70.4,78.6,69.4,76.8z"/>
		<linearGradient id="SVGID_1_" gradientUnits="userSpaceOnUse" x1="65.7605" y1="63.3476" x2="77.3547" y2="90.4006">
			<stop  offset="0" style="stop-color:#630E13"/>
			<stop  offset="0.3001" style="stop-color:#6C0E14"/>
			<stop  offset="0.7974" style="stop-color:#860F15"/>
			<stop  offset="1" style="stop-color:#921016"/>
		</linearGradient>
		<path class="st5" d="M86.1,79.3c-0.3-0.2-0.7-0.5-1-0.7c-0.1-0.1-0.2-0.2-0.3-0.2c-0.2-0.2-0.5-0.3-0.7-0.5
			c-0.1-0.1-0.2-0.2-0.3-0.2c-0.3-0.2-0.6-0.5-0.9-0.7c-1-0.9-2-1.9-2.4-2.4c-0.3-0.3-0.5-0.7-0.8-1c-0.5-0.6-0.9-1.3-1.3-2
			c-0.1-0.2-0.2-0.3-0.3-0.5c-0.2-0.4-0.4-0.7-0.6-1.1c-0.2-0.3-0.3-0.6-0.4-1c-0.1-0.2-0.2-0.4-0.3-0.6c-0.2-0.5-0.4-1-0.6-1.6
			c0,0,0-0.1,0-0.1c-0.1-0.5-0.3-0.9-0.4-1.4c0-0.2-0.1-0.4-0.1-0.6c-0.1-0.3-0.1-0.6-0.2-0.9c-0.1-0.4-0.1-0.9-0.1-1.3
			c0-0.2,0-0.3,0-0.5c0-3.1,1.1-5.2,2.8-6.2L57.8,67.5c-1.7,1-2.8,3.2-2.8,6.2c0,0,0,0.1,0,0.1c0,0.1,0,0.2,0,0.4
			c0,0.4,0,0.9,0.1,1.3c0,0,0,0.1,0,0.1c0,0.3,0.1,0.5,0.1,0.8c0,0.2,0.1,0.4,0.1,0.6c0,0,0,0.1,0,0.1c0.1,0.4,0.2,0.9,0.4,1.3
			c0,0,0,0.1,0,0.1c0,0,0,0,0,0c0.2,0.5,0.3,1,0.5,1.5c0,0,0,0.1,0,0.1c0.1,0.2,0.2,0.4,0.3,0.6c0.1,0.3,0.2,0.6,0.4,0.9
			c0,0,0,0.1,0.1,0.1c0.2,0.4,0.4,0.8,0.6,1.1c0.1,0.2,0.2,0.3,0.3,0.5c0,0,0,0,0,0c0.4,0.7,0.8,1.3,1.3,2c0.1,0.1,0.1,0.2,0.1,0.2
			c0.2,0.3,0.4,0.5,0.6,0.8c0.4,0.5,1.4,1.5,2.4,2.4c0.3,0.2,0.6,0.5,0.9,0.7c0.1,0.1,0.2,0.2,0.3,0.2c0.2,0.2,0.5,0.3,0.7,0.5
			c0.1,0,0.1,0.1,0.2,0.1c0.1,0,0.1,0.1,0.2,0.1c0.4,0.3,0.7,0.5,1,0.7c0.6,0.4,3.7,2.2,4.2,2.5l20.4-11.9
			C89.8,81.5,86.7,79.7,86.1,79.3z"/>
		<g>
			<polygon class="st4" points="70,93.7 90.4,81.8 156.9,120.2 136.5,132.1 			"/>
		</g>
		<g class="st1">
			<defs>
				<path id="SVGID_2_" class="st1" d="M52.3,58l20.4-11.9c3.2-1.8,7.6-1.6,12.4,1.2c9.5,5.5,17.3,18.8,17.4,29.8L82.2,89
					C82,78,74.3,64.7,64.7,59.2C59.9,56.4,55.5,56.1,52.3,58z"/>
			</defs>
			<clipPath id="SVGID_3_">
				<use xlink:href="#SVGID_2_"  style="overflow:visible;"/>
			</clipPath>
			<linearGradient id="SVGID_4_" gradientUnits="userSpaceOnUse" x1="52.2944" y1="66.9474" x2="102.5814" y2="66.9474">
				<stop  offset="0" style="stop-color:#7D0E13"/>
				<stop  offset="0.2509" style="stop-color:#860F14"/>
				<stop  offset="0.4583" style="stop-color:#921016"/>
				<stop  offset="0.9944" style="stop-color:#740D11"/>
			</linearGradient>
			<path class="st6" d="M102.4,74c-0.1-0.9-0.3-1.9-0.5-2.8c-0.2-0.9-0.4-1.8-0.7-2.7c-0.3-0.9-0.6-1.8-0.9-2.7
				c-0.4-0.9-0.8-1.9-1.2-2.8c-0.5-1-1.1-2.1-1.6-3.1c-0.8-1.4-1.7-2.7-2.7-4c-2.2-2.9-4.8-5.5-7.5-7.4c-0.6-0.5-1.3-0.9-2-1.3
				c-0.5-0.3-1-0.6-1.5-0.8c-0.8-0.4-1.6-0.7-2.4-1c-0.7-0.2-1.4-0.4-2.1-0.5c-0.7-0.1-1.3-0.2-1.9-0.1c-0.6,0-1.2,0.1-1.8,0.2
				c-0.6,0.1-1.2,0.3-1.8,0.6c-0.3,0.1-0.6,0.3-0.9,0.4L52.3,58c0.3-0.2,0.6-0.3,0.9-0.4c0.6-0.2,1.2-0.4,1.8-0.6
				c0.6-0.1,1.2-0.2,1.8-0.2c0.6,0,1.2,0,1.9,0.1c0.7,0.1,1.4,0.3,2.1,0.5c0.8,0.2,1.6,0.6,2.4,1c0.5,0.2,1,0.5,1.5,0.8
				c0.7,0.4,1.3,0.8,2,1.3c2.8,1.9,5.3,4.5,7.5,7.4c1,1.3,1.9,2.6,2.7,4c0.6,1,1.1,2,1.6,3.1c0.4,0.9,0.9,1.8,1.2,2.8
				c0.3,0.9,0.7,1.8,0.9,2.7c0.3,0.9,0.5,1.8,0.7,2.7c0.2,0.9,0.4,1.9,0.5,2.8c0.1,1,0.2,2.1,0.2,3.1l20.4-11.9
				C102.6,76.1,102.5,75.1,102.4,74z"/>
		</g>
		<linearGradient id="SVGID_5_" gradientUnits="userSpaceOnUse" x1="61.6201" y1="31.667" x2="109.0836" y2="88.913">
			<stop  offset="0" style="stop-color:#7D0E13"/>
			<stop  offset="0.2509" style="stop-color:#860F14"/>
			<stop  offset="0.4583" style="stop-color:#921016"/>
			<stop  offset="0.9944" style="stop-color:#740D11"/>
		</linearGradient>
		<path class="st7" d="M94.3,87.4c0.2,0.8,0.3,1.6,0.4,2.4c0.1,0.8,0.2,1.6,0.3,2.4c0,0.3,0.1,0.5,0.1,0.8c0.1,1.2,0.2,2.4,0.2,3.6
			l20.4-11.9c0-1.1-0.1-2.3-0.2-3.4c0-0.3-0.1-0.6-0.1-0.9c0-0.4-0.1-0.9-0.1-1.3c0-0.3-0.1-0.6-0.1-0.8c-0.1-1-0.3-2-0.5-3
			c-0.1-0.4-0.1-0.7-0.2-1.1c0-0.2-0.1-0.3-0.1-0.5c-0.2-1-0.5-2.1-0.8-3.1c-0.1-0.4-0.2-0.7-0.3-1.1c-0.1-0.2-0.2-0.5-0.2-0.7
			c-0.4-1.2-0.8-2.3-1.2-3.5c-0.1-0.2-0.1-0.3-0.2-0.5c-0.1-0.3-0.3-0.6-0.4-0.9c-0.4-1.1-0.9-2.1-1.4-3.2c-0.1-0.3-0.2-0.5-0.4-0.8
			c-0.1-0.2-0.2-0.3-0.3-0.5c-0.8-1.6-1.6-3.2-2.5-4.8c0-0.1-0.1-0.1-0.1-0.2c-0.3-0.5-0.6-0.9-0.9-1.4c-0.4-0.7-0.8-1.3-1.2-2
			c-0.3-0.5-0.7-1-1.1-1.5c-0.4-0.6-0.9-1.2-1.3-1.8c-0.1-0.1-0.1-0.2-0.2-0.3c-0.2-0.3-0.5-0.6-0.7-0.8c-0.6-0.8-1.3-1.6-1.9-2.4
			c-0.4-0.4-0.7-0.8-1.1-1.2c-0.6-0.7-1.3-1.4-1.9-2.1c-0.4-0.4-0.8-0.8-1.2-1.2c-0.7-0.7-1.4-1.3-2-1.9c-0.4-0.3-0.8-0.7-1.2-1
			c-0.8-0.7-1.6-1.3-2.5-1.9c-0.2-0.2-0.5-0.4-0.7-0.5c0,0-0.1-0.1-0.1-0.1c-1.1-0.8-2.2-1.5-3.3-2.1c-0.9-0.5-1.8-1-2.6-1.4
			c-0.1-0.1-0.2-0.1-0.3-0.1c-0.2-0.1-0.4-0.2-0.6-0.3c-0.7-0.3-1.5-0.6-2.2-0.9c-0.2-0.1-0.5-0.2-0.7-0.2c-0.1,0-0.3-0.1-0.4-0.1
			c-0.3-0.1-0.5-0.1-0.7-0.2c-0.8-0.2-1.6-0.4-2.3-0.6c-0.2,0-0.4-0.1-0.5-0.1c-0.2,0-0.4,0-0.6,0c-0.7-0.1-1.4-0.1-2-0.2
			c-0.2,0-0.5-0.1-0.7-0.1c-0.1,0-0.2,0-0.4,0c-0.8,0-1.6,0.1-2.4,0.2c-0.2,0-0.3,0-0.5,0c0,0-0.1,0-0.1,0c-0.1,0-0.2,0.1-0.3,0.1
			c-0.6,0.1-1.2,0.3-1.8,0.5c-0.2,0.1-0.3,0.1-0.5,0.2c-0.1,0.1-0.3,0.1-0.4,0.1c-0.5,0.2-1.1,0.5-1.6,0.8L43,42
			c0.6-0.4,1.3-0.7,2-0.9c0.2-0.1,0.3-0.1,0.5-0.2c0.6-0.2,1.2-0.4,1.8-0.5c0.1,0,0.2-0.1,0.3-0.1c0.2,0,0.4,0,0.6-0.1
			c0.8-0.1,1.6-0.2,2.4-0.2c0.3,0,0.7,0,1.1,0c0.7,0,1.3,0.1,2,0.2c0.4,0,0.8,0.1,1.2,0.2c0.8,0.1,1.6,0.3,2.3,0.6
			c0.4,0.1,0.8,0.2,1.2,0.3c0.2,0.1,0.5,0.2,0.7,0.2c0.7,0.3,1.5,0.6,2.2,0.9c0.2,0.1,0.4,0.2,0.6,0.3c1,0.5,2,1,2.9,1.5
			c1.1,0.6,2.2,1.3,3.3,2.1c0.3,0.2,0.6,0.4,0.8,0.6c0.8,0.6,1.7,1.2,2.5,1.9c0.4,0.3,0.8,0.7,1.2,1c0.7,0.6,1.4,1.2,2,1.9
			c0.4,0.4,0.8,0.8,1.2,1.2c0.7,0.7,1.3,1.3,1.9,2.1c0.4,0.4,0.7,0.8,1.1,1.2c0.7,0.8,1.3,1.6,1.9,2.4c0.3,0.4,0.6,0.7,0.9,1.1
			c0.4,0.6,0.9,1.2,1.3,1.8c0.4,0.5,0.7,1,1.1,1.5c0.4,0.6,0.8,1.3,1.2,2c0.3,0.5,0.6,1,1,1.5c0.9,1.6,1.8,3.1,2.5,4.8
			c0.2,0.4,0.4,0.9,0.6,1.3c0.5,1.1,1,2.1,1.4,3.2c0.2,0.5,0.4,0.9,0.6,1.4c0.5,1.2,0.9,2.3,1.2,3.5c0.3,1,0.6,2,0.9,3
			c0.1,0.5,0.3,1,0.4,1.5C93.9,85.8,94.1,86.6,94.3,87.4z"/>
		<g>
			<path class="st3" d="M136.5,141.1l-66.8-38.5c-0.7-0.4-3.8-2.3-4.5-2.7c-1.7-1.2-3.9-2.7-5.5-4.1c-0.5-0.4-2.1-2-3-3.1
				C51.1,86,47.2,77,47.2,69.2c0-11.1,7.9-15.6,17.5-10C74.3,64.7,82,78,82.2,89l-7.8-4.5c-0.1-6.1-4.4-13.3-9.6-16.3
				c-5.3-3.1-9.7-0.6-9.7,5.5c0,4.2,2,9.1,5,12.7c0.4,0.5,1.4,1.5,2.4,2.4c0.9,0.8,2.3,1.7,3.3,2.4c0.6,0.4,3.7,2.2,4.2,2.5
				l66.5,38.4L136.5,141.1z"/>
		</g>
		<g>
			<polygon class="st0" points="136.5,132.1 156.9,120.2 156.9,129.2 136.5,141.1 			"/>
		</g>
		<path class="st8" d="M138.8,87.2c-0.2,0.1-0.4,0.1-0.6,0.1c-0.1,0-0.1,0-0.2,0c-0.2,0-0.4,0-0.6,0c0,0,0,0,0,0
			c-0.2,0-0.4-0.1-0.7-0.2c-0.1,0-0.2-0.1-0.2-0.1c-0.2-0.1-0.4-0.2-0.6-0.3c-0.3-0.2-0.5-0.4-0.8-0.6c-0.3-0.2-0.6-0.5-0.8-0.8
			c-0.3-0.4-0.6-0.7-0.8-1.1c-0.3-0.6-0.5-1.1-0.6-1.7c0,0,0,0,0,0c-0.1-0.5-0.1-1-0.1-1.4c0-0.1,0-0.2,0-0.2
			c0.1-0.4,0.2-0.8,0.3-1.1c0-0.1,0.1-0.1,0.1-0.1c0.2-0.3,0.5-0.6,0.8-0.8l-20.4,11.9c-0.3,0.2-0.6,0.5-0.8,0.8
			c0,0.1-0.1,0.1-0.1,0.1c-0.2,0.3-0.3,0.7-0.3,1.1c0,0.1,0,0.2,0,0.2c0,0.1,0,0.2,0,0.3c0,0.2,0,0.4,0,0.6c0,0.1,0,0.3,0.1,0.5
			c0,0,0,0,0,0c0,0,0,0,0,0c0,0.2,0.1,0.3,0.1,0.5c0,0.2,0.1,0.3,0.2,0.5c0.1,0.2,0.1,0.3,0.2,0.5c0,0.1,0.1,0.1,0.1,0.2
			c0,0.1,0.1,0.2,0.2,0.3c0.1,0.2,0.3,0.4,0.4,0.6c0.1,0.1,0.2,0.2,0.3,0.3c0.3,0.3,0.5,0.6,0.8,0.8c0.1,0.1,0.2,0.3,0.4,0.3
			c0.1,0.1,0.3,0.2,0.4,0.3c0.1,0.1,0.2,0.1,0.4,0.2c0.1,0,0.2,0.1,0.3,0.1c0.1,0,0.2,0.1,0.2,0.1c0,0,0.1,0,0.1,0
			c0.2,0.1,0.4,0.1,0.5,0.1c0,0,0,0,0,0c0,0,0,0,0,0c0.2,0,0.3,0,0.5,0c0.1,0,0.1,0,0.2,0c0.1,0,0.1,0,0.2,0c0.1,0,0.1,0,0.2,0
			c0.2,0,0.3-0.1,0.4-0.1c0,0,0,0,0,0c0.1,0,0.2-0.1,0.2-0.1L139.1,87C139,87.1,138.9,87.1,138.8,87.2z"/>
		<linearGradient id="SVGID_6_" gradientUnits="userSpaceOnUse" x1="109.9565" y1="79.0225" x2="129.0412" y2="79.0225">
			<stop  offset="0" style="stop-color:#7D0E13"/>
			<stop  offset="0.3801" style="stop-color:#740E12"/>
			<stop  offset="0.9944" style="stop-color:#5B0D11"/>
		</linearGradient>
		<path class="st9" d="M133.7,76.4c-0.2-0.2-0.4-0.3-0.6-0.5c-0.5-0.5-0.9-1.1-1.3-1.6c-0.1-0.1-0.1-0.2-0.2-0.2
			c-0.4-0.6-0.7-1.2-0.9-1.9c-0.2-0.6-0.3-1.2-0.4-1.7c0,0,0-0.1,0-0.1c0-0.5,0-1,0.2-1.3c0.1-0.4,0.4-0.6,0.7-0.8l0,0l0,0
			l-20.4,11.9c-0.3,0.2-0.5,0.4-0.7,0.8c-0.1,0.3-0.2,0.7-0.2,1.1c0,0.1,0,0.1,0,0.2c0,0,0,0.1,0,0.1c0,0.1,0,0.2,0,0.3
			c0,0.2,0.1,0.4,0.1,0.5c0,0.2,0.1,0.4,0.1,0.5c0,0.1,0.1,0.2,0.1,0.4c0,0.1,0.1,0.2,0.1,0.3c0.1,0.2,0.2,0.4,0.3,0.6
			c0.1,0.2,0.3,0.5,0.4,0.7c0,0.1,0.1,0.1,0.1,0.2c0,0.1,0.1,0.2,0.2,0.2c0.1,0.2,0.2,0.4,0.4,0.6c0.3,0.4,0.6,0.7,0.9,1.1
			c0.2,0.2,0.4,0.4,0.6,0.5l1.8,1.5L135.5,78L133.7,76.4z"/>
		<path class="st8" d="M147.2,92.7C147.2,92.7,147.2,92.7,147.2,92.7c-0.2,0-0.4,0-0.6,0c0,0,0,0,0,0c-0.2,0-0.4-0.1-0.5-0.1
			c-0.1,0-0.1-0.1-0.2-0.1c-0.2-0.1-0.4-0.2-0.5-0.3c-0.2-0.1-0.4-0.2-0.6-0.4c-0.3-0.2-0.5-0.4-0.8-0.6c0,0-0.1-0.1-0.1-0.1
			c-0.3-0.3-0.6-0.6-0.9-1c-0.2-0.3-0.4-0.5-0.6-0.8c-0.4-0.6-0.7-1.2-1-1.9l-0.9-2.2l-20.4,11.9l0.9,2.2c0,0,0,0.1,0,0.1
			c0.1,0.2,0.2,0.4,0.3,0.6c0.1,0.3,0.3,0.5,0.4,0.8c0.1,0.1,0.1,0.2,0.2,0.4c0.2,0.3,0.3,0.5,0.5,0.7c0,0,0.1,0.1,0.1,0.1
			c0.3,0.4,0.6,0.7,0.9,1c0,0,0.1,0.1,0.1,0.1c0.3,0.2,0.5,0.5,0.8,0.6c0,0,0.1,0.1,0.1,0.1c0.2,0.1,0.3,0.2,0.5,0.3
			c0.1,0.1,0.2,0.1,0.3,0.2c0.1,0,0.1,0.1,0.2,0.1c0.1,0,0.1,0.1,0.2,0.1c0,0,0.1,0,0.1,0c0.1,0,0.3,0.1,0.4,0.1c0,0,0,0,0,0
			c0,0,0,0,0,0c0.1,0,0.2,0,0.3,0c0.1,0,0.1,0,0.2,0c0,0,0,0,0.1,0c0,0,0,0,0,0c0.1,0,0.2,0,0.3-0.1c0,0,0.1,0,0.1-0.1l20.4-11.9
			C147.6,92.6,147.4,92.7,147.2,92.7z"/>
		<path class="st10" d="M134.6,66.7c-0.2-0.2-0.4-0.3-0.7-0.4c-0.2-0.1-0.4-0.2-0.5-0.3c-0.2-0.1-0.3-0.1-0.5-0.2
			c-0.1,0-0.2-0.1-0.3-0.1c0,0-0.1,0-0.1-0.1c-0.2-0.1-0.5-0.1-0.7-0.2c0,0-0.1,0-0.1,0c-0.1,0-0.1,0-0.2,0c-0.1,0-0.2,0-0.3,0
			c-0.2,0-0.3,0-0.5,0c0,0,0,0-0.1,0c0,0,0,0,0,0c-0.2,0-0.4,0.1-0.6,0.2c-0.1,0-0.2,0.1-0.3,0.1l-20.4,11.9
			c0.3-0.1,0.5-0.2,0.8-0.3c0,0,0,0,0.1,0c0.3,0,0.6,0,0.8,0c0.1,0,0.1,0,0.2,0c0.3,0,0.6,0.1,1,0.2c0.1,0,0.2,0.1,0.3,0.1
			c0.3,0.1,0.7,0.3,1,0.5c0.5,0.3,0.9,0.6,1.4,1l20.4-11.9C135.1,67,134.9,66.8,134.6,66.7z"/>
		<path class="st11" d="M145.6,80.7c0,0,0-0.1,0-0.1c0-0.1,0-0.2,0-0.2c0-0.1,0-0.3-0.1-0.4c0-0.2-0.1-0.4-0.2-0.6c0,0,0-0.1,0-0.1
			c0,0,0,0,0-0.1c-0.1-0.3-0.2-0.5-0.3-0.8c0-0.1-0.1-0.2-0.1-0.3c0-0.1-0.1-0.2-0.1-0.3c0-0.1-0.1-0.2-0.1-0.3
			c-0.1-0.2-0.2-0.4-0.4-0.7c0-0.1-0.1-0.1-0.1-0.2c0,0,0,0,0,0c-0.1-0.2-0.2-0.3-0.3-0.5c-0.1-0.2-0.3-0.4-0.4-0.6c0,0,0,0,0,0
			c-0.1-0.1-0.1-0.1-0.2-0.2c-0.2-0.3-0.5-0.6-0.7-0.8c-0.1-0.1-0.2-0.2-0.4-0.3c-0.2-0.2-0.4-0.4-0.7-0.6c-0.1,0-0.1-0.1-0.2-0.2
			c-0.2-0.1-0.4-0.2-0.6-0.4c-0.1-0.1-0.3-0.2-0.4-0.2c-0.2-0.1-0.3-0.1-0.5-0.2c-0.1,0-0.1,0-0.2-0.1c0,0,0,0-0.1,0
			c-0.2-0.1-0.4-0.1-0.6-0.1c-0.1,0-0.1,0-0.2,0c-0.1,0-0.1,0-0.2,0c-0.1,0-0.1,0-0.2,0c-0.2,0-0.4,0-0.5,0c0,0,0,0,0,0
			c0,0,0,0-0.1,0c-0.2,0-0.3,0.1-0.4,0.1c-0.1,0-0.2,0.1-0.3,0.1l-20.4,11.9c0.2-0.1,0.4-0.2,0.7-0.3c0,0,0,0,0.1,0
			c0.2,0,0.5-0.1,0.7,0c0.1,0,0.1,0,0.2,0c0.3,0,0.5,0.1,0.8,0.2c0.1,0,0.1,0,0.2,0.1c0.3,0.1,0.6,0.2,0.9,0.4
			c0.3,0.1,0.5,0.3,0.7,0.5c0.2,0.2,0.5,0.4,0.7,0.6c0.1,0.1,0.2,0.2,0.4,0.3c0.3,0.3,0.5,0.5,0.7,0.8c0.1,0.1,0.1,0.2,0.2,0.3
			c0.1,0.2,0.3,0.4,0.4,0.6c0.1,0.2,0.2,0.3,0.3,0.5c0,0.1,0.1,0.1,0.1,0.2c0.2,0.3,0.3,0.6,0.5,0.9c0,0.1,0.1,0.2,0.1,0.3
			c0.1,0.4,0.3,0.7,0.4,1.1c0,0,0,0.1,0,0.1c0.1,0.3,0.2,0.7,0.2,1c0,0.1,0,0.2,0,0.2c0.1,0.4,0.1,0.8,0.1,1.1
			c0,1.6-0.6,2.7-1.4,3.2l20.4-11.9c0.9-0.5,1.4-1.6,1.4-3.2c0,0,0,0,0,0C145.7,81.4,145.6,81.1,145.6,80.7z"/>
		<linearGradient id="SVGID_7_" gradientUnits="userSpaceOnUse" x1="137.7307" y1="94.5845" x2="140.9915" y2="100.3816">
			<stop  offset="0" style="stop-color:#630E13"/>
			<stop  offset="0.3001" style="stop-color:#6C0E14"/>
			<stop  offset="0.7974" style="stop-color:#860F15"/>
			<stop  offset="1" style="stop-color:#921016"/>
		</linearGradient>
		<path class="st12" d="M150.3,93.6c0-0.1,0.1-0.2,0.1-0.3c0-0.2,0.1-0.3,0.1-0.5c0-0.1,0-0.3,0-0.4c0-0.2,0-0.4,0-0.6
			c0,0,0-0.1,0-0.1c0-0.1,0-0.3,0-0.4c0-0.2,0-0.4,0-0.6c0,0,0-0.1,0-0.1c0-0.2-0.1-0.5-0.1-0.7c0-0.1,0-0.2,0-0.2c0,0,0,0,0,0
			c-0.1-0.3-0.2-0.6-0.3-1c0,0,0-0.1,0-0.1c0-0.1-0.1-0.2-0.1-0.3c-0.1-0.2-0.1-0.4-0.2-0.6c-0.1-0.1-0.1-0.3-0.2-0.4l-20.4,11.9
			c0.1,0.3,0.3,0.7,0.4,1c0,0.1,0.1,0.2,0.1,0.3c0.1,0.4,0.2,0.7,0.3,1.1c0,0.1,0,0.2,0,0.2c0.1,0.3,0.1,0.5,0.1,0.8
			c0,0.2,0,0.4,0,0.6c0,0.2,0,0.3,0,0.5c0,0.2,0,0.4,0,0.6c0,0.1,0,0.3,0,0.4c0,0.2-0.1,0.4-0.1,0.5c0,0.1-0.1,0.2-0.1,0.3
			c-0.1,0.2-0.2,0.3-0.3,0.5c0,0.1-0.1,0.2-0.1,0.2c-0.2,0.2-0.3,0.4-0.5,0.6c-0.1,0.1-0.1,0.1-0.2,0.1L149.1,95
			c0.1,0,0.2-0.1,0.2-0.1c0.2-0.2,0.4-0.3,0.5-0.6c0.1-0.1,0.1-0.2,0.1-0.2C150.1,93.9,150.2,93.8,150.3,93.6z"/>
		<path class="st13" d="M138.5,66.4l-20.4,11.9c-0.7,0.4-1.2,1.4-1.2,2.9l0,0.5l0.2,2.1l20.4-11.9l-0.2-2.1l0-0.5
			C137.3,67.9,137.8,66.8,138.5,66.4z"/>
		<g>
			<path class="st3" d="M120.3,85c2.7,1.6,5,5.4,4.9,8.5c0,3.1-2.2,4.4-5,2.8c-2.7-1.6-4.9-5.4-4.9-8.6
				C115.3,84.7,117.6,83.5,120.3,85z"/>
		</g>
		<path class="st8" d="M149.1,84.6C149.1,84.6,149.1,84.6,149.1,84.6c-0.3,0-0.6,0.1-0.9,0c-0.2,0-0.4-0.1-0.6-0.1l-1.8-0.5
			l-20.4,11.9l1.8,0.5c0,0,0.1,0,0.1,0c0.2,0.1,0.3,0.1,0.5,0.1c0.2,0,0.3,0,0.4,0c0.1,0,0.3,0,0.4,0c0,0,0.1,0,0.1,0c0,0,0,0,0,0
			c0.2,0,0.3-0.1,0.5-0.1c0.1,0,0.1-0.1,0.2-0.1l20.4-11.9C149.6,84.4,149.4,84.5,149.1,84.6z"/>
		<linearGradient id="SVGID_8_" gradientUnits="userSpaceOnUse" x1="126.6766" y1="66.0171" x2="135.7708" y2="80.0822">
			<stop  offset="0" style="stop-color:#7D0E13"/>
			<stop  offset="0.2367" style="stop-color:#8B0F15"/>
			<stop  offset="0.4583" style="stop-color:#921016"/>
			<stop  offset="0.9944" style="stop-color:#740D11"/>
		</linearGradient>
		<path class="st14" d="M122.1,77.6c0.2,0.3,0.5,0.5,0.7,0.8c0.1,0.1,0.2,0.2,0.3,0.3c0.2,0.3,0.4,0.6,0.6,0.9
			c0.1,0.1,0.1,0.2,0.2,0.3c0,0,0.1,0.1,0.1,0.1c0.2,0.3,0.4,0.7,0.5,1c0.1,0.1,0.1,0.2,0.1,0.3c0.1,0.3,0.3,0.6,0.4,0.9
			c0,0.1,0.1,0.2,0.1,0.3c0.1,0.4,0.3,0.8,0.3,1.2c0,0.1,0,0.1,0,0.2c0.1,0.4,0.2,0.8,0.2,1.2l20.4-11.9c0-0.1,0-0.2,0-0.3
			c0-0.3-0.1-0.6-0.2-0.9c0-0.1,0-0.1,0-0.2c0,0,0,0,0,0c-0.1-0.3-0.2-0.7-0.3-1c0-0.1,0-0.1-0.1-0.2c0-0.1-0.1-0.2-0.1-0.3
			c-0.1-0.2-0.1-0.3-0.2-0.5c-0.1-0.2-0.1-0.3-0.2-0.5c0-0.1-0.1-0.2-0.1-0.3c0-0.1,0-0.1-0.1-0.2c-0.1-0.3-0.3-0.6-0.5-0.8
			c0-0.1-0.1-0.1-0.1-0.2c0,0,0,0,0,0c-0.1-0.1-0.1-0.2-0.2-0.3c-0.2-0.3-0.4-0.6-0.6-0.9c0,0,0,0,0-0.1c-0.1-0.1-0.1-0.2-0.2-0.2
			c-0.2-0.3-0.5-0.6-0.7-0.8c-0.1-0.1-0.2-0.2-0.4-0.4c-0.2-0.2-0.5-0.4-0.7-0.6c-0.1-0.1-0.1-0.1-0.2-0.2c-0.2-0.1-0.4-0.2-0.6-0.4
			c-0.1-0.1-0.3-0.2-0.4-0.2c-0.2-0.1-0.3-0.1-0.5-0.2c0,0-0.1,0-0.1,0c0,0,0,0,0,0c-0.2-0.1-0.4-0.1-0.6-0.1c-0.1,0-0.1,0-0.2,0
			c-0.1,0-0.1,0-0.2,0c-0.1,0-0.1,0-0.2,0c-0.2,0-0.4,0-0.6,0.1c0,0,0,0,0,0c0,0-0.1,0-0.1,0c-0.1,0-0.3,0.1-0.4,0.1
			c-0.1,0-0.2,0.1-0.3,0.1l-20.4,11.9c0.2-0.1,0.4-0.2,0.7-0.3c0,0,0.1,0,0.1,0c0.2-0.1,0.5-0.1,0.8-0.1c0.1,0,0.1,0,0.2,0
			c0.3,0,0.6,0.1,0.8,0.2c0,0,0.1,0,0.1,0c0.3,0.1,0.6,0.2,0.9,0.4c0.3,0.1,0.5,0.3,0.8,0.5c0.2,0.2,0.5,0.4,0.7,0.6
			C121.9,77.3,122,77.5,122.1,77.6z"/>
		<linearGradient id="SVGID_9_" gradientUnits="userSpaceOnUse" x1="136.1707" y1="79.017" x2="143.2358" y2="92.2415">
			<stop  offset="0" style="stop-color:#921016"/>
			<stop  offset="0.2026" style="stop-color:#860F15"/>
			<stop  offset="0.6999" style="stop-color:#6C0E14"/>
			<stop  offset="1" style="stop-color:#630E13"/>
		</linearGradient>
		<path class="st15" d="M153,83.3c0-0.1,0-0.1,0-0.2c0-0.2,0-0.5-0.1-0.7c0-0.1,0-0.1,0-0.1c0,0,0,0,0,0c0-0.3-0.1-0.5-0.1-0.8
			c0-0.2-0.1-0.3-0.1-0.5c0-0.1-0.1-0.2-0.1-0.3c-0.1-0.3-0.2-0.5-0.3-0.7c-0.1-0.3-0.2-0.5-0.3-0.8c0-0.1-0.1-0.1-0.1-0.1
			c0-0.1-0.1-0.1-0.1-0.1c-0.1-0.2-0.2-0.4-0.3-0.6c-0.2-0.4-0.5-0.8-0.8-1.2c0,0,0,0,0,0c0-0.1-0.1-0.1-0.1-0.2
			c-0.4-0.5-0.8-0.9-1.2-1.3c-0.2-0.2-0.3-0.3-0.5-0.4c-0.2-0.2-0.4-0.4-0.7-0.6c-0.2-0.2-0.5-0.3-0.7-0.4c-0.2-0.1-0.3-0.2-0.5-0.3
			c-0.3-0.1-0.5-0.2-0.8-0.3l-20.4,11.9c0.4,0.2,0.9,0.4,1.3,0.6c0.5,0.3,0.9,0.6,1.4,1c0.2,0.1,0.3,0.3,0.5,0.4
			c0.4,0.4,0.9,0.9,1.2,1.4c0,0.1,0.1,0.1,0.1,0.2c0.4,0.6,0.8,1.2,1.1,1.8c0,0,0.1,0.1,0.1,0.1c0.3,0.6,0.6,1.3,0.8,2
			c0.1,0.5,0.2,0.9,0.3,1.4c0,0.1,0,0.1,0,0.1c0,0.3,0,0.6,0,0.9c0,0.3,0,0.6-0.1,0.9c0,0.1,0,0.3-0.1,0.4c-0.1,0.4-0.3,0.8-0.5,1.1
			c-0.3,0.5-0.7,0.8-1.1,1.1l0,0c0,0,0,0,0,0l20.4-11.9c0.4-0.3,0.8-0.6,1.1-1.1c0.2-0.3,0.3-0.7,0.5-1.1c0-0.1,0-0.3,0.1-0.4
			C153,83.9,153,83.6,153,83.3z"/>
		<g>
			<path class="st3" d="M132.3,92.8c0.5,1.9,0.4,3.6-0.3,4.8c-0.6,1-1.6,1.5-2.8,1.5c1.4,3.3,1.4,6.4-0.2,7.6c-1,0.7-2.4,0.6-4-0.3
				c-1.5-0.9-3-2.4-4.2-4.3l-0.5-0.8l-0.5,0.3c-1.2,0.5-2.7,0.3-4.2-0.6c-1.6-0.9-3-2.4-4-4.3c-1.6-3.1-1.6-6.2-0.2-7.9
				c-1.2-1.4-2.2-3-2.8-4.7c-0.7-2-0.8-3.8-0.3-5.1c0.8-1.9,2.9-2.2,5.2-0.8c0.5,0.3,0.9,0.6,1.4,1c0.4-3.2,2.7-4.6,5.4-3
				c2.8,1.6,5,5.6,5.4,9.2c0.4,0.2,0.9,0.4,1.3,0.6C129.4,87.3,131.5,90,132.3,92.8z M130.2,95.5c0.5-0.7,0.5-1.8,0.2-2.9
				c-0.5-1.7-1.8-3.4-3.4-4.3c-0.6-0.3-1.1-0.5-1.7-0.6l-1.8-0.1l0.2-1.9l0-0.5c0-2.6-1.5-5.6-3.4-6.7c-1.9-1.1-3.4,0.1-3.5,2.7
				l0,0.5l0.2,2.1l-1.6-1.8l-0.2-0.2c-0.6-0.6-1.1-1-1.7-1.4c-1.6-0.9-2.9-0.7-3.4,0.4c-0.3,0.8-0.3,1.9,0.2,3.2
				c0.5,1.3,1.3,2.7,2.4,3.7c0.2,0.2,0.4,0.4,0.6,0.5l1.8,1.5l-1.3,0.7c-1.6,0.8-1.9,3.2-0.7,5.5c0.6,1.1,1.5,2,2.4,2.6
				c1,0.6,2.1,0.8,2.9,0.4c0.4-0.2,0.7-0.4,1-0.8l0.9-1.2l0.9,2.2c0.2,0.6,0.6,1.3,1,1.9c0.8,1.3,1.9,2.4,2.9,2.9
				c1,0.5,1.9,0.7,2.4,0.3c1.2-0.9,0.9-3.7-0.6-6.3l-1.3-2.2l1.8,0.5c0.2,0.1,0.4,0.1,0.6,0.1C128.8,96.6,129.7,96.3,130.2,95.5
				L130.2,95.5z"/>
		</g>
		<g>
			<polygon class="st16" points="175.8,129.5 196.3,117.7 177,140.8 156.6,152.7 			"/>
		</g>
		<g>
			<polygon class="st2" points="143.1,87.8 163.5,75.9 176.9,83.6 156.5,95.5 			"/>
		</g>
		<g>
			<polygon class="st0" points="156.5,95.5 176.9,83.6 176.8,117.8 156.4,129.7 			"/>
		</g>
		<g>
			<polygon class="st0" points="189.3,114.5 209.7,102.6 209.6,159.6 189.2,171.5 			"/>
		</g>
		<g>
			<polygon class="st3" points="189.3,114.5 189.2,171.5 175.7,163.8 175.8,129.5 156.6,152.7 142.9,144.8 143.1,87.8 156.5,95.5 
				156.4,129.7 175.6,106.5 			"/>
		</g>
		<g>
			<polygon class="st2" points="175.6,106.5 196,94.7 209.7,102.6 189.3,114.5 			"/>
		</g>
		<g>
			<polygon class="st0" points="219.1,145.3 239.5,133.5 239.4,176.8 218.9,188.7 			"/>
		</g>
		<g>
			<polygon class="st0" points="271.4,224.7 291.8,212.8 291.8,222.1 271.4,234 			"/>
		</g>
		<g>
			<path class="st3" d="M69.9,108.4l201.5,116.3l0,9.3L69.8,117.6c-1-0.6-4.6-2.7-5.6-3.4c-3-2-6.3-4.5-9.1-7
				c-0.9-0.8-3.3-3.3-5-5.3C40.6,90.4,34,75,34.1,61.6c0.1-19.4,13.8-27.2,30.7-17.5c16.8,9.7,30.4,33.2,30.5,52.5l-8.1-4.7
				C87,77.7,77,60.5,64.8,53.4C52.4,46.3,42.2,52,42.2,66.3c0,10.4,5.3,22.4,13,31c0.4,0.5,2.2,2.2,2.6,2.6c2.2,2,5,4.1,7.4,5.7
				C65.9,106,69.2,107.9,69.9,108.4z"/>
		</g>
		<g>
			<polygon class="st3" points="230,138 230,151.7 219.1,145.3 218.9,188.7 205,180.7 205.2,137.3 194.2,131 194.3,117.3 			"/>
		</g>
		<g>
			<polygon class="st2" points="194.3,117.3 214.7,105.5 250.5,126.1 230,138 			"/>
		</g>
		<g>
			<polygon class="st0" points="230,138 250.5,126.1 250.4,139.8 230,151.7 			"/>
		</g>
		<g class="st1">
			<linearGradient id="SVGID_10_" gradientUnits="userSpaceOnUse" x1="251.7691" y1="158.203" x2="286.0684" y2="211.3428">
				<stop  offset="0" style="stop-color:#630E13"/>
				<stop  offset="0.1935" style="stop-color:#6C0E14"/>
				<stop  offset="0.5142" style="stop-color:#860F15"/>
				<stop  offset="0.6448" style="stop-color:#921016"/>
				<stop  offset="0.9944" style="stop-color:#740D11"/>
			</linearGradient>
			<path class="st17" d="M291.9,188.3c-0.4,0.2-0.8,0.4-1.2,0.6c-0.6,0.2-1.2,0.4-1.8,0.6c-0.2,0-0.3,0.1-0.5,0.1
				c-0.4,0.1-0.8,0.1-1.2,0.1c-0.3,0-0.6,0-0.9,0c-0.4,0-0.9-0.1-1.4-0.2c-0.4-0.1-0.9-0.2-1.3-0.3c-0.1,0-0.2,0-0.3-0.1
				c-0.6-0.2-1.2-0.4-1.8-0.7c-0.5-0.2-0.9-0.4-1.4-0.7c-0.8-0.4-1.5-1-2.2-1.5c-0.6-0.4-1.1-0.9-1.6-1.3c-0.4-0.3-0.7-0.6-1.1-1
				c-0.5-0.5-1-1.1-1.5-1.7c-0.3-0.3-0.6-0.7-0.9-1c-0.2-0.3-0.4-0.6-0.6-0.9c-0.5-0.7-1-1.5-1.4-2.2c-0.6-1-1-2-1.4-3.1
				c0-0.1-0.1-0.1-0.1-0.2c-0.4-0.9-0.7-1.9-0.9-2.9c-0.1-0.2-0.1-0.4-0.2-0.6c-0.2-1-0.4-1.9-0.6-2.9c0-0.4,0-0.8-0.1-1.1
				c-0.1-0.8-0.1-1.5-0.1-2.3c0-0.7,0.1-1.3,0.1-1.9c0-0.5,0-1,0.1-1.4c0.1-0.6,0.3-1.1,0.4-1.7c0.1-0.3,0.1-0.7,0.3-1
				c0.2-0.6,0.5-1,0.7-1.5c0.1-0.2,0.2-0.5,0.4-0.7c0.4-0.6,1-1.1,1.6-1.6c0.2-0.1,0.4-0.2,0.5-0.4l-20.4,11.9
				c-0.2,0.1-0.4,0.2-0.5,0.4c-0.6,0.4-1.1,1-1.6,1.6c-0.1,0.2-0.2,0.5-0.4,0.7c-0.3,0.5-0.6,0.9-0.7,1.5c-0.1,0.3-0.2,0.7-0.3,1
				c-0.1,0.5-0.3,1.1-0.4,1.7c-0.1,0.5-0.1,1-0.1,1.5c0,0.6-0.1,1.1-0.1,1.8c0,0,0,0,0,0c0,0.1,0,0.3,0,0.4c0,0.6,0.1,1.3,0.1,1.9
				c0,0.4,0,0.8,0.1,1.1c0,0,0,0.1,0,0.1c0.1,0.8,0.2,1.5,0.4,2.3c0,0.2,0.1,0.3,0.1,0.5c0,0.2,0.1,0.4,0.2,0.6
				c0.1,0.3,0.1,0.6,0.2,0.9c0.2,0.6,0.4,1.3,0.7,1.9c0,0,0,0,0,0.1c0,0.1,0.1,0.1,0.1,0.2c0.2,0.6,0.5,1.2,0.8,1.7
				c0.2,0.4,0.4,0.9,0.7,1.3c0.2,0.3,0.3,0.6,0.5,0.9c0.3,0.5,0.6,0.9,0.9,1.4c0.2,0.3,0.4,0.6,0.6,0.9c0.1,0.1,0.1,0.2,0.2,0.2
				c0.2,0.3,0.5,0.5,0.7,0.8c0.5,0.6,1,1.2,1.5,1.7c0.3,0.3,0.7,0.6,1.1,1c0.5,0.5,1.1,0.9,1.6,1.3c0.2,0.1,0.3,0.3,0.4,0.4
				c0.6,0.4,1.2,0.8,1.8,1.1c0.4,0.2,0.8,0.5,1.2,0.7c0.1,0,0.1,0,0.1,0.1c0.6,0.3,1.2,0.5,1.8,0.7c0,0,0,0,0,0h0
				c0.1,0,0.2,0,0.3,0.1c0.4,0.1,0.9,0.2,1.3,0.3c0,0,0.1,0,0.1,0c0.4,0.1,0.8,0.1,1.2,0.1c0.2,0,0.4,0,0.6,0c0.3,0,0.5-0.1,0.8-0.1
				c0.2,0,0.5,0,0.7-0.1c0.1,0,0.3,0,0.4,0c0.1,0,0.2-0.1,0.4-0.1c0.6-0.1,1.1-0.3,1.7-0.5c0,0,0,0,0.1,0l0.1-0.1
				c0.3-0.1,0.7-0.3,1-0.5L291.9,188.3z"/>
			<path class="st8" d="M270.4,200.7l20.4-11.9c0.4-0.2,0.7-0.3,1.1-0.5l-20.4,11.9C271.1,200.4,270.7,200.6,270.4,200.7
				L270.4,200.7z"/>
		</g>
		<g>
			<polygon class="st0" points="271.5,200.2 291.9,188.3 291.8,204.5 271.4,216.4 			"/>
		</g>
		<g class="st1">
			<linearGradient id="SVGID_11_" gradientUnits="userSpaceOnUse" x1="250.7285" y1="139.101" x2="300.9698" y2="176.782">
				<stop  offset="0" style="stop-color:#7D0E13"/>
				<stop  offset="0.2509" style="stop-color:#860F14"/>
				<stop  offset="0.4583" style="stop-color:#921016"/>
				<stop  offset="0.9944" style="stop-color:#740D11"/>
			</linearGradient>
			<path class="st18" d="M271.6,164.9L292,153c-0.1-0.1-0.1-0.2-0.2-0.2l0,0c-0.6-0.8-1.2-1.5-1.8-2.2c-0.3-0.4-0.6-0.8-1-1.2
				c-1-1.1-2.1-2.2-3.2-3.3c-1-1-2.1-1.8-3.2-2.7c-0.2-0.2-0.4-0.3-0.7-0.5c-0.2-0.1-0.4-0.3-0.6-0.4c-1-0.7-1.9-1.3-2.9-1.9
				c-0.9-0.5-1.7-1-2.6-1.4c0,0,0,0,0,0c0,0-0.1,0-0.1-0.1c-0.7-0.3-1.4-0.6-2.1-0.9c-0.2-0.1-0.4-0.2-0.7-0.2
				c-0.3-0.1-0.5-0.2-0.8-0.3c-0.2-0.1-0.3-0.1-0.5-0.1c-0.6-0.2-1.2-0.3-1.8-0.4c-0.2,0-0.4-0.1-0.6-0.1c-0.1,0-0.2,0-0.3,0
				c-0.6-0.1-1.2-0.1-1.7-0.1c-0.2,0-0.4,0-0.6,0c0,0-0.1,0-0.1,0c-0.8,0-1.6,0.1-2.3,0.2c0,0,0,0-0.1,0c-0.1,0-0.2,0.1-0.3,0.1
				c-0.7,0.1-1.4,0.4-2,0.6c-0.1,0-0.2,0.1-0.3,0.1c-0.4,0.2-0.7,0.3-1.1,0.5c-0.1,0-0.2,0.1-0.3,0.1l-20.4,11.9
				c0.1,0,0.2-0.1,0.3-0.1c0.5-0.3,0.9-0.4,1.4-0.6c0.7-0.3,1.3-0.5,2-0.6c0.1,0,0.2-0.1,0.3-0.1c0.7-0.1,1.5-0.2,2.3-0.2
				c0.2,0,0.5,0,0.7,0c0.6,0,1.1,0.1,1.7,0.1c0.3,0,0.6,0.1,0.9,0.2c0.6,0.1,1.2,0.3,1.8,0.4c0.4,0.1,0.8,0.2,1.3,0.4
				c0.2,0.1,0.4,0.2,0.7,0.2c0.7,0.3,1.4,0.6,2.1,0.9c0,0,0.1,0,0.1,0.1c0.8,0.4,1.7,0.9,2.6,1.4c1.2,0.7,2.4,1.5,3.5,2.3
				c0.2,0.2,0.4,0.3,0.7,0.5c1.1,0.8,2.2,1.7,3.2,2.7c1.1,1.1,2.2,2.2,3.2,3.3c0.3,0.4,0.6,0.8,1,1.2
				C270.2,163.2,270.9,164,271.6,164.9z"/>
			<path class="st4" d="M271.4,164.6l20.4-11.9c0.1,0.1,0.1,0.2,0.2,0.2l-20.4,11.9C271.5,164.8,271.4,164.7,271.4,164.6
				L271.4,164.6z"/>
		</g>
		<g>
			<path class="st3" d="M258,152.5c2.6,1.5,5.1,3.3,7.4,5.5c2.3,2.1,4.4,4.5,6.2,6.9l0,16.5c-1.6-3.1-3.5-5.9-5.5-8.2
				c-2-2.4-4.1-4.2-6.3-5.4c-3.8-2.2-6.9-2.4-9.2-0.7c-2.4,1.7-3.5,5-3.5,9.7c0,4.4,1.1,8.8,3.4,13s5.4,7.5,9.3,9.7
				c2.1,1.2,4.2,1.9,6.2,2c2,0.1,3.9-0.4,5.6-1.4l0,16.2c-1.9,0.4-3.9,0.3-6.1-0.3c-2.2-0.6-4.6-1.7-7.3-3.2
				c-7.5-4.3-13.6-10.6-18.3-18.8c-4.7-8.3-7.1-16.9-7-26c0-9.2,2.5-15.1,7.3-17.8C244.9,147.7,250.9,148.4,258,152.5z"/>
		</g>
		<g>
			<polygon class="st0" points="271.6,164.9 292,153 291.9,169.6 271.5,181.4 			"/>
		</g>
	</g>
</g>
</svg>
