<svg xmlns="http://www.w3.org/2000/svg" xmlns:xlink="http://www.w3.org/1999/xlink" viewBox="0 0 273.94 236.46"><defs><style>.cls-1{mask:url(#mask);filter:url(#luminosity-noclip-2);}.cls-2,.cls-4{mix-blend-mode:multiply;}.cls-2{fill:url(#Безымянный_градиент_57);}.cls-3{isolation:isolate;}.cls-4{fill:#e0e0d9;}.cls-5{fill:url(#Безымянный_градиент_113);}.cls-6{fill:url(#Безымянный_градиент_236);}.cls-7{fill:url(#Безымянный_градиент_120);}.cls-8{fill:url(#Безымянный_градиент_116);}.cls-9{fill:url(#Безымянный_градиент_120-2);}.cls-10{fill:url(#GradientFill_121);}.cls-11{fill:url(#GradientFill_121-2);}.cls-12{fill:#7e8181;}.cls-13{fill:url(#Безымянный_градиент_301);}.cls-14{fill:url(#Безымянный_градиент_113-2);}.cls-15{fill:#fff;opacity:0.5;}.cls-16{fill:#e4e4e3;}.cls-17{fill:url(#Безымянный_градиент_284);}.cls-18{fill:url(#Безымянный_градиент_116-2);}.cls-19{mask:url(#mask-2);}.cls-20{opacity:0.3;mix-blend-mode:screen;fill:url(#Безымянный_градиент_305);}.cls-21{filter:url(#luminosity-noclip);}</style><filter id="luminosity-noclip" x="83.02" y="-8574.64" width="99.09" height="32766" filterUnits="userSpaceOnUse" color-interpolation-filters="sRGB"><feFlood flood-color="#fff" result="bg"/><feBlend in="SourceGraphic" in2="bg"/></filter><mask id="mask" x="83.02" y="-8574.64" width="99.09" height="32766" maskUnits="userSpaceOnUse"><g class="cls-21"/></mask><linearGradient id="Безымянный_градиент_57" x1="-5832.15" y1="14.82" x2="-5899.5" y2="94.95" gradientTransform="matrix(-1, 0, 0, 1, -5755.08, 0)" gradientUnits="userSpaceOnUse"><stop offset="0" stop-color="#fff"/><stop offset="0.29" stop-color="#fff"/><stop offset="0.65" stop-color="#fff"/><stop offset="1" stop-color="#fff"/></linearGradient><linearGradient id="Безымянный_градиент_113" x1="1621.22" y1="92.52" x2="1756.11" y2="92.52" gradientTransform="matrix(-1, 0, 0, 1, 1839.98, 0)" gradientUnits="userSpaceOnUse"><stop offset="0" stop-color="#f5f6f6"/><stop offset="0.69" stop-color="#f7f8f8"/><stop offset="0.98" stop-color="#fefefe"/><stop offset="1" stop-color="#fff"/></linearGradient><linearGradient id="Безымянный_градиент_236" x1="1623.02" y1="91.8" x2="1754.15" y2="91.8" gradientTransform="matrix(-1, 0, 0, 1, 1839.98, 0)" gradientUnits="userSpaceOnUse"><stop offset="0" stop-color="#05a2a7"/><stop offset="1" stop-color="#0b7c7b"/></linearGradient><linearGradient id="Безымянный_градиент_120" x1="-9480.89" y1="40.04" x2="-9342.77" y2="40.04" gradientTransform="translate(9564.76)" gradientUnits="userSpaceOnUse"><stop offset="0" stop-color="#fdfeff"/><stop offset="1" stop-color="#fff"/></linearGradient><linearGradient id="Безымянный_градиент_116" x1="-9564.76" y1="195.32" x2="-9429.86" y2="195.32" gradientTransform="translate(9564.76)" gradientUnits="userSpaceOnUse"><stop offset="0" stop-color="#dfdfde"/><stop offset="0.44" stop-color="#d4d4d4"/><stop offset="1" stop-color="#b5b5b5"/></linearGradient><linearGradient id="Безымянный_градиент_120-2" x1="-9564.76" y1="169.24" x2="-9346.25" y2="169.24" xlink:href="#Безымянный_градиент_120"/><linearGradient id="GradientFill_121" x1="-792.85" y1="210.37" x2="-702.5" y2="210.37" gradientTransform="matrix(-1, 0, 0, 1, -567.61, 0)" gradientUnits="userSpaceOnUse"><stop offset="0" stop-color="#a8a6a6"/><stop offset="0.52" stop-color="#a3a1a1"/><stop offset="1" stop-color="#989898"/></linearGradient><linearGradient id="GradientFill_121-2" x1="-789.6" y1="130.83" x2="-786.38" y2="130.83" xlink:href="#GradientFill_121"/><linearGradient id="Безымянный_градиент_301" x1="-770.2" y1="159.42" x2="-612.68" y2="159.42" gradientTransform="matrix(-1, 0, 0, 1, -567.61, 0)" gradientUnits="userSpaceOnUse"><stop offset="0" stop-color="#8e9191"/><stop offset="1" stop-color="#afb4b3"/></linearGradient><linearGradient id="Безымянный_градиент_113-2" x1="-9505.94" y1="181.2" x2="-9450.71" y2="181.2" gradientTransform="translate(9564.76)" xlink:href="#Безымянный_градиент_113"/><linearGradient id="Безымянный_градиент_284" x1="-9415.22" y1="146.38" x2="-9413.04" y2="142.48" gradientTransform="translate(9564.76)" gradientUnits="userSpaceOnUse"><stop offset="0" stop-color="#d3d3d3"/><stop offset="0.52" stop-color="#ebebeb"/><stop offset="1" stop-color="#c3c3c3"/></linearGradient><linearGradient id="Безымянный_градиент_116-2" x1="-152.66" y1="2661.47" x2="-150.12" y2="2661.47" gradientTransform="matrix(0, -0.93, -0.96, 0, 2779.58, 42.52)" xlink:href="#Безымянный_градиент_116"/><filter id="luminosity-noclip-2" x="83.02" y="3.41" width="113.81" height="119.13" filterUnits="userSpaceOnUse" color-interpolation-filters="sRGB"><feFlood flood-color="#fff" result="bg"/><feBlend in="SourceGraphic" in2="bg"/></filter><mask id="mask-2" x="83.02" y="3.41" width="113.81" height="119.13" maskUnits="userSpaceOnUse"><g class="cls-1"><polygon class="cls-2" points="182.1 60.62 120.19 122.54 83.04 101.09 83.02 3.41 182.1 60.62"/></g></mask><linearGradient id="Безымянный_градиент_305" x1="-5836.61" y1="15.07" x2="-5954.58" y2="155.43" gradientTransform="matrix(-1, 0, 0, 1, -5755.08, 0)" gradientUnits="userSpaceOnUse"><stop offset="0" stop-color="#010101"/><stop offset="0.29" stop-color="#090910"/><stop offset="0.65" stop-color="#1c164c"/><stop offset="1" stop-color="#3f9aa4"/></linearGradient></defs><title>laptop</title><g class="cls-3"><g id="Layer_2" data-name="Layer 2"><g id="Layer_1-2" data-name="Layer 1"><path class="cls-4" d="M272.25,193l-50.26.74-72.68,42.75-14.38,0L10.31,164.29l90.79-54.21L179.42,127l93.76,62.84A1.71,1.71,0,0,1,272.25,193Z"/><g id="_14" data-name="14"><polygon class="cls-5" points="218.76 80.08 83.87 1.6 83.87 105.05 218.76 183.44 218.76 80.08"/><polygon class="cls-6" points="216.96 81.15 85.83 4.71 85.83 102.69 216.82 178.9 216.96 81.15"/><polygon class="cls-7" points="221.99 78.23 86.77 0 83.87 1.6 218.76 80.08 221.99 78.23"/><polygon class="cls-8" points="134.89 232.57 0 154.18 0.01 158.07 134.9 236.46 134.89 232.57"/><polygon class="cls-9" points="218.51 184.29 83.62 105.9 0 154.18 134.89 232.57 218.51 184.29"/><polygon class="cls-10" points="218.51 184.29 218.51 188.19 134.9 236.46 134.89 232.57 218.51 184.29"/><polygon class="cls-11" points="218.76 183.44 218.76 80.08 221.99 78.23 221.99 181.53 218.76 183.44"/><path class="cls-12" d="M65.23,148.29l41,23.68a2.13,2.13,0,0,0,1.93,0l4.61-2.66a.59.59,0,0,0,0-1.11l-41-23.68a2.13,2.13,0,0,0-1.93,0l-4.61,2.66A.59.59,0,0,0,65.23,148.29Zm94.2,16.2,4.61-2.66a2.13,2.13,0,0,1,1.93,0l5.48,3.17a.59.59,0,0,1,0,1.11l-4.61,2.66a2.13,2.13,0,0,1-1.93,0l-5.48-3.17A.59.59,0,0,1,159.42,164.49Zm-8.86-4,5.48,3.17a2.13,2.13,0,0,0,1.93,0L162.6,161a.59.59,0,0,0,0-1.11l-5.48-3.17a2.13,2.13,0,0,0-1.93,0l-4.61,2.66A.59.59,0,0,0,150.57,160.49Zm-8.86-5.11,5.48,3.17a2.13,2.13,0,0,0,1.93,0l4.61-2.66a.59.59,0,0,0,0-1.11l-5.48-3.17a2.13,2.13,0,0,0-1.93,0l-4.61,2.66A.59.59,0,0,0,141.71,155.38Zm-8.86-5.11,5.48,3.17a2.13,2.13,0,0,0,1.93,0l4.61-2.66a.59.59,0,0,0,0-1.11l-5.48-3.17a2.13,2.13,0,0,0-1.93,0l-4.61,2.66A.59.59,0,0,0,132.86,150.27ZM124,145.15l5.48,3.17a2.13,2.13,0,0,0,1.93,0l4.61-2.66a.59.59,0,0,0,0-1.11l-5.48-3.17a2.13,2.13,0,0,0-1.93,0L124,144A.59.59,0,0,0,124,145.15ZM115.15,140l5.48,3.17a2.13,2.13,0,0,0,1.93,0l4.61-2.66a.59.59,0,0,0,0-1.11l-5.48-3.17a2.13,2.13,0,0,0-1.93,0l-4.61,2.66A.59.59,0,0,0,115.15,140Zm-8.86-5.11,5.48,3.17a2.13,2.13,0,0,0,1.93,0l4.61-2.66a.59.59,0,0,0,0-1.11l-5.48-3.17a2.13,2.13,0,0,0-1.93,0l-4.61,2.66A.59.59,0,0,0,106.29,134.93Zm-8.86-5.11,5.48,3.17a2.13,2.13,0,0,0,1.93,0l4.61-2.66a.59.59,0,0,0,0-1.11L104,126a2.13,2.13,0,0,0-1.93,0l-4.61,2.66A.59.59,0,0,0,97.44,129.82Zm-8.86-5.11,5.48,3.17a2.13,2.13,0,0,0,1.93,0l4.61-2.66a.59.59,0,0,0,0-1.11l-5.48-3.17a2.13,2.13,0,0,0-1.93,0l-4.61,2.66A.59.59,0,0,0,88.58,124.7Zm-11.71-6.76,8.34,4.81a2.13,2.13,0,0,0,1.93,0l4.61-2.66a.59.59,0,0,0,0-1.11l-8.34-4.81a2.13,2.13,0,0,0-1.93,0l-4.61,2.66A.59.59,0,0,0,76.87,117.94Zm89.8,80.33,5.48,3.17a2.13,2.13,0,0,0,1.93,0l4.61-2.66a.59.59,0,0,0,0-1.11l-5.48-3.17a2.13,2.13,0,0,0-1.93,0l-4.61,2.66A.59.59,0,0,0,166.67,198.28Zm-8.86-5.11,5.48,3.17a2.13,2.13,0,0,0,1.93,0l4.61-2.66a.59.59,0,0,0,0-1.11l-5.48-3.17a2.13,2.13,0,0,0-1.93,0l-4.61,2.66A.59.59,0,0,0,157.81,193.17ZM149,188.05l5.48,3.17a2.13,2.13,0,0,0,1.93,0l4.61-2.66a.59.59,0,0,0,0-1.11l-5.48-3.17a2.13,2.13,0,0,0-1.93,0L149,186.94A.59.59,0,0,0,149,188.05Zm9.62,14.9,5.48,3.17a2.13,2.13,0,0,0,1.93,0l4.61-2.66a.59.59,0,0,0,0-1.11l-5.48-3.17a2.13,2.13,0,0,0-1.93,0l-4.61,2.66A.59.59,0,0,0,158.57,203Zm-8.86-5.11L155.2,201a2.13,2.13,0,0,0,1.93,0l4.61-2.66a.59.59,0,0,0,0-1.11l-5.48-3.17a2.13,2.13,0,0,0-1.93,0l-4.61,2.66A.59.59,0,0,0,149.72,197.84Zm-8.86-5.11,5.48,3.17a2.13,2.13,0,0,0,1.93,0l4.61-2.66a.59.59,0,0,0,0-1.11l-5.48-3.17a2.13,2.13,0,0,0-1.93,0l-4.61,2.66A.59.59,0,0,0,140.86,192.73Zm7.46-24.15,8.34,4.81a2.13,2.13,0,0,0,1.93,0l4.61-2.66a.59.59,0,0,0,0-1.11l-8.34-4.81a2.13,2.13,0,0,0-1.93,0l-4.61,2.66A.59.59,0,0,0,148.32,168.58Zm-8.86-5.11,5.48,3.17a2.13,2.13,0,0,0,1.93,0l4.61-2.66a.59.59,0,0,0,0-1.11L146,159.69a2.13,2.13,0,0,0-1.93,0l-4.61,2.66A.59.59,0,0,0,139.47,163.47Zm-8.86-5.11,5.48,3.17a2.13,2.13,0,0,0,1.93,0l4.61-2.66a.59.59,0,0,0,0-1.11l-5.48-3.17a2.13,2.13,0,0,0-1.93,0l-4.61,2.66A.59.59,0,0,0,130.61,158.36Zm-8.86-5.11,5.48,3.17a2.13,2.13,0,0,0,1.93,0l4.61-2.66a.59.59,0,0,0,0-1.11l-5.48-3.17a2.13,2.13,0,0,0-1.93,0l-4.61,2.66A.59.59,0,0,0,121.76,153.24Zm-8.86-5.11,5.48,3.17a2.13,2.13,0,0,0,1.93,0l4.61-2.66a.59.59,0,0,0,0-1.11l-5.48-3.17a2.13,2.13,0,0,0-1.93,0L112.9,147A.59.59,0,0,0,112.9,148.13ZM104,143l5.48,3.17a2.13,2.13,0,0,0,1.93,0l4.61-2.66a.59.59,0,0,0,0-1.11l-5.48-3.17a2.13,2.13,0,0,0-1.93,0L104,141.9A.59.59,0,0,0,104,143Zm-8.86-5.11,5.48,3.17a2.13,2.13,0,0,0,1.93,0l4.61-2.66a.59.59,0,0,0,0-1.11l-5.48-3.17a2.13,2.13,0,0,0-1.93,0l-4.61,2.66A.59.59,0,0,0,95.19,137.91Zm-8.86-5.11L91.82,136a2.13,2.13,0,0,0,1.93,0l4.61-2.66a.59.59,0,0,0,0-1.11L92.88,129a2.13,2.13,0,0,0-1.93,0l-4.61,2.66A.59.59,0,0,0,86.34,132.79Zm-8.86-5.11L83,130.85a2.13,2.13,0,0,0,1.93,0l4.61-2.66a.59.59,0,0,0,0-1.11L84,123.9a2.13,2.13,0,0,0-1.93,0l-4.61,2.66A.59.59,0,0,0,77.48,127.68Zm-8.86-5.11,5.48,3.17a2.13,2.13,0,0,0,1.93,0l4.61-2.66a.59.59,0,0,0,0-1.11l-5.48-3.17a2.13,2.13,0,0,0-1.93,0l-4.61,2.66A.59.59,0,0,0,68.63,122.57Zm74.71,52.33,5.48,3.17a2.13,2.13,0,0,0,1.93,0l4.61-2.66a.59.59,0,0,0,0-1.11l-5.48-3.17a2.13,2.13,0,0,0-1.93,0l-4.61,2.66A.59.59,0,0,0,143.33,174.9Zm-8.86-5.11,5.48,3.17a2.13,2.13,0,0,0,1.93,0l4.61-2.66a.59.59,0,0,0,0-1.11L141,166a2.13,2.13,0,0,0-1.93,0l-4.61,2.66A.59.59,0,0,0,134.48,169.78Zm-8.86-5.11,5.48,3.17a2.13,2.13,0,0,0,1.93,0l4.61-2.66a.59.59,0,0,0,0-1.11l-5.48-3.17a2.13,2.13,0,0,0-1.93,0l-4.61,2.66A.59.59,0,0,0,125.62,164.67Zm-8.86-5.11,5.48,3.17a2.13,2.13,0,0,0,1.93,0l4.61-2.66a.59.59,0,0,0,0-1.11l-5.48-3.17a2.13,2.13,0,0,0-1.93,0l-4.61,2.66A.59.59,0,0,0,116.77,159.56Zm10.51,24.61,5.48,3.17a2.13,2.13,0,0,0,1.93,0l4.61-2.66a.59.59,0,0,0,0-1.11l-5.48-3.17a2.13,2.13,0,0,0-1.93,0l-4.61,2.66A.59.59,0,0,0,127.27,184.17Zm-8.86-5.11,5.48,3.17a2.13,2.13,0,0,0,1.93,0l4.61-2.66a.59.59,0,0,0,0-1.11L125,175.28a2.13,2.13,0,0,0-1.93,0l-4.61,2.66A.59.59,0,0,0,118.42,179.05Zm-8.86-5.11,5.48,3.17a2.13,2.13,0,0,0,1.93,0l4.61-2.66a.59.59,0,0,0,0-1.11l-5.48-3.17a2.13,2.13,0,0,0-1.93,0l-4.61,2.66A.59.59,0,0,0,109.56,173.94ZM56.38,143.18l5.48,3.17a2.13,2.13,0,0,0,1.93,0l4.61-2.66a.59.59,0,0,0,0-1.11l-5.48-3.17a2.13,2.13,0,0,0-1.93,0l-4.61,2.66A.59.59,0,0,0,56.38,143.18Zm-11.6-6.65,8.34,4.82a2.13,2.13,0,0,0,1.93,0l4.61-2.66a.59.59,0,0,0,0-1.11l-8.34-4.82a2.13,2.13,0,0,0-1.93,0l-4.61,2.66A.59.59,0,0,0,44.78,136.54Zm63.14,17.91,5.48,3.17a2.13,2.13,0,0,0,1.93,0l4.61-2.66a.59.59,0,0,0,0-1.11l-5.48-3.17a2.13,2.13,0,0,0-1.93,0l-4.61,2.66A.59.59,0,0,0,107.91,154.44Zm-8.86-5.11,5.48,3.17a2.13,2.13,0,0,0,1.93,0l4.61-2.66a.59.59,0,0,0,0-1.11l-5.48-3.17a2.13,2.13,0,0,0-1.93,0l-4.61,2.66A.59.59,0,0,0,99.06,149.33Zm-8.86-5.11,5.48,3.17a2.13,2.13,0,0,0,1.93,0l4.61-2.66a.59.59,0,0,0,0-1.11l-5.48-3.17a2.13,2.13,0,0,0-1.93,0l-4.61,2.66A.59.59,0,0,0,90.2,144.22Zm-8.86-5.11,5.48,3.17a2.13,2.13,0,0,0,1.93,0l4.61-2.66a.59.59,0,0,0,0-1.11l-5.48-3.17a2.13,2.13,0,0,0-1.93,0L81.35,138A.59.59,0,0,0,81.35,139.11ZM72.49,134,78,137.16a2.13,2.13,0,0,0,1.93,0l4.61-2.66a.59.59,0,0,0,0-1.11L79,130.22a2.13,2.13,0,0,0-1.93,0l-4.61,2.66A.59.59,0,0,0,72.49,134Zm-11.71-6.76L69.12,132a2.13,2.13,0,0,0,1.93,0l4.61-2.66a.59.59,0,0,0,0-1.11l-8.34-4.81a2.13,2.13,0,0,0-1.93,0l-4.61,2.66A.59.59,0,0,0,60.78,127.23Zm71.45,50.64,8.34,4.81a2.13,2.13,0,0,0,1.93,0l4.61-2.66a.59.59,0,0,0,0-1.11l-8.34-4.81a2.13,2.13,0,0,0-1.93,0l-4.61,2.66A.59.59,0,0,0,132.23,177.87Zm-8.86-5.11,5.48,3.17a2.13,2.13,0,0,0,1.93,0l4.61-2.66a.59.59,0,0,0,0-1.11L129.92,169a2.13,2.13,0,0,0-1.93,0l-4.61,2.66A.59.59,0,0,0,123.38,172.76Zm-8.86-5.11,5.48,3.17a2.13,2.13,0,0,0,1.93,0l4.61-2.66a.59.59,0,0,0,0-1.11l-5.48-3.17a2.13,2.13,0,0,0-1.93,0l-4.61,2.66A.59.59,0,0,0,114.52,167.65Zm-8.86-5.11,5.48,3.17a2.13,2.13,0,0,0,1.93,0l4.61-2.66a.59.59,0,0,0,0-1.11l-5.48-3.17a2.13,2.13,0,0,0-1.93,0l-4.61,2.66A.59.59,0,0,0,105.67,162.53Zm-8.86-5.11,5.48,3.17a2.13,2.13,0,0,0,1.93,0l4.61-2.66a.59.59,0,0,0,0-1.11l-5.48-3.17a2.13,2.13,0,0,0-1.93,0l-4.61,2.66A.59.59,0,0,0,96.81,157.42ZM88,152.31l5.48,3.17a2.13,2.13,0,0,0,1.93,0l4.61-2.66a.59.59,0,0,0,0-1.11l-5.48-3.17a2.13,2.13,0,0,0-1.93,0L88,151.19A.59.59,0,0,0,88,152.31ZM79.1,147.2l5.48,3.17a2.13,2.13,0,0,0,1.93,0l4.61-2.66a.59.59,0,0,0,0-1.11l-5.48-3.17a2.13,2.13,0,0,0-1.93,0l-4.61,2.66A.59.59,0,0,0,79.1,147.2Zm-8.86-5.11,5.48,3.17a2.13,2.13,0,0,0,1.93,0l4.61-2.66a.59.59,0,0,0,0-1.11l-5.48-3.17a2.13,2.13,0,0,0-1.93,0L70.24,141A.59.59,0,0,0,70.24,142.08ZM61.39,137l5.48,3.17a2.13,2.13,0,0,0,1.93,0l4.61-2.66a.59.59,0,0,0,0-1.11l-5.48-3.17a2.13,2.13,0,0,0-1.93,0l-4.61,2.66A.59.59,0,0,0,61.39,137Zm-8.86-5.11L58,135a2.13,2.13,0,0,0,1.93,0l4.61-2.66a.59.59,0,0,0,0-1.11l-5.48-3.17a2.13,2.13,0,0,0-1.93,0l-4.61,2.66A.59.59,0,0,0,52.53,131.86Zm138.37,52.43,5.48,3.17a2.13,2.13,0,0,0,1.93,0l4.61-2.66a.59.59,0,0,0,0-1.11l-5.48-3.17a2.13,2.13,0,0,0-1.93,0l-4.61,2.66A.59.59,0,0,0,190.91,184.28Zm-8.86-5.11,5.48,3.17a2.13,2.13,0,0,0,1.93,0l4.61-2.66a.59.59,0,0,0,0-1.11l-5.48-3.17a2.13,2.13,0,0,0-1.93,0l-4.61,2.66A.59.59,0,0,0,182.05,179.17Zm-8.86-5.11,5.48,3.17a2.13,2.13,0,0,0,1.93,0l4.61-2.66a.59.59,0,0,0,0-1.11l-5.48-3.17a2.13,2.13,0,0,0-1.93,0l-4.61,2.66A.59.59,0,0,0,173.2,174.06Zm-8.08,4.66,5.48,3.17a2.13,2.13,0,0,0,1.93,0l4.61-2.66a.59.59,0,0,0,0-1.11l-5.48-3.17a2.13,2.13,0,0,0-1.93,0l-4.61,2.66A.59.59,0,0,0,165.12,178.72Zm-7.84,4.57,23.05,13.31a2.65,2.65,0,0,0,2.4,0l12.11-7a.73.73,0,0,0,0-1.38l-13.9-8a2.65,2.65,0,0,0-2.4,0l-6.07,3.51a1.5,1.5,0,0,1-1.35,0l-7.75-4.41a1.77,1.77,0,0,0-1.6,0l-4.51,2.6A.73.73,0,0,0,157.28,183.3Z"/><path class="cls-13" d="M106.44,170.74,65.43,147,70,144.31a1.53,1.53,0,0,1,1.34,0l41,23.77-4.62,2.67a1.53,1.53,0,0,1-1.34,0ZM133.05,186l-5.48-3.26,4.61-2.67a1.41,1.41,0,0,1,.67-.15,1.38,1.38,0,0,1,.67.16l5.48,3.26L134.39,186a1.53,1.53,0,0,1-1.34,0Zm7.81-4.65-8.34-4.91,4.62-2.67a1.53,1.53,0,0,1,1.34,0l8.34,4.91-4.62,2.67a1.53,1.53,0,0,1-1.34,0Zm-16.67-.47-5.48-3.26,4.61-2.67a1.41,1.41,0,0,1,.67-.15,1.38,1.38,0,0,1,.67.16l5.48,3.26-4.62,2.67a1.53,1.53,0,0,1-1.34,0Zm24.91-4.16-5.48-3.26,4.62-2.67a1.53,1.53,0,0,1,1.34,0l5.48,3.25-4.61,2.67a1.56,1.56,0,0,1-1.34,0Zm-33.77-1-5.48-3.26,4.61-2.67a1.41,1.41,0,0,1,.67-.15,1.38,1.38,0,0,1,.67.16l5.48,3.26-4.62,2.67a1.53,1.53,0,0,1-1.34,0Zm13.81-1.18-5.48-3.25,4.62-2.67a1.53,1.53,0,0,1,1.34,0l5.48,3.26-4.62,2.67a1.53,1.53,0,0,1-1.34,0Zm27.8-2.53-8.34-4.91,4.62-2.67a1.53,1.53,0,0,1,1.34,0l8.34,4.91-4.62,2.67a1.53,1.53,0,0,1-1.34,0Zm-16.7-.45-5.48-3.26,4.61-2.67a1.41,1.41,0,0,1,.67-.15,1.39,1.39,0,0,1,.67.16l5.48,3.25-4.62,2.67a1.53,1.53,0,0,1-1.34,0ZM62.1,145.22,56.61,142l4.61-2.67a1.41,1.41,0,0,1,.67-.15,1.38,1.38,0,0,1,.67.16l5.48,3.26-4.61,2.67a1.41,1.41,0,0,1-.67.15A1.38,1.38,0,0,1,62.1,145.22Zm58.2,24.27-5.48-3.25,4.62-2.67a1.53,1.53,0,0,1,1.34,0l5.48,3.26-4.62,2.67a1.53,1.53,0,0,1-1.34,0Zm44.9-2-5.48-3.26,4.62-2.67a1.53,1.53,0,0,1,1.34,0l5.48,3.25-4.62,2.67a1.53,1.53,0,0,1-1.34,0Zm-33.8-.93-5.48-3.26,4.61-2.67a1.41,1.41,0,0,1,.67-.15,1.38,1.38,0,0,1,.67.16l5.48,3.26-4.62,2.67a1.53,1.53,0,0,1-1.34,0Zm13.84-1.2-5.48-3.26,4.62-2.67a1.53,1.53,0,0,1,1.34,0l5.48,3.26-4.62,2.67a1.53,1.53,0,0,1-1.34,0Zm-33.8-.94L106,161.13l4.61-2.67a1.41,1.41,0,0,1,.67-.15,1.38,1.38,0,0,1,.67.16l5.48,3.25-4.62,2.67a1.53,1.53,0,0,1-1.34,0Zm44.9-2-5.48-3.26,4.61-2.67a1.41,1.41,0,0,1,.67-.15,1.38,1.38,0,0,1,.67.16l5.48,3.25-4.62,2.67a1.53,1.53,0,0,1-1.34,0Zm-33.8-.93-5.48-3.26,4.61-2.67a1.41,1.41,0,0,1,.67-.15,1.38,1.38,0,0,1,.67.16l5.48,3.26-4.62,2.67a1.53,1.53,0,0,1-1.34,0Zm13.84-1.2-5.48-3.26,4.62-2.67a1.53,1.53,0,0,1,1.34,0l5.48,3.26-4.62,2.67a1.53,1.53,0,0,1-1.34,0Zm-33.8-.94L97.1,156l4.61-2.67a1.41,1.41,0,0,1,.67-.15,1.38,1.38,0,0,1,.67.16l5.48,3.25-4.62,2.67a1.53,1.53,0,0,1-1.34,0Zm44.9-2L142,154l4.61-2.67a1.41,1.41,0,0,1,.67-.15,1.39,1.39,0,0,1,.67.16l5.48,3.26-4.62,2.67a1.53,1.53,0,0,1-1.34,0Zm-33.8-.93L108.21,153l4.61-2.67a1.41,1.41,0,0,1,.67-.15,1.38,1.38,0,0,1,.67.16l5.48,3.25L115,156.3a1.41,1.41,0,0,1-.67.15A1.38,1.38,0,0,1,113.69,156.3Zm13.84-1.2L122,151.84l4.62-2.67a1.53,1.53,0,0,1,1.34,0l5.48,3.25-4.62,2.67a1.53,1.53,0,0,1-1.34,0Zm-33.8-.94-5.48-3.26,4.61-2.67a1.41,1.41,0,0,1,.67-.15,1.38,1.38,0,0,1,.67.16l5.48,3.26-4.62,2.67a1.53,1.53,0,0,1-1.34,0Zm44.9-2-5.48-3.26,4.61-2.67a1.41,1.41,0,0,1,.67-.15,1.39,1.39,0,0,1,.67.16l5.48,3.26L140,152.12a1.53,1.53,0,0,1-1.34,0Zm-33.8-.93-5.48-3.26,4.61-2.67a1.41,1.41,0,0,1,.67-.15,1.38,1.38,0,0,1,.67.16l5.48,3.25-4.61,2.67a1.41,1.41,0,0,1-.67.15A1.38,1.38,0,0,1,104.84,151.18Zm13.84-1.2-5.48-3.26,4.61-2.67a1.41,1.41,0,0,1,.67-.15,1.38,1.38,0,0,1,.67.16l5.48,3.26L120,150a1.53,1.53,0,0,1-1.34,0ZM84.88,149l-5.48-3.25L84,143.12a1.41,1.41,0,0,1,.67-.15,1.39,1.39,0,0,1,.67.16l5.48,3.26L86.22,149a1.41,1.41,0,0,1-.67.15A1.38,1.38,0,0,1,84.88,149Zm44.9-2-5.48-3.26,4.61-2.67a1.41,1.41,0,0,1,.67-.15,1.38,1.38,0,0,1,.67.16l5.48,3.25L131.12,147a1.41,1.41,0,0,1-.67.15A1.38,1.38,0,0,1,129.78,147ZM96,146.07l-5.48-3.26,4.61-2.67a1.41,1.41,0,0,1,.67-.15,1.38,1.38,0,0,1,.67.16l5.48,3.26-4.61,2.67a1.41,1.41,0,0,1-.67.15A1.38,1.38,0,0,1,96,146.07Zm13.84-1.2-5.48-3.26,4.61-2.67a1.41,1.41,0,0,1,.67-.15,1.38,1.38,0,0,1,.67.16l5.48,3.26-4.62,2.67a1.53,1.53,0,0,1-1.34,0ZM76,143.93l-5.49-3.26L75.15,138a1.41,1.41,0,0,1,.67-.15,1.38,1.38,0,0,1,.67.16L82,141.27l-4.61,2.67a1.41,1.41,0,0,1-.67.15A1.38,1.38,0,0,1,76,143.93Zm44.9-2-5.48-3.26,4.61-2.67a1.41,1.41,0,0,1,.67-.15,1.38,1.38,0,0,1,.67.16l5.48,3.25-4.61,2.67a1.41,1.41,0,0,1-.67.15A1.38,1.38,0,0,1,120.93,141.89ZM87.13,141l-5.48-3.26L86.25,135a1.41,1.41,0,0,1,.67-.15,1.38,1.38,0,0,1,.67.16l5.48,3.26L88.47,141a1.41,1.41,0,0,1-.67.15A1.38,1.38,0,0,1,87.13,141ZM53.41,140l-8.34-4.91,4.61-2.67a1.41,1.41,0,0,1,.67-.15,1.38,1.38,0,0,1,.67.16l8.34,4.91L54.75,140a1.53,1.53,0,0,1-1.34,0Zm47.56-.28-5.48-3.26,4.61-2.67a1.41,1.41,0,0,1,.67-.15,1.39,1.39,0,0,1,.67.16l5.48,3.26-4.62,2.67a1.53,1.53,0,0,1-1.34,0Zm-33.8-.94-5.48-3.26,4.61-2.67a1.41,1.41,0,0,1,.67-.15,1.38,1.38,0,0,1,.67.16l5.48,3.25-4.61,2.67a1.41,1.41,0,0,1-.67.15A1.38,1.38,0,0,1,67.17,138.82Zm44.9-2-5.48-3.26,4.61-2.67a1.41,1.41,0,0,1,.67-.15,1.38,1.38,0,0,1,.67.16l5.48,3.26-4.61,2.67a1.41,1.41,0,0,1-.67.15A1.38,1.38,0,0,1,112.07,136.78Zm-33.8-.93-5.48-3.26,4.61-2.67a1.41,1.41,0,0,1,.67-.15,1.38,1.38,0,0,1,.67.16l5.48,3.25-4.61,2.67a1.41,1.41,0,0,1-.67.15A1.39,1.39,0,0,1,78.27,135.85Zm13.84-1.2-5.48-3.26,4.61-2.67a1.41,1.41,0,0,1,.67-.15,1.38,1.38,0,0,1,.67.16L98.07,132l-4.61,2.67a1.41,1.41,0,0,1-.67.15A1.38,1.38,0,0,1,92.11,134.64Zm-33.8-.94-5.48-3.26,4.61-2.67a1.41,1.41,0,0,1,.67-.15,1.38,1.38,0,0,1,.67.16L64.27,131l-4.61,2.67a1.41,1.41,0,0,1-.67.15A1.38,1.38,0,0,1,58.31,133.71Zm44.9-2-5.48-3.26,4.61-2.67a1.41,1.41,0,0,1,.67-.15,1.38,1.38,0,0,1,.67.16l5.48,3.26-4.61,2.67a1.41,1.41,0,0,1-.67.15A1.38,1.38,0,0,1,103.22,131.67Zm-33.8-.93-8.34-4.91,4.61-2.67a1.41,1.41,0,0,1,.67-.15,1.38,1.38,0,0,1,.67.16l8.34,4.91-4.61,2.67a1.41,1.41,0,0,1-.67.15A1.38,1.38,0,0,1,69.42,130.73ZM164.3,205l-5.48-3.26,4.61-2.67a1.41,1.41,0,0,1,.67-.15,1.38,1.38,0,0,1,.67.16l5.48,3.26L165.64,205a1.41,1.41,0,0,1-.67.15A1.38,1.38,0,0,1,164.3,205Zm-81-75.44-5.48-3.26,4.61-2.67a1.41,1.41,0,0,1,.67-.15,1.38,1.38,0,0,1,.67.16l5.48,3.25-4.61,2.67a1.41,1.41,0,0,1-.67.15A1.38,1.38,0,0,1,83.26,129.53Zm11.1-3-5.48-3.26,4.61-2.67a1.41,1.41,0,0,1,.67-.15,1.38,1.38,0,0,1,.67.16l5.48,3.25-4.61,2.67a1.41,1.41,0,0,1-.67.15A1.38,1.38,0,0,1,94.36,126.55Zm78,73.74L166.91,197l4.62-2.67a1.53,1.53,0,0,1,1.34,0l5.48,3.26-4.62,2.67a1.53,1.53,0,0,1-1.34,0Zm-16.95-.44L150,196.6l4.61-2.67a1.41,1.41,0,0,1,.67-.15,1.38,1.38,0,0,1,.67.16l5.48,3.26-4.61,2.67a1.41,1.41,0,0,1-.67.15A1.38,1.38,0,0,1,155.45,199.86Zm-81-75.44-5.48-3.26,4.61-2.67a1.41,1.41,0,0,1,.67-.15,1.38,1.38,0,0,1,.67.16l5.48,3.26-4.61,2.67a1.41,1.41,0,0,1-.67.15A1.38,1.38,0,0,1,74.4,124.42Zm11.1-3-8.34-4.91,4.61-2.67a1.41,1.41,0,0,1,.67-.15,1.39,1.39,0,0,1,.67.16l8.34,4.9-4.61,2.67a1.41,1.41,0,0,1-.67.15A1.38,1.38,0,0,1,85.51,121.44Zm95.07,74-23.05-13.31v-.36l4.51-2.61a1.06,1.06,0,0,1,.5-.11,1.1,1.1,0,0,1,.51.11l7.75,4.41a2,2,0,0,0,1,.24,2,2,0,0,0,1-.24l6.07-3.51a2.06,2.06,0,0,1,1.81,0l13.9,8v.36l-12.11,7a2.06,2.06,0,0,1-1.81,0Zm-17-.27-5.48-3.26,4.62-2.67a1.53,1.53,0,0,1,1.34,0l5.48,3.25-4.62,2.67a1.53,1.53,0,0,1-1.34,0Zm-16.95-.44-5.48-3.26,4.61-2.67a1.41,1.41,0,0,1,.67-.15,1.38,1.38,0,0,1,.67.16l5.48,3.26-4.61,2.67a1.41,1.41,0,0,1-.67.15A1.39,1.39,0,0,1,146.59,194.75Zm8.09-4.68-5.48-3.26,4.61-2.67a1.41,1.41,0,0,1,.67-.15,1.38,1.38,0,0,1,.67.16l5.48,3.25L156,190.07a1.53,1.53,0,0,1-1.34,0Zm42-3.77L191.15,183l4.61-2.67a1.41,1.41,0,0,1,.67-.15,1.38,1.38,0,0,1,.67.16l5.48,3.26L198,186.3a1.41,1.41,0,0,1-.67.15A1.38,1.38,0,0,1,196.64,186.3Zm-8.86-5.11-5.48-3.26,4.62-2.67a1.53,1.53,0,0,1,1.34,0l5.48,3.26-4.61,2.67a1.56,1.56,0,0,1-1.34,0Zm-16.93-.45-5.48-3.26,4.61-2.67a1.41,1.41,0,0,1,.67-.15,1.39,1.39,0,0,1,.67.16l5.48,3.26-4.61,2.67a1.41,1.41,0,0,1-.67.15A1.38,1.38,0,0,1,170.85,180.74Zm8.08-4.66-5.48-3.26,4.62-2.67a1.53,1.53,0,0,1,1.34,0l5.48,3.25-4.61,2.67a1.56,1.56,0,0,1-1.34,0Z"/><path class="cls-14" d="M58.83,177.82l33.48,19.33h0L114,184.62a0,0,0,0,0,0,0L80.56,165.25h0L58.83,177.79A0,0,0,0,0,58.83,177.82Z"/><path class="cls-15" d="M167.23,203l-1.85-1.1,1-.56,1.85,1.1Zm8.09-4.68-1.85-1.1,1-.56,1.85,1.1Zm-16.95-.44-1.85-1.1,1-.56,1.85,1.1Zm8.09-4.68-1.85-1.1,1-.56,1.85,1.1Zm-16.95-.44-1.85-1.1,1-.56,1.85,1.1Zm8.09-4.68-1.85-1.1,1-.56,1.85,1.1Zm42-3.77-1.85-1.1,1-.56,1.85,1.1Zm-8.86-5.11-1.85-1.1,1-.56,1.85,1.1Zm-16.93-.45-1.85-1.1,1-.56,1.85,1.1Zm8.07-4.66L180,173l1-.56,1.85,1.1ZM136.08,184l-1.85-1.1,1-.56,1.85,1.1Zm7.81-4.65-4.69-2.76,1-.55,4.69,2.76Zm-16.66-.47-1.85-1.1,1-.56,1.85,1.1Zm24.91-4.16-1.85-1.1,1-.56,1.85,1.1Zm-33.77-1-1.85-1.1,1-.56,1.85,1.1Zm13.81-1.18-1.85-1.1,1-.56,1.85,1.1ZM160,170l-4.69-2.76,1-.55,4.69,2.76Zm-16.7-.45-1.85-1.1,1-.56,1.85,1.1Zm-77.64-26.4-1.85-1.1,1-.56,1.85,1.1Zm57.68,24.26-1.85-1.1,1-.56,1.85,1.1Zm44.9-2-1.85-1.1,1-.56,1.85,1.1Zm-33.8-.93-1.85-1.1,1-.56,1.85,1.1Zm13.84-1.2-1.85-1.1,1-.56,1.85,1.1Zm-33.8-.94-1.85-1.1,1-.56,1.85,1.1Zm44.9-2-1.85-1.1,1-.56,1.85,1.1Zm-33.8-.93-1.85-1.1,1-.56,1.85,1.1Zm13.84-1.2-1.85-1.1,1-.56,1.85,1.1Zm-33.8-.94-1.85-1.1,1-.56,1.85,1.1Zm44.9-2-1.85-1.1,1-.56,1.85,1.1Zm-33.8-.93-1.85-1.1,1-.56,1.85,1.1Zm13.84-1.2-1.85-1.1,1-.56,1.85,1.1Zm-33.8-.94L94.91,151l1-.56,1.85,1.1Zm44.9-2-1.85-1.1,1-.56,1.85,1.1Zm-33.8-.93L106,148l1-.56,1.85,1.1Zm13.84-1.2-1.85-1.1,1-.56,1.85,1.1ZM87.91,147l-1.85-1.1,1-.56,1.85,1.1Zm44.9-2-1.86-1.1,1-.56,1.85,1.1ZM99,144l-1.85-1.1,1-.56,1.86,1.1Zm13.84-1.2-1.85-1.1,1-.56,1.85,1.1Zm-33.8-.94-1.85-1.1,1-.56,1.85,1.1Zm44.9-2-1.85-1.1,1-.56,1.85,1.1Zm-33.8-.93-1.85-1.1,1-.56,1.86,1.1ZM56.43,138l-4.69-2.76,1-.55,4.69,2.76Zm47.56-.28-1.85-1.1,1-.56,1.85,1.1Zm-33.8-.94-1.85-1.1,1-.56,1.85,1.1Zm44.9-2-1.85-1.1,1-.56,1.85,1.1Zm-33.8-.93-1.85-1.1,1-.56,1.85,1.1Zm13.84-1.2-1.85-1.1,1-.56,1.85,1.1Zm-33.8-.94-1.85-1.1,1-.56,1.85,1.1Zm44.9-2-1.85-1.1,1-.56,1.85,1.1Zm-33.8-.93-4.69-2.76,1-.55,4.69,2.76Zm13.85-1.2-1.85-1.1,1-.56,1.85,1.1Zm11.1-3-1.85-1.1,1-.56,1.86,1.1Zm-20-2.14-1.86-1.1,1-.56,1.86,1.1Zm11.1-3-4.69-2.76,1-.55,4.69,2.76Z"/><path class="cls-16" d="M80.54,165.25h0L114,184.58a0,0,0,0,1,0,0l-1.46.84L80.56,167h0L60.29,178.66l-1.46-.84a0,0,0,0,1,0,0Z"/></g><path class="cls-17" d="M82.83,105.25a3.55,3.55,0,0,1,.57-.9,2.68,2.68,0,0,1,.68-.56l135,78.52a2.68,2.68,0,0,0-.68.56,3.55,3.55,0,0,0-.57.9,2.81,2.81,0,0,0-.26,1.12c0,.09,0,.17,0,.25l-135-78.52c0-.08,0-.16,0-.25A2.81,2.81,0,0,1,82.83,105.25Z"/><ellipse class="cls-18" cx="218.33" cy="183.72" rx="1.64" ry="1.19" transform="translate(-49.94 280.94) rotate(-60)"/><g class="cls-19"><polygon class="cls-20" points="196.83 69.76 106.39 115.02 85.83 102.69 85.83 4.71 196.83 69.76"/></g></g></g></g></svg>