<svg xmlns="http://www.w3.org/2000/svg" xmlns:xlink="http://www.w3.org/1999/xlink" viewBox="0 0 169.03 200"><defs><style>.cls-1{mask:url(#mask);filter:url(#luminosity-noclip-2);}.cls-2{mix-blend-mode:multiply;fill:url(#Безымянный_градиент_57);}.cls-3{isolation:isolate;}.cls-4{fill:url(#Безымянный_градиент_2581);}.cls-5{fill:url(#Безымянный_градиент_2581-2);}.cls-6{fill:url(#Безымянный_градиент_2581-3);}.cls-7{fill:#015354;}.cls-8{fill:#d4d3d3;}.cls-9{fill:#dbdadb;}.cls-10{fill:url(#Безымянный_градиент_191);}.cls-11{fill:#cabad3;}.cls-12{fill:url(#Безымянный_градиент_190);}.cls-13{fill:#d4c7da;}.cls-14{fill:#cac7cd;}.cls-15{fill:url(#Безымянный_градиент_196);}.cls-16{fill:#fffefe;}.cls-17{fill:#d8d5d9;}.cls-18{fill:#232323;}.cls-19{fill:#fffcfd;}.cls-20{fill:url(#Безымянный_градиент_194);}.cls-21{fill:#2f3030;}.cls-22{fill:#3d3d3e;}.cls-23{fill:#f3f1f3;}.cls-24{fill:#303232;}.cls-25{fill:url(#Безымянный_градиент_193);}.cls-26{fill:url(#Безымянный_градиент_1197);}.cls-27{fill:url(#Безымянный_градиент_106);}.cls-28{fill:url(#Безымянный_градиент_106-2);}.cls-29{fill:url(#GradientFill_121);}.cls-30{fill:#7d51a1;}.cls-31{fill:url(#GradientFill_7);}.cls-32{fill:#fffffb;}.cls-33{fill:#e9e8e7;}.cls-34{fill:url(#Безымянный_градиент_2581-4);}.cls-35{mask:url(#mask-2);}.cls-36{opacity:0.3;mix-blend-mode:screen;fill:url(#Безымянный_градиент_175);}.cls-37{fill:#0b7c7b;}.cls-38{filter:url(#luminosity-noclip);}</style><filter id="luminosity-noclip" x="52.76" y="-8669.55" width="74.1" height="32766" filterUnits="userSpaceOnUse" color-interpolation-filters="sRGB"><feFlood flood-color="#fff" result="bg"/><feBlend in="SourceGraphic" in2="bg"/></filter><mask id="mask" x="52.76" y="-8669.55" width="74.1" height="32766" maskUnits="userSpaceOnUse"><g class="cls-38"/></mask><linearGradient id="Безымянный_градиент_57" x1="7102.67" y1="10.8" x2="7052.3" y2="70.73" gradientTransform="matrix(-1, 0, 0, 1, 7150.98, 0)" gradientUnits="userSpaceOnUse"><stop offset="0" stop-color="#fff"/><stop offset="0.29" stop-color="#fff"/><stop offset="0.65" stop-color="#fff"/><stop offset="1" stop-color="#fff"/></linearGradient><linearGradient id="Безымянный_градиент_2581" x1="10866.67" y1="154.35" x2="10950.86" y2="154.35" gradientTransform="matrix(-1, 0, 0, 1, 10950.86, 0)" gradientUnits="userSpaceOnUse"><stop offset="0" stop-color="#0b7c7b"/><stop offset="1" stop-color="#05a2a7"/></linearGradient><linearGradient id="Безымянный_градиент_2581-2" x1="10835.23" y1="174.22" x2="10913.46" y2="174.22" xlink:href="#Безымянный_градиент_2581"/><linearGradient id="Безымянный_градиент_2581-3" x1="10835.23" y1="183.89" x2="10882.02" y2="183.89" xlink:href="#Безымянный_градиент_2581"/><linearGradient id="Безымянный_градиент_191" x1="11566.94" y1="112.77" x2="11548.55" y2="144.62" gradientTransform="matrix(-0.95, 0, 0, 0.95, 11022.22, 29.56)" gradientUnits="userSpaceOnUse"><stop offset="0" stop-color="#f3f1f2"/><stop offset="0.28" stop-color="#fbfafa"/><stop offset="0.64" stop-color="#fff"/><stop offset="0.95" stop-color="#f5f4f4"/><stop offset="1" stop-color="#f3f1f2"/></linearGradient><linearGradient id="Безымянный_градиент_190" x1="11535" y1="126.36" x2="11517.21" y2="157.15" gradientTransform="matrix(-0.95, 0, 0, 0.95, 11022.22, 29.56)" gradientUnits="userSpaceOnUse"><stop offset="0" stop-color="#f3f1f2"/><stop offset="0.05" stop-color="#f5f4f4"/><stop offset="0.36" stop-color="#fff"/><stop offset="0.72" stop-color="#fbfafa"/><stop offset="1" stop-color="#f3f1f2"/></linearGradient><linearGradient id="Безымянный_градиент_196" x1="-14994.22" y1="161.5" x2="-14992.17" y2="165.05" gradientTransform="translate(14356.07 29.56) scale(0.95)" gradientUnits="userSpaceOnUse"><stop offset="0" stop-color="#282929"/><stop offset="0.52" stop-color="#333434"/><stop offset="0.76" stop-color="#282929"/><stop offset="0.85" stop-color="#232323"/></linearGradient><linearGradient id="Безымянный_градиент_194" x1="-14278.01" y1="155.62" x2="-14267.05" y2="155.62" gradientTransform="translate(13680.88 29.56) scale(0.95)" gradientUnits="userSpaceOnUse"><stop offset="0" stop-color="#fffcfd"/><stop offset="0.46" stop-color="#fffefe"/><stop offset="1" stop-color="#fff"/></linearGradient><linearGradient id="Безымянный_градиент_193" x1="-14752.88" y1="176.08" x2="-14751.52" y2="178.22" gradientTransform="translate(14093.69 29.56) scale(0.95)" gradientUnits="userSpaceOnUse"><stop offset="0" stop-color="#f5f4f5"/><stop offset="1" stop-color="#e5e1e4"/></linearGradient><linearGradient id="Безымянный_градиент_1197" x1="7023.4" y1="137.25" x2="7062.45" y2="137.25" gradientTransform="matrix(-1, 0, 0, 1, 7150.98, 0)" gradientUnits="userSpaceOnUse"><stop offset="0" stop-color="#f7f8f8"/><stop offset="1" stop-color="#fff"/></linearGradient><linearGradient id="Безымянный_градиент_106" x1="7034.92" y1="141.41" x2="7062.74" y2="141.41" gradientTransform="matrix(-1, 0, 0, 1, 7150.98, 0)" gradientUnits="userSpaceOnUse"><stop offset="0" stop-color="#b5b5b5"/><stop offset="0.56" stop-color="#d4d4d4"/><stop offset="1" stop-color="#dfdfde"/></linearGradient><linearGradient id="Безымянный_градиент_106-2" x1="7039.01" y1="122.3" x2="7043.37" y2="129.86" xlink:href="#Безымянный_градиент_106"/><linearGradient id="GradientFill_121" x1="7019.28" y1="126.08" x2="7035.2" y2="126.08" gradientTransform="matrix(-1, 0, 0, 1, 7150.98, 0)" gradientUnits="userSpaceOnUse"><stop offset="0" stop-color="#a8a6a6"/><stop offset="0.52" stop-color="#a3a1a1"/><stop offset="1" stop-color="#989898"/></linearGradient><linearGradient id="GradientFill_7" x1="6981.95" y1="109.84" x2="6984.19" y2="109.84" gradientTransform="matrix(-1, 0, 0, 1, 7150.98, 0)" gradientUnits="userSpaceOnUse"><stop offset="0" stop-color="#b4b2b3"/><stop offset="1" stop-color="#929090"/></linearGradient><linearGradient id="Безымянный_градиент_2581-4" x1="-8277.05" y1="71.58" x2="-8163.46" y2="71.58" gradientTransform="translate(8329.81)" xlink:href="#Безымянный_градиент_2581"/><filter id="luminosity-noclip-2" x="52.76" y="2.27" width="74.1" height="89.09" filterUnits="userSpaceOnUse" color-interpolation-filters="sRGB"><feFlood flood-color="#fff" result="bg"/><feBlend in="SourceGraphic" in2="bg"/></filter><mask id="mask-2" x="52.76" y="2.27" width="74.1" height="89.09" maskUnits="userSpaceOnUse"><g class="cls-1"><polygon class="cls-2" points="126.86 45.05 80.56 91.36 52.78 75.32 52.76 2.27 126.86 45.05"/></g></mask><linearGradient id="Безымянный_градиент_175" x1="7102.67" y1="10.8" x2="7052.3" y2="70.73" gradientTransform="matrix(-1, 0, 0, 1, 7150.98, 0)" gradientUnits="userSpaceOnUse"><stop offset="0" stop-color="#010101"/><stop offset="0.29" stop-color="#090910"/><stop offset="0.65" stop-color="#1c164c"/><stop offset="1" stop-color="#3f9aa4"/></linearGradient></defs><title>learning</title><g class="cls-3"><g id="Layer_2" data-name="Layer 2"><g id="Layer_1-2" data-name="Layer 1"><g class="cls-3"><path class="cls-4" d="M0,157.36l46.79-27.17,31.44,17.7a18.56,18.56,0,0,0,3,2.18,13.38,13.38,0,0,0,1.58.78,11.67,11.67,0,0,0,1.41.48L37.4,178.51a11.81,11.81,0,0,1-1.47-.36,14,14,0,0,1-1.6-.82,19,19,0,0,1-2.89-2.27Z"/><polygon class="cls-5" points="115.63 169.94 68.84 197.1 37.41 178.51 84.19 151.34 115.63 169.94"/><polygon class="cls-6" points="68.84 197.84 115.62 170.68 115.63 169.94 68.84 197.1 68.84 197.84"/><path class="cls-7" d="M31.44,175.07,0,157.36v.74l31.33,17.64c.6.49,1.06.84,1.51,1.16s.7.48,1,.68.37.25.56.35.37.19.55.29c.33.18.67.36,1,.5s.94.37,1.4.52l31.46,18.6v-.74L37.4,178.51a12.55,12.55,0,0,1-3-1.26A18.57,18.57,0,0,1,31.44,175.07Z"/></g><g class="cls-3"><polygon class="cls-8" points="47.23 127.78 80.74 146.87 81.78 147.47 114.94 166.88 68.83 193.66 35.66 174.25 34.62 173.65 1.11 154.56 47.23 127.78"/><polygon class="cls-8" points="68.82 196.38 114.93 169.6 114.94 166.88 68.83 193.66 68.82 196.38"/><path class="cls-9" d="M34.62,173.65,1.11,154.56v2.72l30.82,17.36a14.57,14.57,0,0,0,3,2.15c2.37,1.37,3,1.33,3,1.35l30.82,18.23v-2.72L35.66,174.25Z"/></g><path class="cls-10" d="M1.81,154.34l46.1-26.77a29.14,29.14,0,0,0,2.87,1.87c5.07,2.93,11.45,4.92,16.76,6.58,1.65.51,3.18,1,4.53,1.45a12.25,12.25,0,0,1,2.12,1c4.64,2.68,6.91,7.81,7.14,8.35l-46.1,26.77c-.23-.54-2.49-5.67-7.14-8.35a12.26,12.26,0,0,0-2.12-1c-1.34-.46-2.88-.94-4.53-1.45-5.31-1.67-11.69-3.65-16.76-6.58a29.16,29.16,0,0,1-2.87-1.87Z"/><g class="cls-3"><polygon class="cls-11" points="68.72 193.26 114.82 166.49 114.78 166.17 68.68 192.94 68.72 193.26"/><path class="cls-12" d="M82.27,146.08c1.08-.63,3.14-1.17,6.25.63a16.52,16.52,0,0,1,2.12,1.48c1.33,1.08,2.88,2.39,4.52,3.78,5.29,4.45,11.67,9.83,16.74,12.76a23.85,23.85,0,0,0,2.87,1.44l-46.1,26.77a23.92,23.92,0,0,1-2.87-1.44c-5.08-2.93-11.45-8.31-16.74-12.76-1.64-1.39-3.19-2.69-4.52-3.78a16.56,16.56,0,0,0-2.12-1.48c-3.12-1.8-5.17-1.26-6.25-.63Z"/><path class="cls-13" d="M1.81,154.34a29.13,29.13,0,0,0,2.87,1.87c5.07,2.93,11.45,4.92,16.76,6.58,1.65.51,3.19,1,4.53,1.45a12.26,12.26,0,0,1,2.12,1c4.64,2.68,6.91,7.81,7.14,8.35l-.33-.19a18.25,18.25,0,0,0-6.8-7.84,11.9,11.9,0,0,0-2.08-1c-1.33-.46-2.88-1-4.53-1.46-5.3-1.65-11.69-3.64-16.79-6.59a30.32,30.32,0,0,1-2.93-1.92Z"/><path class="cls-13" d="M42.42,173.49A16.56,16.56,0,0,1,44.54,175c1.33,1.08,2.88,2.39,4.52,3.78,5.29,4.45,11.67,9.83,16.74,12.76a23.92,23.92,0,0,0,2.87,1.44l0,.33a24.94,24.94,0,0,1-2.93-1.47C60.68,188.85,54.31,183.48,49,179c-1.64-1.39-3.19-2.69-4.52-3.76a16.08,16.08,0,0,0-2.07-1.45c-4.11-2.37-6.31-.56-6.83,0l-.33-.19C35.49,173.31,37.78,170.81,42.42,173.49Z"/></g><path class="cls-14" d="M93.24,195.64a.29.29,0,0,0-.33,0c-.32.27-.06.86.27,1a.41.41,0,0,0,.36,0,.3.3,0,0,0,.16-.31A1,1,0,0,0,93.24,195.64Z"/><path class="cls-15" d="M131.7,175a3.55,3.55,0,0,0-.1-.6l0-.08a2.74,2.74,0,0,0-.16-.41l-.05-.1a2.63,2.63,0,0,0-.2-.32l-.07-.09a2.55,2.55,0,0,0-.27-.28l-.08-.07a2.2,2.2,0,0,0-.3-.21,1.22,1.22,0,0,0-1.13-.08c-.23.12-18.76,10.83-29.28,17.73a61.56,61.56,0,0,0-6.08,4.31l-.14.13a.44.44,0,0,0-.11.33,1.23,1.23,0,0,0,.57,1,.46.46,0,0,0,.35,0l.09,0,.71-.27c.86-.34,2.25-1,5-2.39,2.58-1.34,6.36-3.39,12-6.59,8.18-4.64,18.63-10.82,18.81-10.93a.91.91,0,0,0,.36-.4,1,1,0,0,0,.07-.15,2.21,2.21,0,0,0,.06-.28s0-.08,0-.12,0-.08,0-.12Z"/><path class="cls-16" d="M94.24,194.92a.37.37,0,0,0-.42,0l-.91.73a.29.29,0,0,1,.33,0,1,1,0,0,1,.45.76.3.3,0,0,1-.15.31l1.08-.44a.38.38,0,0,0,.2-.39A1.23,1.23,0,0,0,94.24,194.92Z"/><path class="cls-16" d="M93.14,195.8a.23.23,0,0,0-.28,0l-.89.85a.1.1,0,0,1,.12,0,.34.34,0,0,1,.16.27c0,.06,0,.1-.06.11l1.18-.37c.09,0,.14-.12.14-.25A.78.78,0,0,0,93.14,195.8Z"/><path class="cls-17" d="M92.09,196.65a.1.1,0,0,0-.12,0,.54.54,0,0,0-.18.22.16.16,0,0,0,.07.19c.09,0,.18,0,.33,0a.1.1,0,0,0,.06-.11A.34.34,0,0,0,92.09,196.65Z"/><polygon class="cls-18" points="129.61 174.41 117.65 181.31 116.67 180.74 128.62 173.84 129.61 174.41"/><g class="cls-3"><polygon class="cls-19" points="127.18 174.86 126.4 174.4 128.64 173.92 129.42 174.38 127.18 174.86"/><polygon class="cls-14" points="117.56 180.64 116.78 180.18 116.77 179.96 117.56 180.41 117.56 180.64"/><polygon class="cls-20" points="117.56 180.41 116.77 179.96 126.4 174.4 127.18 174.86 117.56 180.41"/><polygon class="cls-17" points="127.18 174.86 129.42 174.38 126.67 175.96 126.16 175.67 117.56 180.64 117.56 180.41 127.18 174.86"/></g><path class="cls-21" d="M76,199l-1,.94s0,.06.08,0l1.63-.6Z"/><path class="cls-17" d="M124.56,171.87,81.62,196.74v.77l43.19-25A3.36,3.36,0,0,0,124.56,171.87Z"/><polygon class="cls-18" points="123.86 172.27 123.86 173.06 127.38 171.01 127.38 170.23 123.86 172.27"/><path class="cls-19" d="M124.09,171,81.14,195.91l.47.83,42.94-24.87A7.31,7.31,0,0,0,124.09,171Z"/><polygon class="cls-22" points="127.38 170.23 126.91 169.41 123.4 171.44 123.86 172.27 127.38 170.23"/><path class="cls-23" d="M123.72,170.47l-43.25,25,.68.39L124.09,171Z"/><polygon class="cls-24" points="126.91 169.41 126.23 169.02 122.73 171.04 123.4 171.44 126.91 169.41"/><path class="cls-25" d="M82.07,195.8l-2.07.1a3.33,3.33,0,0,0-1.16.58l-3.19,2.89c.38-.22.59.09.45.26l5-1.81c.19-.14.5-.27.56-.44l.67-1.44Z"/><path class="cls-19" d="M79.3,196.18c.12.3.6.12.78.25s-.95.85-.2,1a3.39,3.39,0,0,0,1.17-.27c.11,0,.27,0,.31,0s-.36.35-.29.67L84,196.07l-1.46-1.75Z"/><path class="cls-23" d="M82.54,194.32l-.88.5-2.36,1.37c.13.29.59.12.77.24a.08.08,0,0,1,0,.07l3.19-1.84Z"/><path class="cls-17" d="M83.63,195.57l-2.79,1.61.2-.06c.11,0,.27,0,.31,0s-.36.35-.29.67l3.45-2Z"/><g class="cls-3"><polygon class="cls-26" points="100.05 125.94 127.58 141.92 116.07 148.57 88.53 132.59 100.05 125.94"/><path class="cls-27" d="M88.38,132.79a.58.58,0,0,1,.09-.14l.07-.06,27.53,16-.07.06a.59.59,0,0,0-.08.14c-.19.43-.17,1.33,0,1.46l-27.53-16C88.21,134.12,88.19,133.22,88.38,132.79Z"/><path class="cls-28" d="M102.28,123.29a3.82,3.82,0,0,0,.25-3L95,103.68l27.53,16,7.49,16.56a3.81,3.81,0,0,1-.24,3,6.56,6.56,0,0,1-1.05,1.67,4.78,4.78,0,0,1-1.18,1l-27.53-16a4.78,4.78,0,0,0,1.18-1A6.55,6.55,0,0,0,102.28,123.29Z"/><path class="cls-29" d="M116.07,148.57l11.52-6.65a5.72,5.72,0,0,0,2.23-2.65,3.81,3.81,0,0,0,.25-3l-7.49-16.56-.05-.3,0-16.13a1.53,1.53,0,0,1,.72-1.24c.39-.22.7,0,.7.43l0,16,7.46,16.43a6.1,6.1,0,0,1-.4,4.67,8.8,8.8,0,0,1-3.41,4.07l-11.52,6.65C115.69,150.45,115.68,148.79,116.07,148.57Z"/><path class="cls-30" d="M95.07,86.71a1.63,1.63,0,0,1,.27-.42,1.32,1.32,0,0,1,.33-.27.48.48,0,0,1,.49,0l27.53,16a.48.48,0,0,0-.49,0,1.32,1.32,0,0,0-.33.27,1.64,1.64,0,0,0-.27.42,1.38,1.38,0,0,0-.12.55l0,16.13.05.3L95,103.68l-.05-.3,0-16.13A1.38,1.38,0,0,1,95.07,86.71Z"/></g><g id="_1" data-name="1"><polygon class="cls-31" points="166.8 153.53 169 152.25 169.03 66.16 166.83 67.44 166.8 153.53"/><polygon class="cls-32" points="166.83 67.44 169.03 66.16 54.44 0 52.24 1.28 166.83 67.44"/><polygon class="cls-33" points="52.24 1.28 52.21 87.37 166.8 153.53 166.83 67.44 52.24 1.28"/><polygon class="cls-34" points="166.33 67.84 52.76 2.27 52.78 75.32 166.34 140.89 166.33 67.84"/><g class="cls-35"><polygon class="cls-36" points="126.86 45.05 80.56 91.36 52.78 75.32 52.76 2.27 126.86 45.05"/></g></g><path class="cls-37" d="M102,110l4,2.33c.56.32,1,.13,1-.42a2.08,2.08,0,0,0-1-1.58L102,108c-.55-.32-1-.13-1,.42A2.08,2.08,0,0,0,102,110Z"/></g></g></g></svg>