<svg id="_1" data-name="1" xmlns="http://www.w3.org/2000/svg" xmlns:xlink="http://www.w3.org/1999/xlink" viewBox="0 0 344.58 223.49"><defs><style>.cls-1{fill:none;}.cls-2{fill:#04110d;}.cls-3{fill:#061611;}.cls-4{fill:url(#Безымянный_градиент_16);}.cls-5{fill:url(#Безымянный_градиент_16-2);}.cls-6{fill:#04100c;}.cls-7{fill:url(#Безымянный_градиент_16-3);}.cls-8{fill:url(#Безымянный_градиент_29);}.cls-9{fill:url(#Безымянный_градиент_16-4);}.cls-10{isolation:isolate;}.cls-11{fill:#68a994;}.cls-12{fill:#cbe9dd;}.cls-13{fill:#78a994;}.cls-14{fill:#90d2b8;}.cls-15{fill:#1e8685;}.cls-16{fill:#096063;}.cls-17{fill:url(#Безымянный_градиент_9);}.cls-18{fill:#05120e;}.cls-19{fill:#071a14;}.cls-20{fill:url(#Безымянный_градиент_16-5);}.cls-21{fill:url(#Безымянный_градиент_18);}.cls-22{fill:url(#Безымянный_градиент_18-2);}.cls-23{fill:url(#Безымянный_градиент_18-3);}.cls-24{fill:url(#Безымянный_градиент_18-4);}.cls-25{fill:url(#Безымянный_градиент_16-6);}.cls-26{fill:url(#Безымянный_градиент_18-5);}.cls-27{fill:url(#Безымянный_градиент_16-7);}.cls-28{clip-path:url(#clip-path);}.cls-29{fill:#061812;}.cls-30{fill:url(#Безымянный_градиент_16-8);}.cls-31{fill:url(#Безымянный_градиент_18-6);}.cls-32{clip-path:url(#clip-path-2);}.cls-33{fill:url(#Безымянный_градиент_16-9);}.cls-34{fill:url(#Безымянный_градиент_16-10);}.cls-35{fill:url(#Безымянный_градиент_18-7);}.cls-36{fill:url(#Безымянный_градиент_16-11);}.cls-37{fill:url(#Безымянный_градиент_18-8);}.cls-38{fill:url(#Безымянный_градиент_16-12);}.cls-39{clip-path:url(#clip-path-3);}.cls-40{fill:url(#Безымянный_градиент_16-13);}.cls-41{fill:url(#Безымянный_градиент_18-9);}.cls-42{fill:url(#Безымянный_градиент_18-10);}</style><linearGradient id="Безымянный_градиент_16" x1="210.23" y1="211.87" x2="220.54" y2="211.87" gradientUnits="userSpaceOnUse"><stop offset="0" stop-color="#192e27"/><stop offset="0.99" stop-color="#04100c"/></linearGradient><linearGradient id="Безымянный_градиент_16-2" x1="275.02" y1="263.23" x2="303.54" y2="263.23" xlink:href="#Безымянный_градиент_16"/><linearGradient id="Безымянный_градиент_16-3" x1="178.02" y1="209.71" x2="201.68" y2="209.71" xlink:href="#Безымянный_градиент_16"/><linearGradient id="Безымянный_градиент_29" x1="158.03" y1="187.99" x2="174.15" y2="214.3" gradientUnits="userSpaceOnUse"><stop offset="0" stop-color="#192e27"/><stop offset="0.68" stop-color="#0a1914"/><stop offset="0.8" stop-color="#101f13"/><stop offset="0.82" stop-color="#0d1b11"/><stop offset="0.88" stop-color="#06120d"/><stop offset="0.99" stop-color="#04100c"/></linearGradient><linearGradient id="Безымянный_градиент_16-4" x1="155.08" y1="183.43" x2="178.37" y2="183.43" xlink:href="#Безымянный_градиент_16"/><linearGradient id="Безымянный_градиент_9" x1="19.1" y1="42.76" x2="84.47" y2="42.76" gradientUnits="userSpaceOnUse"><stop offset="0.02" stop-color="#26938c"/><stop offset="1" stop-color="#06837b"/></linearGradient><linearGradient id="Безымянный_градиент_16-5" x1="262.41" y1="243.45" x2="273.27" y2="243.45" xlink:href="#Безымянный_градиент_16"/><linearGradient id="Безымянный_градиент_18" x1="262.1" y1="260.06" x2="298.5" y2="260.06" gradientUnits="userSpaceOnUse"><stop offset="0.01" stop-color="#2d403a"/><stop offset="1" stop-color="#192e27"/></linearGradient><linearGradient id="Безымянный_градиент_18-2" x1="152.38" y1="196.77" x2="173.39" y2="196.77" xlink:href="#Безымянный_градиент_18"/><linearGradient id="Безымянный_градиент_18-3" x1="175.33" y1="211.38" x2="196.61" y2="211.38" xlink:href="#Безымянный_градиент_18"/><linearGradient id="Безымянный_градиент_18-4" x1="200.09" y1="226.77" x2="225.19" y2="226.77" xlink:href="#Безымянный_градиент_18"/><linearGradient id="Безымянный_градиент_16-6" x1="227.92" y1="230.12" x2="251.47" y2="230.12" xlink:href="#Безымянный_градиент_16"/><linearGradient id="Безымянный_градиент_18-5" x1="227.68" y1="238.89" x2="246.31" y2="238.89" xlink:href="#Безымянный_градиент_18"/><linearGradient id="Безымянный_градиент_16-7" x1="302.15" y1="272.58" x2="312.73" y2="272.58" xlink:href="#Безымянный_градиент_16"/><clipPath id="clip-path" transform="translate(-52.71 -118.6)"><path class="cls-1" d="M305.31,279l7.39-3.77,7.88,4.55-4.21,5.85C313.56,284,308.21,280.67,305.31,279Z"/></clipPath><linearGradient id="Безымянный_градиент_16-8" x1="315.68" y1="286.12" x2="326.25" y2="286.12" xlink:href="#Безымянный_градиент_16"/><linearGradient id="Безымянный_градиент_18-6" x1="301.86" y1="283.73" x2="321.09" y2="283.73" xlink:href="#Безымянный_градиент_18"/><clipPath id="clip-path-2" transform="translate(-52.71 -118.6)"><path class="cls-1" d="M336.76,304.27l-5.16,3,.09-.07,5.16-3Z"/></clipPath><linearGradient id="Безымянный_градиент_16-9" x1="326.48" y1="287.32" x2="337.18" y2="287.32" xlink:href="#Безымянный_градиент_16"/><linearGradient id="Безымянный_градиент_16-10" x1="340.46" y1="300.5" x2="351.01" y2="300.5" xlink:href="#Безымянный_градиент_16"/><linearGradient id="Безымянный_градиент_18-7" x1="326.18" y1="297.96" x2="345.85" y2="297.96" xlink:href="#Безымянный_градиент_18"/><linearGradient id="Безымянный_градиент_16-11" x1="350.1" y1="300.69" x2="373.64" y2="300.69" xlink:href="#Безымянный_градиент_16"/><linearGradient id="Безымянный_градиент_18-8" x1="349.86" y1="309.49" x2="368.48" y2="309.49" xlink:href="#Безымянный_градиент_18"/><linearGradient id="Безымянный_градиент_16-12" x1="385.89" y1="327.19" x2="397.29" y2="327.19" xlink:href="#Безымянный_градиент_16"/><clipPath id="clip-path-3" transform="translate(-52.71 -118.6)"><path class="cls-1" d="M383,331l-5.16,3,.09-.07,5.16-3Z"/></clipPath><linearGradient id="Безымянный_градиент_16-13" x1="372.75" y1="314.07" x2="383.43" y2="314.07" xlink:href="#Безымянный_градиент_16"/><linearGradient id="Безымянный_градиент_18-9" x1="372.46" y1="324.67" x2="392.13" y2="324.67" xlink:href="#Безымянный_градиент_18"/><linearGradient id="Безымянный_градиент_18-10" x1="251.65" y1="249.86" x2="256.78" y2="249.86" xlink:href="#Безымянный_градиент_18"/></defs><title>Лого Софт Юнити1</title><polygon class="cls-2" points="160.79 104.34 167.8 101.03 168.54 113.9 162.6 115.92 160.79 104.34"/><path class="cls-3" d="M202.65,213.32l6.05-3.54a6.06,6.06,0,0,1,4.33-.28c2.5.73.81,4.67.81,4.67l-4.31.83Z" transform="translate(-52.71 -118.6)"/><path class="cls-4" d="M219.74,207.77,216,205.58a.65.65,0,0,0-.57-.06l-5.16,3a.8.8,0,0,1,.26,0c.1,0,4.55,9.78,4.55,9.78l5.49-4.83v-4.3h0A1.61,1.61,0,0,0,219.74,207.77Z" transform="translate(-52.71 -118.6)"/><path class="cls-5" d="M275,248.64l11.86,5.65,9.44,13.52-1.57,13.86,5.81-3.44a8.11,8.11,0,0,0,2.88-5.66,26.54,26.54,0,0,0-4.94-17.78c-4.87-6.72-9.9-9-13-9.75a7.22,7.22,0,0,0-5.31.6Z" transform="translate(-52.71 -118.6)"/><path class="cls-2" d="M283.38,253.69s-4.75-6.69-7.06,1.94,2.44,17.24,6.75,19.74,9.88.82,9.88.82l-.85-3.67s-4.84-1.22-7.77-7.15C281,258.63,283.38,253.69,283.38,253.69Z" transform="translate(-52.71 -118.6)"/><path class="cls-6" d="M261.91,248.35a5.67,5.67,0,0,0-2.56-4.44,1.74,1.74,0,0,0-1.89-.12l-5.06,2.94L256,253l5-3,.21-.12.08,0h0A1.89,1.89,0,0,0,261.91,248.35Z" transform="translate(-52.71 -118.6)"/><polygon class="cls-2" points="159.63 99.65 151.6 99.65 150.85 105 153.16 110.87 157.32 113.9 158.98 112.22 159.63 99.65"/><path class="cls-7" d="M178,198.54s5.06-3.07,5.84-3.36a6.61,6.61,0,0,1,4.46-.21c2.46.59,6.82,3.13,10.37,9s3.44,13.32,2.24,15.32-8.16,5.48-8.16,5.48l1.07-14.45-9.62-9.7Z" transform="translate(-52.71 -118.6)"/><path class="cls-2" d="M186.13,202.81s-1.4,3.26,1.3,8a8.75,8.75,0,0,0,7.17,4.73L192,218.88a41.47,41.47,0,0,1-5.19.81,44.67,44.67,0,0,1-5.47-2.69c-.12-.19-2.56-7.87-2.62-8s.28-6.19.28-6.19Z" transform="translate(-52.71 -118.6)"/><path class="cls-8" d="M164.29,184.75s-2.66,4.23.32,10.8a19,19,0,0,0,10,9.43c1.19.56,2.33.66,2.53,1.1a24.81,24.81,0,0,1,1.58,4.49c0,.68-5.59,3.73-5.59,3.73L168.71,209s-8.79-1.62-11.25-9S155.63,185.08,164.29,184.75Z" transform="translate(-52.71 -118.6)"/><path class="cls-9" d="M155.08,180.73s3.79-2.71,9,0,8.13,6.23,8.35,6.79-.68,3.15-.68,3.15l4.93-2.87a1,1,0,0,0,.36-.36,24.41,24.41,0,0,0,1.27-2.37,1.55,1.55,0,0,0-.38-1.43c-.51-.65-5.53-5.62-10-6.87s-5.85-.28-7.26.53S155.58,180.1,155.08,180.73Z" transform="translate(-52.71 -118.6)"/><g id="Layer_2" data-name="Layer 2"><path class="cls-2" d="M215.36,216.42,223,229.54l-.54,8.67-7.12,2.49,6.18.66,5.78-3.3s3-1.64,3-6.54a20.79,20.79,0,0,0-4-12.13,21,21,0,0,0-5.83-6Z" transform="translate(-52.71 -118.6)"/><g class="cls-10"><polygon class="cls-11" points="32.77 3 37.93 0 48.27 15.1 42.29 16.91 26.29 17.32 32.77 3"/><polygon class="cls-12" points="0 12.86 5.16 9.87 37.93 0 32.77 3 22.12 20.07 0 12.86"/><polygon class="cls-13" points="19.1 23.89 24.26 20.89 47.34 54.59 42.18 57.59 19.1 23.89"/><polygon class="cls-14" points="32.77 3 42.29 16.91 47.96 33.57 42.18 57.59 32.6 60.47 0 12.86 32.77 3"/><polygon class="cls-15" points="42.29 16.91 57.02 11.03 52.59 15.08 42.29 16.91"/><polygon class="cls-16" points="51.86 14.02 57.02 11.03 89.63 58.63 84.47 61.63 49.66 44.99 51.86 14.02"/><polygon class="cls-17" points="51.86 14.02 84.47 61.63 51.7 71.5 42.18 57.59 19.1 23.89 42.29 16.91 51.86 14.02"/></g><g class="cls-10"><path class="cls-18" d="M264.19,258.13s3.75,12.25,3.61,12.33l5.16-3a.55.55,0,0,0,.23-.51l0-11.72Z" transform="translate(-52.71 -118.6)"/><polygon class="cls-19" points="211.13 134.12 220.53 130.7 223.99 132.69 218.83 135.69 211.13 134.12"/><path class="cls-20" d="M273.27,238.58a1.52,1.52,0,0,0-.78-1.36l-4.36-2.52a.63.63,0,0,0-.55-.05l-5.16,3c.07,0,5.66,14.64,5.66,14.64l5.16-3,0-10.7Z" transform="translate(-52.71 -118.6)"/><path class="cls-18" d="M289.89,275.37l5.16-3,.25-.13-5.16,3-.25.13Z" transform="translate(-52.71 -118.6)"/><path class="cls-21" d="M296.76,264.17A24,24,0,0,1,298.5,273a11.62,11.62,0,0,1-1.79,6.82,6.19,6.19,0,0,1-4.89,2.65,12.57,12.57,0,0,1-6.78-1.92l-.2-.12-.16-.09a25.55,25.55,0,0,1-6.17-5.15,29,29,0,0,1-7.07-15l-3.38-1.95L268,270c0,.5-.36.7-.8.45l-4.35-2.51a1.72,1.72,0,0,1-.78-1.35l.08-28.37c0-.51.35-.71.79-.46l4.35,2.51a1.75,1.75,0,0,1,.79,1.37l0,10.7,3.46,2a8.45,8.45,0,0,1,2.46-4.9,6.27,6.27,0,0,1,4.71-1.57,13.55,13.55,0,0,1,6.06,2l.16.09.2.12a25.63,25.63,0,0,1,6.76,5.89A30.21,30.21,0,0,1,296.76,264.17Zm-5.31,9.75a8.08,8.08,0,0,0,1-4.37,15.8,15.8,0,0,0-1-5.52,17.6,17.6,0,0,0-2.71-4.92,14.3,14.3,0,0,0-3.86-3.41,6.82,6.82,0,0,0-3.87-1.05,3.57,3.57,0,0,0-2.73,1.77,8,8,0,0,0-1,4.37,15.81,15.81,0,0,0,1,5.52,17.59,17.59,0,0,0,2.71,4.92,14.32,14.32,0,0,0,3.86,3.41,6.79,6.79,0,0,0,3.86,1,3.57,3.57,0,0,0,2.73-1.77Z" transform="translate(-52.71 -118.6)"/></g><path class="cls-22" d="M166.27,181.38a29,29,0,0,1,6.51,5.27,1.42,1.42,0,0,1,.38,1.43l-1.25,2.43c-.13.25-.42.29-.72.11a1.3,1.3,0,0,1-.25-.19,19,19,0,0,0-3.84-3c-4.49-2.59-9.05-2.28-9.07,4.84-.05,6.45,4.55,12,9,14.56l.19.11a11.9,11.9,0,0,0,4,1.5.77.77,0,0,1,.28.1,1.73,1.73,0,0,1,.73,1l1.12,3.88c.15.54,0,1-.42.94a16.8,16.8,0,0,1-6.65-2.31l-.09-.05c-6.85-4-13.82-12.7-13.79-23,.07-10.75,7-11.66,13.8-7.7Z" transform="translate(-52.71 -118.6)"/><path class="cls-23" d="M186.24,199.31c6,3.51,10.43,11.4,10.37,18.36-.08,6.69-4.86,9.33-10.7,6l-.09-.05c-5.87-3.45-10.57-11.71-10.49-18.43,0-6.89,4.72-9.41,10.8-5.9Zm-.26,18.3c3.08,1.78,5.28.4,5.28-3.25a10.9,10.9,0,0,0-5.19-9.17l-.2-.13-.21-.11c-2.89-1.53-5.15,0-5,3.37v.13a11.62,11.62,0,0,0,5.27,9.11l.1,0Z" transform="translate(-52.71 -118.6)"/><g class="cls-10"><path class="cls-18" d="M212.64,239.25s2.48,5.72,2.41,5.76h0l6.53-3.84a27.94,27.94,0,0,0-1.13-3.46Z" transform="translate(-52.71 -118.6)"/><path class="cls-18" d="M222.94,231.82l-.07,0a2.9,2.9,0,0,1-.68.08,6.75,6.75,0,0,1-.84-.1h0a5,5,0,0,1-.86-.29l-5.16,3c.16.07,6,3.86,6,3.86C221.12,238.49,223.16,231.76,222.94,231.82Z" transform="translate(-52.71 -118.6)"/><path class="cls-24" d="M225.17,233.41c.38,6.93-4,10.2-9.88,7.29v3.81c0,.5-.36.69-.8.44l-3.79-2.19a1.72,1.72,0,0,1-.79-1.36V237.6a23.69,23.69,0,0,1-9.81-17c-.38-6.94,4-10.2,9.88-7.29V209c0-.5.35-.7.8-.44l3.79,2.19a1.74,1.74,0,0,1,.79,1.36v4.3A23.67,23.67,0,0,1,225.17,233.41Zm-5.29-1.52c.35-3.08-1.69-7.23-4.54-9.27l0,11.88c2.4,1.06,4.28,0,4.57-2.62Zm-9.9-.44,0-11.9c-2.64-1.19-4.65.21-4.66,3.27a11.52,11.52,0,0,0,4.62,8.63Z" transform="translate(-52.71 -118.6)"/></g><g class="cls-10"><path class="cls-18" d="M237.88,236.5l2,17.12a.56.56,0,0,1-.23.52l5.16-3a.56.56,0,0,0,.23-.52l0-17.24Z" transform="translate(-52.71 -118.6)"/><path class="cls-25" d="M250.69,230.54l-17.05-9.84a1,1,0,0,0-.72,0c-1.41.72-5,2.95-5,2.95a.42.42,0,0,1,.25-.05s18,15.94,17.89,16l5.16-3a.55.55,0,0,0,.23-.51V231.9A1.45,1.45,0,0,0,250.69,230.54Z" transform="translate(-52.71 -118.6)"/><path class="cls-26" d="M245.53,233.54a1.79,1.79,0,0,1,.78,1.35v4.22c0,.5-.36.7-.8.45L240,236.37l0,17.24c0,.51-.35.71-.79.46l-4-2.33a1.75,1.75,0,0,1-.79-1.37l0-17.08-5.89-3.4a1.72,1.72,0,0,1-.78-1.35v-4.38c0-.5.35-.71.79-.46Z" transform="translate(-52.71 -118.6)"/></g><g class="cls-10"><path class="cls-18" d="M305.31,283.73s2,9.41,2,9.45h0l5.16-3a.57.57,0,0,0,.23-.52l0-7.92Z" transform="translate(-52.71 -118.6)"/><path class="cls-27" d="M311.95,265.9l-4-2.31a.77.77,0,0,0-.78,0l-5,2.89c.07,0,4.73,15.18,4.73,15.18l5.83-6.44,0-8A1.41,1.41,0,0,0,311.95,265.9Z" transform="translate(-52.71 -118.6)"/><g class="cls-10"><g class="cls-28"><g class="cls-10"><path class="cls-29" d="M303.88,280.43l8.83-5.2,7.88,4.55-5.14,4C312.62,282.11,303.88,280.43,303.88,280.43Z" transform="translate(-52.71 -118.6)"/></g></g></g><path class="cls-30" d="M325.46,273.71l-4.07-2.35a.57.57,0,0,0-.64,0l-5.07,2.95c.07,0,5.11,26.67,5.11,26.67l5.16-3a.55.55,0,0,0,.23-.51l.06-22.38A1.64,1.64,0,0,0,325.46,273.71Z" transform="translate(-52.71 -118.6)"/><path class="cls-31" d="M306.78,268.89a1.72,1.72,0,0,1,.79,1.36l0,8,7.88,4.55,0-7.94c0-.51.35-.72.79-.47l4.07,2.35a1.77,1.77,0,0,1,.79,1.39L321,300.47c0,.51-.36.7-.8.45l-4.07-2.35a1.72,1.72,0,0,1-.78-1.37l0-7.92-7.88-4.55,0,7.92c0,.52-.36.72-.8.47-1.38-.81-2.72-1.61-4.07-2.39a1.77,1.77,0,0,1-.78-1.37l.06-22.39c0-.5.35-.7.8-.44Z" transform="translate(-52.71 -118.6)"/></g><g class="cls-10"><g class="cls-10"><g class="cls-32"><g class="cls-10"><path class="cls-6" d="M331.69,307.19l5.16-3-.09.07-5.16,3,.09-.07Z" transform="translate(-52.71 -118.6)"/></g></g></g><path class="cls-6" d="M338.46,298l6.76-2.11-8.39,8.61s-5,3-5.44,2.86Z" transform="translate(-52.71 -118.6)"/><path class="cls-33" d="M336.4,280.08l-4.21-2.43s-.35-.21-.55-.06l-5.16,3c.07,0,5.5,16.5,5.5,16.5l5.16-3,0-12.67A1.69,1.69,0,0,0,336.4,280.08Z" transform="translate(-52.71 -118.6)"/><path class="cls-34" d="M350.22,288.08l-4-2.33a.56.56,0,0,0-.55,0l-5.16,3c.07,0,3,27.83,5.09,26.62l5.16-3a.56.56,0,0,0,.23-.51l.06-22.39A1.59,1.59,0,0,0,350.22,288.08Z" transform="translate(-52.71 -118.6)"/><path class="cls-35" d="M327,280.65l4.19,2.42a1.72,1.72,0,0,1,.79,1.36l0,12.66,8.4-8.34a.51.51,0,0,1,.63,0l4,2.33a1.76,1.76,0,0,1,.79,1.35l-.06,22.39c0,.5-.35.71-.8.45l-4.17-2.41a1.77,1.77,0,0,1-.79-1.37l0-12.64-8.37,8.35a.5.5,0,0,1-.64,0L327,304.86a1.77,1.77,0,0,1-.8-1.38l.06-22.39C326.25,280.6,326.6,280.4,327,280.65Z" transform="translate(-52.71 -118.6)"/></g><g class="cls-10"><path class="cls-18" d="M359.17,306.63l2.05,16.66c0,.25.52,1.54.66,1.46,1.36-.76,5.16-3,5.16-3a.55.55,0,0,0,.23-.51l0-17.27Z" transform="translate(-52.71 -118.6)"/><path class="cls-36" d="M372.87,301.14l-17.06-9.85a.56.56,0,0,0-.55-.06l-5.16,3c.07,0,18.28,15.89,18.13,16l5.16-3a.55.55,0,0,0,.23-.51v-4.22h0A1.65,1.65,0,0,0,372.87,301.14Z" transform="translate(-52.71 -118.6)"/><path class="cls-37" d="M350.65,294.29l17.06,9.85a1.7,1.7,0,0,1,.77,1.35v4.22c0,.48-.34.7-.77.45L362.16,307l0,17.27c0,.5-.35.7-.79.46l-4-2.33a1.75,1.75,0,0,1-.79-1.37l0-17.11-5.89-3.4a1.72,1.72,0,0,1-.79-1.36v-4.38C349.87,294.24,350.21,294,350.65,294.29Z" transform="translate(-52.71 -118.6)"/></g><g class="cls-10"><path class="cls-38" d="M396.5,314.79l-4-2.33a.6.6,0,0,0-.57,0s-5,2.79-5.16,3c-3.48,5.82,5.11,26.62,5.11,26.62,1-.52,5.16-3,5.16-3a.55.55,0,0,0,.23-.51l.06-22.39A1.41,1.41,0,0,0,396.5,314.79Z" transform="translate(-52.71 -118.6)"/><g class="cls-10"><g class="cls-39"><g class="cls-10"><path class="cls-6" d="M378,333.9l5.16-3L383,331l-5.16,3,.09-.07Z" transform="translate(-52.71 -118.6)"/></g></g></g><polygon class="cls-6" points="332.02 206.08 338.79 203.97 330.41 212.31 325.25 215.31 332.02 206.08"/><path class="cls-40" d="M383.43,308.13a1.67,1.67,0,0,0-.79-1.35l-3.9-2.25a1.05,1.05,0,0,0-1.09-.07l-4.91,2.85c.07,0,5.49,16.48,5.49,16.48l5.16-3Z" transform="translate(-52.71 -118.6)"/><path class="cls-41" d="M377.48,309.78a1.72,1.72,0,0,1,.79,1.36l0,12.66,8.42-8.34a.53.53,0,0,1,.64,0l4,2.33a1.76,1.76,0,0,1,.79,1.35l-.06,22.39c0,.5-.36.7-.8.45l-4.17-2.41a1.75,1.75,0,0,1-.79-1.37l0-12.64L378,333.9a.5.5,0,0,1-.64,0l-4.08-2.35a1.74,1.74,0,0,1-.78-1.37l.06-22.39c0-.5.35-.7.79-.45Z" transform="translate(-52.71 -118.6)"/></g><g class="cls-10"><path class="cls-42" d="M254.22,246.91a5.67,5.67,0,0,1,2.56,4.44c0,1.62-1.17,2.27-2.58,1.46a5.62,5.62,0,0,1-2.55-4.42C251.66,246.77,252.81,246.1,254.22,246.91Z" transform="translate(-52.71 -118.6)"/></g></g></svg>