<svg xmlns="http://www.w3.org/2000/svg" xmlns:xlink="http://www.w3.org/1999/xlink" viewBox="0 0 172.65 200"><defs><style>.cls-1{isolation:isolate;}.cls-10,.cls-11,.cls-12,.cls-13,.cls-14,.cls-15,.cls-16,.cls-17,.cls-18,.cls-19,.cls-2,.cls-20,.cls-21,.cls-22,.cls-23,.cls-24,.cls-25,.cls-26,.cls-27,.cls-28,.cls-29,.cls-3,.cls-30,.cls-31,.cls-32,.cls-33,.cls-34,.cls-35,.cls-36,.cls-37,.cls-38,.cls-39,.cls-40,.cls-41,.cls-42,.cls-43,.cls-44,.cls-45,.cls-46,.cls-5,.cls-6,.cls-7,.cls-8,.cls-9{fill-rule:evenodd;}.cls-2{fill:url(#GradientFill_36);}.cls-3{fill:#a1a0a0;}.cls-4{fill:#bfbdbd;}.cls-5{mix-blend-mode:multiply;fill:url(#Безымянный_градиент_741);}.cls-6{fill:#636263;}.cls-7{fill:#484747;}.cls-8{fill:#6f6e6e;}.cls-9{fill:#5d5c5c;}.cls-10{fill:#015354;}.cls-11{fill:#9c9a9b;}.cls-12{fill:#ececeb;}.cls-13{fill:#f2f2f0;}.cls-14{fill:url(#GradientFill_27);}.cls-15{fill:url(#GradientFill_36-2);}.cls-16{fill:url(#Безымянный_градиент_387);}.cls-17{fill:url(#GradientFill_36-3);}.cls-18{fill:url(#GradientFill_36-4);}.cls-19{fill:#69c4a1;}.cls-20{fill:#048789;}.cls-21{fill:url(#Безымянный_градиент_490);}.cls-22{fill:url(#GradientFill_36-5);}.cls-23{fill:url(#Безымянный_градиент_490-2);}.cls-24{fill:url(#Безымянный_градиент_705);}.cls-25{fill:url(#GradientFill_36-6);}.cls-26{fill:url(#GradientFill_36-7);}.cls-27{fill:#badfbf;}.cls-28{fill:url(#GradientFill_36-8);}.cls-29{fill:#6a9f83;}.cls-30{fill:url(#GradientFill_25);}.cls-31{fill:url(#Безымянный_градиент_63);}.cls-32{fill:url(#GradientFill_36-9);}.cls-33{fill:url(#Безымянный_градиент_63-2);}.cls-34{fill:url(#Безымянный_градиент_697);}.cls-35{fill:url(#GradientFill_36-10);}.cls-36{fill:url(#Безымянный_градиент_697-2);}.cls-37{fill:url(#Безымянный_градиент_736);}.cls-38{fill:url(#Безымянный_градиент_63-3);}.cls-39{fill:url(#GradientFill_36-11);}.cls-40{fill:url(#Безымянный_градиент_743);}.cls-41{fill:url(#GradientFill_36-12);}.cls-42{fill:#8ad1ce;}.cls-43{fill:url(#Безымянный_градиент_387-2);}.cls-44{fill:url(#Безымянный_градиент_387-3);}.cls-45{fill:url(#Безымянный_градиент_387-4);}.cls-46{fill:url(#Безымянный_градиент_387-5);}</style><linearGradient id="GradientFill_36" x1="37.03" y1="76.17" x2="23.33" y2="76.17" gradientUnits="userSpaceOnUse"><stop offset="0" stop-color="#b4b2b2"/><stop offset="1" stop-color="#bfbdbd"/></linearGradient><linearGradient id="Безымянный_градиент_741" x1="47.6" y1="80.09" x2="39.12" y2="80.09" gradientUnits="userSpaceOnUse"><stop offset="0" stop-color="#484747"/><stop offset="1" stop-color="#b6b7b7"/></linearGradient><linearGradient id="GradientFill_27" x1="78.96" y1="149.02" x2="91.19" y2="169.37" gradientUnits="userSpaceOnUse"><stop offset="0" stop-color="#60373a"/><stop offset="1" stop-color="#462024"/></linearGradient><linearGradient id="GradientFill_36-2" x1="45.52" y1="120.58" x2="67.88" y2="120.58" xlink:href="#GradientFill_36"/><linearGradient id="Безымянный_градиент_387" x1="36.43" y1="119.62" x2="66.95" y2="119.62" gradientUnits="userSpaceOnUse"><stop offset="0" stop-color="#34b3b7"/><stop offset="1" stop-color="#2b8e8d"/></linearGradient><linearGradient id="GradientFill_36-3" x1="68.22" y1="133.68" x2="90.58" y2="133.68" xlink:href="#GradientFill_36"/><linearGradient id="GradientFill_36-4" x1="35.54" y1="131.26" x2="67.88" y2="131.26" xlink:href="#GradientFill_36"/><linearGradient id="Безымянный_градиент_490" x1="26.45" y1="124.96" x2="66.95" y2="124.96" gradientUnits="userSpaceOnUse"><stop offset="0" stop-color="#2b8e8d"/><stop offset="1" stop-color="#34b3b7"/></linearGradient><linearGradient id="GradientFill_36-5" x1="58.24" y1="144.36" x2="90.58" y2="144.36" xlink:href="#GradientFill_36"/><linearGradient id="Безымянный_градиент_490-2" x1="70.58" y1="144.77" x2="89.65" y2="144.77" xlink:href="#Безымянный_градиент_490"/><linearGradient id="Безымянный_градиент_705" x1="49.15" y1="138.06" x2="89.65" y2="138.06" gradientUnits="userSpaceOnUse"><stop offset="0" stop-color="#47beaa"/><stop offset="1" stop-color="#2cbcb4"/></linearGradient><linearGradient id="GradientFill_36-6" x1="125.42" y1="175.84" x2="137.65" y2="196.2" xlink:href="#GradientFill_36"/><linearGradient id="GradientFill_36-7" x1="90.92" y1="146.78" x2="113.28" y2="146.78" xlink:href="#GradientFill_36"/><linearGradient id="GradientFill_36-8" x1="114.67" y1="160.5" x2="137.04" y2="160.5" xlink:href="#GradientFill_36"/><linearGradient id="GradientFill_25" x1="131.19" y1="165.88" x2="132.15" y2="166.85" gradientUnits="userSpaceOnUse"><stop offset="0" stop-color="#893835"/><stop offset="1" stop-color="#631d15"/></linearGradient><linearGradient id="Безымянный_градиент_63" x1="105.58" y1="159.55" x2="136.1" y2="159.55" gradientUnits="userSpaceOnUse"><stop offset="0" stop-color="#059fa6"/><stop offset="1" stop-color="#047276"/></linearGradient><linearGradient id="GradientFill_36-9" x1="80.95" y1="157.46" x2="113.28" y2="157.46" xlink:href="#GradientFill_36"/><linearGradient id="Безымянный_градиент_63-2" x1="93.29" y1="157.88" x2="112.35" y2="157.88" xlink:href="#Безымянный_градиент_63"/><linearGradient id="Безымянный_градиент_697" x1="71.85" y1="151.17" x2="112.35" y2="151.17" gradientUnits="userSpaceOnUse"><stop offset="0" stop-color="#29ba9f"/><stop offset="1" stop-color="#05a2a7"/></linearGradient><linearGradient id="GradientFill_36-10" x1="103.64" y1="170.56" x2="126" y2="170.56" xlink:href="#GradientFill_36"/><linearGradient id="Безымянный_градиент_697-2" x1="94.55" y1="174.99" x2="115.98" y2="174.99" xlink:href="#Безымянный_градиент_697"/><linearGradient id="Безымянный_градиент_736" x1="115.98" y1="176.06" x2="125.52" y2="176.06" gradientUnits="userSpaceOnUse"><stop offset="0" stop-color="#014b2d"/><stop offset="1" stop-color="#047276"/></linearGradient><linearGradient id="Безымянный_градиент_63-3" x1="94.55" y1="164.27" x2="135.05" y2="164.27" xlink:href="#Безымянный_градиент_63"/><linearGradient id="GradientFill_36-11" x1="156.7" y1="133.31" x2="131.62" y2="133.31" xlink:href="#GradientFill_36"/><linearGradient id="Безымянный_градиент_743" x1="101.69" y1="116.58" x2="125.55" y2="116.58" gradientUnits="userSpaceOnUse"><stop offset="0" stop-color="#b4b2b2"/><stop offset="1" stop-color="#8c8989"/></linearGradient><linearGradient id="GradientFill_36-12" x1="103.53" y1="117.79" x2="125.55" y2="117.79" xlink:href="#GradientFill_36"/><linearGradient id="Безымянный_градиент_387-2" x1="0.95" y1="77.01" x2="125.55" y2="77.01" xlink:href="#Безымянный_градиент_387"/><linearGradient id="Безымянный_градиент_387-3" x1="102.81" y1="108.21" x2="125.55" y2="108.21" xlink:href="#Безымянный_градиент_387"/><linearGradient id="Безымянный_градиент_387-4" x1="102.81" y1="126.95" x2="103.53" y2="126.95" xlink:href="#Безымянный_градиент_387"/><linearGradient id="Безымянный_градиент_387-5" x1="0" y1="97.48" x2="102.81" y2="97.48" xlink:href="#Безымянный_градиент_387"/></defs><title>marketplace</title><g class="cls-1"><g id="Layer_2" data-name="Layer 2"><g id="Layer_1-2" data-name="Layer 1"><polygon class="cls-2" points="22.75 137.31 45.76 124.03 45.76 15.03 22.75 28.31 22.75 137.31"/><path class="cls-3" d="M141.84,164.48c.51-3.18,1-6.36,1.56-9.55L121,142l22.37,12.92c2.26-13.72,4.46-27.46,4.53-41.39a4.67,4.67,0,0,1,.6-2.35L142.45,91.7,38.73,31.83v.93c7,22.44,14,45,21,67.35L38,44.08V28.31l-.7-1.8L36,25.77v17l23.8,61.36v11.54l.77,2h0l4.32,2.5c2.38,1.37,4.32.55,4.32-1.83,0,2.38,1.94,5.44,4.32,6.82h0c2.38,1.37,4.32.55,4.32-1.83,0,2.38,1.94,5.44,4.32,6.82h0c2.38,1.37,4.32.55,4.32-1.83,0,2.38,1.94,5.44,4.32,6.82h0c2.38,1.37,4.32.55,4.32-1.83,0,2.38,1.94,5.45,4.32,6.82h0c2.38,1.37,4.32.55,4.32-1.83,0,2.38,1.94,5.44,4.32,6.82h0c2.38,1.37,4.32.55,4.32-1.83,0,2.38,1.94,5.44,4.32,6.82h0c2.38,1.37,4.32.55,4.32-1.83,0,2.38,1.94,5.45,4.32,6.82h0c2.38,1.37,4.32.55,4.32-1.83,0,2.38,1.94,5.44,4.32,6.82h0c2.38,1.37,4.32.55,4.32-1.83A8.88,8.88,0,0,0,141.84,164.48Z"/><rect class="cls-4" x="38.76" y="75.61" width="57.5" height="52.53"/><polygon class="cls-5" points="38.76 128.14 52.99 119.92 52.99 32.05 38.76 40.26 38.76 128.14"/><polygon class="cls-6" points="146.59 184.59 43.78 125.23 43.78 27.33 146.59 86.69 146.59 184.59"/><path class="cls-7" d="M48.81,128.14l-5-2.9V27.33l5,2.9V40.89l97.78,56.45h0V160h0V169c-.79.52-2,.44-3.35-.34h0c-2.38-1.37-4.32-4.44-4.32-6.82,0,2.38-1.94,3.2-4.32,1.83h0c-2.38-1.37-4.32-4.44-4.32-6.82,0,2.38-1.94,3.2-4.32,1.83h0c-2.38-1.37-4.32-4.44-4.32-6.82,0,2.38-1.94,3.2-4.32,1.83h0c-2.38-1.37-4.32-4.44-4.32-6.82,0,2.38-1.94,3.2-4.32,1.83h0c-2.38-1.37-4.32-4.44-4.32-6.82,0,2.38-1.94,3.2-4.32,1.83h0c-2.38-1.37-4.32-4.44-4.32-6.82,0,2.38-1.94,3.2-4.32,1.83h0c-2.38-1.37-4.32-4.44-4.32-6.82,0,2.38-1.94,3.2-4.32,1.83h0c-2.38-1.37-4.32-4.44-4.32-6.82,0,2.38-1.94,3.2-4.32,1.83l-4.32-2.5h0l-.77-2V112.66h0l-20.19-52v67.52ZM146.59,160h0ZM48.81,56.83l20.1,51.82-.31-1v0l-.3-1,0-.09-.28-.91,0-.14-.27-.87-.06-.18-.26-.82-.07-.23-.24-.78-.08-.27-.23-.73-.1-.32-.21-.69-.11-.36-.2-.64L66,99.2l-.19-.6-.14-.45-.17-.55-.15-.5-.16-.51L65,96l-.14-.46L64.66,95l-.13-.42-.2-.63-.12-.37L64,92.89l-.1-.33-.23-.72-.09-.28-.24-.77-.07-.24L63,89.74,63,89.55l-.27-.86,0-.15-.28-.9,0-.1-.3-.95,0-.06-.31-1h0l-.31-1v0l-.3-1,0-.08-.29-.93,0-.12-.28-.88-.05-.17-.26-.84-.07-.21-.25-.79-.08-.26-.23-.75-.09-.3-.22-.7-.11-.35-.21-.66-.12-.39-.19-.61L58.43,75l-.18-.57-.15-.49-.16-.52-.17-.53-.15-.48-.18-.58-.14-.43-.19-.62L57,70.4l-.21-.67-.11-.34-.22-.71-.09-.3-.24-.76L56,67.37l-.25-.8-.06-.21-.26-.85-.05-.16-.28-.89,0-.12-.29-.94,0-.07-.31-1v0l-.31-1v0l-.31-1,0-.07-.29-.94,0-.11-.28-.9,0-.16-.27-.85-.06-.2-.25-.81L52.51,56l-.24-.76L52.18,55,52,54.27l-.11-.34-.21-.67-.12-.38-.2-.63-.13-.43L51,51.24l-.15-.47-.17-.54-.16-.52-.15-.49-.18-.56-.14-.45-.19-.61-.12-.4-.2-.65-.11-.35-.22-.7-.1-.31-.23-.74-.08-.26Z"/><polygon class="cls-8" points="68.89 65.93 46.15 123.86 68.89 136.99 68.89 65.93"/><polygon class="cls-7" points="46.15 51.26 46.15 51.3 46.15 123.86 48.81 125.4 54.88 125.4 50.3 55.33 47.42 51.99 46.15 51.26"/><polygon class="cls-9" points="47.42 51.99 47.42 123.13 51.34 125.4 68.89 108.64 68.89 64.39 47.42 51.99"/><path class="cls-10" d="M51.34,55.33v4l17.54,45.23V103Q61.78,80.15,54.62,57.22l-3.28-1.89Zm0,7.82,17.54,45.23v27.15L51.34,125.4Z"/><polygon class="cls-8" points="68.89 46.07 46.15 48.52 68.89 61.65 68.89 46.07"/><polygon class="cls-7" points="46.15 31.39 46.15 31.44 46.15 48.52 48.81 50.06 54.88 50.06 50.3 35.47 47.42 32.13 46.15 31.39"/><polygon class="cls-9" points="47.42 32.13 47.42 47.79 51.34 50.06 68.89 45.59 68.89 44.52 47.42 32.13"/><polygon class="cls-11" points="51.34 35.47 51.34 50.06 68.89 60.19 68.89 45.59 51.34 35.47"/><polygon class="cls-7" points="71.26 65.75 71.26 65.8 71.26 138.36 77.33 138.36 75.41 69.83 72.53 66.49 71.26 65.75"/><polygon class="cls-10" points="72.53 66.49 72.53 137.63 94 150.03 94 141.21 94 78.88 72.53 66.49"/><path class="cls-11" d="M73.79,129.6v8.77L94,150v-8.77l-.08,0h0c-2.38-1.37-4.32-4.44-4.32-6.82,0,2.38-1.94,3.2-4.32,1.83h0c-2.38-1.37-4.32-4.44-4.32-6.82,0,2.38-1.94,3.2-4.32,1.83Z"/><polygon class="cls-8" points="94 60.56 71.26 63.02 94 76.15 94 60.56"/><polygon class="cls-7" points="71.26 45.89 71.26 45.94 71.26 63.02 77.33 63.02 75.41 49.97 72.53 46.62 71.26 45.89"/><polygon class="cls-9" points="72.53 46.62 72.53 62.29 73.79 63.02 94 60.09 94 59.02 72.53 46.62"/><polygon class="cls-11" points="73.79 48.43 73.79 63.02 94 74.68 94 60.09 73.79 48.43"/><polygon class="cls-8" points="119.11 94.92 97.64 153.59 119.11 165.99 119.11 94.92"/><polygon class="cls-10" points="97.64 80.98 97.64 152.13 110.63 159.63 119.11 155.71 119.11 93.38 97.64 80.98"/><path class="cls-11" d="M98.9,142.07v10.79l11.73,6.77,8.48,4.89V155.7a8.92,8.92,0,0,1-3.59-6.33c0,2.38-1.94,3.2-4.32,1.83h0c-2.38-1.37-4.32-4.44-4.32-6.82,0,2.38-1.94,3.2-4.32,1.83h0A9.56,9.56,0,0,1,98.9,142.07Z"/><polygon class="cls-8" points="119.11 75.06 96.37 77.52 119.11 90.64 119.11 75.06"/><polygon class="cls-7" points="96.37 60.39 96.37 60.43 96.37 77.52 102.44 77.51 100.52 64.46 97.64 61.12 96.37 60.39"/><polygon class="cls-9" points="97.64 61.12 97.64 76.78 98.9 77.52 119.11 74.59 119.11 73.52 97.64 61.12"/><polygon class="cls-11" points="98.9 62.92 98.9 77.52 119.11 89.18 119.11 74.59 98.9 62.92"/><polygon class="cls-8" points="144.22 109.42 121.48 167.35 144.22 180.49 144.22 109.42"/><polygon class="cls-7" points="121.48 94.75 121.48 94.79 121.48 167.35 127.55 167.35 125.63 98.82 122.75 95.48 121.48 94.75"/><polygon class="cls-10" points="122.75 95.48 122.75 166.62 124.01 167.35 144.22 170.21 144.22 107.88 122.75 95.48"/><path class="cls-11" d="M124,155.41v11.95L144.22,179V170a8.63,8.63,0,0,1-2.77-5.63c0,2.38-1.94,3.2-4.32,1.83h0c-2.38-1.37-4.32-4.44-4.32-6.82,0,2.38-1.94,3.2-4.32,1.83h0c-2.38-1.37-4.32-4.44-4.32-6.82A3.37,3.37,0,0,1,124,155.41Z"/><polygon class="cls-7" points="144.22 89.56 121.48 92.01 144.22 105.14 144.22 89.56"/><polygon class="cls-7" points="121.48 74.89 121.48 74.93 121.48 92.01 127.55 92.01 125.63 78.96 122.75 75.62 121.48 74.89"/><polygon class="cls-9" points="122.75 75.62 122.75 91.28 124.01 92.01 144.22 89.09 144.22 88.02 122.75 75.62"/><polygon class="cls-9" points="124.01 77.42 124.01 92.01 144.22 103.68 144.22 89.09 124.01 77.42"/><polygon class="cls-8" points="146.59 82.41 48.81 25.95 38.76 25.95 52.37 36.06 141.57 85.31 146.59 82.41"/><polygon class="cls-7" points="48.81 25.95 43.78 23.05 38.76 25.95 48.81 25.95"/><polygon class="cls-6" points="146.58 88.2 32.72 22.46 32.72 25.73 146.58 91.47 146.58 88.2"/><polygon class="cls-12" points="24.36 130.34 70.83 157.16 70.83 171 24.36 144.17 24.36 130.34"/><polygon class="cls-13" points="24.36 130.34 45.27 107.95 91.74 134.78 70.83 157.16 24.36 130.34"/><polygon class="cls-14" points="91.74 134.78 70.83 157.16 70.83 171 91.74 158.92 91.74 134.78"/><polygon class="cls-15" points="58.79 131.54 67.88 121.81 46.45 109.44 45.52 109.62 57.86 131.72 58.79 131.54"/><polygon class="cls-16" points="36.43 118.3 57.86 130.67 66.95 120.94 45.52 108.57 36.43 118.3"/><polygon class="cls-17" points="81.49 144.64 90.58 134.91 69.15 122.54 68.22 122.72 80.56 144.82 81.49 144.64"/><polygon class="cls-13" points="59.13 131.4 80.56 143.77 89.65 134.05 68.22 121.67 59.13 131.4"/><polygon class="cls-18" points="48.82 142.22 67.88 121.81 36.48 120.12 35.55 120.3 47.88 142.4 48.82 142.22"/><polygon class="cls-19" points="26.45 128.98 41.37 136.11 47.88 141.35 47.88 142.4 26.45 130.02 26.45 128.98"/><polygon class="cls-20" points="66.95 120.94 50.02 137.06 47.88 141.35 47.88 142.4 66.95 121.99 66.95 120.94"/><polygon class="cls-21" points="26.45 128.98 47.88 141.35 66.95 120.94 45.52 108.57 26.45 128.98"/><polygon class="cls-22" points="71.51 155.32 90.58 134.91 59.17 133.22 58.24 133.4 70.58 155.5 71.51 155.32"/><polygon class="cls-19" points="49.15 142.08 64.06 149.21 70.58 154.45 70.58 155.5 49.15 143.13 49.15 142.08"/><polygon class="cls-23" points="89.65 134.05 72.71 150.16 70.58 154.45 70.58 155.5 89.65 135.09 89.65 134.05"/><polygon class="cls-24" points="49.15 142.08 70.58 154.45 89.65 134.05 68.22 121.67 49.15 142.08"/><polygon class="cls-12" points="70.82 157.16 117.28 183.99 117.28 197.82 70.82 170.99 70.82 157.16"/><polygon class="cls-13" points="70.82 157.16 91.73 134.78 138.2 161.6 117.28 183.98 70.82 157.16"/><polygon class="cls-25" points="138.2 161.6 117.29 183.99 117.28 197.82 138.19 185.74 138.2 161.6"/><polygon class="cls-26" points="104.19 157.75 113.28 148.02 91.85 135.64 90.92 135.82 103.26 157.92 104.19 157.75"/><polygon class="cls-27" points="82.89 145.12 104.32 157.5 113.41 147.77 91.98 135.39 82.89 145.12"/><polygon class="cls-28" points="127.95 171.46 137.04 161.74 115.61 149.36 114.67 149.54 127.01 171.64 127.95 171.46"/><polygon class="cls-29" points="105.58 158.22 120.49 165.35 127.01 170.6 127.01 171.64 105.58 159.27 105.58 158.22"/><polygon class="cls-30" points="136.1 160.87 129.15 166.3 127.01 170.6 127.01 171.64 136.1 161.91 136.1 160.87"/><polygon class="cls-31" points="105.58 158.22 127.01 170.6 136.1 160.87 114.67 148.5 105.58 158.22"/><polygon class="cls-32" points="94.22 168.43 113.28 148.02 81.88 146.32 80.94 146.5 93.29 168.6 94.22 168.43"/><polygon class="cls-19" points="71.85 155.19 86.77 162.32 93.29 167.56 93.29 168.6 71.86 156.23 71.85 155.19"/><polygon class="cls-33" points="112.35 147.15 95.42 163.26 93.29 167.56 93.29 168.6 112.35 148.19 112.35 147.15"/><polygon class="cls-34" points="71.85 155.19 93.29 167.56 112.35 147.15 90.92 134.78 71.85 155.19"/><polygon class="cls-35" points="116.91 181.53 126 171.8 104.57 159.42 103.64 159.6 115.98 181.7 116.91 181.53"/><polygon class="cls-36" points="94.55 168.29 109.46 175.42 115.98 180.66 115.98 181.7 94.55 169.33 94.55 168.29"/><polygon class="cls-37" points="125.52 170.41 118.11 176.37 115.98 180.66 115.98 181.7 125.52 171.45 125.52 170.41"/><polygon class="cls-38" points="94.55 168.29 115.98 180.66 135.05 160.25 113.62 147.88 94.55 168.29"/><polygon class="cls-39" points="130.57 200 172.65 175.63 172.65 66.63 130.57 90.99 130.57 200"/><polygon class="cls-13" points="15.24 24.37 130.57 91 172.65 66.63 57.32 0 15.24 24.37"/><polygon class="cls-12" points="15.5 133.48 15.5 24.61 130.57 91 130.57 199.87 125.55 196.67 125.55 93.86 22.74 34.5 22.74 137.31 15.5 133.48"/><polygon class="cls-40" points="125.55 109.33 101.69 123.1 102.97 123.84 116.73 116.49 125.55 110.94 125.55 109.33"/><polygon class="cls-41" points="125.55 110.81 103.53 123.52 103.53 124.78 125.55 112.06 125.55 110.81"/><polygon class="cls-42" points="102.81 120.94 124.64 94.67 124.64 93.06 22.74 34.22 0 61.59 82.55 110.53 102.81 120.94"/><polygon class="cls-43" points="103.76 119.81 125.55 93.58 124.64 93.06 22.74 34.22 0.95 60.45 103.76 119.81"/><polygon class="cls-42" points="102.81 120.94 102.81 126.17 0 66.81 0 61.59 82.95 109.48 102.81 120.94"/><polygon class="cls-44" points="125.55 94.53 103.53 121.02 103.53 122.42 102.81 122.84 102.81 120.94 125.55 93.58 125.55 94.53"/><polygon class="cls-45" points="103.53 122.42 103.53 131.07 102.81 131.48 102.81 122.84 103.53 122.42"/><path class="cls-46" d="M0,63.48l8.64,5,8.64,5,8.64,5,8.64,5,8.64,5,8.64,5,8.64,5,8.64,5,8.64,5,8.64,5,8.64,5,7.73,4.47v8.64l-3.41-2c-2.38-1.37-4.32-4.44-4.32-6.82,0,2.38-1.94,3.2-4.32,1.83h0c-2.38-1.37-4.32-4.44-4.32-6.82,0,2.38-1.94,3.2-4.32,1.83h0c-2.38-1.37-4.32-4.44-4.32-6.82,0,2.38-1.94,3.2-4.32,1.83h0c-2.38-1.37-4.32-4.44-4.32-6.82,0,2.38-1.94,3.2-4.32,1.83h0c-2.38-1.37-4.32-4.44-4.32-6.82,0,2.38-1.94,3.2-4.32,1.83h0c-2.38-1.37-4.32-4.44-4.32-6.82,0,2.38-1.94,3.2-4.32,1.83h0c-2.38-1.37-4.32-4.44-4.32-6.82,0,2.38-1.94,3.2-4.32,1.83h0c-2.38-1.37-4.32-4.44-4.32-6.82,0,2.38-1.94,3.2-4.32,1.83h0c-2.38-1.37-4.32-4.44-4.32-6.82,0,2.38-1.94,3.2-4.32,1.83h0c-2.38-1.37-4.32-4.44-4.32-6.82,0,2.38-1.94,3.2-4.32,1.83h0c-2.38-1.37-4.32-4.44-4.32-6.82,0,2.38-1.94,3.2-4.32,1.83L0,72.13Z"/><path class="cls-42" d="M26.1,36.16,29.37,38,8.71,62.92,5.44,61Z"/><path class="cls-42" d="M39.36,43.82l3.27,1.89L22,70.57,18.7,68.68Z"/><path class="cls-42" d="M52.62,51.47l3.27,1.89L35.23,78.23,32,76.34Z"/><path class="cls-42" d="M65.88,59.13,69.15,61,48.49,85.88,45.22,84Z"/><path class="cls-42" d="M79.14,66.78l3.27,1.89L61.75,93.54l-3.27-1.89Z"/><path class="cls-42" d="M92.4,74.44l3.27,1.89L75,101.2l-3.27-1.89Z"/><path class="cls-42" d="M105.66,82.1,108.93,84,88.27,108.85,85,107Z"/><path class="cls-42" d="M109,83.91l3.27,1.89L91.57,110.66l-3.27-1.89Z"/><path class="cls-42" d="M95.63,76.37l3.27,1.89L78.24,103.13,75,101.24Z"/><path class="cls-42" d="M82.49,68.72l3.27,1.89L65.1,95.47l-3.27-1.89Z"/><path class="cls-42" d="M69.25,61.06,72.53,63,51.86,87.82l-3.27-1.89Z"/><path class="cls-42" d="M55.8,53.41l3.27,1.89L38.4,80.16l-3.27-1.89Z"/><path class="cls-42" d="M42.49,45.75l3.27,1.89L25.09,72.51l-3.27-1.89Z"/><path class="cls-42" d="M29.44,38.09,32.72,40,12.05,64.85,8.78,63Z"/><path class="cls-42" d="M118.92,89.75l3.27,1.89-20.67,24.87-3.27-1.89Z"/></g></g></g></svg>