<svg xmlns="http://www.w3.org/2000/svg" xmlns:xlink="http://www.w3.org/1999/xlink" viewBox="0 0 396.51 240.52"><defs><style>.cls-1{isolation:isolate;}.cls-2{fill:#c4c4c4;}.cls-10,.cls-11,.cls-12,.cls-13,.cls-14,.cls-15,.cls-16,.cls-17,.cls-18,.cls-19,.cls-2,.cls-20,.cls-21,.cls-22,.cls-23,.cls-24,.cls-25,.cls-26,.cls-27,.cls-28,.cls-29,.cls-3,.cls-30,.cls-31,.cls-32,.cls-33,.cls-34,.cls-35,.cls-36,.cls-37,.cls-38,.cls-39,.cls-4,.cls-40,.cls-41,.cls-42,.cls-43,.cls-44,.cls-5,.cls-6,.cls-7,.cls-8,.cls-9{fill-rule:evenodd;}.cls-3{fill:url(#linear-gradient);}.cls-4{fill:url(#linear-gradient-2);}.cls-5{fill:url(#linear-gradient-3);}.cls-6{fill:url(#linear-gradient-4);}.cls-7{fill:url(#linear-gradient-5);}.cls-8{fill:url(#linear-gradient-6);}.cls-9{fill:url(#linear-gradient-7);}.cls-10{fill:url(#linear-gradient-8);}.cls-11{fill:url(#linear-gradient-9);}.cls-12{fill:url(#linear-gradient-10);}.cls-13{fill:url(#linear-gradient-11);}.cls-14{fill:url(#linear-gradient-12);}.cls-15{fill:url(#linear-gradient-13);}.cls-16{fill:url(#linear-gradient-14);}.cls-17{fill:url(#linear-gradient-15);}.cls-18{fill:url(#linear-gradient-16);}.cls-19{fill:url(#linear-gradient-17);}.cls-20{fill:url(#linear-gradient-18);}.cls-21{fill:url(#linear-gradient-19);}.cls-22{fill:url(#linear-gradient-20);}.cls-23{fill:url(#Безымянный_градиент_650);}.cls-24{fill:url(#linear-gradient-21);}.cls-25{fill:url(#linear-gradient-22);}.cls-26{fill:url(#linear-gradient-23);}.cls-27{fill:url(#linear-gradient-24);}.cls-28{fill:url(#linear-gradient-25);}.cls-29{fill:url(#linear-gradient-26);}.cls-30{fill:url(#linear-gradient-27);}.cls-31{fill:url(#linear-gradient-28);}.cls-32{fill:url(#linear-gradient-29);}.cls-33{fill:url(#linear-gradient-30);}.cls-34{fill:url(#linear-gradient-31);}.cls-35{fill:url(#linear-gradient-32);}.cls-36{fill:url(#linear-gradient-33);}.cls-37{fill:url(#linear-gradient-34);}.cls-38{fill:url(#linear-gradient-35);}.cls-39{fill:url(#linear-gradient-36);}.cls-40{fill:url(#linear-gradient-37);}.cls-41{fill:url(#linear-gradient-38);}.cls-42{fill:url(#linear-gradient-39);}.cls-43{fill:url(#linear-gradient-40);}.cls-44{fill:url(#Безымянный_градиент_3084);}.cls-45{fill:#e0e0d9;}.cls-45,.cls-79{mix-blend-mode:multiply;}.cls-46{fill:url(#GradientFill_136);}.cls-47{fill:#3babbf;}.cls-48{fill:#e9e8e7;}.cls-49{fill:url(#GradientFill_121);}.cls-50{fill:url(#GradientFill_121-2);}.cls-51{fill:url(#GradientFill_121-3);}.cls-52{fill:url(#GradientFill_121-4);}.cls-53{fill:url(#GradientFill_121-5);}.cls-54{fill:url(#GradientFill_136-2);}.cls-55{fill:url(#Безымянный_градиент_119);}.cls-56{fill:url(#GradientFill_136-3);}.cls-57{fill:url(#GradientFill_121-6);}.cls-58{fill:url(#GradientFill_121-7);}.cls-59{fill:url(#GradientFill_121-8);}.cls-60{fill:url(#GradientFill_121-9);}.cls-61{fill:#019e87;}.cls-62{fill:url(#Безымянный_градиент_4179);}.cls-63{fill:url(#Безымянный_градиент_4179-2);}.cls-64{fill:#0b7c7b;}.cls-65{fill:#ffe2bf;}.cls-66{fill:#e6e6e5;}.cls-67{fill:url(#GradientFill_121-10);}.cls-68{fill:url(#GradientFill_121-11);}.cls-69{fill:url(#Безымянный_градиент_4179-3);}.cls-70{fill:#029f9d;}.cls-71{fill:#107b86;}.cls-72{fill:#fff;}.cls-73{fill:url(#Безымянный_градиент_4179-4);}.cls-74{fill:url(#GradientFill_136-4);}.cls-75{fill:#4e4e4e;}.cls-76{fill:url(#GradientFill_121-12);}.cls-77{fill:url(#GradientFill_136-5);}.cls-78{fill:url(#GradientFill_121-13);}.cls-79{fill:#b4b4b4;}.cls-80{fill:url(#GradientFill_121-14);}.cls-81{fill:url(#GradientFill_121-15);}.cls-82{fill:url(#GradientFill_121-16);}.cls-83{fill:url(#GradientFill_121-17);}.cls-84{fill:url(#GradientFill_121-18);}.cls-85{fill:url(#GradientFill_121-19);}.cls-86{fill:url(#GradientFill_121-20);}.cls-87{fill:url(#GradientFill_121-21);}.cls-88{fill:url(#GradientFill_121-22);}.cls-89{fill:url(#GradientFill_121-23);}.cls-90{fill:url(#GradientFill_121-24);}.cls-91{fill:#cfcfce;}.cls-92{fill:url(#GradientFill_121-25);}.cls-93{fill:url(#Безымянный_градиент_130);}.cls-94{fill:url(#Безымянный_градиент_136);}.cls-95{fill:url(#Безымянный_градиент_136-2);}.cls-96{fill:url(#Безымянный_градиент_136-3);}.cls-97{fill:url(#Безымянный_градиент_136-4);}.cls-98{fill:url(#Безымянный_градиент_136-5);}.cls-99{fill:url(#Безымянный_градиент_136-6);}.cls-100{fill:url(#Безымянный_градиент_136-7);}.cls-101{fill:url(#Безымянный_градиент_136-8);}.cls-102{fill:url(#GradientFill_121-26);}.cls-103{fill:url(#Безымянный_градиент_130-2);}.cls-104{fill:url(#GradientFill_121-27);}.cls-105{fill:url(#Безымянный_градиент_130-3);}.cls-106{fill:url(#Безымянный_градиент_136-9);}.cls-107{fill:url(#GradientFill_121-28);}.cls-108{fill:#7c7b7b;opacity:0.3;mix-blend-mode:screen;}.cls-109{fill:#676767;}.cls-110{fill:#272626;}.cls-111{fill:url(#GradientFill_136-6);}.cls-112{fill:#efefec;}.cls-113{fill:#c6d0cd;}.cls-114{fill:#76999e;}.cls-115{fill:#bdccd3;}.cls-116{fill:#9bbaba;}.cls-117{fill:url(#Безымянный_градиент_310);}.cls-118{fill:#b0c2ca;}.cls-119{fill:#588389;}.cls-120{fill:#f0f0eb;}.cls-121{fill:url(#Безымянный_градиент_310-2);}.cls-122{fill:#abbec7;}.cls-123{fill:url(#Безымянный_градиент_310-3);}.cls-124{fill:#e7ccad;}.cls-125{fill:url(#GradientFill_121-29);}.cls-126{fill:#c0aa90;}.cls-127{fill:url(#Безымянный_градиент_236);}.cls-128{fill:url(#Безымянный_градиент_314);}.cls-129{fill:url(#GradientFill_136-7);}.cls-130{fill:url(#GradientFill_136-8);}.cls-131{fill:url(#Безымянный_градиент_310-4);}.cls-132{fill:url(#Безымянный_градиент_310-5);}.cls-133{fill:url(#Безымянный_градиент_310-6);}.cls-134{fill:url(#GradientFill_121-30);}.cls-135{fill:url(#Безымянный_градиент_236-2);}.cls-136{fill:url(#Безымянный_градиент_314-2);}.cls-137{fill:url(#GradientFill_136-9);}.cls-138{fill:url(#GradientFill_136-10);}.cls-139{fill:url(#Безымянный_градиент_310-7);}.cls-140{fill:url(#Безымянный_градиент_310-8);}.cls-141{fill:url(#Безымянный_градиент_310-9);}.cls-142{fill:url(#GradientFill_121-31);}.cls-143{fill:url(#Безымянный_градиент_236-3);}.cls-144{fill:url(#Безымянный_градиент_314-3);}.cls-145{fill:url(#GradientFill_136-11);}.cls-146{fill:url(#GradientFill_136-12);}.cls-147{fill:url(#Безымянный_градиент_310-10);}.cls-148{fill:url(#Безымянный_градиент_310-11);}.cls-149{fill:url(#Безымянный_градиент_310-12);}.cls-150{fill:url(#GradientFill_121-32);}.cls-151{fill:url(#Безымянный_градиент_236-4);}.cls-152{fill:url(#Безымянный_градиент_314-4);}.cls-153{fill:url(#GradientFill_136-13);}</style><linearGradient id="linear-gradient" x1="3.7" y1="127.52" x2="394.73" y2="127.52" gradientUnits="userSpaceOnUse"><stop offset="0" stop-color="#c6c6c6"/><stop offset="1" stop-color="#c5c4c4"/></linearGradient><linearGradient id="linear-gradient-2" x1="3.51" y1="127.4" x2="394.82" y2="127.4" gradientUnits="userSpaceOnUse"><stop offset="0" stop-color="#c9c8c8"/><stop offset="1" stop-color="#c5c5c5"/></linearGradient><linearGradient id="linear-gradient-3" x1="3.33" y1="127.27" x2="394.9" y2="127.27" gradientUnits="userSpaceOnUse"><stop offset="0" stop-color="#cbcaca"/><stop offset="1" stop-color="#c5c5c5"/></linearGradient><linearGradient id="linear-gradient-4" x1="3.14" y1="127.14" x2="394.99" y2="127.14" gradientUnits="userSpaceOnUse"><stop offset="0" stop-color="#cdcdcd"/><stop offset="1" stop-color="#c6c6c6"/></linearGradient><linearGradient id="linear-gradient-5" x1="2.96" y1="127.01" x2="395.08" y2="127.01" gradientUnits="userSpaceOnUse"><stop offset="0" stop-color="#cfcfcf"/><stop offset="1" stop-color="#c6c6c6"/></linearGradient><linearGradient id="linear-gradient-6" x1="2.77" y1="126.89" x2="395.17" y2="126.89" gradientUnits="userSpaceOnUse"><stop offset="0" stop-color="#d2d1d1"/><stop offset="1" stop-color="#c7c7c7"/></linearGradient><linearGradient id="linear-gradient-7" x1="2.59" y1="126.76" x2="395.26" y2="126.76" gradientUnits="userSpaceOnUse"><stop offset="0" stop-color="#d4d4d3"/><stop offset="1" stop-color="#c7c7c7"/></linearGradient><linearGradient id="linear-gradient-8" x1="2.4" y1="126.63" x2="395.35" y2="126.63" gradientUnits="userSpaceOnUse"><stop offset="0" stop-color="#d6d6d6"/><stop offset="1" stop-color="#c8c7c7"/></linearGradient><linearGradient id="linear-gradient-9" x1="2.22" y1="126.51" x2="395.44" y2="126.51" gradientUnits="userSpaceOnUse"><stop offset="0" stop-color="#d9d8d8"/><stop offset="1" stop-color="#c8c8c8"/></linearGradient><linearGradient id="linear-gradient-10" x1="2.03" y1="126.38" x2="395.53" y2="126.38" gradientUnits="userSpaceOnUse"><stop offset="0" stop-color="#dbdbda"/><stop offset="1" stop-color="#c9c8c8"/></linearGradient><linearGradient id="linear-gradient-11" x1="1.85" y1="126.25" x2="395.62" y2="126.25" gradientUnits="userSpaceOnUse"><stop offset="0" stop-color="#ddd"/><stop offset="1" stop-color="#c9c9c9"/></linearGradient><linearGradient id="linear-gradient-12" x1="1.66" y1="126.12" x2="395.71" y2="126.12" gradientUnits="userSpaceOnUse"><stop offset="0" stop-color="#e0e0df"/><stop offset="1" stop-color="#cac9c9"/></linearGradient><linearGradient id="linear-gradient-13" x1="1.48" y1="126" x2="395.8" y2="126" gradientUnits="userSpaceOnUse"><stop offset="0" stop-color="#e2e2e2"/><stop offset="1" stop-color="#cacaca"/></linearGradient><linearGradient id="linear-gradient-14" x1="1.29" y1="125.87" x2="395.88" y2="125.87" gradientUnits="userSpaceOnUse"><stop offset="0" stop-color="#e5e4e4"/><stop offset="1" stop-color="#cacaca"/></linearGradient><linearGradient id="linear-gradient-15" x1="1.11" y1="125.74" x2="395.97" y2="125.74" gradientUnits="userSpaceOnUse"><stop offset="0" stop-color="#e7e7e7"/><stop offset="1" stop-color="#cbcbcb"/></linearGradient><linearGradient id="linear-gradient-16" x1="0.92" y1="125.61" x2="396.06" y2="125.61" gradientUnits="userSpaceOnUse"><stop offset="0" stop-color="#eae9e9"/><stop offset="1" stop-color="#cbcbcb"/></linearGradient><linearGradient id="linear-gradient-17" x1="0.74" y1="125.49" x2="396.15" y2="125.49" gradientUnits="userSpaceOnUse"><stop offset="0" stop-color="#ececec"/><stop offset="1" stop-color="#ccc"/></linearGradient><linearGradient id="linear-gradient-18" x1="0.55" y1="125.36" x2="396.24" y2="125.36" gradientUnits="userSpaceOnUse"><stop offset="0" stop-color="#efefef"/><stop offset="1" stop-color="#ccc"/></linearGradient><linearGradient id="linear-gradient-19" x1="0.37" y1="125.23" x2="396.33" y2="125.23" gradientUnits="userSpaceOnUse"><stop offset="0" stop-color="#f2f1f1"/><stop offset="1" stop-color="#cdcdcc"/></linearGradient><linearGradient id="linear-gradient-20" x1="0.18" y1="125.11" x2="396.42" y2="125.11" gradientUnits="userSpaceOnUse"><stop offset="0" stop-color="#f4f4f4"/><stop offset="1" stop-color="#cdcdcd"/></linearGradient><linearGradient id="Безымянный_градиент_650" y1="124.98" x2="396.51" y2="124.98" gradientUnits="userSpaceOnUse"><stop offset="0" stop-color="#f7f8f8"/><stop offset="1" stop-color="#cececd"/></linearGradient><linearGradient id="linear-gradient-21" x1="3.09" y1="130.88" x2="396.03" y2="118.85" gradientUnits="userSpaceOnUse"><stop offset="0" stop-color="#f8f8f8"/><stop offset="1" stop-color="#cfcfcf"/></linearGradient><linearGradient id="linear-gradient-22" x1="6.47" y1="136.59" x2="395.24" y2="112.77" gradientUnits="userSpaceOnUse"><stop offset="0" stop-color="#f8f8f8"/><stop offset="1" stop-color="#d1d1d1"/></linearGradient><linearGradient id="linear-gradient-23" x1="10.13" y1="142.09" x2="394.14" y2="106.74" gradientUnits="userSpaceOnUse"><stop offset="0" stop-color="#f8f9f9"/><stop offset="1" stop-color="#d3d3d3"/></linearGradient><linearGradient id="linear-gradient-24" x1="14.05" y1="147.36" x2="392.75" y2="100.78" gradientUnits="userSpaceOnUse"><stop offset="0" stop-color="#f8f9f9"/><stop offset="1" stop-color="#d5d5d5"/></linearGradient><linearGradient id="linear-gradient-25" x1="18.21" y1="152.41" x2="391.06" y2="94.92" gradientUnits="userSpaceOnUse"><stop offset="0" stop-color="#f9f9f9"/><stop offset="1" stop-color="#d7d7d6"/></linearGradient><linearGradient id="linear-gradient-26" x1="22.6" y1="157.2" x2="389.09" y2="89.16" gradientUnits="userSpaceOnUse"><stop offset="0" stop-color="#f9f9fa"/><stop offset="1" stop-color="#d9d8d8"/></linearGradient><linearGradient id="linear-gradient-27" x1="27.19" y1="161.74" x2="386.84" y2="83.51" gradientUnits="userSpaceOnUse"><stop offset="0" stop-color="#f9fafa"/><stop offset="1" stop-color="#dbdada"/></linearGradient><linearGradient id="linear-gradient-28" x1="31.98" y1="166.01" x2="384.32" y2="78.01" gradientUnits="userSpaceOnUse"><stop offset="0" stop-color="#fafafa"/><stop offset="1" stop-color="#dddcdc"/></linearGradient><linearGradient id="linear-gradient-29" x1="36.93" y1="170.01" x2="381.54" y2="72.65" gradientUnits="userSpaceOnUse"><stop offset="0" stop-color="#fafafb"/><stop offset="1" stop-color="#dedede"/></linearGradient><linearGradient id="linear-gradient-30" x1="42.04" y1="173.73" x2="378.5" y2="67.45" gradientUnits="userSpaceOnUse"><stop offset="0" stop-color="#fafbfb"/><stop offset="1" stop-color="#e0e0e0"/></linearGradient><linearGradient id="linear-gradient-31" x1="47.28" y1="177.17" x2="375.23" y2="62.43" gradientUnits="userSpaceOnUse"><stop offset="0" stop-color="#fbfbfb"/><stop offset="1" stop-color="#e2e2e2"/></linearGradient><linearGradient id="linear-gradient-32" x1="52.63" y1="180.32" x2="371.73" y2="57.59" gradientUnits="userSpaceOnUse"><stop offset="0" stop-color="#fbfbfc"/><stop offset="1" stop-color="#e4e4e4"/></linearGradient><linearGradient id="linear-gradient-33" x1="58.07" y1="183.18" x2="368.02" y2="52.95" gradientUnits="userSpaceOnUse"><stop offset="0" stop-color="#fcfcfc"/><stop offset="1" stop-color="#e7e6e6"/></linearGradient><linearGradient id="linear-gradient-34" x1="63.58" y1="185.74" x2="364.1" y2="48.52" gradientUnits="userSpaceOnUse"><stop offset="0" stop-color="#fcfcfc"/><stop offset="1" stop-color="#e8e8e8"/></linearGradient><linearGradient id="linear-gradient-35" x1="69.15" y1="188.02" x2="360" y2="44.3" gradientUnits="userSpaceOnUse"><stop offset="0" stop-color="#fcfdfd"/><stop offset="1" stop-color="#eaeaea"/></linearGradient><linearGradient id="linear-gradient-36" x1="74.75" y1="190.01" x2="355.72" y2="40.31" gradientUnits="userSpaceOnUse"><stop offset="0" stop-color="#fdfdfd"/><stop offset="1" stop-color="#ececec"/></linearGradient><linearGradient id="linear-gradient-37" x1="80.36" y1="191.71" x2="351.29" y2="36.54" gradientUnits="userSpaceOnUse"><stop offset="0" stop-color="#fdfdfd"/><stop offset="1" stop-color="#efeeee"/></linearGradient><linearGradient id="linear-gradient-38" x1="85.97" y1="193.13" x2="346.71" y2="33.01" gradientUnits="userSpaceOnUse"><stop offset="0" stop-color="#fefefe"/><stop offset="1" stop-color="#f1f0f0"/></linearGradient><linearGradient id="linear-gradient-39" x1="91.56" y1="194.28" x2="342" y2="29.72" gradientUnits="userSpaceOnUse"><stop offset="0" stop-color="#fefefe"/><stop offset="1" stop-color="#f3f3f3"/></linearGradient><linearGradient id="linear-gradient-40" x1="97.11" y1="195.16" x2="337.18" y2="26.68" gradientUnits="userSpaceOnUse"><stop offset="0" stop-color="#fff"/><stop offset="1" stop-color="#f5f5f5"/></linearGradient><linearGradient id="Безымянный_градиент_3084" x1="102.61" y1="195.77" x2="332.27" y2="23.88" gradientUnits="userSpaceOnUse"><stop offset="0" stop-color="#fff"/><stop offset="1" stop-color="#f7f8f8"/></linearGradient><linearGradient id="GradientFill_136" x1="34.95" y1="65.84" x2="263.03" y2="65.84" gradientUnits="userSpaceOnUse"><stop offset="0" stop-color="#fff"/><stop offset="1" stop-color="#f6f6f6"/></linearGradient><linearGradient id="GradientFill_121" x1="127.36" y1="108.46" x2="263.03" y2="108.46" gradientUnits="userSpaceOnUse"><stop offset="0" stop-color="#a8a6a6"/><stop offset="0.52" stop-color="#a3a1a1"/><stop offset="1" stop-color="#989898"/></linearGradient><linearGradient id="GradientFill_121-2" x1="110.02" y1="137.62" x2="144" y2="137.62" xlink:href="#GradientFill_121"/><linearGradient id="GradientFill_121-3" x1="117.34" y1="155.35" x2="137.02" y2="155.35" xlink:href="#GradientFill_121"/><linearGradient id="GradientFill_121-4" x1="34.95" y1="91" x2="47.07" y2="91" xlink:href="#GradientFill_121"/><linearGradient id="GradientFill_121-5" x1="34.95" y1="110.61" x2="52.12" y2="110.61" xlink:href="#GradientFill_121"/><linearGradient id="GradientFill_136-2" x1="135.19" y1="103.63" x2="268.31" y2="103.63" xlink:href="#GradientFill_136"/><linearGradient id="Безымянный_градиент_119" x1="135.19" y1="106.48" x2="263.03" y2="106.48" gradientUnits="userSpaceOnUse"><stop offset="0" stop-color="#989898"/><stop offset="0.48" stop-color="#a3a1a1"/><stop offset="1" stop-color="#a8a6a6"/></linearGradient><linearGradient id="GradientFill_136-3" x1="26.27" y1="113.4" x2="104.92" y2="113.4" xlink:href="#GradientFill_136"/><linearGradient id="GradientFill_121-6" x1="34.95" y1="115.78" x2="97.74" y2="115.78" xlink:href="#GradientFill_121"/><linearGradient id="GradientFill_121-7" x1="178.6" y1="29.49" x2="239.06" y2="29.49" xlink:href="#GradientFill_121"/><linearGradient id="GradientFill_121-8" x1="172.34" y1="33.1" x2="232.79" y2="33.1" xlink:href="#GradientFill_121"/><linearGradient id="GradientFill_121-9" x1="183.72" y1="31.3" x2="227.68" y2="31.3" xlink:href="#GradientFill_121"/><linearGradient id="Безымянный_градиент_4179" x1="153.5" y1="24.42" x2="169.61" y2="24.42" gradientUnits="userSpaceOnUse"><stop offset="0" stop-color="#aac9b4"/><stop offset="0.14" stop-color="#a6c5b3"/><stop offset="1" stop-color="#92b0ae"/></linearGradient><linearGradient id="Безымянный_градиент_4179-2" x1="136.1" y1="31.39" x2="152.21" y2="31.39" xlink:href="#Безымянный_градиент_4179"/><linearGradient id="GradientFill_121-10" x1="163.98" y1="42.67" x2="183.48" y2="42.67" xlink:href="#GradientFill_121"/><linearGradient id="GradientFill_121-11" x1="184.46" y1="59.45" x2="221.11" y2="59.45" xlink:href="#GradientFill_121"/><linearGradient id="Безымянный_градиент_4179-3" x1="68.11" y1="94.64" x2="87.91" y2="94.64" xlink:href="#Безымянный_градиент_4179"/><linearGradient id="Безымянный_градиент_4179-4" x1="167.24" y1="89.73" x2="175.46" y2="89.73" xlink:href="#Безымянный_градиент_4179"/><linearGradient id="GradientFill_136-4" x1="206.95" y1="149.71" x2="284.58" y2="149.71" xlink:href="#GradientFill_136"/><linearGradient id="GradientFill_121-12" x1="269.1" y1="170.81" x2="284.58" y2="170.81" xlink:href="#GradientFill_121"/><linearGradient id="GradientFill_136-5" x1="151.69" y1="174.75" x2="269.1" y2="174.75" xlink:href="#GradientFill_136"/><linearGradient id="GradientFill_121-13" x1="213.84" y1="195.85" x2="269.1" y2="195.85" xlink:href="#GradientFill_121"/><linearGradient id="GradientFill_121-14" x1="167.88" y1="175.67" x2="174.8" y2="175.67" xlink:href="#GradientFill_121"/><linearGradient id="GradientFill_121-15" x1="177.97" y1="169.78" x2="184.89" y2="169.78" xlink:href="#GradientFill_121"/><linearGradient id="GradientFill_121-16" x1="189.54" y1="176.41" x2="196.46" y2="176.41" xlink:href="#GradientFill_121"/><linearGradient id="GradientFill_121-17" x1="201.12" y1="183.19" x2="208.04" y2="183.19" xlink:href="#GradientFill_121"/><linearGradient id="GradientFill_121-18" x1="199.64" y1="170.53" x2="206.56" y2="170.53" xlink:href="#GradientFill_121"/><linearGradient id="GradientFill_121-19" x1="209.73" y1="164.64" x2="216.65" y2="164.64" xlink:href="#GradientFill_121"/><linearGradient id="GradientFill_121-20" x1="221.3" y1="171.41" x2="228.22" y2="171.41" xlink:href="#GradientFill_121"/><linearGradient id="GradientFill_121-21" x1="211.21" y1="177.3" x2="218.13" y2="177.3" xlink:href="#GradientFill_121"/><linearGradient id="GradientFill_121-22" x1="188.07" y1="163.9" x2="194.99" y2="163.9" xlink:href="#GradientFill_121"/><linearGradient id="GradientFill_121-23" x1="198.16" y1="158.01" x2="205.08" y2="158.01" xlink:href="#GradientFill_121"/><linearGradient id="GradientFill_121-24" x1="191.02" y1="189.07" x2="197.94" y2="189.07" xlink:href="#GradientFill_121"/><linearGradient id="GradientFill_121-25" x1="192.82" y1="194.91" x2="202.68" y2="194.91" xlink:href="#GradientFill_121"/><linearGradient id="Безымянный_градиент_130" x1="202.68" y1="192.8" x2="219.69" y2="192.8" gradientUnits="userSpaceOnUse"><stop offset="0" stop-color="#5f5d59"/><stop offset="1" stop-color="#7b7a79"/></linearGradient><linearGradient id="Безымянный_градиент_136" x1="204.62" y1="199.23" x2="221.4" y2="199.23" gradientUnits="userSpaceOnUse"><stop offset="0" stop-color="#81c8b5"/><stop offset="0.14" stop-color="#7dc4b4"/><stop offset="1" stop-color="#68b0ad"/></linearGradient><linearGradient id="Безымянный_градиент_136-2" x1="214.72" y1="193.35" x2="231.49" y2="193.35" xlink:href="#Безымянный_градиент_136"/><linearGradient id="Безымянный_градиент_136-3" x1="224.81" y1="187.46" x2="241.59" y2="187.46" xlink:href="#Безымянный_градиент_136"/><linearGradient id="Безымянный_градиент_136-4" x1="213.01" y1="180.6" x2="229.79" y2="180.6" xlink:href="#Безымянный_градиент_136"/><linearGradient id="Безымянный_градиент_136-5" x1="223.1" y1="174.72" x2="239.88" y2="174.72" xlink:href="#Безымянный_градиент_136"/><linearGradient id="Безымянный_градиент_136-6" x1="233.2" y1="168.83" x2="249.97" y2="168.83" xlink:href="#Безымянный_градиент_136"/><linearGradient id="Безымянный_градиент_136-7" x1="221.54" y1="162.16" x2="238.32" y2="162.16" xlink:href="#Безымянный_градиент_136"/><linearGradient id="Безымянный_градиент_136-8" x1="209.97" y1="155.39" x2="226.75" y2="155.39" xlink:href="#Безымянный_градиент_136"/><linearGradient id="GradientFill_121-26" x1="198.4" y1="151.29" x2="208.25" y2="151.29" xlink:href="#GradientFill_121"/><linearGradient id="Безымянный_градиент_130-2" x1="208.25" y1="152.13" x2="215.17" y2="152.13" xlink:href="#Безымянный_градиент_130"/><linearGradient id="GradientFill_121-27" x1="245" y1="178.22" x2="254.85" y2="178.22" xlink:href="#GradientFill_121"/><linearGradient id="Безымянный_градиент_130-3" x1="254.85" y1="179.05" x2="261.77" y2="179.05" xlink:href="#Безымянный_градиент_130"/><linearGradient id="Безымянный_градиент_136-9" x1="234.9" y1="181.57" x2="251.68" y2="181.57" xlink:href="#Безымянный_градиент_136"/><linearGradient id="GradientFill_121-28" x1="179.45" y1="182.3" x2="186.37" y2="182.3" xlink:href="#GradientFill_121"/><linearGradient id="GradientFill_136-6" x1="244.12" y1="127.98" x2="347.85" y2="127.98" xlink:href="#GradientFill_136"/><linearGradient id="Безымянный_градиент_310" x1="267.54" y1="105.45" x2="280.21" y2="105.45" gradientUnits="userSpaceOnUse"><stop offset="0" stop-color="#92b0ae"/><stop offset="0.78" stop-color="#7d9fa2"/><stop offset="1" stop-color="#76999e"/></linearGradient><linearGradient id="Безымянный_градиент_310-2" x1="328.02" y1="140.74" x2="340.7" y2="140.74" xlink:href="#Безымянный_градиент_310"/><linearGradient id="Безымянный_градиент_310-3" x1="281.74" y1="133.27" x2="305.04" y2="121.5" xlink:href="#Безымянный_градиент_310"/><linearGradient id="GradientFill_121-29" x1="319.1" y1="152.59" x2="347.85" y2="152.59" xlink:href="#GradientFill_121"/><linearGradient id="Безымянный_градиент_236" x1="274.34" y1="139.15" x2="288.4" y2="139.15" gradientUnits="userSpaceOnUse"><stop offset="0" stop-color="#05a2a7"/><stop offset="1" stop-color="#0b7c7b"/></linearGradient><linearGradient id="Безымянный_градиент_314" x1="274.34" y1="127.92" x2="317.25" y2="127.92" gradientUnits="userSpaceOnUse"><stop offset="0" stop-color="#68b0ad"/><stop offset="0.86" stop-color="#7dc4b4"/><stop offset="1" stop-color="#81c8b5"/></linearGradient><linearGradient id="GradientFill_136-7" x1="276.82" y1="127.88" x2="314.73" y2="127.88" xlink:href="#GradientFill_136"/><linearGradient id="GradientFill_136-8" x1="251.35" y1="123.36" x2="355.08" y2="123.36" xlink:href="#GradientFill_136"/><linearGradient id="Безымянный_градиент_310-4" x1="274.77" y1="100.83" x2="287.44" y2="100.83" xlink:href="#Безымянный_градиент_310"/><linearGradient id="Безымянный_градиент_310-5" x1="335.25" y1="136.12" x2="347.93" y2="136.12" xlink:href="#Безымянный_градиент_310"/><linearGradient id="Безымянный_градиент_310-6" x1="288.97" y1="128.65" x2="312.26" y2="116.88" xlink:href="#Безымянный_градиент_310"/><linearGradient id="GradientFill_121-30" x1="326.33" y1="147.98" x2="355.08" y2="147.98" xlink:href="#GradientFill_121"/><linearGradient id="Безымянный_градиент_236-2" x1="281.57" y1="134.53" x2="295.62" y2="134.53" xlink:href="#Безымянный_градиент_236"/><linearGradient id="Безымянный_градиент_314-2" x1="281.57" y1="123.3" x2="324.48" y2="123.3" xlink:href="#Безымянный_градиент_314"/><linearGradient id="GradientFill_136-9" x1="284.05" y1="123.26" x2="321.96" y2="123.26" xlink:href="#GradientFill_136"/><linearGradient id="GradientFill_136-10" x1="245.37" y1="109.96" x2="349.1" y2="109.96" xlink:href="#GradientFill_136"/><linearGradient id="Безымянный_градиент_310-7" x1="268.78" y1="87.44" x2="281.46" y2="87.44" xlink:href="#Безымянный_градиент_310"/><linearGradient id="Безымянный_градиент_310-8" x1="329.27" y1="122.73" x2="341.94" y2="122.73" xlink:href="#Безымянный_градиент_310"/><linearGradient id="Безымянный_градиент_310-9" x1="282.98" y1="115.26" x2="306.28" y2="103.48" xlink:href="#Безымянный_градиент_310"/><linearGradient id="GradientFill_121-31" x1="320.35" y1="134.58" x2="349.1" y2="134.58" xlink:href="#GradientFill_121"/><linearGradient id="Безымянный_градиент_236-3" x1="275.58" y1="121.13" x2="289.64" y2="121.13" xlink:href="#Безымянный_градиент_236"/><linearGradient id="Безымянный_градиент_314-3" x1="275.58" y1="109.9" x2="318.49" y2="109.9" xlink:href="#Безымянный_градиент_314"/><linearGradient id="GradientFill_136-11" x1="278.06" y1="109.87" x2="315.98" y2="109.87" xlink:href="#GradientFill_136"/><linearGradient id="GradientFill_136-12" x1="256.64" y1="105.15" x2="360.37" y2="105.15" xlink:href="#GradientFill_136"/><linearGradient id="Безымянный_градиент_310-10" x1="280.05" y1="82.62" x2="292.73" y2="82.62" xlink:href="#Безымянный_градиент_310"/><linearGradient id="Безымянный_градиент_310-11" x1="340.54" y1="117.91" x2="353.22" y2="117.91" xlink:href="#Безымянный_градиент_310"/><linearGradient id="Безымянный_градиент_310-12" x1="294.25" y1="110.44" x2="317.55" y2="98.67" xlink:href="#Безымянный_градиент_310"/><linearGradient id="GradientFill_121-32" x1="331.62" y1="129.76" x2="360.37" y2="129.76" xlink:href="#GradientFill_121"/><linearGradient id="Безымянный_градиент_236-4" x1="286.85" y1="116.32" x2="300.91" y2="116.32" xlink:href="#Безымянный_градиент_236"/><linearGradient id="Безымянный_градиент_314-4" x1="286.85" y1="105.09" x2="329.77" y2="105.09" xlink:href="#Безымянный_градиент_314"/><linearGradient id="GradientFill_136-13" x1="289.34" y1="105.05" x2="327.25" y2="105.05" xlink:href="#GradientFill_136"/></defs><title>salaryNoshadow</title><g class="cls-1"><g id="Layer_2" data-name="Layer 2"><g id="Layer_1-2" data-name="Layer 1"><path class="cls-2" d="M61.12,47.82c76.25-44.05,200-44.05,276.31,0s76.27,115.6,0,159.64-200.06,44.08-276.31,0S-15.2,91.9,61.12,47.82Z"/><path class="cls-3" d="M61,47.66c76.3-44.07,200.15-44.07,276.5,0s76.33,115.64,0,159.7-200.2,44.1-276.5,0S-15.4,91.76,61,47.66Z"/><path class="cls-4" d="M60.83,47.51c76.35-44.08,200.29-44.08,276.7,0s76.38,115.69,0,159.76-200.34,44.11-276.7,0S-15.6,91.62,60.83,47.51Z"/><path class="cls-5" d="M60.69,47.35c76.41-44.1,200.43-44.1,276.89,0s76.43,115.73,0,159.81-200.48,44.13-276.89,0S-15.79,91.48,60.69,47.35Z"/><path class="cls-6" d="M60.54,47.19C137,3.08,261.12,3.08,337.63,47.19s76.49,115.77,0,159.87-200.62,44.14-277.08,0S-16,91.34,60.54,47.19Z"/><path class="cls-7" d="M60.4,47C136.91,2.91,261.11,2.91,337.68,47s76.54,115.81,0,159.93S136.91,251.13,60.4,207-16.19,91.2,60.4,47Z"/><path class="cls-8" d="M60.25,46.88c76.57-44.15,200.85-44.15,277.47,0s76.59,115.85,0,160-200.9,44.17-277.47,0S-16.39,91.06,60.25,46.88Z"/><path class="cls-9" d="M60.11,46.73c76.62-44.16,201-44.16,277.67,0s76.65,115.89,0,160-201,44.19-277.67,0S-16.59,90.92,60.11,46.73Z"/><path class="cls-10" d="M60,46.57C136.64,2.4,261.1,2.4,337.82,46.57s76.7,115.93,0,160.1-201.18,44.21-277.86,0S-16.79,90.78,60,46.57Z"/><path class="cls-11" d="M59.82,46.42c76.73-44.19,201.27-44.19,278.05,0s76.75,116,0,160.16-201.32,44.22-278.05,0S-17,90.64,59.82,46.42Z"/><path class="cls-12" d="M59.68,46.26c76.78-44.21,201.41-44.21,278.25,0s76.81,116,0,160.21-201.46,44.24-278.25,0S-17.18,90.5,59.68,46.26Z"/><path class="cls-13" d="M59.53,46.1C136.37,1.88,261.09,1.88,338,46.1s76.86,116.06,0,160.27-201.61,44.25-278.44,0S-17.38,90.36,59.53,46.1Z"/><path class="cls-14" d="M59.39,45.95c76.89-44.24,201.7-44.24,278.63,0s76.92,116.1,0,160.33-201.75,44.27-278.63,0S-17.58,90.22,59.39,45.95Z"/><path class="cls-15" d="M59.24,45.79c76.94-44.26,201.84-44.26,278.83,0s77,116.14,0,160.38-201.89,44.28-278.83,0S-17.78,90.08,59.24,45.79Z"/><path class="cls-16" d="M59.1,45.64c77-44.27,202-44.27,279,0s77,116.18,0,160.44-202,44.3-279,0S-18,89.94,59.1,45.64Z"/><path class="cls-17" d="M59,45.48c77-44.29,202.12-44.29,279.21,0s77.08,116.22,0,160.5S136,250.3,59,206-18.17,89.8,59,45.48Z"/><path class="cls-18" d="M58.81,45.33C135.91,1,261.06,1,338.22,45.33s77.13,116.26,0,160.55-202.31,44.33-279.41,0S-18.37,89.66,58.81,45.33Z"/><path class="cls-19" d="M58.66,45.17c77.16-44.32,202.4-44.32,279.6,0s77.18,116.3,0,160.61-202.45,44.35-279.6,0S-18.57,89.52,58.66,45.17Z"/><path class="cls-20" d="M58.52,45C135.73.68,261.06.68,338.31,45s77.24,116.35,0,160.67-202.59,44.36-279.8,0S-18.77,89.38,58.52,45Z"/><path class="cls-21" d="M58.37,44.86c77.26-44.35,202.68-44.35,280,0s77.29,116.39,0,160.73-202.73,44.38-280,0S-19,89.24,58.37,44.86Z"/><path class="cls-22" d="M58.23,44.7C135.55.34,261,.34,338.41,44.7s77.34,116.43,0,160.78-202.87,44.39-280.18,0S-19.16,89.1,58.23,44.7Z"/><path class="cls-23" d="M58.08,44.55C135.45.17,261,.17,338.46,44.55s77.4,116.47,0,160.84-203,44.41-280.38,0S-19.36,89,58.08,44.55Z"/><path class="cls-24" d="M58.23,44.5C135.55.14,261,.14,338.41,44.5s77.34,116.43,0,160.78-202.87,44.39-280.18,0S-19.16,88.9,58.23,44.5Z"/><path class="cls-25" d="M58.37,44.46c77.26-44.35,202.68-44.35,280,0s77.29,116.39,0,160.73-202.73,44.38-280,0S-19,88.84,58.37,44.46Z"/><path class="cls-26" d="M58.52,44.41C135.73.08,261.06.08,338.31,44.41s77.24,116.35,0,160.67-202.59,44.36-279.8,0S-18.77,88.78,58.52,44.41Z"/><path class="cls-27" d="M58.66,44.37C135.82,0,261.06,0,338.27,44.37s77.18,116.3,0,160.61-202.45,44.35-279.6,0S-18.57,88.71,58.66,44.37Z"/><path class="cls-28" d="M58.81,44.32C135.91,0,261.06,0,338.22,44.32s77.13,116.26,0,160.55-202.31,44.33-279.41,0S-18.37,88.65,58.81,44.32Z"/><path class="cls-29" d="M59,44.28C136,0,261.07,0,338.17,44.28s77.08,116.22,0,160.5S136,249.09,59,204.77-18.17,88.59,59,44.28Z"/><path class="cls-30" d="M59.1,44.23c77-44.27,202-44.27,279,0s77,116.18,0,160.44-202,44.3-279,0S-18,88.53,59.1,44.23Z"/><path class="cls-31" d="M59.24,44.19c76.94-44.26,201.84-44.26,278.83,0s77,116.14,0,160.38-201.89,44.28-278.83,0S-17.78,88.47,59.24,44.19Z"/><path class="cls-32" d="M59.39,44.14C136.27-.1,261.08-.1,338,44.14s76.92,116.1,0,160.33-201.75,44.27-278.63,0S-17.58,88.41,59.39,44.14Z"/><path class="cls-33" d="M59.53,44.09C136.37-.13,261.09-.13,338,44.09s76.86,116.06,0,160.27-201.61,44.25-278.44,0S-17.38,88.35,59.53,44.09Z"/><path class="cls-34" d="M59.68,44C136.46-.16,261.09-.16,337.92,44s76.81,116,0,160.21-201.46,44.24-278.25,0S-17.18,88.29,59.68,44Z"/><path class="cls-35" d="M59.82,44C136.55-.19,261.1-.19,337.87,44s76.75,116,0,160.16-201.32,44.22-278.05,0S-17,88.23,59.82,44Z"/><path class="cls-36" d="M60,44C136.64-.22,261.1-.22,337.82,44s76.7,115.93,0,160.1-201.18,44.21-277.86,0S-16.79,88.16,60,44Z"/><path class="cls-37" d="M60.11,43.91c76.62-44.16,201-44.16,277.67,0s76.65,115.89,0,160-201,44.19-277.67,0S-16.59,88.1,60.11,43.91Z"/><path class="cls-38" d="M60.25,43.87c76.57-44.15,200.85-44.15,277.47,0s76.59,115.85,0,160-200.9,44.17-277.47,0S-16.39,88,60.25,43.87Z"/><path class="cls-39" d="M60.4,43.82c76.51-44.13,200.71-44.13,277.28,0s76.54,115.81,0,159.93-200.76,44.16-277.28,0S-16.19,88,60.4,43.82Z"/><path class="cls-40" d="M60.54,43.78C137-.34,261.12-.34,337.63,43.78s76.49,115.77,0,159.87-200.62,44.14-277.08,0S-16,87.92,60.54,43.78Z"/><path class="cls-41" d="M60.69,43.73c76.41-44.1,200.43-44.1,276.89,0s76.43,115.73,0,159.81-200.48,44.13-276.89,0S-15.79,87.86,60.69,43.73Z"/><path class="cls-42" d="M60.83,43.69C137.19-.4,261.13-.4,337.53,43.69s76.38,115.69,0,159.76-200.34,44.11-276.7,0S-15.6,87.8,60.83,43.69Z"/><path class="cls-43" d="M61,43.64c76.3-44.07,200.15-44.07,276.5,0s76.33,115.64,0,159.7-200.2,44.1-276.5,0S-15.4,87.74,61,43.64Z"/><path class="cls-44" d="M61.12,43.6c76.25-44.05,200-44.05,276.31,0s76.27,115.6,0,159.64-200.06,44.08-276.31,0S-15.2,87.68,61.12,43.6Z"/><polygon class="cls-45" points="127.36 163.56 139.32 163.56 280.05 83.35 226.25 53.54 127.36 163.56"/><polygon class="cls-46" points="127.36 131.68 34.95 78.33 170.61 0 263.03 53.36 127.36 131.68"/><polygon class="cls-47" points="127.01 32.85 113.92 40.01 55.43 73.78 133.42 118.81 205.7 76.67 127.01 32.85"/><polygon class="cls-48" points="127.36 163.56 127.36 131.68 34.95 78.33 34.95 110.21 127.36 163.56"/><polygon class="cls-49" points="263.03 53.36 263.03 85.24 127.36 163.56 127.36 131.68 263.03 53.36"/><polygon class="cls-50" points="110.02 132.48 127.36 140.9 144 131.68 127.36 143.55 110.02 132.48"/><polygon class="cls-51" points="117.34 152.38 127.38 157.25 137.02 151.91 127.38 158.79 117.34 152.38"/><polygon class="cls-52" points="34.95 87.23 47.07 94.76 34.95 88.56 34.95 87.23"/><polygon class="cls-53" points="34.95 105.28 52.12 115.95 34.95 107.16 34.95 105.28"/><polygon class="cls-54" points="135.19 141.71 263.03 68.94 263.03 65.55 268.31 68.35 135.19 141.71"/><polygon class="cls-55" points="135.19 141.71 263.03 73.51 263.03 71.26 135.19 141.71"/><polygon class="cls-56" points="104.92 137.04 34.96 96.17 34.96 89.75 26.27 93.7 104.92 137.04"/><polygon class="cls-57" points="97.74 133.09 34.95 100.3 34.95 98.48 97.74 133.09"/><polygon class="cls-58" points="237.94 46.94 178.6 12.68 179.72 12.04 239.06 46.3 237.94 46.94"/><polygon class="cls-59" points="231.68 50.55 172.34 16.3 173.45 15.65 232.79 49.91 231.68 50.55"/><polygon class="cls-60" points="226.57 43.98 183.72 19.25 184.83 18.61 227.68 43.34 226.57 43.98"/><path class="cls-61" d="M152.52,27.67h0L141.1,21.08h0a23.14,23.14,0,0,1,11.37-2.7Z"/><path class="cls-62" d="M169.61,27.71l-16.09,0h0l11.36-6.56C168,23,169.6,25.34,169.61,27.71Z"/><path class="cls-63" d="M152.21,28.13l-11.35,6.55c-3.15-1.82-4.74-4.2-4.76-6.58Z"/><path class="cls-64" d="M152.65,37.57h0a23.4,23.4,0,0,1-11.4-2.75l11.35-6.55h0Z"/><path class="cls-61" d="M164.43,34.8a23.2,23.2,0,0,1-11.37,2.7L153,28.21Z"/><path class="cls-65" d="M164.83,34.56h0L153.41,28h0l16.1,0a.69.69,0,0,1,0,.11.73.73,0,0,0,0,.11c0,.11,0,.22,0,.33a3.19,3.19,0,0,1,0,.33,4.16,4.16,0,0,1-.09.45,5.39,5.39,0,0,1-.29.87s0,0,0,0a6.72,6.72,0,0,1-.44.85s0,0,0,0a8.57,8.57,0,0,1-.59.83s0,0,0,.06l-.24.28s0,0,0,0l-.33.35-.36.34-.39.34-.41.33c-.22.16-.44.32-.68.48Z"/><path class="cls-66" d="M168.87,27.84a.34.34,0,0,1,0,.11.68.68,0,0,0,0-.11Z"/><path class="cls-65" d="M152.16,27.81l-16.1,0c0-2.38,1.55-4.75,4.68-6.56Z"/><path class="cls-64" d="M164.37,21,153,27.59l-.05-9.3A23.4,23.4,0,0,1,164.37,21Z"/><polygon class="cls-64" points="192.54 42.37 174.25 31.81 175.47 31.11 193.76 41.67 192.54 42.37"/><polygon class="cls-64" points="230.17 64.1 194.73 43.63 195.94 42.93 231.39 63.4 230.17 64.1"/><polygon class="cls-65" points="187.41 45.34 169.11 34.78 170.33 34.08 188.62 44.64 187.41 45.34"/><polygon class="cls-65" points="225.03 67.06 189.59 46.6 190.81 45.9 226.25 66.36 225.03 67.06"/><polygon class="cls-67" points="182.27 48.3 163.98 37.74 165.19 37.04 183.48 47.6 182.27 48.3"/><polygon class="cls-68" points="219.9 70.03 184.46 49.57 185.67 48.87 221.11 69.33 219.9 70.03"/><polygon class="cls-61" points="177.13 51.27 158.84 40.71 160.05 40.01 178.34 50.57 177.13 51.27"/><polygon class="cls-61" points="214.76 73 179.32 52.53 180.53 51.83 215.97 72.29 214.76 73"/><polygon class="cls-69" points="87.91 99.7 86.77 100.36 68.11 89.59 69.25 88.93 87.91 99.7"/><polygon class="cls-70" points="107.47 110.99 106.33 111.65 86.77 100.36 87.91 99.7 107.47 110.99"/><polygon class="cls-65" points="127.03 122.29 125.89 122.95 106.33 111.65 107.47 110.99 127.03 122.29"/><polygon class="cls-71" points="69.25 88.93 68.11 89.59 47.64 77.77 48.78 77.11 69.25 88.93"/><polygon class="cls-71" points="55.5 73.78 113.99 40.01 102.27 72.91 121.74 68.8 111.57 89.75 128.06 88.42 123.15 103.15 171.04 97.08 133.5 118.81 55.5 73.78"/><path class="cls-72" d="M174.25,88.06a6.43,6.43,0,0,0-5.81,0c-1.61.93-1.59,2.43,0,3.36a6.42,6.42,0,0,0,5.81,0C175.87,90.49,175.86,89,174.25,88.06Zm-5.35,3.09c-1.36-.79-1.36-2.06,0-2.84a5.43,5.43,0,0,1,4.91,0c1.35.78,1.36,2.06,0,2.83A5.44,5.44,0,0,1,168.9,91.15Z"/><path class="cls-73" d="M174.25,88.06a6.43,6.43,0,0,0-5.81,0c-1.61.93-1.59,2.43,0,3.36a6.42,6.42,0,0,0,5.81,0C175.87,90.49,175.86,89,174.25,88.06Z"/><path class="cls-72" d="M174.25,88.06a6.43,6.43,0,0,0-5.81,0c-1.61.93-1.59,2.43,0,3.36a6.42,6.42,0,0,0,5.81,0C175.87,90.49,175.86,89,174.25,88.06Zm-5.35,3.09c-1.36-.79-1.36-2.06,0-2.84a5.43,5.43,0,0,1,4.91,0c1.35.78,1.36,2.06,0,2.83A5.44,5.44,0,0,1,168.9,91.15Z"/><path class="cls-64" d="M141.71,83.31a6.43,6.43,0,0,0-5.81,0c-1.61.93-1.59,2.43,0,3.36a6.42,6.42,0,0,0,5.81,0C143.32,85.74,143.31,84.24,141.71,83.31Z"/><path class="cls-72" d="M141.71,83.31a6.43,6.43,0,0,0-5.81,0c-1.61.93-1.59,2.43,0,3.36a6.42,6.42,0,0,0,5.81,0C143.32,85.74,143.31,84.24,141.71,83.31Zm-5.35,3.09c-1.36-.79-1.36-2.06,0-2.84a5.43,5.43,0,0,1,4.91,0c1.35.78,1.36,2.06,0,2.83A5.44,5.44,0,0,1,136.36,86.4Z"/><path class="cls-61" d="M136.61,63.92a6.43,6.43,0,0,0-5.81,0c-1.61.93-1.59,2.43,0,3.36a6.42,6.42,0,0,0,5.81,0C138.23,66.35,138.22,64.85,136.61,63.92Z"/><path class="cls-72" d="M136.61,63.92a6.43,6.43,0,0,0-5.81,0c-1.61.93-1.59,2.43,0,3.36a6.42,6.42,0,0,0,5.81,0C138.23,66.35,138.22,64.85,136.61,63.92ZM131.27,67c-1.36-.79-1.36-2.06,0-2.84a5.43,5.43,0,0,1,4.91,0c1.35.78,1.36,2.06,0,2.83A5.44,5.44,0,0,1,131.27,67Z"/><path class="cls-65" d="M125.43,39.69a6.43,6.43,0,0,0-5.81,0c-1.61.93-1.59,2.43,0,3.36a6.42,6.42,0,0,0,5.81,0C127,42.12,127,40.62,125.43,39.69Z"/><path class="cls-72" d="M125.43,39.69a6.43,6.43,0,0,0-5.81,0c-1.61.93-1.59,2.43,0,3.36a6.42,6.42,0,0,0,5.81,0C127,42.12,127,40.62,125.43,39.69Zm-5.35,3.09c-1.36-.79-1.36-2.06,0-2.84a5.43,5.43,0,0,1,4.91,0c1.35.78,1.36,2.06,0,2.83A5.44,5.44,0,0,1,120.09,42.78Z"/><rect class="cls-72" x="127.49" y="42.61" width="0.53" height="21.87" transform="translate(-10.69 48.85) rotate(-20.8)"/><rect class="cls-72" x="136.09" y="67.72" width="0.53" height="15.1" transform="translate(-12.06 28.05) rotate(-11.25)"/><polygon class="cls-72" points="167.4 89.99 142.49 85.5 142.58 84.98 167.49 89.47 167.4 89.99"/><polygon class="cls-45" points="213.84 214.98 225.87 214.98 276.84 186.43 287.38 173.69 263.93 159.5 213.84 214.98"/><polygon class="cls-74" points="269.1 176.72 206.95 140.84 222.43 122.69 284.58 158.57 269.1 176.72"/><polygon class="cls-75" points="209.78 140.35 222.83 125.05 281.74 159.06 268.7 174.36 209.78 140.35"/><polygon class="cls-48" points="269.1 183.03 269.1 176.72 206.95 140.84 206.95 147.15 269.1 183.03"/><polygon class="cls-76" points="284.58 158.57 284.58 164.89 269.1 183.03 269.1 176.72 284.58 158.57"/><polygon class="cls-77" points="213.84 208.66 151.69 172.78 206.94 140.84 269.1 176.73 213.84 208.66"/><polygon class="cls-48" points="213.84 214.98 213.84 208.66 151.69 172.78 151.69 179.1 213.84 214.98"/><polygon class="cls-78" points="269.1 176.73 269.1 183.04 213.84 214.98 213.84 208.66 269.1 176.73"/><polygon class="cls-79" points="167.88 178.2 169.22 178.2 176.19 174.12 172.88 172.31 167.88 178.2"/><polygon class="cls-72" points="167.88 177.16 158.02 171.47 164.94 167.45 174.8 173.14 167.88 177.16"/><polygon class="cls-48" points="167.88 178.2 167.88 177.16 158.02 171.47 158.02 172.51 167.88 178.2"/><polygon class="cls-80" points="174.8 173.14 174.8 174.18 167.88 178.2 167.88 177.16 174.8 173.14"/><polygon class="cls-79" points="177.98 172.34 179.32 172.34 186.29 168.26 182.99 166.45 177.98 172.34"/><polygon class="cls-72" points="177.97 171.28 168.12 165.59 175.04 161.56 184.89 167.25 177.97 171.28"/><polygon class="cls-48" points="177.97 172.32 177.97 171.28 168.12 165.59 168.12 166.62 177.97 172.32"/><polygon class="cls-81" points="184.89 167.25 184.89 168.29 177.97 172.32 177.97 171.28 184.89 167.25"/><polygon class="cls-79" points="189.54 179 190.88 179 197.85 174.91 194.55 173.1 189.54 179"/><polygon class="cls-72" points="189.54 177.91 179.69 172.21 186.61 168.19 196.47 173.88 189.54 177.91"/><polygon class="cls-48" points="189.54 178.94 189.54 177.91 179.69 172.21 179.69 173.25 189.54 178.94"/><polygon class="cls-82" points="196.47 173.88 196.47 174.92 189.54 178.94 189.54 177.91 196.47 173.88"/><polygon class="cls-79" points="201.13 185.73 202.47 185.73 209.44 181.64 206.13 179.83 201.13 185.73"/><polygon class="cls-72" points="201.12 184.68 191.26 178.99 198.18 174.96 208.04 180.66 201.12 184.68"/><polygon class="cls-48" points="201.12 185.72 201.12 184.68 191.26 178.99 191.26 180.03 201.12 185.72"/><polygon class="cls-83" points="208.04 180.66 208.04 181.69 201.12 185.72 201.12 184.68 208.04 180.66"/><polygon class="cls-79" points="199.64 173.06 200.98 173.06 207.95 168.97 204.64 167.16 199.64 173.06"/><polygon class="cls-72" points="199.64 172.02 189.78 166.33 196.7 162.3 206.56 168 199.64 172.02"/><polygon class="cls-48" points="199.64 173.06 199.64 172.02 189.78 166.33 189.78 167.37 199.64 173.06"/><polygon class="cls-84" points="206.56 168 206.56 169.03 199.64 173.06 199.64 172.02 206.56 168"/><polygon class="cls-79" points="209.74 167.16 211.08 167.16 218.05 163.08 214.75 161.26 209.74 167.16"/><polygon class="cls-72" points="209.73 166.13 199.88 160.44 206.8 156.42 216.65 162.11 209.73 166.13"/><polygon class="cls-48" points="209.73 167.17 209.73 166.13 199.88 160.44 199.88 161.48 209.73 167.17"/><polygon class="cls-85" points="216.65 162.11 216.65 163.15 209.73 167.17 209.73 166.13 216.65 162.11"/><polygon class="cls-79" points="221.3 173.96 222.64 173.96 229.61 169.87 226.31 168.06 221.3 173.96"/><polygon class="cls-72" points="221.3 172.91 211.45 167.21 218.37 163.19 228.22 168.88 221.3 172.91"/><polygon class="cls-48" points="221.3 173.94 221.3 172.91 211.45 167.21 211.45 168.25 221.3 173.94"/><polygon class="cls-86" points="228.22 168.88 228.22 169.92 221.3 173.94 221.3 172.91 228.22 168.88"/><polygon class="cls-79" points="211.24 179.85 212.57 179.85 219.54 175.77 216.24 173.96 211.24 179.85"/><polygon class="cls-72" points="211.21 178.79 201.35 173.1 208.27 169.08 218.13 174.77 211.21 178.79"/><polygon class="cls-48" points="211.21 179.83 211.21 178.79 201.35 173.1 201.35 174.14 211.21 179.83"/><polygon class="cls-87" points="218.13 174.77 218.13 175.81 211.21 179.83 211.21 178.79 218.13 174.77"/><polygon class="cls-79" points="188.08 166.42 189.41 166.42 196.38 162.34 193.08 160.52 188.08 166.42"/><polygon class="cls-72" points="188.07 165.39 178.21 159.7 185.13 155.68 194.99 161.37 188.07 165.39"/><polygon class="cls-48" points="188.07 166.43 188.07 165.39 178.21 159.7 178.21 160.74 188.07 166.43"/><polygon class="cls-88" points="194.99 161.37 194.99 162.41 188.07 166.43 188.07 165.39 194.99 161.37"/><polygon class="cls-79" points="198.16 160.54 199.5 160.54 206.47 156.46 203.16 154.65 198.16 160.54"/><polygon class="cls-72" points="198.16 159.5 188.3 153.81 195.22 149.79 205.08 155.48 198.16 159.5"/><polygon class="cls-48" points="198.16 160.54 198.16 159.5 188.3 153.81 188.3 154.85 198.16 160.54"/><polygon class="cls-89" points="205.08 155.48 205.08 156.52 198.16 160.54 198.16 159.5 205.08 155.48"/><polygon class="cls-79" points="191.02 191.6 192.36 191.6 199.33 187.52 196.03 185.71 191.02 191.6"/><polygon class="cls-72" points="191.02 190.57 181.17 184.87 188.09 180.85 197.94 186.54 191.02 190.57"/><polygon class="cls-48" points="191.02 191.6 191.02 190.57 181.17 184.87 181.17 185.91 191.02 191.6"/><polygon class="cls-90" points="197.94 186.54 197.94 187.58 191.02 191.6 191.02 190.57 197.94 186.54"/><polygon class="cls-79" points="202.68 198.27 204.02 198.27 220.89 188.37 217.58 186.55 202.68 198.27"/><polygon class="cls-91" points="202.68 197.23 192.82 191.54 209.84 181.63 219.69 187.32 202.68 197.23"/><polygon class="cls-92" points="202.68 198.27 202.68 197.23 192.82 191.54 192.82 192.58 202.68 198.27"/><polygon class="cls-93" points="219.69 187.32 219.69 188.36 202.68 198.27 202.68 197.23 219.69 187.32"/><polygon class="cls-79" points="214.48 205.14 215.82 205.14 222.79 201.06 219.48 199.24 214.48 205.14"/><polygon class="cls-94" points="214.48 204.09 204.62 198.4 211.54 194.38 221.4 200.07 214.48 204.09"/><polygon class="cls-61" points="214.48 205.13 214.48 204.09 204.62 198.4 204.62 199.44 214.48 205.13"/><polygon class="cls-64" points="221.4 200.07 221.4 201.11 214.48 205.13 214.48 204.09 221.4 200.07"/><polygon class="cls-79" points="224.5 199.25 225.84 199.25 232.81 195.17 229.5 193.36 224.5 199.25"/><polygon class="cls-95" points="224.57 198.21 214.72 192.51 221.64 188.49 231.49 194.18 224.57 198.21"/><polygon class="cls-61" points="224.57 199.24 224.57 198.21 214.72 192.51 214.72 193.55 224.57 199.24"/><polygon class="cls-64" points="231.49 194.18 231.49 195.22 224.57 199.24 224.57 198.21 231.49 194.18"/><polygon class="cls-79" points="234.67 193.36 236 193.36 242.97 189.27 239.67 187.46 234.67 193.36"/><polygon class="cls-96" points="234.67 192.32 224.81 186.63 231.73 182.6 241.59 188.29 234.67 192.32"/><polygon class="cls-61" points="234.67 193.36 234.67 192.32 224.81 186.63 224.81 187.66 234.67 193.36"/><polygon class="cls-64" points="241.59 188.29 241.59 189.33 234.67 193.36 234.67 192.32 241.59 188.29"/><polygon class="cls-79" points="222.86 186.55 224.2 186.55 231.17 182.46 227.87 180.65 222.86 186.55"/><polygon class="cls-97" points="222.86 185.46 213.01 179.77 219.93 175.74 229.78 181.44 222.86 185.46"/><polygon class="cls-61" points="222.86 186.5 222.86 185.46 213.01 179.77 213.01 180.81 222.86 186.5"/><polygon class="cls-64" points="229.78 181.44 229.78 182.47 222.86 186.5 222.86 185.46 229.78 181.44"/><polygon class="cls-79" points="232.96 180.65 234.3 180.65 241.27 176.57 237.96 174.75 232.96 180.65"/><polygon class="cls-98" points="232.96 179.57 223.1 173.88 230.02 169.86 239.88 175.55 232.96 179.57"/><polygon class="cls-61" points="232.96 180.61 232.96 179.57 223.1 173.88 223.1 174.92 232.96 180.61"/><polygon class="cls-64" points="239.88 175.55 239.88 176.59 232.96 180.61 232.96 179.57 239.88 175.55"/><polygon class="cls-79" points="243.05 174.72 244.39 174.72 251.36 170.64 248.06 168.83 243.05 174.72"/><polygon class="cls-99" points="243.05 173.69 233.19 167.99 240.12 163.97 249.97 169.66 243.05 173.69"/><polygon class="cls-61" points="243.05 174.72 243.05 173.69 233.19 167.99 233.19 169.03 243.05 174.72"/><polygon class="cls-64" points="249.97 169.66 249.97 170.7 243.05 174.72 243.05 173.69 249.97 169.66"/><polygon class="cls-79" points="231.4 168.06 232.74 168.06 239.71 163.97 236.4 162.16 231.4 168.06"/><polygon class="cls-100" points="231.4 167.02 221.54 161.33 228.46 157.3 238.32 163 231.4 167.02"/><polygon class="cls-61" points="231.4 168.06 231.4 167.02 221.54 161.33 221.54 162.37 231.4 168.06"/><polygon class="cls-64" points="238.32 163 238.32 164.03 231.4 168.06 231.4 167.02 238.32 163"/><polygon class="cls-79" points="219.84 161.28 221.18 161.28 228.14 157.19 224.84 155.38 219.84 161.28"/><polygon class="cls-101" points="219.82 160.25 209.97 154.55 216.89 150.53 226.75 156.22 219.82 160.25"/><polygon class="cls-61" points="219.82 161.29 219.82 160.25 209.97 154.55 209.97 155.59 219.82 161.29"/><polygon class="cls-64" points="226.75 156.22 226.75 157.26 219.82 161.29 219.82 160.25 226.75 156.22"/><polygon class="cls-79" points="208.25 154.66 209.59 154.66 216.56 150.57 213.26 148.76 208.25 154.66"/><polygon class="cls-91" points="208.25 153.62 198.4 147.93 205.32 143.9 215.17 149.59 208.25 153.62"/><polygon class="cls-102" points="208.25 154.66 208.25 153.62 198.4 147.93 198.4 148.96 208.25 154.66"/><polygon class="cls-103" points="215.17 149.59 215.17 150.63 208.25 154.66 208.25 153.62 215.17 149.59"/><polygon class="cls-79" points="254.85 181.64 256.19 181.64 263.16 177.56 259.86 175.74 254.85 181.64"/><polygon class="cls-91" points="254.85 180.6 245 174.91 251.92 170.89 261.77 176.58 254.85 180.6"/><polygon class="cls-104" points="254.85 181.58 254.85 180.55 245 174.85 245 175.89 254.85 181.58"/><polygon class="cls-105" points="261.77 176.52 261.77 177.56 254.85 181.58 254.85 180.55 261.77 176.52"/><polygon class="cls-79" points="244.76 187.53 246.1 187.53 253.07 183.44 249.76 181.63 244.76 187.53"/><polygon class="cls-106" points="244.76 186.43 234.9 180.74 241.82 176.72 251.68 182.41 244.76 186.43"/><polygon class="cls-61" points="244.76 187.47 244.76 186.43 234.9 180.74 234.9 181.78 244.76 187.47"/><polygon class="cls-64" points="251.68 182.41 251.68 183.45 244.76 187.47 244.76 186.43 251.68 182.41"/><polygon class="cls-79" points="179.45 184.84 180.79 184.84 187.76 180.76 184.45 178.94 179.45 184.84"/><polygon class="cls-72" points="179.45 183.79 169.59 178.1 176.51 174.08 186.37 179.77 179.45 183.79"/><polygon class="cls-48" points="179.45 184.83 179.45 183.79 169.59 178.1 169.59 179.14 179.45 184.83"/><polygon class="cls-107" points="186.37 179.77 186.37 180.81 179.45 184.83 179.45 183.79 186.37 179.77"/><polygon class="cls-47" points="212.62 139.86 219.91 131.34 275.58 163.49 268.29 172 212.62 139.86"/><polygon class="cls-108" points="213.26 140.24 219.91 132.47 274.94 164.24 213.26 140.24"/><polygon class="cls-109" points="219.91 132.47 274.94 164.24 275.58 163.49 219.91 131.34 212.62 139.86 213.26 140.24 219.91 132.47"/><polygon class="cls-110" points="219.91 131.34 219.91 132.47 213.26 140.24 212.62 139.86 219.91 131.34"/><polygon class="cls-48" points="262 153.88 264.48 150.97 278.95 159.34 276.47 162.24 262 153.88"/><polygon class="cls-109" points="264.48 151.36 278.73 159.6 278.95 159.34 264.48 150.97 262 153.88 262.22 154 264.48 151.36"/><polygon class="cls-110" points="264.48 150.97 264.48 151.36 262.22 154 262 153.88 264.48 150.97"/><polygon class="cls-45" points="319.33 163.84 334.76 165.39 361.3 150.01 347.81 142.25 319.33 163.84"/><polygon class="cls-111" points="319.11 157.93 244.12 114.63 272.87 98.03 347.85 141.33 319.11 157.93"/><polygon class="cls-112" points="246.12 114.72 273.03 99.19 345.86 141.24 318.95 156.77 246.12 114.72"/><polygon class="cls-113" points="339.82 143.06 322.11 153.28 251.92 112.76 269.63 102.54 339.82 143.06"/><polygon class="cls-114" points="269.42 121.56 265.6 123.76 250.48 115.03 254.29 112.83 269.42 121.56"/><polygon class="cls-115" points="323.32 128.22 296.11 143.59 265.28 125.98 292.49 110.61 323.32 128.22"/><polygon class="cls-116" points="328.34 131.06 301.13 146.44 293.11 141.87 320.32 126.5 328.34 131.06"/><path class="cls-117" d="M269.75,107.83c-2.66-1.53-3-3.85-.7-5.16s6.28-1.13,8.94.4,3,3.85.7,5.16S272.41,109.37,269.75,107.83Z"/><path class="cls-118" d="M277.62,107.61a7.73,7.73,0,0,1-6.94-.31c-2.07-1.19-2.31-3-.54-4a7.72,7.72,0,0,1,6.94.31C279.14,104.8,279.38,106.59,277.62,107.61Z"/><path class="cls-119" d="M271.33,102.23a3.12,3.12,0,0,1-.87-.29l.39-.22a1.84,1.84,0,0,0,1.42.17l.39.22-4.24,2.45-.55-.32Z"/><path class="cls-119" d="M272.42,103.15a2.15,2.15,0,0,1,2.21,0c.77.44.73.9.08,1.28l-2.19,1.26a2.16,2.16,0,0,1-2.22,0c-.76-.44-.72-.9-.07-1.28Zm-1.67,1.6c-.38.22-.42.46,0,.69a1.15,1.15,0,0,0,1.2,0l2.24-1.29c.39-.22.43-.46,0-.7a1.16,1.16,0,0,0-1.21,0Z"/><path class="cls-119" d="M275.19,104.75a2.15,2.15,0,0,1,2.21,0c.77.44.73.9.08,1.28l-2.19,1.26a2.16,2.16,0,0,1-2.22,0c-.76-.44-.72-.9-.07-1.28Zm-1.67,1.6c-.38.22-.42.46,0,.69a1.15,1.15,0,0,0,1.2,0l2.24-1.29c.39-.22.43-.46,0-.7a1.16,1.16,0,0,0-1.21,0Z"/><path class="cls-119" d="M277.88,106.33a2.15,2.15,0,0,1,2.21,0c.77.44.73.9.08,1.28L278,108.91a2.16,2.16,0,0,1-2.22,0c-.76-.44-.72-.9-.07-1.28Zm-1.67,1.6c-.38.22-.42.46,0,.69a1.15,1.15,0,0,0,1.2,0l2.24-1.29c.39-.22.43-.46,0-.7a1.16,1.16,0,0,0-1.21,0Z"/><path class="cls-120" d="M271.33,102a3.12,3.12,0,0,1-.87-.29l.39-.22a1.84,1.84,0,0,0,1.42.17l.39.22-4.24,2.45-.55-.32Z"/><path class="cls-120" d="M272.42,102.89a2.15,2.15,0,0,1,2.21,0c.77.44.73.9.08,1.28l-2.19,1.26a2.16,2.16,0,0,1-2.22,0c-.76-.44-.72-.9-.07-1.28Zm-1.67,1.6c-.38.22-.42.46,0,.69a1.15,1.15,0,0,0,1.2,0l2.24-1.29c.39-.22.43-.46,0-.7a1.16,1.16,0,0,0-1.21,0Z"/><path class="cls-120" d="M275.19,104.49a2.15,2.15,0,0,1,2.21,0c.77.44.73.9.08,1.28l-2.19,1.26a2.16,2.16,0,0,1-2.22,0c-.76-.44-.72-.9-.07-1.28Zm-1.67,1.6c-.38.22-.42.46,0,.69a1.15,1.15,0,0,0,1.2,0l2.24-1.29c.39-.22.43-.46,0-.7a1.16,1.16,0,0,0-1.21,0Z"/><path class="cls-120" d="M277.88,106.07a2.15,2.15,0,0,1,2.21,0c.77.44.73.9.08,1.28L278,108.65a2.16,2.16,0,0,1-2.22,0c-.76-.44-.72-.9-.07-1.28Zm-1.67,1.6c-.38.22-.42.46,0,.69a1.15,1.15,0,0,0,1.2,0l2.24-1.29c.39-.22.43-.46,0-.7a1.16,1.16,0,0,0-1.21,0Z"/><path class="cls-121" d="M330.24,143.12c-2.66-1.53-3-3.85-.7-5.16s6.28-1.13,8.94.4,3,3.85.7,5.16S332.9,144.65,330.24,143.12Z"/><path class="cls-118" d="M338.1,142.9a7.73,7.73,0,0,1-6.94-.31c-2.07-1.19-2.31-3-.54-4a7.72,7.72,0,0,1,6.94.31C339.63,140.09,339.87,141.88,338.1,142.9Z"/><path class="cls-119" d="M331.82,137.52a3.12,3.12,0,0,1-.87-.29l.39-.22a1.84,1.84,0,0,0,1.42.17l.39.22-4.24,2.45-.55-.32Z"/><path class="cls-119" d="M332.91,138.44a2.15,2.15,0,0,1,2.21,0c.77.44.73.9.08,1.28L333,141a2.16,2.16,0,0,1-2.22,0c-.76-.44-.72-.9-.07-1.28Zm-1.67,1.6c-.38.22-.42.46,0,.69a1.15,1.15,0,0,0,1.2,0l2.24-1.29c.39-.22.43-.46,0-.7a1.16,1.16,0,0,0-1.21,0Z"/><path class="cls-119" d="M335.68,140a2.15,2.15,0,0,1,2.21,0c.77.44.73.9.08,1.28l-2.19,1.26a2.16,2.16,0,0,1-2.22,0c-.76-.44-.72-.9-.07-1.28Zm-1.67,1.6c-.38.22-.42.46,0,.69a1.15,1.15,0,0,0,1.2,0l2.24-1.29c.39-.22.43-.46,0-.7a1.16,1.16,0,0,0-1.21,0Z"/><path class="cls-119" d="M338.37,141.62a2.15,2.15,0,0,1,2.21,0c.77.44.73.9.08,1.28l-2.19,1.26a2.16,2.16,0,0,1-2.22,0c-.76-.44-.72-.9-.07-1.28Zm-1.67,1.6c-.38.22-.42.46,0,.69a1.15,1.15,0,0,0,1.2,0l2.24-1.29c.39-.22.43-.46,0-.7a1.16,1.16,0,0,0-1.21,0Z"/><path class="cls-120" d="M331.82,137.25a3.12,3.12,0,0,1-.87-.29l.39-.22a1.84,1.84,0,0,0,1.42.17l.39.22-4.24,2.45-.55-.32Z"/><path class="cls-120" d="M332.91,138.18a2.15,2.15,0,0,1,2.21,0c.77.44.73.9.08,1.28L333,140.76a2.16,2.16,0,0,1-2.22,0c-.76-.44-.72-.9-.07-1.28Zm-1.67,1.6c-.38.22-.42.46,0,.69a1.15,1.15,0,0,0,1.2,0l2.24-1.29c.39-.22.43-.46,0-.7a1.16,1.16,0,0,0-1.21,0Z"/><path class="cls-120" d="M335.68,139.78a2.15,2.15,0,0,1,2.21,0c.77.44.73.9.08,1.28l-2.19,1.26a2.16,2.16,0,0,1-2.22,0c-.76-.44-.72-.9-.07-1.28Zm-1.67,1.6c-.38.22-.42.46,0,.69a1.15,1.15,0,0,0,1.2,0l2.24-1.29c.39-.22.43-.46,0-.7a1.16,1.16,0,0,0-1.21,0Z"/><path class="cls-120" d="M338.37,141.35a2.15,2.15,0,0,1,2.21,0c.77.44.73.9.08,1.28l-2.19,1.26a2.16,2.16,0,0,1-2.22,0c-.76-.44-.72-.9-.07-1.28ZM336.7,143c-.38.22-.42.46,0,.69a1.15,1.15,0,0,0,1.2,0l2.24-1.29c.39-.22.43-.46,0-.7a1.16,1.16,0,0,0-1.21,0Z"/><path class="cls-119" d="M299.06,143.94l5.74-3.31a5.11,5.11,0,0,1-.7-.3l-.6-.32,1.44-.83.18.1a2.73,2.73,0,0,0,1.33.36,3.71,3.71,0,0,0,.84-.11l.14,0,1.35.78-8,4.64Z"/><path class="cls-122" d="M305.77,140.49a5.36,5.36,0,0,1-1.5-.51l.67-.38a3.16,3.16,0,0,0,2.43.29l.66.38-7.28,4.2-.94-.54Z"/><path class="cls-119" d="M306,147.38a4.35,4.35,0,0,1-2.19-.61c-.77-.44-1.15-.94-1.15-1.47s.35-1,1-1.37l3.75-2.17a4,4,0,0,1,2-.54,4.33,4.33,0,0,1,2.18.61c.78.45,1.17.95,1.17,1.49s-.35,1-1,1.36L308,146.84A4,4,0,0,1,306,147.38Zm3.69-4.71a1.76,1.76,0,0,0-.89.26L305,145.15c-.3.18-.33.29-.33.29s.07.12.3.26a1.64,1.64,0,0,0,.82.23,1.74,1.74,0,0,0,.87-.25l3.85-2.22c.31-.18.35-.29.35-.3h0s0-.1-.3-.25A1.61,1.61,0,0,0,309.71,142.67Z"/><path class="cls-122" d="M307.65,142.08a3.69,3.69,0,0,1,3.79.07c1.32.76,1.25,1.55.14,2.19l-3.76,2.17a3.72,3.72,0,0,1-3.81-.07c-1.31-.76-1.23-1.55-.12-2.19Zm-2.86,2.74c-.65.38-.72.8,0,1.19a2,2,0,0,0,2.07,0l3.85-2.22c.67-.39.74-.8,0-1.2a2,2,0,0,0-2.08,0Z"/><path class="cls-119" d="M310.78,150.14a4.35,4.35,0,0,1-2.19-.61c-.77-.44-1.15-.94-1.15-1.47s.35-1,1-1.37l3.75-2.17a4,4,0,0,1,2-.54,4.33,4.33,0,0,1,2.18.61c.78.45,1.17.95,1.17,1.48s-.35,1-1,1.36l-3.75,2.17A4,4,0,0,1,310.78,150.14Zm3.69-4.71a1.78,1.78,0,0,0-.89.26l-3.85,2.22c-.3.18-.33.29-.33.29s.07.12.3.25a1.63,1.63,0,0,0,.82.23,1.73,1.73,0,0,0,.87-.25l3.85-2.22c.31-.18.35-.29.35-.29h0s0-.1-.3-.25A1.63,1.63,0,0,0,314.47,145.42Z"/><path class="cls-122" d="M312.41,144.83a3.69,3.69,0,0,1,3.79.07c1.32.76,1.25,1.55.14,2.2l-3.76,2.17a3.72,3.72,0,0,1-3.81-.08c-1.31-.76-1.23-1.55-.12-2.19Zm-2.86,2.74c-.65.38-.72.8,0,1.19a2,2,0,0,0,2.07,0l3.85-2.22c.67-.38.74-.8,0-1.2a2,2,0,0,0-2.08,0Z"/><path class="cls-119" d="M315.4,152.84a4.36,4.36,0,0,1-2.19-.61c-.77-.44-1.15-.94-1.15-1.47s.35-1,1-1.37l3.75-2.17a4,4,0,0,1,2-.54,4.33,4.33,0,0,1,2.18.61c.78.45,1.17.95,1.17,1.48s-.35,1-1,1.36l-3.76,2.17A4,4,0,0,1,315.4,152.84Zm3.69-4.71a1.77,1.77,0,0,0-.89.26l-3.85,2.22c-.3.18-.33.29-.33.29s.07.12.3.25a1.63,1.63,0,0,0,.82.23h0a1.74,1.74,0,0,0,.87-.25l3.85-2.22c.27-.15.34-.27.35-.29h0s0-.1-.3-.25A1.62,1.62,0,0,0,319.08,148.13Z"/><path class="cls-122" d="M317,147.54a3.69,3.69,0,0,1,3.79.07c1.32.76,1.25,1.55.14,2.2L317.2,152a3.72,3.72,0,0,1-3.81-.08c-1.31-.76-1.23-1.55-.12-2.19Zm-2.86,2.74c-.65.38-.72.8,0,1.19a2,2,0,0,0,2.07,0l3.85-2.22c.67-.38.74-.8,0-1.2a2,2,0,0,0-2.08,0Z"/><polygon class="cls-123" points="316.26 124.48 307.55 131.84 299.77 136.36 300.8 138.85 298.41 140.24 270.34 123.64 275.58 121.09 278.5 122.78 281.65 120.95 282.26 121.3 284.74 119.86 289.62 117.82 286.81 120.75 284.58 122.04 285.01 122.29 286.21 122.4 288.44 121.1 289.2 120.06 300.6 117.82 297.08 126.69 290.5 130.52 296.06 133.73 303.33 129.5 316.26 124.48"/><polygon class="cls-48" points="319.11 163.86 319.11 157.93 244.12 114.63 244.12 120.57 319.11 163.86"/><polygon class="cls-124" points="319.11 158.78 319.11 158.56 244.12 115.27 244.12 115.48 319.11 158.78"/><polygon class="cls-124" points="319.11 159.53 319.11 159.32 244.12 116.03 244.12 116.24 319.11 159.53"/><polygon class="cls-124" points="319.11 160.28 319.11 160.07 244.12 116.78 244.12 116.99 319.11 160.28"/><polygon class="cls-124" points="319.11 161.04 319.11 160.83 244.12 117.54 244.12 117.75 319.11 161.04"/><polygon class="cls-124" points="319.11 161.8 319.11 161.58 244.12 118.29 244.12 118.5 319.11 161.8"/><polygon class="cls-124" points="319.11 162.55 319.11 162.34 244.12 119.05 244.12 119.26 319.11 162.55"/><polygon class="cls-124" points="319.11 163.31 319.11 163.09 244.12 119.8 244.12 120.01 319.11 163.31"/><polygon class="cls-125" points="347.85 141.33 347.85 147.26 319.11 163.86 319.11 157.93 347.85 141.33"/><polygon class="cls-126" points="347.85 141.97 347.85 142.19 319.12 158.78 319.12 158.56 347.85 141.97"/><polygon class="cls-126" points="347.85 142.73 347.85 142.94 319.12 159.53 319.12 159.31 347.85 142.73"/><polygon class="cls-126" points="347.85 143.49 347.85 143.7 319.12 160.28 319.12 160.07 347.85 143.49"/><polygon class="cls-126" points="347.85 144.24 347.85 144.46 319.12 161.04 319.12 160.83 347.85 144.24"/><polygon class="cls-126" points="347.85 144.99 347.85 145.21 319.12 161.8 319.12 161.59 347.85 144.99"/><polygon class="cls-126" points="347.85 145.75 347.85 145.96 319.12 162.56 319.12 162.33 347.85 145.75"/><polygon class="cls-126" points="347.85 146.51 347.85 146.72 319.12 163.3 319.12 163.09 347.85 146.51"/><polygon class="cls-127" points="274.34 138.04 288.39 146.17 288.39 140.25 274.34 132.13 274.34 138.04"/><polygon class="cls-48" points="276.82 139.48 276.82 133.54 285.91 138.8 285.91 144.74 276.82 139.48"/><polygon class="cls-128" points="288.4 140.24 317.25 123.71 303.18 115.59 274.34 132.13 288.4 140.24"/><polygon class="cls-129" points="276.82 133.55 305.64 116.97 314.73 122.21 285.92 138.8 276.82 133.55"/><polygon class="cls-130" points="326.33 153.31 251.35 110.02 280.1 93.42 355.08 136.71 326.33 153.31"/><polygon class="cls-112" points="253.35 110.11 280.26 94.57 353.09 136.62 326.18 152.15 253.35 110.11"/><polygon class="cls-113" points="347.05 138.44 329.34 148.67 259.15 108.14 276.86 97.92 347.05 138.44"/><polygon class="cls-114" points="276.64 116.94 272.83 119.14 257.71 110.41 261.52 108.21 276.64 116.94"/><polygon class="cls-115" points="330.55 123.6 303.34 138.97 272.51 121.36 299.72 105.99 330.55 123.6"/><polygon class="cls-116" points="335.57 126.44 308.36 141.82 300.34 137.25 327.55 121.88 335.57 126.44"/><path class="cls-131" d="M277,103.21c-2.66-1.53-3-3.85-.7-5.16s6.28-1.13,8.94.4,3,3.85.7,5.16S279.64,104.75,277,103.21Z"/><path class="cls-118" d="M284.85,103a7.73,7.73,0,0,1-6.94-.31c-2.07-1.19-2.31-3-.54-4a7.72,7.72,0,0,1,6.94.31C286.37,100.18,286.61,102,284.85,103Z"/><path class="cls-119" d="M278.56,97.61a3.12,3.12,0,0,1-.87-.29l.39-.22a1.84,1.84,0,0,0,1.42.17l.39.22-4.24,2.45-.55-.32Z"/><path class="cls-119" d="M279.65,98.53a2.15,2.15,0,0,1,2.21,0c.77.44.73.9.08,1.28l-2.19,1.26a2.16,2.16,0,0,1-2.22,0c-.76-.44-.72-.9-.07-1.28Zm-1.67,1.6c-.38.22-.42.46,0,.69a1.15,1.15,0,0,0,1.2,0l2.24-1.29c.39-.22.43-.46,0-.7a1.16,1.16,0,0,0-1.21,0Z"/><path class="cls-119" d="M282.42,100.13a2.15,2.15,0,0,1,2.21,0c.77.44.73.9.08,1.28l-2.19,1.26a2.16,2.16,0,0,1-2.22,0c-.76-.44-.72-.9-.07-1.28Zm-1.67,1.6c-.38.22-.42.46,0,.69a1.15,1.15,0,0,0,1.2,0l2.24-1.29c.39-.22.43-.46,0-.7a1.16,1.16,0,0,0-1.21,0Z"/><path class="cls-119" d="M285.11,101.71a2.15,2.15,0,0,1,2.21,0c.77.44.73.9.08,1.28l-2.19,1.26a2.16,2.16,0,0,1-2.22,0c-.76-.44-.72-.9-.07-1.28Zm-1.67,1.6c-.38.22-.42.46,0,.69a1.15,1.15,0,0,0,1.2,0l2.24-1.29c.39-.22.43-.46,0-.7a1.16,1.16,0,0,0-1.21,0Z"/><path class="cls-120" d="M278.56,97.35a3.12,3.12,0,0,1-.87-.29l.39-.22a1.84,1.84,0,0,0,1.42.17l.39.22-4.24,2.45-.55-.32Z"/><path class="cls-120" d="M279.65,98.27a2.15,2.15,0,0,1,2.21,0c.77.44.73.9.08,1.28l-2.19,1.26a2.16,2.16,0,0,1-2.22,0c-.76-.44-.72-.9-.07-1.28ZM278,99.87c-.38.22-.42.46,0,.69a1.15,1.15,0,0,0,1.2,0l2.24-1.29c.39-.22.43-.46,0-.7a1.16,1.16,0,0,0-1.21,0Z"/><path class="cls-120" d="M282.42,99.87a2.15,2.15,0,0,1,2.21,0c.77.44.73.9.08,1.28l-2.19,1.26a2.16,2.16,0,0,1-2.22,0c-.76-.44-.72-.9-.07-1.28Zm-1.67,1.6c-.38.22-.42.46,0,.69a1.15,1.15,0,0,0,1.2,0l2.24-1.29c.39-.22.43-.46,0-.7a1.16,1.16,0,0,0-1.21,0Z"/><path class="cls-120" d="M285.11,101.45a2.15,2.15,0,0,1,2.21,0c.77.44.73.9.08,1.28L285.21,104a2.16,2.16,0,0,1-2.22,0c-.76-.44-.72-.9-.07-1.28Zm-1.67,1.6c-.38.22-.42.46,0,.69a1.15,1.15,0,0,0,1.2,0l2.24-1.29c.39-.22.43-.46,0-.7a1.16,1.16,0,0,0-1.21,0Z"/><path class="cls-132" d="M337.47,138.5c-2.66-1.53-3-3.85-.7-5.16s6.28-1.13,8.94.4,3,3.85.7,5.16S340.13,140,337.47,138.5Z"/><path class="cls-118" d="M345.33,138.28a7.73,7.73,0,0,1-6.94-.31c-2.07-1.19-2.31-3-.54-4a7.72,7.72,0,0,1,6.94.31C346.86,135.47,347.1,137.26,345.33,138.28Z"/><path class="cls-119" d="M339,132.9a3.12,3.12,0,0,1-.87-.29l.39-.22a1.84,1.84,0,0,0,1.42.17l.39.22-4.24,2.45-.55-.32Z"/><path class="cls-119" d="M340.14,133.82a2.15,2.15,0,0,1,2.21,0c.77.44.73.9.08,1.28l-2.19,1.26a2.16,2.16,0,0,1-2.22,0c-.76-.44-.72-.9-.07-1.28Zm-1.67,1.6c-.38.22-.42.46,0,.69a1.15,1.15,0,0,0,1.2,0l2.24-1.29c.39-.22.43-.46,0-.7a1.16,1.16,0,0,0-1.21,0Z"/><path class="cls-119" d="M342.91,135.42a2.15,2.15,0,0,1,2.21,0c.77.44.73.9.08,1.28L343,138a2.16,2.16,0,0,1-2.22,0c-.76-.44-.72-.9-.07-1.28Zm-1.67,1.6c-.38.22-.42.46,0,.69a1.15,1.15,0,0,0,1.2,0l2.24-1.29c.39-.22.43-.46,0-.7a1.16,1.16,0,0,0-1.21,0Z"/><path class="cls-119" d="M345.59,137a2.15,2.15,0,0,1,2.21,0c.77.44.73.9.08,1.28l-2.19,1.26a2.16,2.16,0,0,1-2.22,0c-.76-.44-.72-.9-.07-1.28Zm-1.67,1.6c-.38.22-.42.46,0,.69a1.15,1.15,0,0,0,1.2,0l2.24-1.29c.39-.22.43-.46,0-.7a1.16,1.16,0,0,0-1.21,0Z"/><path class="cls-120" d="M339,132.63a3.12,3.12,0,0,1-.87-.29l.39-.22a1.84,1.84,0,0,0,1.42.17l.39.22L336.12,135l-.55-.32Z"/><path class="cls-120" d="M340.14,133.56a2.15,2.15,0,0,1,2.21,0c.77.44.73.9.08,1.28l-2.19,1.26a2.16,2.16,0,0,1-2.22,0c-.76-.44-.72-.9-.07-1.28Zm-1.67,1.6c-.38.22-.42.46,0,.69a1.15,1.15,0,0,0,1.2,0l2.24-1.29c.39-.22.43-.46,0-.7a1.16,1.16,0,0,0-1.21,0Z"/><path class="cls-120" d="M342.91,135.16a2.15,2.15,0,0,1,2.21,0c.77.44.73.9.08,1.28L343,137.74a2.16,2.16,0,0,1-2.22,0c-.76-.44-.72-.9-.07-1.28Zm-1.67,1.6c-.38.22-.42.46,0,.69a1.15,1.15,0,0,0,1.2,0l2.24-1.29c.39-.22.43-.46,0-.7a1.16,1.16,0,0,0-1.21,0Z"/><path class="cls-120" d="M345.59,136.74a2.15,2.15,0,0,1,2.21,0c.77.44.73.9.08,1.28l-2.19,1.26a2.16,2.16,0,0,1-2.22,0c-.76-.44-.72-.9-.07-1.28Zm-1.67,1.6c-.38.22-.42.46,0,.69a1.15,1.15,0,0,0,1.2,0l2.24-1.29c.39-.22.43-.46,0-.7a1.16,1.16,0,0,0-1.21,0Z"/><path class="cls-119" d="M306.29,139.32,312,136a5.11,5.11,0,0,1-.7-.3l-.6-.32,1.44-.83.18.1a2.73,2.73,0,0,0,1.33.36,3.71,3.71,0,0,0,.84-.11l.14,0,1.35.78-8,4.64Z"/><path class="cls-122" d="M313,135.88a5.36,5.36,0,0,1-1.5-.51l.67-.38a3.16,3.16,0,0,0,2.43.29l.66.38-7.28,4.2-.94-.54Z"/><path class="cls-119" d="M313.25,142.77a4.35,4.35,0,0,1-2.19-.61c-.77-.44-1.15-.94-1.15-1.47s.35-1,1-1.37l3.75-2.17a4,4,0,0,1,2-.54,4.33,4.33,0,0,1,2.18.61c.78.45,1.17.95,1.17,1.49s-.35,1-1,1.36l-3.76,2.17A4,4,0,0,1,313.25,142.77Zm3.69-4.71a1.76,1.76,0,0,0-.89.26l-3.85,2.22c-.3.18-.33.29-.33.29s.07.12.3.26a1.64,1.64,0,0,0,.82.23,1.74,1.74,0,0,0,.87-.25l3.85-2.22c.31-.18.35-.29.35-.3h0s0-.1-.3-.25A1.61,1.61,0,0,0,316.94,138.05Z"/><path class="cls-122" d="M314.88,137.46a3.69,3.69,0,0,1,3.79.07c1.32.76,1.25,1.55.14,2.19l-3.76,2.17a3.72,3.72,0,0,1-3.81-.07c-1.31-.76-1.23-1.55-.12-2.19ZM312,140.21c-.65.38-.72.8,0,1.19a2,2,0,0,0,2.07,0l3.85-2.22c.67-.39.74-.8,0-1.2a2,2,0,0,0-2.08,0Z"/><path class="cls-119" d="M318,145.52a4.35,4.35,0,0,1-2.19-.61c-.77-.44-1.15-.94-1.15-1.47s.35-1,1-1.37l3.75-2.17a4,4,0,0,1,2-.54,4.33,4.33,0,0,1,2.18.61c.78.45,1.17.95,1.17,1.48s-.35,1-1,1.36L320,145A4,4,0,0,1,318,145.52Zm3.69-4.71a1.78,1.78,0,0,0-.89.26L317,143.28c-.3.18-.33.29-.33.29s.07.12.3.25a1.63,1.63,0,0,0,.82.23,1.73,1.73,0,0,0,.87-.25l3.85-2.22c.31-.18.35-.29.35-.29h0s0-.1-.3-.25A1.63,1.63,0,0,0,321.7,140.8Z"/><path class="cls-122" d="M319.64,140.21a3.69,3.69,0,0,1,3.79.07c1.32.76,1.25,1.55.14,2.2l-3.76,2.17a3.72,3.72,0,0,1-3.81-.08c-1.31-.76-1.23-1.55-.12-2.19ZM316.78,143c-.65.38-.72.8,0,1.19a2,2,0,0,0,2.07,0l3.85-2.22c.67-.38.74-.8,0-1.2a2,2,0,0,0-2.08,0Z"/><path class="cls-119" d="M322.63,148.22a4.36,4.36,0,0,1-2.19-.61c-.77-.44-1.15-.94-1.15-1.47s.35-1,1-1.37l3.75-2.17a4,4,0,0,1,2-.54,4.33,4.33,0,0,1,2.18.61c.78.45,1.17.95,1.17,1.48s-.35,1-1,1.36l-3.76,2.17A4,4,0,0,1,322.63,148.22Zm3.69-4.71a1.77,1.77,0,0,0-.89.26L321.58,146c-.3.18-.33.29-.33.29s.07.12.3.25a1.63,1.63,0,0,0,.82.23h0a1.74,1.74,0,0,0,.87-.25l3.85-2.22c.27-.15.34-.27.35-.29h0s0-.1-.3-.25A1.62,1.62,0,0,0,326.31,143.51Z"/><path class="cls-122" d="M324.26,142.92A3.69,3.69,0,0,1,328,143c1.32.76,1.25,1.55.14,2.2l-3.76,2.17a3.72,3.72,0,0,1-3.81-.08c-1.31-.76-1.23-1.55-.12-2.19Zm-2.86,2.74c-.65.38-.72.8,0,1.19a2,2,0,0,0,2.07,0l3.85-2.22c.67-.38.74-.8,0-1.2a2,2,0,0,0-2.08,0Z"/><polygon class="cls-133" points="323.49 119.86 314.78 127.22 307 131.74 308.02 134.24 305.64 135.62 277.57 119.02 282.81 116.47 285.73 118.16 288.88 116.33 289.49 116.68 291.97 115.24 296.85 113.2 294.03 116.13 291.81 117.42 292.24 117.67 293.44 117.78 295.67 116.48 296.43 115.44 307.83 113.2 304.31 122.07 297.73 125.9 303.29 129.11 310.56 124.88 323.49 119.86"/><polygon class="cls-48" points="326.33 159.24 326.33 153.31 251.35 110.02 251.35 115.95 326.33 159.24"/><polygon class="cls-124" points="326.33 154.16 326.33 153.94 251.35 110.65 251.35 110.87 326.33 154.16"/><polygon class="cls-124" points="326.33 154.91 326.33 154.7 251.35 111.41 251.35 111.62 326.33 154.91"/><polygon class="cls-124" points="326.33 155.67 326.33 155.45 251.35 112.16 251.35 112.38 326.33 155.67"/><polygon class="cls-124" points="326.33 156.42 326.33 156.21 251.35 112.92 251.35 113.13 326.33 156.42"/><polygon class="cls-124" points="326.33 157.18 326.33 156.96 251.35 113.67 251.35 113.89 326.33 157.18"/><polygon class="cls-124" points="326.33 157.93 326.33 157.72 251.35 114.43 251.35 114.64 326.33 157.93"/><polygon class="cls-124" points="326.33 158.69 326.33 158.47 251.35 115.18 251.35 115.4 326.33 158.69"/><polygon class="cls-134" points="355.08 136.71 355.08 142.65 326.33 159.24 326.33 153.31 355.08 136.71"/><polygon class="cls-126" points="355.08 137.36 355.08 137.57 326.35 154.16 326.35 153.94 355.08 137.36"/><polygon class="cls-126" points="355.08 138.11 355.08 138.33 326.35 154.91 326.35 154.7 355.08 138.11"/><polygon class="cls-126" points="355.08 138.87 355.08 139.08 326.35 155.66 326.35 155.45 355.08 138.87"/><polygon class="cls-126" points="355.08 139.62 355.08 139.84 326.35 156.42 326.35 156.21 355.08 139.62"/><polygon class="cls-126" points="355.08 140.38 355.08 140.59 326.35 157.18 326.35 156.97 355.08 140.38"/><polygon class="cls-126" points="355.08 141.13 355.08 141.34 326.35 157.94 326.35 157.71 355.08 141.13"/><polygon class="cls-126" points="355.08 141.89 355.08 142.1 326.35 158.68 326.35 158.47 355.08 141.89"/><polygon class="cls-135" points="281.56 133.43 295.62 141.55 295.62 135.63 281.56 127.51 281.56 133.43"/><polygon class="cls-48" points="284.05 134.86 284.05 128.92 293.14 134.18 293.14 140.12 284.05 134.86"/><polygon class="cls-136" points="295.63 135.62 324.48 119.09 310.41 110.98 281.56 127.51 295.63 135.62"/><polygon class="cls-137" points="284.05 128.93 312.87 112.35 321.96 117.59 293.14 134.18 284.05 128.93"/><polygon class="cls-79" points="320.35 146.13 335.78 147.67 355.29 136.4 341.8 128.64 320.35 146.13"/><polygon class="cls-138" points="320.35 139.91 245.37 96.62 274.11 80.02 349.1 123.31 320.35 139.91"/><polygon class="cls-112" points="247.36 96.71 274.27 81.17 347.1 123.22 320.19 138.76 247.36 96.71"/><polygon class="cls-113" points="341.06 125.05 323.35 135.27 253.17 94.75 270.88 84.52 341.06 125.05"/><polygon class="cls-114" points="270.66 103.54 266.84 105.74 251.72 97.01 255.54 94.81 270.66 103.54"/><polygon class="cls-115" points="324.57 110.2 297.35 125.58 266.52 107.97 293.74 92.59 324.57 110.2"/><polygon class="cls-116" points="329.59 113.05 302.37 128.42 294.35 123.86 321.57 108.48 329.59 113.05"/><path class="cls-139" d="M271,89.82c-2.66-1.53-3-3.85-.7-5.16s6.28-1.13,8.94.4,3,3.85.7,5.16S273.65,91.35,271,89.82Z"/><path class="cls-118" d="M278.86,89.6a7.73,7.73,0,0,1-6.94-.31c-2.07-1.19-2.31-3-.54-4a7.72,7.72,0,0,1,6.94.31C280.39,86.78,280.63,88.58,278.86,89.6Z"/><path class="cls-119" d="M272.57,84.21a3.12,3.12,0,0,1-.87-.29l.39-.22a1.84,1.84,0,0,0,1.42.17l.39.22-4.24,2.45-.55-.32Z"/><path class="cls-119" d="M273.66,85.14a2.15,2.15,0,0,1,2.21,0c.77.44.73.9.08,1.28l-2.19,1.26a2.16,2.16,0,0,1-2.22,0c-.76-.44-.72-.9-.07-1.28ZM272,86.73c-.38.22-.42.46,0,.69a1.15,1.15,0,0,0,1.2,0l2.24-1.29c.39-.22.43-.46,0-.7a1.16,1.16,0,0,0-1.21,0Z"/><path class="cls-119" d="M276.44,86.74a2.15,2.15,0,0,1,2.21,0c.77.44.73.9.08,1.28l-2.19,1.26a2.16,2.16,0,0,1-2.22,0c-.76-.44-.72-.9-.07-1.28Zm-1.67,1.6c-.38.22-.42.46,0,.69a1.15,1.15,0,0,0,1.2,0l2.24-1.29c.39-.22.43-.46,0-.7A1.16,1.16,0,0,0,277,87Z"/><path class="cls-119" d="M279.12,88.31a2.15,2.15,0,0,1,2.21,0c.77.44.73.9.08,1.28l-2.19,1.26a2.16,2.16,0,0,1-2.22,0c-.76-.44-.72-.9-.07-1.28Zm-1.67,1.6c-.38.22-.42.46,0,.69a1.15,1.15,0,0,0,1.2,0l2.24-1.29c.39-.22.43-.46,0-.7a1.16,1.16,0,0,0-1.21,0Z"/><path class="cls-120" d="M272.57,84a3.12,3.12,0,0,1-.87-.29l.39-.22a1.84,1.84,0,0,0,1.42.17l.39.22-4.24,2.45L269.1,86Z"/><path class="cls-120" d="M273.66,84.87a2.15,2.15,0,0,1,2.21,0c.77.44.73.9.08,1.28l-2.19,1.26a2.16,2.16,0,0,1-2.22,0c-.76-.44-.72-.9-.07-1.28ZM272,86.47c-.38.22-.42.46,0,.69a1.15,1.15,0,0,0,1.2,0l2.24-1.29c.39-.22.43-.46,0-.7a1.16,1.16,0,0,0-1.21,0Z"/><path class="cls-120" d="M276.44,86.48a2.15,2.15,0,0,1,2.21,0c.77.44.73.9.08,1.28l-2.19,1.26a2.16,2.16,0,0,1-2.22,0c-.76-.44-.72-.9-.07-1.28Zm-1.67,1.6c-.38.22-.42.46,0,.69a1.15,1.15,0,0,0,1.2,0l2.24-1.29c.39-.22.43-.46,0-.7a1.16,1.16,0,0,0-1.21,0Z"/><path class="cls-120" d="M279.12,88.05a2.15,2.15,0,0,1,2.21,0c.77.44.73.9.08,1.28l-2.19,1.26a2.16,2.16,0,0,1-2.22,0c-.76-.44-.72-.9-.07-1.28Zm-1.67,1.6c-.38.22-.42.46,0,.69a1.15,1.15,0,0,0,1.2,0L280.88,89c.39-.22.43-.46,0-.7a1.16,1.16,0,0,0-1.21,0Z"/><path class="cls-140" d="M331.48,125.1c-2.66-1.53-3-3.85-.7-5.16s6.28-1.13,8.94.4,3,3.85.7,5.16S334.14,126.64,331.48,125.1Z"/><path class="cls-118" d="M339.35,124.89a7.73,7.73,0,0,1-6.94-.31c-2.07-1.19-2.31-3-.54-4a7.72,7.72,0,0,1,6.94.31C340.87,122.07,341.12,123.87,339.35,124.89Z"/><path class="cls-119" d="M333.06,119.5a3.12,3.12,0,0,1-.87-.29l.39-.22a1.84,1.84,0,0,0,1.42.17l.39.22-4.24,2.45-.55-.32Z"/><path class="cls-119" d="M334.15,120.42a2.15,2.15,0,0,1,2.21,0c.77.44.73.9.08,1.28L334.25,123a2.16,2.16,0,0,1-2.22,0c-.76-.44-.72-.9-.07-1.28Zm-1.67,1.6c-.38.22-.42.46,0,.69a1.15,1.15,0,0,0,1.2,0l2.24-1.29c.39-.22.43-.46,0-.7a1.16,1.16,0,0,0-1.21,0Z"/><path class="cls-119" d="M336.92,122a2.15,2.15,0,0,1,2.21,0c.77.44.73.9.08,1.28L337,124.61a2.16,2.16,0,0,1-2.22,0c-.76-.44-.72-.9-.07-1.28Zm-1.67,1.6c-.38.22-.42.46,0,.69a1.15,1.15,0,0,0,1.2,0l2.24-1.29c.39-.22.43-.46,0-.7a1.16,1.16,0,0,0-1.21,0Z"/><path class="cls-119" d="M339.61,123.6a2.15,2.15,0,0,1,2.21,0c.77.44.73.9.08,1.28l-2.19,1.26a2.16,2.16,0,0,1-2.22,0c-.76-.44-.72-.9-.07-1.28Zm-1.67,1.6c-.38.22-.42.46,0,.69a1.15,1.15,0,0,0,1.2,0l2.24-1.29c.39-.22.43-.46,0-.7a1.16,1.16,0,0,0-1.21,0Z"/><path class="cls-120" d="M333.06,119.24a3.12,3.12,0,0,1-.87-.29l.39-.22a1.84,1.84,0,0,0,1.42.17l.39.22-4.24,2.45-.55-.32Z"/><path class="cls-120" d="M334.15,120.16a2.15,2.15,0,0,1,2.21,0c.77.44.73.9.08,1.28l-2.19,1.26a2.16,2.16,0,0,1-2.22,0c-.76-.44-.72-.9-.07-1.28Zm-1.67,1.6c-.38.22-.42.46,0,.69a1.15,1.15,0,0,0,1.2,0l2.24-1.29c.39-.22.43-.46,0-.7a1.16,1.16,0,0,0-1.21,0Z"/><path class="cls-120" d="M336.92,121.76a2.15,2.15,0,0,1,2.21,0c.77.44.73.9.08,1.28L337,124.35a2.16,2.16,0,0,1-2.22,0c-.76-.44-.72-.9-.07-1.28Zm-1.67,1.6c-.38.22-.42.46,0,.69a1.15,1.15,0,0,0,1.2,0l2.24-1.29c.39-.22.43-.46,0-.7a1.16,1.16,0,0,0-1.21,0Z"/><path class="cls-120" d="M339.61,123.34a2.15,2.15,0,0,1,2.21,0c.77.44.73.9.08,1.28l-2.19,1.26a2.16,2.16,0,0,1-2.22,0c-.76-.44-.72-.9-.07-1.28Zm-1.67,1.6c-.38.22-.42.46,0,.69a1.15,1.15,0,0,0,1.2,0l2.24-1.29c.39-.22.43-.46,0-.7a1.16,1.16,0,0,0-1.21,0Z"/><path class="cls-119" d="M300.31,125.92l5.74-3.31a5.11,5.11,0,0,1-.7-.3l-.6-.32,1.44-.83.18.1a2.73,2.73,0,0,0,1.33.36,3.71,3.71,0,0,0,.84-.11l.14,0,1.35.78-8,4.64Z"/><path class="cls-122" d="M307,122.48a5.36,5.36,0,0,1-1.5-.51l.67-.38a3.16,3.16,0,0,0,2.43.29l.66.38-7.28,4.2-.94-.54Z"/><path class="cls-119" d="M307.26,129.37a4.35,4.35,0,0,1-2.19-.61c-.77-.44-1.15-.94-1.15-1.47s.35-1,1-1.37l3.75-2.17a4,4,0,0,1,2-.54,4.33,4.33,0,0,1,2.18.61c.78.45,1.17.95,1.17,1.49s-.35,1-1,1.36l-3.76,2.17A4,4,0,0,1,307.26,129.37Zm3.69-4.71a1.76,1.76,0,0,0-.89.26l-3.85,2.22c-.3.18-.33.29-.33.29s.07.12.3.26a1.64,1.64,0,0,0,.82.23,1.74,1.74,0,0,0,.87-.25l3.85-2.22c.31-.18.35-.29.35-.3h0s0-.1-.3-.25A1.61,1.61,0,0,0,311,124.66Z"/><path class="cls-122" d="M308.89,124.07a3.69,3.69,0,0,1,3.79.07c1.32.76,1.25,1.55.14,2.19l-3.76,2.17a3.72,3.72,0,0,1-3.81-.07c-1.31-.76-1.23-1.55-.12-2.19ZM306,126.81c-.65.38-.72.8,0,1.19a2,2,0,0,0,2.07,0l3.85-2.22c.67-.39.74-.8,0-1.2a2,2,0,0,0-2.08,0Z"/><path class="cls-119" d="M312,132.12a4.35,4.35,0,0,1-2.19-.61c-.77-.44-1.15-.94-1.15-1.47s.35-1,1-1.37l3.75-2.17a4,4,0,0,1,2-.54,4.33,4.33,0,0,1,2.18.61c.78.45,1.17.95,1.17,1.48s-.35,1-1,1.36L314,131.58A4,4,0,0,1,312,132.12Zm3.69-4.71a1.78,1.78,0,0,0-.89.26L311,129.89c-.3.18-.33.29-.33.29s.07.12.3.25a1.63,1.63,0,0,0,.82.23,1.73,1.73,0,0,0,.87-.25l3.85-2.22c.31-.18.35-.29.35-.29h0s0-.1-.3-.25A1.63,1.63,0,0,0,315.72,127.41Z"/><path class="cls-122" d="M313.66,126.82a3.69,3.69,0,0,1,3.79.07c1.32.76,1.25,1.55.14,2.2l-3.76,2.17a3.72,3.72,0,0,1-3.81-.08c-1.31-.76-1.23-1.55-.12-2.19Zm-2.86,2.74c-.65.38-.72.8,0,1.19a2,2,0,0,0,2.07,0l3.85-2.22c.67-.38.74-.8,0-1.2a2,2,0,0,0-2.08,0Z"/><path class="cls-119" d="M316.64,134.83a4.36,4.36,0,0,1-2.19-.61c-.77-.44-1.15-.94-1.15-1.47s.35-1,1-1.37l3.75-2.17a4,4,0,0,1,2-.54,4.33,4.33,0,0,1,2.18.61c.78.45,1.17.95,1.17,1.48s-.35,1-1,1.36l-3.76,2.17A4,4,0,0,1,316.64,134.83Zm3.69-4.71a1.77,1.77,0,0,0-.89.26l-3.85,2.22c-.3.18-.33.29-.33.29s.07.12.3.25a1.63,1.63,0,0,0,.82.23h0a1.74,1.74,0,0,0,.87-.25l3.85-2.22c.27-.15.34-.27.35-.29h0s0-.1-.3-.25A1.62,1.62,0,0,0,320.33,130.11Z"/><path class="cls-122" d="M318.27,129.53a3.69,3.69,0,0,1,3.79.07c1.32.76,1.25,1.55.14,2.2L318.45,134a3.72,3.72,0,0,1-3.81-.08c-1.31-.76-1.23-1.55-.12-2.19Zm-2.86,2.74c-.65.38-.72.8,0,1.19a2,2,0,0,0,2.07,0l3.85-2.22c.67-.38.74-.8,0-1.2a2,2,0,0,0-2.08,0Z"/><polygon class="cls-141" points="317.51 106.46 308.79 113.82 301.01 118.34 302.04 120.84 299.66 122.22 271.58 105.62 276.82 103.08 279.75 104.77 282.9 102.94 283.5 103.28 285.99 101.84 290.86 99.8 288.05 102.74 285.83 104.03 286.25 104.28 287.45 104.38 289.68 103.09 290.44 102.04 301.85 99.8 298.33 108.67 291.74 112.5 297.3 115.71 304.57 111.49 317.51 106.46"/><polygon class="cls-48" points="320.35 145.85 320.35 139.91 245.37 96.62 245.37 102.56 320.35 145.85"/><polygon class="cls-124" points="320.35 140.76 320.35 140.55 245.37 97.26 245.37 97.47 320.35 140.76"/><polygon class="cls-124" points="320.35 141.52 320.35 141.3 245.37 98.01 245.37 98.22 320.35 141.52"/><polygon class="cls-124" points="320.35 142.27 320.35 142.06 245.37 98.77 245.37 98.98 320.35 142.27"/><polygon class="cls-124" points="320.35 143.03 320.35 142.81 245.37 99.52 245.37 99.73 320.35 143.03"/><polygon class="cls-124" points="320.35 143.78 320.35 143.57 245.37 100.28 245.37 100.49 320.35 143.78"/><polygon class="cls-124" points="320.35 144.54 320.35 144.32 245.37 101.03 245.37 101.24 320.35 144.54"/><polygon class="cls-124" points="320.35 145.29 320.35 145.08 245.37 101.79 245.37 102 320.35 145.29"/><polygon class="cls-142" points="349.1 123.31 349.1 129.25 320.35 145.85 320.35 139.91 349.1 123.31"/><polygon class="cls-126" points="349.09 123.96 349.09 124.17 320.36 140.76 320.36 140.54 349.09 123.96"/><polygon class="cls-126" points="349.09 124.72 349.09 124.93 320.36 141.51 320.36 141.3 349.09 124.72"/><polygon class="cls-126" points="349.09 125.48 349.09 125.69 320.36 142.27 320.36 142.06 349.09 125.48"/><polygon class="cls-126" points="349.09 126.22 349.09 126.44 320.36 143.03 320.36 142.81 349.09 126.22"/><polygon class="cls-126" points="349.09 126.98 349.09 127.19 320.36 143.78 320.36 143.57 349.09 126.98"/><polygon class="cls-126" points="349.09 127.74 349.09 127.95 320.36 144.54 320.36 144.32 349.09 127.74"/><polygon class="cls-126" points="349.09 128.49 349.09 128.71 320.36 145.29 320.36 145.07 349.09 128.49"/><polygon class="cls-143" points="275.58 120.03 289.64 128.16 289.64 122.24 275.58 114.11 275.58 120.03"/><polygon class="cls-48" points="278.06 121.47 278.06 115.53 287.15 120.78 287.15 126.72 278.06 121.47"/><polygon class="cls-144" points="289.65 122.22 318.49 105.69 304.43 97.58 275.58 114.11 289.65 122.22"/><polygon class="cls-145" points="278.06 115.54 306.88 98.95 315.98 104.2 287.16 120.78 278.06 115.54"/><polygon class="cls-146" points="331.62 135.09 256.64 91.8 285.39 75.2 360.37 118.5 331.62 135.09"/><polygon class="cls-112" points="258.63 91.89 285.54 76.36 358.37 118.41 331.46 133.94 258.63 91.89"/><polygon class="cls-113" points="352.33 120.23 334.63 130.45 264.44 89.93 282.15 79.71 352.33 120.23"/><polygon class="cls-114" points="281.93 98.72 278.12 100.93 262.99 92.2 266.81 89.99 281.93 98.72"/><polygon class="cls-115" points="335.84 105.39 308.63 120.76 277.8 103.15 305.01 87.78 335.84 105.39"/><polygon class="cls-116" points="340.86 108.23 313.65 123.61 305.63 119.04 332.84 103.66 340.86 108.23"/><path class="cls-147" d="M282.27,85c-2.66-1.53-3-3.85-.7-5.16s6.28-1.13,8.94.4,3,3.85.7,5.16S284.93,86.53,282.27,85Z"/><path class="cls-118" d="M290.13,84.78a7.73,7.73,0,0,1-6.94-.31c-2.07-1.19-2.31-3-.54-4a7.72,7.72,0,0,1,6.94.31C291.66,82,291.9,83.76,290.13,84.78Z"/><path class="cls-119" d="M283.84,79.4a3.12,3.12,0,0,1-.87-.29l.39-.22a1.84,1.84,0,0,0,1.42.17l.39.22-4.24,2.45-.55-.32Z"/><path class="cls-119" d="M284.94,80.32a2.15,2.15,0,0,1,2.21,0c.77.44.73.9.08,1.28L285,82.9a2.16,2.16,0,0,1-2.22,0c-.76-.44-.72-.9-.07-1.28Zm-1.67,1.6c-.38.22-.42.46,0,.69a1.15,1.15,0,0,0,1.2,0l2.24-1.29c.39-.22.43-.46,0-.7a1.16,1.16,0,0,0-1.21,0Z"/><path class="cls-119" d="M287.71,81.92a2.15,2.15,0,0,1,2.21,0c.77.44.73.9.08,1.28l-2.19,1.26a2.16,2.16,0,0,1-2.22,0c-.76-.44-.72-.9-.07-1.28ZM286,83.52c-.38.22-.42.46,0,.69a1.15,1.15,0,0,0,1.2,0l2.24-1.29c.39-.22.43-.46,0-.7a1.16,1.16,0,0,0-1.21,0Z"/><path class="cls-119" d="M290.39,83.5a2.15,2.15,0,0,1,2.21,0c.77.44.73.9.08,1.28l-2.19,1.26a2.16,2.16,0,0,1-2.22,0c-.76-.44-.72-.9-.07-1.28Zm-1.67,1.6c-.38.22-.42.46,0,.69a1.15,1.15,0,0,0,1.2,0l2.24-1.29c.39-.22.43-.46,0-.7a1.16,1.16,0,0,0-1.21,0Z"/><path class="cls-120" d="M283.84,79.13a3.12,3.12,0,0,1-.87-.29l.39-.22a1.84,1.84,0,0,0,1.42.17l.39.22-4.24,2.45-.55-.32Z"/><path class="cls-120" d="M284.94,80.06a2.15,2.15,0,0,1,2.21,0c.77.44.73.9.08,1.28L285,82.64a2.16,2.16,0,0,1-2.22,0c-.76-.44-.72-.9-.07-1.28Zm-1.67,1.6c-.38.22-.42.46,0,.69a1.15,1.15,0,0,0,1.2,0L286.69,81c.39-.22.43-.46,0-.7a1.16,1.16,0,0,0-1.21,0Z"/><path class="cls-120" d="M287.71,81.66a2.15,2.15,0,0,1,2.21,0c.77.44.73.9.08,1.28l-2.19,1.26a2.16,2.16,0,0,1-2.22,0c-.76-.44-.72-.9-.07-1.28ZM286,83.25c-.38.22-.42.46,0,.69a1.15,1.15,0,0,0,1.2,0l2.24-1.29c.39-.22.43-.46,0-.7a1.16,1.16,0,0,0-1.21,0Z"/><path class="cls-120" d="M290.39,83.23a2.15,2.15,0,0,1,2.21,0c.77.44.73.9.08,1.28l-2.19,1.26a2.16,2.16,0,0,1-2.22,0c-.76-.44-.72-.9-.07-1.28Zm-1.67,1.6c-.38.22-.42.46,0,.69a1.15,1.15,0,0,0,1.2,0l2.24-1.29c.39-.22.43-.46,0-.7a1.16,1.16,0,0,0-1.21,0Z"/><path class="cls-148" d="M342.76,120.29c-2.66-1.53-3-3.85-.7-5.16s6.28-1.13,8.94.4,3,3.85.7,5.16S345.41,121.82,342.76,120.29Z"/><path class="cls-118" d="M350.62,120.07a7.73,7.73,0,0,1-6.94-.31c-2.07-1.19-2.31-3-.54-4a7.72,7.72,0,0,1,6.94.31C352.15,117.25,352.39,119,350.62,120.07Z"/><path class="cls-119" d="M344.33,114.68a3.12,3.12,0,0,1-.87-.29l.39-.22a1.84,1.84,0,0,0,1.42.17l.39.22L341.41,117l-.55-.32Z"/><path class="cls-119" d="M345.42,115.61a2.15,2.15,0,0,1,2.21,0c.77.44.73.9.08,1.28l-2.19,1.26a2.16,2.16,0,0,1-2.22,0c-.76-.44-.72-.9-.07-1.28Zm-1.67,1.6c-.38.22-.42.46,0,.69a1.15,1.15,0,0,0,1.2,0l2.24-1.29c.39-.22.43-.46,0-.7a1.16,1.16,0,0,0-1.21,0Z"/><path class="cls-119" d="M348.2,117.21a2.15,2.15,0,0,1,2.21,0c.77.44.73.9.08,1.28l-2.19,1.26a2.16,2.16,0,0,1-2.22,0c-.76-.44-.72-.9-.07-1.28Zm-1.67,1.6c-.38.22-.42.46,0,.69a1.15,1.15,0,0,0,1.2,0l2.24-1.29c.39-.22.43-.46,0-.7a1.16,1.16,0,0,0-1.21,0Z"/><path class="cls-119" d="M350.88,118.78a2.15,2.15,0,0,1,2.21,0c.77.44.73.9.08,1.28L351,121.37a2.16,2.16,0,0,1-2.22,0c-.76-.44-.72-.9-.07-1.28Zm-1.67,1.6c-.38.22-.42.46,0,.69a1.15,1.15,0,0,0,1.2,0l2.24-1.29c.39-.22.43-.46,0-.7a1.16,1.16,0,0,0-1.21,0Z"/><path class="cls-120" d="M344.33,114.42a3.12,3.12,0,0,1-.87-.29l.39-.22a1.84,1.84,0,0,0,1.42.17l.39.22-4.24,2.45-.55-.32Z"/><path class="cls-120" d="M345.42,115.35a2.15,2.15,0,0,1,2.21,0c.77.44.73.9.08,1.28l-2.19,1.26a2.16,2.16,0,0,1-2.22,0c-.76-.44-.72-.9-.07-1.28Zm-1.67,1.6c-.38.22-.42.46,0,.69a1.15,1.15,0,0,0,1.2,0l2.24-1.29c.39-.22.43-.46,0-.7a1.16,1.16,0,0,0-1.21,0Z"/><path class="cls-120" d="M348.2,116.95a2.15,2.15,0,0,1,2.21,0c.77.44.73.9.08,1.28l-2.19,1.26a2.16,2.16,0,0,1-2.22,0c-.76-.44-.72-.9-.07-1.28Zm-1.67,1.6c-.38.22-.42.46,0,.69a1.15,1.15,0,0,0,1.2,0l2.24-1.29c.39-.22.43-.46,0-.7a1.16,1.16,0,0,0-1.21,0Z"/><path class="cls-120" d="M350.88,118.52a2.15,2.15,0,0,1,2.21,0c.77.44.73.9.08,1.28L351,121.1a2.16,2.16,0,0,1-2.22,0c-.76-.44-.72-.9-.07-1.28Zm-1.67,1.6c-.38.22-.42.46,0,.69a1.15,1.15,0,0,0,1.2,0l2.24-1.29c.39-.22.43-.46,0-.7a1.16,1.16,0,0,0-1.21,0Z"/><path class="cls-119" d="M311.58,121.11l5.74-3.31a5.11,5.11,0,0,1-.7-.3l-.6-.32,1.44-.83.18.1a2.73,2.73,0,0,0,1.33.36,3.71,3.71,0,0,0,.84-.11l.14,0,1.35.78-8,4.64Z"/><path class="cls-122" d="M318.29,117.66a5.36,5.36,0,0,1-1.5-.51l.67-.38a3.16,3.16,0,0,0,2.43.29l.66.38-7.28,4.2-.94-.54Z"/><path class="cls-119" d="M318.53,124.55a4.35,4.35,0,0,1-2.19-.61c-.77-.44-1.15-.94-1.15-1.47s.35-1,1-1.37l3.75-2.17a4,4,0,0,1,2-.54,4.33,4.33,0,0,1,2.18.61c.78.45,1.17.95,1.17,1.49s-.35,1-1,1.36L320.53,124A4,4,0,0,1,318.53,124.55Zm3.69-4.71a1.76,1.76,0,0,0-.89.26l-3.85,2.22c-.3.18-.33.29-.33.29s.07.12.3.26a1.64,1.64,0,0,0,.82.23,1.74,1.74,0,0,0,.87-.25l3.85-2.22c.31-.18.35-.29.35-.3h0s0-.1-.3-.25A1.61,1.61,0,0,0,322.23,119.84Z"/><path class="cls-122" d="M320.17,119.25a3.69,3.69,0,0,1,3.79.07c1.32.76,1.25,1.55.14,2.19l-3.76,2.17a3.72,3.72,0,0,1-3.81-.07c-1.31-.76-1.23-1.55-.12-2.19ZM317.3,122c-.65.38-.72.8,0,1.19a2,2,0,0,0,2.07,0l3.85-2.22c.67-.39.74-.8,0-1.2a2,2,0,0,0-2.08,0Z"/><path class="cls-119" d="M323.3,127.3a4.35,4.35,0,0,1-2.19-.61c-.77-.44-1.15-.94-1.15-1.47s.35-1,1-1.37l3.75-2.17a4,4,0,0,1,2-.54,4.33,4.33,0,0,1,2.18.61c.78.45,1.17.95,1.17,1.48s-.35,1-1,1.36l-3.75,2.17A4,4,0,0,1,323.3,127.3Zm3.69-4.71a1.78,1.78,0,0,0-.89.26l-3.85,2.22c-.3.18-.33.29-.33.29s.07.12.3.25a1.63,1.63,0,0,0,.82.23,1.73,1.73,0,0,0,.87-.25l3.85-2.22c.31-.18.35-.29.35-.29h0s0-.1-.3-.25A1.63,1.63,0,0,0,327,122.59Z"/><path class="cls-122" d="M324.93,122a3.69,3.69,0,0,1,3.79.07c1.32.76,1.25,1.55.14,2.2l-3.76,2.17a3.72,3.72,0,0,1-3.81-.08c-1.31-.76-1.23-1.55-.12-2.19Zm-2.86,2.74c-.65.38-.72.8,0,1.19a2,2,0,0,0,2.07,0l3.85-2.22c.67-.38.74-.8,0-1.2a2,2,0,0,0-2.08,0Z"/><path class="cls-119" d="M327.91,130a4.36,4.36,0,0,1-2.19-.61c-.77-.44-1.15-.94-1.15-1.47s.35-1,1-1.37l3.75-2.17a4,4,0,0,1,2-.54,4.33,4.33,0,0,1,2.18.61c.78.45,1.17.95,1.17,1.48s-.35,1-1,1.36l-3.76,2.17A4,4,0,0,1,327.91,130Zm3.69-4.71a1.77,1.77,0,0,0-.89.26l-3.85,2.22c-.3.18-.33.29-.33.29s.07.12.3.25a1.63,1.63,0,0,0,.82.23h0a1.74,1.74,0,0,0,.87-.25l3.85-2.22c.27-.15.34-.27.35-.29h0s0-.1-.3-.25A1.62,1.62,0,0,0,331.6,125.3Z"/><path class="cls-122" d="M329.54,124.71a3.69,3.69,0,0,1,3.79.07c1.32.76,1.25,1.55.14,2.2l-3.76,2.17a3.72,3.72,0,0,1-3.81-.08c-1.31-.76-1.23-1.55-.12-2.19Zm-2.86,2.74c-.65.38-.72.8,0,1.19a2,2,0,0,0,2.07,0l3.85-2.22c.67-.38.74-.8,0-1.2a2,2,0,0,0-2.08,0Z"/><polygon class="cls-149" points="328.78 101.65 320.07 109 312.28 113.53 313.31 116.02 310.93 117.41 282.86 100.8 288.09 98.26 291.02 99.95 294.17 98.12 294.77 98.47 297.26 97.02 302.14 94.99 299.32 97.92 297.1 99.21 297.53 99.46 298.73 99.56 300.95 98.27 301.72 97.22 313.12 94.99 309.6 103.86 303.01 107.68 308.57 110.89 315.85 106.67 328.78 101.65"/><polygon class="cls-48" points="331.62 141.03 331.62 135.09 256.64 91.8 256.64 97.74 331.62 141.03"/><polygon class="cls-124" points="331.62 135.94 331.62 135.73 256.64 92.44 256.64 92.65 331.62 135.94"/><polygon class="cls-124" points="331.62 136.7 331.62 136.49 256.64 93.19 256.64 93.41 331.62 136.7"/><polygon class="cls-124" points="331.62 137.45 331.62 137.24 256.64 93.95 256.64 94.16 331.62 137.45"/><polygon class="cls-124" points="331.62 138.21 331.62 138 256.64 94.7 256.64 94.92 331.62 138.21"/><polygon class="cls-124" points="331.62 138.96 331.62 138.75 256.64 95.46 256.64 95.67 331.62 138.96"/><polygon class="cls-124" points="331.62 139.72 331.62 139.51 256.64 96.22 256.64 96.43 331.62 139.72"/><polygon class="cls-124" points="331.62 140.47 331.62 140.26 256.64 96.97 256.64 97.18 331.62 140.47"/><polygon class="cls-150" points="360.37 118.5 360.37 124.43 331.62 141.03 331.62 135.09 360.37 118.5"/><polygon class="cls-126" points="360.37 119.14 360.37 119.36 331.64 135.95 331.64 135.72 360.37 119.14"/><polygon class="cls-126" points="360.37 119.9 360.37 120.11 331.64 136.69 331.64 136.48 360.37 119.9"/><polygon class="cls-126" points="360.37 120.66 360.37 120.87 331.64 137.45 331.64 137.24 360.37 120.66"/><polygon class="cls-126" points="360.37 121.4 360.37 121.63 331.64 138.21 331.64 138 360.37 121.4"/><polygon class="cls-126" points="360.37 122.16 360.37 122.37 331.64 138.97 331.64 138.76 360.37 122.16"/><polygon class="cls-126" points="360.37 122.92 360.37 123.13 331.64 139.72 331.64 139.5 360.37 122.92"/><polygon class="cls-126" points="360.37 123.68 360.37 123.89 331.64 140.47 331.64 140.26 360.37 123.68"/><polygon class="cls-151" points="286.85 115.21 300.91 123.34 300.91 117.42 286.85 109.3 286.85 115.21"/><polygon class="cls-48" points="289.34 116.65 289.34 110.71 298.43 115.97 298.43 121.91 289.34 116.65"/><polygon class="cls-152" points="300.92 117.41 329.76 100.88 315.7 92.76 286.85 109.3 300.92 117.41"/><polygon class="cls-153" points="289.34 110.72 318.15 94.14 327.25 99.38 298.43 115.97 289.34 110.72"/></g></g></g></svg>