<svg xmlns="http://www.w3.org/2000/svg" xmlns:xlink="http://www.w3.org/1999/xlink" viewBox="0 0 449.95 443.6"><defs><style>.cls-1{isolation:isolate;}.cls-169,.cls-2,.cls-68,.cls-74{mix-blend-mode:multiply;}.cls-3{fill:#fff;opacity:0;}.cls-4{fill:#fbfbfb;opacity:0.05;}.cls-5{fill:#f8f7f7;opacity:0.1;}.cls-6{fill:#f5f5f5;opacity:0.14;}.cls-7{fill:#f3f2f2;opacity:0.19;}.cls-8{fill:#f0f0f0;opacity:0.24;}.cls-9{fill:#eee;opacity:0.29;}.cls-10{fill:#ecebec;opacity:0.33;}.cls-11{fill:#eae9e9;opacity:0.38;}.cls-12{fill:#e8e7e7;opacity:0.43;}.cls-13{fill:#e5e5e5;opacity:0.48;}.cls-14{fill:#e3e3e3;opacity:0.52;}.cls-15{fill:#e1e1e2;opacity:0.57;}.cls-16{fill:#dfdfe0;opacity:0.62;}.cls-17{fill:#ddddde;opacity:0.67;}.cls-18{fill:#dbdadc;opacity:0.71;}.cls-19{fill:#d8d8da;opacity:0.76;}.cls-20{fill:#d6d6d8;opacity:0.81;}.cls-21{fill:#d4d4d6;opacity:0.86;}.cls-22{fill:#d2d3d4;opacity:0.9;}.cls-23{fill:#d0d1d2;opacity:0.95;}.cls-24{fill:#cecfd0;}.cls-25{fill:#c4c4c4;}.cls-198,.cls-25,.cls-26,.cls-27,.cls-28,.cls-29,.cls-30,.cls-31,.cls-32,.cls-33,.cls-34,.cls-35,.cls-36,.cls-37,.cls-38,.cls-39,.cls-40,.cls-41,.cls-42,.cls-43,.cls-44,.cls-45,.cls-46,.cls-47,.cls-48,.cls-49,.cls-50,.cls-51,.cls-52,.cls-53,.cls-54,.cls-55,.cls-56,.cls-57,.cls-58,.cls-59,.cls-60,.cls-61,.cls-62,.cls-63,.cls-64,.cls-65,.cls-66,.cls-67,.cls-68,.cls-69,.cls-70,.cls-71,.cls-77{fill-rule:evenodd;}.cls-26{fill:url(#linear-gradient);}.cls-27{fill:url(#linear-gradient-2);}.cls-28{fill:url(#linear-gradient-3);}.cls-29{fill:url(#linear-gradient-4);}.cls-30{fill:url(#linear-gradient-5);}.cls-31{fill:url(#linear-gradient-6);}.cls-32{fill:url(#linear-gradient-7);}.cls-33{fill:url(#linear-gradient-8);}.cls-34{fill:url(#linear-gradient-9);}.cls-35{fill:url(#linear-gradient-10);}.cls-36{fill:url(#linear-gradient-11);}.cls-37{fill:url(#linear-gradient-12);}.cls-38{fill:url(#linear-gradient-13);}.cls-39{fill:url(#linear-gradient-14);}.cls-40{fill:url(#linear-gradient-15);}.cls-41{fill:url(#linear-gradient-16);}.cls-42{fill:url(#linear-gradient-17);}.cls-43{fill:url(#linear-gradient-18);}.cls-44{fill:url(#linear-gradient-19);}.cls-45{fill:url(#linear-gradient-20);}.cls-46{fill:url(#Безымянный_градиент_650);}.cls-47{fill:url(#linear-gradient-21);}.cls-48{fill:url(#linear-gradient-22);}.cls-49{fill:url(#linear-gradient-23);}.cls-50{fill:url(#linear-gradient-24);}.cls-51{fill:url(#linear-gradient-25);}.cls-52{fill:url(#linear-gradient-26);}.cls-53{fill:url(#linear-gradient-27);}.cls-54{fill:url(#linear-gradient-28);}.cls-55{fill:url(#linear-gradient-29);}.cls-56{fill:url(#linear-gradient-30);}.cls-57{fill:url(#linear-gradient-31);}.cls-58{fill:url(#linear-gradient-32);}.cls-59{fill:url(#linear-gradient-33);}.cls-60{fill:url(#linear-gradient-34);}.cls-61{fill:url(#linear-gradient-35);}.cls-62{fill:url(#linear-gradient-36);}.cls-63{fill:url(#linear-gradient-37);}.cls-64{fill:url(#linear-gradient-38);}.cls-65{fill:url(#linear-gradient-39);}.cls-66{fill:url(#linear-gradient-40);}.cls-67{fill:url(#Безымянный_градиент_3084);}.cls-68{fill:#e0e0d9;}.cls-69{fill:#eeb32e;}.cls-70{fill:#fae048;}.cls-71{fill:#fdf16f;}.cls-72,.cls-73,.cls-78,.cls-79,.cls-80,.cls-81{mix-blend-mode:overlay;}.cls-72{fill:url(#Безымянный_градиент_811);}.cls-73{fill:url(#Безымянный_градиент_809);}.cls-74{fill:url(#Безымянный_градиент_807);}.cls-75,.cls-76{mix-blend-mode:hard-light;}.cls-75{fill:url(#Безымянный_градиент_806);}.cls-76{fill:url(#Безымянный_градиент_805);}.cls-77{fill:#faf070;}.cls-78{fill:url(#Безымянный_градиент_811-2);}.cls-79{fill:url(#Безымянный_градиент_810);}.cls-80{fill:url(#Безымянный_градиент_809-2);}.cls-81{fill:url(#Безымянный_градиент_808);}.cls-82{fill:#3d3d3d;}.cls-83{fill:#b3b3b3;}.cls-84{fill:#c2c1c1;}.cls-85{fill:#ddd;}.cls-86{fill:#b0b0b0;}.cls-87{fill:#a5a5a5;}.cls-88{fill:url(#Безымянный_градиент_424);}.cls-89{fill:url(#Безымянный_градиент_418);}.cls-90{fill:#fcbd83;}.cls-91{fill:#b3e1e3;}.cls-92{fill:url(#Безымянный_градиент_2581);}.cls-93{fill:url(#GradientFill_136);}.cls-94{fill:url(#Безымянный_градиент_2581-2);}.cls-95{fill:url(#Безымянный_градиент_2581-3);}.cls-96{fill:url(#GradientFill_136-2);}.cls-97{fill:url(#Безымянный_градиент_2581-4);}.cls-98{fill:url(#Безымянный_градиент_2581-5);}.cls-99{fill:url(#GradientFill_136-3);}.cls-100{fill:url(#Безымянный_градиент_2581-6);}.cls-101{fill:url(#Безымянный_градиент_2581-7);}.cls-102{fill:url(#GradientFill_136-4);}.cls-103{fill:url(#Безымянный_градиент_2581-8);}.cls-104{fill:url(#Безымянный_градиент_2581-9);}.cls-105{fill:url(#GradientFill_136-5);}.cls-106{fill:url(#Безымянный_градиент_2581-10);}.cls-107{fill:url(#Безымянный_градиент_2581-11);}.cls-108{fill:url(#GradientFill_136-6);}.cls-109{fill:url(#Безымянный_градиент_2581-12);}.cls-110{fill:url(#Безымянный_градиент_2581-13);}.cls-111{fill:url(#Безымянный_градиент_2581-14);}.cls-112{fill:url(#Безымянный_градиент_2581-15);}.cls-113{fill:url(#Безымянный_градиент_2581-16);}.cls-114{fill:url(#Безымянный_градиент_2581-17);}.cls-115{fill:url(#Безымянный_градиент_2581-18);}.cls-116{fill:url(#Безымянный_градиент_2581-19);}.cls-117{fill:url(#Безымянный_градиент_2581-20);}.cls-118{fill:url(#GradientFill_136-7);}.cls-119{fill:url(#Безымянный_градиент_2581-21);}.cls-120{fill:url(#GradientFill_136-8);}.cls-121{fill:url(#Безымянный_градиент_2581-22);}.cls-122{fill:url(#Безымянный_градиент_2581-23);}.cls-123{fill:url(#GradientFill_136-9);}.cls-124{fill:url(#Безымянный_градиент_2581-24);}.cls-125{fill:url(#Безымянный_градиент_2581-25);}.cls-126{fill:#ef8e2c;}.cls-127{fill:url(#Безымянный_градиент_2581-26);}.cls-128{fill:url(#Безымянный_градиент_424-2);}.cls-129{fill:url(#Безымянный_градиент_418-2);}.cls-130{fill:url(#GradientFill_19);}.cls-131{fill:url(#Безымянный_градиент_2581-27);}.cls-132{fill:url(#GradientFill_19-2);}.cls-133{fill:url(#Безымянный_градиент_2581-28);}.cls-134{fill:url(#GradientFill_19-3);}.cls-135{fill:url(#GradientFill_136-10);}.cls-136{fill:url(#Безымянный_градиент_2581-29);}.cls-137{fill:url(#GradientFill_136-11);}.cls-138{fill:url(#Безымянный_градиент_2581-30);}.cls-139{fill:url(#GradientFill_136-12);}.cls-140{fill:url(#GradientFill_19-4);}.cls-141{fill:url(#GradientFill_136-13);}.cls-142{fill:url(#GradientFill_19-5);}.cls-143{fill:url(#GradientFill_136-14);}.cls-144{fill:url(#GradientFill_136-15);}.cls-145{fill:url(#GradientFill_19-6);}.cls-146{fill:url(#GradientFill_136-16);}.cls-147{fill:url(#GradientFill_19-7);}.cls-148{fill:url(#GradientFill_136-17);}.cls-149{fill:url(#GradientFill_19-8);}.cls-150{fill:url(#GradientFill_136-18);}.cls-151{fill:url(#GradientFill_19-9);}.cls-152{fill:url(#GradientFill_136-19);}.cls-153{fill:url(#GradientFill_19-10);}.cls-154{fill:url(#GradientFill_136-20);}.cls-155{fill:url(#GradientFill_19-11);}.cls-156{fill:url(#GradientFill_136-21);}.cls-157{fill:url(#GradientFill_19-12);}.cls-158{fill:url(#GradientFill_136-22);}.cls-159{fill:url(#GradientFill_19-13);}.cls-160{fill:url(#GradientFill_136-23);}.cls-161{fill:url(#GradientFill_19-14);}.cls-162{fill:url(#GradientFill_136-24);}.cls-163{fill:url(#GradientFill_19-15);}.cls-164{fill:#575858;}.cls-165{fill:#c7c6c5;}.cls-166{fill:url(#Безымянный_градиент_415);}.cls-167{fill:url(#Безымянный_градиент_414);}.cls-168{fill:#717171;}.cls-169,.cls-173{fill:#dbdada;}.cls-170{fill:#e9e8e7;}.cls-171{fill:url(#GradientFill_136-25);}.cls-172{fill:url(#GradientFill_121);}.cls-174{fill:url(#Безымянный_градиент_1919);}.cls-175{fill:url(#Безымянный_градиент_1919-2);}.cls-176{fill:url(#Безымянный_градиент_1919-3);}.cls-177{fill:url(#Безымянный_градиент_1919-4);}.cls-178{fill:url(#Безымянный_градиент_1919-5);}.cls-179{fill:#8ad1ce;}.cls-180{fill:url(#Безымянный_градиент_1919-6);}.cls-181{fill:url(#Безымянный_градиент_1919-7);}.cls-182{fill:url(#Безымянный_градиент_1919-8);}.cls-183{fill:url(#Безымянный_градиент_1919-9);}.cls-184{fill:#055c5c;}.cls-185{fill:url(#Безымянный_градиент_1919-10);}.cls-186{fill:url(#Безымянный_градиент_1919-11);}.cls-187{fill:url(#Безымянный_градиент_1919-12);}.cls-188{fill:url(#Безымянный_градиент_1919-13);}.cls-189{fill:url(#Безымянный_градиент_1919-14);}.cls-190{fill:url(#Безымянный_градиент_1919-15);}.cls-191{fill:url(#Безымянный_градиент_1919-16);}.cls-192{fill:url(#Безымянный_градиент_1919-17);}.cls-193{fill:url(#GradientFill_19-16);}.cls-194{fill:url(#GradientFill_19-17);}.cls-195{fill:url(#Безымянный_градиент_433);}.cls-196{fill:url(#Безымянный_градиент_414-2);}.cls-197{fill:url(#Безымянный_градиент_414-3);}.cls-198{fill:#d71920;}</style><linearGradient id="linear-gradient" x1="17.03" y1="293.32" x2="408.01" y2="293.32" gradientUnits="userSpaceOnUse"><stop offset="0" stop-color="#c6c6c6"/><stop offset="1" stop-color="#c5c4c4"/></linearGradient><linearGradient id="linear-gradient-2" x1="16.85" y1="293.19" x2="408.1" y2="293.19" gradientUnits="userSpaceOnUse"><stop offset="0" stop-color="#c9c8c8"/><stop offset="1" stop-color="#c5c5c5"/></linearGradient><linearGradient id="linear-gradient-3" x1="16.66" y1="293.06" x2="408.19" y2="293.06" gradientUnits="userSpaceOnUse"><stop offset="0" stop-color="#cbcaca"/><stop offset="1" stop-color="#c5c5c5"/></linearGradient><linearGradient id="linear-gradient-4" x1="16.48" y1="292.94" x2="408.28" y2="292.94" gradientUnits="userSpaceOnUse"><stop offset="0" stop-color="#cdcdcd"/><stop offset="1" stop-color="#c6c6c6"/></linearGradient><linearGradient id="linear-gradient-5" x1="16.29" y1="292.81" x2="408.37" y2="292.81" gradientUnits="userSpaceOnUse"><stop offset="0" stop-color="#cfcfcf"/><stop offset="1" stop-color="#c6c6c6"/></linearGradient><linearGradient id="linear-gradient-6" x1="16.11" y1="292.68" x2="408.46" y2="292.68" gradientUnits="userSpaceOnUse"><stop offset="0" stop-color="#d2d1d1"/><stop offset="1" stop-color="#c7c7c7"/></linearGradient><linearGradient id="linear-gradient-7" x1="15.92" y1="292.56" x2="408.55" y2="292.56" gradientUnits="userSpaceOnUse"><stop offset="0" stop-color="#d4d4d3"/><stop offset="1" stop-color="#c7c7c7"/></linearGradient><linearGradient id="linear-gradient-8" x1="15.74" y1="292.43" x2="408.64" y2="292.43" gradientUnits="userSpaceOnUse"><stop offset="0" stop-color="#d6d6d6"/><stop offset="1" stop-color="#c8c7c7"/></linearGradient><linearGradient id="linear-gradient-9" x1="15.55" y1="292.3" x2="408.73" y2="292.3" gradientUnits="userSpaceOnUse"><stop offset="0" stop-color="#d9d8d8"/><stop offset="1" stop-color="#c8c8c8"/></linearGradient><linearGradient id="linear-gradient-10" x1="15.37" y1="292.17" x2="408.82" y2="292.17" gradientUnits="userSpaceOnUse"><stop offset="0" stop-color="#dbdbda"/><stop offset="1" stop-color="#c9c8c8"/></linearGradient><linearGradient id="linear-gradient-11" x1="15.18" y1="292.05" x2="408.9" y2="292.05" gradientUnits="userSpaceOnUse"><stop offset="0" stop-color="#ddd"/><stop offset="1" stop-color="#c9c9c9"/></linearGradient><linearGradient id="linear-gradient-12" x1="15" y1="291.92" x2="408.99" y2="291.92" gradientUnits="userSpaceOnUse"><stop offset="0" stop-color="#e0e0df"/><stop offset="1" stop-color="#cac9c9"/></linearGradient><linearGradient id="linear-gradient-13" x1="14.81" y1="291.79" x2="409.08" y2="291.79" gradientUnits="userSpaceOnUse"><stop offset="0" stop-color="#e2e2e2"/><stop offset="1" stop-color="#cacaca"/></linearGradient><linearGradient id="linear-gradient-14" x1="14.63" y1="291.66" x2="409.17" y2="291.66" gradientUnits="userSpaceOnUse"><stop offset="0" stop-color="#e5e4e4"/><stop offset="1" stop-color="#cacaca"/></linearGradient><linearGradient id="linear-gradient-15" x1="14.44" y1="291.54" x2="409.26" y2="291.54" gradientUnits="userSpaceOnUse"><stop offset="0" stop-color="#e7e7e7"/><stop offset="1" stop-color="#cbcbcb"/></linearGradient><linearGradient id="linear-gradient-16" x1="14.26" y1="291.41" x2="409.35" y2="291.41" gradientUnits="userSpaceOnUse"><stop offset="0" stop-color="#eae9e9"/><stop offset="1" stop-color="#cbcbcb"/></linearGradient><linearGradient id="linear-gradient-17" x1="14.07" y1="291.28" x2="409.44" y2="291.28" gradientUnits="userSpaceOnUse"><stop offset="0" stop-color="#ececec"/><stop offset="1" stop-color="#ccc"/></linearGradient><linearGradient id="linear-gradient-18" x1="13.89" y1="291.16" x2="409.53" y2="291.16" gradientUnits="userSpaceOnUse"><stop offset="0" stop-color="#efefef"/><stop offset="1" stop-color="#ccc"/></linearGradient><linearGradient id="linear-gradient-19" x1="13.7" y1="291.03" x2="409.62" y2="291.03" gradientUnits="userSpaceOnUse"><stop offset="0" stop-color="#f2f1f1"/><stop offset="1" stop-color="#cdcdcc"/></linearGradient><linearGradient id="linear-gradient-20" x1="13.52" y1="290.9" x2="409.71" y2="290.9" gradientUnits="userSpaceOnUse"><stop offset="0" stop-color="#f4f4f4"/><stop offset="1" stop-color="#cdcdcd"/></linearGradient><linearGradient id="Безымянный_градиент_650" x1="13.33" y1="290.77" x2="409.8" y2="290.77" gradientUnits="userSpaceOnUse"><stop offset="0" stop-color="#f7f8f8"/><stop offset="1" stop-color="#cececd"/></linearGradient><linearGradient id="linear-gradient-21" x1="13.52" y1="290.7" x2="409.71" y2="290.7" gradientUnits="userSpaceOnUse"><stop offset="0" stop-color="#f8f8f8"/><stop offset="1" stop-color="#cfcfcf"/></linearGradient><linearGradient id="linear-gradient-22" x1="13.7" y1="290.63" x2="409.62" y2="290.63" gradientUnits="userSpaceOnUse"><stop offset="0" stop-color="#f8f8f8"/><stop offset="1" stop-color="#d1d1d1"/></linearGradient><linearGradient id="linear-gradient-23" x1="13.89" y1="290.55" x2="409.53" y2="290.55" gradientUnits="userSpaceOnUse"><stop offset="0" stop-color="#f8f9f9"/><stop offset="1" stop-color="#d3d3d3"/></linearGradient><linearGradient id="linear-gradient-24" x1="14.07" y1="290.48" x2="409.44" y2="290.48" gradientUnits="userSpaceOnUse"><stop offset="0" stop-color="#f8f9f9"/><stop offset="1" stop-color="#d5d5d5"/></linearGradient><linearGradient id="linear-gradient-25" x1="14.26" y1="290.41" x2="409.35" y2="290.41" gradientUnits="userSpaceOnUse"><stop offset="0" stop-color="#f9f9f9"/><stop offset="1" stop-color="#d7d7d6"/></linearGradient><linearGradient id="linear-gradient-26" x1="14.44" y1="290.33" x2="409.26" y2="290.33" gradientUnits="userSpaceOnUse"><stop offset="0" stop-color="#f9f9fa"/><stop offset="1" stop-color="#d9d8d8"/></linearGradient><linearGradient id="linear-gradient-27" x1="14.63" y1="290.26" x2="409.17" y2="290.26" gradientUnits="userSpaceOnUse"><stop offset="0" stop-color="#f9fafa"/><stop offset="1" stop-color="#dbdada"/></linearGradient><linearGradient id="linear-gradient-28" x1="14.81" y1="290.18" x2="409.08" y2="290.18" gradientUnits="userSpaceOnUse"><stop offset="0" stop-color="#fafafa"/><stop offset="1" stop-color="#dddcdc"/></linearGradient><linearGradient id="linear-gradient-29" x1="15" y1="290.11" x2="408.99" y2="290.11" gradientUnits="userSpaceOnUse"><stop offset="0" stop-color="#fafafb"/><stop offset="1" stop-color="#dedede"/></linearGradient><linearGradient id="linear-gradient-30" x1="15.18" y1="290.04" x2="408.9" y2="290.04" gradientUnits="userSpaceOnUse"><stop offset="0" stop-color="#fafbfb"/><stop offset="1" stop-color="#e0e0e0"/></linearGradient><linearGradient id="linear-gradient-31" x1="15.37" y1="289.96" x2="408.82" y2="289.96" gradientUnits="userSpaceOnUse"><stop offset="0" stop-color="#fbfbfb"/><stop offset="1" stop-color="#e2e2e2"/></linearGradient><linearGradient id="linear-gradient-32" x1="15.55" y1="289.89" x2="408.73" y2="289.89" gradientUnits="userSpaceOnUse"><stop offset="0" stop-color="#fbfbfc"/><stop offset="1" stop-color="#e4e4e4"/></linearGradient><linearGradient id="linear-gradient-33" x1="15.74" y1="289.82" x2="408.64" y2="289.82" gradientUnits="userSpaceOnUse"><stop offset="0" stop-color="#fcfcfc"/><stop offset="1" stop-color="#e7e6e6"/></linearGradient><linearGradient id="linear-gradient-34" x1="15.92" y1="289.74" x2="408.55" y2="289.74" gradientUnits="userSpaceOnUse"><stop offset="0" stop-color="#fcfcfc"/><stop offset="1" stop-color="#e8e8e8"/></linearGradient><linearGradient id="linear-gradient-35" x1="16.11" y1="289.67" x2="408.46" y2="289.67" gradientUnits="userSpaceOnUse"><stop offset="0" stop-color="#fcfdfd"/><stop offset="1" stop-color="#eaeaea"/></linearGradient><linearGradient id="linear-gradient-36" x1="16.29" y1="289.59" x2="408.37" y2="289.59" gradientUnits="userSpaceOnUse"><stop offset="0" stop-color="#fdfdfd"/><stop offset="1" stop-color="#ececec"/></linearGradient><linearGradient id="linear-gradient-37" x1="16.48" y1="289.52" x2="408.28" y2="289.52" gradientUnits="userSpaceOnUse"><stop offset="0" stop-color="#fdfdfd"/><stop offset="1" stop-color="#efeeee"/></linearGradient><linearGradient id="linear-gradient-38" x1="16.66" y1="289.45" x2="408.19" y2="289.45" gradientUnits="userSpaceOnUse"><stop offset="0" stop-color="#fefefe"/><stop offset="1" stop-color="#f1f0f0"/></linearGradient><linearGradient id="linear-gradient-39" x1="16.85" y1="289.37" x2="408.1" y2="289.37" gradientUnits="userSpaceOnUse"><stop offset="0" stop-color="#fefefe"/><stop offset="1" stop-color="#f3f3f3"/></linearGradient><linearGradient id="linear-gradient-40" x1="17.03" y1="289.3" x2="408.01" y2="289.3" gradientUnits="userSpaceOnUse"><stop offset="0" stop-color="#fff"/><stop offset="1" stop-color="#f5f5f5"/></linearGradient><linearGradient id="Безымянный_градиент_3084" x1="17.21" y1="289.23" x2="407.92" y2="289.23" gradientUnits="userSpaceOnUse"><stop offset="0" stop-color="#fff"/><stop offset="1" stop-color="#f7f8f8"/></linearGradient><linearGradient id="Безымянный_градиент_811" x1="257.38" y1="285.46" x2="258.34" y2="287.09" gradientUnits="userSpaceOnUse"><stop offset="0" stop-color="#818181"/><stop offset="0.49" stop-color="#7f7f7f"/><stop offset="0.67" stop-color="#787878"/><stop offset="0.8" stop-color="#6d6d6d"/><stop offset="0.9" stop-color="#5c5c5c"/><stop offset="0.99" stop-color="#464646"/><stop offset="1" stop-color="#424242"/></linearGradient><linearGradient id="Безымянный_градиент_809" x1="224.93" y1="290.52" x2="225.92" y2="288.82" gradientUnits="userSpaceOnUse"><stop offset="0" stop-color="#424242"/><stop offset="0.11" stop-color="#575757"/><stop offset="0.24" stop-color="#6a6a6a"/><stop offset="0.4" stop-color="#777"/><stop offset="0.6" stop-color="#7f7f7f"/><stop offset="1" stop-color="#818181"/></linearGradient><linearGradient id="Безымянный_градиент_807" x1="238.33" y1="300.42" x2="239.16" y2="300.42" gradientUnits="userSpaceOnUse"><stop offset="0" stop-color="#fff"/><stop offset="0.21" stop-color="#fdfdfd"/><stop offset="0.3" stop-color="#f6f6f6"/><stop offset="0.36" stop-color="#e9eaea"/><stop offset="0.42" stop-color="#d8d8d8"/><stop offset="0.46" stop-color="#c1c2c2"/><stop offset="0.48" stop-color="#b5b6b6"/><stop offset="0.5" stop-color="#c3c3c3"/><stop offset="0.55" stop-color="#d9d9d9"/><stop offset="0.61" stop-color="#eaeaea"/><stop offset="0.67" stop-color="#f6f6f6"/><stop offset="0.76" stop-color="#fdfdfd"/><stop offset="1" stop-color="#fff"/></linearGradient><linearGradient id="Безымянный_градиент_806" x1="238.74" y1="299.88" x2="240.63" y2="299.88" gradientUnits="userSpaceOnUse"><stop offset="0" stop-color="#818181"/><stop offset="0.01" stop-color="#848780"/><stop offset="0.06" stop-color="#8b957f"/><stop offset="0.1" stop-color="#8e9a7e"/><stop offset="0.13" stop-color="#8c977e"/><stop offset="0.29" stop-color="#868a80"/><stop offset="0.5" stop-color="#828381"/><stop offset="1" stop-color="#818181"/></linearGradient><linearGradient id="Безымянный_градиент_805" x1="-9626.04" y1="300.17" x2="-9625.22" y2="300.17" gradientTransform="matrix(-1, 0, 0, 1, -9387.3, 0)" gradientUnits="userSpaceOnUse"><stop offset="0" stop-color="#818181"/><stop offset="0" stop-color="#868582"/><stop offset="0.02" stop-color="#afa887"/><stop offset="0.04" stop-color="#d0c38c"/><stop offset="0.06" stop-color="#e8d78f"/><stop offset="0.08" stop-color="#f6e391"/><stop offset="0.1" stop-color="#fbe792"/><stop offset="0.16" stop-color="#dccd8e"/><stop offset="0.23" stop-color="#c0b68a"/><stop offset="0.31" stop-color="#a9a287"/><stop offset="0.4" stop-color="#979384"/><stop offset="0.51" stop-color="#8a8982"/><stop offset="0.66" stop-color="#838381"/><stop offset="1" stop-color="#818181"/></linearGradient><linearGradient id="Безымянный_градиент_811-2" x1="257.38" y1="319.59" x2="258.34" y2="321.22" xlink:href="#Безымянный_градиент_811"/><linearGradient id="Безымянный_градиент_810" x1="257.38" y1="256.66" x2="258.34" y2="258.29" gradientUnits="userSpaceOnUse"><stop offset="0" stop-color="#c3c3c3"/><stop offset="0.12" stop-color="#ababab"/><stop offset="0.25" stop-color="#989898"/><stop offset="0.41" stop-color="#8b8b8b"/><stop offset="0.61" stop-color="#838383"/><stop offset="1" stop-color="#818181"/></linearGradient><linearGradient id="Безымянный_градиент_809-2" x1="224.93" y1="324.65" x2="225.92" y2="322.96" xlink:href="#Безымянный_градиент_809"/><linearGradient id="Безымянный_градиент_808" x1="224.93" y1="261.72" x2="225.92" y2="260.02" gradientUnits="userSpaceOnUse"><stop offset="0" stop-color="#818181"/><stop offset="0.33" stop-color="#838383"/><stop offset="0.49" stop-color="#8b8b8b"/><stop offset="0.62" stop-color="#989898"/><stop offset="0.74" stop-color="#ababab"/><stop offset="0.84" stop-color="#c4c4c4"/><stop offset="0.93" stop-color="#e2e2e2"/><stop offset="1" stop-color="#fff"/></linearGradient><linearGradient id="Безымянный_градиент_424" x1="155.67" y1="96.15" x2="156.93" y2="96.15" gradientUnits="userSpaceOnUse"><stop offset="0" stop-color="#1a7d7d"/><stop offset="1" stop-color="#0f7a6e"/></linearGradient><linearGradient id="Безымянный_градиент_418" x1="154.42" y1="96.15" x2="155.67" y2="96.15" gradientUnits="userSpaceOnUse"><stop offset="0" stop-color="#05a2a7"/><stop offset="1" stop-color="#349292"/></linearGradient><linearGradient id="Безымянный_градиент_2581" x1="134.12" y1="202.27" x2="144.28" y2="202.27" gradientUnits="userSpaceOnUse"><stop offset="0" stop-color="#0b7c7b"/><stop offset="1" stop-color="#05a2a7"/></linearGradient><linearGradient id="GradientFill_136" x1="144.28" y1="201.25" x2="154.44" y2="201.25" gradientUnits="userSpaceOnUse"><stop offset="0" stop-color="#fff"/><stop offset="1" stop-color="#f6f6f6"/></linearGradient><linearGradient id="Безымянный_градиент_2581-2" x1="144.28" y1="202.27" x2="154.44" y2="202.27" xlink:href="#Безымянный_градиент_2581"/><linearGradient id="Безымянный_градиент_2581-3" x1="134.12" y1="217.94" x2="144.28" y2="217.94" xlink:href="#Безымянный_градиент_2581"/><linearGradient id="GradientFill_136-2" x1="144.28" y1="216.92" x2="154.44" y2="216.92" xlink:href="#GradientFill_136"/><linearGradient id="Безымянный_градиент_2581-4" x1="144.28" y1="217.94" x2="154.44" y2="217.94" xlink:href="#Безымянный_градиент_2581"/><linearGradient id="Безымянный_градиент_2581-5" x1="134.12" y1="186.86" x2="144.28" y2="186.86" xlink:href="#Безымянный_градиент_2581"/><linearGradient id="GradientFill_136-3" x1="144.28" y1="185.83" x2="154.44" y2="185.83" xlink:href="#GradientFill_136"/><linearGradient id="Безымянный_градиент_2581-6" x1="144.28" y1="186.86" x2="154.44" y2="186.86" xlink:href="#Безымянный_градиент_2581"/><linearGradient id="Безымянный_градиент_2581-7" x1="134.12" y1="171.37" x2="144.28" y2="171.37" xlink:href="#Безымянный_градиент_2581"/><linearGradient id="GradientFill_136-4" x1="144.28" y1="170.34" x2="154.44" y2="170.34" xlink:href="#GradientFill_136"/><linearGradient id="Безымянный_градиент_2581-8" x1="144.28" y1="171.37" x2="154.44" y2="171.37" xlink:href="#Безымянный_градиент_2581"/><linearGradient id="Безымянный_градиент_2581-9" x1="134.12" y1="155.87" x2="144.28" y2="155.87" xlink:href="#Безымянный_градиент_2581"/><linearGradient id="GradientFill_136-5" x1="144.28" y1="154.85" x2="154.44" y2="154.85" xlink:href="#GradientFill_136"/><linearGradient id="Безымянный_градиент_2581-10" x1="144.28" y1="155.87" x2="154.44" y2="155.87" xlink:href="#Безымянный_градиент_2581"/><linearGradient id="Безымянный_градиент_2581-11" x1="134.12" y1="140.38" x2="144.28" y2="140.38" xlink:href="#Безымянный_градиент_2581"/><linearGradient id="GradientFill_136-6" x1="144.28" y1="139.36" x2="154.44" y2="139.36" xlink:href="#GradientFill_136"/><linearGradient id="Безымянный_градиент_2581-12" x1="144.28" y1="140.38" x2="154.44" y2="140.38" xlink:href="#Безымянный_градиент_2581"/><linearGradient id="Безымянный_градиент_2581-13" x1="134.12" y1="124.89" x2="144.28" y2="124.89" xlink:href="#Безымянный_градиент_2581"/><linearGradient id="Безымянный_градиент_2581-14" x1="144.28" y1="124.89" x2="154.44" y2="124.89" xlink:href="#Безымянный_градиент_2581"/><linearGradient id="Безымянный_градиент_2581-15" x1="134.12" y1="109.4" x2="144.28" y2="109.4" xlink:href="#Безымянный_градиент_2581"/><linearGradient id="Безымянный_градиент_2581-16" x1="144.28" y1="109.4" x2="154.44" y2="109.4" xlink:href="#Безымянный_градиент_2581"/><linearGradient id="Безымянный_градиент_2581-17" x1="134.12" y1="93.91" x2="144.28" y2="93.91" xlink:href="#Безымянный_градиент_2581"/><linearGradient id="Безымянный_градиент_2581-18" x1="144.28" y1="93.91" x2="154.44" y2="93.91" xlink:href="#Безымянный_градиент_2581"/><linearGradient id="Безымянный_градиент_2581-19" x1="134.12" y1="78.42" x2="144.28" y2="78.42" xlink:href="#Безымянный_градиент_2581"/><linearGradient id="Безымянный_градиент_2581-20" x1="144.28" y1="78.42" x2="154.44" y2="78.42" xlink:href="#Безымянный_градиент_2581"/><linearGradient id="GradientFill_136-7" x1="134.12" y1="61.9" x2="144.28" y2="61.9" xlink:href="#GradientFill_136"/><linearGradient id="Безымянный_градиент_2581-21" x1="134.12" y1="62.92" x2="144.28" y2="62.92" xlink:href="#Безымянный_градиент_2581"/><linearGradient id="GradientFill_136-8" x1="144.28" y1="61.9" x2="154.44" y2="61.9" xlink:href="#GradientFill_136"/><linearGradient id="Безымянный_градиент_2581-22" x1="144.28" y1="62.92" x2="154.44" y2="62.92" xlink:href="#Безымянный_градиент_2581"/><linearGradient id="Безымянный_градиент_2581-23" x1="134.12" y1="233.44" x2="144.28" y2="233.44" xlink:href="#Безымянный_градиент_2581"/><linearGradient id="GradientFill_136-9" x1="144.28" y1="232.42" x2="154.44" y2="232.42" xlink:href="#GradientFill_136"/><linearGradient id="Безымянный_градиент_2581-24" x1="144.28" y1="233.44" x2="154.44" y2="233.44" xlink:href="#Безымянный_градиент_2581"/><linearGradient id="Безымянный_градиент_2581-25" x1="132.86" y1="197.13" x2="134.12" y2="197.13" xlink:href="#Безымянный_градиент_2581"/><linearGradient id="Безымянный_градиент_2581-26" x1="143.01" y1="181.51" x2="144.27" y2="181.51" xlink:href="#Безымянный_градиент_2581"/><linearGradient id="Безымянный_градиент_424-2" x1="155.67" y1="197.13" x2="156.93" y2="197.13" xlink:href="#Безымянный_градиент_424"/><linearGradient id="Безымянный_градиент_418-2" x1="154.42" y1="197.13" x2="155.67" y2="197.13" xlink:href="#Безымянный_градиент_418"/><linearGradient id="GradientFill_19" x1="144.27" y1="203.7" x2="145.52" y2="203.7" gradientUnits="userSpaceOnUse"><stop offset="0" stop-color="#1c9995"/><stop offset="0.52" stop-color="#149591"/><stop offset="1" stop-color="#0a8c86"/></linearGradient><linearGradient id="Безымянный_градиент_2581-27" x1="132.86" y1="96.15" x2="134.12" y2="96.15" xlink:href="#Безымянный_градиент_2581"/><linearGradient id="GradientFill_19-2" x1="144.27" y1="89.58" x2="145.52" y2="89.58" xlink:href="#GradientFill_19"/><linearGradient id="Безымянный_градиент_2581-28" x1="143.01" y1="89.58" x2="144.27" y2="89.58" xlink:href="#Безымянный_градиент_2581"/><linearGradient id="GradientFill_19-3" x1="144.27" y1="102.72" x2="145.52" y2="102.72" xlink:href="#GradientFill_19"/><linearGradient id="GradientFill_136-10" x1="132.86" y1="45.6" x2="144.28" y2="45.6" xlink:href="#GradientFill_136"/><linearGradient id="Безымянный_градиент_2581-29" x1="134.12" y1="46.63" x2="144.28" y2="46.63" xlink:href="#Безымянный_градиент_2581"/><linearGradient id="GradientFill_136-11" x1="144.28" y1="52.2" x2="155.7" y2="52.2" xlink:href="#GradientFill_136"/><linearGradient id="Безымянный_градиент_2581-30" x1="145.54" y1="53.22" x2="155.7" y2="53.22" xlink:href="#Безымянный_градиент_2581"/><linearGradient id="GradientFill_136-12" x1="132.86" y1="207.8" x2="143.03" y2="207.8" xlink:href="#GradientFill_136"/><linearGradient id="GradientFill_19-4" x1="145.52" y1="208.82" x2="155.68" y2="208.82" xlink:href="#GradientFill_19"/><linearGradient id="GradientFill_136-13" x1="132.86" y1="223.47" x2="143.03" y2="223.47" xlink:href="#GradientFill_136"/><linearGradient id="GradientFill_19-5" x1="145.52" y1="224.49" x2="155.68" y2="224.49" xlink:href="#GradientFill_19"/><linearGradient id="GradientFill_136-14" x1="132.86" y1="238.97" x2="143.03" y2="238.97" xlink:href="#GradientFill_136"/><linearGradient id="GradientFill_136-15" x1="145.52" y1="238.97" x2="155.68" y2="238.97" xlink:href="#GradientFill_136"/><linearGradient id="GradientFill_19-6" x1="145.52" y1="239.99" x2="155.68" y2="239.99" xlink:href="#GradientFill_19"/><linearGradient id="GradientFill_136-16" x1="132.86" y1="192.39" x2="143.03" y2="192.39" xlink:href="#GradientFill_136"/><linearGradient id="GradientFill_19-7" x1="145.52" y1="193.41" x2="155.68" y2="193.41" xlink:href="#GradientFill_19"/><linearGradient id="GradientFill_136-17" x1="132.86" y1="176.9" x2="143.03" y2="176.9" xlink:href="#GradientFill_136"/><linearGradient id="GradientFill_19-8" x1="145.52" y1="177.92" x2="155.68" y2="177.92" xlink:href="#GradientFill_19"/><linearGradient id="GradientFill_136-18" x1="132.86" y1="161.4" x2="143.03" y2="161.4" xlink:href="#GradientFill_136"/><linearGradient id="GradientFill_19-9" x1="145.52" y1="162.43" x2="155.68" y2="162.43" xlink:href="#GradientFill_19"/><linearGradient id="GradientFill_136-19" x1="132.86" y1="145.91" x2="143.03" y2="145.91" xlink:href="#GradientFill_136"/><linearGradient id="GradientFill_19-10" x1="145.52" y1="146.93" x2="155.68" y2="146.93" xlink:href="#GradientFill_19"/><linearGradient id="GradientFill_136-20" x1="132.86" y1="130.42" x2="143.03" y2="130.42" xlink:href="#GradientFill_136"/><linearGradient id="GradientFill_19-11" x1="145.52" y1="131.44" x2="155.68" y2="131.44" xlink:href="#GradientFill_19"/><linearGradient id="GradientFill_136-21" x1="132.86" y1="114.93" x2="143.03" y2="114.93" xlink:href="#GradientFill_136"/><linearGradient id="GradientFill_19-12" x1="145.52" y1="115.95" x2="155.68" y2="115.95" xlink:href="#GradientFill_19"/><linearGradient id="GradientFill_136-22" x1="132.86" y1="99.44" x2="143.03" y2="99.44" xlink:href="#GradientFill_136"/><linearGradient id="GradientFill_19-13" x1="145.52" y1="100.46" x2="155.68" y2="100.46" xlink:href="#GradientFill_19"/><linearGradient id="GradientFill_136-23" x1="132.86" y1="83.94" x2="143.03" y2="83.94" xlink:href="#GradientFill_136"/><linearGradient id="GradientFill_19-14" x1="145.52" y1="84.97" x2="155.68" y2="84.97" xlink:href="#GradientFill_19"/><linearGradient id="GradientFill_136-24" x1="132.86" y1="68.45" x2="143.03" y2="68.45" xlink:href="#GradientFill_136"/><linearGradient id="GradientFill_19-15" x1="145.52" y1="69.48" x2="155.68" y2="69.48" xlink:href="#GradientFill_19"/><linearGradient id="Безымянный_градиент_415" x1="240.65" y1="103.52" x2="249.96" y2="120.87" gradientUnits="userSpaceOnUse"><stop offset="0" stop-color="#565658"/><stop offset="0.25" stop-color="#59595b"/><stop offset="0.41" stop-color="#616163"/><stop offset="0.54" stop-color="#6f7072"/><stop offset="0.64" stop-color="#7f8183"/><stop offset="0.66" stop-color="#666768"/><stop offset="0.67" stop-color="#4f4e4f"/><stop offset="0.69" stop-color="#3e3c3d"/><stop offset="0.71" stop-color="#343132"/><stop offset="0.73" stop-color="#312e2f"/><stop offset="1" stop-color="#312e2f"/></linearGradient><linearGradient id="Безымянный_градиент_414" x1="232.58" y1="115.12" x2="245.91" y2="115.12" gradientUnits="userSpaceOnUse"><stop offset="0" stop-color="#424143"/><stop offset="0.38" stop-color="#3a383a"/><stop offset="1" stop-color="#312e2f"/></linearGradient><linearGradient id="GradientFill_136-25" x1="73.42" y1="19.42" x2="104.72" y2="19.42" xlink:href="#GradientFill_136"/><linearGradient id="GradientFill_121" x1="83.75" y1="29.99" x2="104.73" y2="29.99" gradientUnits="userSpaceOnUse"><stop offset="0" stop-color="#a8a6a6"/><stop offset="0.52" stop-color="#a3a1a1"/><stop offset="1" stop-color="#989898"/></linearGradient><linearGradient id="Безымянный_градиент_1919" x1="123.67" y1="42.38" x2="134.26" y2="42.38" gradientUnits="userSpaceOnUse"><stop offset="0" stop-color="#10938e"/><stop offset="0.52" stop-color="#056c64"/><stop offset="1" stop-color="#016c65"/></linearGradient><linearGradient id="Безымянный_градиент_1919-2" x1="108.6" y1="33.69" x2="119.2" y2="33.69" xlink:href="#Безымянный_градиент_1919"/><linearGradient id="Безымянный_градиент_1919-3" x1="93.54" y1="24.99" x2="104.13" y2="24.99" xlink:href="#Безымянный_градиент_1919"/><linearGradient id="Безымянный_градиент_1919-4" x1="78.47" y1="16.29" x2="89.07" y2="16.29" xlink:href="#Безымянный_градиент_1919"/><linearGradient id="Безымянный_градиент_1919-5" x1="81.76" y1="22.38" x2="144.69" y2="22.38" xlink:href="#Безымянный_градиент_1919"/><linearGradient id="Безымянный_градиент_1919-6" x1="144.69" y1="20.7" x2="156.54" y2="20.7" xlink:href="#Безымянный_градиент_1919"/><linearGradient id="Безымянный_градиент_1919-7" x1="146.34" y1="22.02" x2="156.54" y2="22.02" xlink:href="#Безымянный_градиент_1919"/><linearGradient id="Безымянный_градиент_1919-8" x1="143.55" y1="25.2" x2="146.38" y2="25.2" xlink:href="#Безымянный_градиент_1919"/><linearGradient id="Безымянный_градиент_1919-9" x1="152.4" y1="82.68" x2="265.21" y2="82.68" xlink:href="#Безымянный_градиент_1919"/><linearGradient id="Безымянный_градиент_1919-10" x1="228.58" y1="103.02" x2="239.17" y2="103.02" xlink:href="#Безымянный_градиент_1919"/><linearGradient id="Безымянный_градиент_1919-11" x1="213.51" y1="94.32" x2="224.1" y2="94.32" xlink:href="#Безымянный_градиент_1919"/><linearGradient id="Безымянный_градиент_1919-12" x1="198.45" y1="85.62" x2="209.04" y2="85.62" xlink:href="#Безымянный_градиент_1919"/><linearGradient id="Безымянный_градиент_1919-13" x1="183.38" y1="76.92" x2="193.97" y2="76.92" xlink:href="#Безымянный_градиент_1919"/><linearGradient id="Безымянный_градиент_1919-14" x1="168.32" y1="68.23" x2="178.91" y2="68.23" xlink:href="#Безымянный_градиент_1919"/><linearGradient id="Безымянный_градиент_1919-15" x1="153.25" y1="59.53" x2="163.84" y2="59.53" xlink:href="#Безымянный_градиент_1919"/><linearGradient id="Безымянный_градиент_1919-16" x1="156.54" y1="76.06" x2="265.21" y2="76.06" xlink:href="#Безымянный_градиент_1919"/><linearGradient id="Безымянный_градиент_1919-17" x1="146.02" y1="35.05" x2="156.53" y2="35.05" xlink:href="#Безымянный_градиент_1919"/><linearGradient id="GradientFill_19-16" x1="255.79" y1="105.69" x2="265.21" y2="105.69" xlink:href="#GradientFill_19"/><linearGradient id="GradientFill_19-17" x1="245.64" y1="111.55" x2="255.05" y2="111.55" xlink:href="#GradientFill_19"/><linearGradient id="Безымянный_градиент_433" x1="141.41" y1="63.89" x2="129.81" y2="39.81" gradientUnits="userSpaceOnUse"><stop offset="0.43" stop-color="#389494"/><stop offset="0.6" stop-color="#05a2a7"/><stop offset="0.74" stop-color="#69c7ca"/></linearGradient><linearGradient id="Безымянный_градиент_414-2" x1="130.75" y1="49.87" x2="144.13" y2="49.87" xlink:href="#Безымянный_градиент_414"/><linearGradient id="Безымянный_градиент_414-3" x1="122.64" y1="51.92" x2="131.4" y2="51.92" xlink:href="#Безымянный_градиент_414"/></defs><title>singleKran</title><g class="cls-1"><g id="Layer_2" data-name="Layer 2"><g id="Layer_1-2" data-name="Layer 1"><g class="cls-2"><ellipse class="cls-3" cx="224.97" cy="322.66" rx="224.97" ry="120.94"/><ellipse class="cls-4" cx="224.24" cy="323.32" rx="220.93" ry="118.16"/><ellipse class="cls-5" cx="223.5" cy="323.97" rx="216.89" ry="115.39"/><ellipse class="cls-6" cx="222.76" cy="324.63" rx="212.85" ry="112.61"/><ellipse class="cls-7" cx="222.03" cy="325.29" rx="208.81" ry="109.84"/><ellipse class="cls-8" cx="221.29" cy="325.94" rx="204.77" ry="107.06"/><ellipse class="cls-9" cx="220.55" cy="326.6" rx="200.73" ry="104.28"/><ellipse class="cls-10" cx="219.82" cy="327.26" rx="196.69" ry="101.51"/><ellipse class="cls-11" cx="219.08" cy="327.91" rx="192.65" ry="98.73"/><ellipse class="cls-12" cx="218.34" cy="328.57" rx="188.61" ry="95.96"/><ellipse class="cls-13" cx="217.6" cy="329.23" rx="184.57" ry="93.18"/><ellipse class="cls-14" cx="216.87" cy="329.88" rx="180.53" ry="90.4"/><ellipse class="cls-15" cx="216.13" cy="330.54" rx="176.49" ry="87.63"/><ellipse class="cls-16" cx="215.39" cy="331.19" rx="172.45" ry="84.85"/><ellipse class="cls-17" cx="214.66" cy="331.85" rx="168.41" ry="82.08"/><ellipse class="cls-18" cx="213.92" cy="332.51" rx="164.37" ry="79.3"/><ellipse class="cls-19" cx="213.18" cy="333.16" rx="160.33" ry="76.52"/><ellipse class="cls-20" cx="212.45" cy="333.82" rx="156.29" ry="73.75"/><ellipse class="cls-21" cx="211.71" cy="334.48" rx="152.25" ry="70.97"/><ellipse class="cls-22" cx="210.97" cy="335.13" rx="148.21" ry="68.2"/><ellipse class="cls-23" cx="210.24" cy="335.79" rx="144.17" ry="65.42"/><ellipse class="cls-24" cx="209.5" cy="336.45" rx="140.13" ry="62.64"/></g><path class="cls-25" d="M74.45,213.62c76.24-44,200-44,276.28,0s76.26,115.59,0,159.62-200,44.07-276.28,0S-1.86,257.7,74.45,213.62Z"/><path class="cls-26" d="M74.31,213.47c76.29-44.06,200.13-44.06,276.47,0s76.32,115.63,0,159.68-200.18,44.09-276.47,0S-2.06,257.56,74.31,213.47Z"/><path class="cls-27" d="M74.16,213.31c76.34-44.08,200.27-44.08,276.66,0s76.37,115.67,0,159.74-200.32,44.11-276.66,0S-2.26,257.42,74.16,213.31Z"/><path class="cls-28" d="M74,213.16c76.4-44.09,200.41-44.09,276.86,0s76.42,115.71,0,159.8S150.41,417.07,74,373-2.46,257.28,74,213.16Z"/><path class="cls-29" d="M73.87,213c76.45-44.11,200.55-44.11,277.05,0s76.48,115.75,0,159.85-200.6,44.14-277.05,0S-2.66,257.14,73.87,213Z"/><path class="cls-30" d="M73.73,212.84c76.5-44.12,200.69-44.12,277.24,0s76.53,115.8,0,159.91-200.74,44.15-277.24,0S-2.85,257,73.73,212.84Z"/><path class="cls-31" d="M73.58,212.69c76.56-44.14,200.83-44.14,277.44,0s76.58,115.84,0,160-200.88,44.17-277.44,0S-3.05,256.86,73.58,212.69Z"/><path class="cls-32" d="M73.44,212.53c76.61-44.16,201-44.16,277.63,0s76.64,115.88,0,160-201,44.18-277.63,0S-3.25,256.72,73.44,212.53Z"/><path class="cls-33" d="M73.29,212.38c76.67-44.17,201.11-44.17,277.83,0s76.69,115.92,0,160.08-201.16,44.2-277.83,0S-3.45,256.58,73.29,212.38Z"/><path class="cls-34" d="M73.15,212.22c76.72-44.19,201.25-44.19,278,0s76.75,116,0,160.14-201.3,44.22-278,0S-3.65,256.44,73.15,212.22Z"/><path class="cls-35" d="M73,212.07c76.77-44.2,201.39-44.2,278.21,0s76.8,116,0,160.19-201.44,44.23-278.21,0S-3.85,256.3,73,212.07Z"/><path class="cls-36" d="M72.86,211.91c76.83-44.22,201.53-44.22,278.41,0s76.85,116,0,160.25-201.58,44.25-278.41,0S-4,256.16,72.86,211.91Z"/><path class="cls-37" d="M72.71,211.75c76.88-44.23,201.67-44.23,278.6,0s76.91,116.08,0,160.31-201.72,44.26-278.6,0S-4.24,256,72.71,211.75Z"/><path class="cls-38" d="M72.57,211.6c76.93-44.25,201.81-44.25,278.79,0s77,116.12,0,160.36S149.5,416.24,72.57,372-4.44,255.88,72.57,211.6Z"/><path class="cls-39" d="M72.43,211.44c77-44.27,202-44.27,279,0s77,116.17,0,160.42-202,44.29-279,0S-4.64,255.74,72.43,211.44Z"/><path class="cls-40" d="M72.28,211.29c77-44.28,202.09-44.28,279.18,0s77.07,116.21,0,160.48-202.14,44.31-279.18,0S-4.84,255.6,72.28,211.29Z"/><path class="cls-41" d="M72.14,211.13c77.09-44.3,202.23-44.3,279.37,0s77.12,116.25,0,160.54-202.28,44.33-279.37,0S-5,255.46,72.14,211.13Z"/><path class="cls-42" d="M72,211c77.15-44.31,202.37-44.31,279.57,0s77.17,116.29,0,160.59-202.42,44.34-279.57,0S-5.23,255.32,72,211Z"/><path class="cls-43" d="M71.85,210.82c77.2-44.33,202.51-44.33,279.76,0s77.23,116.33,0,160.65-202.56,44.36-279.76,0S-5.43,255.18,71.85,210.82Z"/><path class="cls-44" d="M71.7,210.66c77.25-44.34,202.65-44.34,280,0s77.28,116.37,0,160.71-202.7,44.37-280,0S-5.63,255,71.7,210.66Z"/><path class="cls-45" d="M71.56,210.51c77.31-44.36,202.79-44.36,280.15,0s77.33,116.41,0,160.76-202.84,44.39-280.15,0S-5.83,254.9,71.56,210.51Z"/><path class="cls-46" d="M71.41,210.35c77.36-44.38,202.93-44.38,280.34,0s77.39,116.45,0,160.82-203,44.4-280.34,0S-6,254.76,71.41,210.35Z"/><path class="cls-47" d="M71.56,210.31c77.31-44.36,202.79-44.36,280.15,0s77.33,116.41,0,160.76-202.84,44.39-280.15,0S-5.83,254.7,71.56,210.31Z"/><path class="cls-48" d="M71.7,210.26c77.25-44.34,202.65-44.34,280,0s77.28,116.37,0,160.71-202.7,44.37-280,0S-5.63,254.64,71.7,210.26Z"/><path class="cls-49" d="M71.85,210.22c77.2-44.33,202.51-44.33,279.76,0s77.23,116.33,0,160.65-202.56,44.36-279.76,0S-5.43,254.58,71.85,210.22Z"/><path class="cls-50" d="M72,210.17c77.15-44.31,202.37-44.31,279.57,0s77.17,116.29,0,160.59-202.42,44.34-279.57,0S-5.23,254.51,72,210.17Z"/><path class="cls-51" d="M72.14,210.13c77.09-44.3,202.23-44.3,279.37,0s77.12,116.25,0,160.54-202.28,44.33-279.37,0S-5,254.45,72.14,210.13Z"/><path class="cls-52" d="M72.28,210.08c77-44.28,202.09-44.28,279.18,0s77.07,116.21,0,160.48-202.14,44.31-279.18,0S-4.84,254.39,72.28,210.08Z"/><path class="cls-53" d="M72.43,210c77-44.27,202-44.27,279,0s77,116.17,0,160.42-202,44.29-279,0S-4.64,254.33,72.43,210Z"/><path class="cls-54" d="M72.57,210c76.93-44.25,201.81-44.25,278.79,0s77,116.12,0,160.36-201.86,44.28-278.79,0S-4.44,254.27,72.57,210Z"/><path class="cls-55" d="M72.71,209.95c76.88-44.23,201.67-44.23,278.6,0s76.91,116.08,0,160.31-201.72,44.26-278.6,0S-4.24,254.21,72.71,209.95Z"/><path class="cls-56" d="M72.86,209.9c76.83-44.22,201.53-44.22,278.41,0s76.85,116,0,160.25-201.58,44.25-278.41,0S-4,254.15,72.86,209.9Z"/><path class="cls-57" d="M73,209.86c76.77-44.2,201.39-44.2,278.21,0s76.8,116,0,160.19S149.78,414.28,73,370-3.85,254.09,73,209.86Z"/><path class="cls-58" d="M73.15,209.81c76.72-44.19,201.25-44.19,278,0s76.75,116,0,160.14-201.3,44.22-278,0S-3.65,254,73.15,209.81Z"/><path class="cls-59" d="M73.29,209.76c76.67-44.17,201.11-44.17,277.83,0s76.69,115.92,0,160.08S150,414,73.29,369.84-3.45,254,73.29,209.76Z"/><path class="cls-60" d="M73.44,209.72c76.61-44.16,201-44.16,277.63,0s76.64,115.88,0,160-201,44.18-277.63,0S-3.25,253.9,73.44,209.72Z"/><path class="cls-61" d="M73.58,209.67c76.56-44.14,200.83-44.14,277.44,0s76.58,115.84,0,160-200.88,44.17-277.44,0S-3.05,253.84,73.58,209.67Z"/><path class="cls-62" d="M73.73,209.63c76.5-44.12,200.69-44.12,277.24,0s76.53,115.8,0,159.91-200.74,44.15-277.24,0S-2.85,253.78,73.73,209.63Z"/><path class="cls-63" d="M73.87,209.58c76.45-44.11,200.55-44.11,277.05,0s76.48,115.75,0,159.85-200.6,44.14-277.05,0S-2.66,253.72,73.87,209.58Z"/><path class="cls-64" d="M74,209.54c76.4-44.09,200.41-44.09,276.86,0s76.42,115.71,0,159.8-200.46,44.12-276.86,0S-2.46,253.66,74,209.54Z"/><path class="cls-65" d="M74.16,209.49c76.34-44.08,200.27-44.08,276.66,0s76.37,115.67,0,159.74-200.32,44.11-276.66,0S-2.26,253.6,74.16,209.49Z"/><path class="cls-66" d="M74.31,209.45c76.29-44.06,200.13-44.06,276.47,0s76.32,115.63,0,159.68-200.18,44.09-276.47,0S-2.06,253.54,74.31,209.45Z"/><path class="cls-67" d="M74.45,209.4c76.24-44,200-44,276.28,0S427,325,350.73,369s-200,44.07-276.28,0S-1.86,253.48,74.45,209.4Z"/><polygon class="cls-68" points="246.99 336.92 211.7 316.6 269.46 291.48 313.43 311.9 268.75 338.7 246.99 336.92"/><polygon class="cls-69" points="276.98 245.09 276.98 309.84 238.77 332.41 238.77 267.65 276.98 245.09"/><polygon class="cls-70" points="238.77 267.65 238.77 332.41 212.02 316.66 212.02 251.91 238.77 267.65"/><polygon class="cls-71" points="276.98 245.06 238.77 267.65 212.02 251.91 250.23 229.31 276.98 245.06"/><polygon class="cls-72" points="238.76 296.31 276.98 273.93 276.98 276.09 238.76 298.66 238.76 296.31"/><polygon class="cls-73" points="238.79 296.31 212.02 280.75 212.02 282.92 238.79 298.66 238.79 296.31"/><rect class="cls-74" x="238.33" y="268.04" width="0.82" height="64.75"/><polygon class="cls-75" points="240.63 331.7 238.74 332.79 238.74 268.04 240.63 266.97 240.63 331.7"/><polygon class="cls-76" points="237.92 332.29 238.74 332.79 238.74 268.04 237.92 267.54 237.92 332.29"/><polygon class="cls-69" points="276.98 245.53 276.98 310.28 238.77 332.85 238.77 268.1 276.98 245.53"/><polygon class="cls-70" points="238.77 268.04 238.77 332.79 212.02 317.05 212.02 252.3 238.77 268.04"/><polygon class="cls-77" points="276.98 245.5 238.77 268.1 212.02 252.35 250.23 229.76 276.98 245.5"/><polygon class="cls-78" points="238.76 330.44 276.98 308.06 276.98 310.23 238.76 332.79 238.76 330.44"/><polygon class="cls-79" points="238.76 267.51 276.98 245.13 276.98 247.29 238.76 269.86 238.76 267.51"/><polygon class="cls-80" points="238.79 330.44 212.02 314.88 212.02 317.05 238.79 332.79 238.79 330.44"/><polygon class="cls-81" points="238.79 267.51 212.02 251.95 212.02 254.12 238.79 269.86 238.79 267.51"/><rect class="cls-74" x="238.33" y="268.04" width="0.82" height="64.75"/><polygon class="cls-75" points="240.63 331.7 238.74 332.79 238.74 268.04 240.63 266.97 240.63 331.7"/><polygon class="cls-76" points="237.92 332.29 238.74 332.79 238.74 268.04 237.92 267.54 237.92 332.29"/><path class="cls-82" d="M212,316.67h0a.5.5,0,0,1-.47-.53L215.08,254a.49.49,0,0,1,.53-.47.5.5,0,0,1,.47.53l-3.57,62.15A.5.5,0,0,1,212,316.67Z"/><path class="cls-82" d="M238.7,332.33a.5.5,0,0,1-.5-.48L235,266.14a.5.5,0,0,1,.48-.52.49.49,0,0,1,.52.47l3.21,65.72a.5.5,0,0,1-.48.52Z"/><path class="cls-82" d="M272.36,242.34,243.61,213.7,253.27,231c.13.24-1.52-.67-1.65-.92l-9.39-16.87a.86.86,0,0,1,.28-1.09.85.85,0,0,1,1.09.09l32.22,32.16C276,244.62,272.46,242.44,272.36,242.34Z"/><path class="cls-82" d="M144.66,3.59a4.43,4.43,0,0,0,1.93,3.34l.44.77,1-.59a1.4,1.4,0,0,0,.58-1.29,4.4,4.4,0,0,0-2-3.45,1.4,1.4,0,0,0-1.41-.14l-1,.59Z"/><path class="cls-83" d="M143.63,4.11c0-1.27.89-1.78,2-1.15a4.4,4.4,0,0,1,2,3.45c0,1.27-.89,1.78-2,1.15A4.4,4.4,0,0,1,143.63,4.11Z"/><path class="cls-82" d="M245.74,202.64a.34.34,0,0,0,.35-.34V114.72a.35.35,0,0,0-.7,0V202.3A.34.34,0,0,0,245.74,202.64Z"/><path class="cls-82" d="M242.12,202.8a.35.35,0,0,0,.35-.35V112.67a.35.35,0,1,0-.7,0v89.78A.35.35,0,0,0,242.12,202.8Z"/><path class="cls-82" d="M238.69,199.27a.35.35,0,0,0,.35-.35V109.13a.35.35,0,1,0-.7,0v89.78A.35.35,0,0,0,238.69,199.27Z"/><polygon class="cls-84" points="114.77 258.38 142.2 274.1 173.76 255.75 146.33 240.03 114.77 258.38"/><polygon class="cls-85" points="127.43 253.4 144.43 263.06 161.27 253.33 144.27 243.67 127.43 253.4"/><polygon class="cls-86" points="114.77 258.38 114.78 263.4 142.21 279.12 142.2 274.1 114.77 258.38"/><polygon class="cls-87" points="142.2 274.1 142.21 279.12 173.77 260.77 173.76 255.75 142.2 274.1"/><polygon class="cls-88" points="155.67 143.41 156.93 142.69 156.93 48.89 155.67 49.62 155.67 143.41"/><polygon class="cls-89" points="154.42 142.69 155.67 143.41 155.67 49.62 154.42 48.89 154.42 142.69"/><polygon class="cls-90" points="154.42 48.89 155.67 49.62 156.93 48.89 155.67 48.13 154.42 48.89"/><polygon class="cls-91" points="134.12 203.08 134.12 204.55 144.28 198.68 143.01 197.95 134.12 203.08"/><polygon class="cls-92" points="134.12 205.87 144.28 199.99 144.28 198.67 134.12 204.55 134.12 205.87"/><polygon class="cls-93" points="144.28 198.68 154.44 204.55 154.44 203.08 145.55 197.95 144.28 198.68"/><polygon class="cls-94" points="144.28 199.99 154.44 205.87 154.44 204.55 144.28 198.67 144.28 199.99"/><polygon class="cls-91" points="134.12 218.75 134.12 220.22 144.28 214.35 143.01 213.62 134.12 218.75"/><polygon class="cls-95" points="134.12 221.53 144.28 215.66 144.28 214.34 134.12 220.22 134.12 221.53"/><polygon class="cls-96" points="144.28 214.35 154.44 220.22 154.44 218.75 145.55 213.62 144.28 214.35"/><polygon class="cls-97" points="144.28 215.66 154.44 221.53 154.44 220.22 144.28 214.34 144.28 215.66"/><polygon class="cls-91" points="134.12 187.67 134.12 189.13 144.28 183.27 143.01 182.53 134.12 187.67"/><polygon class="cls-98" points="134.12 190.45 144.28 184.58 144.28 183.26 134.12 189.13 134.12 190.45"/><polygon class="cls-99" points="144.28 183.27 154.44 189.13 154.44 187.67 145.55 182.53 144.28 183.27"/><polygon class="cls-100" points="144.28 184.58 154.44 190.45 154.44 189.13 144.28 183.26 144.28 184.58"/><polygon class="cls-91" points="134.12 172.18 134.12 173.64 144.28 167.78 143.01 167.04 134.12 172.18"/><polygon class="cls-101" points="134.12 174.96 144.28 169.09 144.28 167.77 134.12 173.64 134.12 174.96"/><polygon class="cls-102" points="144.28 167.78 154.44 173.64 154.44 172.18 145.55 167.04 144.28 167.78"/><polygon class="cls-103" points="144.28 169.09 154.44 174.96 154.44 173.64 144.28 167.77 144.28 169.09"/><polygon class="cls-91" points="134.12 156.69 134.12 158.15 144.28 152.28 143.01 151.55 134.12 156.69"/><polygon class="cls-104" points="134.12 159.47 144.28 153.6 144.28 152.28 134.12 158.15 134.12 159.47"/><polygon class="cls-105" points="144.28 152.28 154.44 158.15 154.44 156.69 145.55 151.55 144.28 152.28"/><polygon class="cls-106" points="144.28 153.6 154.44 159.47 154.44 158.15 144.28 152.28 144.28 153.6"/><polygon class="cls-91" points="134.12 141.19 134.12 142.66 144.28 136.79 143.01 136.06 134.12 141.19"/><polygon class="cls-107" points="134.12 143.98 144.28 138.1 144.28 136.79 134.12 142.66 134.12 143.98"/><polygon class="cls-108" points="144.28 136.79 154.44 142.66 154.44 141.19 145.55 136.06 144.28 136.79"/><polygon class="cls-109" points="144.28 138.1 154.44 143.98 154.44 142.66 144.28 136.79 144.28 138.1"/><polygon class="cls-91" points="134.12 125.7 134.12 127.17 144.28 121.3 143.01 120.57 134.12 125.7"/><polygon class="cls-110" points="134.12 128.49 144.28 122.61 144.28 121.3 134.12 127.17 134.12 128.49"/><polygon class="cls-91" points="144.28 121.3 154.44 127.17 154.44 125.7 145.55 120.57 144.28 121.3"/><polygon class="cls-111" points="144.28 122.61 154.44 128.49 154.44 127.17 144.28 121.3 144.28 122.61"/><polygon class="cls-91" points="134.12 110.21 134.12 111.68 144.28 105.81 143.01 105.08 134.12 110.21"/><polygon class="cls-112" points="134.12 112.99 144.28 107.12 144.28 105.8 134.12 111.68 134.12 112.99"/><polygon class="cls-91" points="144.28 105.81 154.44 111.68 154.44 110.21 145.55 105.08 144.28 105.81"/><polygon class="cls-113" points="144.28 107.12 154.44 112.99 154.44 111.68 144.28 105.8 144.28 107.12"/><polygon class="cls-91" points="134.12 94.72 134.12 96.18 144.28 90.32 143.01 89.58 134.12 94.72"/><polygon class="cls-114" points="134.12 97.5 144.28 91.63 144.28 90.31 134.12 96.18 134.12 97.5"/><polygon class="cls-91" points="144.28 90.32 154.44 96.18 154.44 94.72 145.55 89.58 144.28 90.32"/><polygon class="cls-115" points="144.28 91.63 154.44 97.5 154.44 96.18 144.28 90.31 144.28 91.63"/><polygon class="cls-91" points="134.12 79.23 134.12 80.69 144.28 74.83 143.01 74.09 134.12 79.23"/><polygon class="cls-116" points="134.12 82.01 144.28 76.14 144.28 74.82 134.12 80.69 134.12 82.01"/><polygon class="cls-91" points="144.28 74.83 154.44 80.69 154.44 79.23 145.55 74.09 144.28 74.83"/><polygon class="cls-117" points="144.28 76.14 154.44 82.01 154.44 80.69 144.28 74.82 144.28 76.14"/><polygon class="cls-118" points="134.12 63.74 134.12 65.2 144.28 59.34 143.01 58.6 134.12 63.74"/><polygon class="cls-119" points="134.12 66.52 144.28 60.65 144.28 59.33 134.12 65.2 134.12 66.52"/><polygon class="cls-120" points="144.28 59.34 154.44 65.2 154.44 63.74 145.55 58.6 144.28 59.34"/><polygon class="cls-121" points="144.28 60.65 154.44 66.52 154.44 65.2 144.28 59.33 144.28 60.65"/><polygon class="cls-91" points="134.12 234.25 134.12 235.72 144.28 229.85 143.01 229.12 134.12 234.25"/><polygon class="cls-122" points="134.12 237.03 144.28 231.16 144.28 229.84 134.12 235.72 134.12 237.03"/><polygon class="cls-123" points="144.28 229.85 154.44 235.72 154.44 234.25 145.55 229.12 144.28 229.85"/><polygon class="cls-124" points="144.28 231.16 154.44 237.03 154.44 235.72 144.28 229.84 144.28 231.16"/><polygon class="cls-125" points="132.86 253.43 134.12 252.71 134.12 140.82 132.86 141.55 132.86 253.43"/><polygon class="cls-91" points="131.61 252.71 132.86 253.43 132.86 141.55 131.61 140.82 131.61 252.71"/><polygon class="cls-90" points="131.61 140.82 132.86 141.55 134.12 140.82 132.86 140.06 131.61 140.82"/><polygon class="cls-126" points="144.27 228.77 145.52 228.05 145.52 134.25 144.27 134.98 144.27 228.77"/><polygon class="cls-127" points="143.01 228.05 144.27 228.77 144.27 134.98 143.01 134.25 143.01 228.05"/><polygon class="cls-90" points="143.01 134.25 144.27 134.98 145.52 134.25 144.27 133.49 143.01 134.25"/><polygon class="cls-128" points="155.67 253.43 156.93 252.71 156.93 140.82 155.67 141.55 155.67 253.43"/><polygon class="cls-129" points="154.42 252.71 155.67 253.43 155.67 141.55 154.42 140.82 154.42 252.71"/><polygon class="cls-130" points="144.27 260 145.52 259.28 145.52 147.39 144.27 148.12 144.27 260"/><polygon class="cls-91" points="143.01 259.28 144.27 260 144.27 148.12 143.01 147.39 143.01 259.28"/><polygon class="cls-90" points="143.01 147.39 144.27 148.12 145.52 147.39 144.27 146.63 143.01 147.39"/><polygon class="cls-131" points="132.86 143.41 134.12 142.69 134.12 48.89 132.86 49.62 132.86 143.41"/><polygon class="cls-91" points="131.61 142.69 132.86 143.41 132.86 49.62 131.61 48.89 131.61 142.69"/><polygon class="cls-90" points="131.61 48.89 132.86 49.62 134.12 48.89 132.86 48.13 131.61 48.89"/><polygon class="cls-132" points="144.27 136.84 145.52 136.12 145.52 42.32 144.27 43.05 144.27 136.84"/><polygon class="cls-133" points="143.01 136.12 144.27 136.84 144.27 43.05 143.01 42.32 143.01 136.12"/><polygon class="cls-90" points="143.01 42.32 144.27 43.05 145.52 42.32 144.27 41.56 143.01 42.32"/><polygon class="cls-134" points="144.27 149.98 145.52 149.26 145.52 55.46 144.27 56.19 144.27 149.98"/><polygon class="cls-91" points="143.01 149.26 144.27 149.98 144.27 56.19 143.01 55.46 143.01 149.26"/><polygon class="cls-90" points="143.01 55.46 144.27 56.19 145.52 55.46 144.27 54.7 143.01 55.46"/><polygon class="cls-86" points="127.43 258.41 144.43 268.07 144.43 263.06 127.43 253.4 127.43 258.41"/><polygon class="cls-87" points="144.43 268.07 161.27 258.35 161.27 253.33 144.43 263.06 144.43 268.07"/><polygon class="cls-135" points="132.86 48.13 134.12 48.9 144.28 43.04 143.01 42.3 132.86 48.13"/><polygon class="cls-136" points="134.12 50.22 144.28 44.35 144.28 43.03 134.12 48.9 134.12 50.22"/><polygon class="cls-137" points="144.28 54.73 145.54 55.5 155.7 49.63 154.43 48.9 144.28 54.73"/><polygon class="cls-138" points="145.54 56.82 155.7 50.95 155.7 49.63 145.54 55.5 145.54 56.82"/><polygon class="cls-139" points="132.86 205.23 143.03 211.1 143.03 209.63 134.13 204.5 132.86 205.23"/><polygon class="cls-91" points="132.86 206.54 143.03 212.42 143.03 211.1 132.86 205.23 132.86 206.54"/><polygon class="cls-91" points="145.52 209.63 145.52 211.1 155.69 205.23 154.42 204.5 145.52 209.63"/><polygon class="cls-140" points="145.52 212.42 155.69 206.54 155.69 205.23 145.52 211.1 145.52 212.42"/><polygon class="cls-141" points="132.86 220.9 143.03 226.77 143.03 225.3 134.13 220.17 132.86 220.9"/><polygon class="cls-91" points="132.86 222.21 143.03 228.09 143.03 226.77 132.86 220.9 132.86 222.21"/><polygon class="cls-91" points="145.52 225.3 145.52 226.77 155.69 220.9 154.42 220.17 145.52 225.3"/><polygon class="cls-142" points="145.52 228.09 155.69 222.21 155.69 220.9 145.52 226.77 145.52 228.09"/><polygon class="cls-143" points="132.86 236.4 143.03 242.27 143.03 240.8 134.13 235.67 132.86 236.4"/><polygon class="cls-91" points="132.86 237.71 143.03 243.58 143.03 242.27 132.86 236.39 132.86 237.71"/><polygon class="cls-144" points="145.52 240.8 145.52 242.27 155.69 236.4 154.42 235.67 145.52 240.8"/><polygon class="cls-145" points="145.52 243.58 155.69 237.71 155.69 236.39 145.52 242.27 145.52 243.58"/><polygon class="cls-146" points="132.86 189.82 143.03 195.69 143.03 194.22 134.13 189.09 132.86 189.82"/><polygon class="cls-91" points="132.86 191.13 143.03 197 143.03 195.69 132.86 189.81 132.86 191.13"/><polygon class="cls-91" points="145.52 194.22 145.52 195.69 155.69 189.82 154.42 189.09 145.52 194.22"/><polygon class="cls-147" points="145.52 197 155.69 191.13 155.69 189.81 145.52 195.69 145.52 197"/><polygon class="cls-148" points="132.86 174.33 143.03 180.19 143.03 178.73 134.13 173.6 132.86 174.33"/><polygon class="cls-91" points="132.86 175.64 143.03 181.51 143.03 180.19 132.86 174.32 132.86 175.64"/><polygon class="cls-91" points="145.52 178.73 145.52 180.19 155.69 174.33 154.42 173.6 145.52 178.73"/><polygon class="cls-149" points="145.52 181.51 155.69 175.64 155.69 174.32 145.52 180.19 145.52 181.51"/><polygon class="cls-150" points="132.86 158.84 143.03 164.7 143.03 163.24 134.13 158.1 132.86 158.84"/><polygon class="cls-91" points="132.86 160.15 143.03 166.02 143.03 164.7 132.86 158.83 132.86 160.15"/><polygon class="cls-91" points="145.52 163.24 145.52 164.7 155.69 158.84 154.42 158.1 145.52 163.24"/><polygon class="cls-151" points="145.52 166.02 155.69 160.15 155.69 158.83 145.52 164.7 145.52 166.02"/><polygon class="cls-152" points="132.86 143.34 143.03 149.21 143.03 147.75 134.13 142.61 132.86 143.34"/><polygon class="cls-91" points="132.86 144.66 143.03 150.53 143.03 149.21 132.86 143.34 132.86 144.66"/><polygon class="cls-91" points="145.52 147.75 145.52 149.21 155.69 143.34 154.42 142.61 145.52 147.75"/><polygon class="cls-153" points="145.52 150.53 155.69 144.66 155.69 143.34 145.52 149.21 145.52 150.53"/><polygon class="cls-154" points="132.86 127.85 143.03 133.72 143.03 132.25 134.13 127.12 132.86 127.85"/><polygon class="cls-91" points="132.86 129.16 143.03 135.04 143.03 133.72 132.86 127.85 132.86 129.16"/><polygon class="cls-91" points="145.52 132.25 145.52 133.72 155.69 127.85 154.42 127.12 145.52 132.25"/><polygon class="cls-155" points="145.52 135.04 155.69 129.16 155.69 127.85 145.52 133.72 145.52 135.04"/><polygon class="cls-156" points="132.86 112.36 143.03 118.23 143.03 116.76 134.13 111.63 132.86 112.36"/><polygon class="cls-91" points="132.86 113.67 143.03 119.55 143.03 118.23 132.86 112.36 132.86 113.67"/><polygon class="cls-91" points="145.52 116.76 145.52 118.23 155.69 112.36 154.42 111.63 145.52 116.76"/><polygon class="cls-157" points="145.52 119.55 155.69 113.67 155.69 112.36 145.52 118.23 145.52 119.55"/><polygon class="cls-158" points="132.86 96.87 143.03 102.74 143.03 101.27 134.13 96.14 132.86 96.87"/><polygon class="cls-91" points="132.86 98.18 143.03 104.05 143.03 102.74 132.86 96.86 132.86 98.18"/><polygon class="cls-91" points="145.52 101.27 145.52 102.74 155.69 96.87 154.42 96.14 145.52 101.27"/><polygon class="cls-159" points="145.52 104.05 155.69 98.18 155.69 96.86 145.52 102.74 145.52 104.05"/><polygon class="cls-160" points="132.86 81.38 143.03 87.24 143.03 85.78 134.13 80.64 132.86 81.38"/><polygon class="cls-91" points="132.86 82.69 143.03 88.56 143.03 87.24 132.86 81.37 132.86 82.69"/><polygon class="cls-91" points="145.52 85.78 145.52 87.24 155.69 81.38 154.42 80.64 145.52 85.78"/><polygon class="cls-161" points="145.52 88.56 155.69 82.69 155.69 81.37 145.52 87.24 145.52 88.56"/><polygon class="cls-162" points="132.86 65.89 143.03 71.75 143.03 70.29 134.13 65.15 132.86 65.89"/><polygon class="cls-91" points="132.86 67.2 143.03 73.07 143.03 71.75 132.86 65.88 132.86 67.2"/><polygon class="cls-91" points="145.52 70.29 145.52 71.75 155.69 65.89 154.42 65.15 145.52 70.29"/><polygon class="cls-163" points="145.52 73.07 155.69 67.2 155.69 65.88 145.52 71.75 145.52 73.07"/><path class="cls-82" d="M242.4,213.34a1.7,1.7,0,0,0,.86-.22,2,2,0,0,0,.92-1.8,5,5,0,0,0-1.42-3.32,1.84,1.84,0,0,1-.53-1.12v-3.68a.68.68,0,1,0-1.36,0v3.68a3.15,3.15,0,0,0,.91,2.07,3.65,3.65,0,0,1,1,2.36.54.54,0,0,1-.91.53,3.66,3.66,0,0,1-1.64-2.81.68.68,0,0,0-1.36,0,5,5,0,0,0,2.33,4A2.39,2.39,0,0,0,242.4,213.34Z"/><path class="cls-164" d="M244,205.59l.74-3.65a2.64,2.64,0,0,0-1.22-2.43l-4.69-2.71a.83.83,0,0,0-.85-.07l1.77-1.07a.84.84,0,0,1,.94,0l4.69,2.71a2.64,2.64,0,0,1,1.22,2.43l-.74,3.65a.72.72,0,0,1-.33.49s-.1.07-.1.07l-1.77,1A.78.78,0,0,0,244,205.59Z"/><path class="cls-165" d="M237.83,196.84a.43.43,0,0,1,.16-.12.83.83,0,0,1,.85.07l4.69,2.71a2.64,2.64,0,0,1,1.22,2.43l-.74,3.65a.72.72,0,0,1-.34.5.84.84,0,0,1-.87-.07l-1.09-.63-1-.57-1.13-.65a2.79,2.79,0,0,1-1.22-1.84l-.74-4.51A1.14,1.14,0,0,1,237.83,196.84Z"/><path class="cls-164" d="M238.19,197.92a1.6,1.6,0,0,0,.72,1.25c.4.23.72,0,.72-.42a1.59,1.59,0,0,0-.72-1.25C238.51,197.27,238.19,197.46,238.19,197.92Z"/><path class="cls-164" d="M242.47,200.63a1.6,1.6,0,0,0,.72,1.25c.4.23.72,0,.72-.42a1.59,1.59,0,0,0-.72-1.25C242.8,200,242.47,200.17,242.47,200.63Z"/><path class="cls-166" d="M236.16,116.83l5-2.88,4.15,8.15,10-5.76a1.35,1.35,0,0,0,.59-1l0-.31v-4.26a2.48,2.48,0,0,0-1.12-1.95L251.7,107l-4.94-2.85-3.07-1.77a.79.79,0,0,0-.79-.08l-10,5.76Z"/><path class="cls-167" d="M244.79,114.56l-3.07-1.77-4.94-2.85-3.07-1.77c-.62-.36-1.12-.07-1.12.65v4.26l0,.34a4.63,4.63,0,0,0,2,3.26c1.09.63,2,.22,2.09-.87l5,2.89a4.63,4.63,0,0,0,2,3.26c1.09.63,2,.22,2.09-.87l0-.31V116.5A2.48,2.48,0,0,0,244.79,114.56Z"/><path class="cls-168" d="M233.83,113.89a1.88,1.88,0,0,0,.85,1.47c.47.27.85.05.85-.49a1.88,1.88,0,0,0-.85-1.47C234.21,113.13,233.83,113.35,233.83,113.89Z"/><path class="cls-168" d="M243,119.16a1.88,1.88,0,0,0,.85,1.47c.47.27.85.05.85-.49a1.88,1.88,0,0,0-.85-1.47C243.35,118.4,243,118.62,243,119.16Z"/><path class="cls-168" d="M235.53,110.87a.79.79,0,0,0,.36.62l6.73,3.88c.2.11.36,0,.36-.21a.79.79,0,0,0-.36-.62l-6.73-3.88c-.2-.11-.36,0-.36.21Z"/><path class="cls-168" d="M235.53,112.45a.79.79,0,0,0,.36.62l6.73,3.88c.2.11.36,0,.36-.21a.79.79,0,0,0-.36-.62l-6.73-3.88c-.2-.11-.36,0-.36.21Z"/><g class="cls-1"><path class="cls-169" d="M98.53,17.31a.19.19,0,0,1,0,.36L84.46,25.8a.69.69,0,0,1-.63,0,.19.19,0,0,1,0-.36L97.9,17.31a.69.69,0,0,1,.63,0Z"/><path class="cls-169" d="M96.42,16.13a.19.19,0,0,1,0,.36L82.35,24.61a.69.69,0,0,1-.63,0,.19.19,0,0,1,0-.36L95.8,16.13a.69.69,0,0,1,.63,0Z"/><path class="cls-169" d="M94.32,14.94a.19.19,0,0,1,0,.36L80.24,23.43a.69.69,0,0,1-.63,0,.19.19,0,0,1,0-.36l14.07-8.12a.69.69,0,0,1,.63,0Z"/></g><g class="cls-1"><polygon class="cls-170" points="83.75 28.47 73.42 22.47 73.43 37.6 83.75 43.6 83.75 28.47"/><polygon class="cls-171" points="104.72 16.37 94.39 10.37 73.42 22.47 83.75 28.47 104.72 16.37"/><polygon class="cls-172" points="83.75 28.47 83.75 43.6 104.72 31.5 104.72 16.37 83.75 28.47"/></g><polygon class="cls-173" points="71.6 14.17 125.69 45.4 124 46.38 69.91 15.15 71.6 14.17"/><polygon class="cls-173" points="81.76 8.3 135.84 39.52 134.15 40.5 80.07 9.28 81.76 8.3"/><polygon class="cls-174" points="123.67 44.44 132.53 39.33 134.26 40.33 125.4 45.44 123.67 44.44"/><polygon class="cls-175" points="117.46 30.63 108.61 35.74 110.34 36.74 119.2 31.63 117.46 30.63"/><polygon class="cls-176" points="102.4 21.93 93.54 27.05 95.27 28.05 104.13 22.93 102.4 21.93"/><polygon class="cls-177" points="87.33 13.23 78.47 18.35 80.21 19.35 89.07 14.23 87.33 13.23"/><path class="cls-82" d="M75.67,7.93A10,10,0,0,0,80,15.5l1,1.75,2.32-1.34A3.17,3.17,0,0,0,84.69,13a10,10,0,0,0-4.52-7.82A3.17,3.17,0,0,0,77,4.84L74.66,6.18Z"/><path class="cls-83" d="M73.33,9.11c0-2.88,2-4,4.52-2.61a10,10,0,0,1,4.52,7.82c0,2.88-2,4-4.52,2.61A10,10,0,0,1,73.33,9.11Z"/><path class="cls-82" d="M74.55,9.81c0-2.11,1.48-3,3.3-1.91a7.3,7.3,0,0,1,3.3,5.72c0,2.11-1.48,3-3.3,1.91A7.3,7.3,0,0,1,74.55,9.81Z"/><path class="cls-178" d="M90.86,0s-.66.6-.67.59l-.08.08-7,6.59L81.76,8.43l62.92,36.33v-2l-.63-.36-.28-.6L137.64,29l7,4.07v-2Zm28.87,18.62-6.14,5.79-6.14-12.88Zm1.41,1.25,6.14,12.88L115,25.66ZM99.91,16.95,106,11.15,112.18,24ZM98.5,15.7,92.36,2.82l12.28,7.09Zm36.33,11.64-6.14,5.79-6.14-12.88Zm7.55,14.13-12.28-7.09,6.14-5.79ZM91,2.44l6.14,12.88L84.81,8.23Z"/><path class="cls-91" d="M143.25,32.2l1.69-1L90.86,0,89.17,1l7.05,4.07L87.76,9.94,80.71,5.87,79,6.72l54.09,31.35,1.69-1-.11-.06,8.46-4.89Zm-16.89-9.75-8.46,4.89-13.33-7.7L113,14.75ZM98,6.05l13.33,7.7-8.46,4.89-13.33-7.7Zm35,30-13.33-7.7,8.46-4.89,13.33,7.7Z"/><path class="cls-179" d="M79,6.72s-.66.6-.67.59l-.08.08-7,6.59-1.36,1.17,62.92,36.33v-2l-.63-.36-.28-.6-6.14-12.88,7,4.07v-2Zm28.87,18.62-6.14,5.79L95.6,18.25Zm1.41,1.25,6.14,12.88-12.28-7.09ZM88.06,23.67l6.14-5.79,6.14,12.88Zm-1.41-1.25L80.51,9.54l12.28,7.09ZM123,34.06l-6.14,5.79L110.7,27Zm7.55,14.13-12.28-7.09,6.14-5.79ZM79.1,9.16,85.24,22,73,15Z"/><rect class="cls-82" x="78.01" y="3.7" width="65.91" height="0.98" transform="translate(-0.08 3.84) rotate(-1.98)"/><polygon class="cls-180" points="144.69 31.01 146.19 3.54 148.13 5.47 156.53 37.85 154.84 36.88 147.84 10.06 146.38 31.99 144.69 31.01"/><polygon class="cls-181" points="156.54 37.85 154.84 38.83 146.34 5.21 148.1 5.33 156.54 37.85"/><path class="cls-82" d="M142.41,4a6.84,6.84,0,0,0,3,5.15l.69,1.19,1.58-.91a2.16,2.16,0,0,0,.9-2,6.79,6.79,0,0,0-3.07-5.32,2.16,2.16,0,0,0-2.17-.22l-1.58.91Z"/><path class="cls-83" d="M140.82,4.83c0-2,1.38-2.75,3.07-1.77A6.79,6.79,0,0,1,147,8.38c0,2-1.38,2.75-3.07,1.77A6.79,6.79,0,0,1,140.82,4.83Z"/><polygon class="cls-91" points="132.84 37.91 141.86 5.33 143.55 6.31 144.69 44.76 143 43.78 141.54 12.93 134.53 38.89 132.84 37.91"/><polygon class="cls-182" points="146.38 43.71 144.69 44.69 143.55 6.31 145.22 5.71 146.38 43.71"/><polygon class="cls-173" points="145.28 56.75 255.06 120.13 253.36 121.11 145.28 58.71 145.28 56.75"/><polygon class="cls-183" points="265.21 114.27 263.52 115.25 152.4 51.09 154.09 50.12 265.21 114.27"/><polygon class="cls-184" points="252.5 108.66 243.64 113.77 245.38 114.78 254.24 109.66 252.5 108.66"/><polygon class="cls-185" points="237.44 99.96 228.58 105.08 230.31 106.08 239.17 100.96 237.44 99.96"/><polygon class="cls-186" points="222.37 91.26 213.51 96.38 215.25 97.38 224.1 92.26 222.37 91.26"/><polygon class="cls-187" points="207.31 82.56 198.45 87.68 200.18 88.68 209.04 83.56 207.31 82.56"/><polygon class="cls-188" points="192.24 73.87 183.38 78.98 185.12 79.98 193.97 74.87 192.24 73.87"/><polygon class="cls-189" points="177.18 65.17 168.32 70.28 170.05 71.28 178.91 66.17 177.18 65.17"/><polygon class="cls-190" points="162.11 56.47 153.25 61.59 154.98 62.59 163.84 57.47 162.11 56.47"/><path class="cls-191" d="M257.49,96.13l-101-58.28v2l8.87,5.12L159,51l-2.45-1.41v2l108.67,62.74v-2C257.32,95.76,259.34,100,257.49,96.13Zm-44-23.44,12.28,7.09-6.14,5.79Zm4.73,12.5L206,78.11l6.14-5.79Zm9-4.17,6.14,12.88-12.28-7.09ZM190.86,69.39,197,63.6l6.14,12.88ZM198.41,64l12.28,7.09-6.14,5.79ZM240.88,88.5l-6.14,5.79L228.6,81.41Zm1.41,1.25,6.14,12.88-12.28-7.09ZM175.77,60.68l6.14-5.79,6.14,12.88Zm7.55-5.41,12.28,7.09-6.14,5.79ZM256,97.21,249.83,103l-6.14-12.88Zm7.55,14.13-12.28-7.09,6.14-5.79Zm-96.7-65.16L173,59.06,160.68,52Zm1.41.38,12.28,7.09-6.14,5.79Z"/><path class="cls-192" d="M146,31.72l.06,2,8,4.66c.82-.16,1.63-.36,2.43-.59Z"/><path class="cls-91" d="M156.53,37.79c-.8.23-1.61.43-2.43.59l7.79,4.52-8.46,4.89-7.05-4.07-1.69,1,101,58.28,1.69-1-1.77-1L254,96.09l1.77,1,1.69-1Zm-1.36,11,8.46-4.89L177,51.6l-8.46,4.89Zm15.07,8.7,8.46-4.89L192,60.3l-8.46,4.89Zm15.07,8.7,8.46-4.89L207.09,69l-8.46,4.89Zm15.07,8.7L208.83,70l13.33,7.7-8.46,4.89Zm15.07,8.7,8.46-4.89,13.33,7.7-8.46,4.89Zm28.4,16.4-13.33-7.7L239,87.39l13.33,7.7Z"/><polygon class="cls-193" points="265.21 114.27 263.51 115.25 263.51 113.3 255.79 97.11 257.49 96.14 265.21 112.32 265.21 114.27"/><path class="cls-82" d="M254.88,113.13a10,10,0,0,0,4.37,7.57l1,1.75,2.32-1.34a3.17,3.17,0,0,0,1.32-2.92,10,10,0,0,0-4.52-7.82,3.17,3.17,0,0,0-3.19-.32l-2.32,1.34Z"/><path class="cls-83" d="M252.55,114.31c0-2.88,2-4,4.52-2.61a10,10,0,0,1,4.52,7.82c0,2.88-2,4-4.52,2.61A10,10,0,0,1,252.55,114.31Z"/><path class="cls-82" d="M253.76,115c0-2.11,1.48-3,3.3-1.91a7.3,7.3,0,0,1,3.3,5.72c0,2.11-1.48,3-3.3,1.91A7.3,7.3,0,0,1,253.76,115Z"/><path class="cls-179" d="M245.64,103l-101-58.28v2l8.87,5.12-6.43,6.06-2.45-1.41v2l108.67,62.74v-2C245.47,102.6,247.49,106.83,245.64,103Zm-44-23.44,12.28,7.09-6.14,5.79ZM206.39,92l-12.28-7.09,6.14-5.79Zm9-4.17,6.14,12.88L209.2,93.66ZM179,76.23l6.14-5.79,6.14,12.88Zm7.55-5.41,12.28,7.09L192.7,83.7ZM229,95.34l-6.14,5.79-6.14-12.88Zm1.41,1.25,6.14,12.88-12.28-7.09ZM163.92,67.52l6.14-5.79,6.14,12.88Zm7.55-5.41,12.28,7.09L177.61,75Zm72.65,41.94L238,109.84,231.84,97Zm7.55,14.13-12.28-7.09,6.14-5.79ZM155,53l6.14,12.88-12.28-7.09Zm1.41.38,12.28,7.09-6.14,5.79Z"/><polygon class="cls-194" points="255.06 120.13 253.36 121.11 253.36 119.16 245.64 102.97 247.33 102 255.06 118.37 255.06 120.13"/><rect class="cls-82" x="202.16" y="-22.12" width="0.98" height="160.45" transform="translate(20.58 164.37) rotate(-46.27)"/><path class="cls-179" d="M128.6,48.31a3,3,0,0,1,1.22,1.46l2.87,7.46a4.17,4.17,0,0,1,.31,1.5V69.31l-11.37-6.56V44.28Z"/><path class="cls-195" d="M132.68,57.21l-2.86-7.44a3,3,0,0,0-1.22-1.47l-7-4S134,37.14,134,37.14l7,4a3,3,0,0,1,1.21,1.47L145,50.08a4.24,4.24,0,0,1,.31,1.5V62.17L133,69.31s0-10.6,0-10.6A4.26,4.26,0,0,0,132.68,57.21Z"/><polygon class="cls-196" points="133.49 56.5 144.13 50.45 141.39 43.23 130.75 49.28 133.49 56.5"/><polygon class="cls-197" points="122.64 46.93 122.64 52.3 125.95 54.22 131.4 57.36 128.34 49.77 122.64 46.48 122.64 46.93"/><path class="cls-83" d="M141.4,5.69c0-1.14.8-1.6,1.78-1A3.94,3.94,0,0,1,145,7.75c0,1.14-.8,1.6-1.78,1A3.94,3.94,0,0,1,141.4,5.69Z"/><path class="cls-82" d="M141.87,5.46a4.43,4.43,0,0,0,1.93,3.34l.44.77,1-.59a1.4,1.4,0,0,0,.58-1.29,4.4,4.4,0,0,0-2-3.45,1.4,1.4,0,0,0-1.41-.14l-1,.59Z"/><path class="cls-83" d="M140.84,6c0-1.27.89-1.78,2-1.15a4.4,4.4,0,0,1,2,3.45c0,1.27-.89,1.78-2,1.15A4.4,4.4,0,0,1,140.84,6Z"/><path class="cls-82" d="M235.49,266.61h-.06a.5.5,0,0,1-.44-.55l6.26-53.68L216,254.28a.5.5,0,1,1-.86-.52l25.6-42.5a.86.86,0,0,1,1-.34.85.85,0,0,1,.57.85L236,266.17A.5.5,0,0,1,235.49,266.61Z"/><path class="cls-198" d="M258.37,294.3a6.93,6.93,0,0,1-1.36.51l-.47.07c-1.42,0-2.43-1-2.46-2.92a8.7,8.7,0,0,1,4-7c2.24-1.27,4.1-.23,4.18,2.32l1.48-.84c-.1-3.48-2.64-4.91-5.69-3.18a11.85,11.85,0,0,0-5.44,9.57c0,2.44,1.28,3.88,3,4a4.75,4.75,0,0,0,.93-.08,8.32,8.32,0,0,0,1.66-.61c.18-.09.83-.45,1-.55h0l10.18-5.78,0-1.69-10.16,5.77Zm.8-3.15h0l-.77.42a5.32,5.32,0,0,1-.6.25,1.76,1.76,0,0,1-.44.07c-.56,0-.94-.49-1-1.26a3.74,3.74,0,0,1,1.72-3c1-.54,1.75-.11,1.8,1l1.42-.81c-.07-2-1.51-2.78-3.25-1.79a6.76,6.76,0,0,0-3.11,5.47c0,1.43.76,2.25,1.81,2.27a2.12,2.12,0,0,0,.55-.06,6.27,6.27,0,0,0,1-.39l.82-.45h0l10.2-5.79,0-1.64Zm-7.36,8.59-1.49.84-.22-11.13-2.17,1.23,0-1.71,3.66-2.08Zm-5.5-7.27,0,1.65,1.63-.93.17,8.63,1.43-.81-.21-10.28Z"/></g></g></g></svg>