<svg xmlns="http://www.w3.org/2000/svg" xmlns:xlink="http://www.w3.org/1999/xlink" viewBox="0 0 170.39 400"><defs><style>.cls-1{fill:none;}.cls-2{isolation:isolate;}.cls-3{fill:url(#GradientFill_121);}.cls-4{fill:#256167;}.cls-5{opacity:0.5;fill:url(#linear-gradient);}.cls-6{fill:#2f7783;}.cls-39,.cls-6{opacity:0.3;}.cls-7{fill:url(#GradientFill_121-2);}.cls-8{fill:#f2f2f0;}.cls-9{fill:#e2dac7;}.cls-10{fill:#3aabbb;}.cls-11{fill:#e9e8e7;}.cls-12{fill:url(#GradientFill_121-3);}.cls-13{fill:url(#GradientFill_121-4);}.cls-14{fill:#f2ebdc;}.cls-15{fill:url(#GradientFill_121-5);}.cls-16{fill:url(#GradientFill_121-6);}.cls-17{fill:url(#GradientFill_121-7);}.cls-18{fill:url(#GradientFill_121-8);}.cls-19{fill:url(#Безымянный_градиент_387);}.cls-20{fill:#c4c4c4;}.cls-21{fill:#3f3f42;}.cls-22{fill:#62626a;}.cls-23{fill:#fff;opacity:0.9;}.cls-24{clip-path:url(#clip-path);}.cls-25{fill:url(#GradientFill_121-9);}.cls-26{fill:#aea387;}.cls-27{fill:url(#GradientFill_121-10);}.cls-28{fill:url(#GradientFill_121-11);}.cls-29{fill:#0b7c7b;}.cls-30{fill:url(#Безымянный_градиент_391);}.cls-31{fill:#317a85;}.cls-32{fill:url(#GradientFill_121-12);}.cls-33{fill:url(#GradientFill_121-13);}.cls-34{fill:url(#linear-gradient-2);}.cls-35{fill:url(#GradientFill_121-14);}.cls-36{fill:#1d595f;opacity:0.4;}.cls-37{fill:url(#GradientFill_121-15);}.cls-38{fill:#f5f6f6;}.cls-39{fill:#2e717c;mix-blend-mode:multiply;}.cls-40{fill:url(#GradientFill_121-16);}.cls-41{fill:#e4dbc6;}.cls-42{fill:url(#GradientFill_121-17);}.cls-43{fill:#9da0a0;}.cls-44{fill:#576168;}</style><linearGradient id="GradientFill_121" x1="58.7" y1="373.19" x2="81.7" y2="373.19" gradientUnits="userSpaceOnUse"><stop offset="0" stop-color="#a8a6a6"/><stop offset="0.52" stop-color="#a3a1a1"/><stop offset="1" stop-color="#989898"/></linearGradient><linearGradient id="linear-gradient" x1="9802.86" y1="365.01" x2="9848.51" y2="365.01" gradientTransform="matrix(-1, 0, 0, 1, 9858.41, 0)" gradientUnits="userSpaceOnUse"><stop offset="0" stop-color="#73c8b1"/><stop offset="0.56" stop-color="#62bcb0"/><stop offset="1" stop-color="#51b1af"/></linearGradient><linearGradient id="GradientFill_121-2" x1="6.23" y1="354.2" x2="11.75" y2="354.2" xlink:href="#GradientFill_121"/><linearGradient id="GradientFill_121-3" x1="125.11" y1="356.23" x2="170.39" y2="356.23" xlink:href="#GradientFill_121"/><linearGradient id="GradientFill_121-4" x1="53.73" y1="356.27" x2="80.92" y2="356.27" xlink:href="#GradientFill_121"/><linearGradient id="GradientFill_121-5" x1="136.64" y1="198.63" x2="166.24" y2="198.63" xlink:href="#GradientFill_121"/><linearGradient id="GradientFill_121-6" x1="111.36" y1="207.45" x2="128.64" y2="207.45" xlink:href="#GradientFill_121"/><linearGradient id="GradientFill_121-7" x1="73.56" y1="211.66" x2="80.9" y2="211.66" xlink:href="#GradientFill_121"/><linearGradient id="GradientFill_121-8" x1="31.18" y1="200.28" x2="69.86" y2="200.28" xlink:href="#GradientFill_121"/><linearGradient id="Безымянный_градиент_387" x1="9788.55" y1="198.12" x2="9819.77" y2="198.12" gradientTransform="matrix(-1, 0, 0, 1, 9858.41, 0)" gradientUnits="userSpaceOnUse"><stop offset="0" stop-color="#34b3b7"/><stop offset="1" stop-color="#2b8e8d"/></linearGradient><clipPath id="clip-path"><polygon class="cls-1" points="80.73 75.41 111.25 78.28 128.64 68.24 136.69 72.92 164.74 56.72 68.63 0.87 40.58 17.06 48.63 21.74 30.78 32.04 35.64 49.73 28.97 53.58 73.61 79.52 80.73 75.41"/></clipPath><linearGradient id="GradientFill_121-9" x1="79.07" y1="70.2" x2="86.38" y2="70.2" xlink:href="#GradientFill_121"/><linearGradient id="GradientFill_121-10" x1="40.58" y1="9.98" x2="68.63" y2="9.98" xlink:href="#GradientFill_121"/><linearGradient id="GradientFill_121-11" x1="30.78" y1="28.64" x2="48.63" y2="28.64" xlink:href="#GradientFill_121"/><linearGradient id="Безымянный_градиент_391" x1="80.85" y1="223.48" x2="111.41" y2="223.48" gradientUnits="userSpaceOnUse"><stop offset="0" stop-color="#0b7c7b"/><stop offset="1" stop-color="#047578"/></linearGradient><linearGradient id="GradientFill_121-12" x1="45.35" y1="338.56" x2="67.74" y2="338.56" xlink:href="#GradientFill_121"/><linearGradient id="GradientFill_121-13" x1="13.88" y1="331.65" x2="19.47" y2="331.65" xlink:href="#GradientFill_121"/><linearGradient id="linear-gradient-2" x1="9807.14" y1="342.19" x2="9846.2" y2="342.19" gradientTransform="matrix(-1, 0, 0, 1, 9858.41, 0)" gradientUnits="userSpaceOnUse"><stop offset="0" stop-color="#73c8b1"/><stop offset="0.35" stop-color="#62bcb0"/><stop offset="1" stop-color="#389eae"/></linearGradient><linearGradient id="GradientFill_121-14" x1="53.72" y1="381.61" x2="59.24" y2="381.61" xlink:href="#GradientFill_121"/><linearGradient id="GradientFill_121-15" x1="73.59" y1="69.64" x2="80.9" y2="69.64" xlink:href="#GradientFill_121"/><linearGradient id="GradientFill_121-16" x1="44.53" y1="364.89" x2="50.13" y2="364.89" xlink:href="#GradientFill_121"/><linearGradient id="GradientFill_121-17" x1="29.48" y1="59.62" x2="72.42" y2="59.62" xlink:href="#GradientFill_121"/></defs><title>skyscraper</title><g class="cls-2"><g id="Layer_2" data-name="Layer 2"><g id="Layer_1-2" data-name="Layer 1"><g id="_5" data-name="5"><polygon class="cls-3" points="58.7 362.06 81.7 349.71 81.01 384.11 59.23 396.68 58.7 362.06"/><polygon class="cls-4" points="78.95 351.19 78.95 385.29 59.23 396.68 58.7 362.06 78.95 351.19"/><polygon class="cls-5" points="9.9 335.28 55.55 361.63 55.55 394.75 9.9 368.23 9.9 335.28"/><path class="cls-6" d="M9.9,351.68l2,1.18V369.4l.48.28V353.13l7.38,4.3h0V374l.48.28V361.16l11.36,6.56v13.13l.35.2V367.92l11.41,6.59v13.17l.48.28V371.22l7.39,4.3v16.73l.48.28V375.79L55.55,378v-.55l-3.82-2.23V359.43l-.48-.27V375l-7.39-4.3V354.89l-.48-.27V370.5h0L36,366.2V350.34l-.48-.28v15.85l-7.39-4.3V345.8l-.48-.28v15.82L20.27,357V341.26L19.8,341v15.9h0l-7.38-4.3V336.72l-.48-.27v15.86l-2-1.18Zm10.37,5.92,23.11,13.45h0v3.11L20.27,360.82Z"/><polygon class="cls-7" points="11.75 369.35 6.23 372.54 6.25 339.03 11.75 335.85 11.75 369.35"/><polygon class="cls-8" points="2.33 336.75 6.25 339.03 6.24 372.58 2.33 370.31 2.33 336.75"/><polygon class="cls-9" points="22.2 290.33 22.31 328.59 29.58 354.22 29.48 315.96 22.2 290.33"/><polygon class="cls-10" points="22.85 297.88 29.48 321.21 29.58 354.22 22.85 330.5 22.85 297.88"/><polygon class="cls-11" points="80.9 345.84 81.01 384.11 125.22 388.4 125.11 350.13 80.9 345.84"/><polygon class="cls-12" points="125.11 350.13 125.22 388.4 170.39 362.32 170.28 324.06 125.11 350.13"/><polygon class="cls-13" points="53.75 361.52 53.73 366.7 80.92 351.01 80.9 345.84 53.75 361.52"/><path class="cls-8" d="M26.43,350.29v-4.65l27.32,15.88v5.23L26.35,350.83A2.35,2.35,0,0,0,26.43,350.29Z"/><polygon class="cls-8" points="13.92 343.69 2.32 336.86 2.32 331.63 14.09 338.47 13.92 343.69"/><polygon class="cls-14" points="22.2 290.33 29.48 315.96 2.32 331.63 53.75 361.52 80.9 345.84 125.11 350.13 170.28 324.06 67.37 264.25 22.2 290.33"/><polygon class="cls-8" points="39.08 17.06 39.03 283.81 47.08 288.49 47.13 21.74 39.08 17.06"/><polygon class="cls-9" points="29.91 31.68 29.85 298.44 34.71 316.12 34.76 49.37 29.91 31.68"/><polygon class="cls-8" points="128.64 69.11 128.59 335.86 136.64 340.54 136.69 73.78 128.64 69.11"/><polygon class="cls-15" points="136.69 73.78 166.24 56.73 166.19 323.48 136.64 340.54 136.69 73.78"/><polygon class="cls-11" points="80.9 76.18 111.41 79.05 111.36 345.8 80.85 342.93 80.9 76.18"/><polygon class="cls-16" points="111.41 79.05 128.64 69.11 128.59 335.86 111.36 345.8 111.41 79.05"/><polygon class="cls-17" points="73.61 80.39 73.56 347.14 80.85 342.93 80.9 76.18 73.61 80.39"/><polygon class="cls-8" points="27.48 53.58 27.42 320.33 73.56 347.14 73.61 80.39 27.48 53.58"/><polygon class="cls-18" points="31.23 78.88 69.86 101.32 69.81 321.68 31.18 299.23 31.23 78.88"/><path class="cls-14" d="M69.82,274.8v46.88L31.18,299.23l7.46-4.31S58.45,279.73,69.82,274.8Z"/><polygon class="cls-19" points="38.69 83.21 69.86 101.32 69.81 313.03 38.64 294.92 38.69 83.21"/><polygon class="cls-14" points="39.08 17.06 47.13 21.74 29.91 31.68 34.76 49.37 27.48 53.58 73.61 80.39 80.9 76.18 111.41 79.05 128.64 69.11 136.69 73.78 166.24 56.73 68.63 0 39.08 17.06"/><polygon class="cls-20" points="80.73 75.41 111.25 78.28 128.64 68.24 136.69 72.92 164.74 56.72 68.63 0.87 40.58 17.06 48.63 21.74 30.78 32.04 35.64 49.73 28.97 53.58 73.61 79.52 80.73 75.41"/><path class="cls-21" d="M76.41,55.64c10.62,6.17,27.91,6.17,38.6,0,5.38-3.11,8.07-7.18,8.05-11.26v.48c0,4.07-2.68,8.15-8.05,11.26-10.69,6.17-28,6.17-38.6,0C71.14,53.05,68.49,49,68.48,45v-.48C68.49,48.56,71.13,52.57,76.41,55.64Z"/><path class="cls-22" d="M76.53,33.28c10.69-6.17,28-6.17,38.6,0s10.56,16.19-.13,22.36-28,6.17-38.6,0S65.84,39.45,76.53,33.28Z"/><path class="cls-23" d="M80.94,52.33c8,4.61,21,4.61,28.94,0s8-12.1,0-16.71-21-4.61-28.94,0S73,47.73,80.94,52.33Zm.45-16.45c7.73-4.46,20.3-4.46,28,0s7.73,11.72,0,16.18-20.3,4.46-28,0S73.67,40.35,81.4,35.89Zm19.12,2.9-5.36,3.09,4.08,2.35,5.36-3.09,3.6,2.08L94,51.39l-3.6-2.08,5.34-3.08L91.7,43.88,86.37,47l-3.6-2.08,14.16-8.17Z"/><g class="cls-24"><polygon class="cls-25" points="79.07 63.48 79.09 81.13 86.38 76.92 86.36 59.27 79.07 63.48"/><polygon class="cls-11" points="40.28 32.45 86.42 59.26 79.13 63.47 32.99 36.66 40.28 32.45"/></g><polygon class="cls-26" points="35.64 49.73 35.64 53.77 32.47 55.61 28.97 53.58 35.64 49.73"/><polygon class="cls-8" points="68.63 4.91 68.63 0.87 164.74 56.72 161.25 58.74 68.63 4.91"/><polygon class="cls-27" points="68.63 4.91 44.07 19.09 40.58 17.06 68.63 0.87 68.63 4.91"/><polygon class="cls-28" points="48.63 25.79 31.74 35.54 30.78 32.04 48.63 21.74 48.63 25.79"/><polygon class="cls-29" points="141.88 95.77 161.4 84.5 161.4 326.24 141.88 337.51 141.88 95.77"/><polygon class="cls-30" points="80.9 101.16 111.41 104.03 111.36 345.8 80.85 342.93 80.9 101.16"/><polygon class="cls-29" points="111.41 104.03 128.64 94.09 128.59 335.86 111.36 345.8 111.41 104.03"/><polygon class="cls-31" points="83.01 351.19 123.21 355.09 123.21 388.26 83.01 384.36 83.01 351.19"/><polygon class="cls-4" points="126.86 354.38 168.74 330.2 168.74 363.27 126.86 387.45 126.86 354.38"/><polygon class="cls-32" points="45.36 333.39 45.34 356.65 67.72 343.73 67.74 320.47 45.36 333.39"/><polygon class="cls-8" points="11.06 313.46 11.05 336.72 45.34 356.65 45.36 333.39 11.06 313.46"/><polygon class="cls-33" points="13.88 319.57 19.43 322.8 19.47 340.52 13.92 343.72 13.88 319.57"/><polygon class="cls-14" points="33.44 300.54 67.74 320.47 45.36 333.39 11.06 313.46 33.44 300.54"/><polygon class="cls-34" points="18.6 322.32 42.59 336.26 42.56 362.06 18.56 348.12 18.6 322.32"/><polygon class="cls-35" points="59.24 396.77 53.72 399.96 53.74 366.45 59.24 363.27 59.24 396.77"/><polygon class="cls-8" points="49.82 364.17 53.74 366.45 53.73 400 49.82 397.72 49.82 364.17"/><polygon class="cls-36" points="45.85 299.1 38.64 294.92 38.69 83.21 45.9 87.39 45.85 299.1"/><path class="cls-36" d="M11.75,369.3V342.41l2.17,1.28v0L18.64,341l0-18.58a.32.32,0,0,1,0,0L42.57,336.3l0,2.26L23.52,327.48l0,21.08L17.26,345V372.5Z"/><polygon class="cls-37" points="73.59 62.91 73.62 80.57 80.9 76.36 80.88 58.71 73.59 62.91"/><polygon class="cls-8" points="27.51 36.09 27.46 53.62 73.64 80.43 73.65 62.91 27.51 36.09"/><polygon class="cls-38" points="34.8 31.89 80.94 58.7 73.65 62.91 27.51 36.09 34.8 31.89"/><path class="cls-26" d="M80.82,74.71l1.34-.78,0,1.5-1.36.79Z"/><path class="cls-39" d="M158.9,335.88l.38-.22v33.07l-.38.22ZM154,371.8l.38-.22V338.51l-.38.22Zm-2.47,1.42.38-.22V339.93l-.38.22Zm15.19-41.84-.38.22v33.07l.38-.22Zm-2.85,34.71.38-.22V332.81l-.38.22ZM149,374.65l.38-.22V341.36l-.38.22Zm12.34-7.12.38-.22V334.24l-.38.22Zm-4.94,2.85.38-.22V337.08l-.38.22Zm-19.74,11.4.38-.22V348.48l-.38.22Zm-4.93,2.85.38-.22V351.33l-.38.22Zm2.47-1.42.38-.22V349.91l-.38.22ZM129.29,386l.38-.22V352.76l-.38.22Zm17.27-10,.38-.22V342.78l-.38.22Zm-2.47,1.42.38-.22V344.21l-.38.22Zm-4.94,2.85.38-.22V347.06l-.38.22Zm2.47-1.42.38-.22V345.63l-.38.22Z"/><path class="cls-39" d="M110.9,353.9l.37,0V387.1l-.37,0Zm3.18,33.47.37,0V354.24l-.37,0Zm-6.36-.62.37,0V353.63l-.37,0Zm-3.18-.31.37,0V353.32l-.37,0Zm12.72,1.23.37,0V354.55l-.37,0Zm3.55-32.82-.37,0V388l.37,0Zm-29,30.35.37,0V352.08l-.37,0Zm-3.18-.31.37,0V351.78l-.37,0Zm-3.18-.31.37,0V351.47l-.37,0Zm15.9,1.54.37,0V353l-.37,0ZM95,385.52l.37,0V352.39l-.37,0Zm3.18.31.37,0V352.7l-.37,0Z"/><path class="cls-39" d="M99.36,102.9l.37,0V344.71l-.37,0ZM102.54,345l.37,0V103.23l-.37,0Zm6.73-241.14-.37,0V345.57l.37,0Zm-3.55,241.44.37,0V103.53l-.37,0Zm-22.26-2.1.37,0V101.44l-.37,0Zm3.18.3.37,0V101.74l-.37,0Zm3.18.3.37,0V102l-.37,0Zm3.18.3.37,0V102.34l-.37,0Zm3.18.3.37,0V102.64l-.37,0Z"/><path class="cls-39" d="M62.34,97l.37.22V308.91l-.37-.22Zm2.4,213.13.37.22V98.57l-.37-.22Zm-7.2-4.19.37.22V94.38l-.37-.22Zm2.4,1.39.37.22V95.78l-.37-.22Zm7.2,4.19.37.22V100l-.37-.22Zm2.4,1.4.26.15,0-211.71-.31-.18ZM43.14,297.53l.37.22V86l-.37-.22Zm4.8,2.79.37.22V88.8l-.37-.22Zm-2.4-1.4.37.22V87.41l-.37-.22Zm9.6,5.58.37.22V93l-.37-.22Zm-14.4-8.37.37.22V84.62l-.37-.22Zm9.6,5.58.37.22V90.2L50.34,90Zm2.4,1.4.37.22V91.59l-.37-.22Z"/><path class="cls-39" d="M159,327.6l-.37.22V86.08l.37-.22Zm-2.77,1.6.37-.22V87.25l-.37.22Zm-2.4,1.39.37-.22V88.64l-.37.22Zm-7.2,4.16.37-.22V92.79l-.37.22Zm-2.4,1.39.37-.22V94.18l-.37.22Zm7.2-4.16.37-.22V90l-.37.22Zm-2.4,1.39.37-.22V91.41l-.37.22Z"/><path class="cls-39" d="M126.32,337.17l-.37.22V95.65l.37-.22Zm-2.77,1.6.37-.22V96.82l-.37.22Zm-2.4,1.39.37-.22V98.2l-.37.22Zm-7.2,4.16.37-.22V102.36l-.37.22Zm2.4-1.39.37-.22V101l-.37.22Zm2.4-1.39.37-.22V99.59l-.37.22Z"/><path class="cls-39" d="M74.25,354.86V388l-.37.22V355.07Zm-2.77,1.6v33.15l.37-.22V356.24Zm4.8-2.77v33.15l.37-.22V353.47Zm-12,6.93v33.15l.37-.22V360.4ZM61.87,362v33.15l.37-.22V361.79Zm4.8-2.77v33.15l.37-.22V359Zm2.4-1.39V391l.37-.22V357.63Z"/><polygon class="cls-40" points="44.53 366.04 44.54 366.97 50.13 363.74 50.12 362.81 44.53 366.04"/><polygon class="cls-41" points="0 340.21 0.01 341.14 44.54 366.97 44.53 366.04 0 340.21"/><polygon class="cls-11" points="5.59 336.98 50.12 362.81 44.53 366.04 0 340.21 5.59 336.98"/><polygon class="cls-14" points="18.61 340.91 42.56 354.86 42.55 361.31 13.03 344.14 18.61 340.91"/><polygon class="cls-42" points="29.48 46.84 32.04 45.48 32.03 40.86 33.64 43.73 33.64 47.15 68.35 67.2 69.03 66.83 69.02 62.22 70.63 65.09 70.63 68.51 72.41 69.54 72.42 78.37 31.67 54.85 31.67 48.11 29.48 46.84"/><path class="cls-43" d="M27.7,43.15v4.62l.2.12,4.15-2.4V40.87l-.2-.12Zm3.6-1.62L29.78,44.1l-1.52-.81Zm.38,3.57-1.53-.81,1.52-2.59Zm-3.2,2L30,44.55l1.52.81Zm-.38-3.57,1.55.82L28.1,46.94Z"/><path class="cls-44" d="M27.9,43.27v4.62l4.15-2.4V40.87Zm3.81-2L30,44.21l-1.73-.92Zm.17,3.93-1.73-.92,1.72-2.94Zm-3.61,2.24L30,44.55l1.73.92Zm-.17-3.93,1.75.93L28.1,47.4Z"/><path class="cls-43" d="M64.66,64.5v4.62l.2.12L69,66.83V62.22l-.2-.12Zm3.6-1.62-1.51,2.56-1.52-.81Zm.38,3.57-1.53-.81L68.63,63Zm-3.2,2,1.51-2.56,1.52.81Zm-.38-3.57,1.55.82-1.54,2.58Z"/><path class="cls-44" d="M64.87,64.62v4.62L69,66.83V62.22Zm3.81-2-1.72,2.92-1.73-.92Zm.17,3.93-1.73-.92,1.72-2.94Zm-3.61,2.24,1.72-2.92,1.73.92Zm-.17-3.93,1.75.93-1.74,2.93Z"/><g class="cls-2"><polygon class="cls-26" points="66.88 73.92 67.31 73.67 67.3 64.84 66.87 65.09 66.88 73.92"/><polygon class="cls-14" points="26.56 41.32 67.3 64.84 66.87 65.09 26.13 41.57 26.56 41.32"/><polygon class="cls-8" points="26.13 41.57 66.87 65.09 66.88 73.92 26.13 50.4 26.13 41.57"/></g></g></g></g></g></svg>