<svg xmlns="http://www.w3.org/2000/svg" xmlns:xlink="http://www.w3.org/1999/xlink" viewBox="0 0 102.14 200.12"><defs><style>.cls-1,.cls-10,.cls-11,.cls-12,.cls-13,.cls-14,.cls-15,.cls-16,.cls-17,.cls-18,.cls-19,.cls-21,.cls-22,.cls-23,.cls-24,.cls-26,.cls-27,.cls-28,.cls-3,.cls-4,.cls-5,.cls-7,.cls-8,.cls-9{fill-rule:evenodd;}.cls-1{fill:url(#Безымянный_градиент_1208);}.cls-2{fill:url(#GradientFill_234);}.cls-3,.cls-5{opacity:0.2;}.cls-3{fill:url(#GradientFill_344);}.cls-4{fill:#c8c9d1;}.cls-24,.cls-4{opacity:0.5;}.cls-5{fill:url(#GradientFill_346);}.cls-6{fill:url(#GradientFill_347);}.cls-10,.cls-11,.cls-12,.cls-13,.cls-14,.cls-15,.cls-16,.cls-17,.cls-18,.cls-26,.cls-7,.cls-8,.cls-9{opacity:0.8;}.cls-7{fill:url(#Безымянный_градиент_64);}.cls-8{fill:url(#linear-gradient);}.cls-9{fill:url(#linear-gradient-2);}.cls-10{fill:url(#linear-gradient-3);}.cls-11{fill:url(#linear-gradient-4);}.cls-12{fill:url(#linear-gradient-5);}.cls-13{fill:url(#linear-gradient-6);}.cls-14{fill:url(#linear-gradient-7);}.cls-15{fill:url(#linear-gradient-8);}.cls-16{fill:url(#linear-gradient-9);}.cls-17{fill:url(#linear-gradient-10);}.cls-18{fill:url(#Безымянный_градиент_409);}.cls-19{fill:url(#Безымянный_градиент_1208-2);}.cls-20{fill:#f2f2f0;}.cls-21{fill:#fff;opacity:0.6;}.cls-22{fill:url(#GradientFill_16);}.cls-23{fill:url(#Безымянный_градиент_409-2);}.cls-24{fill:url(#GradientFill_16-2);}.cls-25{fill:url(#GradientFill_16-3);}.cls-26{fill:url(#Безымянный_градиент_490);}.cls-27{fill:url(#GradientFill_7);}.cls-28{fill:url(#GradientFill_7-2);}</style><linearGradient id="Безымянный_градиент_1208" x1="-4.17" y1="169.55" x2="114.67" y2="173.7" gradientUnits="userSpaceOnUse"><stop offset="0" stop-color="#fafbfc"/><stop offset="0.3" stop-color="#ececec"/><stop offset="0.72" stop-color="#b9b9b9"/><stop offset="1" stop-color="#bbb"/></linearGradient><linearGradient id="GradientFill_234" x1="38.07" y1="193.46" x2="70.65" y2="126.56" gradientUnits="userSpaceOnUse"><stop offset="0" stop-color="#fff"/><stop offset="1" stop-color="#a3a7ae"/></linearGradient><linearGradient id="GradientFill_344" x1="51.41" y1="37.99" x2="51.41" y2="185.96" gradientUnits="userSpaceOnUse"><stop offset="0" stop-color="#c4c6ce"/><stop offset="0.23" stop-color="#f4f4f5"/><stop offset="0.4" stop-color="#f6f9fb"/><stop offset="0.83" stop-color="#f6f5f8"/><stop offset="1" stop-color="#c8c9d1"/></linearGradient><linearGradient id="GradientFill_346" x1="48.31" y1="253.11" x2="52.93" y2="120.85" gradientUnits="userSpaceOnUse"><stop offset="0" stop-color="#c4c6ce"/><stop offset="0.07" stop-color="#cfd0d7"/><stop offset="0.24" stop-color="#e4e5e9"/><stop offset="0.44" stop-color="#f3f4f5"/><stop offset="0.67" stop-color="#fcfcfd"/><stop offset="1" stop-color="#fff"/></linearGradient><linearGradient id="GradientFill_347" x1="40.04" y1="41.72" x2="52.34" y2="182.24" gradientUnits="userSpaceOnUse"><stop offset="0" stop-color="#c4c6ce"/><stop offset="1" stop-color="#fff"/></linearGradient><linearGradient id="Безымянный_градиент_64" x1="19.58" y1="158.87" x2="82.4" y2="158.87" gradientUnits="userSpaceOnUse"><stop offset="0" stop-color="#34b3b7"/><stop offset="1" stop-color="#2d7a75"/></linearGradient><linearGradient id="linear-gradient" x1="23.84" y1="155.18" x2="80.57" y2="163.33" gradientUnits="userSpaceOnUse"><stop offset="0" stop-color="#31acb0"/><stop offset="1" stop-color="#2b7874"/></linearGradient><linearGradient id="linear-gradient-2" x1="28.62" y1="152.98" x2="77.84" y2="167.43" gradientUnits="userSpaceOnUse"><stop offset="0" stop-color="#2da6a9"/><stop offset="1" stop-color="#287674"/></linearGradient><linearGradient id="linear-gradient-3" x1="33.33" y1="152.2" x2="74.43" y2="170.97" gradientUnits="userSpaceOnUse"><stop offset="0" stop-color="#2aa1a3"/><stop offset="1" stop-color="#257473"/></linearGradient><linearGradient id="linear-gradient-4" x1="37.52" y1="152.44" x2="70.67" y2="173.75" gradientUnits="userSpaceOnUse"><stop offset="0" stop-color="#269c9e"/><stop offset="1" stop-color="#227273"/></linearGradient><linearGradient id="linear-gradient-5" x1="37.78" y1="150.55" x2="66.85" y2="175.74" gradientUnits="userSpaceOnUse"><stop offset="0" stop-color="#239798"/><stop offset="1" stop-color="#1f7072"/></linearGradient><linearGradient id="linear-gradient-6" x1="37.86" y1="147.82" x2="63.26" y2="177.12" gradientUnits="userSpaceOnUse"><stop offset="0" stop-color="#209293"/><stop offset="1" stop-color="#1b6f71"/></linearGradient><linearGradient id="linear-gradient-7" x1="38.66" y1="144.88" x2="60.02" y2="178.12" gradientUnits="userSpaceOnUse"><stop offset="0" stop-color="#1c8e8e"/><stop offset="1" stop-color="#186d71"/></linearGradient><linearGradient id="linear-gradient-8" x1="40.32" y1="142.09" x2="57.15" y2="178.94" gradientUnits="userSpaceOnUse"><stop offset="0" stop-color="#198989"/><stop offset="1" stop-color="#146b70"/></linearGradient><linearGradient id="linear-gradient-9" x1="42.91" y1="139.77" x2="54.6" y2="179.59" gradientUnits="userSpaceOnUse"><stop offset="0" stop-color="#158485"/><stop offset="1" stop-color="#0f696f"/></linearGradient><linearGradient id="linear-gradient-10" x1="46.79" y1="138.15" x2="52.79" y2="179.91" gradientUnits="userSpaceOnUse"><stop offset="0" stop-color="#118080"/><stop offset="1" stop-color="#0a686f"/></linearGradient><linearGradient id="Безымянный_градиент_409" x1="50.99" y1="137.69" x2="50.99" y2="179.95" gradientUnits="userSpaceOnUse"><stop offset="0" stop-color="#0b7c7b"/><stop offset="1" stop-color="#04666e"/></linearGradient><linearGradient id="Безымянный_градиент_1208-2" x1="-9.79" y1="26.88" x2="108.13" y2="33.06" xlink:href="#Безымянный_градиент_1208"/><linearGradient id="GradientFill_16" x1="76.24" y1="162.56" x2="16.09" y2="160.46" gradientUnits="userSpaceOnUse"><stop offset="0" stop-color="#68bdae"/><stop offset="1" stop-color="#fff"/></linearGradient><linearGradient id="Безымянный_градиент_409-2" x1="60.05" y1="116.4" x2="50.09" y2="73.26" xlink:href="#Безымянный_градиент_409"/><linearGradient id="GradientFill_16-2" x1="46.83" y1="104.27" x2="58.42" y2="102.23" xlink:href="#GradientFill_16"/><linearGradient id="GradientFill_16-3" x1="49.48" y1="60.2" x2="53.25" y2="95.99" xlink:href="#GradientFill_16"/><linearGradient id="Безымянный_градиент_490" x1="51.43" y1="58.57" x2="50.97" y2="85.09" gradientUnits="userSpaceOnUse"><stop offset="0" stop-color="#2b8e8d"/><stop offset="1" stop-color="#34b3b7"/></linearGradient><linearGradient id="GradientFill_7" y1="46.56" x2="102.14" y2="46.56" gradientUnits="userSpaceOnUse"><stop offset="0" stop-color="#b4b2b3"/><stop offset="1" stop-color="#929090"/></linearGradient><linearGradient id="GradientFill_7-2" x1="1.82" y1="187.36" x2="100.32" y2="187.36" xlink:href="#GradientFill_7"/></defs><title>time</title><g id="Layer_2" data-name="Layer 2"><g id="Layer_1-2" data-name="Layer 1"><path class="cls-1" d="M100.32,175.47c0,13.61-22.05,24.65-49.24,24.65s-49.25-11-49.25-24.65v-8c0-13.61,22.05-24.65,49.25-24.65s49.24,11,49.24,24.65Z"/><ellipse class="cls-2" cx="51.07" cy="166.77" rx="49.25" ry="24.66"/><path class="cls-3" d="M12.79,40.38C9.42,75.35,32,74.48,46.91,94.87a14.6,14.6,0,0,1,2.34,7.21,14.59,14.59,0,0,1-2.34,7.21C35.33,125.18,19,130.87,14,149.14a75.16,75.16,0,0,0-2.24,18.4c0,9.86,17.59,17.85,39.28,17.85,19.52,0,35.72-6.48,38.77-15,1.32-3.69,1.35-7.68,1.12-11.93-1.4-26.13-21-30.89-34.38-49.21a14.59,14.59,0,0,1-2.34-7.21,14.6,14.6,0,0,1,2.34-7.21C71.42,74.48,94,75.35,90.68,40.38H12.79Z"/><path class="cls-4" d="M10.46,40.38c-3.57,35,20.42,34.1,36.18,54.49a14.06,14.06,0,0,1,2.48,7.21,14,14,0,0,1-2.48,7.21c-12.28,15.89-29.55,21.58-34.89,39.85a71.19,71.19,0,0,0-2.37,18.4C9.38,177.4,28,185.39,51,185.39c-21.68,0-39.26-8-39.26-17.85A75.16,75.16,0,0,1,14,149.14c5-18.27,21.33-24,32.91-39.85a14.59,14.59,0,0,0,2.34-7.21,14.6,14.6,0,0,0-2.34-7.21C32,74.48,9.42,75.35,12.79,40.38Zm41.5,145c20.28-.19,37-6.6,40.17-15,1.4-3.69,1.43-7.68,1.19-11.93C91.83,132.37,71,127.61,56.87,109.29a14,14,0,0,1-2.48-7.21,14.06,14.06,0,0,1,2.48-7.21C72.63,74.48,96.62,75.35,93,40.38H90.68c3.37,35-19.26,34.1-34.12,54.49a14.6,14.6,0,0,0-2.34,7.21,14.59,14.59,0,0,0,2.34,7.21c13.36,18.32,33,23.07,34.38,49.21.23,4.25.21,8.23-1.12,11.93C86.82,178.78,71.08,185.19,52,185.39Z"/><path class="cls-5" d="M51,103.18c-2.1,15.83-25.53,27.23-29.68,46a92.84,92.84,0,0,0-1.8,18.4c0,9.86,14.14,17.85,31.58,17.85,15.7,0,28.72-6.48,31.17-15,1.07-3.69,1.08-7.68.9-11.93-1.23-28.38-28.69-35.63-31-55.32Z"/><ellipse class="cls-6" cx="51.05" cy="167.54" rx="39.28" ry="17.85"/><path class="cls-7" d="M62.23,142.29c5.45,5.1,12.58,13.56,17,19,3,2.81,3.12,4.07,3.12,6.2,0,12.79-24.64,15-36.69,14C38.36,181,13.29,175.06,21,163.4a14.44,14.44,0,0,1,4-3.84,206.82,206.82,0,0,1,15.6-17.27C49.69,133.85,53.2,133.85,62.23,142.29Z"/><path class="cls-8" d="M61.39,142.29c5,5.1,11.65,13.56,15.78,19,2.78,2.81,2.89,4.07,2.89,6.2,0,12.79-22.82,15-34,14-6.81-.58-30-6.52-22.83-18.18A13.89,13.89,0,0,1,27,159.56a202.21,202.21,0,0,1,14.44-17.27C49.79,133.85,53,133.85,61.39,142.29Z"/><path class="cls-9" d="M60.56,142.29c4.64,5.1,10.72,13.56,14.52,19,2.56,2.81,2.66,4.07,2.66,6.2,0,12.79-21,15-31.25,14-6.26-.58-27.61-6.52-21-18.18a13.45,13.45,0,0,1,3.42-3.84A199.25,199.25,0,0,1,42.2,142.29C49.89,133.85,52.87,133.85,60.56,142.29Z"/><path class="cls-10" d="M59.73,142.29c4.24,5.1,9.78,13.56,13.26,19,2.34,2.81,2.43,4.07,2.43,6.2,0,12.79-19.16,15-28.53,14-5.72-.58-25.21-6.52-19.17-18.18a13.14,13.14,0,0,1,3.13-3.84A198.25,198.25,0,0,1,43,142.29C50,133.85,52.71,133.85,59.73,142.29Z"/><path class="cls-11" d="M58.89,142.29a213.71,213.71,0,0,1,12,19c2.11,2.81,2.2,4.07,2.2,6.2,0,12.79-17.33,15-25.81,14-5.17-.58-22.8-6.52-17.34-18.18a13,13,0,0,1,2.83-3.84,199.67,199.67,0,0,1,11-17.27C50.08,133.85,52.54,133.85,58.89,142.29Z"/><path class="cls-12" d="M58.06,142.29c3.43,5.1,7.92,13.56,10.73,19,1.89,2.81,2,4.07,2,6.2,0,12.79-15.51,15-23.08,14C43,181,27.27,175.06,32.15,163.4a13,13,0,0,1,2.53-3.84c2.8-5.4,6.74-12.69,9.82-17.27C50.17,133.85,52.38,133.85,58.06,142.29Z"/><path class="cls-13" d="M57.22,142.29c3,5.1,7,13.56,9.46,19a9.84,9.84,0,0,1,1.73,6.2c0,12.79-13.68,15-20.36,14-4.08-.58-18-6.52-13.69-18.18a13.27,13.27,0,0,1,2.23-3.84c2.47-5.4,5.94-12.69,8.66-17.27C50.27,133.85,52.22,133.85,57.22,142.29Z"/><path class="cls-14" d="M56.39,142.29c2.62,5.1,6.05,13.56,8.2,19a11,11,0,0,1,1.5,6.2c0,12.79-11.85,15-17.64,14-3.54-.58-15.59-6.52-11.86-18.18a13.87,13.87,0,0,1,1.93-3.84c2.14-5.4,5.15-12.69,7.5-17.27C50.37,133.85,52.05,133.85,56.39,142.29Z"/><path class="cls-15" d="M55.56,142.29c2.22,5.1,5.12,13.56,6.93,19a12.66,12.66,0,0,1,1.27,6.2c0,12.79-10,15-14.92,14-3-.58-13.19-6.52-10-18.18a15,15,0,0,1,1.64-3.84c1.81-5.4,4.35-12.69,6.35-17.27C50.46,133.85,51.89,133.85,55.56,142.29Z"/><path class="cls-16" d="M54.72,142.29c1.81,5.1,4.19,13.56,5.67,19a15.12,15.12,0,0,1,1,6.2c0,12.79-8.2,15-12.2,14-2.45-.58-10.78-6.52-8.2-18.18a16.9,16.9,0,0,1,1.34-3.84c1.48-5.4,3.56-12.69,5.19-17.27C50.56,133.85,51.72,133.85,54.72,142.29Z"/><path class="cls-17" d="M53.89,142.29c1.41,5.1,3.25,13.56,4.41,19a19.09,19.09,0,0,1,.81,6.2c0,12.79-6.37,15-9.48,14-1.9-.58-8.38-6.52-6.37-18.18a20.3,20.3,0,0,1,1-3.84c1.15-5.4,2.77-12.69,4-17.27C50.65,133.85,51.56,133.85,53.89,142.29Z"/><path class="cls-18" d="M53.06,142.29c1,5.1,2.32,13.56,3.14,19a26.37,26.37,0,0,1,.57,6.2c0,12.79-4.54,15-6.76,14-1.36-.58-6-6.52-4.54-18.18a27,27,0,0,1,.74-3.84c.82-5.4,2-12.69,2.87-17.27C50.75,133.85,51.4,133.85,53.06,142.29Z"/><path class="cls-19" d="M102.14,34.21c0,14.12-22.87,25.57-51.07,25.57S0,48.33,0,34.21V25.93C0,11.81,22.87.36,51.07.36s51.07,11.45,51.07,25.57Z"/><ellipse class="cls-20" cx="51.07" cy="25.75" rx="51.07" ry="25.75"/><path class="cls-21" d="M19.52,171.67s3.1-25.85,9.82-37.47,14.47-16.28,14.47-16.28l-10.6,62.8s-4.13-1.55-7.75-3.36A16.85,16.85,0,0,1,19.52,171.67Z"/><path class="cls-22" d="M33.52,178.94c-6.21-2-12.4-5.19-13.69-9.55.19-1.33.47-3.18.83-5.36.12-.2.25-.42.39-.63a14.44,14.44,0,0,1,4-3.84c4.11-5,9.75-11.58,14.45-16.16Z"/><path class="cls-23" d="M31,76.45c.32,2.39,8.53,9.06,12.67,13.72s6.59,6.21,6.85,12c.58,13.07.22,20.7.22,33.89a.35.35,0,0,0,.7,0c0-13.41-.69-21.8,1.41-34.92.52-3.24,3.75-9.32,6.85-11.91S71,79.43,70.73,77s-10.6-7.25-11.38-7S30.78,76.45,31,76.45Z"/><path class="cls-24" d="M41.42,76.45c.15,2.39,4.07,9.06,6,13.72s3.15,6.21,3.27,12c.28,13.07-.07,20.7-.07,33.89,0,.19.08.35.17.35s.17-.16.17-.35c0-13.41-.15-21.8.85-34.92.25-3.24,1.79-9.32,3.27-11.91s5.37-9.84,5.24-12.3-5.06-7.25-5.43-7S41.29,76.45,41.42,76.45Z"/><ellipse class="cls-25" cx="51.05" cy="75.13" rx="20.16" ry="9.74"/><path class="cls-26" d="M51.05,65.39c10.82,0,19.64,4.12,20.13,9.29-3.18,3.12-6.57,5.83-9.6,8.76a37.54,37.54,0,0,1-10.53,1.43,38.64,38.64,0,0,1-8.86-1c-3.46-3.43-7.44-6.5-11.06-10.22C32.6,69,41,65.39,51.05,65.39Z"/><path class="cls-27" d="M102.14,34.21c0,14.12-22.87,25.57-51.07,25.57S0,48.33,0,34.21v-.88C0,47.45,22.87,58.9,51.07,58.9s51.07-11.45,51.07-25.57Z"/><path class="cls-28" d="M100.32,175.47c0,13.61-22.05,24.65-49.24,24.65s-49.25-11-49.25-24.65v-.87c0,13.62,22.05,24.66,49.25,24.66s49.24-11,49.24-24.66Z"/></g></g></svg>