<?xml version="1.0" encoding="utf-8"?>
<!-- Generator: Adobe Illustrator 20.1.0, SVG Export Plug-In . SVG Version: 6.00 Build 0)  -->
<svg version="1.1" id="Layer_1" xmlns="http://www.w3.org/2000/svg" xmlns:xlink="http://www.w3.org/1999/xlink" x="0px" y="0px"
	 viewBox="0 0 450 363.3" style="enable-background:new 0 0 450 363.3;" xml:space="preserve">
<style type="text/css">
	.st0{fill:#C4C4C4;}
	.st1{fill:url(#SVGID_1_);}
	.st2{fill:url(#SVGID_2_);}
	.st3{fill:url(#SVGID_3_);}
	.st4{fill:url(#SVGID_4_);}
	.st5{fill:url(#SVGID_5_);}
	.st6{fill:url(#SVGID_6_);}
	.st7{fill:url(#SVGID_7_);}
	.st8{fill:url(#SVGID_8_);}
	.st9{fill:url(#SVGID_9_);}
	.st10{fill:url(#SVGID_10_);}
	.st11{fill:url(#SVGID_11_);}
	.st12{fill:url(#SVGID_12_);}
	.st13{fill:url(#SVGID_13_);}
	.st14{fill:url(#SVGID_14_);}
	.st15{fill:url(#SVGID_15_);}
	.st16{fill:url(#SVGID_16_);}
	.st17{fill:url(#SVGID_17_);}
	.st18{fill:url(#SVGID_18_);}
	.st19{fill:url(#SVGID_19_);}
	.st20{fill:url(#SVGID_20_);}
	.st21{fill:url(#SVGID_21_);}
	.st22{fill:url(#SVGID_22_);}
	.st23{fill:url(#SVGID_23_);}
	.st24{fill:url(#SVGID_24_);}
	.st25{fill:url(#SVGID_25_);}
	.st26{fill:url(#SVGID_26_);}
	.st27{fill:url(#SVGID_27_);}
	.st28{fill:url(#SVGID_28_);}
	.st29{fill:url(#SVGID_29_);}
	.st30{fill:url(#SVGID_30_);}
	.st31{fill:url(#SVGID_31_);}
	.st32{fill:url(#SVGID_32_);}
	.st33{fill:url(#SVGID_33_);}
	.st34{fill:url(#SVGID_34_);}
	.st35{fill:url(#SVGID_35_);}
	.st36{fill:url(#SVGID_36_);}
	.st37{fill:url(#SVGID_37_);}
	.st38{fill:url(#SVGID_38_);}
	.st39{fill:url(#SVGID_39_);}
	.st40{fill:url(#SVGID_40_);}
	.st41{fill:url(#SVGID_41_);}
	.st42{fill:url(#SVGID_42_);}
	.st43{fill:url(#SVGID_43_);}
	.st44{fill:url(#SVGID_44_);}
	.st45{fill:url(#SVGID_45_);}
	.st46{fill:url(#SVGID_46_);}
	.st47{fill:url(#SVGID_47_);}
	.st48{fill:#E2E1E1;}
	.st49{fill:url(#SVGID_48_);}
	.st50{fill:url(#SVGID_49_);}
	.st51{fill:#09B0AB;}
	.st52{fill:url(#SVGID_50_);}
	.st53{fill:#282A35;}
	.st54{fill:#1E1F27;}
	.st55{fill:#333644;}
	.st56{fill:#2E313D;}
	.st57{fill:url(#Cylinder_body_1_);}
	.st58{fill:#097B7B;}
	.st59{fill:url(#Cylinder_body-2_1_);}
	.st60{fill:#DFE0D9;}
	.st61{fill:url(#SVGID_51_);}
	.st62{fill:url(#SVGID_52_);}
	.st63{fill:url(#SVGID_53_);}
	.st64{fill:url(#SVGID_54_);}
	.st65{fill:url(#SVGID_55_);}
	.st66{fill:url(#SVGID_56_);}
	.st67{fill:url(#SVGID_57_);}
	.st68{fill:#7D8080;}
	.st69{fill:url(#SVGID_58_);}
	.st70{fill:url(#SVGID_59_);}
	.st71{opacity:0.5;fill:#FFFFFF;enable-background:new    ;}
	.st72{fill:#E4E3E3;}
	.st73{fill:url(#SVGID_60_);}
	.st74{fill:url(#SVGID_61_);}
	.st75{fill:url(#SVGID_62_);}
	.st76{opacity:0.6;fill:#D2D1CE;enable-background:new    ;}
	.st77{clip-path:url(#SVGID_64_);}
	.st78{fill:#FFFEFB;}
	.st79{fill:#B6B5B3;}
	.st80{opacity:0.5;fill:#CCCECE;enable-background:new    ;}
	.st81{fill:#F0EFEC;}
</style>
<title>8 Апгрейд Обновление</title>
<g>
	<g id="_1">
		<path class="st0" d="M74.5,133.3c76.2-44,200-44,276.3,0s76.3,115.6,0,159.6S150.7,337,74.5,293S-1.9,177.4,74.5,133.3z"/>
		
			<linearGradient id="SVGID_1_" gradientUnits="userSpaceOnUse" x1="17.0587" y1="105.0362" x2="408.065" y2="105.0362" gradientTransform="matrix(1 0 0 -1 0 318.01)">
			<stop  offset="0" style="stop-color:#C6C6C6"/>
			<stop  offset="1" style="stop-color:#C4C4C4"/>
		</linearGradient>
		<path class="st1" d="M74.3,133.1c76.3-44.1,200.1-44.1,276.5,0s76.3,115.6,0,159.7s-200.2,44.1-276.5,0S-2.1,177.3,74.3,133.1z"/>
		
			<linearGradient id="SVGID_2_" gradientUnits="userSpaceOnUse" x1="16.8737" y1="105.1262" x2="408.1663" y2="105.1262" gradientTransform="matrix(1 0 0 -1 0 318.01)">
			<stop  offset="0" style="stop-color:#C9C9C9"/>
			<stop  offset="1" style="stop-color:#C5C5C5"/>
		</linearGradient>
		<path class="st2" d="M74.2,133c76.3-44.1,200.3-44.1,276.7,0s76.4,115.7,0,159.8s-200.3,44.1-276.7,0S-2.3,177.1,74.2,133z"/>
		
			<linearGradient id="SVGID_3_" gradientUnits="userSpaceOnUse" x1="16.6737" y1="105.2531" x2="408.2238" y2="105.2531" gradientTransform="matrix(1 0 0 -1 0 318.01)">
			<stop  offset="0" style="stop-color:#CBCBCB"/>
			<stop  offset="1" style="stop-color:#C5C5C5"/>
		</linearGradient>
		<path class="st3" d="M74,132.8c76.4-44.1,200.4-44.1,276.9,0s76.4,115.7,0,159.8s-200.5,44.1-276.9,0S-2.5,177,74,132.8z"/>
		
			<linearGradient id="SVGID_4_" gradientUnits="userSpaceOnUse" x1="16.505" y1="105.3812" x2="408.335" y2="105.3812" gradientTransform="matrix(1 0 0 -1 0 318.01)">
			<stop  offset="0" style="stop-color:#CECECE"/>
			<stop  offset="1" style="stop-color:#C6C6C6"/>
		</linearGradient>
		<path class="st4" d="M73.9,132.7c76.5-44.1,200.6-44.1,277.1,0s76.5,115.8,0,159.9s-200.6,44.1-277.1,0S-2.7,176.8,73.9,132.7z"/>
		
			<linearGradient id="SVGID_5_" gradientUnits="userSpaceOnUse" x1="16.3237" y1="105.5013" x2="408.4362" y2="105.5013" gradientTransform="matrix(1 0 0 -1 0 318.01)">
			<stop  offset="0" style="stop-color:#D0D0D0"/>
			<stop  offset="1" style="stop-color:#C6C6C6"/>
		</linearGradient>
		<path class="st5" d="M73.7,132.5c76.5-44.1,200.7-44.1,277.3,0s76.5,115.8,0,159.9s-200.8,44.2-277.3,0S-2.8,176.7,73.7,132.5z"/>
		
			<linearGradient id="SVGID_6_" gradientUnits="userSpaceOnUse" x1="16.1362" y1="105.6263" x2="408.5137" y2="105.6263" gradientTransform="matrix(1 0 0 -1 0 318.01)">
			<stop  offset="0" style="stop-color:#D3D3D3"/>
			<stop  offset="1" style="stop-color:#C7C7C7"/>
		</linearGradient>
		<path class="st6" d="M73.6,132.4c76.6-44.2,200.9-44.2,277.5,0s76.6,115.8,0,160s-200.9,44.2-277.5,0S-3,176.6,73.6,132.4z"/>
		
			<linearGradient id="SVGID_7_" gradientUnits="userSpaceOnUse" x1="15.9362" y1="105.7838" x2="408.615" y2="105.7838" gradientTransform="matrix(1 0 0 -1 0 318.01)">
			<stop  offset="0" style="stop-color:#D5D5D5"/>
			<stop  offset="1" style="stop-color:#C7C7C7"/>
		</linearGradient>
		<path class="st7" d="M73.4,132.2c76.6-44.2,201-44.2,277.7,0s76.6,115.9,0,160s-201,44.2-277.7,0S-3.2,176.4,73.4,132.2z"/>
		
			<linearGradient id="SVGID_8_" gradientUnits="userSpaceOnUse" x1="15.7563" y1="105.8519" x2="408.6962" y2="105.8519" gradientTransform="matrix(1 0 0 -1 0 318.01)">
			<stop  offset="0" style="stop-color:#D8D8D8"/>
			<stop  offset="1" style="stop-color:#C7C7C7"/>
		</linearGradient>
		<path class="st8" d="M73.3,132.1c76.7-44.2,201.1-44.2,277.9,0s76.7,115.9,0,160.1S150,336.4,73.3,292.1S-3.5,176.3,73.3,132.1z"
			/>
		
			<linearGradient id="SVGID_9_" gradientUnits="userSpaceOnUse" x1="15.5825" y1="106.02" x2="408.7838" y2="106.02" gradientTransform="matrix(1 0 0 -1 0 318.01)">
			<stop  offset="0" style="stop-color:#DADADA"/>
			<stop  offset="1" style="stop-color:#C8C8C8"/>
		</linearGradient>
		<path class="st9" d="M73.2,131.9c76.7-44.2,201.3-44.2,278,0s76.8,116,0,160.2s-201.3,44.2-278,0S-3.7,176.1,73.2,131.9z"/>
		
			<linearGradient id="SVGID_10_" gradientUnits="userSpaceOnUse" x1="15.385" y1="106.1394" x2="408.8687" y2="106.1394" gradientTransform="matrix(1 0 0 -1 0 318.01)">
			<stop  offset="0" style="stop-color:#DDDDDD"/>
			<stop  offset="1" style="stop-color:#C8C8C8"/>
		</linearGradient>
		<path class="st10" d="M73,131.8c76.8-44.2,201.4-44.2,278.2,0s76.8,116,0,160.2S149.8,336.2,73,292S-3.8,176,73,131.8z"/>
		
			<linearGradient id="SVGID_11_" gradientUnits="userSpaceOnUse" x1="15.2325" y1="106.2712" x2="408.9662" y2="106.2712" gradientTransform="matrix(1 0 0 -1 0 318.01)">
			<stop  offset="0" style="stop-color:#DFDFDF"/>
			<stop  offset="1" style="stop-color:#C9C9C9"/>
		</linearGradient>
		<path class="st11" d="M72.9,131.6c76.8-44.2,201.6-44.2,278.4,0s76.9,116.1,0,160.3s-201.6,44.2-278.4,0S-4,175.9,72.9,131.6z"/>
		
			<linearGradient id="SVGID_12_" gradientUnits="userSpaceOnUse" x1="15.03" y1="106.3913" x2="409.0438" y2="106.3913" gradientTransform="matrix(1 0 0 -1 0 318.01)">
			<stop  offset="0" style="stop-color:#E2E2E2"/>
			<stop  offset="1" style="stop-color:#C9C9C9"/>
		</linearGradient>
		<path class="st12" d="M72.7,131.4c76.9-44.2,201.7-44.2,278.6,0s76.9,116.1,0,160.3s-201.8,44.3-278.6,0S-4.2,175.7,72.7,131.4z"
			/>
		
			<linearGradient id="SVGID_13_" gradientUnits="userSpaceOnUse" x1="14.845" y1="106.53" x2="409.1562" y2="106.53" gradientTransform="matrix(1 0 0 -1 0 318.01)">
			<stop  offset="0" style="stop-color:#E4E4E4"/>
			<stop  offset="1" style="stop-color:#CACACA"/>
		</linearGradient>
		<path class="st13" d="M72.6,131.3c76.9-44.3,201.8-44.3,278.8,0s77,116.1,0,160.4s-201.9,44.3-278.8,0S-4.4,175.6,72.6,131.3z"/>
		
			<linearGradient id="SVGID_14_" gradientUnits="userSpaceOnUse" x1="14.6537" y1="106.6663" x2="409.18" y2="106.6663" gradientTransform="matrix(1 0 0 -1 0 318.01)">
			<stop  offset="0" style="stop-color:#E7E7E7"/>
			<stop  offset="1" style="stop-color:#CACACA"/>
		</linearGradient>
		<path class="st14" d="M72.4,131.1c77-44.3,202-44.3,279,0s77,116.2,0,160.4s-202,44.3-279,0S-4.6,175.4,72.4,131.1z"/>
		
			<linearGradient id="SVGID_15_" gradientUnits="userSpaceOnUse" x1="14.4763" y1="106.7763" x2="409.3138" y2="106.7763" gradientTransform="matrix(1 0 0 -1 0 318.01)">
			<stop  offset="0" style="stop-color:#E9E9E9"/>
			<stop  offset="1" style="stop-color:#CACACA"/>
		</linearGradient>
		<path class="st15" d="M72.3,131c77-44.3,202.1-44.3,279.2,0s77.1,116.2,0,160.5s-202.2,44.3-279.2,0S-4.8,175.3,72.3,131z"/>
		
			<linearGradient id="SVGID_16_" gradientUnits="userSpaceOnUse" x1="14.3" y1="106.9112" x2="409.405" y2="106.9112" gradientTransform="matrix(1 0 0 -1 0 318.01)">
			<stop  offset="0" style="stop-color:#ECECEC"/>
			<stop  offset="1" style="stop-color:#CBCBCB"/>
		</linearGradient>
		<path class="st16" d="M72.1,130.8c77.1-44.3,202.3-44.3,279.4,0s77.1,116.3,0,160.6s-202.3,44.3-279.4,0S-5,175.1,72.1,130.8z"/>
		
			<linearGradient id="SVGID_17_" gradientUnits="userSpaceOnUse" x1="14.1075" y1="107.0312" x2="409.4925" y2="107.0312" gradientTransform="matrix(1 0 0 -1 0 318.01)">
			<stop  offset="0" style="stop-color:#EEEEEE"/>
			<stop  offset="1" style="stop-color:#CBCBCB"/>
		</linearGradient>
		<path class="st17" d="M72,130.7c77.2-44.3,202.4-44.3,279.6,0s77.2,116.3,0,160.6s-202.4,44.4-279.6,0S-5.2,175,72,130.7z"/>
		
			<linearGradient id="SVGID_18_" gradientUnits="userSpaceOnUse" x1="13.9225" y1="107.1613" x2="409.5975" y2="107.1613" gradientTransform="matrix(1 0 0 -1 0 318.01)">
			<stop  offset="0" style="stop-color:#F1F1F1"/>
			<stop  offset="1" style="stop-color:#CCCCCC"/>
		</linearGradient>
		<path class="st18" d="M71.9,130.5c77.2-44.3,202.5-44.3,279.8,0s77.2,116.3,0,160.7s-202.6,44.4-279.8,0S-5.4,174.9,71.9,130.5z"
			/>
		
			<linearGradient id="SVGID_19_" gradientUnits="userSpaceOnUse" x1="13.7263" y1="107.2587" x2="409.6875" y2="107.2587" gradientTransform="matrix(1 0 0 -1 0 318.01)">
			<stop  offset="0" style="stop-color:#F3F3F3"/>
			<stop  offset="1" style="stop-color:#CCCCCC"/>
		</linearGradient>
		<path class="st19" d="M71.7,130.4c77.3-44.3,202.7-44.3,280,0s77.3,116.4,0,160.8s-202.7,44.4-280,0S-5.6,174.7,71.7,130.4z"/>
		
			<linearGradient id="SVGID_20_" gradientUnits="userSpaceOnUse" x1="13.5538" y1="107.42" x2="409.7625" y2="107.42" gradientTransform="matrix(1 0 0 -1 0 318.01)">
			<stop  offset="0" style="stop-color:#F6F6F6"/>
			<stop  offset="1" style="stop-color:#CDCDCD"/>
		</linearGradient>
		<path class="st20" d="M71.6,130.2c77.3-44.4,202.8-44.4,280.2,0s77.3,116.4,0,160.8s-202.9,44.4-280.2,0S-5.8,174.6,71.6,130.2z"
			/>
		
			<linearGradient id="SVGID_21_" gradientUnits="userSpaceOnUse" x1="13.37" y1="107.5363" x2="409.8425" y2="107.5363" gradientTransform="matrix(1 0 0 -1 0 318.01)">
			<stop  offset="0" style="stop-color:#F8F8F8"/>
			<stop  offset="1" style="stop-color:#CDCDCD"/>
		</linearGradient>
		<path class="st21" d="M71.4,130c77.4-44.4,203-44.4,280.4,0s77.4,116.5,0,160.8s-203,44.4-280.4,0S-6,174.5,71.4,130z"/>
		
			<linearGradient id="SVGID_22_" gradientUnits="userSpaceOnUse" x1="16.4296" y1="101.6437" x2="409.3596" y2="113.6737" gradientTransform="matrix(1 0 0 -1 0 318.01)">
			<stop  offset="0" style="stop-color:#F8F8F8"/>
			<stop  offset="1" style="stop-color:#CFCFCF"/>
		</linearGradient>
		<path class="st22" d="M71.6,130c77.3-44.4,202.8-44.4,280.2,0s77.3,116.4,0,160.8s-202.9,44.4-280.2,0S-5.8,174.4,71.6,130z"/>
		
			<linearGradient id="SVGID_23_" gradientUnits="userSpaceOnUse" x1="19.8097" y1="95.9251" x2="408.5697" y2="119.7451" gradientTransform="matrix(1 0 0 -1 0 318.01)">
			<stop  offset="0" style="stop-color:#F9F9F9"/>
			<stop  offset="1" style="stop-color:#D1D1D1"/>
		</linearGradient>
		<path class="st23" d="M71.7,130c77.3-44.3,202.7-44.3,280,0s77.3,116.4,0,160.7s-202.7,44.4-280,0S-5.6,174.3,71.7,130z"/>
		
			<linearGradient id="SVGID_24_" gradientUnits="userSpaceOnUse" x1="23.4694" y1="90.436" x2="407.4795" y2="125.776" gradientTransform="matrix(1 0 0 -1 0 318.01)">
			<stop  offset="0" style="stop-color:#F9F9F9"/>
			<stop  offset="1" style="stop-color:#D3D3D3"/>
		</linearGradient>
		<path class="st24" d="M71.9,129.9c77.2-44.3,202.5-44.3,279.8,0s77.2,116.3,0,160.7s-202.6,44.4-279.8,0S-5.4,174.3,71.9,129.9z"
			/>
		
			<linearGradient id="SVGID_25_" gradientUnits="userSpaceOnUse" x1="27.3786" y1="85.1616" x2="406.0886" y2="131.7416" gradientTransform="matrix(1 0 0 -1 0 318.01)">
			<stop  offset="0" style="stop-color:#F9F9F9"/>
			<stop  offset="1" style="stop-color:#D5D5D5"/>
		</linearGradient>
		<path class="st25" d="M72,129.9c77.2-44.3,202.4-44.3,279.6,0s77.2,116.3,0,160.6s-202.4,44.4-279.6,0S-5.2,174.2,72,129.9z"/>
		
			<linearGradient id="SVGID_26_" gradientUnits="userSpaceOnUse" x1="31.5484" y1="80.1206" x2="404.3984" y2="137.6006" gradientTransform="matrix(1 0 0 -1 0 318.01)">
			<stop  offset="0" style="stop-color:#FAFAFA"/>
			<stop  offset="1" style="stop-color:#D7D7D7"/>
		</linearGradient>
		<path class="st26" d="M72.1,129.8c77.1-44.3,202.3-44.3,279.4,0s77.1,116.3,0,160.6s-202.3,44.3-279.4,0S-5,174.1,72.1,129.8z"/>
		
			<linearGradient id="SVGID_27_" gradientUnits="userSpaceOnUse" x1="35.928" y1="75.3208" x2="402.428" y2="143.3708" gradientTransform="matrix(1 0 0 -1 0 318.01)">
			<stop  offset="0" style="stop-color:#FAFAFA"/>
			<stop  offset="1" style="stop-color:#D9D9D9"/>
		</linearGradient>
		<path class="st27" d="M72.3,129.8c77-44.3,202.1-44.3,279.2,0s77.1,116.2,0,160.5s-202.2,44.3-279.2,0S-4.8,174.1,72.3,129.8z"/>
		
			<linearGradient id="SVGID_28_" gradientUnits="userSpaceOnUse" x1="40.5285" y1="70.7771" x2="400.1784" y2="149.0071" gradientTransform="matrix(1 0 0 -1 0 318.01)">
			<stop  offset="0" style="stop-color:#FAFAFA"/>
			<stop  offset="1" style="stop-color:#DBDBDB"/>
		</linearGradient>
		<path class="st28" d="M72.4,129.7c77-44.3,202-44.3,279,0s77,116.2,0,160.4s-202,44.3-279,0S-4.6,174,72.4,129.7z"/>
		
			<linearGradient id="SVGID_29_" gradientUnits="userSpaceOnUse" x1="45.306" y1="66.5159" x2="397.6561" y2="154.5159" gradientTransform="matrix(1 0 0 -1 0 318.01)">
			<stop  offset="0" style="stop-color:#FBFBFB"/>
			<stop  offset="1" style="stop-color:#DDDDDD"/>
		</linearGradient>
		<path class="st29" d="M72.6,129.7c76.9-44.3,201.8-44.3,278.8,0s77,116.1,0,160.4s-201.9,44.3-278.8,0S-4.4,174,72.6,129.7z"/>
		
			<linearGradient id="SVGID_30_" gradientUnits="userSpaceOnUse" x1="50.2689" y1="62.5039" x2="394.8689" y2="159.8639" gradientTransform="matrix(1 0 0 -1 0 318.01)">
			<stop  offset="0" style="stop-color:#FBFBFB"/>
			<stop  offset="1" style="stop-color:#DFDFDF"/>
		</linearGradient>
		<path class="st30" d="M72.7,129.6c76.9-44.2,201.7-44.2,278.6,0s76.9,116.1,0,160.3s-201.8,44.3-278.6,0S-4.2,173.9,72.7,129.6z"
			/>
		
			<linearGradient id="SVGID_31_" gradientUnits="userSpaceOnUse" x1="55.3781" y1="58.786" x2="391.8381" y2="165.066" gradientTransform="matrix(1 0 0 -1 0 318.01)">
			<stop  offset="0" style="stop-color:#FBFBFB"/>
			<stop  offset="1" style="stop-color:#E1E1E1"/>
		</linearGradient>
		<path class="st31" d="M72.9,129.6c76.8-44.2,201.6-44.2,278.4,0s76.9,116.1,0,160.3s-201.6,44.3-278.4,0S-4,173.8,72.9,129.6z"/>
		
			<linearGradient id="SVGID_32_" gradientUnits="userSpaceOnUse" x1="60.6077" y1="55.3465" x2="388.5677" y2="170.0865" gradientTransform="matrix(1 0 0 -1 0 318.01)">
			<stop  offset="0" style="stop-color:#FCFCFC"/>
			<stop  offset="1" style="stop-color:#E3E3E3"/>
		</linearGradient>
		<path class="st32" d="M73,129.5c76.8-44.2,201.4-44.2,278.2,0s76.8,116,0,160.2S149.8,334,73,289.8S-3.8,173.8,73,129.5z"/>
		
			<linearGradient id="SVGID_33_" gradientUnits="userSpaceOnUse" x1="65.9577" y1="52.1959" x2="385.0677" y2="174.9259" gradientTransform="matrix(1 0 0 -1 0 318.01)">
			<stop  offset="0" style="stop-color:#FCFCFC"/>
			<stop  offset="1" style="stop-color:#E5E5E5"/>
		</linearGradient>
		<path class="st33" d="M73.2,129.5c76.7-44.2,201.3-44.2,278,0s76.8,116,0,160.2s-201.3,44.2-278,0S-3.7,173.7,73.2,129.5z"/>
		
			<linearGradient id="SVGID_34_" gradientUnits="userSpaceOnUse" x1="71.399" y1="49.3323" x2="381.359" y2="179.5623" gradientTransform="matrix(1 0 0 -1 0 318.01)">
			<stop  offset="0" style="stop-color:#FCFCFC"/>
			<stop  offset="1" style="stop-color:#E7E7E7"/>
		</linearGradient>
		<path class="st34" d="M73.3,129.5c76.7-44.2,201.1-44.2,277.9,0s76.7,115.9,0,160.1s-201.2,44.2-277.9,0S-3.5,173.7,73.3,129.5z"
			/>
		
			<linearGradient id="SVGID_35_" gradientUnits="userSpaceOnUse" x1="76.9099" y1="46.7922" x2="377.4299" y2="184.0122" gradientTransform="matrix(1 0 0 -1 0 318.01)">
			<stop  offset="0" style="stop-color:#FDFDFD"/>
			<stop  offset="1" style="stop-color:#E9E9E9"/>
		</linearGradient>
		<path class="st35" d="M73.4,129.4c76.6-44.2,201-44.2,277.7,0s76.6,115.9,0,160s-201,44.2-277.7,0S-3.2,173.6,73.4,129.4z"/>
		
			<linearGradient id="SVGID_36_" gradientUnits="userSpaceOnUse" x1="82.4834" y1="44.4832" x2="373.3434" y2="188.2032" gradientTransform="matrix(1 0 0 -1 0 318.01)">
			<stop  offset="0" style="stop-color:#FDFDFD"/>
			<stop  offset="1" style="stop-color:#EBEBEB"/>
		</linearGradient>
		<path class="st36" d="M73.6,129.4c76.6-44.1,200.9-44.1,277.5,0s76.6,115.9,0,160s-200.9,44.2-277.5,0S-3,173.5,73.6,129.4z"/>
		
			<linearGradient id="SVGID_37_" gradientUnits="userSpaceOnUse" x1="88.0772" y1="42.5052" x2="369.0572" y2="192.2052" gradientTransform="matrix(1 0 0 -1 0 318.01)">
			<stop  offset="0" style="stop-color:#FDFDFD"/>
			<stop  offset="1" style="stop-color:#EDEDED"/>
		</linearGradient>
		<path class="st37" d="M73.7,129.3c76.5-44.1,200.7-44.1,277.3,0s76.5,115.8,0,159.9s-200.8,44.2-277.3,0S-2.8,173.5,73.7,129.3z"
			/>
		
			<linearGradient id="SVGID_38_" gradientUnits="userSpaceOnUse" x1="93.6993" y1="40.8013" x2="364.6193" y2="195.9713" gradientTransform="matrix(1 0 0 -1 0 318.01)">
			<stop  offset="0" style="stop-color:#FEFEFE"/>
			<stop  offset="1" style="stop-color:#EFEFEF"/>
		</linearGradient>
		<path class="st38" d="M73.9,129.3c76.5-44.2,200.6-44.2,277.1,0s76.5,115.8,0,159.8s-200.6,44.1-277.1,0S-2.7,173.4,73.9,129.3z"
			/>
		
			<linearGradient id="SVGID_39_" gradientUnits="userSpaceOnUse" x1="99.3031" y1="39.3912" x2="360.0331" y2="199.5112" gradientTransform="matrix(1 0 0 -1 0 318.01)">
			<stop  offset="0" style="stop-color:#FEFEFE"/>
			<stop  offset="1" style="stop-color:#F1F1F1"/>
		</linearGradient>
		<path class="st39" d="M74,129.2c76.4-44.1,200.4-44.1,276.9,0s76.4,115.7,0,159.8S150.4,333.2,74,289S-2.5,173.4,74,129.2z"/>
		
			<linearGradient id="SVGID_40_" gradientUnits="userSpaceOnUse" x1="104.9026" y1="38.226" x2="355.3427" y2="202.786" gradientTransform="matrix(1 0 0 -1 0 318.01)">
			<stop  offset="0" style="stop-color:#FEFEFE"/>
			<stop  offset="1" style="stop-color:#F3F3F3"/>
		</linearGradient>
		<path class="st40" d="M74.2,129.2c76.3-44.1,200.3-44.1,276.7,0s76.4,115.7,0,159.8s-200.3,44.1-276.7,0S-2.3,173.3,74.2,129.2z"
			/>
		
			<linearGradient id="SVGID_41_" gradientUnits="userSpaceOnUse" x1="110.4399" y1="37.3743" x2="350.5099" y2="205.8443" gradientTransform="matrix(1 0 0 -1 0 318.01)">
			<stop  offset="0" style="stop-color:#FFFFFF"/>
			<stop  offset="1" style="stop-color:#F5F5F5"/>
		</linearGradient>
		<path class="st41" d="M74.3,129.1c76.3-44.1,200.1-44.1,276.5,0s76.3,115.6,0,159.7s-200.2,44.1-276.5,0S-2.1,173.2,74.3,129.1z"
			/>
		
			<linearGradient id="SVGID_42_" gradientUnits="userSpaceOnUse" x1="115.9506" y1="36.7259" x2="345.6205" y2="208.6159" gradientTransform="matrix(1 0 0 -1 0 318.01)">
			<stop  offset="0" style="stop-color:#FFFFFF"/>
			<stop  offset="1" style="stop-color:#F7F7F7"/>
		</linearGradient>
		<path class="st42" d="M74.5,129.1c76.2-44,200-44,276.3,0s76.3,115.6,0,159.6s-200.1,44.1-276.3,0S-1.9,173.2,74.5,129.1z"/>
		<g>
			
				<linearGradient id="SVGID_43_" gradientUnits="userSpaceOnUse" x1="-9462.6377" y1="311.9626" x2="-9471.0869" y2="297.3126" gradientTransform="matrix(1 0 0 -1 9592.9805 318.01)">
				<stop  offset="0" style="stop-color:#FFFFFF"/>
				<stop  offset="2.000000e-02" style="stop-color:#FEFEFE"/>
				<stop  offset="0.31" style="stop-color:#F7F7F7"/>
				<stop  offset="1" style="stop-color:#F5F5F5"/>
			</linearGradient>
			<path class="st43" d="M127,4.1c-3.4-2-8.1-1.7-13.2,1.2c-2.8,1.7-5.4,3.8-7.6,6.3l19,11.1c2.2-2.5,4.7-4.6,7.6-6.3
				c5.2-3,9.8-3.2,13.2-1.3L127,4.1z"/>
			
				<linearGradient id="SVGID_44_" gradientUnits="userSpaceOnUse" x1="-9483.4082" y1="305.9371" x2="-9486.8184" y2="300.007" gradientTransform="matrix(1 0 0 -1 9592.9805 318.01)">
				<stop  offset="0" style="stop-color:#FFFFFF"/>
				<stop  offset="2.000000e-02" style="stop-color:#FEFEFE"/>
				<stop  offset="0.31" style="stop-color:#F7F7F7"/>
				<stop  offset="1" style="stop-color:#F5F5F5"/>
			</linearGradient>
			<path class="st44" d="M103.6,8.6c-2.3-1.3-5.4-1.2-8.8,0.8c-0.5,0.3-1,0.7-1.6,1l19,11.1c0.5-0.4,1-0.7,1.6-1
				c3.4-2,6.5-2.1,8.8-0.8L103.6,8.6z"/>
			
				<linearGradient id="SVGID_45_" gradientUnits="userSpaceOnUse" x1="-9500.6035" y1="314.5815" x2="-9518.457" y2="283.674" gradientTransform="matrix(1 0 0 -1 9592.9805 318.01)">
				<stop  offset="0" style="stop-color:#FFFFFF"/>
				<stop  offset="2.000000e-02" style="stop-color:#FEFEFE"/>
				<stop  offset="0.31" style="stop-color:#F7F7F7"/>
				<stop  offset="1" style="stop-color:#F5F5F5"/>
			</linearGradient>
			<path class="st45" d="M88.4,1.1c-2.9-1.7-6.8-1.5-11.1,1C69.4,6.6,63,17.2,61.8,26.9l19,11.1c1.2-9.7,7.7-20.2,15.6-24.8
				c4.3-2.5,8.2-2.7,11.1-1L88.4,1.1z"/>
			
				<linearGradient id="SVGID_46_" gradientUnits="userSpaceOnUse" x1="-9525.291" y1="287.7072" x2="-9544.1309" y2="255.0872" gradientTransform="matrix(1 0 0 -1 9592.9805 318.01)">
				<stop  offset="0" style="stop-color:#FFFFFF"/>
				<stop  offset="2.000000e-02" style="stop-color:#FEFEFE"/>
				<stop  offset="0.31" style="stop-color:#F7F7F7"/>
				<stop  offset="1" style="stop-color:#F5F5F5"/>
			</linearGradient>
			<path class="st46" d="M61.8,26.9c-2.3,0.3-4.5,1-6.4,2.2c-8.8,5.1-16,17.3-16.5,28l19,11.1c0.6-10.6,7.7-22.9,16.5-28
				c2-1.2,4.2-1.9,6.4-2.2L61.8,26.9z"/>
			
				<linearGradient id="SVGID_47_" gradientUnits="userSpaceOnUse" x1="-9545.4189" y1="255.902" x2="-9567.2588" y2="218.072" gradientTransform="matrix(1 0 0 -1 9592.9805 318.01)">
				<stop  offset="0" style="stop-color:#FFFFFF"/>
				<stop  offset="2.000000e-02" style="stop-color:#FEFEFE"/>
				<stop  offset="0.31" style="stop-color:#F7F7F7"/>
				<stop  offset="1" style="stop-color:#F5F5F5"/>
			</linearGradient>
			<path class="st47" d="M38.8,57c-2.1,0.3-4,1-5.8,2.1c-8.8,5-15.8,17.6-15.7,28c0,5.3,1.9,9,4.9,10.7l19,11.1
				c-3-1.7-4.8-5.4-4.8-10.7c0-10.4,7-22.9,15.7-28c1.8-1.1,3.8-1.7,5.8-2L38.8,57z"/>
			<path class="st48" d="M132.9,16.4c-2.8,1.7-5.4,3.8-7.6,6.3c-2-4-6.4-5.1-11.5-2.2c-0.5,0.3-1,0.7-1.6,1
				c-0.7-9.4-7.5-13.2-15.9-8.3C88.5,17.7,82,28.3,80.8,37.9c-2.3,0.2-4.5,1-6.4,2.2c-8.8,5.1-16,17.3-16.5,28c-2.1,0.3-4,0.9-5.8,2
				c-8.8,5-15.8,17.6-15.7,28s7.2,14.7,15.9,9.7l80.9-46.6c10.4-6,18.8-20.9,18.7-33.3S143.3,10.4,132.9,16.4z"/>
		</g>
		<g>
			
				<linearGradient id="SVGID_48_" gradientUnits="userSpaceOnUse" x1="9999.3203" y1="260.16" x2="10001.29" y2="260.16" gradientTransform="matrix(-1 0 0 -1 10094.5898 318.01)">
				<stop  offset="0" style="stop-color:#007B85"/>
				<stop  offset="0.65" style="stop-color:#00717B"/>
				<stop  offset="1" style="stop-color:#006974"/>
			</linearGradient>
			<polygon class="st49" points="95.2,52.7 93.3,51.6 93.3,63 95.3,64.1 			"/>
			
				<linearGradient id="SVGID_49_" gradientUnits="userSpaceOnUse" x1="9995.3096" y1="271.915" x2="10006.3301" y2="271.915" gradientTransform="matrix(-1 0 0 -1 10094.5898 318.01)">
				<stop  offset="0" style="stop-color:#007B85"/>
				<stop  offset="0.65" style="stop-color:#00717B"/>
				<stop  offset="1" style="stop-color:#006974"/>
			</linearGradient>
			<polygon class="st50" points="99.3,37.7 97.3,36.6 88.3,54.5 90.2,55.6 			"/>
			<polygon class="st51" points="108.4,45.1 99.3,37.7 90.2,55.6 95.2,52.7 95.3,64.1 99.3,61.7 103.4,59.4 103.4,48 			"/>
			
				<linearGradient id="SVGID_50_" gradientUnits="userSpaceOnUse" x1="89.1271" y1="286.0408" x2="104.8771" y2="251.6708" gradientTransform="matrix(1 0 0 -1 0 318.01)">
				<stop  offset="0" style="stop-color:#04A6B7"/>
				<stop  offset="0.23" style="stop-color:#02A1AD"/>
				<stop  offset="0.44" style="stop-color:#00999E"/>
				<stop  offset="0.62" style="stop-color:#008F95"/>
				<stop  offset="0.91" style="stop-color:#00737D"/>
				<stop  offset="1" style="stop-color:#006974"/>
			</linearGradient>
			<path class="st52" d="M117,39.1c0,12.2-5,26-19.6,33.4c-10.9,5.5-19.2,1.2-19.2-11s8.5-27,19.1-33.1S117,26.9,117,39.1z
				 M97.4,70.3c9.5-5.5,17.2-18.9,17.2-29.8s-7.1-14.8-16.6-9.3s-17,18-17,29S87.8,75.8,97.4,70.3"/>
			<path class="st51" d="M118.5,40.4c0,12.2-8.5,27-19.1,33.1s-19.2,1.2-19.2-11s8.5-27,19.1-33.1S118.5,28.2,118.5,40.4z
				 M99.4,71.3c9.5-5.5,17.2-18.9,17.2-29.8s-7.8-15.3-17.3-9.9S82,50.5,82,61.4S89.8,76.8,99.4,71.3"/>
		</g>
		<polygon class="st53" points="79.9,87.6 66.6,95.3 66.6,86.6 79.9,78.9 		"/>
		<g>
			<path class="st54" d="M75.7,93.8v-2.1L70,88.4v2.1c0,0.1,0,0.2,0.1,0.3l5.7,3.3C75.7,94,75.6,93.9,75.7,93.8z"/>
			<path class="st55" d="M76.5,84.3c-0.1-0.1-0.2-0.1-0.3,0l-5.7,3.3l5.7,3.3l5.7-3.3c0.1-0.1,0.2-0.1,0.3,0L76.5,84.3z"/>
			<path class="st56" d="M70.4,87.6c-0.3,0.2-0.5,0.5-0.5,0.8l5.7,3.3c0-0.3,0.2-0.6,0.5-0.8L70.4,87.6z"/>
			<path class="st53" d="M82.3,87.9c0-0.3-0.2-0.4-0.5-0.3l-5.7,3.3c-0.3,0.2-0.5,0.5-0.5,0.8v2.1c0,0.3,0.2,0.4,0.5,0.3l5.7-3.3
				c0.3-0.2,0.5-0.5,0.5-0.8L82.3,87.9z"/>
		</g>
		<g id="Axonometric_Cylinder">
			<path id="Cylinder_face" class="st53" d="M80.6,90.4c0.7-0.4,1.2-0.1,1.2,0.7c0,0.9-0.5,1.6-1.2,2.1c-0.7,0.4-1.2,0.1-1.2-0.7
				C79.4,91.6,79.8,90.8,80.6,90.4z"/>
			
				<linearGradient id="Cylinder_body_1_" gradientUnits="userSpaceOnUse" x1="4891.9399" y1="8897.5938" x2="4893.6699" y2="8894.5938" gradientTransform="matrix(-0.5 -0.87 -0.87 0.5 10266.1445 -101.555)">
				<stop  offset="0" style="stop-color:#1E1F27"/>
				<stop  offset="0.36" style="stop-color:#21232B"/>
				<stop  offset="0.77" style="stop-color:#2B2D39"/>
				<stop  offset="1" style="stop-color:#333644"/>
			</linearGradient>
			<path id="Cylinder_body" class="st57" d="M79.7,93.3l-1.5-0.9c-0.3-0.2-0.4-0.5-0.4-0.8c0-0.9,0.5-1.6,1.2-2.1
				c0.2-0.2,0.6-0.2,0.9-0.1l1.5,0.9c-0.3-0.1-0.6-0.1-0.9,0.1c-0.7,0.5-1.2,1.3-1.2,2.1C79.3,92.8,79.4,93.1,79.7,93.3z"/>
		</g>
		<path class="st58" d="M119.7,168.8l-28.2-16.3c-1.6-0.9-2.6-2.6-2.6-4.5V99c0-2.1-1.1-3.9-2.9-4.9l-4.8-2.8
			c-0.6-0.3-1.3,1-0.8,1.3l4.8,2.8c1.3,0.7,2.1,2.1,2.1,3.6v49c0,2.4,1.3,4.6,3.4,5.8l28.3,16.3c0.4,0.2,0.8,0.1,1.1-0.3
			C120.3,169.5,120.1,169.1,119.7,168.8L119.7,168.8z"/>
		<polygon class="st53" points="63.5,97.1 50.2,104.8 50.2,96 63.5,88.3 		"/>
		<g>
			<path class="st54" d="M59.2,103.3v-2.1l-5.7-3.3v2.1c0,0.1,0,0.2,0.1,0.3l5.7,3.3C59.3,103.5,59.2,103.4,59.2,103.3z"/>
			<path class="st55" d="M60.1,93.7c-0.1-0.1-0.2-0.1-0.3,0L54,97.1l5.7,3.3l5.7-3.3c0.1-0.1,0.2-0.1,0.3,0L60.1,93.7z"/>
			<path class="st56" d="M54,97.1c-0.3,0.2-0.5,0.5-0.5,0.8l5.7,3.3c0-0.3,0.2-0.6,0.5-0.8L54,97.1z"/>
			<path class="st53" d="M65.9,97.4c0-0.3-0.2-0.4-0.5-0.3l-5.7,3.3c-0.3,0.2-0.5,0.5-0.5,0.8v2.1c0,0.3,0.2,0.4,0.5,0.3l5.7-3.3
				c0.3-0.2,0.5-0.5,0.5-0.8L65.9,97.4z"/>
		</g>
		<g id="Axonometric_Cylinder-2">
			<path id="Cylinder_face-2" class="st53" d="M64.2,99.8c0.7-0.4,1.2-0.1,1.2,0.7c0,0.9-0.5,1.6-1.2,2.1c-0.7,0.4-1.2,0.1-1.2-0.7
				C63,101.1,63.4,100.3,64.2,99.8z"/>
			
				<linearGradient id="Cylinder_body-2_1_" gradientUnits="userSpaceOnUse" x1="4891.9233" y1="8916.4629" x2="4893.6519" y2="8913.4766" gradientTransform="matrix(-0.5 -0.87 -0.87 0.5 10266.1445 -101.555)">
				<stop  offset="0" style="stop-color:#1E1F27"/>
				<stop  offset="0.36" style="stop-color:#21232B"/>
				<stop  offset="0.77" style="stop-color:#2B2D39"/>
				<stop  offset="1" style="stop-color:#333644"/>
			</linearGradient>
			<path id="Cylinder_body-2" class="st59" d="M63.3,102.7l-1.5-0.9c-0.3-0.2-0.4-0.5-0.4-0.8c0-0.9,0.5-1.6,1.2-2.1
				c0.2-0.2,0.6-0.2,0.9-0.1l1.5,0.9c-0.3-0.1-0.6-0.1-0.9,0.1c-0.7,0.5-1.2,1.3-1.2,2.1C62.9,102.3,63,102.6,63.3,102.7z"/>
		</g>
		<path class="st58" d="M103.3,178.3L75.1,162c-1.6-0.9-2.6-2.6-2.6-4.5v-49.1c0-2-1.1-3.9-2.9-4.9l-4.8-2.8c-0.6-0.3-1.3,1-0.8,1.3
			l4.8,2.8c1.3,0.7,2.1,2.1,2.1,3.6v49c0,2.4,1.3,4.6,3.4,5.8l28.2,16.3c0.4,0.2,0.8,0.1,1.1-0.3C103.8,179,103.7,178.5,103.3,178.3
			L103.3,178.3z"/>
		<path class="st60" d="M353.7,224.8l-50.3,0.7l-72.7,42.8h-14.4L91.7,196.1l90.8-54.2l78.3,16.9l93.8,62.8c0.8,0.5,1,1.6,0.5,2.4
			C354.8,224.5,354.2,224.8,353.7,224.8z"/>
		<g id="_14">
			
				<linearGradient id="SVGID_51_" gradientUnits="userSpaceOnUse" x1="10426.2402" y1="193.655" x2="10561.1299" y2="193.655" gradientTransform="matrix(-1 0 0 -1 10726.4199 318.01)">
				<stop  offset="0" style="stop-color:#F5F5F5"/>
				<stop  offset="0.69" style="stop-color:#F7F7F7"/>
				<stop  offset="0.98" style="stop-color:#FEFEFE"/>
				<stop  offset="1" style="stop-color:#FFFFFF"/>
			</linearGradient>
			<polygon class="st61" points="300.2,111.9 165.3,33.4 165.3,136.9 300.2,215.3 			"/>
			
				<linearGradient id="SVGID_52_" gradientUnits="userSpaceOnUse" x1="10428.04" y1="194.37" x2="10559.1699" y2="194.37" gradientTransform="matrix(-1 0 0 -1 10726.4199 318.01)">
				<stop  offset="0" style="stop-color:#097B7B"/>
				<stop  offset="1" style="stop-color:#00A1A6"/>
			</linearGradient>
			<polygon class="st62" points="298.4,113 167.2,36.5 167.2,134.5 298.2,210.7 			"/>
			
				<linearGradient id="SVGID_53_" gradientUnits="userSpaceOnUse" x1="-9399.4697" y1="246.13" x2="-9261.3594" y2="246.13" gradientTransform="matrix(1 0 0 -1 9564.7598 318.01)">
				<stop  offset="0" style="stop-color:#FCFCFC"/>
				<stop  offset="1" style="stop-color:#FDFDFD"/>
			</linearGradient>
			<polygon class="st63" points="303.4,110.1 168.2,31.8 165.3,33.4 300.2,111.9 			"/>
			
				<linearGradient id="SVGID_54_" gradientUnits="userSpaceOnUse" x1="-9483.3398" y1="90.86" x2="-9348.4395" y2="90.86" gradientTransform="matrix(1 0 0 -1 9564.7598 318.01)">
				<stop  offset="0" style="stop-color:#DEDEDE"/>
				<stop  offset="0.44" style="stop-color:#D4D4D4"/>
				<stop  offset="1" style="stop-color:#B4B4B4"/>
			</linearGradient>
			<polygon class="st64" points="216.3,264.4 81.4,186 81.4,189.9 216.3,268.3 			"/>
			
				<linearGradient id="SVGID_55_" gradientUnits="userSpaceOnUse" x1="-9483.3398" y1="116.94" x2="-9264.8301" y2="116.94" gradientTransform="matrix(1 0 0 -1 9564.7598 318.01)">
				<stop  offset="0" style="stop-color:#FCFCFC"/>
				<stop  offset="1" style="stop-color:#FDFDFD"/>
			</linearGradient>
			<polygon class="st65" points="299.9,216.1 165,137.7 81.4,186 216.3,264.4 			"/>
			
				<linearGradient id="SVGID_56_" gradientUnits="userSpaceOnUse" x1="8012.1699" y1="75.8" x2="8102.5195" y2="75.8" gradientTransform="matrix(-1 0 0 -1 8318.8301 318.01)">
				<stop  offset="0" style="stop-color:#A7A6A6"/>
				<stop  offset="0.52" style="stop-color:#A3A2A2"/>
				<stop  offset="1" style="stop-color:#999898"/>
			</linearGradient>
			<polygon class="st66" points="299.9,216.1 299.9,220 216.3,268.3 216.3,264.4 			"/>
			
				<linearGradient id="SVGID_57_" gradientUnits="userSpaceOnUse" x1="8015.4199" y1="155.345" x2="8018.6401" y2="155.345" gradientTransform="matrix(-1 0 0 -1 8318.8301 318.01)">
				<stop  offset="0" style="stop-color:#A7A6A6"/>
				<stop  offset="0.52" style="stop-color:#A3A2A2"/>
				<stop  offset="1" style="stop-color:#999898"/>
			</linearGradient>
			<polygon class="st67" points="300.2,215.3 300.2,111.9 303.4,110.1 303.4,213.4 			"/>
			<path class="st68" d="M146.6,180.1l41,23.7c0.6,0.3,1.3,0.3,1.9,0l4.6-2.7c0.3-0.1,0.5-0.4,0.4-0.8c-0.1-0.2-0.2-0.3-0.4-0.4
				l-41-23.7c-0.6-0.3-1.3-0.3-1.9,0l-4.6,2.7c-0.3,0.1-0.5,0.4-0.4,0.7C146.3,179.9,146.5,180.1,146.6,180.1z M240.8,196.3l4.6-2.7
				c0.6-0.3,1.3-0.3,1.9,0l5.5,3.2c0.3,0.1,0.5,0.4,0.4,0.8c-0.1,0.2-0.2,0.3-0.4,0.4l-4.6,2.7c-0.6,0.3-1.3,0.3-1.9,0l-5.5-3.2
				c-0.3-0.1-0.5-0.5-0.3-0.8C240.6,196.5,240.7,196.4,240.8,196.3L240.8,196.3z M232,192.3l5.5,3.2c0.6,0.3,1.3,0.3,1.9,0l4.6-2.7
				c0.3-0.1,0.5-0.4,0.4-0.8c-0.1-0.2-0.2-0.3-0.4-0.4l-5.5-3.2c-0.6-0.3-1.3-0.3-1.9,0l-4.6,2.7c-0.3,0.1-0.5,0.4-0.4,0.8
				C231.7,192.1,231.8,192.3,232,192.3L232,192.3z M223.1,187.2l5.5,3.2c0.6,0.3,1.3,0.3,1.9,0l4.6-2.7c0.3-0.1,0.5-0.4,0.4-0.8
				c-0.1-0.2-0.2-0.3-0.4-0.4l-5.5-3.2c-0.6-0.3-1.3-0.3-1.9,0l-4.6,2.7c-0.3,0.1-0.5,0.5-0.3,0.8C222.9,187,223,187.2,223.1,187.2
				L223.1,187.2z M214.3,182.1l5.5,3.2c0.6,0.3,1.3,0.3,1.9,0l4.6-2.7c0.3-0.1,0.5-0.4,0.4-0.8c-0.1-0.2-0.2-0.3-0.4-0.4l-5.5-3.2
				c-0.6-0.3-1.3-0.3-1.9,0l-4.6,2.7c-0.3,0.1-0.5,0.4-0.4,0.8C214,181.9,214.1,182.1,214.3,182.1z M205.4,177l5.5,3.2
				c0.6,0.3,1.3,0.3,1.9,0l4.6-2.7c0.3-0.1,0.5-0.4,0.4-0.8c-0.1-0.2-0.2-0.3-0.4-0.4l-5.4-3.2c-0.6-0.3-1.3-0.3-1.9,0l-4.6,2.7
				c-0.3,0.1-0.5,0.4-0.4,0.7C205.1,176.8,205.3,176.9,205.4,177L205.4,177z M196.6,171.9l5.5,3.2c0.6,0.3,1.3,0.3,1.9,0l4.6-2.7
				c0.3-0.1,0.5-0.4,0.4-0.8c-0.1-0.2-0.2-0.3-0.4-0.4l-5.5-3.2c-0.6-0.3-1.3-0.3-1.9,0l-4.6,2.7c-0.3,0.1-0.5,0.5-0.3,0.8
				C196.3,171.7,196.4,171.8,196.6,171.9L196.6,171.9z M187.7,166.8l5.5,3.2c0.6,0.3,1.3,0.3,1.9,0l4.6-2.7c0.3-0.1,0.5-0.4,0.4-0.8
				c-0.1-0.2-0.2-0.3-0.4-0.4l-5.5-3.2c-0.6-0.3-1.3-0.3-1.9,0l-4.6,2.7c-0.3,0.1-0.4,0.5-0.3,0.8
				C187.4,166.6,187.6,166.7,187.7,166.8L187.7,166.8z M178.8,161.7l5.5,3.2c0.6,0.3,1.3,0.3,1.9,0l4.6-2.7c0.3-0.1,0.5-0.4,0.4-0.8
				c-0.1-0.2-0.2-0.3-0.4-0.4l-5.5-3.2c-0.6-0.3-1.3-0.3-1.9,0l-4.6,2.7c-0.3,0.1-0.4,0.5-0.3,0.8
				C178.6,161.5,178.7,161.6,178.8,161.7L178.8,161.7z M170,156.5l5.5,3.2c0.6,0.3,1.3,0.3,1.9,0l4.6-2.7c0.3-0.1,0.5-0.4,0.4-0.8
				c-0.1-0.2-0.2-0.3-0.4-0.4l-5.5-3.2c-0.6-0.3-1.3-0.3-1.9,0l-4.6,2.7c-0.3,0.1-0.5,0.4-0.4,0.8
				C169.7,156.4,169.8,156.5,170,156.5z M158.3,149.8l8.3,4.8c0.6,0.3,1.3,0.3,1.9,0l4.6-2.7c0.3-0.1,0.5-0.4,0.4-0.8
				c-0.1-0.2-0.2-0.3-0.4-0.4l-8.3-4.8c-0.6-0.3-1.3-0.3-1.9,0l-4.6,2.7c-0.3,0.1-0.5,0.4-0.4,0.8
				C158,149.6,158.1,149.7,158.3,149.8z M248.1,230.1l5.5,3.2c0.6,0.3,1.3,0.3,1.9,0l4.6-2.7c0.3-0.1,0.5-0.4,0.4-0.8
				c-0.1-0.2-0.2-0.3-0.4-0.4l-5.5-3.2c-0.6-0.3-1.3-0.3-1.9,0l-4.6,2.7c-0.3,0.1-0.5,0.4-0.4,0.8
				C247.8,229.9,247.9,230.1,248.1,230.1z M239.2,225l5.5,3.2c0.6,0.3,1.3,0.3,1.9,0l4.6-2.7c0.3-0.1,0.5-0.4,0.4-0.8
				c-0.1-0.2-0.2-0.3-0.4-0.4l-5.5-3.2c-0.6-0.3-1.3-0.3-1.9,0l-4.6,2.7c-0.3,0.1-0.5,0.5-0.3,0.8C239,224.8,239.1,224.9,239.2,225
				L239.2,225z M230.4,219.9l5.5,3.2c0.6,0.3,1.3,0.3,1.9,0l4.6-2.7c0.3-0.1,0.5-0.4,0.4-0.8c-0.1-0.2-0.2-0.3-0.4-0.4l-5.5-3.2
				c-0.6-0.3-1.3-0.3-1.9,0l-4.6,2.7c-0.3,0.1-0.5,0.4-0.4,0.8C230.1,219.7,230.2,219.8,230.4,219.9L230.4,219.9z M240,234.8
				l5.5,3.2c0.6,0.3,1.3,0.3,1.9,0l4.6-2.7c0.3-0.1,0.5-0.4,0.4-0.8c-0.1-0.2-0.2-0.3-0.4-0.4l-5.5-3.2c-0.6-0.3-1.3-0.3-1.9,0
				l-4.6,2.6c-0.3,0.1-0.5,0.4-0.4,0.8C239.7,234.6,239.8,234.7,240,234.8L240,234.8z M231.1,229.7l5.5,3.2c0.6,0.3,1.3,0.3,1.9,0
				l4.6-2.7c0.3-0.1,0.5-0.4,0.4-0.8c-0.1-0.2-0.2-0.3-0.4-0.4l-5.5-3.2c-0.6-0.3-1.3-0.3-1.9,0l-4.6,2.7c-0.3,0.1-0.5,0.5-0.3,0.8
				C230.9,229.5,231,229.6,231.1,229.7L231.1,229.7z M222.3,224.6l5.5,3.2c0.6,0.3,1.3,0.3,1.9,0l4.6-2.7c0.3-0.1,0.5-0.4,0.4-0.8
				c-0.1-0.2-0.2-0.3-0.4-0.4l-5.5-3.2c-0.6-0.3-1.3-0.3-1.9,0l-4.6,2.7c-0.3,0.1-0.5,0.5-0.3,0.8
				C222,224.4,222.1,224.5,222.3,224.6L222.3,224.6z M229.7,200.4l8.3,4.8c0.6,0.3,1.3,0.3,1.9,0l4.6-2.7c0.3-0.1,0.5-0.4,0.4-0.8
				c-0.1-0.2-0.2-0.3-0.4-0.4l-8.3-4.8c-0.6-0.3-1.3-0.3-1.9,0l-4.6,2.7c-0.3,0.1-0.5,0.5-0.3,0.8
				C229.5,200.2,229.6,200.4,229.7,200.4L229.7,200.4z M220.9,195.3l5.5,3.2c0.6,0.3,1.3,0.3,1.9,0l4.6-2.7c0.3-0.1,0.5-0.4,0.4-0.8
				c-0.1-0.2-0.2-0.3-0.4-0.4l-5.5-3.2c-0.6-0.3-1.3-0.3-1.9,0l-4.6,2.7c-0.3,0.1-0.4,0.5-0.3,0.8
				C220.6,195.1,220.7,195.3,220.9,195.3L220.9,195.3z M212,190.2l5.5,3.2c0.6,0.3,1.3,0.3,1.9,0l4.6-2.7c0.3-0.1,0.5-0.4,0.4-0.8
				c-0.1-0.2-0.2-0.3-0.4-0.4l-5.5-3.2c-0.6-0.3-1.3-0.3-1.9,0l-4.6,2.7c-0.3,0.1-0.4,0.5-0.3,0.8C211.8,190,211.9,190.1,212,190.2z
				 M203.2,185.1l5.5,3.2c0.6,0.3,1.3,0.3,1.9,0l4.6-2.7c0.3-0.1,0.5-0.4,0.4-0.8c-0.1-0.2-0.2-0.3-0.4-0.4l-5.5-3.2
				c-0.6-0.3-1.3-0.3-1.9,0l-4.6,2.7c-0.3,0.1-0.5,0.4-0.4,0.8C202.9,184.9,203,185.1,203.2,185.1z M194.3,180l5.5,3.2
				c0.6,0.3,1.3,0.3,1.9,0l4.6-2.7c0.3-0.1,0.5-0.4,0.4-0.8c-0.1-0.2-0.2-0.3-0.4-0.4l-5.5-3.2c-0.6-0.3-1.3-0.3-1.9,0l-4.6,2.7
				c-0.3,0.2-0.3,0.6-0.2,0.9C194.2,179.8,194.3,179.9,194.3,180L194.3,180z M185.5,174.9l5.5,3.2c0.6,0.3,1.3,0.3,1.9,0l4.6-2.7
				c0.3-0.1,0.5-0.4,0.4-0.8c-0.1-0.2-0.2-0.3-0.4-0.4l-5.5-3.2c-0.6-0.3-1.3-0.3-1.9,0l-4.6,2.7c-0.3,0.1-0.4,0.5-0.3,0.8
				C185.2,174.7,185.3,174.8,185.5,174.9L185.5,174.9z M176.6,169.8l5.5,3.2c0.6,0.3,1.3,0.3,1.9,0l4.6-2.7c0.3-0.1,0.5-0.4,0.4-0.8
				c-0.1-0.2-0.2-0.3-0.4-0.4l-5.5-3.2c-0.6-0.3-1.3-0.3-1.9,0l-4.6,2.7c-0.3,0.1-0.4,0.5-0.3,0.8
				C176.4,169.6,176.5,169.7,176.6,169.8L176.6,169.8z M167.7,164.7l5.5,3.2c0.6,0.3,1.3,0.3,1.9,0l4.6-2.7c0.3-0.1,0.5-0.4,0.4-0.8
				c-0.1-0.2-0.2-0.3-0.4-0.4l-5.5-3.2c-0.6-0.3-1.3-0.3-1.9,0l-4.6,2.7c-0.3,0.1-0.4,0.5-0.3,0.8
				C167.5,164.5,167.6,164.6,167.7,164.7L167.7,164.7z M158.9,159.6l5.5,3.2c0.6,0.3,1.3,0.3,1.9,0l4.6-2.7c0.3-0.1,0.5-0.4,0.4-0.8
				c-0.1-0.2-0.2-0.3-0.4-0.4l-5.5-3.2c-0.6-0.3-1.3-0.3-1.9,0l-4.6,2.7c-0.3,0.1-0.4,0.5-0.3,0.8
				C158.7,159.4,158.8,159.5,158.9,159.6L158.9,159.6z M150,154.4l5.5,3.2c0.6,0.3,1.3,0.3,1.9,0l4.6-2.7c0.3-0.1,0.5-0.4,0.4-0.8
				c-0.1-0.2-0.2-0.3-0.4-0.4l-5.5-3.2c-0.6-0.3-1.3-0.3-1.9,0l-4.6,2.7c-0.3,0.1-0.5,0.4-0.4,0.7
				C149.7,154.2,149.8,154.4,150,154.4z M224.7,206.7l5.5,3.2c0.6,0.3,1.3,0.3,1.9,0l4.6-2.7c0.3-0.1,0.5-0.4,0.4-0.8
				c-0.1-0.2-0.2-0.3-0.4-0.4l-5.5-3.2c-0.6-0.3-1.3-0.3-1.9,0l-4.6,2.7c-0.3,0.1-0.4,0.5-0.3,0.8
				C224.5,206.6,224.6,206.7,224.7,206.7L224.7,206.7z M215.8,201.6l5.5,3.2c0.6,0.3,1.3,0.3,1.9,0l4.6-2.7c0.3-0.1,0.5-0.4,0.4-0.8
				c-0.1-0.2-0.2-0.3-0.4-0.4l-5.5-3.2c-0.6-0.3-1.3-0.3-1.9,0l-4.6,2.7c-0.3,0.1-0.4,0.5-0.3,0.8
				C215.6,201.4,215.7,201.6,215.8,201.6L215.8,201.6z M207,196.5l5.5,3.2c0.6,0.3,1.3,0.3,1.9,0l4.6-2.7c0.3-0.1,0.5-0.4,0.4-0.8
				c-0.1-0.2-0.2-0.3-0.4-0.4l-5.5-3.2c-0.6-0.3-1.3-0.3-1.9,0l-4.6,2.7c-0.3,0.1-0.5,0.4-0.4,0.7
				C206.7,196.3,206.8,196.5,207,196.5z M198.1,191.4l5.5,3.2c0.6,0.3,1.3,0.3,1.9,0l4.6-2.7c0.3-0.1,0.5-0.4,0.4-0.8
				c-0.1-0.2-0.2-0.3-0.4-0.4l-5.5-3.2c-0.6-0.3-1.3-0.3-1.9,0l-4.6,2.7c-0.3,0.1-0.4,0.5-0.3,0.8
				C197.9,191.2,198,191.3,198.1,191.4L198.1,191.4z M208.6,216l5.5,3.2c0.6,0.3,1.3,0.3,1.9,0l4.6-2.7c0.3-0.1,0.5-0.4,0.4-0.8
				c-0.1-0.2-0.2-0.3-0.4-0.4l-5.5-3.2c-0.6-0.3-1.3-0.3-1.9,0l-4.6,2.7c-0.3,0.1-0.4,0.5-0.3,0.8
				C208.4,215.8,208.5,215.9,208.6,216L208.6,216z M199.8,210.9l5.5,3.2c0.6,0.3,1.3,0.3,1.9,0l4.6-2.7c0.3-0.1,0.5-0.4,0.4-0.8
				c-0.1-0.2-0.2-0.3-0.4-0.4l-5.4-3.2c-0.6-0.3-1.3-0.3-1.9,0l-4.6,2.7c-0.3,0-0.6,0.2-0.6,0.6
				C199.2,210.7,199.5,210.9,199.8,210.9L199.8,210.9z M191,205.8l5.5,3.2c0.6,0.3,1.3,0.3,1.9,0l4.6-2.7c0.3-0.1,0.5-0.4,0.4-0.8
				c-0.1-0.2-0.2-0.3-0.4-0.4l-5.5-3.2c-0.6-0.3-1.3-0.3-1.9,0l-4.6,2.7c-0.3,0.1-0.5,0.4-0.4,0.8
				C190.7,205.6,190.8,205.7,191,205.8z M137.8,175l5.5,3.2c0.6,0.3,1.3,0.3,1.9,0l4.6-2.7c0.3-0.1,0.5-0.4,0.4-0.8
				c-0.1-0.2-0.2-0.3-0.4-0.4l-5.5-3.2c-0.6-0.3-1.3-0.3-1.9,0l-4.6,2.7c-0.3,0.1-0.5,0.4-0.4,0.8C137.5,174.8,137.6,175,137.8,175z
				 M126.2,168.4l8.3,4.8c0.6,0.3,1.3,0.3,1.9,0l4.6-2.7c0.3-0.1,0.5-0.4,0.4-0.8c-0.1-0.2-0.2-0.3-0.4-0.4l-8.3-4.8
				c-0.6-0.3-1.3-0.3-1.9,0l-4.6,2.7c-0.3,0.1-0.5,0.4-0.4,0.7C125.9,168.2,126,168.3,126.2,168.4z M189.3,186.3l5.5,3.2
				c0.6,0.3,1.3,0.3,1.9,0l4.6-2.7c0.3-0.1,0.5-0.4,0.4-0.8c-0.1-0.2-0.2-0.3-0.4-0.4l-5.5-3.2c-0.6-0.3-1.3-0.3-1.9,0l-4.6,2.6
				c-0.3,0.1-0.5,0.4-0.5,0.7C188.9,186,189.1,186.2,189.3,186.3L189.3,186.3z M180.5,181.2l5.5,3.2c0.6,0.3,1.3,0.3,1.9,0l4.6-2.7
				c0.3-0.1,0.5-0.4,0.4-0.8c-0.1-0.2-0.2-0.3-0.4-0.4l-5.5-3.2c-0.6-0.3-1.3-0.3-1.9,0l-4.6,2.7c-0.3,0.1-0.5,0.4-0.4,0.8
				C180.2,181,180.3,181.1,180.5,181.2z M171.6,176.1l5.5,3.2c0.6,0.3,1.3,0.3,1.9,0l4.6-2.7c0.3-0.1,0.5-0.4,0.4-0.8
				c-0.1-0.2-0.2-0.3-0.4-0.4l-5.5-3.2c-0.6-0.3-1.3-0.3-1.9,0l-4.6,2.7c-0.3,0.1-0.5,0.4-0.4,0.8
				C171.3,175.9,171.5,176,171.6,176.1z M162.8,170.9l5.5,3.2c0.6,0.3,1.3,0.3,1.9,0l4.6-2.7c0.3-0.1,0.5-0.4,0.4-0.8
				c-0.1-0.2-0.2-0.3-0.4-0.4l-5.5-3.2c-0.6-0.3-1.3-0.3-1.9,0l-4.6,2.7c-0.3,0-0.6,0.3-0.5,0.7
				C162.3,170.7,162.5,170.9,162.8,170.9L162.8,170.9z M153.9,165.8l5.5,3.2c0.6,0.3,1.3,0.3,1.9,0l4.6-2.7c0.3-0.1,0.5-0.4,0.4-0.8
				c-0.1-0.2-0.2-0.3-0.4-0.4l-5.5-3.2c-0.6-0.3-1.3-0.3-1.9,0l-4.6,2.7c-0.3,0.1-0.5,0.5-0.3,0.8
				C153.6,165.7,153.8,165.8,153.9,165.8L153.9,165.8z M142.2,159.1l8.3,4.8c0.6,0.3,1.3,0.3,1.9,0l4.6-2.7c0.3-0.1,0.5-0.4,0.4-0.8
				c-0.1-0.2-0.2-0.3-0.4-0.4l-8.3-4.8c-0.6-0.3-1.3-0.3-1.9,0l-4.6,2.7c-0.3,0.1-0.5,0.4-0.4,0.8
				C141.9,158.9,142,159.1,142.2,159.1z M213.6,209.8l8.4,4.8c0.6,0.3,1.3,0.3,1.9,0l4.6-2.7c0.3-0.1,0.5-0.4,0.4-0.8
				c-0.1-0.2-0.2-0.3-0.4-0.4l-8.3-4.8c-0.6-0.3-1.3-0.3-1.9,0l-4.6,2.7c-0.3,0.1-0.5,0.4-0.4,0.8
				C213.4,209.5,213.5,209.6,213.6,209.8L213.6,209.8z M204.8,204.6l5.5,3.2c0.6,0.3,1.3,0.3,1.9,0l4.6-2.7c0.3-0.1,0.5-0.4,0.4-0.8
				c-0.1-0.2-0.2-0.3-0.4-0.4l-5.5-3.2c-0.6-0.3-1.3-0.3-1.9,0l-4.6,2.7c-0.3,0.1-0.4,0.5-0.3,0.8
				C204.6,204.4,204.7,204.5,204.8,204.6L204.8,204.6z M195.9,199.5l5.5,3.2c0.6,0.3,1.3,0.3,1.9,0l4.6-2.7c0.3-0.1,0.5-0.4,0.4-0.8
				c-0.1-0.2-0.2-0.3-0.4-0.4l-5.5-3.2c-0.6-0.3-1.3-0.3-1.9,0l-4.6,2.7c-0.3,0.2-0.4,0.5-0.2,0.8
				C195.7,199.3,195.8,199.4,195.9,199.5L195.9,199.5z M187.1,194.4l5.5,3.2c0.6,0.3,1.3,0.3,1.9,0l4.6-2.7c0.3-0.1,0.5-0.4,0.4-0.8
				c-0.1-0.2-0.2-0.3-0.4-0.4l-5.5-3.2c-0.6-0.3-1.3-0.3-1.9,0l-4.6,2.7c-0.3,0.2-0.4,0.5-0.2,0.8
				C186.9,194.2,187,194.3,187.1,194.4L187.1,194.4z M178.2,189.3l5.5,3.2c0.6,0.3,1.3,0.3,1.9,0l4.6-2.7c0.3-0.1,0.5-0.4,0.4-0.8
				c-0.1-0.2-0.2-0.3-0.4-0.4l-5.5-3.2c-0.6-0.3-1.3-0.3-1.9,0l-4.6,2.6c-0.3,0.1-0.5,0.4-0.4,0.7C177.9,189,178,189.2,178.2,189.3
				L178.2,189.3z M169.4,184.1l5.5,3.2c0.6,0.3,1.3,0.3,1.9,0l4.6-2.7c0.3-0.1,0.5-0.4,0.4-0.8c-0.1-0.2-0.2-0.3-0.4-0.4l-5.5-3.2
				c-0.6-0.3-1.3-0.3-1.9,0l-4.6,2.7c-0.3,0.1-0.5,0.4-0.4,0.8C169.1,183.9,169.2,184.1,169.4,184.1z M160.5,179l5.5,3.2
				c0.6,0.3,1.3,0.3,1.9,0l4.6-2.7c0.3-0.1,0.5-0.4,0.4-0.8c-0.1-0.2-0.2-0.3-0.4-0.4l-5.5-3.2c-0.6-0.3-1.3-0.3-1.9,0l-4.6,2.7
				c-0.3,0.1-0.5,0.4-0.4,0.7C160.2,178.8,160.3,179,160.5,179L160.5,179z M151.6,173.9l5.5,3.2c0.6,0.3,1.3,0.3,1.9,0l4.6-2.7
				c0.3-0.1,0.5-0.4,0.4-0.8c-0.1-0.2-0.2-0.3-0.4-0.4l-5.5-3.2c-0.6-0.3-1.3-0.3-1.9,0l-4.6,2.7c-0.3,0.1-0.5,0.4-0.4,0.7
				C151.3,173.7,151.5,173.9,151.6,173.9L151.6,173.9z M142.8,168.8l5.5,3.2c0.6,0.3,1.3,0.3,1.9,0l4.6-2.7c0.3-0.1,0.5-0.4,0.4-0.8
				c-0.1-0.2-0.2-0.3-0.4-0.4l-5.5-3.2c-0.6-0.3-1.3-0.3-1.9,0l-4.6,2.7c-0.3,0.1-0.5,0.4-0.4,0.7
				C142.5,168.6,142.6,168.8,142.8,168.8L142.8,168.8z M134,163.7l5.5,3.2c0.6,0.3,1.3,0.3,1.9,0l4.6-2.7c0.3-0.1,0.5-0.4,0.4-0.8
				c-0.1-0.2-0.2-0.3-0.4-0.4l-5.5-3.2c-0.6-0.3-1.3-0.3-1.9,0l-4.6,2.7c-0.3,0.1-0.5,0.4-0.4,0.7
				C133.7,163.5,133.8,163.6,134,163.7z M272.3,216.1l5.5,3.2c0.6,0.3,1.3,0.3,1.9,0l4.6-2.7c0.3-0.1,0.5-0.4,0.4-0.8
				c-0.1-0.2-0.2-0.3-0.4-0.4l-5.5-3.2c-0.6-0.3-1.3-0.3-1.9,0l-4.6,2.7c-0.3,0.1-0.5,0.4-0.4,0.8
				C272,215.9,272.2,216.1,272.3,216.1z M263.5,211l5.5,3.2c0.6,0.3,1.3,0.3,1.9,0l4.6-2.7c0.3-0.1,0.5-0.4,0.4-0.8
				c-0.1-0.2-0.2-0.3-0.4-0.4l-5.5-3.2c-0.6-0.3-1.3-0.3-1.9,0l-4.6,2.7c-0.3,0.1-0.5,0.4-0.4,0.7C263.2,210.8,263.3,211,263.5,211z
				 M254.6,205.9l5.5,3.2c0.6,0.3,1.3,0.3,1.9,0l4.6-2.7c0.3-0.1,0.5-0.4,0.4-0.8c-0.1-0.2-0.2-0.3-0.4-0.4l-5.5-3.2
				c-0.6-0.3-1.3-0.3-1.9,0l-4.6,2.7c-0.3,0.1-0.4,0.5-0.3,0.8C254.4,205.7,254.5,205.8,254.6,205.9L254.6,205.9z M246.5,210.6
				l5.5,3.2c0.6,0.3,1.3,0.3,1.9,0l4.6-2.7c0.3-0.1,0.5-0.4,0.4-0.8c-0.1-0.2-0.2-0.3-0.4-0.4l-5.5-3.2c-0.6-0.3-1.3-0.3-1.9,0
				l-4.6,2.7c-0.3,0.1-0.5,0.5-0.3,0.8C246.2,210.4,246.4,210.5,246.5,210.6L246.5,210.6z M238.7,215.1l23.1,13.3
				c0.8,0.4,1.6,0.4,2.4,0l12.1-7c0.4-0.1,0.6-0.5,0.5-0.9c-0.1-0.2-0.2-0.4-0.5-0.5l-13.9-8c-0.8-0.4-1.6-0.4-2.4,0l-6.1,3.5
				c-0.4,0.2-0.9,0.2-1.4,0l-7.7-4.4c-0.5-0.3-1.1-0.3-1.6,0l-4.5,2.6c-0.4,0.1-0.6,0.5-0.5,0.9
				C238.3,214.9,238.5,215.1,238.7,215.1z"/>
			
				<linearGradient id="SVGID_58_" gradientUnits="userSpaceOnUse" x1="8034.79" y1="126.515" x2="8192.3701" y2="126.515" gradientTransform="matrix(-1 0 0 -1 8318.8301 318.01)">
				<stop  offset="0" style="stop-color:#8E9191"/>
				<stop  offset="1" style="stop-color:#AEB3B3"/>
			</linearGradient>
			<path class="st69" d="M187.9,202.6l-41-23.8l4.6-2.7c0.4-0.2,0.9-0.2,1.3,0l41,23.8l-4.6,2.7
				C188.8,202.8,188.3,202.8,187.9,202.6z M214.5,217.8l-5.5-3.2l4.6-2.7c0.2-0.1,0.4-0.2,0.7-0.1c0.2,0,0.5,0.1,0.7,0.2l5.5,3.3
				l-4.6,2.7C215.4,218.1,214.9,218.1,214.5,217.8L214.5,217.8z M222.3,213.2l-8.3-4.9l4.6-2.7c0.4-0.2,0.9-0.2,1.3,0l8.3,4.9
				l-4.6,2.7C223.2,213.4,222.7,213.4,222.3,213.2z M205.6,212.7l-5.5-3.3l4.6-2.7c0.2-0.1,0.4-0.2,0.7-0.1c0.2,0,0.5,0.1,0.7,0.2
				l5.5,3.3l-4.6,2.7C206.6,213,206.1,213,205.6,212.7L205.6,212.7z M230.5,208.6l-5.5-3.2l4.6-2.7c0.4-0.2,0.9-0.2,1.3,0l5.5,3.2
				l-4.6,2.7C231.4,208.8,230.9,208.8,230.5,208.6L230.5,208.6z M196.8,207.6l-5.5-3.3l4.6-2.7c0.2-0.1,0.4-0.2,0.7-0.1
				c0.2,0,0.5,0.1,0.7,0.2l5.5,3.3l-4.6,2.7C197.7,207.8,197.2,207.8,196.8,207.6L196.8,207.6z M210.6,206.4l-5.5-3.2l4.6-2.7
				c0.4-0.2,0.9-0.2,1.3,0l5.5,3.3l-4.6,2.7C211.5,206.6,211,206.6,210.6,206.4L210.6,206.4z M238.4,203.9L230,199l4.6-2.7
				c0.4-0.2,0.9-0.2,1.3,0l8.3,4.9l-4.6,2.7C239.3,204.1,238.8,204.1,238.4,203.9L238.4,203.9z M221.7,203.4l-5.5-3.3l4.6-2.7
				c0.2-0.1,0.4-0.2,0.7-0.1c0.2,0,0.5,0.1,0.7,0.2l5.5,3.2l-4.6,2.7C222.6,203.7,222.1,203.7,221.7,203.4L221.7,203.4z M143.5,177
				l-5.5-3.2l4.6-2.7c0.2-0.1,0.4-0.2,0.7-0.1c0.2,0,0.5,0.1,0.7,0.2l5.5,3.3l-4.6,2.7c-0.2,0.1-0.4,0.2-0.7,0.1
				C143.9,177.2,143.7,177.2,143.5,177L143.5,177z M201.7,201.3l-5.5-3.2l4.6-2.7c0.4-0.2,0.9-0.2,1.3,0l5.5,3.3l-4.6,2.7
				c-0.4,0.2-0.9,0.2-1.3,0L201.7,201.3z M246.6,199.3l-5.5-3.3l4.6-2.7c0.4-0.2,0.9-0.2,1.3,0l5.5,3.2l-4.6,2.7
				C247.6,199.5,247.1,199.5,246.6,199.3L246.6,199.3z M212.8,198.3l-5.5-3.2l4.6-2.7c0.2-0.1,0.4-0.2,0.7-0.1
				c0.2,0,0.5,0.1,0.7,0.2l5.5,3.3l-4.6,2.7C213.7,198.6,213.2,198.6,212.8,198.3L212.8,198.3z M226.6,197.1l-5.5-3.3l4.6-2.7
				c0.4-0.2,0.9-0.2,1.3,0l5.5,3.3l-4.6,2.6C227.6,197.3,227.1,197.3,226.6,197.1L226.6,197.1z M192.8,196.2l-5.5-3.3l4.6-2.7
				c0.2-0.1,0.4-0.2,0.7-0.1c0.2,0,0.5,0.1,0.7,0.2l5.5,3.2l-4.6,2.7C193.7,196.4,193.3,196.4,192.8,196.2L192.8,196.2z
				 M237.7,194.2l-5.5-3.3l4.6-2.7c0.2-0.1,0.4-0.2,0.7-0.1c0.2,0,0.5,0.1,0.7,0.2l5.5,3.2l-4.6,2.7
				C238.6,194.4,238.2,194.4,237.7,194.2L237.7,194.2z M203.9,193.3l-5.5-3.3l4.6-2.7c0.2-0.1,0.4-0.2,0.7-0.1
				c0.2,0,0.5,0.1,0.7,0.2l5.5,3.3l-4.6,2.7C204.8,193.5,204.4,193.5,203.9,193.3L203.9,193.3z M217.8,192.1l-5.5-3.3l4.6-2.7
				c0.4-0.2,0.9-0.2,1.3,0l5.5,3.3l-4.6,2.7C218.7,192.3,218.2,192.3,217.8,192.1z M184,191.1l-5.5-3.3l4.6-2.7
				c0.2-0.1,0.4-0.2,0.7-0.1c0.2,0,0.5,0.1,0.7,0.2l5.5,3.2l-4.6,2.7C184.9,191.3,184.4,191.3,184,191.1L184,191.1z M228.9,189.1
				l-5.5-3.3l4.6-2.7c0.2-0.1,0.4-0.2,0.7-0.1c0.2,0,0.5,0.1,0.7,0.2l5.5,3.3l-4.6,2.7C229.8,189.3,229.3,189.3,228.9,189.1
				L228.9,189.1z M195.1,188.2l-5.5-3.3l4.6-2.7c0.2-0.1,0.4-0.2,0.7-0.1c0.2,0,0.5,0.1,0.7,0.2l5.5,3.2l-4.6,2.6
				c-0.2,0.1-0.4,0.2-0.7,0.1C195.5,188.3,195.3,188.2,195.1,188.2L195.1,188.2z M208.9,187l-5.5-3.3l4.6-2.7c0.4-0.2,0.9-0.2,1.3,0
				l5.5,3.2l-4.6,2.7C209.9,187.2,209.4,187.2,208.9,187L208.9,187z M175.1,186l-5.5-3.3l4.6-2.7c0.2-0.1,0.4-0.2,0.7-0.1
				c0.2,0,0.5,0.1,0.7,0.2l5.5,3.3l-4.6,2.7C176,186.3,175.6,186.3,175.1,186L175.1,186z M220,184l-5.5-3.3l4.6-2.7
				c0.2-0.1,0.4-0.2,0.7-0.1c0.2,0,0.5,0.1,0.7,0.2l5.5,3.3l-4.6,2.7C220.9,184.3,220.5,184.3,220,184L220,184z M186.2,183.1
				l-5.5-3.3l4.6-2.7c0.2-0.1,0.4-0.2,0.7-0.1c0.2,0,0.5,0.1,0.7,0.2l5.5,3.2l-4.6,2.7c-0.2,0.1-0.4,0.2-0.7,0.1
				c-0.2,0-0.5-0.1-0.7-0.3L186.2,183.1z M200.1,181.9l-5.5-3.3l4.6-2.7c0.2-0.1,0.4-0.2,0.7-0.1c0.2,0,0.5,0.1,0.7,0.2l5.5,3.3
				l-4.6,2.7C201,182.1,200.5,182.1,200.1,181.9L200.1,181.9z M166.3,181l-5.5-3.2l4.6-2.7c0.2-0.1,0.4-0.2,0.7-0.1
				c0.2,0,0.5,0.1,0.7,0.2l5.5,3.3l-4.6,2.7c-0.2,0.1-0.4,0.2-0.7,0.1c-0.2,0-0.5-0.1-0.6-0.3L166.3,181z M211.2,179l-5.5-3.3
				l4.6-2.7c0.2-0.1,0.4-0.2,0.7-0.1c0.2,0,0.5,0.1,0.7,0.2l5.5,3.2l-4.6,2.7c-0.2,0.1-0.4,0.2-0.7,0.1c-0.2,0-0.5-0.1-0.6-0.3
				L211.2,179z M177.4,178.1l-5.5-3.3l4.6-2.7c0.2-0.1,0.4-0.2,0.7-0.1c0.2,0,0.5,0.1,0.7,0.2l5.5,3.3l-4.6,2.7
				c-0.2,0.1-0.4,0.2-0.7,0.1c-0.2,0-0.5-0.1-0.6-0.3L177.4,178.1z M191.2,176.9l-5.5-3.3l4.6-2.7c0.2-0.1,0.4-0.2,0.7-0.1
				c0.2,0,0.5,0.1,0.7,0.2l5.5,3.3l-4.6,2.7C192.1,177.1,191.6,177.1,191.2,176.9L191.2,176.9z M157.4,175.9l-5.4-3.4l4.6-2.7
				c0.2-0.1,0.4-0.2,0.7-0.1c0.2,0,0.5,0.1,0.7,0.2l5.4,3.3l-4.6,2.7c-0.2,0.1-0.4,0.2-0.7,0.1c-0.2,0-0.5-0.1-0.7-0.2L157.4,175.9z
				 M202.3,173.9l-5.5-3.3l4.6-2.7c0.2-0.1,0.4-0.2,0.7-0.1c0.2,0,0.5,0.1,0.7,0.2l5.5,3.2l-4.6,2.7c-0.2,0.1-0.4,0.2-0.7,0.1
				c-0.2-0.1-0.5-0.2-0.6-0.3L202.3,173.9z M168.5,173l-5.5-3.3l4.6-2.7c0.2-0.1,0.4-0.2,0.7-0.1c0.2,0,0.5,0.1,0.7,0.2l5.5,3.1
				l-4.6,2.7c-0.2,0.1-0.4,0.2-0.7,0.1c-0.2,0-0.5,0-0.7-0.1L168.5,173z M134.8,172.1l-8.3-4.9l4.6-2.7c0.2-0.1,0.4-0.2,0.7-0.1
				c0.2,0,0.5,0.1,0.7,0.2l8.3,4.9l-4.6,2.7C135.7,172.3,135.2,172.3,134.8,172.1L134.8,172.1z M182.4,171.8l-5.5-3.3l4.6-2.7
				c0.2-0.1,0.4-0.2,0.7-0.1c0.2,0,0.5,0.1,0.7,0.2l5.5,3.3l-4.6,2.7C183.3,172,182.8,172,182.4,171.8L182.4,171.8z M148.6,170.8
				l-5.5-3.3l4.6-2.7c0.2-0.1,0.4-0.2,0.7-0.1c0.2,0,0.5,0.1,0.7,0.2l5.5,3.2l-4.6,2.7c-0.2,0.1-0.4,0.2-0.7,0.1
				c-0.2,0-0.5-0.2-0.6-0.3L148.6,170.8z M193.5,168.8l-5.5-3.5l4.6-2.7c0.2-0.1,0.4-0.2,0.7-0.1c0.2,0,0.5,0.1,0.7,0.2l5.5,3.3
				l-4.6,2.7c-0.2,0.1-0.4,0.2-0.7,0.1c-0.2,0-0.5-0.1-0.7-0.2L193.5,168.8z M159.7,167.9l-5.5-3.3l4.6-2.7c0.2-0.1,0.4-0.2,0.7-0.1
				c0.2,0,0.5,0.1,0.7,0.2l5.5,3.2l-4.6,2.5c-0.2,0.1-0.4,0.2-0.7,0.1c-0.2,0-0.4-0.1-0.6-0.2L159.7,167.9z M173.5,166.7l-5.5-3.5
				l4.6-2.7c0.2-0.1,0.4-0.2,0.7-0.1c0.2,0,0.5,0.1,0.7,0.2l5.5,3.2l-4.6,2.7c-0.2,0.1-0.4,0.2-0.7,0.1c-0.2,0-0.4-0.1-0.6-0.2
				L173.5,166.7z M139.7,165.8l-5.5-3.3l4.6-2.7c0.2-0.1,0.4-0.2,0.7-0.1c0.2,0,0.5,0.1,0.7,0.2l5.5,3.3l-4.6,2.7
				c-0.2,0.1-0.4,0.2-0.7,0.1c-0.2-0.1-0.5-0.2-0.6-0.4L139.7,165.8z M184.6,163.8l-5.5-3.3l4.6-2.7c0.2-0.1,0.4-0.2,0.7-0.1
				c0.2,0,0.5,0.1,0.7,0.2l5.5,3.3l-4.5,2.4c-0.2,0.1-0.4,0.2-0.7,0.1c-0.2,0-0.5,0-0.7-0.1L184.6,163.8z M150.8,162.8l-8.3-4.9
				l4.6-2.7c0.2-0.1,0.4-0.2,0.7-0.1c0.2,0,0.5,0.1,0.7,0.2l8.3,4.9l-4.6,2.7c-0.2,0.1-0.4,0.2-0.7,0.1c-0.2-0.1-0.5-0.2-0.6-0.4
				L150.8,162.8z M245.7,237.1l-5.5-3.3l4.6-2.7c0.2-0.1,0.4-0.2,0.7-0.1c0.2,0,0.5,0.1,0.7,0.2l5.5,3.3l-4.6,2.7
				c-0.2,0.1-0.4,0.2-0.7,0.1c-0.2-0.1-0.5-0.2-0.6-0.4L245.7,237.1z M164.7,161.6l-5.5-3.5l4.6-2.7c0.2-0.1,0.4-0.2,0.7-0.1
				c0.2,0,0.5,0.1,0.7,0.2l5.5,3.2l-4.6,2.7c-0.2,0.1-0.4,0.2-0.7,0.1c-0.2,0-0.4,0-0.7-0.1L164.7,161.6z M175.8,158.6l-5.5-3.5
				l4.6-2.7c0.2-0.1,0.4-0.2,0.7-0.1c0.2,0,0.5,0.1,0.7,0.2l5.5,3.2l-4.6,2.7c-0.2,0.1-0.4,0.2-0.7,0.1c-0.2,0-0.5,0-0.7-0.1
				L175.8,158.6z M253.8,232.4l-5.5-3.2l4.6-2.7c0.4-0.2,0.9-0.2,1.3,0l5.5,3.3l-4.6,2.4c-0.4,0.2-0.9,0.2-1.3,0L253.8,232.4z
				 M236.8,231.9l-5.5-3.3l4.6-2.7c0.2-0.1,0.4-0.2,0.7-0.1c0.2,0,0.5,0.1,0.7,0.2l5.5,3.3l-4.6,2.7c-0.2,0.1-0.4,0.2-0.7,0.1
				c-0.2-0.1-0.5-0.2-0.6-0.4L236.8,231.9z M155.8,156.5l-5.5-3.3l4.6-2.7c0.2-0.1,0.4-0.2,0.7-0.1c0.2,0,0.5,0.1,0.7,0.2l5.5,3.3
				l-4.6,2.7c-0.2,0.1-0.4,0.2-0.7,0.1c-0.3-0.1-0.5-0.2-0.7-0.4L155.8,156.5z M166.9,153.5l-8.3-4.9l4.6-2.7
				c0.2-0.1,0.4-0.2,0.7-0.1c0.2,0,0.5,0.1,0.7,0.2l8.3,4.9l-4.6,2.7c-0.2,0.1-0.4,0.2-0.7,0.1c-0.3-0.1-0.5-0.2-0.7-0.4
				L166.9,153.5z M262,227.5L239,214.2v-0.4l4.5-2.6c0.2-0.1,0.3-0.1,0.5-0.1c0.2,0,0.4,0,0.5,0.1l7.8,4.4c0.3,0.2,0.7,0.2,1,0.2
				c0.3,0,0.7-0.1,1-0.2l6.1-3.5c0.6-0.3,1.2-0.3,1.8,0l13.9,8v0.4l-12.1,7C263.3,227.7,262.7,227.7,262,227.5L262,227.5z
				 M245,227.2l-5.5-3.3l4.6-2.7c0.4-0.2,0.9-0.2,1.3,0l5.5,3.2l-4.6,2.7C245.9,227.4,245.4,227.4,245,227.2L245,227.2z M228,226.6
				l-5.5-3.3l4.6-2.7c0.2-0.1,0.4-0.2,0.7-0.1c0.2,0,0.5,0.1,0.7,0.2l5.5,3.3l-4.6,2.7c-0.2,0.1-0.4,0.2-0.7,0.1
				C228.5,226.8,228.2,226.7,228,226.6z M236.1,221.9l-5.5-3.3l4.6-2.7c0.2-0.1,0.4-0.2,0.7-0.1c0.2,0,0.5,0.1,0.7,0.2l5.5,3.2
				l-4.6,2.7C237,222.1,236.5,222.1,236.1,221.9L236.1,221.9z M278.1,218.1l-5.5-3.2l4.6-2.7c0.2-0.1,0.4-0.2,0.7-0.1
				c0.2,0,0.5,0.1,0.7,0.2l5.5,3.3l-4.6,2.6c-0.2,0.1-0.4,0.2-0.7,0.1C278.5,218.3,278.3,218.2,278.1,218.1L278.1,218.1z M269.2,213
				l-5.5-3.3l4.6-2.7c0.4-0.2,0.9-0.2,1.3,0l5.5,3.3l-4.6,2.7C270.2,213.2,269.7,213.2,269.2,213L269.2,213z M252.3,212.6l-5.5-3.3
				l4.6-2.7c0.2-0.1,0.4-0.2,0.7-0.1c0.2,0,0.5,0.1,0.7,0.2l5.5,3.3l-4.6,2.7c-0.2,0.1-0.4,0.2-0.7,0.1
				C252.7,212.7,252.5,212.7,252.3,212.6L252.3,212.6z M260.4,207.9l-5.5-3.3l4.6-2.7c0.4-0.2,0.9-0.2,1.3,0l5.5,3.2l-4.6,2.7
				C261.3,208.1,260.8,208.1,260.4,207.9L260.4,207.9z"/>
			
				<linearGradient id="SVGID_59_" gradientUnits="userSpaceOnUse" x1="-9424.5098" y1="104.955" x2="-9369.3193" y2="104.955" gradientTransform="matrix(1 0 0 -1 9564.7598 318.01)">
				<stop  offset="0" style="stop-color:#F5F5F5"/>
				<stop  offset="0.69" style="stop-color:#F7F7F7"/>
				<stop  offset="0.98" style="stop-color:#FEFEFE"/>
				<stop  offset="1" style="stop-color:#FFFFFF"/>
			</linearGradient>
			<path class="st70" d="M140.2,209.7l33.5,19.3l0,0l21.7-12.5l0,0L162,197.1l0,0L140.2,209.7L140.2,209.7z"/>
			<path class="st71" d="M248.6,234.8l-1.9-1.1l1-0.6l1.9,1.1L248.6,234.8z M256.7,230.1l-1.9-1.1l1-0.6l1.9,1.1L256.7,230.1z
				 M239.8,229.7l-1.9-1.1l1-0.6l1.9,1.1L239.8,229.7z M247.9,225l-1.9-1.1l1-0.6l1.9,1.1L247.9,225z M230.9,224.6l-1.9-1.1l1-0.6
				l1.9,1.1L230.9,224.6z M239,219.9l-1.9-1.1l1-0.6l1.9,1.1L239,219.9z M281,216.1l-1.9-1.1l1-0.6l1.9,1.1L281,216.1z M272.1,211
				l-1.9-1.1l1-0.6l1.9,1.1L272.1,211z M255.2,210.6l-1.9-1.1l1-0.6l1.9,1.1L255.2,210.6z M263.3,205.9l-1.9-1.1l1-0.6l1.9,1.1
				L263.3,205.9z M217.5,215.8l-1.9-1.1l1-0.6l1.9,1.1L217.5,215.8z M225.3,211.2l-4.7-2.8l1-0.6l4.7,2.8L225.3,211.2z M208.6,210.7
				l-1.9-1.1l1-0.6l1.9,1.1L208.6,210.7z M233.6,206.5l-1.9-1.1l1-0.6l1.9,1.1L233.6,206.5z M199.8,205.5l-1.9-1.1l1-0.6l1.9,1.1
				L199.8,205.5z M213.6,204.4l-1.9-1.1l1-0.6l1.9,1.1L213.6,204.4z M241.4,201.8l-4.7-2.7l1-0.6l4.7,2.8L241.4,201.8z M224.7,201.4
				l-1.9-1.1l1-0.6l1.9,1.1L224.7,201.4z M147.1,175l-1.9-1.1l1-0.6l1.9,1.1L147.1,175z M204.7,199.2l-1.9-1.1l1-0.6l1.9,1.1
				L204.7,199.2z M249.6,197.2l-1.8-1.1l1-0.6l1.9,1.1L249.6,197.2z M215.8,196.3l-1.8-1.1l1-0.6l1.9,1.1L215.8,196.3z M229.7,195.1
				l-1.9-1.1l1-0.6l1.9,1.1L229.7,195.1z M195.9,194.2l-1.9-1.1l1-0.6l1.9,1.1L195.9,194.2z M240.8,192.2l-1.9-1.1l1-0.6l1.9,1.1
				L240.8,192.2z M207,191.2l-1.9-1.1l1-0.6l1.9,1.1L207,191.2z M220.8,190l-1.9-1.1l1-0.6l1.9,1.1L220.8,190z M187,189.1l-1.9-1.1
				l1-0.6l1.9,1.1L187,189.1z M231.9,187.1L230,186l1-0.6l1.9,1.1L231.9,187.1z M198.1,186.2l-1.9-1.1l1-0.6l1.9,1.1L198.1,186.2z
				 M211.9,185l-1.9-1.1l1-0.6l1.9,1.1L211.9,185z M178.1,184l-1.9-1.1l1-0.6l1.9,1.1L178.1,184z M223,182l-1.9-1.1l1-0.6l1.9,1.1
				L223,182z M189.2,181.1l-1.9-1.1l1-0.6l1.9,1.1L189.2,181.1z M203.1,179.9l-1.9-1.1l1-0.6l1.9,1.1L203.1,179.9z M169.3,179
				l-1.9-1.1l1-0.6l1.9,1.1L169.3,179z M214.2,177l-1.9-1.1l1-0.6l1.9,1.1L214.2,177z M180.4,176l-1.9-1.1l1-0.6l1.9,1.1L180.4,176z
				 M194.2,174.8l-1.9-1.1l1-0.6l1.9,1.1L194.2,174.8z M160.4,173.9l-1.9-1.1l1-0.6l1.9,1.1L160.4,173.9z M205.3,171.9l-1.9-1.1
				l1-0.6l1.9,1.1L205.3,171.9z M171.5,171l-1.9-1.1l1-0.6l1.9,1.1L171.5,171z M137.8,170l-4.6-2.9l1-0.6l4.7,2.8L137.8,170z
				 M185.4,169.8l-1.9-1.1l1-0.6l1.9,1.1L185.4,169.8z M151.6,168.8l-1.9-1.1l1-0.6l1.9,1.1L151.6,168.8z M196.5,166.8l-1.9-1.1
				l1-0.6l1.9,1.1L196.5,166.8z M162.7,165.9l-1.9-1.1l1-0.6l1.9,1.1L162.7,165.9z M176.5,164.7l-1.9-1.1l1-0.6l1.9,1.1L176.5,164.7
				z M142.7,163.8l-1.9-1.1l1-0.6l1.9,1.1L142.7,163.8z M187.6,161.8l-1.9-1.1l1-0.6l1.9,1.1L187.6,161.8z M153.8,160.8l-4.7-2.8
				l1-0.6l4.7,2.8L153.8,160.8z M167.6,159.6l-1.9-1.1l1-0.6l1.9,1.1L167.6,159.6z M178.7,156.6l-1.9-1.1l1-0.6l1.9,1.1L178.7,156.6
				z M158.7,154.5l-1.7-1.4l1-0.6l1.9,1.1L158.7,154.5z M169.8,151.5l-4.7-2.8l1-0.6l4.7,2.8L169.8,151.5z"/>
			<path class="st72" d="M162,197.1L162,197.1l33.5,19.3l0,0l-1.5,0.8l-32-18.5l0,0l-20.3,11.7l-1.5-0.8l0,0L162,197.1z"/>
		</g>
		
			<linearGradient id="SVGID_60_" gradientUnits="userSpaceOnUse" x1="-9333.7959" y1="139.7878" x2="-9331.6162" y2="143.6878" gradientTransform="matrix(1 0 0 -1 9564.7598 318.01)">
			<stop  offset="0" style="stop-color:#D2D2D2"/>
			<stop  offset="0.52" style="stop-color:#EBEBEB"/>
			<stop  offset="1" style="stop-color:#C3C3C3"/>
		</linearGradient>
		<path class="st73" d="M164.2,137.1c0.1-0.3,0.3-0.6,0.6-0.9c0.2-0.2,0.4-0.4,0.7-0.6l135,78.5c-0.3,0.1-0.5,0.3-0.7,0.6
			c-0.2,0.3-0.4,0.6-0.6,0.9c-0.2,0.4-0.3,0.7-0.3,1.1c0,0.1,0,0.2,0,0.2l-135-78.5c0-0.1,0-0.2,0-0.2
			C164,137.8,164.1,137.5,164.2,137.1z"/>
		
			<linearGradient id="SVGID_61_" gradientUnits="userSpaceOnUse" x1="8086.5522" y1="-4606.5078" x2="8089.0923" y2="-4606.5078" gradientTransform="matrix(-0.8091 -0.465 0.48 -0.8352 9075.6943 139.3013)">
			<stop  offset="0" style="stop-color:#DEDEDE"/>
			<stop  offset="0.44" style="stop-color:#D4D4D4"/>
			<stop  offset="1" style="stop-color:#B4B4B4"/>
		</linearGradient>
		<path class="st74" d="M299.8,213.8c0.5-0.8,1.3-1.2,1.9-0.8c0.6,0.3,0.7,1.2,0.2,2s-1.3,1.2-1.9,0.8
			C299.4,215.5,299.3,214.6,299.8,213.8z"/>
		
			<radialGradient id="SVGID_62_" cx="9815.7598" cy="43.3" r="43.63" gradientTransform="matrix(-1 0 0 -1 10064.54 318.01)" gradientUnits="userSpaceOnUse">
			<stop  offset="0" style="stop-color:#FDFCF9"/>
			<stop  offset="1" style="stop-color:#D2D1CE"/>
		</radialGradient>
		<path class="st75" d="M240.1,284.1c1.8-4.6,8.6-13.5,19-17.5c8.3-3.1,18.7-6.4,31.1,0.8c0.5,0.3,0.9,0.6,1.3,0.9
			c4.5,3.3,4.3,8.8-0.4,12.2c-8.8,6.2-19.5,12-19.5,12c-2.6,1.4-5.4,2.6-8.4,3.3c-7.1,1.8-13.4,1.2-18.8-2c-3.4-2-5.1-4.5-5-7.1
			C239.5,285.8,239.7,284.9,240.1,284.1z"/>
		<path class="st76" d="M274.8,268.6l3.5-1.9c1.3-0.6,2.9-0.4,3.9,0.6c0.9,0.7,0.5,1-0.5,1.5l-3.5,1.6c-1.2,0.6-2.5,0.6-3.6,0
			C273.6,269.9,273.8,269.1,274.8,268.6z"/>
		<g>
			<defs>
				<path id="SVGID_63_" d="M282.5,268.1c0,0-4.1,2.4-6.2,2.6c-0.5,0-1-0.1-1.5-0.3c-0.5-0.2-0.8-0.8-0.6-1.8l0.9-4.4
					c0,0,4-3.5,5.8-1.5S283.1,266.7,282.5,268.1z"/>
			</defs>
			<clipPath id="SVGID_64_">
				<use xlink:href="#SVGID_63_"  style="overflow:visible;"/>
			</clipPath>
			<g class="st77">
				<g>
					<path class="st78" d="M277,265.8c1-0.7,2.4-0.7,3.4-0.1l-5,8C273,271.9,274.2,267.5,277,265.8z"/>
					<path class="st79" d="M275.5,269.8c0.6-1.5,1.6-2.8,2.9-3.6c0.5-0.3,1.1-0.5,1.7-0.5c0.3,0,0.5,0.1,0.7,0.2
						c0.7,0.4,1.3,1.1,1.5,2c0.9,3-2.7,8.2-6.2,6.3C275,273.5,274.8,271.8,275.5,269.8z"/>
					<path class="st80" d="M278,270.7c0.3-0.9,1-1.7,1.8-2.3c0.3-0.2,0.7-0.3,1-0.3c1,0.1,1.4,1.4,0.8,2.9c-0.3,0.9-1,1.7-1.8,2.3
						c-0.3,0.2-0.6,0.3-1,0.3C277.8,273.5,277.4,272.2,278,270.7z"/>
					<path class="st81" d="M275.2,269.6l0.1-0.3c0.3-0.7,0.8-1.4,1.3-2c0.4-0.5,0.9-0.9,1.5-1.2c0.5-0.3,1.1-0.5,1.7-0.5
						c0.3,0,0.5,0.1,0.7,0.2l0.4,0.2c-0.2-0.1-0.5-0.2-0.7-0.2c-0.6,0-1.2,0.1-1.7,0.5c-0.6,0.3-1.1,0.8-1.5,1.2
						c-0.5,0.6-1,1.3-1.3,2l-0.1,0.3c-0.8,2-0.5,3.8,0.5,4.4l-0.4-0.2C274.7,273.3,274.4,271.6,275.2,269.6z"/>
				</g>
			</g>
		</g>
		<path class="st76" d="M243.8,291.5c5.4,3.1,11.7,3.8,18.8,2c2.9-0.8,5.7-1.9,8.4-3.3c0,0,10.7-5.8,19.5-12
			c2.7-1.9,3.9-4.4,3.7-6.8c1.5,3.1,0.5,6.7-3,9.1c-8.8,6.2-19.5,12-19.5,12c-2.6,1.4-5.4,2.6-8.4,3.3c-7.1,1.8-13.4,1.2-18.8-2
			c-3.1-1.8-4.8-4.2-5-6.6C240.4,289,242,290.5,243.8,291.5z"/>
		<path class="st76" d="M244.1,292.6c5.4,3.1,11.7,3.8,18.8,2c2.9-0.8,5.7-1.9,8.4-3.3c0,0,10.7-5.8,19.5-12c2.8-2,4-4.8,3.6-7.4
			c1.1,2.9,0,6.2-3.3,8.5c-8.8,6.2-19.5,12-19.5,12c-2.6,1.4-5.4,2.6-8.4,3.3c-7.1,1.8-13.4,1.2-18.8-2c-2.9-1.7-4.5-3.9-4.9-6.1
			C240.4,289.8,242.1,291.5,244.1,292.6z"/>
	</g>
</g>
</svg>
