<svg xmlns="http://www.w3.org/2000/svg" xmlns:xlink="http://www.w3.org/1999/xlink" viewBox="0 0 450 363.32">
  <defs/>
  <defs>
    <linearGradient id="Безымянный_градиент_248" x1="17.03" x2="408.06" y1="258.9" y2="258.9" gradientUnits="userSpaceOnUse">
      <stop offset="0" stop-color="#c6c6c6"/>
      <stop offset="1" stop-color="#c4c4c4"/>
    </linearGradient>
    <linearGradient id="Безымянный_градиент_247" x1="16.85" x2="408.15" y1="258.77" y2="258.77" gradientUnits="userSpaceOnUse">
      <stop offset="0" stop-color="#c9c9c9"/>
      <stop offset="1" stop-color="#c5c5c5"/>
    </linearGradient>
    <linearGradient id="Безымянный_градиент_246" x1="16.66" x2="408.24" y1="258.65" y2="258.65" gradientUnits="userSpaceOnUse">
      <stop offset="0" stop-color="#cbcbcb"/>
      <stop offset="1" stop-color="#c5c5c5"/>
    </linearGradient>
    <linearGradient id="Безымянный_градиент_245" x1="16.48" x2="408.33" y1="258.52" y2="258.52" gradientUnits="userSpaceOnUse">
      <stop offset="0" stop-color="#cecece"/>
      <stop offset="1" stop-color="#c6c6c6"/>
    </linearGradient>
    <linearGradient id="Безымянный_градиент_244" x1="16.29" x2="408.42" y1="258.39" y2="258.39" gradientUnits="userSpaceOnUse">
      <stop offset="0" stop-color="#d0d0d0"/>
      <stop offset="1" stop-color="#c6c6c6"/>
    </linearGradient>
    <linearGradient id="Безымянный_градиент_243" x1="16.11" x2="408.51" y1="258.27" y2="258.27" gradientUnits="userSpaceOnUse">
      <stop offset="0" stop-color="#d3d3d3"/>
      <stop offset="1" stop-color="#c7c7c7"/>
    </linearGradient>
    <linearGradient id="Безымянный_градиент_242" x1="15.92" x2="408.6" y1="258.14" y2="258.14" gradientUnits="userSpaceOnUse">
      <stop offset="0" stop-color="#d5d5d5"/>
      <stop offset="1" stop-color="#c7c7c7"/>
    </linearGradient>
    <linearGradient id="Безымянный_градиент_241" x1="15.74" x2="408.69" y1="258.01" y2="258.01" gradientUnits="userSpaceOnUse">
      <stop offset="0" stop-color="#d8d8d8"/>
      <stop offset="1" stop-color="#c7c7c7"/>
    </linearGradient>
    <linearGradient id="Безымянный_градиент_240" x1="15.55" x2="408.78" y1="257.88" y2="257.88" gradientUnits="userSpaceOnUse">
      <stop offset="0" stop-color="#dadada"/>
      <stop offset="1" stop-color="#c8c8c8"/>
    </linearGradient>
    <linearGradient id="Безымянный_градиент_239" x1="15.37" x2="408.86" y1="257.76" y2="257.76" gradientUnits="userSpaceOnUse">
      <stop offset="0" stop-color="#ddd"/>
      <stop offset="1" stop-color="#c8c8c8"/>
    </linearGradient>
    <linearGradient id="Безымянный_градиент_238" x1="15.18" x2="408.95" y1="257.63" y2="257.63" gradientUnits="userSpaceOnUse">
      <stop offset="0" stop-color="#dfdfdf"/>
      <stop offset="1" stop-color="#c9c9c9"/>
    </linearGradient>
    <linearGradient id="Безымянный_градиент_237" x1="15" x2="409.04" y1="257.5" y2="257.5" gradientUnits="userSpaceOnUse">
      <stop offset="0" stop-color="#e2e2e2"/>
      <stop offset="1" stop-color="#c9c9c9"/>
    </linearGradient>
    <linearGradient id="Безымянный_градиент_236" x1="14.81" x2="409.13" y1="257.37" y2="257.37" gradientUnits="userSpaceOnUse">
      <stop offset="0" stop-color="#e4e4e4"/>
      <stop offset="1" stop-color="#cacaca"/>
    </linearGradient>
    <linearGradient id="Безымянный_градиент_235" x1="14.63" x2="409.22" y1="257.25" y2="257.25" gradientUnits="userSpaceOnUse">
      <stop offset="0" stop-color="#e7e7e7"/>
      <stop offset="1" stop-color="#cacaca"/>
    </linearGradient>
    <linearGradient id="Безымянный_градиент_234" x1="14.45" x2="409.31" y1="257.12" y2="257.12" gradientUnits="userSpaceOnUse">
      <stop offset="0" stop-color="#e9e9e9"/>
      <stop offset="1" stop-color="#cacaca"/>
    </linearGradient>
    <linearGradient id="Безымянный_градиент_233" x1="14.26" x2="409.4" y1="256.99" y2="256.99" gradientUnits="userSpaceOnUse">
      <stop offset="0" stop-color="#ececec"/>
      <stop offset="1" stop-color="#cbcbcb"/>
    </linearGradient>
    <linearGradient id="Безымянный_градиент_232" x1="14.08" x2="409.49" y1="256.87" y2="256.87" gradientUnits="userSpaceOnUse">
      <stop offset="0" stop-color="#eee"/>
      <stop offset="1" stop-color="#cbcbcb"/>
    </linearGradient>
    <linearGradient id="Безымянный_градиент_231" x1="13.89" x2="409.58" y1="256.74" y2="256.74" gradientUnits="userSpaceOnUse">
      <stop offset="0" stop-color="#f1f1f1"/>
      <stop offset="1" stop-color="#ccc"/>
    </linearGradient>
    <linearGradient id="Безымянный_градиент_230" x1="13.71" x2="409.67" y1="256.61" y2="256.61" gradientUnits="userSpaceOnUse">
      <stop offset="0" stop-color="#f3f3f3"/>
      <stop offset="1" stop-color="#ccc"/>
    </linearGradient>
    <linearGradient id="Безымянный_градиент_229" x1="13.52" x2="409.76" y1="256.48" y2="256.48" gradientUnits="userSpaceOnUse">
      <stop offset="0" stop-color="#f6f6f6"/>
      <stop offset="1" stop-color="#cdcdcd"/>
    </linearGradient>
    <linearGradient id="Безымянный_градиент_650" x1="13.34" x2="409.85" y1="256.36" y2="256.36" gradientUnits="userSpaceOnUse">
      <stop offset="0" stop-color="#f8f8f8"/>
      <stop offset="1" stop-color="#cdcdcd"/>
    </linearGradient>
    <linearGradient id="Безымянный_градиент_228" x1="16.43" x2="409.36" y1="262.26" y2="250.23" gradientUnits="userSpaceOnUse">
      <stop offset="0" stop-color="#f8f8f8"/>
      <stop offset="1" stop-color="#cfcfcf"/>
    </linearGradient>
    <linearGradient id="Безымянный_градиент_227" x1="19.81" x2="408.57" y1="267.97" y2="244.15" gradientUnits="userSpaceOnUse">
      <stop offset="0" stop-color="#f9f9f9"/>
      <stop offset="1" stop-color="#d1d1d1"/>
    </linearGradient>
    <linearGradient id="Безымянный_градиент_226" x1="23.47" x2="407.48" y1="273.46" y2="238.12" gradientUnits="userSpaceOnUse">
      <stop offset="0" stop-color="#f9f9f9"/>
      <stop offset="1" stop-color="#d3d3d3"/>
    </linearGradient>
    <linearGradient id="Безымянный_градиент_225" x1="27.38" x2="406.09" y1="278.74" y2="232.16" gradientUnits="userSpaceOnUse">
      <stop offset="0" stop-color="#f9f9f9"/>
      <stop offset="1" stop-color="#d5d5d5"/>
    </linearGradient>
    <linearGradient id="Безымянный_градиент_224" x1="31.55" x2="404.4" y1="283.78" y2="226.3" gradientUnits="userSpaceOnUse">
      <stop offset="0" stop-color="#fafafa"/>
      <stop offset="1" stop-color="#d7d7d7"/>
    </linearGradient>
    <linearGradient id="Безымянный_градиент_223" x1="35.93" x2="402.43" y1="288.58" y2="220.53" gradientUnits="userSpaceOnUse">
      <stop offset="0" stop-color="#fafafa"/>
      <stop offset="1" stop-color="#d9d9d9"/>
    </linearGradient>
    <linearGradient id="Безымянный_градиент_222" x1="40.53" x2="400.18" y1="293.12" y2="214.89" gradientUnits="userSpaceOnUse">
      <stop offset="0" stop-color="#fafafa"/>
      <stop offset="1" stop-color="#dbdbdb"/>
    </linearGradient>
    <linearGradient id="Безымянный_градиент_221" x1="45.31" x2="397.66" y1="297.39" y2="209.39" gradientUnits="userSpaceOnUse">
      <stop offset="0" stop-color="#fbfbfb"/>
      <stop offset="1" stop-color="#ddd"/>
    </linearGradient>
    <linearGradient id="Безымянный_градиент_220" x1="50.27" x2="394.87" y1="301.39" y2="204.03" gradientUnits="userSpaceOnUse">
      <stop offset="0" stop-color="#fbfbfb"/>
      <stop offset="1" stop-color="#dfdfdf"/>
    </linearGradient>
    <linearGradient id="Безымянный_градиент_219" x1="55.38" x2="391.84" y1="305.11" y2="198.83" gradientUnits="userSpaceOnUse">
      <stop offset="0" stop-color="#fbfbfb"/>
      <stop offset="1" stop-color="#e1e1e1"/>
    </linearGradient>
    <linearGradient id="Безымянный_градиент_218" x1="60.61" x2="388.57" y1="308.55" y2="193.81" gradientUnits="userSpaceOnUse">
      <stop offset="0" stop-color="#fcfcfc"/>
      <stop offset="1" stop-color="#e3e3e3"/>
    </linearGradient>
    <linearGradient id="Безымянный_градиент_217" x1="65.96" x2="385.07" y1="311.7" y2="188.97" gradientUnits="userSpaceOnUse">
      <stop offset="0" stop-color="#fcfcfc"/>
      <stop offset="1" stop-color="#e5e5e5"/>
    </linearGradient>
    <linearGradient id="Безымянный_градиент_216" x1="71.4" x2="381.36" y1="314.56" y2="184.33" gradientUnits="userSpaceOnUse">
      <stop offset="0" stop-color="#fcfcfc"/>
      <stop offset="1" stop-color="#e7e7e7"/>
    </linearGradient>
    <linearGradient id="Безымянный_градиент_215" x1="76.92" x2="377.44" y1="317.12" y2="179.9" gradientUnits="userSpaceOnUse">
      <stop offset="0" stop-color="#fdfdfd"/>
      <stop offset="1" stop-color="#e9e9e9"/>
    </linearGradient>
    <linearGradient id="Безымянный_градиент_214" x1="82.48" x2="373.34" y1="319.4" y2="175.68" gradientUnits="userSpaceOnUse">
      <stop offset="0" stop-color="#fdfdfd"/>
      <stop offset="1" stop-color="#ebebeb"/>
    </linearGradient>
    <linearGradient id="Безымянный_градиент_213" x1="88.08" x2="369.06" y1="321.39" y2="171.69" gradientUnits="userSpaceOnUse">
      <stop offset="0" stop-color="#fdfdfd"/>
      <stop offset="1" stop-color="#ededed"/>
    </linearGradient>
    <linearGradient id="Безымянный_градиент_212" x1="93.7" x2="364.62" y1="323.09" y2="167.92" gradientUnits="userSpaceOnUse">
      <stop offset="0" stop-color="#fefefe"/>
      <stop offset="1" stop-color="#efefef"/>
    </linearGradient>
    <linearGradient id="Безымянный_градиент_211" x1="99.31" x2="360.04" y1="324.51" y2="164.39" gradientUnits="userSpaceOnUse">
      <stop offset="0" stop-color="#fefefe"/>
      <stop offset="1" stop-color="#f1f1f1"/>
    </linearGradient>
    <linearGradient id="Безымянный_градиент_210" x1="104.9" x2="355.34" y1="325.66" y2="161.1" gradientUnits="userSpaceOnUse">
      <stop offset="0" stop-color="#fefefe"/>
      <stop offset="1" stop-color="#f3f3f3"/>
    </linearGradient>
    <linearGradient id="Безымянный_градиент_209" x1="110.45" x2="350.52" y1="326.53" y2="158.06" gradientUnits="userSpaceOnUse">
      <stop offset="0" stop-color="#fff"/>
      <stop offset="1" stop-color="#f5f5f5"/>
    </linearGradient>
    <linearGradient id="Безымянный_градиент_108" x1="115.94" x2="345.61" y1="327.15" y2="155.26" gradientUnits="userSpaceOnUse">
      <stop offset="0" stop-color="#fff"/>
      <stop offset="1" stop-color="#f7f7f7"/>
    </linearGradient>
    <linearGradient id="Безымянный_градиент_304" x1="-9462.61" x2="-9471.06" y1="51.93" y2="66.58" gradientTransform="translate(9592.98)" gradientUnits="userSpaceOnUse">
      <stop offset="0" stop-color="#fff"/>
      <stop offset=".02" stop-color="#fefefe"/>
      <stop offset=".31" stop-color="#f7f7f7"/>
      <stop offset="1" stop-color="#f5f5f5"/>
    </linearGradient>
    <linearGradient id="Безымянный_градиент_304-2" x1="-9483.39" x2="-9486.8" y1="57.97" y2="63.9" xlink:href="#Безымянный_градиент_304"/>
    <linearGradient id="Безымянный_градиент_304-3" x1="-9500.59" x2="-9518.45" y1="49.28" y2="80.2" xlink:href="#Безымянный_градиент_304"/>
    <linearGradient id="Безымянный_градиент_304-4" x1="-9525.29" x2="-9544.13" y1="76.18" y2="108.8" xlink:href="#Безымянный_градиент_304"/>
    <linearGradient id="Безымянный_градиент_304-5" x1="-9545.46" x2="-9567.3" y1="107.96" y2="145.79" xlink:href="#Безымянный_градиент_304"/>
    <linearGradient id="Безымянный_градиент_59" x1="10143.32" x2="10145.29" y1="103.73" y2="103.73" gradientTransform="matrix(-1 0 0 1 10238.59 -45.88)" gradientUnits="userSpaceOnUse">
      <stop offset="0" stop-color="#007b85"/>
      <stop offset=".65" stop-color="#00717b"/>
      <stop offset="1" stop-color="#006974"/>
    </linearGradient>
    <linearGradient id="Безымянный_градиент_59-2" x1="10139.31" x2="10150.33" y1="91.98" y2="91.98" xlink:href="#Безымянный_градиент_59"/>
    <linearGradient id="Безымянный_градиент_57" x1="89.11" x2="104.86" y1="77.84" y2="112.21" gradientUnits="userSpaceOnUse">
      <stop offset="0" stop-color="#04a6b7"/>
      <stop offset=".23" stop-color="#02a1ad"/>
      <stop offset=".44" stop-color="#00999e"/>
      <stop offset=".62" stop-color="#008f95"/>
      <stop offset=".91" stop-color="#00737d"/>
      <stop offset="1" stop-color="#006974"/>
    </linearGradient>
    <linearGradient id="Безымянный_градиент_51" x1="5239.94" x2="5241.67" y1="-8257.69" y2="-8254.69" gradientTransform="matrix(-.5 -.87 .87 -.5 9849.63 547.41)" gradientUnits="userSpaceOnUse">
      <stop offset="0" stop-color="#1e1f27"/>
      <stop offset=".36" stop-color="#21232b"/>
      <stop offset=".77" stop-color="#2b2d39"/>
      <stop offset="1" stop-color="#333644"/>
    </linearGradient>
    <linearGradient id="Безымянный_градиент_51-2" x1="5239.94" x2="5241.67" y1="-8276.64" y2="-8273.65" xlink:href="#Безымянный_градиент_51"/>
    <linearGradient id="Безымянный_градиент_113" x1="10570.23" x2="10705.13" y1="170.24" y2="170.24" gradientTransform="matrix(-1 0 0 1 10870.42 -45.88)" gradientUnits="userSpaceOnUse">
      <stop offset="0" stop-color="#f5f5f5"/>
      <stop offset=".69" stop-color="#f7f7f7"/>
      <stop offset=".98" stop-color="#fefefe"/>
      <stop offset="1" stop-color="#fff"/>
    </linearGradient>
    <linearGradient id="Безымянный_градиент_291" x1="10572.04" x2="10703.17" y1="169.52" y2="169.52" gradientTransform="matrix(-1 0 0 1 10870.42 -45.88)" gradientUnits="userSpaceOnUse">
      <stop offset="0" stop-color="#097b7b"/>
      <stop offset="1" stop-color="#00a1a6"/>
    </linearGradient>
    <linearGradient id="Безымянный_градиент_120" x1="-9399.47" x2="-9261.35" y1="117.76" y2="117.76" gradientTransform="translate(9564.76 -45.88)" gradientUnits="userSpaceOnUse">
      <stop offset="0" stop-color="#fcfcfc"/>
      <stop offset="1" stop-color="#fdfdfd"/>
    </linearGradient>
    <linearGradient id="Безымянный_градиент_303" x1="-9483.34" x2="-9348.44" y1="273.04" y2="273.04" gradientTransform="translate(9564.76 -45.88)" gradientUnits="userSpaceOnUse">
      <stop offset="0" stop-color="#dedede"/>
      <stop offset=".44" stop-color="#d4d4d4"/>
      <stop offset="1" stop-color="#b4b4b4"/>
    </linearGradient>
    <linearGradient id="Безымянный_градиент_120-2" x1="-9483.34" x2="-9264.83" y1="246.95" y2="246.95" xlink:href="#Безымянный_градиент_120"/>
    <linearGradient id="GradientFill_121" x1="8156.17" x2="8246.52" y1="288.09" y2="288.09" gradientTransform="matrix(-1 0 0 1 8462.83 -45.88)" gradientUnits="userSpaceOnUse">
      <stop offset="0" stop-color="#a7a6a6"/>
      <stop offset=".52" stop-color="#a3a2a2"/>
      <stop offset="1" stop-color="#999898"/>
    </linearGradient>
    <linearGradient id="GradientFill_121-2" x1="8159.42" x2="8162.64" y1="208.55" y2="208.55" xlink:href="#GradientFill_121"/>
    <linearGradient id="Безымянный_градиент_301" x1="8178.82" x2="8336.34" y1="237.14" y2="237.14" gradientTransform="matrix(-1 0 0 1 8462.83 0)" gradientUnits="userSpaceOnUse">
      <stop offset="0" stop-color="#8e9191"/>
      <stop offset="1" stop-color="#aeb3b3"/>
    </linearGradient>
    <linearGradient id="Безымянный_градиент_113-2" x1="-9424.52" x2="-9369.29" y1="258.92" y2="258.92" gradientTransform="translate(9564.76)" xlink:href="#Безымянный_градиент_113"/>
    <linearGradient id="Безымянный_градиент_284" x1="-9333.8" x2="-9331.62" y1="224.1" y2="220.2" gradientTransform="translate(9564.76)" gradientUnits="userSpaceOnUse">
      <stop offset="0" stop-color="#d2d2d2"/>
      <stop offset=".52" stop-color="#ebebeb"/>
      <stop offset="1" stop-color="#c3c3c3"/>
    </linearGradient>
    <linearGradient id="Безымянный_градиент_116" x1="8353.06" x2="8355.6" y1="5019.29" y2="5019.29" gradientTransform="matrix(0 -.93 -.96 0 5130.02 8053.87)" xlink:href="#Безымянный_градиент_303"/>
    <clipPath id="clip-path" transform="translate(0 -45.88)">
      <path d="M108.44 90.98l-9.16-7.41-9.09 17.94 5.04-2.9.03 11.38 4.09-2.36 4.08-2.36-.04-11.38 5.05-2.91z" class="cls-1"/>
    </clipPath>
    <clipPath id="clip-path-2" transform="translate(0 -45.88)">
      <path d="M282.52 314s-4.13 2.39-6.23 2.58a3.06 3.06 0 01-1.48-.26c-.51-.25-.81-.76-.62-1.78l.89-4.43s4-3.51 5.76-1.47 2.27 3.97 1.68 5.36z" class="cls-1"/>
    </clipPath>
    <radialGradient id="Безымянный_градиент_260" cx="9959.76" cy="320.59" r="43.63" gradientTransform="matrix(-1 0 0 1 10208.54 0)" gradientUnits="userSpaceOnUse">
      <stop offset="0" stop-color="#fdfcf9"/>
      <stop offset="1" stop-color="#d2d1ce"/>
    </radialGradient>
    <style>
      .cls-1{fill:none}.cls-2{isolation:isolate}.cls-103{mix-blend-mode:multiply}.cls-77{fill:#09b0ab}.cls-80{fill:#282a35}.cls-81{fill:#1e1f27}.cls-82{fill:#333644}.cls-83{fill:#2e313d}.cls-85{fill:#097b7b}.cls-103{fill:#d2d1ce;opacity:.6}
    </style>
  </defs>
  <g class="cls-2">
    <g id="_1" data-name="1">
      <g style="mix-blend-mode:multiply">
        <ellipse cx="224.26" cy="243.02" fill="#fdfdfd" opacity=".05" rx="220.96" ry="118.18"/>
        <ellipse cx="223.53" cy="243.68" fill="#fafafb" opacity=".1" rx="216.92" ry="115.4"/>
        <ellipse cx="222.79" cy="244.33" fill="#f8f8f8" opacity=".14" rx="212.88" ry="112.63"/>
        <ellipse cx="222.05" cy="244.99" fill="#f5f6f6" opacity=".19" rx="208.84" ry="109.85"/>
        <ellipse cx="221.32" cy="245.65" fill="#f3f3f4" opacity=".24" rx="204.8" ry="107.07"/>
        <ellipse cx="220.58" cy="246.3" fill="#f1f1f2" opacity=".29" rx="200.76" ry="104.3"/>
        <ellipse cx="219.84" cy="246.96" fill="#eeefef" opacity=".33" rx="196.72" ry="101.52"/>
        <ellipse cx="219.1" cy="247.62" fill="#ececed" opacity=".38" rx="192.68" ry="98.74"/>
        <ellipse cx="218.37" cy="248.27" fill="#eaeaeb" opacity=".43" rx="188.64" ry="95.97"/>
        <ellipse cx="217.63" cy="248.93" fill="#e7e8e9" opacity=".48" rx="184.59" ry="93.19"/>
        <ellipse cx="216.89" cy="249.59" fill="#e5e5e6" opacity=".52" rx="180.55" ry="90.41"/>
        <ellipse cx="216.16" cy="250.24" fill="#e2e3e4" opacity=".57" rx="176.51" ry="87.64"/>
        <ellipse cx="215.42" cy="250.9" fill="#e0e1e2" opacity=".62" rx="172.47" ry="84.86"/>
        <ellipse cx="214.68" cy="251.56" fill="#dedee0" opacity=".67" rx="168.43" ry="82.09"/>
        <ellipse cx="213.95" cy="252.21" fill="#dbdcdd" opacity=".71" rx="164.39" ry="79.31"/>
        <ellipse cx="213.21" cy="252.87" fill="#d9dadb" opacity=".76" rx="160.35" ry="76.53"/>
        <ellipse cx="212.47" cy="253.53" fill="#d7d7d9" opacity=".81" rx="156.31" ry="73.76"/>
        <ellipse cx="211.74" cy="254.18" fill="#d4d5d7" opacity=".86" rx="152.27" ry="70.98"/>
        <ellipse cx="211" cy="254.84" fill="#d2d3d4" opacity=".9" rx="148.23" ry="68.2"/>
        <ellipse cx="210.26" cy="255.49" fill="#cfd0d2" opacity=".95" rx="144.19" ry="65.43"/>
        <ellipse cx="209.53" cy="256.15" fill="#cdced0" rx="140.15" ry="62.65"/>
      </g>
      <path fill="#c4c4c4" fill-rule="evenodd" d="M74.46 179.2c76.25-44.05 200-44.05 276.31 0s76.27 115.6 0 159.64-200.06 44.08-276.31 0-76.32-115.56 0-159.64z" transform="translate(0 -45.88)"/>
      <path fill="url(#Безымянный_градиент_248)" fill-rule="evenodd" d="M74.31 179c76.3-44.07 200.15-44.07 276.5 0s76.33 115.64 0 159.7-200.2 44.1-276.5 0-76.37-115.56 0-159.7z" transform="translate(0 -45.88)"/>
      <path fill="url(#Безымянный_градиент_247)" fill-rule="evenodd" d="M74.17 178.88c76.35-44.08 200.29-44.08 276.7 0s76.38 115.69 0 159.76-200.34 44.11-276.7 0-76.43-115.64 0-159.76z" transform="translate(0 -45.88)"/>
      <path fill="url(#Безымянный_градиент_246)" fill-rule="evenodd" d="M74 178.73c76.41-44.1 200.43-44.1 276.89 0s76.43 115.73 0 159.81-200.48 44.13-276.89 0-76.46-115.68 0-159.81z" transform="translate(0 -45.88)"/>
      <path fill="url(#Безымянный_градиент_245)" fill-rule="evenodd" d="M73.88 178.57c76.46-44.11 200.57-44.11 277.08 0s76.49 115.77 0 159.87-200.62 44.14-277.08 0-76.54-115.72 0-159.87z" transform="translate(0 -45.88)"/>
      <path fill="url(#Безымянный_градиент_244)" fill-rule="evenodd" d="M73.74 178.42c76.51-44.13 200.71-44.13 277.28 0s76.54 115.81 0 159.93-200.76 44.16-277.28 0-76.59-115.77 0-159.93z" transform="translate(0 -45.88)"/>
      <path fill="url(#Безымянный_градиент_243)" fill-rule="evenodd" d="M73.59 178.26c76.57-44.15 200.85-44.15 277.47 0s76.59 115.85 0 160-200.9 44.17-277.47 0-76.64-115.82 0-160z" transform="translate(0 -45.88)"/>
      <path fill="url(#Безымянный_градиент_242)" fill-rule="evenodd" d="M73.45 178.11c76.62-44.16 201-44.16 277.67 0s76.65 115.89 0 160-201 44.19-277.67 0-76.7-115.81 0-160z" transform="translate(0 -45.88)"/>
      <path fill="url(#Безымянный_градиент_241)" fill-rule="evenodd" d="M73.3 178c76.67-44.18 201.13-44.18 277.86 0s76.7 115.93 0 160.1S150 382.26 73.3 338s-76.75-115.84 0-160z" transform="translate(0 -45.88)"/>
      <path fill="url(#Безымянный_градиент_240)" fill-rule="evenodd" d="M73.16 177.79c76.73-44.19 201.27-44.19 278.05 0s76.75 116 0 160.16-201.32 44.22-278.05 0-76.81-115.95 0-160.16z" transform="translate(0 -45.88)"/>
      <path fill="url(#Безымянный_градиент_239)" fill-rule="evenodd" d="M73 177.64c76.78-44.21 201.41-44.21 278.25 0s76.81 116 0 160.21-201.46 44.24-278.25 0-76.85-115.97 0-160.21z" transform="translate(0 -45.88)"/>
      <path fill="url(#Безымянный_градиент_238)" fill-rule="evenodd" d="M72.87 177.48c76.83-44.22 201.55-44.22 278.44 0s76.86 116.06 0 160.27-201.61 44.25-278.44 0-76.87-116.01 0-160.27z" transform="translate(0 -45.88)"/>
      <path fill="url(#Безымянный_градиент_237)" fill-rule="evenodd" d="M72.72 177.33c76.89-44.24 201.7-44.24 278.63 0s76.92 116.1 0 160.33-201.75 44.27-278.63 0-76.96-116.06 0-160.33z" transform="translate(0 -45.88)"/>
      <path fill="url(#Безымянный_градиент_236)" fill-rule="evenodd" d="M72.58 177.17c76.94-44.26 201.84-44.26 278.83 0s77 116.14 0 160.38-201.89 44.28-278.83 0-77.02-116.09 0-160.38z" transform="translate(0 -45.88)"/>
      <path fill="url(#Безымянный_градиент_235)" fill-rule="evenodd" d="M72.43 177c77-44.27 202-44.27 279 0s77 116.18 0 160.44-202 44.3-279 0-77.07-116.12 0-160.44z" transform="translate(0 -45.88)"/>
      <path fill="url(#Безымянный_градиент_234)" fill-rule="evenodd" d="M72.29 176.86c77-44.29 202.12-44.29 279.21 0s77.08 116.22 0 160.5-202.17 44.32-279.21 0-77.13-116.18 0-160.5z" transform="translate(0 -45.88)"/>
      <path fill="url(#Безымянный_градиент_233)" fill-rule="evenodd" d="M72.14 176.7c77.1-44.3 202.26-44.3 279.41 0s77.13 116.26 0 160.55-202.31 44.33-279.41 0S-5 221 72.14 176.7z" transform="translate(0 -45.88)"/>
      <path fill="url(#Безымянный_градиент_232)" fill-rule="evenodd" d="M72 176.55c77.16-44.32 202.4-44.32 279.6 0s77.18 116.3 0 160.61-202.45 44.35-279.6 0-77.23-116.26 0-160.61z" transform="translate(0 -45.88)"/>
      <path fill="url(#Безымянный_градиент_231)" fill-rule="evenodd" d="M71.86 176.39c77.21-44.33 202.54-44.33 279.8 0s77.24 116.35 0 160.67-202.59 44.36-279.8 0-77.29-116.3 0-160.67z" transform="translate(0 -45.88)"/>
      <path fill="url(#Безымянный_градиент_230)" fill-rule="evenodd" d="M71.71 176.24c77.26-44.35 202.68-44.35 280 0S429 292.62 351.7 337s-202.73 44.38-280 0-77.33-116.38.01-160.76z" transform="translate(0 -45.88)"/>
      <path fill="url(#Безымянный_градиент_229)" fill-rule="evenodd" d="M71.57 176.08c77.32-44.37 202.82-44.37 280.18 0s77.34 116.43 0 160.78-202.87 44.39-280.18 0-77.4-116.38 0-160.78z" transform="translate(0 -45.88)"/>
      <path fill="url(#Безымянный_градиент_650)" fill-rule="evenodd" d="M71.42 175.93c77.37-44.38 203-44.38 280.38 0s77.4 116.47 0 160.84-203 44.41-280.38 0-77.42-116.43 0-160.84z" transform="translate(0 -45.88)"/>
      <path fill="url(#Безымянный_градиент_228)" fill-rule="evenodd" d="M71.57 175.88c77.32-44.37 202.82-44.37 280.18 0s77.34 116.43 0 160.78-202.87 44.39-280.18 0-77.4-116.38 0-160.78z" transform="translate(0 -45.88)"/>
      <path fill="url(#Безымянный_градиент_227)" fill-rule="evenodd" d="M71.71 175.84c77.26-44.35 202.68-44.35 280 0s77.29 116.39 0 160.73-202.73 44.38-280 0-77.34-116.36 0-160.73z" transform="translate(0 -45.88)"/>
      <path fill="url(#Безымянный_градиент_226)" fill-rule="evenodd" d="M71.86 175.79c77.21-44.33 202.54-44.33 279.8 0s77.24 116.35 0 160.67-202.59 44.36-279.8 0-77.29-116.31 0-160.67z" transform="translate(0 -45.88)"/>
      <path fill="url(#Безымянный_градиент_225)" fill-rule="evenodd" d="M72 175.74c77.16-44.32 202.4-44.32 279.6 0s77.18 116.3 0 160.61-202.45 44.35-279.6 0-77.23-116.26 0-160.61z" transform="translate(0 -45.88)"/>
      <path fill="url(#Безымянный_градиент_224)" fill-rule="evenodd" d="M72.14 175.7c77.1-44.3 202.26-44.3 279.41 0s77.13 116.26 0 160.55-202.31 44.33-279.41 0S-5 220 72.14 175.7z" transform="translate(0 -45.88)"/>
      <path fill="url(#Безымянный_градиент_223)" fill-rule="evenodd" d="M72.29 175.65c77-44.29 202.12-44.29 279.21 0s77.08 116.22 0 160.5-202.17 44.32-279.21 0-77.13-116.15 0-160.5z" transform="translate(0 -45.88)"/>
      <path fill="url(#Безымянный_градиент_222)" fill-rule="evenodd" d="M72.43 175.61c77-44.27 202-44.27 279 0s77 116.18 0 160.44-202 44.3-279 0-77.07-116.14 0-160.44z" transform="translate(0 -45.88)"/>
      <path fill="url(#Безымянный_градиент_221)" fill-rule="evenodd" d="M72.58 175.56c76.94-44.26 201.84-44.26 278.83 0s77 116.14 0 160.38-201.89 44.28-278.83 0-77.02-116.09 0-160.38z" transform="translate(0 -45.88)"/>
      <path fill="url(#Безымянный_градиент_220)" fill-rule="evenodd" d="M72.72 175.52c76.89-44.24 201.7-44.24 278.63 0s76.92 116.1 0 160.33-201.75 44.27-278.63 0-76.96-116.06 0-160.33z" transform="translate(0 -45.88)"/>
      <path fill="url(#Безымянный_градиент_219)" fill-rule="evenodd" d="M72.87 175.47c76.83-44.22 201.55-44.22 278.44 0s76.86 116.06 0 160.27-201.61 44.26-278.44 0-76.87-116.01 0-160.27z" transform="translate(0 -45.88)"/>
      <path fill="url(#Безымянный_градиент_218)" fill-rule="evenodd" d="M73 175.43c76.78-44.21 201.41-44.21 278.25 0s76.81 116 0 160.21-201.46 44.24-278.25 0-76.85-115.97 0-160.21z" transform="translate(0 -45.88)"/>
      <path fill="url(#Безымянный_градиент_217)" fill-rule="evenodd" d="M73.16 175.38c76.73-44.19 201.27-44.19 278.05 0s76.75 116 0 160.16-201.32 44.22-278.05 0-76.81-115.94 0-160.16z" transform="translate(0 -45.88)"/>
      <path fill="url(#Безымянный_градиент_216)" fill-rule="evenodd" d="M73.3 175.34c76.67-44.18 201.13-44.18 277.86 0s76.7 115.93 0 160.1-201.16 44.2-277.86 0-76.75-115.9 0-160.1z" transform="translate(0 -45.88)"/>
      <path fill="url(#Безымянный_градиент_215)" fill-rule="evenodd" d="M73.45 175.29c76.62-44.16 201-44.16 277.67 0s76.65 115.89 0 160-201 44.19-277.67 0-76.7-115.81 0-160z" transform="translate(0 -45.88)"/>
      <path fill="url(#Безымянный_градиент_214)" fill-rule="evenodd" d="M73.59 175.25c76.57-44.15 200.85-44.15 277.47 0s76.59 115.85 0 160-200.9 44.17-277.47 0-76.64-115.83 0-160z" transform="translate(0 -45.88)"/>
      <path fill="url(#Безымянный_градиент_213)" fill-rule="evenodd" d="M73.74 175.2c76.51-44.13 200.71-44.13 277.28 0S427.55 291 351 335.13s-200.76 44.16-277.28 0-76.57-115.77.02-159.93z" transform="translate(0 -45.88)"/>
      <path fill="url(#Безымянный_градиент_212)" fill-rule="evenodd" d="M73.88 175.16C150.34 131 274.45 131 351 175.16s76.45 115.76 0 159.84-200.62 44.14-277.08 0-76.58-115.7-.04-159.84z" transform="translate(0 -45.88)"/>
      <path fill="url(#Безымянный_градиент_211)" fill-rule="evenodd" d="M74 175.11c76.41-44.1 200.43-44.1 276.89 0s76.43 115.73 0 159.81-200.48 44.13-276.89 0-76.46-115.68 0-159.81z" transform="translate(0 -45.88)"/>
      <path fill="url(#Безымянный_градиент_210)" fill-rule="evenodd" d="M74.17 175.07c76.35-44.08 200.29-44.08 276.7 0s76.38 115.69 0 159.76-200.34 44.11-276.7 0-76.43-115.65 0-159.76z" transform="translate(0 -45.88)"/>
      <path fill="url(#Безымянный_градиент_209)" fill-rule="evenodd" d="M74.31 175c76.3-44.07 200.15-44.07 276.5 0s76.33 115.64 0 159.7-200.2 44.1-276.5 0-76.37-115.58 0-159.7z" transform="translate(0 -45.88)"/>
      <path fill="url(#Безымянный_градиент_108)" fill-rule="evenodd" d="M74.46 175c76.25-44.05 200-44.05 276.31 0s76.27 115.6 0 159.64-200.06 44.08-276.31 0-76.32-115.58 0-159.64z" transform="translate(0 -45.88)"/>
      <g class="cls-2">
        <path fill="url(#Безымянный_градиент_304)" d="M127 50c-3.41-2-8.06-1.74-13.18 1.21a32.08 32.08 0 00-7.57 6.27l19 11.06a32.08 32.08 0 017.57-6.27c5.18-2.96 9.8-3.21 13.18-1.27z" transform="translate(0 -45.88)"/>
        <path fill="url(#Безымянный_градиент_304-2)" d="M103.55 54.49c-2.28-1.33-5.39-1.16-8.82.82-.52.3-1 .65-1.56 1l19 11.06c.51-.37 1-.72 1.56-1 3.43-2 6.54-2.14 8.82-.82z" transform="translate(0 -45.88)"/>
        <path fill="url(#Безымянный_градиент_304-3)" d="M88.38 47c-2.87-1.67-6.77-1.46-11.07 1C69.44 52.52 63 63.11 61.78 72.77l19 11.06C82 74.17 88.47 63.58 96.35 59c4.3-2.47 8.2-2.68 11.07-1z" transform="translate(0 -45.88)"/>
        <path fill="url(#Безымянный_градиент_304-4)" d="M61.78 72.77A15.53 15.53 0 0055.33 75c-8.8 5.07-16 17.34-16.54 28l19 11.06c.58-10.64 7.74-22.91 16.54-28a15.53 15.53 0 016.45-2.18z" transform="translate(0 -45.88)"/>
        <path fill="url(#Безымянный_градиент_304-5)" d="M38.8 102.93A14.9 14.9 0 0033 105c-8.75 5-15.79 17.55-15.74 28 0 5.28 1.88 9 4.85 10.71l19 11.06c-3-1.72-4.82-5.44-4.85-10.71-.05-10.41 7-22.93 15.74-28a14.9 14.9 0 015.84-2z" transform="translate(0 -45.88)"/>
        <path fill="#e2e1e1" d="M132.86 62.25a32.09 32.09 0 00-7.57 6.27c-2-4-6.41-5.1-11.52-2.16-.52.3-1 .65-1.56 1-.65-9.4-7.52-13.15-15.87-8.35C88.47 63.58 82 74.17 80.81 83.83A15.53 15.53 0 0074.37 86c-8.8 5.07-16 17.34-16.54 28a14.91 14.91 0 00-5.83 2c-8.75 5-15.79 17.55-15.74 28s7.19 14.73 15.94 9.7l80.89-46.59c10.41-6 18.78-20.89 18.72-33.26s-8.55-17.59-18.95-11.6z" transform="translate(0 -45.88)"/>
      </g>
      <g class="cls-2">
        <path fill="url(#Безымянный_градиент_59)" d="M95.23 52.72l-1.94-1.12.04 11.38 1.93 1.12-.03-11.38z"/>
        <path fill="url(#Безымянный_градиент_59-2)" d="M99.28 37.69l-1.94-1.13-9.08 17.95 1.93 1.12 9.09-17.94z"/>
        <path d="M108.44 45.1l-9.16-7.41-9.09 17.94 5.04-2.91.03 11.38 4.09-2.35 4.08-2.36-.04-11.38 5.05-2.91z" class="cls-77"/>
        <path fill="url(#Безымянный_градиент_57)" d="M117 85c0 12.17-5 26-19.62 33.35-10.93 5.49-19.21 1.21-19.24-11s8.52-27 19.12-33.11S117 72.83 117 85zm-19.63 31.17c9.53-5.5 17.25-18.88 17.22-29.83S107.53 71.5 98 77s-17 18-17 29 6.84 15.67 16.37 10.17" transform="translate(0 -45.88)"/>
        <path d="M118.49 86.24c0 12.17-8.52 27-19.11 33.1s-19.21 1.21-19.24-11 8.52-27 19.12-33.11 19.2-1.16 19.23 11.01zm-19.12 30.93c9.53-5.5 17.25-18.88 17.22-29.83s-7.8-15.34-17.33-9.88S82 96.34 82 107.29s7.81 15.38 17.34 9.88" class="cls-77" transform="translate(0 -45.88)"/>
      </g>
      <path d="M79.89 87.61l-13.3 7.68v-8.73l13.3-7.68v8.73z" class="cls-80"/>
      <g class="cls-2">
        <path d="M75.66 139.69v-2.08L70 134.3v2.08a.33.33 0 00.14.3l5.65 3.32a.33.33 0 01-.13-.31z" class="cls-81" transform="translate(0 -45.88)"/>
        <path d="M76.49 130.15a.33.33 0 00-.34 0l-5.72 3.3 5.69 3.32 5.72-3.3a.33.33 0 01.34 0z" class="cls-82" transform="translate(0 -45.88)"/>
        <path d="M70.43 133.48a1 1 0 00-.47.81l5.69 3.32a1 1 0 01.47-.81z" class="cls-83" transform="translate(0 -45.88)"/>
        <path d="M82.32 133.77c0-.3-.21-.42-.47-.27l-5.72 3.3a1 1 0 00-.47.81v2.08c0 .3.21.42.48.27l5.72-3.3a1 1 0 00.47-.81z" class="cls-80" transform="translate(0 -45.88)"/>
      </g>
      <g id="Axonometric_Cylinder" data-name="Axonometric Cylinder">
        <path id="Cylinder_face" d="M80.56 136.24c.68-.39 1.22-.07 1.22.71a2.7 2.7 0 01-1.22 2.12c-.67.39-1.22.07-1.22-.71a2.7 2.7 0 011.22-2.12z" class="cls-80" data-name="Cylinder face" transform="translate(0 -45.88)"/>
        <path id="Cylinder_body" fill="url(#Безымянный_градиент_51)" d="M79.71 139.16l-1.54-.89a.85.85 0 01-.37-.8 2.7 2.7 0 011.2-2.11.86.86 0 01.86-.09l1.54.89a.86.86 0 00-.86.09 2.7 2.7 0 00-1.22 2.12.85.85 0 00.39.79z" data-name="Cylinder body" transform="translate(0 -45.88)"/>
      </g>
      <path d="M119.73 214.73l-28.25-16.32a5.18 5.18 0 01-2.58-4.47v-49.05a5.72 5.72 0 00-2.9-4.95l-4.84-2.79c-.57-.33-1.34 1-.77 1.34l4.84 2.79a4.17 4.17 0 012.08 3.61v49.05a6.73 6.73 0 003.36 5.81L119 216.07a.77.77 0 00.77-1.34z" class="cls-85" transform="translate(0 -45.88)"/>
      <path d="M63.48 97.08l-13.31 7.69v-8.74l13.31-7.68v8.73z" class="cls-80"/>
      <g class="cls-2">
        <path d="M59.24 149.17v-2.08l-5.69-3.32v2.08a.33.33 0 00.14.3l5.69 3.32a.33.33 0 01-.14-.3z" class="cls-81" transform="translate(0 -45.88)"/>
        <path d="M60.08 139.62a.33.33 0 00-.34 0L54 143l5.69 3.32 5.72-3.3a.33.33 0 01.34 0z" class="cls-82" transform="translate(0 -45.88)"/>
        <path d="M54 143a1 1 0 00-.47.81l5.69 3.32a1 1 0 01.47-.81z" class="cls-83" transform="translate(0 -45.88)"/>
        <path d="M65.9 143.24c0-.3-.21-.42-.47-.27l-5.72 3.3a1 1 0 00-.47.81v2.08c0 .3.21.42.48.27l5.72-3.3a1 1 0 00.47-.81z" class="cls-80" transform="translate(0 -45.88)"/>
      </g>
      <g id="Axonometric_Cylinder-2" data-name="Axonometric Cylinder">
        <path id="Cylinder_face-2" d="M64.15 145.72c.67-.39 1.22-.07 1.22.71a2.7 2.7 0 01-1.22 2.12c-.68.39-1.22.07-1.22-.71a2.7 2.7 0 011.22-2.12z" class="cls-80" data-name="Cylinder face" transform="translate(0 -45.88)"/>
        <path id="Cylinder_body-2" fill="url(#Безымянный_градиент_51-2)" d="M63.29 148.63l-1.54-.89a.85.85 0 01-.37-.8 2.7 2.7 0 011.22-2.12.86.86 0 01.86-.09l1.54.89a.86.86 0 00-.86.09 2.7 2.7 0 00-1.22 2.12.85.85 0 00.37.8z" data-name="Cylinder body" transform="translate(0 -45.88)"/>
      </g>
      <path d="M103.32 224.2l-28.25-16.31a5.18 5.18 0 01-2.58-4.47v-49.06a5.72 5.72 0 00-2.86-4.95l-4.84-2.79c-.57-.33-1.34 1-.77 1.34l4.84 2.79a4.17 4.17 0 012.08 3.61v49.05a6.73 6.73 0 003.36 5.81l28.25 16.31a.77.77 0 10.77-1.34z" class="cls-85" transform="translate(0 -45.88)"/>
      <path d="M353.67 270.69l-50.26.74-72.68 42.75h-14.38L91.72 242l90.79-54.21 78.32 16.92 93.76 62.84a1.71 1.71 0 01-.92 3.14z" transform="translate(0 -45.88)" style="mix-blend-mode:multiply" fill="#dfe0d9"/>
      <g id="_14" data-name="14">
        <path fill="url(#Безымянный_градиент_113)" d="M300.18 111.92L165.29 33.44v103.44l134.89 78.39V111.92z"/>
        <path fill="url(#Безымянный_градиент_291)" d="M298.38 112.99L167.25 36.54v97.98l130.99 76.22.14-97.75z"/>
        <path fill="url(#Безымянный_градиент_120)" d="M303.4 110.06L168.19 31.84l-2.9 1.6 134.89 78.48 3.22-1.86z"/>
        <path fill="url(#Безымянный_градиент_303)" d="M216.31 264.4L81.42 186.01l.01 3.89 134.89 78.39-.01-3.89z"/>
        <path fill="url(#Безымянный_градиент_120-2)" d="M299.93 216.13l-134.89-78.39-83.62 48.27 134.89 78.39 83.62-48.27z"/>
        <path fill="url(#GradientFill_121)" d="M299.93 216.13v3.89l-83.61 48.27-.01-3.89 83.62-48.27z"/>
        <path fill="url(#GradientFill_121-2)" d="M300.18 215.27V111.92l3.22-1.86v103.31l-3.22 1.9z"/>
        <path fill="#7d8080" d="M146.65 226l41 23.68a2.13 2.13 0 001.93 0l4.62-2.68a.59.59 0 000-1.11l-41-23.68a2.13 2.13 0 00-1.93 0l-4.61 2.66a.59.59 0 00-.01 1.13zm94.2 16.2l4.61-2.66a2.13 2.13 0 011.93 0l5.48 3.17a.59.59 0 010 1.11l-4.61 2.66a2.13 2.13 0 01-1.93 0l-5.48-3.17a.59.59 0 01-.01-1.1zm-8.86-4l5.48 3.17a2.13 2.13 0 001.93 0l4.61-2.66a.59.59 0 000-1.11l-5.48-3.17a2.13 2.13 0 00-1.93 0l-4.6 2.67a.59.59 0 000 1.11zm-8.86-5.11l5.48 3.17a2.13 2.13 0 001.93 0l4.61-2.66a.59.59 0 000-1.11l-5.48-3.17a2.13 2.13 0 00-1.93 0l-4.61 2.68a.59.59 0 000 1.1zm-8.85-5.09l5.48 3.17a2.13 2.13 0 001.93 0l4.61-2.66a.59.59 0 000-1.11l-5.48-3.17a2.13 2.13 0 00-1.93 0l-4.61 2.66a.59.59 0 000 1.11zm-8.86-5.11l5.48 3.17a2.13 2.13 0 001.93 0l4.61-2.66a.59.59 0 000-1.11L212 219.1a2.13 2.13 0 00-1.93 0l-4.61 2.66a.59.59 0 00-.04 1.11zm-8.86-5.11l5.48 3.17a2.13 2.13 0 001.93 0l4.61-2.66a.59.59 0 000-1.11l-5.47-3.18a2.13 2.13 0 00-1.93 0l-4.61 2.66a.59.59 0 000 1.1zm-8.86-5.11l5.48 3.17a2.13 2.13 0 001.93 0l4.61-2.66a.59.59 0 000-1.11l-5.48-3.17a2.13 2.13 0 00-1.93 0l-4.61 2.66a.59.59 0 00.01 1.09zm-8.86-5.11l5.48 3.17a2.13 2.13 0 001.93 0l4.61-2.66a.59.59 0 000-1.11l-5.48-3.17a2.13 2.13 0 00-1.93 0l-4.61 2.66a.59.59 0 00.02 1.09zm-8.84-5.14l5.48 3.17a2.13 2.13 0 001.93 0l4.61-2.66a.59.59 0 000-1.11l-5.48-3.17a2.13 2.13 0 00-1.93 0l-4.61 2.66a.59.59 0 000 1.11zm-11.71-6.76l8.34 4.81a2.13 2.13 0 001.93 0l4.61-2.66a.59.59 0 000-1.11l-8.34-4.81a2.13 2.13 0 00-1.93 0l-4.61 2.66a.59.59 0 000 1.11zm89.8 80.34l5.48 3.17a2.13 2.13 0 001.93 0l4.61-2.66a.59.59 0 000-1.11l-5.48-3.17a2.13 2.13 0 00-1.93 0l-4.61 2.66a.59.59 0 000 1.11zm-8.86-5.11l5.48 3.17a2.13 2.13 0 001.93 0l4.61-2.66a.59.59 0 000-1.11l-5.48-3.17a2.13 2.13 0 00-1.93 0l-4.61 2.66a.59.59 0 000 1.1zm-8.86-5.11l5.48 3.17a2.13 2.13 0 001.93 0l4.61-2.66a.59.59 0 000-1.11l-5.47-3.18a2.13 2.13 0 00-1.93 0l-4.61 2.66a.59.59 0 000 1.11zm9.62 14.9l5.48 3.17a2.13 2.13 0 001.93 0l4.61-2.66a.59.59 0 000-1.11l-5.48-3.17a2.13 2.13 0 00-1.93 0l-4.6 2.65a.59.59 0 000 1.11zm-8.86-5.11l5.48 3.17a2.13 2.13 0 001.93 0l4.61-2.66a.59.59 0 000-1.11l-5.48-3.17a2.13 2.13 0 00-1.93 0l-4.61 2.66a.59.59 0 00.01 1.1zm-8.86-5.11l5.48 3.17a2.13 2.13 0 001.93 0l4.61-2.66a.59.59 0 000-1.11l-5.48-3.17a2.13 2.13 0 00-1.93 0l-4.61 2.66a.59.59 0 00.01 1.1zm7.46-24.15l8.34 4.81a2.13 2.13 0 001.93 0l4.61-2.66a.59.59 0 000-1.11l-8.34-4.81a2.13 2.13 0 00-1.93 0l-4.61 2.66a.59.59 0 00.01 1.1zm-8.86-5.11l5.48 3.17a2.13 2.13 0 001.93 0l4.61-2.66a.59.59 0 000-1.11l-5.48-3.17a2.13 2.13 0 00-1.93 0l-4.61 2.66a.59.59 0 00.02 1.1zm-8.87-5.13l5.48 3.17a2.13 2.13 0 001.93 0l4.61-2.66a.59.59 0 000-1.11l-5.48-3.17a2.13 2.13 0 00-1.93 0L212 235a.59.59 0 000 1.07zm-8.82-5.07l5.48 3.17a2.13 2.13 0 001.93 0l4.61-2.66a.59.59 0 000-1.11l-5.48-3.17a2.13 2.13 0 00-1.93 0l-4.61 2.66a.59.59 0 000 1.11zm-8.86-5.11l5.48 3.17a2.13 2.13 0 001.93 0l4.61-2.66a.59.59 0 000-1.11l-5.48-3.17a2.13 2.13 0 00-1.93 0l-4.61 2.66a.59.59 0 000 1.07zm-8.86-5.11l5.48 3.17a2.13 2.13 0 001.93 0l4.61-2.66a.59.59 0 000-1.11L192 217a2.13 2.13 0 00-1.93 0l-4.61 2.66a.59.59 0 00.01 1.08zm-8.86-5.11l5.48 3.17a2.13 2.13 0 001.93 0l4.61-2.66a.59.59 0 000-1.11l-5.48-3.17a2.13 2.13 0 00-1.93 0l-4.61 2.66a.59.59 0 00.01 1.06zm-8.86-5.11l5.48 3.17a2.13 2.13 0 001.93 0l4.61-2.66a.59.59 0 000-1.11l-5.48-3.17a2.13 2.13 0 00-1.93 0l-4.61 2.66a.59.59 0 00.01 1.06zm-8.86-5.11l5.48 3.17a2.13 2.13 0 001.93 0l4.61-2.66a.59.59 0 000-1.11l-5.48-3.17a2.13 2.13 0 00-1.93 0l-4.61 2.66a.59.59 0 00.02 1.06zm-8.88-5.16l5.48 3.17a2.13 2.13 0 001.93 0l4.61-2.66a.59.59 0 000-1.11l-5.48-3.17a2.13 2.13 0 00-1.93 0l-4.61 2.65a.59.59 0 000 1.12zm74.71 52.33l5.48 3.17a2.13 2.13 0 001.93 0l4.61-2.66a.59.59 0 000-1.11l-5.48-3.17a2.13 2.13 0 00-1.93 0l-4.61 2.66a.59.59 0 00.04 1.1zm-8.86-5.11l5.48 3.17a2.13 2.13 0 001.93 0l4.61-2.66a.59.59 0 000-1.11l-5.48-3.17a2.13 2.13 0 00-1.93 0l-4.61 2.66a.59.59 0 00.05 1.1zm-8.85-5.12l5.48 3.17a2.13 2.13 0 001.93 0l4.61-2.66a.59.59 0 000-1.11l-5.48-3.17a2.13 2.13 0 00-1.93 0l-4.61 2.65a.59.59 0 000 1.12zm-8.86-5.11l5.48 3.17a2.13 2.13 0 001.93 0l4.61-2.66a.59.59 0 000-1.11l-5.48-3.17a2.13 2.13 0 00-1.93 0l-4.61 2.66a.59.59 0 00.05 1.11zm10.51 24.61l5.48 3.17a2.13 2.13 0 001.93 0l4.61-2.66a.59.59 0 000-1.11l-5.48-3.17a2.13 2.13 0 00-1.93 0l-4.61 2.66a.59.59 0 00.04 1.1zm-8.86-5.11l5.48 3.17a2.13 2.13 0 001.93 0l4.61-2.66a.59.59 0 000-1.11l-5.43-3.18a2.13 2.13 0 00-1.93 0l-4.61 2.66a.59.59 0 000 1.11zm-8.79-5.12l5.48 3.17a2.13 2.13 0 001.93 0l4.61-2.66a.59.59 0 000-1.11l-5.48-3.17a2.13 2.13 0 00-1.93 0l-4.61 2.66a.59.59 0 000 1.11zm-53.2-30.76l5.48 3.17a2.13 2.13 0 001.93 0l4.61-2.66a.59.59 0 000-1.11l-5.48-3.17a2.13 2.13 0 00-1.93 0l-4.61 2.66a.59.59 0 000 1.11zm-11.6-6.65l8.34 4.82a2.13 2.13 0 001.93 0l4.61-2.66a.59.59 0 000-1.11l-8.34-4.82a2.13 2.13 0 00-1.93 0l-4.61 2.66a.59.59 0 000 1.11zm63.14 17.91l5.48 3.17a2.13 2.13 0 001.93 0l4.61-2.66a.59.59 0 000-1.11l-5.48-3.17a2.13 2.13 0 00-1.93 0l-4.62 2.61a.59.59 0 000 1.16zm-8.86-5.11l5.48 3.17a2.13 2.13 0 001.93 0l4.61-2.66a.59.59 0 000-1.11l-5.5-3.18a2.13 2.13 0 00-1.93 0l-4.61 2.66a.59.59 0 00.02 1.12zm-8.86-5.11l5.48 3.17a2.13 2.13 0 001.93 0l4.61-2.66a.59.59 0 000-1.11l-5.48-3.17a2.13 2.13 0 00-1.93 0l-4.61 2.66a.59.59 0 000 1.11zm-8.86-5.11l5.48 3.17a2.13 2.13 0 001.93 0l4.61-2.66a.59.59 0 000-1.11l-5.47-3.23a2.13 2.13 0 00-1.93 0l-4.61 2.66a.59.59 0 000 1.17zm-8.86-5.11l5.48 3.17a2.13 2.13 0 001.93 0l4.61-2.66a.59.59 0 000-1.11l-5.48-3.17a2.13 2.13 0 00-1.93 0l-4.61 2.66a.59.59 0 00.01 1.1zM142.2 205l8.34 4.81a2.13 2.13 0 001.93 0l4.61-2.66a.59.59 0 000-1.11l-8.34-4.81a2.13 2.13 0 00-1.93 0l-4.61 2.66a.59.59 0 000 1.11zm71.45 50.64l8.35 4.76a2.13 2.13 0 001.93 0l4.61-2.66a.59.59 0 000-1.11l-8.34-4.81a2.13 2.13 0 00-1.93 0l-4.61 2.66a.59.59 0 00-.01 1.11zm-8.86-5.11l5.48 3.17a2.13 2.13 0 001.93 0l4.61-2.66a.59.59 0 000-1.11l-5.48-3.17a2.13 2.13 0 00-1.93 0l-4.61 2.66a.59.59 0 000 1.06zm-8.86-5.11l5.48 3.17a2.13 2.13 0 001.93 0l4.61-2.66a.59.59 0 000-1.11l-5.48-3.17a2.13 2.13 0 00-1.93 0l-4.61 2.66a.59.59 0 00.01 1.05zm-8.86-5.11l5.48 3.17a2.13 2.13 0 001.93 0l4.61-2.66a.59.59 0 000-1.11l-5.48-3.17a2.13 2.13 0 00-1.93 0l-4.61 2.66a.59.59 0 00.01 1.05zm-8.86-5.11l5.48 3.17a2.13 2.13 0 001.93 0l4.61-2.66a.59.59 0 000-1.11l-5.48-3.17a2.13 2.13 0 00-1.93 0l-4.59 2.57a.59.59 0 000 1.14zm-8.84-5.2l5.48 3.17a2.13 2.13 0 001.93 0l4.61-2.66a.59.59 0 000-1.11l-5.48-3.17a2.13 2.13 0 00-1.93 0l-4.61 2.66a.59.59 0 000 1.11zm-8.86-5.11l5.48 3.17a2.13 2.13 0 001.93 0l4.61-2.66a.59.59 0 000-1.11l-5.48-3.17a2.13 2.13 0 00-1.93 0l-4.61 2.66a.59.59 0 00.01 1.13zm-8.86-5.11l5.48 3.17a2.13 2.13 0 001.93 0l4.61-2.66a.59.59 0 000-1.11l-5.46-3.18a2.13 2.13 0 00-1.93 0l-4.61 2.66a.59.59 0 00-.01 1.14zm-8.86-5.11l5.48 3.17a2.13 2.13 0 001.93 0l4.61-2.66a.59.59 0 000-1.11l-5.48-3.17a2.13 2.13 0 00-1.93 0l-4.61 2.66a.59.59 0 00.02 1.13zm-8.79-5.09l5.48 3.17a2.13 2.13 0 001.93 0l4.61-2.66a.59.59 0 000-1.11l-5.48-3.17a2.13 2.13 0 00-1.93 0l-4.61 2.65a.59.59 0 000 1.12zM272.33 262l5.48 3.17a2.13 2.13 0 001.93 0l4.61-2.66a.59.59 0 000-1.11l-5.48-3.17a2.13 2.13 0 00-1.93 0l-4.61 2.66a.59.59 0 000 1.11zm-8.86-5.11l5.48 3.17a2.13 2.13 0 001.93 0l4.61-2.66a.59.59 0 000-1.11l-5.49-3.18a2.13 2.13 0 00-1.93 0l-4.61 2.66a.59.59 0 00.01 1.12zm-8.86-5.11l5.48 3.17a2.13 2.13 0 001.93 0l4.61-2.66a.59.59 0 000-1.11l-5.47-3.18a2.13 2.13 0 00-1.93 0l-4.61 2.66a.59.59 0 000 1.12zm-8.08 4.66l5.48 3.17a2.13 2.13 0 001.93 0l4.61-2.66a.59.59 0 000-1.11l-5.48-3.17a2.13 2.13 0 00-1.93 0l-4.61 2.66a.59.59 0 00.01 1.11zM238.7 261l23.05 13.31a2.65 2.65 0 002.4 0l12.11-7a.73.73 0 000-1.38l-13.9-8a2.65 2.65 0 00-2.4 0l-6.07 3.51a1.5 1.5 0 01-1.35 0L244.8 257a1.77 1.77 0 00-1.6 0l-4.51 2.6a.73.73 0 00.01 1.4z" transform="translate(0 -45.88)"/>
        <path fill="url(#Безымянный_градиент_301)" d="M187.86 248.46l-41-23.77 4.62-2.67a1.53 1.53 0 011.34 0l41 23.77-4.62 2.67a1.53 1.53 0 01-1.34 0zm26.61 15.27l-5.47-3.25 4.61-2.67a1.41 1.41 0 01.67-.15 1.38 1.38 0 01.67.16l5.48 3.26-4.62 2.67a1.53 1.53 0 01-1.34 0zm7.81-4.65l-8.34-4.91 4.62-2.67a1.53 1.53 0 011.34 0l8.34 4.91-4.62 2.67a1.53 1.53 0 01-1.34 0zm-16.67-.47l-5.48-3.26 4.61-2.67a1.41 1.41 0 01.67-.15 1.38 1.38 0 01.67.16l5.48 3.26-4.56 2.68a1.53 1.53 0 01-1.34 0zm24.91-4.16l-5.52-3.24 4.62-2.67a1.53 1.53 0 011.34 0l5.48 3.25-4.61 2.67a1.56 1.56 0 01-1.34 0zm-33.77-1l-5.48-3.26 4.61-2.67a1.41 1.41 0 01.67-.15 1.38 1.38 0 01.67.16l5.48 3.26-4.62 2.67a1.53 1.53 0 01-1.34 0zm13.81-1.18l-5.48-3.25 4.62-2.67a1.53 1.53 0 011.34 0l5.48 3.26-4.62 2.67a1.53 1.53 0 01-1.34 0zm27.8-2.53l-8.36-4.85 4.62-2.67a1.53 1.53 0 011.34 0l8.34 4.91-4.62 2.67a1.53 1.53 0 01-1.34 0zm-16.7-.45l-5.48-3.26 4.61-2.67a1.41 1.41 0 01.67-.15 1.39 1.39 0 01.67.16l5.48 3.25-4.61 2.73a1.53 1.53 0 01-1.34 0zm-78.16-26.41l-5.5-3.2 4.61-2.67a1.41 1.41 0 01.67-.15 1.38 1.38 0 01.67.16l5.48 3.26-4.61 2.67a1.41 1.41 0 01-.67.15 1.38 1.38 0 01-.63-.16zm58.2 24.27l-5.47-3.15 4.62-2.67a1.53 1.53 0 011.34 0l5.48 3.26-4.62 2.67a1.53 1.53 0 01-1.34 0zm44.9-2l-5.48-3.26 4.62-2.67a1.53 1.53 0 011.34 0l5.48 3.25-4.56 2.71a1.53 1.53 0 01-1.34 0zm-33.8-.93l-5.47-3.22 4.61-2.67a1.41 1.41 0 01.67-.15 1.38 1.38 0 01.67.16l5.48 3.26-4.62 2.67a1.53 1.53 0 01-1.34 0zm13.84-1.2l-5.48-3.26 4.62-2.67a1.53 1.53 0 011.34 0l5.48 3.26L228 243a1.53 1.53 0 01-1.34 0zm-33.8-.94l-5.48-3.26 4.61-2.67a1.41 1.41 0 01.67-.15 1.38 1.38 0 01.67.16l5.48 3.25-4.62 2.67a1.53 1.53 0 01-1.34 0zm44.9-2l-5.48-3.26 4.61-2.67a1.41 1.41 0 01.67-.15 1.38 1.38 0 01.67.16l5.48 3.25-4.62 2.67a1.53 1.53 0 01-1.34 0zm-33.8-.93l-5.48-3.26 4.61-2.67a1.41 1.41 0 01.67-.15 1.38 1.38 0 01.67.16l5.48 3.26-4.62 2.67a1.53 1.53 0 01-1.34 0zm13.84-1.2l-5.48-3.26 4.62-2.67a1.53 1.53 0 011.34 0l5.48 3.26-4.62 2.67a1.53 1.53 0 01-1.34 0zM184 237l-5.48-3.26 4.61-2.67a1.41 1.41 0 01.67-.15 1.38 1.38 0 01.67.16l5.48 3.25-4.6 2.67a1.53 1.53 0 01-1.34 0zm44.9-2l-5.48-3.26L228 229a1.41 1.41 0 01.67-.15 1.39 1.39 0 01.67.16l5.48 3.26-4.57 2.73a1.53 1.53 0 01-1.34 0zm-33.8-.93l-5.48-3.26 4.61-2.67a1.41 1.41 0 01.67-.15 1.38 1.38 0 01.67.16l5.48 3.25-4.6 2.6a1.41 1.41 0 01-.67.15 1.38 1.38 0 01-.67-.15zm13.84-1.2l-5.48-3.26 4.62-2.67a1.53 1.53 0 011.34 0l5.48 3.25-4.62 2.67a1.53 1.53 0 01-1.34 0zm-33.8-.94l-5.48-3.26 4.61-2.67a1.41 1.41 0 01.67-.15 1.38 1.38 0 01.67.16l5.48 3.26-4.62 2.67a1.53 1.53 0 01-1.34 0zm44.9-2l-5.48-3.26 4.61-2.67a1.41 1.41 0 01.67-.15 1.39 1.39 0 01.67.16l5.48 3.26-4.62 2.67a1.53 1.53 0 01-1.34 0zm-33.8-.93l-5.48-3.26 4.61-2.67a1.41 1.41 0 01.67-.15 1.38 1.38 0 01.67.16l5.48 3.25-4.61 2.67a1.41 1.41 0 01-.67.15 1.38 1.38 0 01-.66-.25zm13.84-1.2l-5.48-3.26 4.61-2.67a1.41 1.41 0 01.67-.15 1.38 1.38 0 01.67.16l5.48 3.26-4.62 2.67a1.53 1.53 0 01-1.34 0zm-33.8-.94l-5.48-3.25 4.61-2.67a1.41 1.41 0 01.67-.15 1.39 1.39 0 01.67.16l5.48 3.26-4.61 2.67a1.41 1.41 0 01-.67.15 1.38 1.38 0 01-.65-.27zm44.9-2l-5.48-3.26 4.61-2.67a1.41 1.41 0 01.67-.15 1.38 1.38 0 01.67.16l5.48 3.25-4.61 2.67a1.41 1.41 0 01-.67.15 1.38 1.38 0 01-.65-.29zm-33.8-.93l-5.48-3.26 4.61-2.67a1.41 1.41 0 01.67-.15 1.38 1.38 0 01.67.16l5.48 3.26-4.61 2.67a1.41 1.41 0 01-.67.15 1.38 1.38 0 01-.65-.3zm13.84-1.2l-5.48-3.26 4.61-2.67a1.41 1.41 0 01.67-.15 1.38 1.38 0 01.67.16l5.48 3.26-4.62 2.67a1.53 1.53 0 01-1.34 0zm-33.8-.94l-5.42-3.4 4.61-2.67a1.41 1.41 0 01.67-.15 1.38 1.38 0 01.67.16l5.45 3.27-4.61 2.67a1.41 1.41 0 01-.67.15 1.38 1.38 0 01-.68-.17zm44.9-2l-5.48-3.26 4.61-2.67a1.41 1.41 0 01.67-.15 1.38 1.38 0 01.67.16l5.48 3.25-4.61 2.67a1.41 1.41 0 01-.67.15 1.38 1.38 0 01-.64-.33zm-33.8-.93l-5.48-3.26 4.61-2.67a1.41 1.41 0 01.67-.15 1.38 1.38 0 01.67.16l5.51 3.06-4.61 2.67a1.41 1.41 0 01-.67.15 1.38 1.38 0 01-.68-.14zm-33.72-.93l-8.34-4.91 4.61-2.67a1.41 1.41 0 01.67-.15 1.38 1.38 0 01.67.16l8.34 4.91-4.62 2.67a1.53 1.53 0 01-1.34 0zm47.56-.28l-5.48-3.26 4.61-2.67a1.41 1.41 0 01.67-.15 1.39 1.39 0 01.67.16l5.48 3.26-4.62 2.67a1.53 1.53 0 01-1.34 0zm-33.8-.94l-5.48-3.26 4.61-2.67a1.41 1.41 0 01.67-.15 1.38 1.38 0 01.67.16l5.48 3.25-4.61 2.67a1.41 1.41 0 01-.67.15 1.38 1.38 0 01-.64-.32zm44.9-2l-5.46-3.47 4.61-2.67a1.41 1.41 0 01.67-.15 1.38 1.38 0 01.67.16l5.48 3.26-4.61 2.67a1.41 1.41 0 01-.67.15 1.38 1.38 0 01-.66-.16zm-33.8-.93l-5.48-3.26 4.61-2.67a1.41 1.41 0 01.67-.15 1.38 1.38 0 01.67.16l5.48 3.25-4.61 2.46a1.41 1.41 0 01-.67.15 1.39 1.39 0 01-.64-.16zm13.84-1.2l-5.5-3.48 4.61-2.67a1.41 1.41 0 01.67-.15 1.38 1.38 0 01.67.16l5.48 3.25-4.61 2.67a1.41 1.41 0 01-.67.15 1.38 1.38 0 01-.62-.15zm-33.8-.94l-5.48-3.26 4.61-2.67a1.41 1.41 0 01.67-.15 1.38 1.38 0 01.67.16l5.48 3.26-4.61 2.67a1.41 1.41 0 01-.67.15 1.38 1.38 0 01-.64-.38zm44.9-2l-5.48-3.26 4.61-2.67a1.41 1.41 0 01.67-.15 1.38 1.38 0 01.67.16l5.48 3.26-4.55 2.41a1.41 1.41 0 01-.67.15 1.38 1.38 0 01-.69-.15zm-33.8-.93l-8.34-4.91 4.61-2.67a1.41 1.41 0 01.67-.15 1.38 1.38 0 01.67.16l8.34 4.91-4.61 2.67a1.41 1.41 0 01-.67.15 1.38 1.38 0 01-.64-.42zm94.89 74.24l-5.48-3.26 4.61-2.67a1.41 1.41 0 01.67-.15 1.38 1.38 0 01.67.16l5.48 3.26-4.61 2.67a1.41 1.41 0 01-.67.15 1.38 1.38 0 01-.64-.42zm-81-75.44l-5.5-3.51 4.61-2.67a1.41 1.41 0 01.67-.15 1.38 1.38 0 01.67.16l5.48 3.25-4.62 2.66a1.41 1.41 0 01-.67.15 1.38 1.38 0 01-.65-.15zm11.1-3L170.3 201l4.61-2.67a1.41 1.41 0 01.67-.15 1.38 1.38 0 01.67.16l5.48 3.25-4.61 2.67a1.41 1.41 0 01-.67.15 1.38 1.38 0 01-.67-.14zm78 73.74l-5.48-3.25 4.62-2.67a1.53 1.53 0 011.34 0l5.48 3.26-4.6 2.41a1.53 1.53 0 01-1.34 0zm-16.95-.44l-5.48-3.26 4.61-2.67a1.41 1.41 0 01.67-.15 1.38 1.38 0 01.67.16l5.48 3.26-4.61 2.67a1.41 1.41 0 01-.67.15 1.38 1.38 0 01-.64-.39zm-81-75.44l-5.48-3.26 4.61-2.67a1.41 1.41 0 01.67-.15 1.38 1.38 0 01.67.16l5.48 3.26-4.61 2.67a1.41 1.41 0 01-.67.15 1.38 1.38 0 01-.69-.39zm11.1-3l-8.34-4.91 4.61-2.67a1.41 1.41 0 01.67-.15 1.39 1.39 0 01.67.16l8.34 4.9-4.61 2.67a1.41 1.41 0 01-.67.15 1.38 1.38 0 01-.68-.36zm95.07 74l-23.05-13.31v-.36l4.51-2.61a1.06 1.06 0 01.5-.11 1.1 1.1 0 01.51.11l7.75 4.41a2 2 0 001 .24 2 2 0 001-.24l6.07-3.51a2.06 2.06 0 011.81 0l13.9 8v.36l-12.11 7a2.06 2.06 0 01-1.81 0zm-17-.27l-5.48-3.26 4.62-2.67a1.53 1.53 0 011.34 0l5.48 3.25-4.62 2.67a1.53 1.53 0 01-1.34 0zm-17.01-.64l-5.48-3.26 4.61-2.67a1.41 1.41 0 01.67-.15 1.38 1.38 0 01.67.16l5.53 3.26-4.61 2.67a1.41 1.41 0 01-.67.15 1.39 1.39 0 01-.72-.16zm8.09-4.68l-5.48-3.26 4.61-2.67a1.41 1.41 0 01.67-.15 1.38 1.38 0 01.67.16l5.48 3.25-4.62 2.67a1.53 1.53 0 01-1.34 0zm42-3.77l-5.48-3.25 4.61-2.67a1.41 1.41 0 01.67-.15 1.38 1.38 0 01.67.16l5.48 3.26-4.64 2.64a1.41 1.41 0 01-.67.15 1.38 1.38 0 01-.67-.15zm-8.86-5.11l-5.48-3.26 4.62-2.67a1.53 1.53 0 011.34 0l5.48 3.26-4.61 2.67a1.56 1.56 0 01-1.34 0zm-16.93-.45l-5.48-3.26 4.61-2.67a1.41 1.41 0 01.67-.15 1.39 1.39 0 01.67.16l5.48 3.26-4.61 2.67a1.41 1.41 0 01-.67.15 1.38 1.38 0 01-.7-.15zm8.08-4.66l-5.48-3.26 4.62-2.67a1.53 1.53 0 011.34 0l5.48 3.25-4.61 2.67a1.56 1.56 0 01-1.34 0z" transform="translate(0 -45.88)"/>
        <path fill="url(#Безымянный_градиент_113-2)" d="M140.25 255.54l33.48 19.33 21.71-12.54L162 243l-21.75 12.5v.04z" transform="translate(0 -45.88)"/>
        <path fill="#fff" d="M248.65 280.68l-1.85-1.1 1-.56 1.85 1.1zm8.09-4.68l-1.85-1.1 1-.56 1.85 1.1zm-16.95-.44l-1.85-1.1 1-.56 1.85 1.1zm8.09-4.68l-1.85-1.1 1-.56 1.85 1.1zm-16.95-.44l-1.85-1.1 1-.56 1.85 1.1zm8.09-4.68l-1.85-1.1 1-.56 1.85 1.1zM281 262l-1.85-1.1 1-.56 1.85 1.1zm-8.86-5.11l-1.85-1.1 1-.56 1.85 1.1zm-16.93-.45l-1.85-1.1 1-.56 1.85 1.1zm8.07-4.66l-1.85-1.1 1-.56 1.85 1.1zm-45.78 9.92l-1.85-1.1 1-.56 1.85 1.1zm7.81-4.65l-4.69-2.76 1-.55 4.69 2.76zm-16.66-.47l-1.85-1.1 1-.56 1.85 1.1zm24.91-4.16l-1.85-1.1 1-.56 1.85 1.1zm-33.77-1l-1.85-1.1 1-.56 1.85 1.1zm13.81-1.18l-1.85-1.1 1-.56 1.85 1.1zm27.8-2.53l-4.69-2.71 1-.55 4.69 2.76zm-16.7-.45l-1.85-1.1 1-.56 1.85 1.1zm-77.64-26.4l-1.85-1.1 1-.56 1.85 1.1zm57.68 24.26l-1.85-1.1 1-.56 1.85 1.1zm44.9-2L247.8 242l1-.56 1.85 1.1zm-33.8-.93L214 241.1l1-.56 1.85 1.1zm13.84-1.2l-1.85-1.1 1-.56 1.85 1.1zm-33.8-.94L194 239l1-.56 1.85 1.1zm44.9-2l-1.85-1.1 1-.56 1.85 1.1zm-33.8-.93l-1.85-1.1 1-.56 1.85 1.1zm13.84-1.2l-1.85-1.1 1-.56 1.85 1.1zM187 235l-1.85-1.1 1-.56 1.85 1.1zm44.9-2l-1.85-1.1 1-.56 1.85 1.1zm-33.8-.93l-1.85-1.1 1-.56 1.85 1.1zm13.84-1.2l-1.85-1.1 1-.56 1.85 1.1zm-33.8-.94l-1.85-1.1 1-.56 1.85 1.1zm44.9-2l-1.85-1.1 1-.56 1.85 1.1zm-33.8-.93l-1.85-1.1 1-.56 1.85 1.1zm13.84-1.2l-1.85-1.1 1-.56 1.85 1.1zm-33.8-.94l-1.85-1.1 1-.56 1.85 1.1zm44.9-2l-1.86-1.1 1-.56 1.85 1.1zm-33.8-.94l-1.85-1.1 1-.56 1.86 1.1zm13.84-1.2l-1.85-1.1 1-.56 1.85 1.1zm-33.8-.94l-1.85-1.1 1-.56 1.85 1.1zm44.9-2l-1.85-1.1 1-.56 1.85 1.1zm-33.8-.93l-1.85-1.1 1-.56 1.86 1.1zm-33.72-.93l-4.64-2.92 1-.55 4.69 2.76zm47.56-.28l-1.85-1.1 1-.56 1.85 1.1zm-33.8-.94l-1.85-1.1 1-.56 1.85 1.1zm44.9-2l-1.85-1.1 1-.56 1.85 1.1zm-33.8-.93l-1.85-1.1 1-.56 1.85 1.1zm13.84-1.2l-1.85-1.1 1-.56 1.85 1.1zm-33.8-.94l-1.85-1.1 1-.56 1.85 1.1zm44.9-2l-1.85-1.1 1-.56 1.85 1.1zm-33.8-.93l-4.69-2.76 1-.55 4.69 2.76zm13.85-1.2l-1.85-1.1 1-.56 1.85 1.1zm11.1-3l-1.85-1.1 1-.56 1.86 1.1zm-20-2.14L157 199l1-.56 1.86 1.1zm11.1-3l-4.69-2.76 1-.55 4.69 2.76z" opacity=".5" transform="translate(0 -45.88)"/>
        <path fill="#e4e3e3" d="M162 243l33.48 19.33-1.46.84-32-18.49-20.32 11.7-1.46-.84z" transform="translate(0 -45.88)"/>
      </g>
      <path fill="url(#Безымянный_градиент_284)" d="M164.25 183a3.55 3.55 0 01.57-.9 2.68 2.68 0 01.68-.56l135 78.52a2.68 2.68 0 00-.68.56 3.55 3.55 0 00-.57.9 2.81 2.81 0 00-.26 1.12v.25L164 184.34v-.25a2.81 2.81 0 01.25-1.09z" transform="translate(0 -45.88)"/>
      <ellipse cx="299.75" cy="261.44" fill="url(#Безымянный_градиент_116)" rx="1.64" ry="1.19" transform="matrix(.5 -.87 .87 .5 -76.54 344.43)"/>
      <path fill="url(#Безымянный_градиент_260)" d="M240.05 329.95c1.81-4.62 8.65-13.54 19-17.47 8.27-3.15 18.71-6.37 31.09.8a14.8 14.8 0 011.34.88c4.48 3.29 4.34 8.82-.44 12.17-8.79 6.16-19.47 11.95-19.47 11.95a37.09 37.09 0 01-8.36 3.33c-7.11 1.81-13.42 1.16-18.77-1.95-3.38-2-5.06-4.53-5-7.11a8.38 8.38 0 01.61-2.6z" transform="translate(0 -45.88)"/>
      <path d="M274.79 314.53l3.49-1.9a3.52 3.52 0 013.93.61c.86.74.47 1-.55 1.54l-3.51 1.65a4.16 4.16 0 01-3.65 0c-.93-.62-.73-1.43.29-1.9z" class="cls-103" transform="translate(0 -45.88)"/>
      <g clip-path="url(#clip-path-2)">
        <g class="cls-2">
          <path fill="#fffefb" d="M277.05 311.71a3.39 3.39 0 013.43-.11l-5 8c-2.48-1.85-1.27-6.17 1.57-7.89z" transform="translate(0 -45.88)"/>
          <path fill="#b6b5b3" d="M275.52 315.66a7.32 7.32 0 012.92-3.62 2.94 2.94 0 011.69-.45 1.69 1.69 0 01.71.22 3.17 3.17 0 011.46 1.95c.86 3-2.66 8.17-6.24 6.27-1.06-.62-1.31-2.38-.54-4.37z" transform="translate(0 -45.88)"/>
          <path d="M278 316.56a4.58 4.58 0 011.82-2.26 1.83 1.83 0 011.05-.28c1 .09 1.36 1.37.78 2.86a4.58 4.58 0 01-1.82 2.27 1.82 1.82 0 01-1 .28c-1.04-.09-1.39-1.38-.83-2.87z" transform="translate(0 -45.88)" style="mix-blend-mode:multiply" fill="#cccece" opacity=".5"/>
          <path fill="#f0efec" d="M275.17 315.45l.14-.34a8 8 0 011.3-2 6 6 0 011.48-1.25 2.93 2.93 0 011.69-.45 1.69 1.69 0 01.71.22l.35.2a1.69 1.69 0 00-.71-.22 2.94 2.94 0 00-1.69.45 6 6 0 00-1.48 1.25 8 8 0 00-1.3 2l-.14.34c-.77 2-.51 3.75.53 4.36l-.35-.2c-1.04-.61-1.3-2.36-.53-4.36z" transform="translate(0 -45.88)"/>
        </g>
      </g>
      <path d="M243.78 337.37c5.35 3.11 11.66 3.76 18.77 1.95a37.1 37.1 0 008.36-3.33s10.68-5.78 19.47-11.95c2.66-1.86 3.87-4.4 3.67-6.84 1.47 3.06.47 6.68-3 9.14-8.79 6.16-19.47 11.95-19.47 11.95a37.08 37.08 0 01-8.36 3.33c-7.11 1.81-13.42 1.16-18.77-1.95-3.15-1.83-4.8-4.19-5-6.59a10.67 10.67 0 004.33 4.29z" class="cls-103" transform="translate(0 -45.88)"/>
      <path d="M244.1 338.47c5.35 3.11 11.66 3.76 18.77 1.95a37.08 37.08 0 008.36-3.33s10.68-5.78 19.47-11.95c2.84-2 4-4.75 3.6-7.35 1.08 2.92 0 6.24-3.29 8.55-8.79 6.16-19.47 11.95-19.47 11.95a37.08 37.08 0 01-8.36 3.33c-7.11 1.81-13.42 1.16-18.77-1.95-2.92-1.7-4.54-3.85-4.92-6.07a10.08 10.08 0 004.61 4.87z" class="cls-103" transform="translate(0 -45.88)"/>
    </g>
  </g>
</svg>
