<svg xmlns="http://www.w3.org/2000/svg" xmlns:xlink="http://www.w3.org/1999/xlink" viewBox="0 0 199.77 185.62"><defs><style>.cls-1{fill:#1f1e1f;}.cls-1,.cls-10,.cls-11,.cls-12,.cls-13,.cls-14,.cls-15,.cls-16,.cls-17,.cls-18,.cls-19,.cls-2,.cls-20,.cls-21,.cls-22,.cls-23,.cls-24,.cls-25,.cls-26,.cls-27,.cls-28,.cls-29,.cls-3,.cls-30,.cls-31,.cls-32,.cls-33,.cls-34,.cls-35,.cls-36,.cls-37,.cls-4,.cls-5,.cls-6,.cls-7,.cls-8,.cls-9{fill-rule:evenodd;}.cls-2{fill:#989797;}.cls-3{fill:#acabab;}.cls-4{fill:#9c9c9c;}.cls-5{fill:#b0aeaf;}.cls-6{fill:#343334;}.cls-7{fill:#2c2b2a;}.cls-8{fill:url(#GradientFill_9);}.cls-9{fill:url(#GradientFill_9-2);}.cls-10{fill:url(#GradientFill_9-3);}.cls-11{fill:url(#GradientFill_9-4);}.cls-12{fill:url(#GradientFill_9-5);}.cls-13{fill:#f9f9f9;}.cls-14{fill:#f2f1f0;}.cls-15{fill:url(#Безымянный_градиент_387);}.cls-16{fill:url(#GradientFill_11);}.cls-17{fill:#ececeb;}.cls-18{fill:url(#GradientFill_7);}.cls-19{fill:url(#GradientFill_11-2);}.cls-20{fill:url(#GradientFill_7-2);}.cls-21{fill:url(#GradientFill_7-3);}.cls-22{fill:url(#Безымянный_градиент_391);}.cls-23{fill:url(#GradientFill_7-4);}.cls-24{fill:#f2f2f0;}.cls-25{fill:#9b9999;}.cls-26{fill:url(#GradientFill_9-6);}.cls-27{fill:#5a5858;}.cls-28{fill:url(#GradientFill_7-5);}.cls-29{fill:#b4b2b3;}.cls-30{fill:url(#GradientFill_9-7);}.cls-31{fill:url(#GradientFill_9-8);}.cls-32{fill:url(#GradientFill_9-9);}.cls-33{fill:url(#GradientFill_7-6);}.cls-34{fill:url(#GradientFill_9-10);}.cls-35{fill:url(#GradientFill_7-7);}.cls-36{fill:url(#GradientFill_7-8);}.cls-37{fill:url(#GradientFill_7-9);}.cls-38{fill:#95d2b8;}.cls-39{fill:#0b7c7b;}.cls-40{fill:none;}.cls-41{fill:#081f18;}</style><linearGradient id="GradientFill_9" x1="80.65" y1="112.6" x2="96.56" y2="141.32" gradientUnits="userSpaceOnUse"><stop offset="0" stop-color="#403f3f"/><stop offset="1" stop-color="#1f1e1f"/></linearGradient><linearGradient id="GradientFill_9-2" x1="140.05" y1="80.54" x2="155.72" y2="108.81" xlink:href="#GradientFill_9"/><linearGradient id="GradientFill_9-3" x1="111.43" y1="163.76" x2="98.31" y2="141.03" xlink:href="#GradientFill_9"/><linearGradient id="GradientFill_9-4" x1="122.43" y1="139.51" x2="112.02" y2="127.1" xlink:href="#GradientFill_9"/><linearGradient id="GradientFill_9-5" x1="122.79" y1="144.05" x2="105.48" y2="133.24" xlink:href="#GradientFill_9"/><linearGradient id="Безымянный_градиент_387" x1="2.33" y1="141.3" x2="45.59" y2="141.3" gradientUnits="userSpaceOnUse"><stop offset="0" stop-color="#34b3b7"/><stop offset="1" stop-color="#2b8e8d"/></linearGradient><linearGradient id="GradientFill_11" x1="87.87" y1="136.55" x2="93.15" y2="145.69" gradientUnits="userSpaceOnUse"><stop offset="0" stop-color="#787777"/><stop offset="1" stop-color="#929090"/></linearGradient><linearGradient id="GradientFill_7" x1="61.48" y1="88.56" x2="102.74" y2="163" gradientUnits="userSpaceOnUse"><stop offset="0" stop-color="#b4b2b3"/><stop offset="1" stop-color="#929090"/></linearGradient><linearGradient id="GradientFill_11-2" x1="75.41" y1="150.21" x2="84.39" y2="147.81" xlink:href="#GradientFill_11"/><linearGradient id="GradientFill_7-2" x1="84.75" y1="100.14" x2="62.55" y2="122.35" xlink:href="#GradientFill_7"/><linearGradient id="GradientFill_7-3" x1="34.44" y1="105.19" x2="82.44" y2="188.33" xlink:href="#GradientFill_7"/><linearGradient id="Безымянный_градиент_391" x1="39.27" y1="145.4" x2="62" y2="145.4" gradientUnits="userSpaceOnUse"><stop offset="0" stop-color="#0b7c7b"/><stop offset="1" stop-color="#047578"/></linearGradient><linearGradient id="GradientFill_7-4" x1="42.65" y1="167.14" x2="51.49" y2="154.51" xlink:href="#GradientFill_7"/><linearGradient id="GradientFill_9-6" x1="72.95" y1="115.28" x2="102.71" y2="168.98" xlink:href="#GradientFill_9"/><linearGradient id="GradientFill_7-5" x1="6.46" y1="162.68" x2="7.4" y2="162.68" xlink:href="#GradientFill_7"/><linearGradient id="GradientFill_9-7" x1="174.64" y1="109.23" x2="164.23" y2="96.83" xlink:href="#GradientFill_9"/><linearGradient id="GradientFill_9-8" x1="174.95" y1="113.47" x2="157.65" y2="102.66" xlink:href="#GradientFill_9"/><linearGradient id="GradientFill_9-9" x1="185.11" y1="124.07" x2="155.12" y2="107.44" xlink:href="#GradientFill_9"/><linearGradient id="GradientFill_7-6" x1="124.13" y1="52.75" x2="172.67" y2="136.82" xlink:href="#GradientFill_7"/><linearGradient id="GradientFill_9-10" x1="152.27" y1="70.58" x2="183" y2="126.03" xlink:href="#GradientFill_9"/><linearGradient id="GradientFill_7-7" x1="47.02" y1="140.44" x2="44.2" y2="149.12" xlink:href="#GradientFill_7"/><linearGradient id="GradientFill_7-8" x1="41.44" y1="162.15" x2="46.04" y2="167.63" xlink:href="#GradientFill_7"/><linearGradient id="GradientFill_7-9" x1="44.21" y1="156.41" x2="49.15" y2="141.21" xlink:href="#GradientFill_7"/></defs><title>van</title><g id="Layer_2" data-name="Layer 2"><g id="Layer_1-2" data-name="Layer 1"><polygon class="cls-1" points="128.33 133.75 120.5 129.24 120.67 125.71 122.93 123.95 128.33 127.06 129.88 129.96 128.33 133.75"/><path class="cls-2" d="M117.29,136.19H122c.37-.2.7-.39,1-.58h-4.71C118,135.8,117.64,136,117.29,136.19Z"/><polygon class="cls-1" points="116.19 126.44 115.83 126.66 115.47 126.89 115.12 127.15 114.77 127.42 114.43 127.71 114.1 128.01 113.77 128.33 113.45 128.66 113.14 129 112.84 129.35 112.54 129.72 112.26 130.1 111.98 130.48 111.71 130.88 111.46 131.28 111.21 131.69 110.98 132.11 110.76 132.53 110.55 132.96 110.36 133.39 110.17 133.83 110 134.26 109.85 134.71 109.71 135.15 109.58 135.59 109.47 136.03 109.37 136.47 109.3 136.91 109.23 137.34 109.19 137.78 109.16 138.21 109.15 138.63 109.19 139.44 109.3 140.19 109.47 140.86 109.71 141.47 110 142.01 110.36 142.48 110.76 142.87 111.21 143.19 115.36 145.58 125.31 128.34 121.17 125.94 120.67 125.71 120.13 125.55 119.55 125.48 118.93 125.49 118.29 125.59 117.61 125.78 116.91 126.06 116.19 126.44"/><path class="cls-1" d="M120.34,128.83a15.56,15.56,0,0,0-7,12.19c0,4.49,3.15,6.31,7,4.07a15.56,15.56,0,0,0,7-12.19C127.38,128.4,124.22,126.58,120.34,128.83Z"/><path class="cls-3" d="M120.34,132.62a8.31,8.31,0,0,0-3.76,6.51c0,2.4,1.68,3.37,3.76,2.17a8.31,8.31,0,0,0,3.76-6.51C124.1,132.39,122.41,131.42,120.34,132.62Z"/><path class="cls-4" d="M122.49,137.67a7.17,7.17,0,0,0,.84-3.17,2.78,2.78,0,0,0-.77-2.13,2.78,2.78,0,0,0-2.23.4,6.7,6.7,0,0,0-1.85,1.66,7.91,7.91,0,0,0-1.77,4.62,2.79,2.79,0,0,0,.77,2.13,2.78,2.78,0,0,0,2.23-.4A7.62,7.62,0,0,0,122.49,137.67Z"/><path class="cls-3" d="M118,139.5l.63.36c-.52-.43.16,0,1.05-.53l2.37-4.11-.07-1.18-.63-.36a1.15,1.15,0,0,0-.35-.13,1.39,1.39,0,0,0-.4,0,1.9,1.9,0,0,0-.45.1,2.7,2.7,0,0,0-.48.22l-.24.15-.24.18-.23.2-.22.22-.21.23-.2.25-.18.26-.17.27-.15.28-.14.29-.12.29-.1.3c0,.1-.06.2-.08.3s0,.2-.06.3,0,.2,0,.29,0,.19,0,.29a2.69,2.69,0,0,0,0,.52,1.88,1.88,0,0,0,.14.43,1.39,1.39,0,0,0,.22.34A1.16,1.16,0,0,0,118,139.5Z"/><path class="cls-5" d="M120.34,134.22a5.24,5.24,0,0,0-2.37,4.11c0,1.51,1.06,2.13,2.37,1.37a5.25,5.25,0,0,0,2.37-4.11C122.71,134.07,121.65,133.46,120.34,134.22Z"/><path class="cls-5" d="M120.34,132a9.52,9.52,0,0,0-4.31,7.46c0,2.75,1.93,3.86,4.31,2.49a9.52,9.52,0,0,0,4.31-7.46c0-2.75-1.93-3.86-4.31-2.49Zm0,.79c2-1.16,3.62-.22,3.62,2.09a8,8,0,0,1-3.62,6.28c-2,1.16-3.62.22-3.62-2.09A8,8,0,0,1,120.34,132.77Z"/><path class="cls-6" d="M120.34,135.52a2.75,2.75,0,0,0-1.24,2.15c0,.79.56,1.11,1.24.72a2.75,2.75,0,0,0,1.24-2.15C121.58,135.45,121,135.13,120.34,135.52Z"/><polygon class="cls-7" points="68.52 146 45.02 132.44 161.02 65.33 184.52 78.89 93.65 134.13 68.52 146"/><polygon class="cls-8" points="119.34 116.66 68.52 146 68.52 156.48 93.34 144.66 102.54 136.84 109.05 124.31 119.34 120.82 119.34 116.66"/><polygon class="cls-9" points="121.02 115.69 184.52 78.89 184.52 91.28 121.02 128.08 121.02 115.69"/><polygon class="cls-1" points="74.91 166.65 57.73 156.74 57.73 148.4 74.91 158.31 76.45 162.85 74.91 166.65"/><polygon class="cls-10" points="68.52 156.48 76.61 161.16 76.45 162.85 111.06 143.06 111.29 139.03 113.93 132.88 117.97 127.81 121.84 125.23 127.44 124.44 119.35 119.77 114.84 119.26 109.64 122.26 105.14 127.96 102.54 134.85 102.54 136.84 68.52 156.48"/><polygon class="cls-11" points="110.63 141.51 111.29 139.03 113.93 132.88 117.97 127.81 121.84 125.23 127.44 124.44 119.35 119.77 114.84 119.26 109.64 122.26 105.14 127.96 102.54 134.85 102.54 136.84 110.63 141.51"/><polygon class="cls-12" points="110.63 141.51 111.29 139.03 113.23 132.64 105.14 127.96 102.54 134.85 102.54 136.84 110.63 141.51"/><path class="cls-2" d="M63.87,167h4.71c.37-.2.7-.39,1-.58H64.86C64.56,166.65,64.22,166.83,63.87,167Z"/><polygon class="cls-1" points="62.77 157.28 62.41 157.5 62.05 157.74 61.7 157.99 61.35 158.26 61.01 158.55 60.67 158.85 60.35 159.17 60.03 159.5 59.72 159.84 59.41 160.2 59.12 160.56 58.83 160.94 58.56 161.33 58.29 161.72 58.03 162.13 57.79 162.53 57.56 162.95 57.34 163.38 57.13 163.8 56.93 164.23 56.75 164.67 56.58 165.11 56.42 165.55 56.28 165.99 56.16 166.43 56.05 166.87 55.95 167.31 55.87 167.75 55.81 168.19 55.77 168.62 55.74 169.05 55.73 169.47 55.77 170.28 55.87 171.03 56.05 171.71 56.28 172.32 56.58 172.86 56.93 173.32 57.34 173.72 57.79 174.03 61.93 176.42 71.89 159.18 67.75 156.79 67.25 156.55 66.7 156.4 66.12 156.32 65.51 156.34 64.86 156.44 64.19 156.63 63.49 156.91 62.77 157.28"/><path class="cls-1" d="M66.91,159.67a15.56,15.56,0,0,0-7,12.19c0,4.49,3.15,6.31,7,4.07a15.56,15.56,0,0,0,7-12.19C74,159.25,70.8,157.43,66.91,159.67Z"/><path class="cls-3" d="M66.91,163.46A8.31,8.31,0,0,0,63.15,170c0,2.4,1.68,3.37,3.76,2.17a8.31,8.31,0,0,0,3.76-6.51C70.67,163.23,69,162.26,66.91,163.46Z"/><path class="cls-4" d="M69.07,168.52a7.17,7.17,0,0,0,.84-3.17,2.78,2.78,0,0,0-.77-2.13,2.78,2.78,0,0,0-2.23.4,6.7,6.7,0,0,0-1.85,1.65,7.91,7.91,0,0,0-1.77,4.62,2.79,2.79,0,0,0,.77,2.13,2.78,2.78,0,0,0,2.23-.4A7.62,7.62,0,0,0,69.07,168.52Z"/><path class="cls-3" d="M64.61,170.35l.63.36c-.52-.43.16,0,1.05-.53l2.37-4.11-.07-1.18-.63-.36a1.15,1.15,0,0,0-.35-.13,1.39,1.39,0,0,0-.4,0,1.9,1.9,0,0,0-.45.1,2.71,2.71,0,0,0-.48.22l-.24.15-.24.18-.23.2-.22.22-.21.23-.2.25-.18.26-.17.27-.15.28-.14.29-.12.29-.1.3c0,.1-.06.2-.08.3s0,.2-.06.3,0,.2,0,.29,0,.19,0,.29a2.69,2.69,0,0,0,0,.52,1.88,1.88,0,0,0,.14.43,1.39,1.39,0,0,0,.22.34A1.16,1.16,0,0,0,64.61,170.35Z"/><path class="cls-5" d="M66.91,165.06a5.24,5.24,0,0,0-2.37,4.11c0,1.51,1.06,2.13,2.37,1.37a5.24,5.24,0,0,0,2.37-4.11C69.29,164.92,68.22,164.3,66.91,165.06Z"/><path class="cls-5" d="M66.91,162.83a9.52,9.52,0,0,0-4.31,7.46c0,2.75,1.93,3.86,4.31,2.49a9.52,9.52,0,0,0,4.31-7.46c0-2.75-1.93-3.86-4.31-2.49Zm0,.79c2-1.16,3.62-.22,3.62,2.09A8,8,0,0,1,66.91,172c-2,1.16-3.62.22-3.62-2.09A8,8,0,0,1,66.91,163.62Z"/><path class="cls-6" d="M66.91,166.37a2.75,2.75,0,0,0-1.24,2.15c0,.79.56,1.11,1.24.72a2.75,2.75,0,0,0,1.24-2.15C68.16,166.29,67.6,166,66.91,166.37Z"/><path class="cls-13" d="M6.16,125.06.68,121.9l-.68.39.68.76,1.94,1.12v16.54L.68,139.59v1.15l5.48,3.16Z"/><path class="cls-14" d="M0,122.29l5.48,3.16v1.15l-1.94-1.12V142l1.94,1.12v1.15L0,141.13Z"/><polygon class="cls-13" points="56.07 114.83 19.14 93.51 38.3 82.44 75.24 103.76 56.07 114.83"/><polygon class="cls-14" points="39.27 130.51 25.67 116.86 2.33 109.18 2.33 113.74 10.56 141.69 2.33 147.54 2.33 164.3 39.27 185.62 39.27 130.51"/><polygon class="cls-15" points="39.27 135.06 2.33 113.74 2.33 147.54 39.27 168.86 45.59 141.54 39.27 135.06"/><polygon class="cls-16" points="102.38 135.36 95.66 131.49 76.91 142.31 83.63 155.52 102.38 135.36"/><polygon class="cls-17" points="83.63 88.51 74.63 73.57 46.7 67.19 46.7 123.71 78.34 133.91 83.63 145.03 83.63 88.51"/><polygon class="cls-18" points="83.63 155.52 102.38 144.69 102.38 135.36 83.63 146.19 83.63 155.52"/><polygon class="cls-19" points="83.63 155.52 76.91 151.64 76.91 142.31 83.63 146.19 83.63 155.52"/><polygon class="cls-20" points="83.63 115.75 46.7 94.43 46.7 123.71 83.63 145.03 87.57 127.09 83.63 115.75"/><polygon class="cls-21" points="75.24 103.76 56.07 114.83 39.27 130.51 39.27 185.62 56.91 175.44 59.75 162.34 70.04 154.68 74.27 157.53 75.24 159.69 75.24 103.76"/><polygon class="cls-22" points="62.01 121.93 39.27 135.06 39.27 168.86 55.36 159.57 62.01 149.97 62.01 121.93"/><polygon class="cls-13" points="48.57 149.55 43.09 146.38 42.41 146.78 43.09 147.53 45.03 148.65 45.03 165.19 43.09 164.07 43.09 165.22 47.63 167.09 48.57 149.55"/><polygon class="cls-23" points="48.57 149.55 47.89 149.94 47.89 168.78 48.57 168.39 48.57 149.55"/><path class="cls-14" d="M47.89,149.94l-5.48-3.16v1.15L44.35,149v16.54l-1.94-1.12v1.15l5.48,3.16Z"/><polygon class="cls-24" points="56.07 114.83 36.57 113.34 19.14 93.51 38.3 82.44 75.24 103.76 56.07 114.83"/><polygon class="cls-24" points="56.07 114.83 19.14 93.51 2.33 109.19 17.37 117.87 39.27 130.51 56.07 114.83"/><polygon class="cls-25" points="5.28 153.28 3.18 153.59 3.18 161.59 3.82 163.25 8.04 165.68 8.04 164.16 8.04 162.63 5.93 154.94 5.28 153.28"/><polygon class="cls-7" points="55.83 176.06 55.83 169.57 58.44 162.69 62.93 156.99 68.13 153.98 72.64 154.49 74.02 155.28 68.42 156.08 64.55 158.65 60.5 163.73 57.87 169.87 57.21 176.85 55.83 176.06"/><path class="cls-26" d="M130,132.77l-1.71,1v-3.9l-2.14-3.2-3.71-.42-4.28,2.47-3.71,4.71-2.14,5.67V145L74.9,166.65V160.7l-2.14-3.2-3.71-.42-4.28,2.47-3.71,4.71-2.14,5.67v5.94l-1.71,1q0-3.25,0-6.49l2.6-6.89,4.5-5.7,5.2-3,4.51.51,2.6,3.87v2l34-19.64v-2l2.6-6.89,4.5-5.7,5.2-3,4.51.51,2.6,3.88v4.45Z"/><polygon class="cls-25" points="34.21 176.45 36.32 171.2 38.42 172.41 39.07 174.07 39.07 175.6 39.07 183.6 34.85 181.16 34.21 179.5 34.21 176.45"/><polygon class="cls-24" points="83.63 88.51 199.77 21.32 162.83 0 46.7 67.19 83.63 88.51"/><path class="cls-27" d="M10.54,162.25l-1.94-7L33,169.28l-1.94,4.81L10.54,162.25Zm20.34,13L10.72,163.59v2.35l20.17,11.64Z"/><polygon class="cls-13" points="38.13 173.16 38.42 172.41 36.32 171.2 35.68 171.57 36.3 172.56 38.13 173.16"/><polygon class="cls-3" points="37.78 172.79 37.78 182.31 38.42 181.94 38.42 172.41 37.78 172.79"/><polygon class="cls-14" points="33.56 176.82 35.68 171.57 37.78 172.79 37.78 174.31 37.78 182.31 33.56 179.87 33.56 176.82"/><polygon class="cls-28" points="6.75 161.34 5.75 162.22 6.75 164.4 7.4 164.02 7.4 160.97 6.75 161.34"/><polygon class="cls-29" points="6.75 161.34 5.08 159.33 4.64 153.65 5.28 153.28 7.4 160.97 6.75 161.34"/><polygon class="cls-13" points="2.53 152.44 4.64 153.65 5.28 153.28 3.18 152.06 2.53 152.44"/><polygon class="cls-14" points="6.75 161.34 4.64 153.65 2.53 152.44 2.53 153.96 2.53 161.96 6.75 164.4 6.75 161.34"/><polygon class="cls-1" points="180.05 103.89 172.22 99.37 172.39 95.84 174.65 94.08 180.05 97.2 181.6 100.09 180.05 103.89"/><path class="cls-2" d="M169,106.33h4.71c.37-.2.7-.39,1-.58H170C169.71,105.94,169.36,106.13,169,106.33Z"/><polygon class="cls-1" points="167.91 96.57 167.55 96.79 167.19 97.03 166.84 97.29 166.49 97.56 166.15 97.84 165.82 98.15 165.49 98.46 165.17 98.79 164.86 99.14 164.56 99.49 164.26 99.86 163.98 100.23 163.7 100.62 163.44 101.02 163.18 101.42 162.94 101.83 162.7 102.25 162.48 102.67 162.27 103.1 162.07 103.53 161.89 103.96 161.72 104.4 161.57 104.84 161.43 105.28 161.3 105.72 161.19 106.17 161.09 106.61 161.02 107.05 160.95 107.48 160.91 107.91 160.88 108.34 160.87 108.77 160.91 109.58 161.02 110.32 161.19 111 161.43 111.61 161.72 112.15 162.07 112.62 162.48 113.01 162.94 113.33 167.08 115.72 177.03 98.47 172.89 96.08 172.39 95.84 171.85 95.69 171.27 95.62 170.65 95.63 170.01 95.73 169.33 95.92 168.63 96.2 167.91 96.57"/><path class="cls-1" d="M172.06,99a15.56,15.56,0,0,0-7,12.19c0,4.49,3.15,6.31,7,4.07a15.56,15.56,0,0,0,7-12.19C179.1,98.54,175.95,96.72,172.06,99Z"/><path class="cls-3" d="M172.06,102.75a8.31,8.31,0,0,0-3.76,6.51c0,2.4,1.68,3.37,3.76,2.17a8.31,8.31,0,0,0,3.76-6.51C175.82,102.53,174.13,101.56,172.06,102.75Z"/><path class="cls-4" d="M174.21,107.81a7.17,7.17,0,0,0,.84-3.17,1.76,1.76,0,0,0-3-1.73,6.7,6.7,0,0,0-1.85,1.65,7.91,7.91,0,0,0-1.77,4.62,1.76,1.76,0,0,0,3,1.73A7.62,7.62,0,0,0,174.21,107.81Z"/><path class="cls-3" d="M169.75,109.64l.63.36c-.52-.43.16,0,1.05-.53l2.37-4.11-.07-1.18-.63-.36a1.14,1.14,0,0,0-.35-.13,1.39,1.39,0,0,0-.4,0,1.9,1.9,0,0,0-.45.1,2.71,2.71,0,0,0-.48.22l-.24.15-.24.18-.23.2-.22.22-.21.24-.2.25-.18.26-.17.27-.15.28-.14.29-.12.29-.1.3q0,.15-.08.3t-.06.3c0,.1,0,.2,0,.29s0,.19,0,.29a2.69,2.69,0,0,0,0,.52,1.88,1.88,0,0,0,.14.43,1.39,1.39,0,0,0,.22.34A1.16,1.16,0,0,0,169.75,109.64Z"/><path class="cls-5" d="M172.06,104.35a5.24,5.24,0,0,0-2.37,4.11c0,1.51,1.06,2.13,2.37,1.37a5.25,5.25,0,0,0,2.37-4.11C174.43,104.21,173.37,103.6,172.06,104.35Z"/><path class="cls-5" d="M172.06,102.12a9.52,9.52,0,0,0-4.31,7.46c0,2.75,1.93,3.86,4.31,2.49a9.52,9.52,0,0,0,4.31-7.46c0-2.75-1.93-3.86-4.31-2.49Zm0,.79c2-1.16,3.62-.22,3.62,2.09a8,8,0,0,1-3.62,6.28c-2,1.16-3.62.22-3.62-2.09A8,8,0,0,1,172.06,102.91Z"/><path class="cls-6" d="M172.06,105.66a2.75,2.75,0,0,0-1.24,2.15c0,.79.56,1.11,1.24.72a2.75,2.75,0,0,0,1.24-2.15C173.3,105.58,172.74,105.26,172.06,105.66Z"/><polygon class="cls-30" points="162.35 109.66 163.01 109.17 165.65 103.02 169.69 97.95 173.56 95.37 179.16 94.58 171.07 89.91 166.56 89.4 161.36 92.4 156.86 98.1 154.26 104.99 162.35 109.66"/><polygon class="cls-31" points="162.35 109.66 163.01 109.17 164.96 102.78 156.86 98.1 154.26 104.99 162.35 109.66"/><polygon class="cls-32" points="162.35 109.66 163.01 109.17 162.35 114.11 154.26 109.44 154.26 104.99 162.35 109.66"/><polygon class="cls-33" points="83.63 88.51 199.77 21.32 199.77 77.85 83.63 145.03 83.63 88.51"/><polygon class="cls-34" points="181.76 102.91 180.05 103.89 180.05 100 177.91 96.79 174.2 96.38 169.92 98.85 166.2 103.56 164.06 109.22 164.06 113.12 162.35 114.11 162.35 111.65 162.35 109.66 164.96 102.78 169.45 97.07 174.66 94.07 179.16 94.58 181.76 98.45 181.76 100.87 181.76 102.91"/><polygon class="cls-35" points="46.92 148.59 43.09 146.38 42.41 146.78 43.09 147.53 44.93 148.59 46.92 148.59"/><polygon class="cls-36" points="43.09 164.07 42.41 164.47 43.2 165.49 44.35 165.59 45.03 165.19 43.09 164.07"/><polygon class="cls-37" points="45.56 148.59 42.41 146.78 42.41 147.93 44.35 149.04 44.35 165.59 42.41 164.47 42.41 165.62 45.56 167.43 45.56 148.59"/><polygon class="cls-38" points="102.71 99.33 93.41 111.83 102.72 114 112.02 101.5 102.71 99.33"/><polygon class="cls-39" points="108.15 96.31 98.85 108.81 108.15 110.98 117.45 98.48 108.15 96.31"/><path class="cls-40" d="M138.17,86.27a3,3,0,0,0-1.32,2.25c0,.79.58,1.11,1.32.78Z"/><path class="cls-40" d="M131.36,89.92a3,3,0,0,0-1.55,2.46c0,.89.65,1.21,1.51.75a3,3,0,0,0,1.52-2.46C132.84,89.73,132.25,89.43,131.36,89.92Z"/><path class="cls-40" d="M160.58,72.32a2.06,2.06,0,0,0-1.1.31,4,4,0,0,0-1.1.91,4.57,4.57,0,0,0-.77,1.28,3.8,3.8,0,0,0-.28,1.42,1.87,1.87,0,0,0,.28,1.11,1,1,0,0,0,.78.42,2.05,2.05,0,0,0,1.1-.31,4,4,0,0,0,1.1-.91,4.57,4.57,0,0,0,.77-1.28,3.8,3.8,0,0,0,.28-1.42,1.87,1.87,0,0,0-.28-1.11A1,1,0,0,0,160.58,72.32Z"/><path class="cls-40" d="M139.69,85.43v3A3,3,0,0,0,141,86.22C141,85.44,140.42,85.11,139.69,85.43Z"/><path class="cls-41" d="M161.46,70.55a4,4,0,0,0-2,.6,7.53,7.53,0,0,0-1.77,1.37,8.07,8.07,0,0,0-1.33,1.84,6.61,6.61,0,0,0-.7,2l-1,.55V74.16c0-.13-.1-.18-.23-.11l-1.24.69a.46.46,0,0,0-.23.36v7.24c0,.13.1.18.23.11l1.24-.69a.46.46,0,0,0,.23-.36v-3l1-.54a2,2,0,0,0,.68,1.29,1.87,1.87,0,0,0,1.35.39,4.31,4.31,0,0,0,1.8-.6,7.53,7.53,0,0,0,2-1.61,8,8,0,0,0,1.39-2.17,5.75,5.75,0,0,0,.5-2.28,2.64,2.64,0,0,0-.5-1.72A1.74,1.74,0,0,0,161.46,70.55Zm-.11,4.72a4.57,4.57,0,0,1-.77,1.28,4,4,0,0,1-1.1.91,2.05,2.05,0,0,1-1.1.31,1,1,0,0,1-.78-.42,1.87,1.87,0,0,1-.28-1.11,3.8,3.8,0,0,1,.28-1.42,4.57,4.57,0,0,1,.77-1.28,4,4,0,0,1,1.1-.91,2.06,2.06,0,0,1,1.1-.31,1,1,0,0,1,.78.42,1.87,1.87,0,0,1,.28,1.11A3.8,3.8,0,0,1,161.35,75.27Z"/><path class="cls-41" d="M131.4,88.37a6.07,6.07,0,0,0-3.1,4.81c0,1.74,1.32,2.39,3,1.47a6.11,6.11,0,0,0,3-4.77C134.37,88.09,133.1,87.44,131.4,88.37Zm-.08,4.75c-.86.47-1.5.15-1.51-.75a3,3,0,0,1,1.55-2.46c.89-.48,1.48-.18,1.48.75A3,3,0,0,1,131.32,93.12Z"/><path class="cls-41" d="M148.27,79l-4.85,2.69a.46.46,0,0,0-.23.36v1.12c0,.13.1.18.23.11l1.68-.93v4.36c0,.13.1.18.23.11l1.15-.64a.46.46,0,0,0,.23-.36v-4.4l1.57-.87a.46.46,0,0,0,.23-.36V79.11C148.5,79,148.4,78.93,148.27,79Z"/><path class="cls-41" d="M183,59.7l-4.85,2.69a.46.46,0,0,0-.23.36v1.12c0,.13.1.18.23.11l1.68-.93V67.4c0,.13.1.18.23.11l1.15-.64a.46.46,0,0,0,.23-.36v-4.4l1.57-.87a.46.46,0,0,0,.23-.36V59.81C183.26,59.68,183.16,59.63,183,59.7Z"/><path class="cls-41" d="M176.59,63.29l-1.15.64a.48.48,0,0,0-.18.2l-2.38,4.69V65.58c0-.13-.1-.18-.23-.11l-1.19.66a.46.46,0,0,0-.23.36v5.7c0,.13.1.18.23.11l1.16-.64a.48.48,0,0,0,.18-.2l2.37-4.68V70c0,.13.1.18.23.11l1.19-.66a.46.46,0,0,0,.23-.36v-5.7C176.82,63.26,176.72,63.22,176.59,63.29Z"/><path class="cls-41" d="M169.55,67.19l-1.15.64a.46.46,0,0,0-.23.36v2l-2.24,1.25v-2c0-.13-.1-.18-.23-.11l-1.16.64a.46.46,0,0,0-.23.36V76c0,.13.1.18.22.11l1.15-.63a.46.46,0,0,0,.23-.36v-2l2.24-1.24v2c0,.13.1.18.23.11l1.16-.64a.46.46,0,0,0,.23-.36V67.29C169.77,67.17,169.67,67.12,169.55,67.19Z"/><path class="cls-41" d="M189.76,56l-1.15.64a.48.48,0,0,0-.18.2L186,61.49V58.27c0-.13-.1-.18-.23-.11l-1.19.66a.46.46,0,0,0-.23.36v5.7c0,.13.1.18.23.11l1.16-.64a.48.48,0,0,0,.18-.2l2.37-4.68v3.22c0,.13.1.18.23.11l1.19-.66a.46.46,0,0,0,.23-.36v-5.7C190,56,189.88,55.9,189.76,56Z"/><path class="cls-41" d="M127.43,95.25c0-.09-.17-.08-.28,0a6,6,0,0,1-1.18.87c-1.27.71-2.58.71-2.57-1a4.8,4.8,0,0,1,2.57-4,3.75,3.75,0,0,1,1.1-.42.43.43,0,0,0,.27-.28l.36-1c.05-.14,0-.26-.11-.25a5.17,5.17,0,0,0-1.88.66,7.49,7.49,0,0,0-3.91,6.17c0,2.62,2,2.72,3.94,1.63a8.82,8.82,0,0,0,1.92-1.46.36.36,0,0,0,.12-.36Z"/><path class="cls-41" d="M150.75,79.75a1.49,1.49,0,0,0-.73,1.15c0,.41.33.57.73.35a1.49,1.49,0,0,0,.73-1.15C151.48,79.68,151.16,79.53,150.75,79.75Z"/><path class="cls-41" d="M139.69,83.84V82.75c0-.13-.1-.18-.23-.11l-1.08.6a.46.46,0,0,0-.23.36v1.09a6.17,6.17,0,0,0-2.84,4.68c0,1.65,1.26,2.31,2.84,1.52v1c0,.13.1.18.23.11l1.08-.6a.46.46,0,0,0,.23-.36V90a6.17,6.17,0,0,0,2.84-4.68C142.53,83.71,141.27,83.06,139.69,83.84Zm-2.84,4.68a3,3,0,0,1,1.32-2.25v3C137.43,89.64,136.85,89.31,136.85,88.52Zm2.84-.06v-3c.74-.32,1.31,0,1.31.79A3,3,0,0,1,139.69,88.46Z"/></g></g></svg>