<svg xmlns="http://www.w3.org/2000/svg" xmlns:xlink="http://www.w3.org/1999/xlink" viewBox="0 0 200 181.6"><defs><style>.cls-1{fill:none;}.cls-2{isolation:isolate;}.cls-3{fill:url(#Безымянный_градиент_173);}.cls-23,.cls-4{fill:#b9b4a8;}.cls-14,.cls-5{fill:#393634;}.cls-6{fill:url(#Безымянный_градиент_76);}.cls-7{fill:#e8e4df;}.cls-8{fill:#eeebe9;}.cls-9{fill:url(#Безымянный_градиент_173-2);}.cls-10{fill:url(#Безымянный_градиент_76-2);}.cls-11{fill:#e4e0dc;}.cls-12{fill:url(#Безымянный_градиент_686);}.cls-13{fill:#1f1c1c;}.cls-14{opacity:0.3;}.cls-14,.cls-36{mix-blend-mode:multiply;}.cls-15{fill:url(#Безымянный_градиент_173-3);}.cls-16{fill:url(#Безымянный_градиент_76-3);}.cls-17{fill:url(#Безымянный_градиент_76-4);}.cls-18{fill:url(#Безымянный_градиент_173-4);}.cls-19{fill:#2d2b2a;}.cls-20{fill:url(#Безымянный_градиент_173-5);}.cls-21{fill:url(#Безымянный_градиент_173-6);}.cls-22{fill:url(#Безымянный_градиент_172);}.cls-23{opacity:0.8;}.cls-24{fill:#3ea296;}.cls-25{fill:#a8dde3;}.cls-25,.cls-26,.cls-27{mix-blend-mode:screen;}.cls-26{fill:url(#Безымянный_градиент_672);}.cls-27{fill:url(#Безымянный_градиент_672-2);}.cls-28{fill:#eeb32e;}.cls-28,.cls-29,.cls-30,.cls-39{fill-rule:evenodd;}.cls-29{fill:#fae048;}.cls-30{fill:#faf070;}.cls-31,.cls-33,.cls-34,.cls-35{mix-blend-mode:overlay;}.cls-31{fill:url(#Безымянный_градиент_811);}.cls-32{opacity:0.9;fill:url(#Безымянный_градиент_236);}.cls-33{fill:url(#Безымянный_градиент_810);}.cls-34{fill:url(#Безымянный_градиент_809);}.cls-35{fill:url(#Безымянный_градиент_808);}.cls-36{fill:url(#Безымянный_градиент_807);}.cls-37,.cls-38{mix-blend-mode:hard-light;}.cls-37{fill:url(#Безымянный_градиент_806);}.cls-38{fill:url(#Безымянный_градиент_805);}.cls-39{fill:#d71920;}.cls-40{fill:url(#Безымянный_градиент_556);}.cls-41{fill:#9d1d20;}.cls-42{fill:#c22126;}.cls-43{fill:#7b1316;}.cls-44{fill:#8f1a1c;}.cls-45{fill:url(#Безымянный_градиент_20);}.cls-46{clip-path:url(#clip-path);}.cls-47{fill:url(#Безымянный_градиент_13);}.cls-48{fill:url(#Безымянный_градиент_13-2);}.cls-49{fill:#741113;}.cls-50{fill:#931a1d;}.cls-51{fill:#700f12;}.cls-52{fill:url(#Безымянный_градиент_23);}.cls-53{fill:url(#Безымянный_градиент_22);}.cls-54{fill:url(#Безымянный_градиент_3);}.cls-55{fill:#6c1113;}.cls-56{fill:url(#Безымянный_градиент_2);}.cls-57{fill:url(#Безымянный_градиент_13-3);}</style><linearGradient id="Безымянный_градиент_173" x1="192.22" y1="114.48" x2="198.36" y2="125.12" gradientUnits="userSpaceOnUse"><stop offset="0" stop-color="#e8e4df"/><stop offset="1" stop-color="#d8d3cc"/></linearGradient><linearGradient id="Безымянный_градиент_76" x1="68.87" y1="47.84" x2="73.76" y2="47.84" gradientUnits="userSpaceOnUse"><stop offset="0" stop-color="#bfbdbd"/><stop offset="1" stop-color="#a6a5a5"/></linearGradient><linearGradient id="Безымянный_градиент_173-2" x1="189.29" y1="114.91" x2="197.86" y2="129.75" xlink:href="#Безымянный_градиент_173"/><linearGradient id="Безымянный_градиент_76-2" x1="145.27" y1="152.25" x2="181.24" y2="152.25" xlink:href="#Безымянный_градиент_76"/><linearGradient id="Безымянный_градиент_686" x1="117.81" y1="118.8" x2="141.53" y2="159.89" gradientUnits="userSpaceOnUse"><stop offset="0.73" stop-color="#595a5a"/><stop offset="0.78" stop-color="#525353"/><stop offset="0.86" stop-color="#3f403f"/><stop offset="0.88" stop-color="#383938"/><stop offset="0.98" stop-color="#2d2e2d"/></linearGradient><linearGradient id="Безымянный_градиент_173-3" x1="147.23" y1="139.2" x2="155.8" y2="154.04" xlink:href="#Безымянный_градиент_173"/><linearGradient id="Безымянный_градиент_76-3" x1="20.68" y1="24.83" x2="66.59" y2="24.83" xlink:href="#Безымянный_градиент_76"/><linearGradient id="Безымянный_градиент_76-4" x1="10.06" y1="79.46" x2="23.09" y2="79.46" xlink:href="#Безымянный_градиент_76"/><linearGradient id="Безымянный_градиент_173-4" x1="142.66" y1="143.09" x2="148.8" y2="153.73" xlink:href="#Безымянный_градиент_173"/><linearGradient id="Безымянный_градиент_173-5" x1="46.77" y1="1.35" x2="52.63" y2="12.81" xlink:href="#Безымянный_градиент_173"/><linearGradient id="Безымянный_градиент_173-6" x1="-5741.04" y1="6.17" x2="-5747.77" y2="17.82" gradientTransform="matrix(-1, 0, 0, 1, -5703.06, 0)" xlink:href="#Безымянный_градиент_173"/><radialGradient id="Безымянный_градиент_172" cx="33.52" cy="13.55" r="14.85" gradientUnits="userSpaceOnUse"><stop offset="0" stop-color="#dcd8d0"/><stop offset="0.54" stop-color="#cbc6bb"/><stop offset="1" stop-color="#c0bbad"/></radialGradient><radialGradient id="Безымянный_градиент_672" cx="47.46" cy="14.28" r="4.38" gradientTransform="translate(13.5 -21.82) rotate(30)" gradientUnits="userSpaceOnUse"><stop offset="0" stop-color="#17b4ac"/><stop offset="0.05" stop-color="#149e97"/><stop offset="0.15" stop-color="#0f7570"/><stop offset="0.27" stop-color="#0b514d"/><stop offset="0.38" stop-color="#073432"/><stop offset="0.51" stop-color="#041d1c"/><stop offset="0.64" stop-color="#030d0d"/><stop offset="0.79" stop-color="#010404"/><stop offset="1" stop-color="#010101"/></radialGradient><radialGradient id="Безымянный_градиент_672-2" cx="41.87" cy="17.51" r="4.38" gradientTransform="translate(14.36 -18.59) rotate(30)" xlink:href="#Безымянный_градиент_672"/><linearGradient id="Безымянный_градиент_811" x1="84.32" y1="76.93" x2="84.77" y2="77.69" gradientUnits="userSpaceOnUse"><stop offset="0" stop-color="#818181"/><stop offset="0.49" stop-color="#7f7f7f"/><stop offset="0.67" stop-color="#787878"/><stop offset="0.8" stop-color="#6d6d6d"/><stop offset="0.9" stop-color="#5c5c5c"/><stop offset="0.99" stop-color="#464646"/><stop offset="1" stop-color="#424242"/></linearGradient><linearGradient id="Безымянный_градиент_236" x1="75.52" y1="54.37" x2="80.65" y2="54.37" gradientUnits="userSpaceOnUse"><stop offset="0" stop-color="#05a2a7"/><stop offset="1" stop-color="#0b7c7b"/></linearGradient><linearGradient id="Безымянный_градиент_810" x1="84.32" y1="47.43" x2="84.77" y2="48.19" gradientUnits="userSpaceOnUse"><stop offset="0" stop-color="#c3c3c3"/><stop offset="0.12" stop-color="#ababab"/><stop offset="0.25" stop-color="#989898"/><stop offset="0.41" stop-color="#8b8b8b"/><stop offset="0.61" stop-color="#838383"/><stop offset="1" stop-color="#818181"/></linearGradient><linearGradient id="Безымянный_градиент_809" x1="69.11" y1="79.3" x2="69.57" y2="78.5" gradientUnits="userSpaceOnUse"><stop offset="0" stop-color="#424242"/><stop offset="0.11" stop-color="#575757"/><stop offset="0.24" stop-color="#6a6a6a"/><stop offset="0.4" stop-color="#777"/><stop offset="0.6" stop-color="#7f7f7f"/><stop offset="1" stop-color="#818181"/></linearGradient><linearGradient id="Безымянный_градиент_808" x1="69.11" y1="49.8" x2="69.57" y2="49" gradientUnits="userSpaceOnUse"><stop offset="0" stop-color="#818181"/><stop offset="0.33" stop-color="#838383"/><stop offset="0.49" stop-color="#8b8b8b"/><stop offset="0.62" stop-color="#989898"/><stop offset="0.74" stop-color="#ababab"/><stop offset="0.84" stop-color="#c4c4c4"/><stop offset="0.93" stop-color="#e2e2e2"/><stop offset="1" stop-color="#fff"/></linearGradient><linearGradient id="Безымянный_градиент_807" x1="75.39" y1="67.94" x2="75.78" y2="67.94" gradientUnits="userSpaceOnUse"><stop offset="0" stop-color="#fff"/><stop offset="0.21" stop-color="#fdfdfd"/><stop offset="0.3" stop-color="#f6f6f6"/><stop offset="0.36" stop-color="#e9eaea"/><stop offset="0.42" stop-color="#d8d8d8"/><stop offset="0.46" stop-color="#c1c2c2"/><stop offset="0.48" stop-color="#b5b6b6"/><stop offset="0.5" stop-color="#c3c3c3"/><stop offset="0.55" stop-color="#d9d9d9"/><stop offset="0.61" stop-color="#eaeaea"/><stop offset="0.67" stop-color="#f6f6f6"/><stop offset="0.76" stop-color="#fdfdfd"/><stop offset="1" stop-color="#fff"/></linearGradient><linearGradient id="Безымянный_градиент_806" x1="75.58" y1="67.69" x2="76.47" y2="67.69" gradientUnits="userSpaceOnUse"><stop offset="0" stop-color="#818181"/><stop offset="0.01" stop-color="#848780"/><stop offset="0.06" stop-color="#8b957f"/><stop offset="0.1" stop-color="#8e9a7e"/><stop offset="0.13" stop-color="#8c977e"/><stop offset="0.29" stop-color="#868a80"/><stop offset="0.5" stop-color="#828381"/><stop offset="1" stop-color="#818181"/></linearGradient><linearGradient id="Безымянный_градиент_805" x1="-6582.95" y1="67.82" x2="-6582.57" y2="67.82" gradientTransform="matrix(-1, 0, 0, 1, -6507.37, 0)" gradientUnits="userSpaceOnUse"><stop offset="0" stop-color="#818181"/><stop offset="0" stop-color="#868582"/><stop offset="0.02" stop-color="#afa887"/><stop offset="0.04" stop-color="#d0c38c"/><stop offset="0.06" stop-color="#e8d78f"/><stop offset="0.08" stop-color="#f6e391"/><stop offset="0.1" stop-color="#fbe792"/><stop offset="0.16" stop-color="#dccd8e"/><stop offset="0.23" stop-color="#c0b68a"/><stop offset="0.31" stop-color="#a9a287"/><stop offset="0.4" stop-color="#979384"/><stop offset="0.51" stop-color="#8a8982"/><stop offset="0.66" stop-color="#838381"/><stop offset="1" stop-color="#818181"/></linearGradient><linearGradient id="Безымянный_градиент_556" x1="42.18" y1="16.8" x2="79.55" y2="83.93" gradientUnits="userSpaceOnUse"><stop offset="0" stop-color="#35c1d0"/><stop offset="1" stop-color="#fff" stop-opacity="0"/></linearGradient><linearGradient id="Безымянный_градиент_20" x1="106.26" y1="82.94" x2="108.8" y2="88.88" gradientUnits="userSpaceOnUse"><stop offset="0" stop-color="#631014"/><stop offset="0.3" stop-color="#6c1216"/><stop offset="0.78" stop-color="#86171b"/><stop offset="1" stop-color="#931a1d"/></linearGradient><clipPath id="clip-path"><path class="cls-1" d="M103.3,81.76l4.48-2.61a2.71,2.71,0,0,1,2.73.27A8.44,8.44,0,0,1,114.34,86l-4.48,2.61A8.44,8.44,0,0,0,106,82,2.71,2.71,0,0,0,103.3,81.76Z"/></clipPath><linearGradient id="Безымянный_градиент_13" x1="103.3" y1="83.73" x2="114.34" y2="83.73" gradientUnits="userSpaceOnUse"><stop offset="0" stop-color="#7d1417"/><stop offset="0.24" stop-color="#86171a"/><stop offset="0.46" stop-color="#931a1d"/><stop offset="0.99" stop-color="#741113"/></linearGradient><linearGradient id="Безымянный_градиент_13-2" x1="105.35" y1="75.99" x2="115.76" y2="88.55" xlink:href="#Безымянный_градиент_13"/><linearGradient id="Безымянный_градиент_23" x1="122.05" y1="89.8" x2="122.77" y2="91.07" xlink:href="#Безымянный_градиент_20"/><linearGradient id="Безымянный_градиент_22" x1="119.62" y1="83.53" x2="121.62" y2="86.62" gradientUnits="userSpaceOnUse"><stop offset="0" stop-color="#7d1417"/><stop offset="0.24" stop-color="#8c181b"/><stop offset="0.46" stop-color="#931a1d"/><stop offset="0.99" stop-color="#741113"/></linearGradient><linearGradient id="Безымянный_градиент_3" x1="121.71" y1="86.38" x2="123.26" y2="89.28" gradientUnits="userSpaceOnUse"><stop offset="0" stop-color="#931a1d"/><stop offset="0.22" stop-color="#86171b"/><stop offset="0.7" stop-color="#6c1216"/><stop offset="1" stop-color="#631014"/></linearGradient><linearGradient id="Безымянный_градиент_2" x1="147.07" y1="103.76" x2="154.6" y2="115.42" gradientUnits="userSpaceOnUse"><stop offset="0" stop-color="#631014"/><stop offset="0.19" stop-color="#6c1216"/><stop offset="0.51" stop-color="#86171b"/><stop offset="0.64" stop-color="#931a1d"/><stop offset="0.99" stop-color="#741113"/></linearGradient><linearGradient id="Безымянный_градиент_13-3" x1="146.85" y1="99.57" x2="157.87" y2="107.83" xlink:href="#Безымянный_градиент_13"/></defs><title>konveerITS</title><g class="cls-2"><g id="Layer_2" data-name="Layer 2"><g id="Layer_1-2" data-name="Layer 1"><g id="_5" data-name="5"><g id="Axonometric_Cylinder" data-name="Axonometric Cylinder"><path class="cls-3" d="M195.66,114.57a3,3,0,0,0-3.1-.29l-3.77,2.18,6.2,10.61,3.77-2.18a3.07,3.07,0,0,0,1.24-2.8A9.6,9.6,0,0,0,195.66,114.57Z"/><path id="Cylinder_face" data-name="Cylinder face" class="cls-4" d="M196.23,124.27c0,2.77-1.94,3.89-4.34,2.51a9.6,9.6,0,0,1-4.34-7.52c0-2.77,1.94-3.89,4.34-2.51A9.6,9.6,0,0,1,196.23,124.27Z"/><path id="Cylinder_face-2" data-name="Cylinder face" class="cls-5" d="M193.93,122.95c0,1.31-.92,1.84-2,1.18a4.53,4.53,0,0,1-2-3.55c0-1.31.92-1.84,2-1.18A4.53,4.53,0,0,1,193.93,122.95Z"/></g><polygon class="cls-6" points="68.86 8.67 73.74 5.81 73.75 87 68.88 89.86 68.86 8.67"/><polygon class="cls-7" points="58.8 2.86 63.68 0 73.74 5.81 68.86 8.67 58.8 2.86"/><polygon class="cls-8" points="68.86 8.67 68.88 89.86 58.81 84.05 58.8 2.86 68.86 8.67"/><g class="cls-2"><path class="cls-7" d="M57.84,35.84c-2-1.14-3.77-1.25-5.07-.49l-3.43,2c1.3-.75,3.09-.65,5.07.49l134.2,77.48,2-.64,1.41-1.35Z"/><path class="cls-9" d="M197.91,120.29a17.18,17.18,0,0,0-2.76-4.35,12.61,12.61,0,0,0-3.11-2.62l-3.44,2a12.62,12.62,0,0,1,3.11,2.62,17.19,17.19,0,0,1,2.76,4.35,13.4,13.4,0,0,1,1.23,5.34c0,2.25-.8,3.83-2.08,4.57l3.44-2c1.28-.74,2.07-2.32,2.08-4.57A13.41,13.41,0,0,0,197.91,120.29Z"/><path class="cls-4" d="M188.61,115.32,54.4,37.84c-3.93-2.27-7.14-.44-7.15,4.07a15.65,15.65,0,0,0,7.1,12.3l134.2,77.48c3.93,2.27,7.14.46,7.15-4.07A15.67,15.67,0,0,0,188.61,115.32Z"/></g><polygon class="cls-10" points="145.27 143.68 181.23 122.89 181.24 160.81 145.27 181.6 145.27 143.68"/><polygon class="cls-11" points="145.27 143.68 145.27 181.6 19.29 108.86 19.29 70.94 145.27 143.68"/><g class="cls-2"><path class="cls-4" d="M148.61,139,18,63.68c-3-1.74-5.49-.34-5.5,3.13A12.06,12.06,0,0,0,18,76.29l130.61,75.34c3,1.74,5.49.34,5.5-3.14A12.06,12.06,0,0,0,148.61,139Z"/><path class="cls-12" d="M185.78,115.71,55.16,40.37c-1.52-.88-3.44-1.36-5-.48L13,61.48c1.52-.88,3.43-.4,5,.48L148.62,137.3c6,3.45,9.41,13.91,4.91,16.52l37.16-21.59C195.14,129.65,191.82,119.2,185.78,115.71Z"/><path class="cls-13" d="M148.62,137.3,18,62c-3.84-2.22-7-.43-7,4A15.36,15.36,0,0,0,18,78l130.61,75.34c3.84,2.22,7,.43,7-4A15.36,15.36,0,0,0,148.62,137.3Zm0,14.32L18,76.29a12.06,12.06,0,0,1-5.46-9.47c0-3.47,2.48-4.88,5.5-3.13L148.61,139a12.06,12.06,0,0,1,5.46,9.46C154.07,152,151.6,153.37,148.58,151.63Z"/><path class="cls-14" d="M45.54,77.85l-.45-.26L82.37,56.06l.45.26Zm64.86-5.62-.45-.26L72.67,93.49l.45.26ZM89.72,60.3,89.26,60,52,81.56l.45.26Zm13.79,8-.45-.26L65.78,89.52l.45.26Zm-6.89-4L96.16,64,58.88,85.54l.45.26Zm94.18,56.8-.13-.22-37.22,21.49.19.32c0,.07,37.25-21.42,37.25-21.42Zm-5-5.36-37.28,21.52.11.06c.11.06.21.15.31.22L186.22,116ZM18,61.94,55.24,40.42c-.22-.12-.35-.18-.48-.25L17.48,61.7C17.64,61.78,17.8,61.85,18,61.94ZM69,48.37l-.45-.26L31.3,69.63l.45.26ZM24.41,65.66l.45.26L62.14,44.39l-.45-.26ZM75.93,52.35l-.45-.26L38.2,73.61l.45.26Zm68.95,39.77-.45-.26-37.28,21.52.45.26ZM117.3,76.21l-.45-.26L79.56,97.47l.45.26Zm41.37,23.86-.45-.26-37.28,21.52.45.26Zm6.89,4-.45-.26-37.28,21.52.45.26Zm27.17,23.71s0-.08,0-.12l-36.6,21.13.45.26,36.14-20.87C192.72,128,192.73,127.89,192.73,127.75ZM179.35,112l-.45-.26-37.28,21.52.45.26Zm-6.89-4-.45-.26-37.28,21.52.45.26ZM131.08,84.16l-.45-.26L93.35,105.42l.45.26Zm-6.89-4-.45-.26L86.46,101.45l.45.26Zm27.58,15.91-.45-.26L114,117.35l.45.26Zm-13.79-8-.45-.26L100.25,109.4l.45.26Z"/></g><g class="cls-2"><path class="cls-7" d="M15.78,60.13c-2-1.14-3.77-1.25-5.07-.49l-3.44,2c1.3-.75,3.09-.65,5.07.49l134.2,77.48,2.07-.71,1.36-1.28Z"/><path class="cls-15" d="M155.85,144.57a17.19,17.19,0,0,0-2.76-4.35,12.62,12.62,0,0,0-3.11-2.62l-3.43,2a12.61,12.61,0,0,1,3.11,2.62,17.19,17.19,0,0,1,2.76,4.35,13.41,13.41,0,0,1,1.23,5.34c0,2.25-.8,3.83-2.08,4.57l3.44-2c1.28-.74,2.07-2.32,2.08-4.57A13.41,13.41,0,0,0,155.85,144.57Z"/><path class="cls-8" d="M146.55,139.6a15.67,15.67,0,0,1,7.1,12.3c0,4.53-3.22,6.34-7.15,4.07L12.29,78.5a15.65,15.65,0,0,1-7.1-12.3c0-4.52,3.22-6.34,7.15-4.07Z"/></g><g id="Axonometric_Cube" data-name="Axonometric Cube"><polygon id="Cube_face_-_left" data-name="Cube face - left" class="cls-4" points="20.68 40.27 15.06 37.03 15.06 32.66 20.68 35.9 20.68 40.27"/><polygon id="Cube_face_-_right" data-name="Cube face - right" class="cls-16" points="66.59 13.76 20.68 40.27 20.68 35.9 66.59 9.39 66.59 13.76"/><polygon id="Cube_face_-_top" data-name="Cube face - top" class="cls-7" points="20.68 35.9 15.06 32.66 60.97 6.15 66.59 9.39 20.68 35.9"/></g><polygon class="cls-7" points="7.92 32.24 13.01 29.25 23.08 35.06 17.98 38.05 7.92 32.24"/><polygon class="cls-8" points="17.98 38.05 17.99 56.65 7.93 50.84 7.92 32.24 17.98 38.05"/><polygon class="cls-17" points="23.09 116.25 23.08 35.06 17.98 38.05 17.98 50.8 10.06 70.15 10.07 123.86 23.09 116.25"/><polygon class="cls-8" points="7.95 44.92 0 64.34 10.06 70.15 18.01 50.73 7.95 44.92"/><polygon class="cls-8" points="10.06 70.15 0 64.34 0.01 118.05 10.07 123.86 10.06 70.15"/><g id="Axonometric_Cylinder-2" data-name="Axonometric Cylinder"><path class="cls-18" d="M146.1,143.18a3,3,0,0,0-3.1-.29l-3.77,2.18,6.2,10.61,3.77-2.18a3.07,3.07,0,0,0,1.24-2.8A9.6,9.6,0,0,0,146.1,143.18Z"/><path id="Cylinder_face-3" data-name="Cylinder face" class="cls-4" d="M146.67,152.89c0,2.77-1.94,3.89-4.34,2.51a9.6,9.6,0,0,1-4.34-7.52c0-2.77,1.94-3.89,4.34-2.51A9.6,9.6,0,0,1,146.67,152.89Z"/><path id="Cylinder_face-4" data-name="Cylinder face" class="cls-5" d="M144.37,151.56c0,1.31-.92,1.84-2,1.18a4.53,4.53,0,0,1-2-3.55c0-1.31.92-1.84,2-1.18A4.53,4.53,0,0,1,144.37,151.56Z"/></g><g id="Axonometric_Cube-2" data-name="Axonometric Cube"><polygon id="Cube_face_-_left-2" data-name="Cube face - left" class="cls-19" points="40.18 24.66 36.1 22.3 36.1 15.32 47.85 13.25 40.18 24.66"/><polygon id="Cube_face_-_right-2" data-name="Cube face - right" class="cls-5" points="48.18 24.38 40.18 29 40.18 17.68 48.18 13.06 48.18 24.38"/><polygon id="Cube_face_-_top-2" data-name="Cube face - top" class="cls-19" points="40.18 17.68 36.1 15.32 44.1 10.7 48.18 13.06 40.18 17.68"/></g><path class="cls-20" d="M49,2.63a4.59,4.59,0,0,0-4.65-.13L51.07,14a4.57,4.57,0,0,0,2.17-4.26A8.84,8.84,0,0,0,49,2.63Z"/><path class="cls-21" d="M44.33,2.5a3.3,3.3,0,0,1,3.29.28,10.41,10.41,0,0,1,4.82,8.12A3.36,3.36,0,0,1,51.07,14L35,23.4,28.3,11.87Z"/><path class="cls-22" d="M28.3,11.87a3.3,3.3,0,0,1,3.29.28,10.41,10.41,0,0,1,4.82,8.12A3.36,3.36,0,0,1,35,23.4a4.61,4.61,0,0,1-4.64-.13C26.61,21.23,24.06,14.58,28.3,11.87Z"/><path class="cls-23" d="M29.7,15.52a6.14,6.14,0,0,1,2.85,4.79c0,1.79-1.21,2.54-2.75,1.69a6.14,6.14,0,0,1-2.85-4.79C26.92,15.42,28.15,14.66,29.7,15.52Z"/><path class="cls-24" d="M29.7,15.92c-1.35-.75-2.43-.09-2.41,1.48a5.37,5.37,0,0,0,2.49,4.19c1.35.75,2.43.09,2.41-1.48A5.37,5.37,0,0,0,29.7,15.92Zm.08,5.34a4.75,4.75,0,0,1-2.2-3.71c0-1.38.93-2,2.13-1.31A4.75,4.75,0,0,1,31.91,20C31.93,21.34,31,21.93,29.78,21.26Z"/><path class="cls-5" d="M49.1,14.4,40,19.64c-.6.35-1.09.14-1.09-.46A2.26,2.26,0,0,1,40,17.46l9.09-5.25c.6-.35,1.09-.14,1.09.46A2.26,2.26,0,0,1,49.1,14.4Z"/><path class="cls-25" d="M48.21,13.9A1.5,1.5,0,0,1,47.4,15c-.42.2-.73,0-.7-.37a1.5,1.5,0,0,1,.82-1.08C47.94,13.33,48.25,13.5,48.21,13.9Z"/><circle class="cls-26" cx="47.46" cy="14.28" r="4.38" transform="translate(-0.78 25.64) rotate(-30)"/><path class="cls-25" d="M42.63,17.12a1.5,1.5,0,0,1-.82,1.08c-.42.2-.73,0-.7-.37a1.5,1.5,0,0,1,.82-1.08C42.35,16.56,42.66,16.72,42.63,17.12Z"/><circle class="cls-27" cx="41.87" cy="17.51" r="4.38" transform="translate(-3.14 23.28) rotate(-30)"/></g><polygon class="cls-28" points="93.51 42.21 93.51 72.56 75.6 83.14 75.6 52.79 93.51 42.21"/><polygon class="cls-29" points="75.6 52.76 75.6 83.11 63.06 75.73 63.06 45.38 75.6 52.76"/><polygon class="cls-30" points="93.51 42.2 75.6 52.79 63.06 45.41 80.97 34.82 93.51 42.2"/><polygon class="cls-31" points="75.59 82.01 93.51 71.52 93.51 72.53 75.59 83.11 75.59 82.01"/><polygon class="cls-32" points="75.52 52.76 75.52 58.98 80.65 49.77 75.52 52.76"/><polygon class="cls-33" points="75.59 52.51 93.51 42.02 93.51 43.04 75.59 53.62 75.59 52.51"/><polygon class="cls-34" points="75.61 82.01 63.06 74.72 63.06 75.73 75.61 83.11 75.61 82.01"/><polygon class="cls-35" points="75.61 52.51 63.06 45.22 63.06 46.24 75.61 53.62 75.61 52.51"/><rect class="cls-36" x="75.39" y="52.76" width="0.39" height="30.35"/><polygon class="cls-37" points="76.47 82.6 75.58 83.11 75.58 52.76 76.47 52.26 76.47 82.6"/><polygon class="cls-38" points="75.2 82.88 75.58 83.11 75.58 52.76 75.2 52.53 75.2 82.88"/><path class="cls-39" d="M85.23,64.13a3.25,3.25,0,0,1-.64.24l-.22,0c-.66,0-1.14-.48-1.15-1.37a4.08,4.08,0,0,1,1.87-3.3,1.2,1.2,0,0,1,2,1.09l.69-.39c0-1.63-1.24-2.3-2.67-1.49a5.55,5.55,0,0,0-2.55,4.48c0,1.14.6,1.82,1.43,1.86a2.23,2.23,0,0,0,.44,0,3.9,3.9,0,0,0,.78-.28l.48-.26h0L90.41,62l0-.79-4.76,2.7Zm.38-1.47h0l-.36.2L85,63l-.21,0c-.26,0-.44-.23-.45-.59A1.75,1.75,0,0,1,85.11,61c.45-.25.82-.05.84.45l.67-.38a.93.93,0,0,0-1.52-.84,3.17,3.17,0,0,0-1.46,2.56c0,.67.36,1.06.85,1.06a1,1,0,0,0,.26,0,2.94,2.94,0,0,0,.47-.18l.38-.21h0l4.78-2.72,0-.77Zm-3.45,4-.7.4-.11-5.22-1,.58,0-.8,1.72-1Zm-2.58-3.41,0,.77.77-.43.08,4,.67-.38L81,62.46Z"/><path class="cls-40" d="M50,12.2c-.19-.2-.54-.21-.93,0L40,17.46a2.26,2.26,0,0,0-1.09,1.72l-2.22,53,31.8,18.36L107.17,68.3Z"/><g class="cls-2"><polygon class="cls-41" points="91.83 73.61 96.32 71 100.01 73.13 95.53 75.74 91.83 73.61"/><polygon class="cls-42" points="91.83 75.59 91.83 73.61 95.53 75.74 95.49 88.12 93.77 87.12 93.8 76.72 91.83 75.59"/><polygon class="cls-43" points="95.53 75.74 100.01 73.13 99.98 85.51 95.49 88.12 95.53 75.74"/><polygon class="cls-43" points="98.23 74.2 102.71 71.59 102.67 87.07 98.19 89.67 98.23 74.2"/><polygon class="cls-41" points="93.81 71.65 98.29 69.04 102.71 71.59 98.23 74.2 93.81 71.65"/><polygon class="cls-42" points="93.81 73.71 93.81 71.65 98.23 74.2 98.19 89.67 96.39 88.64 96.43 75.22 93.81 73.71"/></g><g class="cls-2"><path class="cls-44" d="M111.65,90.22c-.16-.09-.87-.51-1-.62l-.4-.27-.56-.42-.13-.11c-.19-.15-.37-.3-.54-.45l-.56-.57c-.21-.24-.42-.48-.61-.74A10.58,10.58,0,0,1,105.57,81,3.45,3.45,0,0,1,107,77.82l-4.48,2.61a3.45,3.45,0,0,0-1.44,3.16,10.58,10.58,0,0,0,2.23,6h0c.2.26.4.51.61.74l.56.57c.17.15.35.3.54.45l.13.11.56.42h0l.39.26c.16.11.87.52,1,.62l44.21,25.52,4.48-2.61Z"/><path class="cls-44" d="M107.05,85.9c-.17-.28-.32-.57-.46-.87s-.24-.52-.34-.78-.19-.5-.27-.75-.15-.5-.2-.75-.11-.53-.14-.8a7.37,7.37,0,0,1-.06-.93s0,0,0,0A3.45,3.45,0,0,1,107,77.82l-4.48,2.61a3.45,3.45,0,0,0-1.44,3.16s0,0,0,0a7.38,7.38,0,0,0,.06.93c0,.26.08.53.14.8s.12.5.2.75.17.5.27.75.22.53.34.78.3.58.46.87a11.91,11.91,0,0,0,.75,1.13L107.8,87A11.92,11.92,0,0,1,107.05,85.9Z"/><path class="cls-45" d="M110.72,86.44l-.23-.15-.07-.05-.15-.11-.07-.05-.2-.16a5.68,5.68,0,0,1-.53-.52l-.17-.23a5.16,5.16,0,0,1-.29-.43l-.06-.11-.13-.25-.1-.21-.06-.13c0-.11-.09-.23-.12-.34v0c0-.1-.06-.21-.08-.31s0-.09,0-.14,0-.14,0-.21,0-.19,0-.29,0-.07,0-.1a1.49,1.49,0,0,1,.62-1.36l-4.48,2.61a1.49,1.49,0,0,0-.62,1.36s0,0,0,0,0,.05,0,.08,0,.19,0,.29v0c0,.06,0,.12,0,.18s0,.09,0,.14v0c0,.1,0,.19.08.29v0h0q.05.16.11.32v0l.06.13.08.19v0l.13.25.06.1h0c.09.15.18.29.29.43l0,0L105,88a5.68,5.68,0,0,0,.53.52l.2.16.07.05.15.11,0,0,0,0,.23.15c.13.09.8.48.93.56L111.65,87C111.53,86.92,110.85,86.53,110.72,86.44Z"/><polygon class="cls-44" points="107.18 89.6 111.66 87 126.26 95.42 121.78 98.03 107.18 89.6"/><g class="cls-2"><g class="cls-46"><path class="cls-47" d="M114.29,85.29c0-.21-.06-.41-.11-.62s-.1-.39-.16-.59-.13-.39-.21-.59-.17-.41-.27-.61-.23-.45-.36-.68a9.26,9.26,0,0,0-.59-.88,7.6,7.6,0,0,0-1.65-1.63l-.43-.27-.33-.17a4,4,0,0,0-.53-.21,3.17,3.17,0,0,0-.46-.11,2.59,2.59,0,0,0-.42,0,2.18,2.18,0,0,0-.4,0,1.92,1.92,0,0,0-.4.12l-.2.1-4.48,2.61.2-.1a1.92,1.92,0,0,1,.4-.12,2.18,2.18,0,0,1,.4,0,2.59,2.59,0,0,1,.42,0,3.17,3.17,0,0,1,.46.11,4,4,0,0,1,.53.21L106,82l.43.27a7.6,7.6,0,0,1,1.65,1.63,9.25,9.25,0,0,1,.59.88q.19.33.36.68t.27.61q.12.29.21.59t.16.59c0,.21.08.42.11.62a5.8,5.8,0,0,1,0,.68L114.34,86A5.8,5.8,0,0,0,114.29,85.29Z"/></g></g><path class="cls-48" d="M112.51,88.22c0,.18.07.35.1.53s.05.35.07.53l0,.17c0,.26,0,.52,0,.78l4.48-2.61c0-.25,0-.49,0-.74,0-.07,0-.13,0-.2s0-.19,0-.29,0-.12,0-.18c0-.22-.07-.44-.12-.66s0-.16,0-.24l0-.1c-.05-.23-.12-.46-.19-.69,0-.08,0-.16-.06-.24l-.05-.15c-.08-.26-.17-.51-.27-.77l0-.11-.08-.19q-.15-.35-.31-.7l-.08-.18-.06-.11c-.17-.35-.36-.7-.56-1l0,0-.19-.3-.27-.43-.24-.34-.29-.41,0-.06-.15-.18-.43-.53-.24-.27-.42-.45-.26-.26-.45-.41-.25-.22c-.18-.15-.36-.29-.54-.42l-.16-.12,0,0c-.24-.16-.47-.32-.72-.46l-.58-.3-.07,0-.14-.06-.48-.19-.15-.05-.09,0-.16,0-.51-.12-.12,0h-.13l-.44,0h-.23a3.82,3.82,0,0,0-.52.05h-.13l-.07,0-.4.12-.11,0-.09,0-.34.17-4.48,2.61a3.23,3.23,0,0,1,.43-.21l.11,0,.4-.12.07,0,.13,0a3.83,3.83,0,0,1,.52-.05h.23l.44,0,.25,0,.51.12.25.07.15.05.48.19.14.06c.21.1.43.21.65.34s.48.29.72.46l.19.14c.18.13.36.27.54.42l.25.22.45.41.26.26.42.45.24.27.43.53.19.24.29.4.24.34.27.43.21.34c.2.34.38.69.56,1l.14.29q.16.35.31.7l.12.3c.1.26.19.51.27.77s.13.43.19.65.06.21.09.32S112.48,88.05,112.51,88.22Z"/><path class="cls-42" d="M121.77,100l-14.65-8.46c-.15-.09-.84-.49-1-.59a12.53,12.53,0,0,1-1.21-.91,7.07,7.07,0,0,1-.66-.68,8.39,8.39,0,0,1-2.09-5.14c0-2.44,1.73-3.42,3.85-2.19a8.44,8.44,0,0,1,3.82,6.54l-1.71-1A4.68,4.68,0,0,0,106,84c-1.17-.68-2.13-.13-2.13,1.21A4.63,4.63,0,0,0,105,88a5.67,5.67,0,0,0,.53.52c.2.17.5.38.72.52s.8.48.93.56L121.78,98Z"/><polygon class="cls-43" points="121.78 98.03 126.26 95.42 126.25 97.39 121.77 100 121.78 98.03"/><path class="cls-49" d="M122.29,88.17l-.13,0H122l-.15,0-.05,0-.13-.06a1.37,1.37,0,0,1-.17-.14,1.6,1.6,0,0,1-.36-.43,1.44,1.44,0,0,1-.14-.36h0a1.09,1.09,0,0,1,0-.31v-.05a.73.73,0,0,1,.08-.25l0,0a.52.52,0,0,1,.18-.18l-4.48,2.61a.52.52,0,0,0-.18.18l0,0a.72.72,0,0,0-.08.25v.05s0,0,0,.07a1.1,1.1,0,0,0,0,.14l0,.1h0l0,.1,0,.1,0,.11,0,0,0,.06.09.14.06.06a1.37,1.37,0,0,0,.18.17l.08.08.09.06.08,0,.06,0,.05,0h0l.12,0h.21l.1,0h0l.05,0,4.48-2.61Z"/><path class="cls-50" d="M121.17,85.81l-.12-.12a2.36,2.36,0,0,1-.28-.36l0-.05a2.17,2.17,0,0,1-.2-.41,1.41,1.41,0,0,1-.08-.37v0a.66.66,0,0,1,0-.3.35.35,0,0,1,.14-.17h0l-4.48,2.61a.35.35,0,0,0-.14.17.62.62,0,0,0,0,.25s0,0,0,0v0s0,0,0,.06,0,.08,0,.12l0,.12,0,.08,0,.06.06.14.09.16,0,0,0,.05.08.13a2.37,2.37,0,0,0,.2.23l.12.12.39.34,4.48-2.61Z"/><path class="cls-49" d="M124.14,89.38H124l-.12,0,0,0-.12-.06-.13-.09-.17-.14,0,0-.19-.21-.13-.18a2.29,2.29,0,0,1-.21-.41l-.19-.48-4.48,2.61.19.48v0l.06.14.09.17,0,.08.11.16,0,0,.19.21,0,0,.17.14,0,0,.1.06.07,0,0,0,0,0h0l.09,0h.14l.06,0,0,0,4.48-2.61Z"/><path class="cls-50" d="M121.37,83.67l-.14-.09-.12-.06-.1,0-.06,0h0l-.16,0h-.26l-.12,0-.06,0-4.48,2.61A.57.57,0,0,1,116,86h.23l.21.05.06,0,.22.1a2.34,2.34,0,0,1,.3.21l4.48-2.61Z"/><path class="cls-51" d="M123.78,86.76v-.08l0-.09,0-.13v0h0l-.06-.16,0-.06,0-.06,0-.06-.08-.14,0,0h0l-.07-.1-.09-.14h0l0,0-.16-.18-.08-.07-.15-.13,0,0-.12-.08-.09,0-.1,0h-.05l-.13,0h-.25l-.1,0-.06,0-4.48,2.61.15-.06h.21l.18,0h0l.19.09.16.11.15.13.08.07.16.18,0,.06.09.14.07.11,0,0,.1.2,0,.06a2.4,2.4,0,0,1,.09.23v0a2.06,2.06,0,0,1,.05.22v.05a1.65,1.65,0,0,1,0,.25.76.76,0,0,1-.32.7l4.48-2.61a.76.76,0,0,0,.32-.7h0A1.63,1.63,0,0,0,123.78,86.76Z"/><path class="cls-52" d="M124.8,89.58l0-.08a1,1,0,0,0,0-.11s0-.06,0-.09,0-.08,0-.13v0s0-.06,0-.09,0-.08,0-.12v0c0-.05,0-.1,0-.16v-.05h0q0-.1-.06-.21v0l0-.07,0-.13,0-.09-4.48,2.61.08.22,0,.07c0,.08,0,.16.07.24v.05c0,.06,0,.12,0,.18s0,.08,0,.12,0,.08,0,.11,0,.08,0,.13,0,.06,0,.09a1,1,0,0,1,0,.11l0,.08a.72.72,0,0,1-.06.11l0,.05a.56.56,0,0,1-.12.12l0,0,4.48-2.61,0,0a.56.56,0,0,0,.12-.12l0-.05A.71.71,0,0,0,124.8,89.58Z"/><path class="cls-51" d="M122.22,83.61l-4.48,2.61a.7.7,0,0,0-.27.63V87l0,.46L122,84.83l0-.46v-.12A.7.7,0,0,1,122.22,83.61Z"/><path class="cls-42" d="M118.22,87.71a2.38,2.38,0,0,1,1.08,1.87c0,.69-.49,1-1.09.62a2.39,2.39,0,0,1-1.08-1.88C117.14,87.63,117.63,87.36,118.22,87.71Z"/><path class="cls-49" d="M124.55,87.6h-.2l-.13,0-.39-.12-4.48,2.61.39.12h0l.11,0h.2l.11,0,0,0,4.48-2.61A.48.48,0,0,1,124.55,87.6Z"/><path class="cls-53" d="M118.63,86.07l.16.18.06.07.13.2,0,.07,0,0,.12.23,0,.07.08.2,0,.07c0,.09.06.18.08.27v0a2.55,2.55,0,0,1,0,.27l4.48-2.61v-.07c0-.06,0-.13,0-.19v0h0c0-.07,0-.15-.06-.22v0l0-.07,0-.1,0-.1,0-.07,0,0-.1-.19,0,0h0l0-.06-.14-.2h0l0-.05-.16-.18-.08-.08-.15-.13,0,0-.12-.08-.09,0-.11,0h0l-.13,0h-.28L122,83l-.06,0-4.48,2.61.15-.06h.23l.19,0h0l.21.09.16.11.15.13Z"/><path class="cls-54" d="M125.4,87.33s0,0,0,0a1.63,1.63,0,0,0,0-.16v0h0q0-.09,0-.18l0-.11,0-.07-.06-.16-.08-.17,0,0,0,0-.07-.13a2.77,2.77,0,0,0-.17-.26h0l0,0a2.65,2.65,0,0,0-.27-.3l-.11-.09-.15-.12-.15-.1-.11-.06-.17-.07-4.48,2.61a1.94,1.94,0,0,1,.29.13,2.2,2.2,0,0,1,.3.22l.11.09a2.66,2.66,0,0,1,.27.3l0,0a2.75,2.75,0,0,1,.25.39l0,0a2.43,2.43,0,0,1,.17.44,2.05,2.05,0,0,1,.06.3v0a1.52,1.52,0,0,1,0,.2,1.22,1.22,0,0,1,0,.19s0,.06,0,.09a.89.89,0,0,1-.1.24.69.69,0,0,1-.24.24h0L125,88.08a.69.69,0,0,0,.24-.24.88.88,0,0,0,.1-.24s0-.06,0-.09A1.21,1.21,0,0,0,125.4,87.33Z"/><path class="cls-42" d="M120.85,89.4a1.32,1.32,0,0,1-.07,1,.71.71,0,0,1-.62.33c.31.73.31,1.41,0,1.68a.78.78,0,0,1-.87-.06,2.87,2.87,0,0,1-.93-1l-.11-.18-.11.06a1,1,0,0,1-.93-.12,2.33,2.33,0,0,1-.87-.94,1.61,1.61,0,0,1,0-1.74,3.4,3.4,0,0,1-.61-1,1.61,1.61,0,0,1-.06-1.12c.18-.41.63-.48,1.15-.18a2.35,2.35,0,0,1,.3.21c.08-.71.58-1,1.19-.65a2.8,2.8,0,0,1,1.19,2,1.94,1.94,0,0,1,.29.13A2.63,2.63,0,0,1,120.85,89.4Zm-.46.58a.8.8,0,0,0,.05-.64,1.69,1.69,0,0,0-.74-.94,1,1,0,0,0-.37-.13l-.39,0,0-.42v-.11a1.84,1.84,0,0,0-.76-1.47c-.41-.24-.76,0-.76.6V87l0,.46-.35-.39,0-.05a1.72,1.72,0,0,0-.37-.3c-.34-.2-.63-.16-.74.09a1,1,0,0,0,0,.69,2.3,2.3,0,0,0,.52.82l.12.12.39.34-.29.15c-.35.17-.42.71-.15,1.21a1.41,1.41,0,0,0,.53.56.74.74,0,0,0,.64.09.51.51,0,0,0,.21-.17l.19-.26.19.48a2.29,2.29,0,0,0,.21.41,2,2,0,0,0,.64.65.5.5,0,0,0,.54.06c.26-.2.2-.8-.14-1.38l-.3-.49.39.12.13,0a.49.49,0,0,0,.52-.22Z"/><polygon class="cls-55" points="130.41 97.47 134.89 94.86 130.67 99.95 126.19 102.55 130.41 97.47"/><polygon class="cls-41" points="123.22 88.3 127.7 85.69 130.64 87.39 126.16 90 123.22 88.3"/><polygon class="cls-43" points="126.16 90 130.64 87.39 130.62 94.89 126.14 97.5 126.16 90"/><polygon class="cls-43" points="133.37 94.16 137.85 91.55 137.82 104.07 133.33 106.68 133.37 94.16"/><polygon class="cls-42" points="133.37 94.16 133.33 106.68 130.39 104.98 130.41 97.47 126.19 102.55 123.19 100.82 123.22 88.3 126.16 90 126.14 97.5 130.36 92.42 133.37 94.16"/><polygon class="cls-41" points="130.36 92.42 134.84 89.82 137.85 91.55 133.37 94.16 130.36 92.42"/><polygon class="cls-43" points="139.89 100.94 144.38 98.33 144.35 107.85 139.87 110.45 139.89 100.94"/><polygon class="cls-43" points="151.38 118.35 155.86 115.74 155.86 117.78 151.38 120.39 151.38 118.35"/><path class="cls-42" d="M107.17,92.82l44.21,25.52v2L107.14,94.85c-.23-.13-1-.59-1.22-.74a16.57,16.57,0,0,1-2-1.55c-.19-.17-.73-.73-1.11-1.17a14.67,14.67,0,0,1-3.52-8.84c0-4.26,3-6,6.74-3.84a14.81,14.81,0,0,1,6.69,11.52l-1.78-1A10.88,10.88,0,0,0,106,80.77c-2.72-1.57-4.94-.31-4.95,2.82a10.84,10.84,0,0,0,2.85,6.8l.56.57a13.12,13.12,0,0,0,1.63,1.25C106.3,92.31,107,92.73,107.17,92.82Z"/><polygon class="cls-42" points="142.3 99.32 142.29 102.32 139.89 100.94 139.87 110.45 136.82 108.69 136.84 99.18 134.45 97.79 134.46 94.79 142.3 99.32"/><polygon class="cls-41" points="134.46 94.79 138.94 92.18 146.79 96.71 142.3 99.32 134.46 94.79"/><polygon class="cls-43" points="142.3 99.32 146.79 96.71 146.78 99.72 142.29 102.32 142.3 99.32"/><g class="cls-2"><path class="cls-56" d="M155.88,110.37l-.26.13a2.21,2.21,0,0,1-.4.12l-.11,0-.27,0h-.19l-.3,0-.29-.07-.07,0a3.24,3.24,0,0,1-.39-.16l-.3-.16a5.13,5.13,0,0,1-.48-.33c-.12-.09-.24-.19-.36-.3l-.23-.21c-.12-.12-.23-.25-.33-.38l-.19-.22-.14-.2c-.11-.16-.21-.32-.31-.49a6.62,6.62,0,0,1-.32-.67l0,0a5.91,5.91,0,0,1-.21-.63l0-.13a5.53,5.53,0,0,1-.12-.64c0-.08,0-.17,0-.25s0-.33,0-.5,0-.28,0-.42,0-.21,0-.3a3,3,0,0,1,.09-.37c0-.07,0-.16.06-.23a1.93,1.93,0,0,1,.16-.32s0-.11.08-.15a1.49,1.49,0,0,1,.34-.35l.12-.08-4.48,2.61-.12.08a1.49,1.49,0,0,0-.34.35s0,.1-.08.15a1.93,1.93,0,0,0-.16.32c0,.07,0,.16-.06.23a3,3,0,0,0-.09.37c0,.1,0,.22,0,.33s0,.25,0,.39h0s0,.06,0,.08,0,.28,0,.41,0,.17,0,.25v0q0,.25.09.5l0,.11,0,.13c0,.07,0,.13.05.2s.09.28.15.42h0l0,0c.05.13.11.26.17.38l.15.29.11.19c.06.11.13.2.2.3l.14.2,0,.05.15.17c.11.13.22.26.33.38l.23.21c.12.1.23.2.36.3l.1.08.39.25.27.14h0a3.24,3.24,0,0,0,.39.16h0l.06,0,.29.07h0l.27,0h.12l.18,0h.23l.08,0a2.19,2.19,0,0,0,.37-.11h0l0,0,.21-.1Z"/><path class="cls-49" d="M151.16,113.09l4.48-2.61.24-.12L151.4,113l-.24.12Z"/></g><polygon class="cls-43" points="151.4 112.97 155.88 110.37 155.87 113.92 151.39 116.53 151.4 112.97"/><g class="cls-2"><path class="cls-57" d="M151.42,105.22l4.48-2.61,0-.05h0c-.13-.17-.27-.33-.4-.49l-.21-.25c-.22-.25-.46-.49-.71-.72s-.46-.4-.7-.58l-.15-.11-.13-.09q-.31-.22-.64-.41l-.56-.3h0l-.47-.2-.15-.05-.17-.06-.11,0-.4-.1-.13,0h-.06l-.38,0h-.14a3,3,0,0,0-.51,0h0l-.06,0a2.75,2.75,0,0,0-.44.14l-.07,0-.24.12-.05,0-4.48,2.61.05,0a2.79,2.79,0,0,1,.31-.14,2.75,2.75,0,0,1,.44-.14l.08,0a3,3,0,0,1,.5,0H146l.38,0,.19,0,.4.1.28.09.15.05.47.2h0l.57.3a8.65,8.65,0,0,1,.77.5l.15.11c.24.18.48.37.7.58s.49.47.71.72l.21.26C151.13,104.86,151.28,105,151.42,105.22Z"/><path class="cls-44" d="M151.38,105.17l4.48-2.61,0,.05-4.48,2.61,0-.05Z"/></g><path class="cls-42" d="M148.44,102.5a9,9,0,0,1,1.62,1.2,11.15,11.15,0,0,1,1.37,1.52v3.63a9.73,9.73,0,0,0-1.2-1.8,5.27,5.27,0,0,0-1.38-1.19,1.78,1.78,0,0,0-2-.15,2.47,2.47,0,0,0-.77,2.13,5.77,5.77,0,0,0,.74,2.85,5.34,5.34,0,0,0,2,2.13,3,3,0,0,0,1.35.43,2.24,2.24,0,0,0,1.23-.3v3.56a3,3,0,0,1-1.33-.06,6.77,6.77,0,0,1-1.61-.71,10.87,10.87,0,0,1-4-4.13,11.28,11.28,0,0,1-1.54-5.7q0-3,1.61-3.9T148.44,102.5Z"/><polygon class="cls-43" points="151.42 105.22 155.9 102.62 155.89 106.25 151.41 108.86 151.42 105.22"/></g></g></g></g></svg>