<svg xmlns="http://www.w3.org/2000/svg" xmlns:xlink="http://www.w3.org/1999/xlink" viewBox="0 0 159.12 206.67"><defs><style>.cls-1{isolation:isolate;}.cls-2{fill:#f2f2f0;}.cls-16,.cls-2,.cls-3,.cls-34,.cls-4,.cls-5,.cls-6,.cls-7{fill-rule:evenodd;}.cls-3,.cls-31{fill:#eeebe9;}.cls-4{fill:url(#GradientFill_7);}.cls-5{fill:#474647;}.cls-6{fill:url(#Безымянный_градиент_236);}.cls-7{fill:url(#Безымянный_градиент_490);}.cls-8{fill:url(#Безымянный_градиент_490-2);}.cls-9{fill:#036d77;}.cls-10{fill:#e4e0dc;}.cls-11{fill:#c4c4c4;}.cls-12{fill:#c1c8d1;}.cls-13{fill:url(#Безымянный_градиент_490-3);}.cls-14{fill:#62626a;}.cls-15{fill:#686e70;mix-blend-mode:screen;}.cls-16{fill:url(#Безымянный_градиент_236-2);}.cls-17{fill:url(#Безымянный_градиент_490-4);}.cls-18{fill:url(#Безымянный_градиент_490-5);}.cls-19{fill:url(#Безымянный_градиент_490-6);}.cls-20{fill:url(#Безымянный_градиент_236-3);}.cls-21{fill:url(#Безымянный_градиент_490-7);}.cls-22{fill:url(#Безымянный_градиент_236-4);}.cls-23{fill:url(#Безымянный_градиент_490-8);}.cls-24{fill:url(#Безымянный_градиент_236-5);}.cls-25{fill:url(#Безымянный_градиент_490-9);}.cls-26{fill:url(#Безымянный_градиент_490-10);}.cls-27{fill:#c1e0d2;mix-blend-mode:multiply;}.cls-28{fill:url(#Безымянный_градиент_236-6);}.cls-29{fill:url(#Безымянный_градиент_236-7);}.cls-30{fill:url(#Безымянный_градиент_490-11);}.cls-31{opacity:0.1;}.cls-32{fill:#fac4c5;mix-blend-mode:overlay;}.cls-33{fill:#8ad1ce;}.cls-34{fill:url(#Безымянный_градиент_236-8);}</style><linearGradient id="GradientFill_7" x1="98.7" y1="83" x2="166.53" y2="200.49" gradientUnits="userSpaceOnUse"><stop offset="0" stop-color="#b4b2b3"/><stop offset="1" stop-color="#929090"/></linearGradient><linearGradient id="Безымянный_градиент_236" x1="31.34" y1="49.85" x2="127.78" y2="49.85" gradientUnits="userSpaceOnUse"><stop offset="0" stop-color="#05a2a7"/><stop offset="1" stop-color="#0b7c7b"/></linearGradient><linearGradient id="Безымянный_градиент_490" x1="111.15" y1="93.54" x2="164.48" y2="257.68" gradientUnits="userSpaceOnUse"><stop offset="0" stop-color="#2b8e8d"/><stop offset="1" stop-color="#34b3b7"/></linearGradient><linearGradient id="Безымянный_градиент_490-2" x1="11157.7" y1="197.5" x2="11207.44" y2="111.35" gradientTransform="matrix(-1, 0, 0, 1, 11281.34, 0)" xlink:href="#Безымянный_градиент_490"/><linearGradient id="Безымянный_градиент_490-3" x1="11174.76" y1="202.97" x2="11221.02" y2="122.85" gradientTransform="matrix(-1, 0, 0, 1, 11281.34, 0)" xlink:href="#Безымянный_градиент_490"/><linearGradient id="Безымянный_градиент_236-2" x1="20.21" y1="48.87" x2="137.8" y2="48.87" gradientTransform="matrix(0.78, -0.47, 0.11, 1.22, 12.77, 26.88)" xlink:href="#Безымянный_градиент_236"/><linearGradient id="Безымянный_градиент_490-4" x1="56.08" y1="59.89" x2="88.23" y2="59.89" xlink:href="#Безымянный_градиент_490"/><linearGradient id="Безымянный_градиент_490-5" x1="69.47" y1="60.68" x2="100.83" y2="60.68" xlink:href="#Безымянный_градиент_490"/><linearGradient id="Безымянный_градиент_490-6" x1="61.45" y1="23.65" x2="87.15" y2="23.65" xlink:href="#Безымянный_градиент_490"/><linearGradient id="Безымянный_градиент_236-3" x1="56.33" y1="6.39" x2="66.44" y2="6.39" xlink:href="#Безымянный_градиент_236"/><linearGradient id="Безымянный_градиент_490-7" x1="90.6" y1="36.72" x2="121.99" y2="36.72" xlink:href="#Безымянный_градиент_490"/><linearGradient id="Безымянный_градиент_236-4" x1="71.26" y1="36.25" x2="96.46" y2="36.25" xlink:href="#Безымянный_градиент_236"/><linearGradient id="Безымянный_градиент_490-8" x1="31.05" y1="41.75" x2="58.71" y2="41.75" xlink:href="#Безымянный_градиент_490"/><linearGradient id="Безымянный_градиент_236-5" x1="53.21" y1="38.14" x2="78.87" y2="38.14" xlink:href="#Безымянный_градиент_236"/><linearGradient id="Безымянный_градиент_490-9" x1="76.73" y1="34.28" x2="77.39" y2="34.28" xlink:href="#Безымянный_градиент_490"/><linearGradient id="Безымянный_градиент_490-10" x1="76.73" y1="74.13" x2="77.39" y2="74.13" xlink:href="#Безымянный_градиент_490"/><linearGradient id="Безымянный_градиент_236-6" x1="74.11" y1="42.46" x2="87.93" y2="42.46" xlink:href="#Безымянный_градиент_236"/><linearGradient id="Безымянный_градиент_236-7" x1="74.25" y1="55.6" x2="87.93" y2="55.6" xlink:href="#Безымянный_градиент_236"/><linearGradient id="Безымянный_градиент_490-11" x1="77.4" y1="53.81" x2="96.43" y2="53.81" xlink:href="#Безымянный_градиент_490"/><linearGradient id="Безымянный_градиент_236-8" x1="32.94" y1="118.92" x2="47.91" y2="118.92" xlink:href="#Безымянный_градиент_236"/></defs><title>promotion</title><g class="cls-1"><g id="Layer_2" data-name="Layer 2"><g id="Layer_1-2" data-name="Layer 1"><polygon class="cls-2" points="79.56 3.92 159.12 49.85 79.56 187.66 0 49.85 79.56 3.92"/><polygon class="cls-3" points="0 141.72 0 49.85 79.56 95.79 79.56 187.66 0 141.72"/><polygon class="cls-4" points="159.12 141.72 159.12 49.85 79.56 95.79 79.56 187.66 159.12 141.72"/><path class="cls-5" d="M63,99v11.08l-1.65-.95V98l-1.92-1.11,2.74-2.54,2.75,5.71L63,99Zm-9.65,6.61V107l11.55,6.67v-1.45L53.36,105.6Zm3.55-10.13v11.08l-1.65-1V94.51l-1.92-1.1,2.74-2.54,2.74,5.7Z"/><polygon class="cls-6" points="48.22 22.01 127.78 67.94 110.9 77.69 31.34 31.76 48.22 22.01"/><polygon class="cls-7" points="127.78 159.81 127.78 67.94 110.9 77.69 110.9 169.56 127.78 159.81"/><path class="cls-8" d="M104.14,201.47c1.35.3-1,4.3.37,4.39,4.55.29,12.37-4.47,16-6.53a24.17,24.17,0,0,0,9.29-10.08c4.42-8.46,5.51-20,3.09-32.37-4.68-24.07-21.5-45.09-39.11-48.89a26.7,26.7,0,0,0-4-.57A22,22,0,0,0,79,109.32c-4.47,2.07-12.53,4.91-15.21,10.05-4.42,8.45-1.16,20.8,1.26,33.22,4.69,24.06,21.5,45.08,39.11,48.88Z"/><path class="cls-9" d="M94.92,206.06a27.74,27.74,0,0,0,4,.56c9.33.59,17-4,21.61-12.79,4.41-8.47,5.51-20,3.09-32.38-4.69-24.07-21.51-45.08-39.11-48.89a27,27,0,0,0-4-.57c-9.33-.59-17,4-21.62,12.79-4.42,8.46-5.51,20-3.09,32.38,4.69,24.06,21.5,45.08,39.11,48.88Z"/><path class="cls-10" d="M58.8,157.35C63.6,182,81.34,202.83,98.4,203.9s27-18,22.26-42.62c-.21-1-.43-2.09-.7-3.12a72,72,0,0,0-11.85-25.62,51.53,51.53,0,0,0-13.9-13.26,28.71,28.71,0,0,0-12.46-4.46c-.25,0-.47-.06-.72-.08C64,113.64,54,132.71,58.8,157.35Z"/><path class="cls-11" d="M120.41,163.86c-.21-1-.43-2.09-.7-3.12a72,72,0,0,0-11.85-25.62A51.52,51.52,0,0,0,94,121.86,28.72,28.72,0,0,0,81.5,117.4c-.25,0-.47-.06-.72-.08-12.48-.79-21.15,9.18-23,24.21,1.19-16.47,10.12-27.64,23.3-26.8.25,0,.47,0,.72.08a28.71,28.71,0,0,1,12.46,4.46,51.53,51.53,0,0,1,13.9,13.26A72,72,0,0,1,120,158.15c.27,1,.49,2.07.7,3.12a58.48,58.48,0,0,1,.8,18.36A60.33,60.33,0,0,0,120.41,163.86Z"/><path class="cls-11" d="M118.49,161.27c-.21-1-.43-2.09-.7-3.12a72,72,0,0,0-11.85-25.62A51.53,51.53,0,0,0,92,119.27a28.71,28.71,0,0,0-12.46-4.46c-.25,0-.47-.06-.72-.08h-.21a21.15,21.15,0,0,1,2.38,0c.25,0,.47,0,.72.08a28.71,28.71,0,0,1,12.46,4.46,51.53,51.53,0,0,1,13.9,13.26A72,72,0,0,1,120,158.15c.27,1,.49,2.07.7,3.12,4.76,24.52-5.09,43.55-22,42.63C114.23,203.15,123,184.72,118.49,161.27Z"/><polygon class="cls-12" points="68.41 130.57 68.92 128.84 99.81 169.2 98.76 170.19 68.41 130.57"/><polygon class="cls-12" points="91.05 159.61 100.34 166.33 110.2 169.87 110.2 168.9 102.19 162.42 91.36 157.64 91.05 159.61"/><polygon class="cls-12" points="90.69 157.18 89.2 136.68 90.75 125.4 91.47 125.73 93.02 137.32 91.66 157.71 90.69 157.18"/><path class="cls-12" d="M90.62,154.46c1.49.09,3,1.9,3.43,4s-.44,3.78-1.92,3.7-3-1.9-3.43-4S89.16,154.36,90.62,154.46Z"/><path class="cls-13" d="M81,114.72c.2,0,.41.06.62.07-16.38-.13-25.89,18.26-21.28,41.87,4.71,24.12,22.36,44.5,39.42,45.49a19.12,19.12,0,0,0,15.42-6.07,19.06,19.06,0,0,1-16.82,7.82C81.34,202.83,63.6,182,58.8,157.36S64,113.63,81,114.72Z"/><polygon class="cls-14" points="88.82 124.89 90.63 125.95 90.63 119.5 88.82 118.43 88.82 124.89"/><polygon class="cls-14" points="77.28 125.04 78.98 124.61 77.1 118.43 75.4 118.86 77.28 125.04"/><polygon class="cls-14" points="104.1 199.61 105.81 199.19 103.93 193.01 102.23 193.43 104.1 199.61"/><polygon class="cls-14" points="68.95 133.86 69.86 132.18 65.58 127.33 64.67 129.01 68.95 133.86"/><polygon class="cls-14" points="75.84 185.38 74.56 184.01 77.84 178.44 79.13 179.81 75.84 185.38"/><polygon class="cls-14" points="101.23 135.82 99.94 134.46 103.22 128.89 104.5 130.25 101.23 135.82"/><polygon class="cls-14" points="64.51 165.46 63.89 163.72 69.86 161.9 70.48 163.65 64.51 165.46"/><polygon class="cls-14" points="110.56 154.73 109.93 152.99 115.91 151.19 116.53 152.93 110.56 154.73"/><polygon class="cls-14" points="116.08 189.84 116.99 188.16 112.71 183.32 111.8 185 116.08 189.84"/><polygon class="cls-14" points="88.82 197.74 90.63 198.79 90.63 192.33 88.82 191.27 88.82 197.74"/><polygon class="cls-14" points="66.49 146.17 66.49 144.03 61.04 140.55 61.04 142.69 66.49 146.17"/><polygon class="cls-14" points="121.34 177.65 121.34 175.5 115.89 172.03 115.89 174.18 121.34 177.65"/><polygon class="cls-9" points="66.98 131.45 67.49 129.72 98.39 170.08 97.33 171.07 66.98 131.45"/><path class="cls-14" d="M89,155.45c1.49.09,3,1.9,3.43,4s-.44,3.78-1.92,3.7-3-1.9-3.43-4S87.5,155.35,89,155.45Z"/><polygon class="cls-14" points="89.41 159.93 98.7 166.65 108.56 170.19 108.56 169.22 100.55 162.74 89.72 157.96 89.41 159.93"/><polygon class="cls-14" points="89.05 157.5 87.56 137 89.11 125.72 89.83 126.05 91.38 137.64 90.02 158.03 89.05 157.5"/><path class="cls-15" d="M80.62,194.49c5.75,4.93,12.09,8,18.33,8.36.41,0,.78,0,1.17,0L120,158.15a72,72,0,0,0-11.85-25.62Z"/><path class="cls-15" d="M60.75,162.14v0a71.86,71.86,0,0,0,7.08,16.67l26.38-59.56a28.71,28.71,0,0,0-12.46-4.46Z"/><polygon class="cls-16" points="125.92 30.65 47.91 77.18 32.94 68.87 112.03 22.45 125.92 30.65"/><polygon class="cls-17" points="74.8 39.7 56.08 75.2 70.55 80.07 88.23 46.7 74.8 39.7"/><polygon class="cls-18" points="100.83 76.44 87.63 84.11 69.47 44.27 82.9 37.26 100.83 76.44"/><path class="cls-19" d="M85.23,30.31C83.74,36,82.12,40.78,83.32,43.2l-13.1,4.1c-.19-.35-.45-.75-.45-.75-.9-1.81-.22-4.92.8-8.74,1.51-5.66,3.76-12.91,2.81-19.94A19.89,19.89,0,0,0,68.66,7.24a18.54,18.54,0,0,0-2-2,9.06,9.06,0,0,0-5.25-2.41C63.57,2.35,69.21,1,71.39.47c3-.67,6.15-1.1,9.66,2.22A15.44,15.44,0,0,1,82.21,3.9a19.74,19.74,0,0,1,4.62,10C87.75,19.49,86.54,25.28,85.23,30.31Z"/><path class="cls-9" d="M72.21,47.75a3.46,3.46,0,0,0,1,1l2.21.74,9.13-10c-1.88-1.84-1.64-7-1.8-12.93a5.5,5.5,0,0,0-.1.8c.06,10.75-12.11,15.06-12.11,15.06S70.81,46.38,72.21,47.75Z"/><path class="cls-9" d="M59.87,34.33c14.41,19.47,9.91,12.23,9.91,12.23-1.23-2.47.48-7.36,2-13.22l-.57-.79c-6-8.1-7.54-16.53-6.44-22.61a14.9,14.9,0,0,1,1.69-4.87c-3.93-3.2-7.62-2.71-10.11.07C51.83,10.13,51.18,22.59,59.87,34.33Z"/><path class="cls-20" d="M64.75,9.94a14.9,14.9,0,0,1,1.69-4.87c-3.93-3.2-7.62-2.71-10.11.07C59.08,6.68,62.11,8.42,64.75,9.94Z"/><path class="cls-9" d="M71.63,47.5c5.53-.06,9.43-23.84,24.83-23.43-6,6.94-9,17.36-12.64,17.4,0,0-4.48-.51,17.39,7.85a26.92,26.92,0,0,0,9.41,2C107,56.62,99.79,59.46,89,55.34,67.15,47,71.63,47.5,71.63,47.5Z"/><path class="cls-21" d="M122,36a16,16,0,0,1-4.8,12.67c-1,.89-6.49,4-9.54,5.77a15.44,15.44,0,0,0,5.69-11.88,18.89,18.89,0,0,0-2.61-10.26,16.8,16.8,0,0,0-8-6.87,9.67,9.67,0,0,0-.94-.34c-.18-.08-.35-.13-.53-.19a14.69,14.69,0,0,0-10.7.28c2.93-1.79,8.41-5.06,10.11-5.59a14.68,14.68,0,0,1,7.8-.13l.69.18.75.21A17.25,17.25,0,0,1,112.83,21a16.74,16.74,0,0,1,7,7.08A18.87,18.87,0,0,1,122,36Z"/><path class="cls-22" d="M71.63,47.5c5.53-.06,9.43-23.84,24.83-23.43-6,6.93-9,17.36-12.64,17.4,0,0-3-.34,7.68,4L72.41,48.44C70.4,47.36,71.63,47.5,71.63,47.5Z"/><path class="cls-9" d="M78.51,46.89c-5.08.75-11.22-20.9-25.3-18.29C59.5,34.2,63.33,43.51,66.69,43c0,0,4.06-1.13-15.1,9.85a25.37,25.37,0,0,1-8.42,3.19C47,60.54,54,62.15,63.41,56.74,82.57,45.76,78.51,46.89,78.51,46.89Z"/><path class="cls-23" d="M58.71,28.8a13.43,13.43,0,0,0-9.84,1.29,15.5,15.5,0,0,0-1.37.76,16.69,16.69,0,0,0-7.18,9.52c-2.08,7,.13,14.93,5.92,18.22a99.57,99.57,0,0,1-9.37-4c-5.43-3.79-7.22-11.95-4.68-18.81A16.58,16.58,0,0,1,33,33.93a16.31,16.31,0,0,1,7.37-7.29,10.62,10.62,0,0,1,1.08-.49A13.43,13.43,0,0,1,48.83,25C50.45,25.3,55.82,27.56,58.71,28.8Z"/><path class="cls-24" d="M78.51,46.89c-5.08.75-11.22-20.9-25.3-18.29C59.5,34.2,63.33,43.51,66.69,43c0,0,2.68-.74-6.61,4.88H77.9C79.63,46.58,78.51,46.89,78.51,46.89Z"/><path class="cls-25" d="M76.73,34.32l.66,0A1,1,0,0,0,76.73,34.32Z"/><path class="cls-26" d="M77.39,74.12l-.66,0A1.23,1.23,0,0,0,77.39,74.12Z"/><path class="cls-27" d="M78.8,50.61c1.72,11.11,14.71,18.58,12.76,22.48S89.29,76,89.29,76H73.37C65.58,76,63,67.57,73,44.83Z"/><path class="cls-28" d="M74.28,46c0-4.12-1.25-11.67,3.08-11.67S87.93,49.4,87.93,49.4L78.8,50.61Z"/><path class="cls-29" d="M74.28,46.09c0,8.16-.5,28.17,2.85,28.17,6.39,0,10.8-34.93,10.8-34.93l-9.13-2.4Z"/><path class="cls-30" d="M96.11,63.53c-.42,6.1-1.25,10.59-2.48,10.23l-16.23.36c1-.25,1.85-6.47,2.29-13.93a155.07,155.07,0,0,0,.15-16.56A39.94,39.94,0,0,0,79,36.85c-.39-1.61-.92-2.56-1.59-2.56l16.22-.75c.65-.24,1.2.87,1.62,2.87a50.66,50.66,0,0,1,.84,6.82A156.74,156.74,0,0,1,96.11,63.53Z"/><path class="cls-31" d="M96.11,63.53c-.42,6.1-1.25,10.59-2.48,10.23l-16.23.36c1-.25,1.85-6.47,2.29-13.93C85.65,61.51,91.08,62.66,96.11,63.53Z"/><path class="cls-31" d="M46.23,58.59a99.57,99.57,0,0,1-9.37-4c-5.43-3.79-7.22-11.95-4.68-18.81A16.58,16.58,0,0,1,33,33.93a67.13,67.13,0,0,0,7.31,6.44C38.24,47.34,40.44,55.3,46.23,58.59Z"/><path class="cls-32" d="M122,36a36.09,36.09,0,0,1-8.65,6.56,18.89,18.89,0,0,0-2.61-10.26,16.61,16.61,0,0,0-8-6.87c2.12-1.78,4.45-3.89,6.45-5.79l.75.21a16.67,16.67,0,0,1,9.9,8.27A18.87,18.87,0,0,1,122,36Z"/><path class="cls-32" d="M86.83,13.89l-13.45,4A19.89,19.89,0,0,0,68.66,7.24a18.54,18.54,0,0,0-2-2L81,2.69A15.44,15.44,0,0,1,82.21,3.9,19.74,19.74,0,0,1,86.83,13.89Z"/><path class="cls-32" d="M58.71,28.8a13.43,13.43,0,0,0-9.84,1.29,15.5,15.5,0,0,0-1.37.76l-6-4.7A13.43,13.43,0,0,1,48.83,25C50.45,25.3,55.82,27.56,58.71,28.8Z"/><path class="cls-33" d="M96.08,43.23q-8.13-.09-16.25.39A39.94,39.94,0,0,0,79,36.85q8.13-.5,16.25-.44A50.66,50.66,0,0,1,96.08,43.23Z"/><path class="cls-33" d="M105.57,26.93c2.33-2.08,4.77-4,7.26-5.89A17.25,17.25,0,0,0,110,19.86l-.75-.21-.69-.18c-2.31,1.77-4.55,3.62-6.69,5.62Z"/><polygon class="cls-9" points="100.82 76.44 100.77 76.47 87.61 84.07 87.85 102.19 101.06 94.49 100.82 76.44"/><polygon class="cls-34" points="32.94 68.87 32.94 160.74 46.88 168.98 47.91 77.18 32.94 68.87"/></g></g></g></svg>